<svg width="37" height="25" viewBox="0 0 37 25" fill="none" xmlns="http://www.w3.org/2000/svg">
<path d="M22.0216 11.4613H24.8862V14.4575H22.0216V17.3222H19.0316V14.4575H16.167V11.4613H19.0316V8.59668H22.0216V11.4613Z" fill="white" stroke="#404366" stroke-width="0.75" stroke-linecap="round" stroke-linejoin="round"/>
<path d="M29.4371 8.20829V23.6408H7.76758V8.20829C7.76758 7.73361 7.86117 7.2636 8.04301 6.82514C8.22485 6.38668 8.49136 5.98838 8.8273 5.65303C9.16323 5.31768 9.56199 5.05186 10.0008 4.87078C10.4395 4.6897 10.9097 4.59692 11.3844 4.59774H25.8015C26.2777 4.59444 26.7499 4.68538 27.1909 4.86535C27.6318 5.04531 28.0328 5.31074 28.3707 5.64634C28.7087 5.98194 28.9769 6.38108 29.1599 6.82078C29.3429 7.26047 29.4371 7.73203 29.4371 8.20829V8.20829Z" stroke="#404366" stroke-width="0.75" stroke-linecap="round" stroke-linejoin="round"/>
<path d="M29.4373 8.2082V23.6408H12.1807V8.2082C12.1807 7.25063 12.5611 6.33227 13.2382 5.65517C13.9153 4.97806 14.8336 4.59766 15.7912 4.59766H25.8205C26.2952 4.59684 26.7653 4.68962 27.2041 4.8707C27.6429 5.05177 28.0416 5.31759 28.3776 5.65295C28.7135 5.9883 28.98 6.3866 29.1619 6.82506C29.3437 7.26352 29.4373 7.73353 29.4373 8.2082V8.2082Z" stroke="#404366" stroke-width="0.75" stroke-linecap="round" stroke-linejoin="round"/>
<path d="M15.2583 4.6228C15.2972 3.6888 15.6956 2.80596 16.3702 2.15884C17.0448 1.51172 17.9434 1.15039 18.8782 1.15039C19.8131 1.15039 20.7117 1.51172 21.3863 2.15884C22.0609 2.80596 22.4593 3.6888 22.4982 4.6228" stroke="#404366" stroke-width="0.75" stroke-linecap="round" stroke-linejoin="round"/>
<path d="M5.15381 23.666H34.8906" stroke="#404366" stroke-width="0.75" stroke-linecap="round" stroke-linejoin="round"/>
<path d="M32.7526 17.5299V23.6666H26.6724V17.5299C26.6716 17.3532 26.7056 17.1781 26.7727 17.0146C26.8397 16.8512 26.9384 16.7025 27.063 16.5773C27.1877 16.4521 27.3358 16.3527 27.499 16.2849C27.6622 16.2171 27.8371 16.1822 28.0138 16.1822C28.1457 16.1822 28.2723 16.1302 28.3662 16.0376C28.4601 15.9449 28.5136 15.8189 28.5153 15.687V12.9102H30.7405V15.687C30.7421 15.8178 30.7948 15.9429 30.8873 16.0354C30.9799 16.1279 31.1049 16.1806 31.2357 16.1822H31.4112C31.5879 16.1822 31.7628 16.2171 31.926 16.2849C32.0892 16.3527 32.2373 16.4521 32.362 16.5773C32.4866 16.7025 32.5853 16.8512 32.6523 17.0146C32.7194 17.1781 32.7535 17.3532 32.7526 17.5299Z" fill="white" stroke="#404366" stroke-width="0.75" stroke-linecap="round" stroke-linejoin="round"/>
<path d="M31.0538 12.5459H28.1265V14.9216H31.0538V12.5459Z" fill="white" stroke="#404366" stroke-width="0.75" stroke-linecap="round" stroke-linejoin="round"/>
<path d="M32.7525 18.8018H28.1265V21.6852H32.7525V18.8018Z" fill="white" stroke="#404366" stroke-width="0.75" stroke-linecap="round" stroke-linejoin="round"/>
<path d="M5.37296 9.0104C5.37131 9.16392 5.30916 9.31059 5.20002 9.41856C5.09087 9.52654 4.94354 9.58709 4.79001 9.58708H3.79335V10.5837C3.8018 10.665 3.79311 10.747 3.76782 10.8247C3.74253 10.9023 3.70122 10.9737 3.64656 11.0344C3.5919 11.095 3.5251 11.1435 3.45051 11.1767C3.37591 11.2099 3.29518 11.2271 3.21353 11.2271C3.13188 11.2271 3.05115 11.2099 2.97655 11.1767C2.90196 11.1435 2.83516 11.095 2.7805 11.0344C2.72584 10.9737 2.68453 10.9023 2.65924 10.8247C2.63396 10.747 2.62526 10.665 2.63371 10.5837V9.58708H1.64332C1.56211 9.59554 1.48004 9.58684 1.4024 9.56155C1.32477 9.53627 1.25332 9.49495 1.19267 9.44029C1.13202 9.38563 1.08353 9.31884 1.05034 9.24424C1.01715 9.16965 1 9.08891 1 9.00727C1 8.92562 1.01715 8.84488 1.05034 8.77029C1.08353 8.69569 1.13202 8.6289 1.19267 8.57424C1.25332 8.51958 1.32477 8.47826 1.4024 8.45298C1.48004 8.42769 1.56211 8.41899 1.64332 8.42745H2.63371V7.43079C2.64864 7.28741 2.71616 7.15464 2.82325 7.05813C2.93033 6.96162 3.06937 6.9082 3.21353 6.9082C3.35769 6.9082 3.49673 6.96162 3.60381 7.05813C3.7109 7.15464 3.77842 7.28741 3.79335 7.43079V8.42745H4.79001C4.94462 8.42745 5.09289 8.48887 5.20222 8.59819C5.31154 8.70752 5.37296 8.85579 5.37296 9.0104Z" stroke="#404366" stroke-width="0.75" stroke-linecap="round" stroke-linejoin="round"/>
<path d="M7.84269 3.1563C7.84353 3.23308 7.82902 3.30927 7.80002 3.38037C7.77102 3.45148 7.72811 3.51608 7.67381 3.57038C7.61951 3.62468 7.55492 3.66758 7.48381 3.69658C7.4127 3.72558 7.33652 3.74009 7.25973 3.73925H6.26934V4.73591C6.26934 4.89052 6.20792 5.03879 6.0986 5.14812C5.98928 5.25744 5.841 5.31886 5.68639 5.31886C5.53178 5.31886 5.38351 5.25744 5.27418 5.14812C5.16486 5.03879 5.10344 4.89052 5.10344 4.73591V3.73925H4.11305C4.03184 3.7477 3.94976 3.73901 3.87213 3.71372C3.7945 3.68843 3.72304 3.64712 3.6624 3.59246C3.60175 3.5378 3.55326 3.471 3.52007 3.39641C3.48688 3.32181 3.46973 3.24108 3.46973 3.15943C3.46973 3.07778 3.48688 2.99705 3.52007 2.92245C3.55326 2.84786 3.60175 2.78106 3.6624 2.7264C3.72304 2.67174 3.7945 2.63043 3.87213 2.60514C3.94976 2.57986 4.03184 2.57116 4.11305 2.57961H5.10344V1.58295C5.10344 1.42834 5.16486 1.28007 5.27418 1.17074C5.38351 1.06142 5.53178 1 5.68639 1C5.841 1 5.98928 1.06142 6.0986 1.17074C6.20792 1.28007 6.26934 1.42834 6.26934 1.58295V2.57961H7.25973C7.33599 2.57878 7.41166 2.59309 7.48235 2.6217C7.55304 2.65031 7.61735 2.69265 7.67157 2.74629C7.72579 2.79992 7.76883 2.86377 7.7982 2.93415C7.82757 3.00453 7.84269 3.08003 7.84269 3.1563V3.1563Z" stroke="#404366" stroke-width="0.75" stroke-linecap="round" stroke-linejoin="round"/>
<path d="M35.9998 10.0832C36.0006 10.1595 35.9863 10.2352 35.9577 10.3058C35.9291 10.3765 35.8867 10.4409 35.8331 10.4951C35.7795 10.5493 35.7156 10.5923 35.6452 10.6217C35.5749 10.6511 35.4994 10.6662 35.4231 10.6662H34.4264V11.6628C34.4349 11.7441 34.4262 11.8261 34.4009 11.9038C34.3756 11.9814 34.3343 12.0528 34.2796 12.1135C34.225 12.1741 34.1582 12.2226 34.0836 12.2558C34.009 12.289 33.9283 12.3062 33.8466 12.3062C33.765 12.3062 33.6842 12.289 33.6096 12.2558C33.535 12.2226 33.4683 12.1741 33.4136 12.1135C33.3589 12.0528 33.3176 11.9814 33.2923 11.9038C33.267 11.8261 33.2583 11.7441 33.2668 11.6628V10.6662H32.2701C32.1268 10.6513 31.994 10.5837 31.8975 10.4766C31.801 10.3696 31.7476 10.2305 31.7476 10.0864C31.7476 9.94221 31.801 9.80317 31.8975 9.69608C31.994 9.589 32.1268 9.52148 32.2701 9.50655H33.2668V8.50989C33.2817 8.36651 33.3493 8.23374 33.4563 8.13723C33.5634 8.04072 33.7025 7.9873 33.8466 7.9873C33.9908 7.9873 34.1298 8.04072 34.2369 8.13723C34.344 8.23374 34.4115 8.36651 34.4264 8.50989V9.50655H35.4231C35.576 9.50655 35.7227 9.56731 35.8309 9.67546C35.939 9.78361 35.9998 9.93029 35.9998 10.0832Z" stroke="#404366" stroke-width="0.75" stroke-linecap="round" stroke-linejoin="round"/>
</svg>
