<svg width="282" height="264" viewBox="0 0 282 264" fill="none" xmlns="http://www.w3.org/2000/svg">
<path d="M271.36 10.3198C270.83 17.4398 267.45 22.9199 271.44 30.9199C275.32 38.7199 282.86 46.9199 278.54 55.9199C276.01 61.1599 269.54 64.7799 264.79 67.9199C259.49 71.3299 255.27 75.0898 250.4 79.0098C239.92 87.4398 228 95.0098 216.47 101.64C202.78 109.54 188.84 118.46 186.77 135.05C185.04 148.92 181.37 155.05 172.53 165.57C169.73 168.88 167.22 174.18 164.19 176.98C163.374 177.714 162.502 178.383 161.58 178.98C152.58 184.91 140.58 183.05 131.23 188.26C128.416 190.012 125.699 191.915 123.09 193.96C122.24 194.57 121.37 195.15 120.47 195.68C117.66 197.36 114.91 199.24 112.03 200.81C106.6 203.81 100.87 206.81 96.2401 211.04L95.4701 211.76C91.3166 215.798 86.8857 219.54 82.2101 222.96C78.0601 225.96 74.6202 229.63 70.5602 232.83C66.8202 235.77 63.9601 240.01 59.9001 242.83C59.5401 243.07 59.1802 243.31 58.8002 243.53C55.0902 245.7 51.2702 248.07 47.1702 249.53C46.2602 249.87 45.0701 250.69 44.2701 250.9C43.1401 251.2 42.0501 251.01 40.8901 251.3C38.8901 251.8 37.0702 252.42 35.1602 252.97C33.2168 253.389 31.2445 253.66 29.2601 253.78C28.7701 253.78 28.2601 253.78 27.7301 253.78C26.2169 253.62 24.688 253.701 23.2001 254.02C21.5801 254.51 20.8701 255.52 18.9801 255.62C15.6501 255.8 9.7101 254.32 6.8501 256.24C4.8501 257.58 3.7401 260.41 1.8501 261.9" stroke="#F90000" stroke-width="3.75" stroke-linejoin="round" stroke-dasharray="4.69 3.75"/>
<path d="M271.53 17.7901C275.656 17.7901 279 14.4456 279 10.3201C279 6.1945 275.656 2.8501 271.53 2.8501C267.404 2.8501 264.06 6.1945 264.06 10.3201C264.06 14.4456 267.404 17.7901 271.53 17.7901Z" fill="white" stroke="#F90000" stroke-width="3.75" stroke-linecap="round" stroke-linejoin="round"/>
</svg>
