<svg width="104" height="245" viewBox="0 0 104 245" fill="none" xmlns="http://www.w3.org/2000/svg">
<path d="M11.25 19.6899C11.25 32.2499 13.7399 42.1699 22.8199 50.6899C24.3595 52.0457 26.0351 53.2387 27.8199 54.2499" stroke="#F90000" stroke-width="3.75" stroke-linejoin="round" stroke-dasharray="4.69 3.75"/>
<path d="M10.8999 21.86C16.732 21.86 21.4598 17.1321 21.4598 11.3C21.4598 5.46786 16.732 0.73999 10.8999 0.73999C5.06778 0.73999 0.339844 5.46786 0.339844 11.3C0.339844 17.1321 5.06778 21.86 10.8999 21.86Z" fill="#F90000"/>
<path d="M27.7803 54.26C30.8903 56.18 34.0103 58.02 35.7803 61.54C36.3241 62.6583 36.7465 63.8317 37.0403 65.04C37.4303 66.65 37.3903 68.35 37.8103 69.95C39.0703 74.79 44.4003 77.49 46.8103 81.82C47.8103 83.71 54.2502 92.07 55.7502 95.04C56.5902 96.71 57.6003 98.54 58.4303 100.33C59.4303 102.54 62.0403 112.63 61.7603 118.71C61.5503 123.3 61.7603 127.89 61.7603 132.47C61.7603 137.05 59.3703 161.35 59.2803 161.81C58.7413 164.339 58.3705 166.902 58.1703 169.48C57.9998 173.738 58.6797 177.988 60.1703 181.98C62.6003 189.37 70.6903 191.45 77.4203 192.76C84.2022 193.996 90.4835 197.163 95.5103 201.88C96.5769 202.945 97.486 204.158 98.2102 205.48C98.6402 206.24 99.2102 206.97 99.5702 207.75C99.8702 208.37 99.9402 209.16 100.2 209.75C101.56 212.91 101.12 216.64 101.12 220.26V232.08C101.12 233.93 101.64 236.64 101.12 238.39C100.73 239.83 99.2702 241.39 98.6002 242.84C98.4902 243.06 98.4003 243.27 98.3103 243.47" stroke="#F90000" stroke-width="3.75" stroke-linejoin="round" stroke-dasharray="4.69 3.75"/>
<path d="M28.4802 60.93C32.6058 60.93 35.9502 57.5856 35.9502 53.46C35.9502 49.3344 32.6058 45.99 28.4802 45.99C24.3547 45.99 21.0103 49.3344 21.0103 53.46C21.0103 57.5856 24.3547 60.93 28.4802 60.93Z" fill="white" stroke="#F90000" stroke-width="3.75" stroke-linecap="round" stroke-linejoin="round"/>
</svg>
