<svg width="226" height="160" viewBox="0 0 226 160" fill="none" xmlns="http://www.w3.org/2000/svg">
<path d="M66.3901 71.9601C67.0648 69.008 67.4003 65.9884 67.3901 62.9601C67.3901 61.6101 67.3901 60.2301 67.3401 58.8301C67.2201 53.8301 67.0701 48.6901 68.8401 44.0901C69.0213 43.6222 69.2421 43.1706 69.5001 42.7402C72.6801 37.3702 82.2601 31.4502 87.8401 29.4902C93.6001 27.4902 99.3401 29.9602 104.65 33.2702C108.13 35.4302 111.43 37.9501 114.43 39.7801C115.805 40.6834 117.112 41.6861 118.34 42.7801C120.46 44.5801 122.66 46.4602 124.47 46.9702C126.66 47.6002 129.25 47.1802 131.9 46.2602C136.9 44.5302 142.06 41.0001 145.19 39.2101C151.33 35.7101 160.28 37.5202 165.59 32.5002C166.332 31.5892 167.023 30.6376 167.66 29.6501C170.471 26.5003 173.605 23.6548 177.01 21.1602C178.869 19.7883 180.839 18.5741 182.9 17.5302C188.76 14.6602 193.75 17.5901 197.36 16.7101C198.09 16.5401 201.26 16.0501 202.27 15.8101C203.28 15.5701 208.47 14.0201 212.44 12.6401" stroke="#F90000" stroke-width="3.75" stroke-linejoin="round" stroke-dasharray="4.69 3.75"/>
<path d="M216.01 17.5499C220.136 17.5499 223.48 14.2054 223.48 10.0798C223.48 5.95427 220.136 2.60986 216.01 2.60986C211.884 2.60986 208.54 5.95427 208.54 10.0798C208.54 14.2054 211.884 17.5499 216.01 17.5499Z" fill="white" stroke="#F90000" stroke-width="3.75" stroke-linecap="round" stroke-linejoin="round"/>
<path d="M66.39 71.96C65.6824 75.4779 63.8419 78.6671 61.15 81.0399C59.6477 82.1153 57.988 82.9519 56.23 83.52C55.1166 83.9341 54.0639 84.4957 53.1 85.1899C50.7918 87.0463 48.5884 89.0294 46.5 91.13" stroke="#C8CEDB" stroke-width="3.75" stroke-linecap="round" stroke-linejoin="round"/>
<path d="M66.52 76.3301C68.5911 76.3301 70.27 74.6511 70.27 72.5801C70.27 70.509 68.5911 68.8301 66.52 68.8301C64.449 68.8301 62.77 70.509 62.77 72.5801C62.77 74.6511 64.449 76.3301 66.52 76.3301Z" fill="#404366"/>
<path d="M46.5 91.1499C44.99 92.5999 43.5 94.04 41.77 95.38C40.8092 96.1529 39.8078 96.8739 38.77 97.5399C34.97 99.9299 30.46 102.08 27.27 105.38" stroke="#C8CEDB" stroke-width="3.75" stroke-linecap="round" stroke-linejoin="round"/>
<path d="M46.3604 94.7598C48.4314 94.7598 50.1104 93.0808 50.1104 91.0098C50.1104 88.9387 48.4314 87.2598 46.3604 87.2598C44.2893 87.2598 42.6104 88.9387 42.6104 91.0098C42.6104 93.0808 44.2893 94.7598 46.3604 94.7598Z" fill="#404366"/>
<path d="M27.22 105.38C26.0476 106.568 25.0872 107.948 24.38 109.46C23.6409 111.369 23.1176 113.355 22.82 115.38C22.59 116.54 22.97 117.56 22.54 118.76C21.68 121.15 20.39 123.45 19.54 125.84C19.0389 127.191 18.6411 128.578 18.35 129.99C18.3027 130.211 18.2694 130.435 18.25 130.66" stroke="#F90000" stroke-width="3.75" stroke-linecap="round" stroke-linejoin="round"/>
<path d="M26.8403 109.31C28.9114 109.31 30.5903 107.631 30.5903 105.56C30.5903 103.489 28.9114 101.81 26.8403 101.81C24.7693 101.81 23.0903 103.489 23.0903 105.56C23.0903 107.631 24.7693 109.31 26.8403 109.31Z" fill="white" stroke="#F90000" stroke-width="2" stroke-linecap="round" stroke-linejoin="round"/>
<path d="M18.2102 130.66C18.1002 131.73 18.2102 132.79 18.0102 133.87C17.4607 136.189 16.4169 138.362 14.9502 140.24C13.644 141.954 12.4257 143.733 11.3002 145.57C10.1302 147.48 8.61017 149.04 7.42017 150.91C7.12017 151.37 6.90016 152.03 6.60016 152.47C6.00016 153.32 5.3302 153.63 4.7002 154.47C4.11261 155.473 3.4437 156.426 2.7002 157.32" stroke="#C8CEDB" stroke-width="3.75" stroke-linecap="round" stroke-linejoin="round"/>
<path d="M18.0303 135.38C20.1013 135.38 21.7803 133.701 21.7803 131.63C21.7803 129.559 20.1013 127.88 18.0303 127.88C15.9592 127.88 14.2803 129.559 14.2803 131.63C14.2803 133.701 15.9592 135.38 18.0303 135.38Z" fill="#404366"/>
</svg>
