<svg width="113" height="250" viewBox="0 0 113 250" fill="none" xmlns="http://www.w3.org/2000/svg">
<path d="M103.74 9.29004C102.687 10.3851 101.561 11.4075 100.37 12.3501C99.1702 13.2401 97.7502 13.7101 96.4902 14.5101C95.4902 15.1201 94.5703 15.7401 93.5703 16.3301C92.1183 17.2202 90.6082 18.012 89.0502 18.7001C86.9902 19.6001 84.6402 20.33 82.6202 21.05C80.3964 21.778 78.2521 22.7296 76.2202 23.8901" stroke="#C8CEDB" stroke-width="3.75" stroke-linecap="round" stroke-linejoin="round"/>
<path d="M103.56 17.2501C107.686 17.2501 111.03 13.9056 111.03 9.78003C111.03 5.65446 107.686 2.31006 103.56 2.31006C99.4347 2.31006 96.0903 5.65446 96.0903 9.78003C96.0903 13.9056 99.4347 17.2501 103.56 17.2501Z" fill="white" stroke="#F90000" stroke-width="3.75" stroke-linecap="round" stroke-linejoin="round"/>
<path d="M76.2201 23.8901C74.0001 25.2601 71.6201 26.4901 70.0201 28.4501C69.3413 29.1634 68.6164 29.8315 67.8501 30.4501C66.9401 31.3101 66.1201 32.2201 65.2001 33.1401C64.4898 33.756 63.7193 34.2987 62.9001 34.7601C61.9087 35.5786 61.0249 36.5193 60.2701 37.5601C58.7401 39.2301 56.4801 39.9501 55.0001 41.7401C54.0014 43.1273 52.7976 44.3547 51.4301 45.3801C48.8581 46.8547 46.3739 48.4774 43.9901 50.2401C41.8401 52.0401 41.1001 54.8901 39.7001 57.2401C38.8617 58.5262 37.7176 59.5843 36.3701 60.3201" stroke="#C8CEDB" stroke-width="3.75" stroke-linecap="round" stroke-linejoin="round"/>
<path d="M76.23 27.3501C78.301 27.3501 79.98 25.6712 79.98 23.6001C79.98 21.529 78.301 19.8501 76.23 19.8501C74.1589 19.8501 72.48 21.529 72.48 23.6001C72.48 25.6712 74.1589 27.3501 76.23 27.3501Z" fill="#404366"/>
<path d="M31.3604 80.8501C32.1856 78.9752 32.7379 76.9917 33.0004 74.9601V74.9601C33.2486 72.963 32.9442 70.9362 32.1204 69.1001C31.1204 66.8701 30.8904 64.4601 32.9604 62.6401C34.0286 61.7747 35.1733 61.0082 36.3804 60.3501" stroke="#C8CEDB" stroke-width="3.75" stroke-linecap="round" stroke-linejoin="round"/>
<path d="M36.3701 63.7598C38.4412 63.7598 40.1201 62.0808 40.1201 60.0098C40.1201 57.9387 38.4412 56.2598 36.3701 56.2598C34.299 56.2598 32.6201 57.9387 32.6201 60.0098C32.6201 62.0808 34.299 63.7598 36.3701 63.7598Z" fill="#404366"/>
<path d="M31.36 80.8198C30.29 83.4098 28.89 85.8899 27.72 88.1099C25.81 91.7199 25.3801 95.0098 24.5801 98.6898" stroke="#C8CEDB" stroke-width="3.75" stroke-linecap="round" stroke-linejoin="round"/>
<path d="M31.3604 84.9697C33.4314 84.9697 35.1104 83.2908 35.1104 81.2197C35.1104 79.1487 33.4314 77.4697 31.3604 77.4697C29.2893 77.4697 27.6104 79.1487 27.6104 81.2197C27.6104 83.2908 29.2893 84.9697 31.3604 84.9697Z" fill="#404366"/>
<path d="M16.4399 115.96C19.1099 111.4 21.9899 106.96 23.4399 102.85C23.6199 102.34 23.7799 101.85 23.9199 101.34C24.1599 100.45 24.3599 99.5802 24.5499 98.7402" stroke="#C8CEDB" stroke-width="3.75" stroke-linecap="round" stroke-linejoin="round"/>
<path d="M25.1001 102.8C27.1712 102.8 28.8501 101.121 28.8501 99.0498C28.8501 96.9787 27.1712 95.2998 25.1001 95.2998C23.029 95.2998 21.3501 96.9787 21.3501 99.0498C21.3501 101.121 23.029 102.8 25.1001 102.8Z" fill="#404366"/>
<path d="M16.4402 115.96C13.0602 121.73 10.0002 127.67 10.5502 133.31" stroke="#C8CEDB" stroke-width="3.75" stroke-linecap="round" stroke-linejoin="round"/>
<path d="M16.4399 119.97C18.511 119.97 20.1899 118.291 20.1899 116.22C20.1899 114.149 18.511 112.47 16.4399 112.47C14.3689 112.47 12.6899 114.149 12.6899 116.22C12.6899 118.291 14.3689 119.97 16.4399 119.97Z" fill="#404366"/>
<path d="M10.5503 133.28C10.6736 134.612 11.0112 135.915 11.5503 137.14C11.8789 137.9 12.3133 138.611 12.8403 139.25C15.5903 142.64 20.1203 143.58 21.3503 148.74C21.6077 149.882 21.7815 151.042 21.8703 152.21" stroke="#C8CEDB" stroke-width="3.75" stroke-linecap="round" stroke-linejoin="round"/>
<path d="M10.3799 137.43C12.451 137.43 14.1299 135.751 14.1299 133.68C14.1299 131.609 12.451 129.93 10.3799 129.93C8.30882 129.93 6.62988 131.609 6.62988 133.68C6.62988 135.751 8.30882 137.43 10.3799 137.43Z" fill="#404366"/>
<path d="M21.8601 152.21C22.1504 156.504 22.0466 160.815 21.5501 165.09C21.3414 166.678 20.9453 168.235 20.3701 169.73" stroke="#F90000" stroke-width="3.75" stroke-linejoin="round"/>
<path d="M21.9399 155.76C24.011 155.76 25.6899 154.081 25.6899 152.01C25.6899 149.939 24.011 148.26 21.9399 148.26C19.8689 148.26 18.1899 149.939 18.1899 152.01C18.1899 154.081 19.8689 155.76 21.9399 155.76Z" fill="white" stroke="#F90000" stroke-width="2" stroke-linecap="round" stroke-linejoin="round"/>
<path d="M20.3701 169.73C19.2201 172.9 17.6001 176.01 16.7801 179.18C16.1491 181.649 15.7341 184.169 15.54 186.71" stroke="#C8CEDB" stroke-width="3.75" stroke-linecap="round" stroke-linejoin="round"/>
<path d="M19.8101 173.2C21.8811 173.2 23.5601 171.521 23.5601 169.45C23.5601 167.379 21.8811 165.7 19.8101 165.7C17.739 165.7 16.0601 167.379 16.0601 169.45C16.0601 171.521 17.739 173.2 19.8101 173.2Z" fill="#404366"/>
<path d="M15.5403 186.71C15.4003 188.36 15.3403 190.01 15.3203 191.71C15.3203 193.24 15.3203 194.8 15.3203 196.41C15.3203 198.88 15.5203 201.56 15.5903 204.2" stroke="#C8CEDB" stroke-width="3.75" stroke-linecap="round" stroke-linejoin="round"/>
<path d="M15.8901 190.67C17.9612 190.67 19.6401 188.991 19.6401 186.92C19.6401 184.849 17.9612 183.17 15.8901 183.17C13.8191 183.17 12.1401 184.849 12.1401 186.92C12.1401 188.991 13.8191 190.67 15.8901 190.67Z" fill="#404366"/>
<path d="M15.5803 204.19C15.6527 206.069 15.5926 207.95 15.4003 209.82C14.9703 213.43 12.9703 216.36 11.0503 219.41" stroke="#C8CEDB" stroke-width="3.75" stroke-linecap="round" stroke-linejoin="round"/>
<path d="M15.3901 207.94C17.4612 207.94 19.1401 206.261 19.1401 204.19C19.1401 202.119 17.4612 200.44 15.3901 200.44C13.3191 200.44 11.6401 202.119 11.6401 204.19C11.6401 206.261 13.3191 207.94 15.3901 207.94Z" fill="#404366"/>
<path d="M11.0503 219.41C10.3903 220.41 9.7403 221.52 9.1703 222.62C7.8003 225.28 0.240302 241.75 2.3603 248.92" stroke="#F90000" stroke-width="3.75" stroke-linejoin="round"/>
<path d="M10.3799 223.64C12.451 223.64 14.1299 221.961 14.1299 219.89C14.1299 217.819 12.451 216.14 10.3799 216.14C8.30882 216.14 6.62988 217.819 6.62988 219.89C6.62988 221.961 8.30882 223.64 10.3799 223.64Z" fill="white" stroke="#F90000" stroke-width="2" stroke-linecap="round" stroke-linejoin="round"/>
</svg>
