<svg width="151" height="155" viewBox="0 0 151 155" fill="none" xmlns="http://www.w3.org/2000/svg">
<path d="M140.68 9.20996C139.294 8.69722 137.828 8.43314 136.35 8.42993C132.98 8.42993 129.86 10.1199 126.9 11.7499C120.2 14.7499 113.44 18.0599 107.43 19.7499C94.5101 23.2699 80.6701 20.42 67.9201 22.84C51.2801 26 35.8601 21.26 21.1801 31.08C19.1801 32.4 17.6101 34.23 15.6801 35.6C13.2344 37.3777 11.0817 39.527 9.30013 41.97C7.5939 44.0895 6.39039 46.5683 5.78011 49.22C5.08011 52.29 3.78011 55.2199 3.78011 58.4399C3.81029 58.9495 3.81029 59.4604 3.78011 59.97C3.63053 60.5119 3.45361 61.0459 3.25008 61.5699C3.05487 63.0281 3.0046 64.5019 3.10005 65.97C3.10005 67.43 2.56009 68.39 2.39009 69.83C2.191 71.8718 2.49307 73.9313 3.2701 75.83C3.7601 77.2 3.99013 78.89 4.55013 80.2C4.95013 81.13 5.79013 81.65 6.30013 82.52C12.8901 93.58 20.06 107.28 28.45 117.08C33.45 122.98 40.4501 124.51 46.8001 128.66C53.8001 133.24 59.96 141.02 61.21 149.45C61.448 151.072 61.5051 152.715 61.3801 154.35" stroke="#F90000" stroke-width="3.75" stroke-linejoin="round" stroke-dasharray="4.69 3.75"/>
<path d="M140.68 17.45C144.806 17.45 148.15 14.1056 148.15 9.98004C148.15 5.85447 144.806 2.51001 140.68 2.51001C136.554 2.51001 133.21 5.85447 133.21 9.98004C133.21 14.1056 136.554 17.45 140.68 17.45Z" fill="white" stroke="#F90000" stroke-width="3.75" stroke-linecap="round" stroke-linejoin="round"/>
</svg>
