<svg width="239" height="31" viewBox="0 0 239 31" fill="none" xmlns="http://www.w3.org/2000/svg">
<path d="M229.28 9.47992C228.786 10.7738 227.893 11.8769 226.73 12.6299C225.07 13.7299 223.01 14.2299 221.27 15.0899C214.66 18.3399 207.77 21.8999 200.74 24.1799C193.71 26.4599 186.18 25.5699 179.07 27.1799C170.428 29.3751 161.328 28.9469 152.93 25.9499C141.93 22.1999 133.27 17.3899 121.33 16.5199C116.058 16.2815 110.776 16.3984 105.52 16.8699C100.83 17.1699 96.09 17.0099 91.52 17.7699C86.41 18.6099 81.06 18.4699 75.89 19.1699C70.7063 19.8249 65.5988 20.9837 60.64 22.6299C58.19 23.4799 55.78 24.4799 53.26 25.0899C46.02 26.8199 38.45 25.0899 31.26 23.3499C27.42 22.3999 23.38 21.3499 20.6 18.4999C18.66 16.4999 17.53 13.8999 15.8 11.7299C13.25 8.53992 9.54995 6.52991 5.94995 4.59991C4.28076 3.65919 2.54246 2.84685 0.75 2.16992" stroke="#F90000" stroke-width="3.75" stroke-linejoin="round" stroke-dasharray="4.69 3.75"/>
<path d="M228.83 16.95C232.956 16.95 236.3 13.6056 236.3 9.48004C236.3 5.35447 232.956 2.01001 228.83 2.01001C224.705 2.01001 221.36 5.35447 221.36 9.48004C221.36 13.6056 224.705 16.95 228.83 16.95Z" fill="white" stroke="#F90000" stroke-width="3.75" stroke-linecap="round" stroke-linejoin="round"/>
</svg>
