<svg width="121" height="42" viewBox="0 0 121 42" fill="none" xmlns="http://www.w3.org/2000/svg">
<path d="M26.8302 7L22.9702 7.57001L15.9502 20.03L22.9702 32.45L26.8302 33.04L19.3302 20.03L26.8302 7Z" fill="#7937C4"/>
<path d="M36.6699 7L40.5199 7.57001L47.5399 20.03L40.5199 32.45L36.6699 33.04L44.1499 20.03L36.6699 7Z" fill="#7937C4"/>
<path d="M26.8301 6.99994L31.7401 6.42993V20.0299H19.3301L26.8301 6.99994Z" fill="#F6F2FC"/>
<path d="M26.8301 33.04L31.7401 33.59V20.03H19.3301L26.8301 33.04Z" fill="#E7D9FC"/>
<path d="M36.6703 33.04L31.7402 33.59V20.03H44.1503L36.6703 33.04Z" fill="#D2B4FC"/>
<path d="M36.6703 6.99994L31.7402 6.42993V20.0299H44.1503L36.6703 6.99994Z" fill="#EFE6FC"/>
<path d="M58.5298 17.93C57.9037 18.0773 57.263 18.1544 56.6198 18.16C56.1572 18.1774 55.6956 18.1061 55.2598 17.95C54.9273 17.8197 54.6464 17.5845 54.4598 17.28C54.2511 16.9525 54.1149 16.5843 54.0599 16.2C53.9752 15.6845 53.9383 15.1623 53.9498 14.64C53.8689 13.693 54.0598 12.7425 54.4998 11.9C54.7472 11.6205 55.0578 11.4039 55.4056 11.2683C55.7534 11.1326 56.1284 11.0818 56.4998 11.12C57.1746 11.1327 57.8457 11.2233 58.4998 11.39V12.49C57.9542 12.4 57.4027 12.3498 56.8498 12.34C56.5293 12.3164 56.2084 12.3785 55.9198 12.52C55.703 12.6805 55.5533 12.9156 55.4998 13.18C55.3919 13.7297 55.3483 14.2902 55.3698 14.85C55.326 15.4105 55.4187 15.9732 55.6398 16.49C55.7683 16.6541 55.9373 16.7818 56.1302 16.8607C56.323 16.9397 56.5331 16.967 56.7398 16.94C57.3293 16.9406 57.9178 16.8938 58.4998 16.8L58.5298 17.93Z" fill="black"/>
<path d="M63.3602 14.5999V16.6799C63.3601 16.7979 63.3874 16.9143 63.4401 17.0199C63.4705 17.0577 63.5086 17.0888 63.5516 17.1112C63.5946 17.1336 63.6417 17.1467 63.6901 17.1499V18.1499C63.4151 18.1574 63.14 18.1339 62.8702 18.0799C62.65 18.0288 62.4425 17.9336 62.2602 17.7999C61.8047 18.0308 61.301 18.1507 60.7902 18.1499C59.7902 18.1499 59.2402 17.6099 59.2402 16.5099C59.2175 16.301 59.2447 16.0896 59.3194 15.8932C59.3942 15.6968 59.5144 15.5209 59.6703 15.3799C60.0616 15.1203 60.5205 14.9812 60.9902 14.9799L62.0603 14.8999V14.5899C62.0679 14.514 62.0594 14.4373 62.0352 14.3649C62.0111 14.2925 61.9719 14.2261 61.9203 14.1699C61.788 14.0805 61.6294 14.0382 61.4702 14.0499L59.5902 14.1299V13.1999C60.2417 13.0179 60.9138 12.9205 61.5902 12.9099C62.0872 12.8652 62.583 13.0078 62.9802 13.3099C63.129 13.4872 63.2395 13.6932 63.3049 13.9152C63.3703 14.1372 63.3891 14.3703 63.3602 14.5999ZM61.1102 15.9199C61.0327 15.9182 60.9558 15.9328 60.8844 15.9629C60.813 15.993 60.7488 16.0379 60.6959 16.0945C60.643 16.1512 60.6027 16.2183 60.5776 16.2916C60.5525 16.365 60.5432 16.4427 60.5503 16.5199C60.5503 16.8899 60.7102 17.0699 61.0402 17.0699C61.3209 17.0658 61.5999 17.0255 61.8702 16.9499H62.0202V15.8799L61.1102 15.9199Z" fill="black"/>
<path d="M64.6401 17.9999V12.9999H66.0001V13.5299C66.493 13.2245 67.0339 13.0048 67.6001 12.8799V14.2299C67.0601 14.3499 66.6001 14.4599 66.2101 14.5799L66.0101 14.6499V17.9999H64.6401Z" fill="black"/>
<path d="M69.6999 16.78C69.8945 16.9275 70.1365 16.9986 70.3799 16.98C70.9999 16.98 71.55 16.98 72.04 16.92H72.3199V17.92C71.6404 18.0968 70.942 18.1908 70.2399 18.2C69.939 18.2306 69.6351 18.1924 69.351 18.0885C69.0669 17.9846 68.8101 17.8176 68.5999 17.6C68.2101 17.0283 68.0299 16.3394 68.0899 15.65C68.0899 13.86 68.82 12.9601 70.3 12.9601C70.6007 12.9301 70.9043 12.9687 71.1879 13.0729C71.4716 13.1771 71.7279 13.3442 71.9377 13.5617C72.1475 13.7792 72.3053 14.0414 72.3992 14.3286C72.4932 14.6158 72.5207 14.9206 72.4799 15.22L72.3799 16.15H69.4399C69.4392 16.2671 69.4619 16.3831 69.5065 16.4912C69.5512 16.5994 69.6168 16.6976 69.6999 16.78ZM71.18 15.09C71.2044 14.8004 71.1379 14.5103 70.9899 14.26C70.9039 14.1717 70.7988 14.1041 70.6827 14.0625C70.5666 14.0209 70.4425 14.0064 70.3199 14.02C70.1966 14.0091 70.0725 14.0259 69.9566 14.0692C69.8407 14.1124 69.7359 14.1811 69.65 14.27C69.496 14.5144 69.4258 14.8022 69.4499 15.09H71.18Z" fill="black"/>
<path d="M77.2399 14.18V18H75.8999V14.14H75.3599V13H75.8999V12.78C75.8482 12.2621 75.9601 11.741 76.2198 11.29C76.3657 11.1389 76.5444 11.0233 76.7421 10.9522C76.9397 10.8811 77.1511 10.8564 77.3599 10.88C77.6719 10.8908 77.9827 10.9242 78.2899 10.98H78.4999V12.07H77.7599C77.6851 12.0602 77.609 12.0697 77.5389 12.0977C77.4689 12.1258 77.4072 12.1713 77.3599 12.23C77.2784 12.4013 77.2439 12.5911 77.2599 12.78V13H78.4698V14.14L77.2399 14.18Z" fill="black"/>
<path d="M79.4698 13.6101C79.6893 13.3635 79.9643 13.1723 80.2719 13.0524C80.5796 12.9325 80.9113 12.8871 81.2398 12.9201C81.5683 12.8887 81.8995 12.9348 82.2069 13.0547C82.5143 13.1745 82.7893 13.3647 83.0098 13.6101C83.3922 14.1747 83.5785 14.8493 83.5399 15.5301C83.5399 17.2901 82.7698 18.1601 81.2398 18.1601C79.7098 18.1601 78.9398 17.2901 78.9398 15.5301C78.8926 14.8484 79.0796 14.1711 79.4698 13.6101ZM80.4698 16.6101C80.5567 16.7223 80.6682 16.813 80.7956 16.8754C80.923 16.9379 81.0629 16.9703 81.2048 16.9703C81.3467 16.9703 81.4867 16.9379 81.6141 16.8754C81.7415 16.813 81.8528 16.7223 81.9398 16.6101C82.2196 15.8862 82.2196 15.084 81.9398 14.3601C81.8507 14.2513 81.7386 14.1636 81.6115 14.1034C81.4844 14.0432 81.3454 14.012 81.2048 14.012C81.0641 14.012 80.9253 14.0432 80.7982 14.1034C80.6711 14.1636 80.5589 14.2513 80.4698 14.3601C80.2028 15.0864 80.2028 15.8839 80.4698 16.6101Z" fill="black"/>
<path d="M84.52 17.9999V12.9999H85.85V13.5299C86.3428 13.2245 86.8838 13.0048 87.45 12.8799V14.2299C86.91 14.3499 86.4501 14.4599 86.0601 14.5799L85.86 14.6499V17.9999H84.52Z" fill="black"/>
<path d="M55.5997 29.28V31.56H54.2197V24.76H56.8597C58.4597 24.76 59.2598 25.51 59.2598 27C59.2914 27.3929 59.215 27.7869 59.0387 28.1395C58.8624 28.492 58.5931 28.7896 58.2598 29L59.2598 31.6H57.7498L56.9597 29.32L55.5997 29.28ZM57.5997 27.8C57.7691 27.5726 57.854 27.2932 57.8397 27.01C57.8541 26.7266 57.7612 26.4481 57.5797 26.23C57.4866 26.1313 57.3729 26.0543 57.2468 26.0042C57.1207 25.9541 56.9852 25.9322 56.8497 25.94H55.5897V28.1H56.8698C57.0079 28.1111 57.1468 28.0897 57.2753 28.0377C57.4037 27.9856 57.5183 27.9042 57.6097 27.8H57.5997Z" fill="black"/>
<path d="M60.4898 27.1299C60.7094 26.8832 60.9843 26.6921 61.2919 26.5722C61.5996 26.4522 61.9313 26.4069 62.2598 26.4399C62.5883 26.4085 62.9195 26.4546 63.2269 26.5744C63.5343 26.6943 63.8093 26.8845 64.0299 27.1299C64.415 27.6932 64.6015 28.3688 64.5599 29.0499C64.5599 30.7999 63.7898 31.6799 62.2598 31.6799C60.7298 31.6799 59.9598 30.7999 59.9598 29.0499C59.9126 28.3682 60.0996 27.6909 60.4898 27.1299ZM61.4898 30.1799C61.5673 30.3029 61.6778 30.4018 61.8085 30.4654C61.9393 30.529 62.0852 30.5548 62.2298 30.5399C62.3731 30.5553 62.5178 30.5296 62.647 30.4659C62.7763 30.4021 62.8848 30.3029 62.9598 30.1799C63.123 29.8267 63.1953 29.4382 63.1699 29.0499C63.1967 28.6648 63.1243 28.2792 62.9598 27.9299C62.8826 27.8095 62.7734 27.713 62.6445 27.6512C62.5155 27.5894 62.372 27.5647 62.2298 27.5799C62.0863 27.5651 61.9414 27.5899 61.811 27.6516C61.6805 27.7133 61.5694 27.8095 61.4898 27.9299C61.3343 28.2818 61.2658 28.6659 61.2899 29.0499C61.2767 29.4394 61.3555 29.8265 61.5198 30.1799H61.4898Z" fill="black"/>
<path d="M66.88 31.5599H65.54V26.5599H66.87V26.8399C67.2217 26.6059 67.6285 26.468 68.05 26.4399C68.2797 26.4262 68.5096 26.461 68.725 26.542C68.9403 26.6229 69.1363 26.7483 69.3 26.9099C69.8155 26.6237 70.3909 26.4627 70.98 26.4399C71.2391 26.4091 71.5017 26.4464 71.7419 26.5481C71.9822 26.6498 72.1918 26.8125 72.35 27.0199C72.6527 27.5799 72.7881 28.2152 72.74 28.8499V31.5599H71.4V28.8899C71.4152 28.5672 71.3676 28.2446 71.26 27.9399C71.208 27.8391 71.1266 27.7564 71.0266 27.7029C70.9266 27.6493 70.8127 27.6273 70.7 27.6399C70.4347 27.6503 70.1723 27.6974 69.92 27.7799L69.77 27.8299C69.77 28.3299 69.77 28.7099 69.77 28.9699V31.5599H68.4301V28.9999C68.4508 28.645 68.4067 28.2892 68.3 27.9499C68.2475 27.8473 68.1645 27.7635 68.0625 27.7098C67.9605 27.6561 67.8443 27.6352 67.73 27.6499C67.4672 27.6519 67.2066 27.6992 66.96 27.7899H66.84L66.88 31.5599Z" fill="black"/>
<path d="M77.7601 28.1199V30.1999C77.7614 30.3178 77.7887 30.4339 77.8401 30.5399C77.9043 30.6129 77.9934 30.6593 78.0901 30.6699V31.6699C77.815 31.6774 77.54 31.654 77.2701 31.5999C77.0514 31.5446 76.8447 31.4497 76.6601 31.3199C76.2029 31.5464 75.7002 31.6661 75.19 31.6699C74.19 31.6699 73.6401 31.1199 73.6401 30.0299C73.6174 29.821 73.6445 29.6097 73.7192 29.4133C73.794 29.2168 73.9142 29.0409 74.07 28.8999C74.4593 28.6359 74.9197 28.4964 75.3901 28.4999L76.4601 28.4199V28.1099C76.4685 28.0324 76.4605 27.954 76.4364 27.8799C76.4122 27.8058 76.3725 27.7376 76.32 27.6799C76.1852 27.5973 76.0279 27.5589 75.8701 27.5699L73.9901 27.6499V26.7199C74.6416 26.5379 75.3138 26.4405 75.9901 26.4299C76.4871 26.3852 76.9829 26.5279 77.3801 26.8299C77.5299 27.0066 77.6411 27.2126 77.7065 27.4347C77.772 27.6569 77.7903 27.8903 77.7601 28.1199ZM75.5101 29.4399C75.4322 29.4366 75.3545 29.4501 75.2823 29.4796C75.2101 29.5092 75.1451 29.554 75.0919 29.611C75.0387 29.668 74.9985 29.7359 74.974 29.8099C74.9495 29.884 74.9413 29.9624 74.9501 30.0399C74.9501 30.4099 75.11 30.5899 75.44 30.5899C75.7207 30.5858 75.9998 30.5455 76.2701 30.4699H76.4201V29.3999L75.5101 29.4399Z" fill="black"/>
<path d="M80.38 31.5601H79V26.5601H80.33V26.8401C80.7027 26.596 81.1348 26.4578 81.58 26.4401C81.8412 26.4126 82.1051 26.4524 82.3467 26.5556C82.5882 26.6589 82.7994 26.8222 82.96 27.0301C83.2508 27.5906 83.3822 28.2201 83.34 28.8501V31.5601H82V28.8901C82.0178 28.5664 81.9667 28.2426 81.85 27.9401C81.7912 27.836 81.7027 27.7519 81.5958 27.6984C81.4889 27.645 81.3685 27.6247 81.25 27.6401C80.9805 27.6401 80.7131 27.6875 80.46 27.7801H80.34L80.38 31.5601Z" fill="black"/>
<path d="M84.5698 25.9201V24.5601H85.9099V25.9201H84.5698ZM84.5698 31.5601V26.5601H85.9099V31.5601H84.5698Z" fill="black"/>
<path d="M90.9998 28.1199V30.1999C91.0011 30.3178 91.0284 30.4339 91.0798 30.5399C91.144 30.6129 91.2332 30.6593 91.3298 30.6699V31.6699C91.0547 31.6774 90.7797 31.654 90.5099 31.5999C90.2911 31.5446 90.0844 31.4497 89.8999 31.3199C89.4427 31.5464 88.9401 31.6661 88.4299 31.6699C87.4299 31.6699 86.8798 31.1199 86.8798 30.0299C86.8571 29.821 86.8843 29.6097 86.9591 29.4133C87.0338 29.2168 87.154 29.0409 87.3099 28.8999C87.6992 28.6359 88.1595 28.4964 88.6298 28.4999L89.6998 28.4199V28.1099C89.7083 28.0324 89.7002 27.954 89.6761 27.8799C89.652 27.8058 89.6124 27.7376 89.5599 27.6799C89.4245 27.5985 89.2675 27.5602 89.1098 27.5699L87.2298 27.6499V26.7199C87.8813 26.5379 88.5535 26.4405 89.2298 26.4299C89.7268 26.3852 90.2226 26.5279 90.6198 26.8299C90.7697 27.0066 90.8809 27.2126 90.9464 27.4347C91.0118 27.6569 91.03 27.8903 90.9998 28.1199ZM88.7498 29.4399C88.6719 29.4366 88.5942 29.4501 88.5221 29.4796C88.4499 29.5092 88.3848 29.554 88.3316 29.611C88.2784 29.668 88.2382 29.7359 88.2137 29.8099C88.1892 29.884 88.181 29.9624 88.1898 30.0399C88.1898 30.4099 88.3499 30.5899 88.6799 30.5899C88.9606 30.5858 89.2395 30.5455 89.5099 30.4699H89.6599V29.3999L88.7498 29.4399Z" fill="black"/>
<path d="M100.66 1.96997H20.3497C9.78452 1.96997 1.21973 10.5348 1.21973 21.1V21.11C1.21973 31.6752 9.78452 40.24 20.3497 40.24H100.66C111.225 40.24 119.79 31.6752 119.79 21.11V21.1C119.79 10.5348 111.225 1.96997 100.66 1.96997Z" stroke="#7937C4" stroke-width="2.17" stroke-linecap="round" stroke-linejoin="round"/>
</svg>
