<svg width="33" height="28" viewBox="0 0 33 28" fill="none" xmlns="http://www.w3.org/2000/svg">
<path d="M11.8297 1L7.96973 1.57001L0.949707 14.03L7.96973 26.45L11.8297 27.04L4.32971 14.03L11.8297 1Z" fill="#7937C4"/>
<path d="M21.6699 1L25.5199 1.57001L32.5399 14.03L25.5199 26.45L21.6699 27.04L29.1499 14.03L21.6699 1Z" fill="#7937C4"/>
<path d="M11.8301 0.999939L16.7401 0.429932V14.0299H4.33008L11.8301 0.999939Z" fill="#F6F2FC"/>
<path d="M11.8301 27.04L16.7401 27.59V14.03H4.33008L11.8301 27.04Z" fill="#E7D9FC"/>
<path d="M21.6698 27.04L16.7397 27.59V14.03H29.1498L21.6698 27.04Z" fill="#D2B4FC"/>
<path d="M21.6698 0.999939L16.7397 0.429932V14.0299H29.1498L21.6698 0.999939Z" fill="#EFE6FC"/>
</svg>
