<svg width="214" height="193" viewBox="0 0 214 193" fill="none" xmlns="http://www.w3.org/2000/svg">
<path d="M68.7303 121.08C64.8803 124.8 60.4004 128.14 57.2504 132.08C55.2504 134.62 53.6104 137.46 51.7604 140.08C51.1204 141.01 50.4803 141.9 49.8303 142.74C43.8303 150.61 37.5304 154.97 27.8904 159.06C20.6904 162.12 16.9903 164.06 13.1903 171.18C10.8603 175.55 9.95034 176.08 9.72034 181.18C9.67473 182.043 9.56785 182.902 9.40039 183.75" stroke="#C8CEDB" stroke-width="3.75" stroke-linecap="round" stroke-linejoin="round"/>
<path d="M9.65015 191.04C13.7757 191.04 17.1201 187.696 17.1201 183.57C17.1201 179.445 13.7757 176.1 9.65015 176.1C5.52458 176.1 2.18018 179.445 2.18018 183.57C2.18018 187.696 5.52458 191.04 9.65015 191.04Z" fill="white" stroke="#1B771B" stroke-width="3.75" stroke-linecap="round" stroke-linejoin="round"/>
<path d="M78.42 95.7798C78.14 96.7798 77.87 97.6798 77.6 98.6498C77.0527 100.795 76.7178 102.989 76.6 105.2C76.51 106.39 76.3999 107.58 76.1899 108.81C75.3399 113.81 72.2899 117.59 68.6899 121.08" stroke="#C8CEDB" stroke-width="3.75" stroke-linecap="round" stroke-linejoin="round"/>
<path d="M68.9199 125.21C70.991 125.21 72.6699 123.531 72.6699 121.46C72.6699 119.389 70.991 117.71 68.9199 117.71C66.8489 117.71 65.1699 119.389 65.1699 121.46C65.1699 123.531 66.8489 125.21 68.9199 125.21Z" fill="#404366"/>
<path d="M84.8799 76.4697C83.6099 80.6097 81.8799 84.6397 80.5999 88.6897C79.8599 91.0697 79.1299 93.4097 78.4199 95.7797" stroke="#C8CEDB" stroke-width="3.75" stroke-linecap="round" stroke-linejoin="round"/>
<path d="M78.75 99.5298C80.8211 99.5298 82.5 97.8509 82.5 95.7798C82.5 93.7087 80.8211 92.0298 78.75 92.0298C76.6789 92.0298 75 93.7087 75 95.7798C75 97.8509 76.6789 99.5298 78.75 99.5298Z" fill="#404366"/>
<path d="M86.2999 57.1699C86.2299 60.7099 86.6398 64.2799 86.4698 67.9299C86.4698 68.7699 86.3599 69.61 86.2399 70.46C85.9512 72.4938 85.4964 74.5005 84.8799 76.46" stroke="#C8CEDB" stroke-width="3.75" stroke-linecap="round" stroke-linejoin="round"/>
<path d="M85.29 80.2197C87.3611 80.2197 89.04 78.5408 89.04 76.4697C89.04 74.3987 87.3611 72.7197 85.29 72.7197C83.219 72.7197 81.54 74.3987 81.54 76.4697C81.54 78.5408 83.219 80.2197 85.29 80.2197Z" fill="#404366"/>
<path d="M96.3099 31.75C92.806 37.33 89.8904 43.2584 87.6099 49.44C86.734 51.9227 86.291 54.5373 86.2999 57.17" stroke="#C8CEDB" stroke-width="3.75" stroke-linecap="round" stroke-linejoin="round"/>
<path d="M86.4702 60.9199C88.5413 60.9199 90.2202 59.241 90.2202 57.1699C90.2202 55.0989 88.5413 53.4199 86.4702 53.4199C84.3991 53.4199 82.7202 55.0989 82.7202 57.1699C82.7202 59.241 84.3991 60.9199 86.4702 60.9199Z" fill="#404366"/>
<path d="M146.42 7.96C137.96 7.15 129.53 6.96001 121.81 9.66001C114.884 12.1965 108.698 16.4166 103.81 21.94C101.016 24.9969 98.499 28.2966 96.29 31.8" stroke="#C8CEDB" stroke-width="3.75" stroke-linecap="round" stroke-linejoin="round"/>
<path d="M96.3101 35.0898C98.3811 35.0898 100.06 33.4109 100.06 31.3398C100.06 29.2688 98.3811 27.5898 96.3101 27.5898C94.239 27.5898 92.5601 29.2688 92.5601 31.3398C92.5601 33.4109 94.239 35.0898 96.3101 35.0898Z" fill="#404366"/>
<path d="M179 9.07013C176.158 9.75138 173.252 10.1268 170.33 10.1901C162.77 10.1101 154.59 8.70016 146.43 7.91016" stroke="#1B771B" stroke-width="3.75" stroke-linecap="round" stroke-linejoin="round"/>
<path d="M143.5 11.3799C145.571 11.3799 147.25 9.70095 147.25 7.62988C147.25 5.55882 145.571 3.87988 143.5 3.87988C141.429 3.87988 139.75 5.55882 139.75 7.62988C139.75 9.70095 141.429 11.3799 143.5 11.3799Z" fill="white" stroke="#1B771B" stroke-width="2" stroke-linecap="round" stroke-linejoin="round"/>
<path d="M211.57 2.25C205.059 5.86418 197.783 7.87954 190.34 8.13C189.13 8.18 187.9 8.19999 186.68 8.17999C184.092 8.19139 181.513 8.4899 178.99 9.07001" stroke="#1B771B" stroke-width="3.75" stroke-linecap="round" stroke-linejoin="round"/>
<path d="M178.71 12.8799C180.781 12.8799 182.46 11.201 182.46 9.12988C182.46 7.05882 180.781 5.37988 178.71 5.37988C176.639 5.37988 174.96 7.05882 174.96 9.12988C174.96 11.201 176.639 12.8799 178.71 12.8799Z" fill="white" stroke="#1B771B" stroke-width="2" stroke-linecap="round" stroke-linejoin="round"/>
</svg>
