<svg width="208" height="92" viewBox="0 0 208 92" fill="none" xmlns="http://www.w3.org/2000/svg">
<path d="M10.4502 10.2197C10.7802 10.6797 11.1102 11.1297 11.4502 11.5797C17.1902 19.0497 26.1002 24.6897 35.5102 24.1697C43.6002 23.7097 51.3502 18.8297 59.3402 20.1697C64.6702 21.0997 69.0902 24.6797 73.7402 27.4497C81.8002 32.2697 92.3402 35.5797 101.8 35.0997C104.97 34.9497 108.18 35.0097 111.35 35.0997C117.67 35.1997 124.07 35.7698 130.03 38.0098C142.03 42.4898 148.66 54.1997 156.62 63.3197C157.15 63.9297 157.62 64.5898 158.1 65.2498C158.835 66.3476 159.698 67.3546 160.67 68.2498C161.67 69.1498 163.02 69.7498 164.11 70.5198C166.61 72.2998 169.11 74.1297 171.57 75.9897C174.64 78.2697 177.44 80.4997 180.32 82.9897C183.2 85.4797 186.26 88.6798 189.96 89.4998C193.32 90.2298 197.24 89.6797 200.67 89.6797C203.05 89.6797 205.44 89.6798 207.83 89.7498" stroke="#1B771B" stroke-width="3.75" stroke-linejoin="round" stroke-dasharray="4.69 3.75"/>
<path d="M10.2103 17.6899C14.3358 17.6899 17.6802 14.3455 17.6802 10.22C17.6802 6.0944 14.3358 2.75 10.2103 2.75C6.0847 2.75 2.74023 6.0944 2.74023 10.22C2.74023 14.3455 6.0847 17.6899 10.2103 17.6899Z" fill="white" stroke="#1B771B" stroke-width="3.75" stroke-linecap="round" stroke-linejoin="round"/>
</svg>
