<svg width="218" height="168" viewBox="0 0 218 168" fill="none" xmlns="http://www.w3.org/2000/svg">
<path d="M8.84033 9.00977C10.1303 9.24977 11.4503 9.50968 12.8403 9.79968C22.4103 11.8497 28.0503 23.1298 36.8403 26.5098C42.2459 28.3626 47.0118 31.7167 50.5803 36.1797C53.2403 39.2897 56.1203 43.1098 59.4303 45.6398C68.1803 52.3298 78.9903 54.3897 89.2203 58.2097L98.9703 61.8597C105.97 64.4897 113.03 67.1497 119.86 69.7797C130.17 73.7797 139.29 79.0498 148.6 84.8798C156.72 89.9698 165.03 96.3797 173.6 100.54C177.6 102.45 181.41 103.18 185.06 105.93C188.669 108.705 191.766 112.089 194.21 115.93C199.31 123.85 202.01 133.03 204.83 142.01C207.49 150.46 210.39 159.01 215.5 166.22" stroke="#1B771B" stroke-width="3.75" stroke-linejoin="round" stroke-dasharray="4.69 3.75"/>
<path d="M9.37036 16.8903C13.4959 16.8903 16.8404 13.5457 16.8404 9.42017C16.8404 5.2946 13.4959 1.9502 9.37036 1.9502C5.24479 1.9502 1.90039 5.2946 1.90039 9.42017C1.90039 13.5457 5.24479 16.8903 9.37036 16.8903Z" fill="white" stroke="#1B771B" stroke-width="3.75" stroke-linecap="round" stroke-linejoin="round"/>
</svg>
