<svg width="240" height="264" viewBox="0 0 240 264" fill="none" xmlns="http://www.w3.org/2000/svg">
<path d="M10.5703 255.25C11.7303 254.59 12.8703 253.86 13.9803 253.08C18.4503 249.91 22.9804 246.72 27.5604 243.62C29.2138 242.507 30.8804 241.41 32.5604 240.33" stroke="#C8CEDB" stroke-width="3.75" stroke-linecap="round" stroke-linejoin="round"/>
<path d="M9.92029 261.13C14.0459 261.13 17.3903 257.786 17.3903 253.66C17.3903 249.534 14.0459 246.19 9.92029 246.19C5.79472 246.19 2.4502 249.534 2.4502 253.66C2.4502 257.786 5.79472 261.13 9.92029 261.13Z" fill="white" stroke="#1B771B" stroke-width="3.75" stroke-linecap="round" stroke-linejoin="round"/>
<path d="M32.5103 240.33L34.5103 239C38.3403 236.54 42.1303 235.43 46.1803 233.56C50.2303 231.69 50.6702 229.13 53.3702 226.12C53.7102 225.75 54.0502 225.37 54.3702 225" stroke="#C8CEDB" stroke-width="3.75" stroke-linecap="round" stroke-linejoin="round"/>
<path d="M54.4502 224.96C55.5702 223.76 56.7102 222.6 57.8602 221.44C61.5502 217.73 65.2803 214.11 68.3003 209.72C68.4103 209.57 68.5202 209.41 68.6202 209.25" stroke="#C8CEDB" stroke-width="3.75" stroke-linecap="round" stroke-linejoin="round"/>
<path d="M54.1104 228.3C56.1814 228.3 57.8604 226.621 57.8604 224.55C57.8604 222.479 56.1814 220.8 54.1104 220.8C52.0393 220.8 50.3604 222.479 50.3604 224.55C50.3604 226.621 52.0393 228.3 54.1104 228.3Z" fill="#404366"/>
<path d="M68.6201 209.29C71.9901 204.17 73.4801 198.29 76.2001 192.92L76.3801 192.55" stroke="#C8CEDB" stroke-width="3.75" stroke-linecap="round" stroke-linejoin="round"/>
<path d="M68.9399 213.29C71.011 213.29 72.6899 211.611 72.6899 209.54C72.6899 207.469 71.011 205.79 68.9399 205.79C66.8689 205.79 65.1899 207.469 65.1899 209.54C65.1899 211.611 66.8689 213.29 68.9399 213.29Z" fill="#404366"/>
<path d="M76.3799 192.55C76.5899 192.15 76.8099 191.75 77.0299 191.35C80.8399 184.6 88.4099 177.54 96.4299 177.92C101.55 178.17 107.69 179.92 112.43 177.31" stroke="#C8CEDB" stroke-width="3.75" stroke-linecap="round" stroke-linejoin="round"/>
<path d="M76.1699 196.67C78.241 196.67 79.9199 194.991 79.9199 192.92C79.9199 190.849 78.241 189.17 76.1699 189.17C74.0989 189.17 72.4199 190.849 72.4199 192.92C72.4199 194.991 74.0989 196.67 76.1699 196.67Z" fill="#404366"/>
<path d="M112.39 177.31C114.021 176.382 115.372 175.031 116.3 173.4C121.7 164.4 112.95 155.07 107.57 146.77" stroke="#1B771B" stroke-width="3.75" stroke-linecap="round" stroke-linejoin="round"/>
<path d="M112.39 180.78C114.461 180.78 116.14 179.101 116.14 177.03C116.14 174.959 114.461 173.28 112.39 173.28C110.319 173.28 108.64 174.959 108.64 177.03C108.64 179.101 110.319 180.78 112.39 180.78Z" fill="white" stroke="#1B771B" stroke-width="2" stroke-linecap="round" stroke-linejoin="round"/>
<path d="M107.57 146.77C106.284 144.903 105.227 142.889 104.42 140.77C102.69 135.6 104.83 131.21 101.76 127.02C100.359 125.212 98.7435 123.58 96.9502 122.16" stroke="#1B771B" stroke-width="3.75" stroke-linecap="round" stroke-linejoin="round"/>
<path d="M107.09 150.72C109.161 150.72 110.84 149.041 110.84 146.97C110.84 144.899 109.161 143.22 107.09 143.22C105.019 143.22 103.34 144.899 103.34 146.97C103.34 149.041 105.019 150.72 107.09 150.72Z" fill="white" stroke="#1B771B" stroke-width="2" stroke-linecap="round" stroke-linejoin="round"/>
<path d="M96.9999 122.11C93.3399 119.11 89.48 116.34 87.77 111.11C86.06 105.88 86.7099 97.1799 87.0699 91.7499C87.0699 91.0399 87.1599 90.3399 87.2199 89.6299" stroke="#1B771B" stroke-width="3.75" stroke-linecap="round" stroke-linejoin="round"/>
<path d="M97.0303 125.86C99.1013 125.86 100.78 124.181 100.78 122.11C100.78 120.039 99.1013 118.36 97.0303 118.36C94.9592 118.36 93.2803 120.039 93.2803 122.11C93.2803 124.181 94.9592 125.86 97.0303 125.86Z" fill="white" stroke="#1B771B" stroke-width="2" stroke-linecap="round" stroke-linejoin="round"/>
<path d="M87.1699 89.6699C87.6299 83.2899 88.3299 76.6099 88.9299 70.2099C89.0372 69.0049 89.2276 67.8087 89.4999 66.6299" stroke="#1B771B" stroke-width="3.75" stroke-linecap="round" stroke-linejoin="round"/>
<path d="M86.7803 94.04C88.8513 94.04 90.5303 92.3611 90.5303 90.29C90.5303 88.219 88.8513 86.54 86.7803 86.54C84.7092 86.54 83.0303 88.219 83.0303 90.29C83.0303 92.3611 84.7092 94.04 86.7803 94.04Z" fill="white" stroke="#1B771B" stroke-width="2" stroke-linecap="round" stroke-linejoin="round"/>
<path d="M89.5 66.6299C91.7 57.1299 98.8 51.63 107.01 47.46" stroke="#1B771B" stroke-width="3.75" stroke-linecap="round" stroke-linejoin="round"/>
<path d="M88.8901 70.1201C90.9612 70.1201 92.6401 68.4412 92.6401 66.3701C92.6401 64.299 90.9612 62.6201 88.8901 62.6201C86.8191 62.6201 85.1401 64.299 85.1401 66.3701C85.1401 68.4412 86.8191 70.1201 88.8901 70.1201Z" fill="white" stroke="#1B771B" stroke-width="2" stroke-linecap="round" stroke-linejoin="round"/>
<path d="M107 47.46C110.83 45.54 114.9 43.94 118.84 42.39C124.45 40.18 129.13 37.23 133.84 34.48" stroke="#1B771B" stroke-width="3.75" stroke-linecap="round" stroke-linejoin="round"/>
<path d="M107.09 51.3599C109.161 51.3599 110.84 49.6809 110.84 47.6099C110.84 45.5388 109.161 43.8599 107.09 43.8599C105.019 43.8599 103.34 45.5388 103.34 47.6099C103.34 49.6809 105.019 51.3599 107.09 51.3599Z" fill="white" stroke="#1B771B" stroke-width="2" stroke-linecap="round" stroke-linejoin="round"/>
<path d="M133.86 34.48C139.2 31.37 144.59 28.48 151.46 27.22C157.86 26.02 164.69 26.53 171.24 26.04" stroke="#1B771B" stroke-width="3.75" stroke-linecap="round" stroke-linejoin="round"/>
<path d="M171.24 26.04C173.695 25.8773 176.131 25.4992 178.52 24.91C186.46 22.84 192.52 17.5699 200.38 15.6899" stroke="#1B771B" stroke-width="3.75" stroke-linecap="round" stroke-linejoin="round"/>
<path d="M171.54 28.8501C173.611 28.8501 175.29 27.1712 175.29 25.1001C175.29 23.029 173.611 21.3501 171.54 21.3501C169.469 21.3501 167.79 23.029 167.79 25.1001C167.79 27.1712 169.469 28.8501 171.54 28.8501Z" fill="white" stroke="#1B771B" stroke-width="2" stroke-linecap="round" stroke-linejoin="round"/>
<path d="M200.38 15.6899C201.649 15.3865 202.939 15.1825 204.24 15.0799C212.18 14.4799 216.56 14.1999 223.43 9.75989C227.29 7.26989 234.54 5.2499 237.13 1.8999" stroke="#1B771B" stroke-width="3.75" stroke-linecap="round" stroke-linejoin="round"/>
<path d="M200.38 19.4702C202.451 19.4702 204.13 17.7913 204.13 15.7202C204.13 13.6491 202.451 11.9702 200.38 11.9702C198.309 11.9702 196.63 13.6491 196.63 15.7202C196.63 17.7913 198.309 19.4702 200.38 19.4702Z" fill="white" stroke="#1B771B" stroke-width="2" stroke-linecap="round" stroke-linejoin="round"/>
</svg>
