<svg width="230" height="159" viewBox="0 0 230 159" fill="none" xmlns="http://www.w3.org/2000/svg">
<path d="M10.9302 10.79C15.5402 17.91 30.0802 21.92 37.6502 25.33C42.3281 27.2577 46.5845 30.0805 50.1802 33.64" stroke="#1B771B" stroke-width="3.75" stroke-linejoin="round" stroke-dasharray="4.69 3.75"/>
<path d="M10.9301 21.35C16.7622 21.35 21.4901 16.6221 21.4901 10.79C21.4901 4.95785 16.7622 0.22998 10.9301 0.22998C5.09799 0.22998 0.370117 4.95785 0.370117 10.79C0.370117 16.6221 5.09799 21.35 10.9301 21.35Z" fill="#1B771B"/>
<path d="M50.1802 33.6401C52.1923 35.7482 53.8262 38.1873 55.0102 40.8502C58.3702 48.3902 55.7002 55.5902 64.8602 58.6602C78.1202 63.1002 88.7602 54.0001 100.86 50.4601C115.31 46.2201 121.86 53.1601 131.11 63.4601C135.4 68.2401 138.92 69.1502 143.98 72.8502C148.28 75.9902 148.57 79.4702 151.85 82.9802C159.72 91.4102 169.27 95.4101 179.3 99.3901C191.3 104.16 197.8 108.82 203.14 120.03C208.14 130.53 217.03 137.72 222.72 147.68C224.79 151.32 226.58 154.75 228.29 158.04" stroke="#1B771B" stroke-width="3.75" stroke-linejoin="round" stroke-dasharray="4.69 3.75"/>
<path d="M48.9202 41.1202C53.0458 41.1202 56.3902 37.7758 56.3902 33.6502C56.3902 29.5246 53.0458 26.1802 48.9202 26.1802C44.7946 26.1802 41.4502 29.5246 41.4502 33.6502C41.4502 37.7758 44.7946 41.1202 48.9202 41.1202Z" fill="white" stroke="#1B771B" stroke-width="3.75" stroke-linecap="round" stroke-linejoin="round"/>
</svg>
