<svg width="153" height="93" viewBox="0 0 153 93" fill="none" xmlns="http://www.w3.org/2000/svg">
<path d="M9.27002 9.95996C11.65 14.77 13.32 19.71 13.27 24.71C13.01 38.46 8.36003 47.84 12.34 62.02C17.53 80.51 34.14 85.56 51.14 89.35C64.25 92.27 76.03 89.91 88.54 86.49L92.54 85.37C115.89 78.76 128.74 74.7899 151.88 79.0599" stroke="#1B771B" stroke-width="3.75" stroke-linejoin="round" stroke-dasharray="4.69 3.75"/>
<path d="M9.44998 17.1499C13.5755 17.1499 16.92 13.8055 16.92 9.67993C16.92 5.55436 13.5755 2.20996 9.44998 2.20996C5.32441 2.20996 1.97998 5.55436 1.97998 9.67993C1.97998 13.8055 5.32441 17.1499 9.44998 17.1499Z" fill="white" stroke="#1B771B" stroke-width="3.75" stroke-linecap="round" stroke-linejoin="round"/>
</svg>
