<svg width="154" height="98" viewBox="0 0 154 98" fill="none" xmlns="http://www.w3.org/2000/svg">
<path d="M9.83984 87.7999C11.3298 87.7999 12.8399 87.7999 14.2899 87.7999C16.0398 87.7397 17.7821 87.5391 19.4999 87.2C25.4299 86.05 30.3299 83.63 35.4999 80.64L35.8799 80.4199C45.7499 74.6599 55.0499 67.5799 67.2499 67.2899H68.5798C77.8898 67.4499 86.5799 62.57 92.7299 55.87C94.4564 53.9814 95.9937 51.9283 97.3198 49.74C99.1698 46.66 100.6 43.2599 102.38 40.0299C103.234 38.4407 104.213 36.9225 105.31 35.49C106.53 33.92 107.82 32.4099 109.13 30.9199" stroke="#1B771B" stroke-width="3.75" stroke-linejoin="round" stroke-dasharray="4.69 3.75"/>
<path d="M10.01 95.3999C14.1356 95.3999 17.48 92.0555 17.48 87.9299C17.48 83.8044 14.1356 80.46 10.01 80.46C5.88444 80.46 2.54004 83.8044 2.54004 87.9299C2.54004 92.0555 5.88444 95.3999 10.01 95.3999Z" fill="white" stroke="#1B771B" stroke-width="3.75" stroke-linecap="round" stroke-linejoin="round"/>
<path d="M124 15.96C123 16.41 122 16.85 120.91 17.37C117.46 19.04 118.03 20.37 115.91 23.01C113.79 25.65 111.38 28.25 109.11 30.85" stroke="#C8CEDB" stroke-width="3.75" stroke-linecap="round" stroke-linejoin="round"/>
<path d="M109.31 34.5498C111.381 34.5498 113.06 32.8709 113.06 30.7998C113.06 28.7287 111.381 27.0498 109.31 27.0498C107.239 27.0498 105.56 28.7287 105.56 30.7998C105.56 32.8709 107.239 34.5498 109.31 34.5498Z" fill="#404366"/>
<path d="M151.72 2.50977C149.5 3.69977 147.28 4.87975 145.04 5.86975C143.17 6.68975 141.33 7.44973 139.53 8.21973C135.884 9.68384 132.354 11.4221 128.97 13.4197C127.364 14.3863 125.693 15.2417 123.97 15.9797" stroke="#C8CEDB" stroke-width="3.75" stroke-linecap="round" stroke-linejoin="round"/>
<path d="M123.67 20.3901C125.741 20.3901 127.42 18.7112 127.42 16.6401C127.42 14.5691 125.741 12.8901 123.67 12.8901C121.599 12.8901 119.92 14.5691 119.92 16.6401C119.92 18.7112 121.599 20.3901 123.67 20.3901Z" fill="#404366"/>
</svg>
