<svg width="110" height="104" viewBox="0 0 110 104" fill="none" xmlns="http://www.w3.org/2000/svg">
<path d="M93.6501 27.3701C90.1193 30.6215 86.755 34.0492 83.5701 37.6401C79.9707 41.9295 76.9452 46.6693 74.5701 51.7401C74.3701 52.1801 74.1801 52.61 74.0001 53.04C71.6401 58.64 71.2501 62.57 66.4701 66.67C66.0073 67.0724 65.5233 67.4496 65.0201 67.8C60.2901 71.11 54.4401 72.1401 49.3401 74.7201C46.7365 75.9702 44.0658 77.0752 41.3401 78.03C38.9524 78.898 36.6153 79.8996 34.3401 81.03C31.2401 82.62 28.6602 85.6301 25.5602 87.4401C22.9002 89.0101 19.8801 89.5701 16.9601 90.8601C14.5001 91.9501 12.0902 93.26 9.68018 94.55" stroke="#1B771B" stroke-width="3.75" stroke-linejoin="round" stroke-dasharray="4.69 3.75"/>
<path d="M9.71997 101.84C13.8455 101.84 17.1899 98.4956 17.1899 94.37C17.1899 90.2444 13.8455 86.8999 9.71997 86.8999C5.5944 86.8999 2.25 90.2444 2.25 94.37C2.25 98.4956 5.5944 101.84 9.71997 101.84Z" fill="white" stroke="#1B771B" stroke-width="3.75" stroke-linecap="round" stroke-linejoin="round"/>
<path d="M107.4 2.83984C106.778 5.36976 106.027 7.86631 105.15 10.3198C103.15 16.8398 99.4804 21.4499 95.2804 25.7399L93.6504 27.3699" stroke="#C8CEDB" stroke-width="3.75" stroke-linecap="round" stroke-linejoin="round"/>
<path d="M93.6299 31.1201C95.701 31.1201 97.3799 29.4412 97.3799 27.3701C97.3799 25.299 95.701 23.6201 93.6299 23.6201C91.5588 23.6201 89.8799 25.299 89.8799 27.3701C89.8799 29.4412 91.5588 31.1201 93.6299 31.1201Z" fill="#404366"/>
</svg>
