<svg width="40" height="26" viewBox="0 0 40 26" fill="none" xmlns="http://www.w3.org/2000/svg">
<path d="M12.3518 13.9555H8.70584C8.67056 10.7194 9.86086 7.58985 12.0377 5.19518C14.2146 2.80051 17.2168 1.31807 20.4416 1.04555C23.6663 0.773025 26.8748 1.7306 29.4226 3.72598C31.9705 5.72136 33.6691 8.6068 34.1774 11.8029L30.5615 12.4272C30.1762 10.1621 28.9546 8.12423 27.1385 6.71682C25.3224 5.30942 23.0442 4.63507 20.7546 4.82723C18.4651 5.01938 16.3311 6.06404 14.775 7.75446C13.2189 9.44488 12.3541 11.6579 12.3518 13.9555V13.9555Z" stroke="#404366" stroke-width="0.6875" stroke-linecap="round" stroke-linejoin="round"/>
<path d="M10.5284 13.9553C10.5183 11.1947 11.5478 8.53154 13.4119 6.49545C15.2761 4.45937 17.8384 3.19958 20.5891 2.96669C23.3398 2.73379 26.0774 3.54484 28.2573 5.23852C30.4373 6.9322 31.8998 9.38439 32.3541 12.1073" stroke="#404366" stroke-width="0.6875" stroke-linecap="round" stroke-linejoin="round"/>
<path d="M12.3506 13.9555C12.3526 11.6857 13.1963 9.49731 14.7186 7.81367C16.2408 6.13003 18.3334 5.0708 20.5915 4.84088C22.8496 4.61097 25.1128 5.22672 26.9431 6.56901C28.7735 7.9113 30.0409 9.88474 30.5003 12.1075" stroke="#404366" stroke-width="0.6875" stroke-linecap="round" stroke-linejoin="round"/>
<path d="M14.1738 13.9557C14.1738 12.0072 14.9479 10.1385 16.3257 8.76072C17.7035 7.38292 19.5721 6.60889 21.5206 6.60889C23.4691 6.60889 25.3378 7.38292 26.7156 8.76072C28.0934 10.1385 28.8674 12.0072 28.8674 13.9557" stroke="#404366" stroke-width="0.6875" stroke-linecap="round" stroke-linejoin="round"/>
<path d="M0.833984 24.8333H1.72799H4.17526H18.9488" stroke="#404366" stroke-width="0.6875" stroke-linecap="round" stroke-linejoin="round"/>
<path d="M19.0889 24.8333H27.1549H32.1543H39.3862" stroke="#404366" stroke-width="0.6875" stroke-linecap="round" stroke-linejoin="round"/>
<path d="M19.0885 14.9047V24.8336H18.9486C18.0107 23.8037 16.8709 22.9778 15.6001 22.4073C14.3293 21.8368 12.9547 21.5339 11.5619 21.5173C10.347 21.5169 9.14331 21.7492 8.01582 22.2016L7.87598 11.958H13.4448V14.9047H19.0885Z" fill="white" stroke="#404366" stroke-width="0.6875" stroke-linecap="round" stroke-linejoin="round"/>
<path d="M24.5273 13.376H27.1544Z" fill="white"/>
<path d="M24.5273 13.376H27.1544" stroke="#404366" stroke-width="0.6875" stroke-linecap="round" stroke-linejoin="round"/>
<path d="M27.1543 24.8333V16.8572" stroke="#404366" stroke-width="0.6875" stroke-linecap="round" stroke-linejoin="round"/>
<path d="M32.1543 24.8335V20.803" stroke="#404366" stroke-width="0.6875" stroke-linecap="round" stroke-linejoin="round"/>
<path d="M27.1563 13.3813H27.1504" stroke="#404366" stroke-width="0.6875" stroke-linecap="round" stroke-linejoin="round"/>
<path d="M34.8356 11.4185V21.3374C33.9835 20.9912 33.0734 20.8099 32.1536 20.803V16.8574H27.1592V13.3613H29.8062V11.4185H34.8356Z" fill="white" stroke="#404366" stroke-width="0.6875" stroke-linecap="round" stroke-linejoin="round"/>
<path d="M34.8359 21.3372C35.1966 21.4864 35.5427 21.6687 35.8698 21.8816C36.9371 22.5895 37.7712 23.5974 38.2671 24.7783" fill="white"/>
<path d="M34.8359 21.3372C35.1966 21.4864 35.5427 21.6687 35.8698 21.8816C36.9371 22.5895 37.7712 23.5974 38.2671 24.7783" stroke="#404366" stroke-width="0.6875" stroke-linecap="round" stroke-linejoin="round"/>
<path d="M18.9493 24.8334H4.17578C5.25094 23.689 6.56122 22.7911 8.0165 22.2013C9.14399 21.7489 10.3477 21.5167 11.5625 21.5171C12.9554 21.5336 14.33 21.8365 15.6008 22.4071C16.8716 22.9776 18.0114 23.8035 18.9493 24.8334V24.8334Z" stroke="#404366" stroke-width="0.6875" stroke-linecap="round" stroke-linejoin="round"/>
<path d="M24.5276 11.9575V13.3759H22.335C22.3051 13.3759 22.335 18.3953 22.335 18.3953H19.0887V14.8992H13.445V11.9575H12.6309V9.19556H19.9777V11.9575H24.5276Z" fill="white" stroke="#404366" stroke-width="0.6875" stroke-linecap="round" stroke-linejoin="round"/>
<path d="M9.88379 17.1768H16.0969" stroke="#404366" stroke-width="0.6875" stroke-linecap="round" stroke-linejoin="round"/>
<path d="M9.88379 19.1597H16.0969" stroke="#404366" stroke-width="0.6875" stroke-linecap="round" stroke-linejoin="round"/>
<path d="M7.94597 14.8994C7.77374 14.7558 7.56308 14.6659 7.34019 14.6411C7.1173 14.6162 6.89202 14.6574 6.69237 14.7596C6.49404 14.8622 6.32116 15.0078 6.18635 15.1858C6.05155 15.3639 5.95823 15.5697 5.91324 15.7885C5.82353 16.2282 5.86344 16.6845 6.02811 17.102C5.46797 17.0613 4.90796 17.1827 4.41491 17.4516C4.21377 17.6004 4.05309 17.7972 3.94753 18.024C3.84197 18.2508 3.79489 18.5005 3.81058 18.7502C3.82791 18.9964 3.90239 19.2351 4.0281 19.4475C4.1538 19.6599 4.32729 19.8401 4.53477 19.9738C4.22734 19.9997 3.93493 20.118 3.69603 20.3133C3.45712 20.5085 3.2829 20.7715 3.19627 21.0676C3.11424 21.3617 3.09498 21.6697 3.13972 21.9717C3.18446 22.2737 3.29221 22.5629 3.45598 22.8206C3.78636 23.3357 4.23063 23.768 4.75453 24.0842L4.63966 24.0343" stroke="#404366" stroke-width="0.6875" stroke-linecap="round" stroke-linejoin="round"/>
<path d="M34.8809 17.3064C35.0893 16.9677 35.4088 16.7117 35.7848 16.5822C36.0021 16.5329 36.2287 16.5441 36.44 16.6145C36.6513 16.685 36.8393 16.812 36.9835 16.9818C37.1225 17.1556 37.2196 17.3591 37.2673 17.5765C37.3149 17.7939 37.3118 18.0194 37.2582 18.2354C37.1472 18.6698 36.8783 19.0473 36.504 19.2942C36.9055 19.191 37.3279 19.2031 37.7227 19.3292C37.9711 19.4111 38.1901 19.5641 38.3525 19.7691C38.5149 19.9742 38.6137 20.2223 38.6367 20.4829C38.6537 20.744 38.6072 21.0054 38.5011 21.2446C38.395 21.4838 38.2324 21.6938 38.0273 21.8564C38.2624 21.7668 38.521 21.7606 38.7601 21.8388C38.9992 21.9169 39.2042 22.0748 39.3409 22.2859C39.4859 22.4992 39.5549 22.7551 39.5368 23.0124C39.5187 23.2697 39.4145 23.5134 39.241 23.7043C38.9543 23.9506 38.6112 24.1221 38.2421 24.2037" stroke="#404366" stroke-width="0.6875" stroke-linecap="round" stroke-linejoin="round"/>
</svg>
