<svg width="42" height="45" viewBox="0 0 42 45" fill="none" xmlns="http://www.w3.org/2000/svg">
<path d="M24.4701 22.79V27.8901C24.4701 29.4814 23.838 31.0075 22.7128 32.1327C21.5876 33.2579 20.0614 33.8901 18.4701 33.8901H6.6001C5.0088 33.8901 3.4827 33.2579 2.35748 32.1327C1.23226 31.0075 0.600098 29.4814 0.600098 27.8901V22.79H24.4701Z" stroke="#404366" stroke-width="0.75" stroke-linecap="round" stroke-linejoin="round"/>
<path d="M24.47 7.91992V22.7899H0.580078V7.91992C0.580078 7.19588 0.867664 6.50154 1.37964 5.98956C1.89161 5.47759 2.58602 5.18994 3.31006 5.18994H21.7501C22.4724 5.19259 23.1642 5.48135 23.674 5.99304C24.1838 6.50473 24.47 7.19761 24.47 7.91992V7.91992Z" stroke="#404366" stroke-width="0.75" stroke-linecap="round" stroke-linejoin="round"/>
<path d="M14.9103 18.0002H19.4803V22.7802H14.9103V27.3502H10.1403V22.7802H5.57031V18.0002H10.1403V13.4302H14.9103V18.0002Z" fill="white" stroke="#404366" stroke-width="0.75" stroke-linecap="round" stroke-linejoin="round"/>
<path d="M12.6898 1.00002C13.2441 1.00002 13.7757 1.22019 14.1677 1.61215C14.5596 2.0041 14.7799 2.53575 14.7799 3.09005V5.18002H10.5899V3.1C10.5885 2.82385 10.6419 2.55021 10.747 2.29482C10.852 2.03944 11.0067 1.80741 11.202 1.61215C11.3973 1.41688 11.6293 1.26226 11.8847 1.15719C12.14 1.05212 12.4137 0.9987 12.6898 1.00002Z" fill="white" stroke="#404366" stroke-width="0.75" stroke-linecap="round" stroke-linejoin="round"/>
<path d="M10.7002 33.8999V43.3999" stroke="#404366" stroke-width="0.75" stroke-linecap="round" stroke-linejoin="round"/>
<path d="M7.85986 33.8999V43.3999" stroke="#404366" stroke-width="0.75" stroke-linecap="round" stroke-linejoin="round"/>
<path d="M15.8101 33.8999V39.0499C15.8101 40.3574 16.3295 41.6113 17.254 42.5359C18.1786 43.4604 19.4325 43.9799 20.7401 43.9799H27.2801C28.5876 43.9799 29.8415 43.4604 30.7661 42.5359C31.6906 41.6113 32.21 40.3574 32.21 39.0499V21.0499C32.21 20.2144 32.5419 19.4132 33.1326 18.8225C33.7234 18.2318 34.5246 17.8999 35.36 17.8999C36.1955 17.8999 36.9967 18.2318 37.5875 18.8225C38.1782 19.4132 38.5101 20.2144 38.5101 21.0499V28.3299" stroke="#404366" stroke-width="0.75" stroke-linecap="round" stroke-linejoin="round"/>
<path d="M33.7101 29.27H30.6201V34.28H33.7101V29.27Z" fill="white" stroke="#404366" stroke-width="0.75" stroke-linecap="round" stroke-linejoin="round"/>
<path d="M41.2098 41.2703C41.2323 41.6393 41.179 42.0091 41.0532 42.3568C40.9274 42.7044 40.7319 43.0227 40.4785 43.292C40.2251 43.5613 39.9192 43.7758 39.5798 43.9225C39.2404 44.0692 38.8746 44.1448 38.5049 44.1448C38.1351 44.1448 37.7693 44.0692 37.4299 43.9225C37.0905 43.7758 36.7846 43.5613 36.5312 43.292C36.2779 43.0227 36.0823 42.7044 35.9565 42.3568C35.8308 42.0091 35.7775 41.6393 35.7999 41.2703C35.7999 39.7803 38.5099 35.7402 38.5099 35.7402C38.5099 35.7402 41.2098 39.7803 41.2098 41.2703Z" fill="#404366" stroke="#404366" stroke-width="0.75" stroke-linecap="round" stroke-linejoin="round"/>
</svg>
