<svg width="57" height="38" viewBox="0 0 57 38" fill="none" xmlns="http://www.w3.org/2000/svg">
<path d="M33.9999 18.02H38.5698V22.7999H33.9999V27.3699H29.2198V22.7999H24.6499V18.02H29.2198V13.46H33.9999V18.02Z" fill="white" stroke="#404366" stroke-width="0.75" stroke-linecap="round" stroke-linejoin="round"/>
<path d="M45.8197 12.8301V37.4601H11.2598V12.8301C11.2598 12.0741 11.4088 11.3256 11.6984 10.6273C11.988 9.92902 12.4124 9.29472 12.9474 8.76065C13.4824 8.22659 14.1175 7.80324 14.8163 7.51487C15.5151 7.22649 16.2638 7.07874 17.0198 7.08005H40.0198C40.7791 7.07345 41.5322 7.21726 42.2356 7.50327C42.939 7.78928 43.5787 8.21178 44.1179 8.74637C44.6572 9.28097 45.0852 9.91711 45.3773 10.618C45.6694 11.3189 45.8197 12.0707 45.8197 12.8301V12.8301Z" stroke="#404366" stroke-width="0.75" stroke-linecap="round" stroke-linejoin="round"/>
<path d="M45.8197 12.8301V37.4601H18.2998V12.8301C18.2998 12.0741 18.4488 11.3256 18.7384 10.6273C19.028 9.92905 19.4524 9.29476 19.9874 8.76069C20.5224 8.22662 21.1574 7.80328 21.8562 7.5149C22.555 7.22653 23.3039 7.07877 24.0598 7.08009H40.0598C40.8158 7.07877 41.5645 7.22653 42.2633 7.5149C42.9621 7.80328 43.5971 8.22662 44.1321 8.76069C44.6671 9.29476 45.0915 9.92905 45.3811 10.6273C45.6707 11.3256 45.8197 12.0741 45.8197 12.8301V12.8301Z" stroke="#404366" stroke-width="0.75" stroke-linecap="round" stroke-linejoin="round"/>
<path d="M23.1998 7.12C23.1674 6.34139 23.2929 5.5643 23.5685 4.83539C23.8441 4.10648 24.2643 3.44079 24.8037 2.87842C25.3432 2.31605 25.9907 1.86861 26.7075 1.56293C27.4243 1.25724 28.1956 1.09961 28.9748 1.09961C29.7541 1.09961 30.5254 1.25724 31.2422 1.56293C31.959 1.86861 32.6067 2.31605 33.1461 2.87842C33.6856 3.44079 34.1057 4.10648 34.3813 4.83539C34.657 5.5643 34.7823 6.34139 34.7499 7.12" stroke="#404366" stroke-width="0.75" stroke-linecap="round" stroke-linejoin="round"/>
<path d="M7.08008 37.5H54.5201" stroke="#404366" stroke-width="0.75" stroke-linecap="round" stroke-linejoin="round"/>
<path d="M51.1201 27.6998V37.4998H41.4102V27.6998C41.4102 27.418 41.4658 27.1388 41.574 26.8785C41.6821 26.6182 41.8406 26.3819 42.0404 26.183C42.2402 25.9842 42.4774 25.8268 42.7382 25.7198C42.999 25.6129 43.2783 25.5585 43.5602 25.5598C43.6648 25.5598 43.7682 25.539 43.8647 25.4987C43.9613 25.4584 44.0488 25.3993 44.1223 25.3249C44.1958 25.2505 44.2537 25.1622 44.2928 25.0652C44.332 24.9682 44.3514 24.8644 44.3501 24.7598V20.3398H47.9102V24.7598C47.9088 24.8644 47.9283 24.9682 47.9674 25.0652C48.0065 25.1622 48.0644 25.2505 48.1379 25.3249C48.2114 25.3993 48.299 25.4584 48.3955 25.4987C48.492 25.539 48.5955 25.5598 48.7001 25.5598H48.9701C49.252 25.5585 49.5313 25.6129 49.7921 25.7198C50.0529 25.8268 50.29 25.9842 50.4897 26.183C50.6895 26.3819 50.8481 26.6182 50.9563 26.8785C51.0645 27.1388 51.1201 27.418 51.1201 27.6998Z" fill="white" stroke="#404366" stroke-width="0.75" stroke-linecap="round" stroke-linejoin="round"/>
<path d="M48.4103 19.7598H43.7402V23.5497H48.4103V19.7598Z" fill="white" stroke="#404366" stroke-width="0.75" stroke-linecap="round" stroke-linejoin="round"/>
<path d="M51.1202 29.73H43.7402V34.33H51.1202V29.73Z" fill="white" stroke="#404366" stroke-width="0.75" stroke-linecap="round" stroke-linejoin="round"/>
<path d="M7.42981 14.1099C7.43115 14.2324 7.40796 14.354 7.36169 14.4674C7.31543 14.5808 7.24703 14.6839 7.1604 14.7705C7.07377 14.8571 6.97062 14.9256 6.85718 14.9719C6.74374 15.0181 6.62226 15.0413 6.49976 15.0399H4.9198V16.6299C4.9198 16.7521 4.89574 16.873 4.849 16.9858C4.80226 17.0987 4.7337 17.2012 4.64734 17.2875C4.56098 17.3739 4.45854 17.4424 4.3457 17.4891C4.23287 17.5359 4.11188 17.5599 3.98975 17.5599C3.86762 17.5599 3.74674 17.5359 3.63391 17.4891C3.52108 17.4424 3.41851 17.3739 3.33215 17.2875C3.24579 17.2012 3.17723 17.0987 3.13049 16.9858C3.08376 16.873 3.05981 16.7521 3.05981 16.6299V14.9999H1.47974C1.23308 14.9999 0.996552 14.9019 0.822144 14.7275C0.647735 14.5531 0.549805 14.3166 0.549805 14.0699C0.549805 13.8233 0.647735 13.5868 0.822144 13.4124C0.996552 13.2379 1.23308 13.14 1.47974 13.14H3.05981V11.5999C3.05981 11.3533 3.15774 11.1167 3.33215 10.9423C3.50656 10.7679 3.74309 10.6699 3.98975 10.6699C4.2364 10.6699 4.47293 10.7679 4.64734 10.9423C4.82175 11.1167 4.9198 11.3533 4.9198 11.5999V13.1799H6.49976C6.74641 13.1799 6.98294 13.2779 7.15735 13.4523C7.33176 13.6267 7.42981 13.8633 7.42981 14.1099Z" stroke="#404366" stroke-width="0.75" stroke-linecap="round" stroke-linejoin="round"/>
<path d="M11.3802 4.77997C11.3802 5.02662 11.2823 5.26315 11.1079 5.43756C10.9335 5.61197 10.6968 5.70996 10.4502 5.70996H8.86023V7.29993C8.87372 7.42948 8.8598 7.56042 8.81946 7.68427C8.77912 7.80811 8.7133 7.92211 8.6261 8.01886C8.5389 8.11561 8.43236 8.19296 8.31335 8.24591C8.19435 8.29886 8.06556 8.32623 7.9353 8.32623C7.80505 8.32623 7.67613 8.29886 7.55713 8.24591C7.43812 8.19296 7.33159 8.11561 7.24438 8.01886C7.15718 7.92211 7.09137 7.80811 7.05103 7.68427C7.01068 7.56042 6.99677 7.42948 7.01025 7.29993V5.70996H5.42029C5.17364 5.70996 4.9371 5.61197 4.7627 5.43756C4.58829 5.26315 4.49023 5.02662 4.49023 4.77997C4.49023 4.53332 4.58829 4.29672 4.7627 4.12231C4.9371 3.94791 5.17364 3.84991 5.42029 3.84991H7.00024V2.26996C6.98676 2.14041 7.00067 2.00947 7.04102 1.88562C7.08136 1.76177 7.14717 1.64778 7.23438 1.55103C7.32158 1.45427 7.42824 1.37686 7.54724 1.32391C7.66625 1.27096 7.79504 1.24365 7.92529 1.24365C8.05555 1.24365 8.18434 1.27096 8.30334 1.32391C8.42235 1.37686 8.52889 1.45427 8.61609 1.55103C8.70329 1.64778 8.76923 1.76177 8.80957 1.88562C8.84991 2.00947 8.86371 2.14041 8.85022 2.26996V3.84991H10.4402C10.5632 3.84859 10.6852 3.8717 10.7992 3.91785C10.9132 3.96399 11.0169 4.03228 11.1044 4.11877C11.1918 4.20526 11.2611 4.3082 11.3085 4.42169C11.3558 4.53518 11.3803 4.65699 11.3802 4.77997Z" stroke="#404366" stroke-width="0.75" stroke-linecap="round" stroke-linejoin="round"/>
<path d="M56.2999 15.8301C56.2999 16.0768 56.2019 16.3133 56.0275 16.4877C55.8531 16.6621 55.6165 16.7601 55.3699 16.7601H53.7899V18.3501C53.7899 18.5967 53.6919 18.8333 53.5175 19.0078C53.343 19.1822 53.1065 19.2802 52.8599 19.2802C52.6132 19.2802 52.3767 19.1822 52.2023 19.0078C52.0279 18.8333 51.9299 18.5967 51.9299 18.3501V16.7601H50.3499C50.1032 16.7601 49.8667 16.6621 49.6923 16.4877C49.5179 16.3133 49.4199 16.0768 49.4199 15.8301C49.4199 15.5835 49.5179 15.3469 49.6923 15.1725C49.8667 14.9981 50.1032 14.9001 50.3499 14.9001H51.9299V13.3201C51.9299 13.0735 52.0279 12.8369 52.2023 12.6625C52.3767 12.4881 52.6132 12.3901 52.8599 12.3901C53.1065 12.3901 53.343 12.4881 53.5175 12.6625C53.6919 12.8369 53.7899 13.0735 53.7899 13.3201V14.9001H55.3699C55.492 14.9001 55.613 14.9241 55.7258 14.9709C55.8387 15.0176 55.9411 15.0861 56.0275 15.1725C56.1138 15.2588 56.1824 15.3614 56.2291 15.4742C56.2759 15.5871 56.2999 15.708 56.2999 15.8301Z" stroke="#404366" stroke-width="0.75" stroke-linecap="round" stroke-linejoin="round"/>
</svg>
