<svg width="62" height="42" viewBox="0 0 62 42" fill="none" xmlns="http://www.w3.org/2000/svg">
<path d="M42.8901 3.79004H13.3501V41.1401H42.8901V3.79004Z" stroke="#404366" stroke-width="0.75" stroke-linecap="round" stroke-linejoin="round"/>
<path d="M29.6399 8.87994H32.5599V11.9299H29.6399V14.84H26.5898V11.9299H23.6699V8.87994H26.5898V5.95996H29.6399V8.87994Z" stroke="#404366" stroke-width="0.75" stroke-linecap="round" stroke-linejoin="round"/>
<path d="M35.5698 0.929932H20.6099V3.78992H35.5698V0.929932Z" stroke="#404366" stroke-width="0.75" stroke-linecap="round" stroke-linejoin="round"/>
<path d="M13.3501 21.8H7.16016V41.1301H13.3501V21.8Z" stroke="#404366" stroke-width="0.75" stroke-linecap="round" stroke-linejoin="round"/>
<path d="M17.75 17.9399H38.55" stroke="#404366" stroke-width="0.75" stroke-linecap="round" stroke-linejoin="round"/>
<path d="M17.75 22.3599H38.55" stroke="#404366" stroke-width="0.75" stroke-linecap="round" stroke-linejoin="round"/>
<path d="M17.75 26.78H38.55" stroke="#404366" stroke-width="0.75" stroke-linecap="round" stroke-linejoin="round"/>
<path d="M17.75 31.21H38.55" stroke="#404366" stroke-width="0.75" stroke-linecap="round" stroke-linejoin="round"/>
<path d="M17.75 35.6299H38.55" stroke="#404366" stroke-width="0.75" stroke-linecap="round" stroke-linejoin="round"/>
<path d="M29.5999 38.6399H59.2198C59.6177 38.6399 59.9992 38.4819 60.2805 38.2006C60.5618 37.9193 60.7198 37.5377 60.7198 37.1399V36.2499C60.724 36.0166 60.669 35.7861 60.5599 35.5799L54.3899 23.1899C54.2639 22.9401 54.0709 22.7301 53.8325 22.5836C53.5941 22.437 53.3197 22.3596 53.0399 22.3599H32.0399C31.6936 22.3579 31.3574 22.4766 31.0891 22.6956C30.8208 22.9146 30.6372 23.2202 30.5698 23.5599L28.1699 35.0499C28.1602 35.1497 28.1602 35.2501 28.1699 35.3499V37.1399C28.1719 37.5252 28.3211 37.8951 28.5869 38.174C28.8528 38.4528 29.2151 38.6195 29.5999 38.6399Z" fill="white" stroke="#404366" stroke-width="0.75" stroke-linecap="round" stroke-linejoin="round"/>
<path d="M44.5198 29.5699H47.4298V32.6199H44.5198V35.5399H41.4697V32.6199H38.5498V29.5699H41.4697V26.6499H44.5198V29.5699Z" stroke="#404366" stroke-width="0.75" stroke-linecap="round" stroke-linejoin="round"/>
<path d="M55.0698 24.5601H51.4199L53.1099 31.8901H58.7198" stroke="#404366" stroke-width="0.75" stroke-linecap="round" stroke-linejoin="round"/>
<path d="M51.4203 40.92C52.7623 40.92 53.8502 39.8321 53.8502 38.4901C53.8502 37.148 52.7623 36.0601 51.4203 36.0601C50.0782 36.0601 48.9902 37.148 48.9902 38.4901C48.9902 39.8321 50.0782 40.92 51.4203 40.92Z" fill="white" stroke="#404366" stroke-width="0.75" stroke-linecap="round" stroke-linejoin="round"/>
<path d="M35.0302 40.92C36.3722 40.92 37.4601 39.8321 37.4601 38.4901C37.4601 37.148 36.3722 36.0601 35.0302 36.0601C33.6881 36.0601 32.6001 37.148 32.6001 38.4901C32.6001 39.8321 33.6881 40.92 35.0302 40.92Z" fill="white" stroke="#404366" stroke-width="0.75" stroke-linecap="round" stroke-linejoin="round"/>
<path d="M10.5698 12.78C8.53028 11.8872 6.76673 10.465 5.46204 8.66089C4.15734 6.85682 3.35908 4.73658 3.1499 2.52002C5.39813 3.03462 7.39012 4.33187 8.7699 6.17999C10.1225 8.10217 10.7592 10.4373 10.5698 12.78V12.78Z" stroke="#404366" stroke-width="0.75" stroke-linecap="round" stroke-linejoin="round"/>
<path d="M9.34009 17.4301C8.51344 15.9191 7.21733 14.7183 5.64771 14.0093C4.07808 13.3003 2.32035 13.1215 0.640137 13.5001C0.891688 14.3237 1.30763 15.0877 1.86279 15.746C2.41796 16.4043 3.1008 16.9432 3.87012 17.3301C5.6186 18.0375 7.56692 18.0731 9.34009 17.4301Z" stroke="#404366" stroke-width="0.75" stroke-linecap="round" stroke-linejoin="round"/>
<path d="M46.1498 19.2599C45.8708 18.2636 45.7953 17.2213 45.9275 16.1952C46.0598 15.169 46.3973 14.18 46.9198 13.287C47.4424 12.3941 48.1392 11.6154 48.969 10.9974C49.7988 10.3794 50.7446 9.93477 51.7498 9.68994C52.0624 10.6615 52.174 11.6865 52.0777 12.7025C51.9814 13.7186 51.6792 14.7044 51.1897 15.5999C50.0541 17.4331 48.2444 18.7474 46.1498 19.2599V19.2599Z" stroke="#404366" stroke-width="0.75" stroke-linecap="round" stroke-linejoin="round"/>
</svg>
