<svg width="66" height="43" viewBox="0 0 66 43" fill="none" xmlns="http://www.w3.org/2000/svg">
<path d="M21.1503 27.68C20.9407 28.5504 20.9421 29.4582 21.1543 30.3279C21.3665 31.1976 21.7834 32.004 22.3703 32.68C24.4503 35 27.8303 34.98 29.2903 35.15C29.6761 35.2129 30.0257 35.4141 30.2741 35.7158C30.5225 36.0176 30.6527 36.3994 30.6403 36.79V41.86H35.5203L34.9003 35.24C34.9003 35.24 39.9003 37.24 42.7403 34.05C45.5803 30.86 43.5603 26.78 43.5603 26.78" stroke="#404366" stroke-width="0.75" stroke-linecap="round" stroke-linejoin="round"/>
<path d="M44.1301 28.5599C44.8752 28.6178 45.6204 28.4494 46.2682 28.0766C46.9159 27.7038 47.4361 27.144 47.7603 26.4707C48.0846 25.7973 48.1979 25.0417 48.0854 24.3029C47.973 23.564 47.64 22.8763 47.1301 22.3299C47.1301 22.3299 49.42 15.4499 43.44 11.3299C41.7445 10.1249 39.7784 9.35589 37.7152 9.09079C35.652 8.8257 33.5552 9.07268 31.6101 9.80991C31.2109 9.40397 30.7155 9.10578 30.1699 8.94315C29.6243 8.78052 29.0463 8.75877 28.4901 8.87992C27.7845 9.05828 27.1735 9.49891 26.7815 10.112C26.3894 10.7252 26.2459 11.4646 26.3801 12.1799" stroke="#404366" stroke-width="0.75" stroke-linecap="round" stroke-linejoin="round"/>
<path d="M14.3901 26.51C14.5784 27.6713 15.039 28.7714 15.7343 29.7205C16.4295 30.6695 17.3397 31.4404 18.3901 31.97C19.6458 32.5259 21.0224 32.7531 22.3901 32.63" stroke="#404366" stroke-width="0.75" stroke-linecap="round" stroke-linejoin="round"/>
<path d="M21.6001 26.3101C21.9342 25.4811 22.4693 24.7482 23.1571 24.1774C23.8449 23.6065 24.6638 23.2157 25.5402 23.0401C26.848 22.9053 28.167 22.9255 29.4701 23.1001C30.1223 23.1849 30.7849 23.1403 31.4198 22.9687C32.0547 22.7971 32.6495 22.5019 33.1702 22.1001" stroke="#404366" stroke-width="0.75" stroke-linecap="round" stroke-linejoin="round"/>
<path d="M11.8999 19.45C12.4963 19.4222 13.092 19.5179 13.6495 19.7313C14.2071 19.9447 14.7145 20.2711 15.1399 20.69C15.9206 21.5019 16.5144 22.4746 16.8799 23.54" stroke="#404366" stroke-width="0.75" stroke-linecap="round" stroke-linejoin="round"/>
<path d="M18.71 10.78C18.716 11.455 18.8824 12.1189 19.1953 12.717C19.5083 13.3151 19.9589 13.8303 20.51 14.22C20.1049 14.4621 19.766 14.8006 19.5234 15.2054C19.2809 15.6102 19.1423 16.0687 19.12 16.54" stroke="#404366" stroke-width="0.75" stroke-linecap="round" stroke-linejoin="round"/>
<path d="M15.5303 20.86C16.0964 20.3088 16.8354 19.9699 17.6226 19.9006C18.4097 19.8314 19.1966 20.0361 19.8502 20.48" stroke="#404366" stroke-width="0.75" stroke-linecap="round" stroke-linejoin="round"/>
<path d="M36.3301 9.00005C37.1066 8.96593 37.8752 9.16762 38.5349 9.5786C39.1946 9.98958 39.7145 10.5906 40.0261 11.3026C40.3378 12.0147 40.4267 12.8043 40.281 13.5678C40.1354 14.3313 39.762 15.0328 39.2101 15.58C39.9485 15.9399 40.5668 16.5061 40.9901 17.21C41.1945 17.5661 41.3021 17.9695 41.3021 18.3801C41.3021 18.7906 41.1945 19.194 40.9901 19.55" stroke="#404366" stroke-width="0.75" stroke-linecap="round" stroke-linejoin="round"/>
<path d="M33.9303 20.3201H39.4103V26.0501H33.9303V31.5401H28.1902V26.0501H22.7002V20.3201H28.1902V14.8301H33.9303V20.3201Z" fill="white" stroke="#404366" stroke-width="0.75" stroke-linecap="round" stroke-linejoin="round"/>
<path d="M45.7998 24.13C46.3998 23.6036 46.8863 22.9605 47.2297 22.24" stroke="#404366" stroke-width="0.75" stroke-linecap="round" stroke-linejoin="round"/>
<path d="M45.3901 13.0601C45.9009 13.6292 46.201 14.3563 46.2401 15.1201C46.265 15.884 46.0326 16.6341 45.5801 17.2501" stroke="#404366" stroke-width="0.75" stroke-linecap="round" stroke-linejoin="round"/>
<path d="M43 17.71C43.3908 17.4577 43.8358 17.3018 44.2986 17.2549C44.7614 17.2081 45.2286 17.2717 45.662 17.4406C46.0954 17.6094 46.4825 17.8787 46.7916 18.2263C47.1007 18.5739 47.3229 18.9899 47.4399 19.44" stroke="#404366" stroke-width="0.75" stroke-linecap="round" stroke-linejoin="round"/>
<path d="M32.1899 9.57007C31.8875 9.67833 31.614 9.85454 31.3904 10.0851C31.1667 10.3157 30.999 10.5945 30.9 10.9001C30.8075 11.2097 30.8116 11.5402 30.9116 11.8474C31.0117 12.1547 31.2029 12.4242 31.46 12.6201C31.969 12.8997 32.5545 13.0083 33.13 12.9301" stroke="#404366" stroke-width="0.75" stroke-linecap="round" stroke-linejoin="round"/>
<path d="M27.2502 9.52003C25.3829 9.17422 23.4635 9.22778 21.6183 9.67716C19.7732 10.1265 18.0441 10.9616 16.5449 12.1273C15.0457 13.293 13.8104 14.763 12.9202 16.4405C12.03 18.1181 11.5052 19.9651 11.3802 21.86C11.2302 23.5374 11.5269 25.2245 12.2402 26.75C12.5976 27.5076 13.1097 28.1819 13.7435 28.7296C14.3773 29.2773 15.1188 29.6862 15.9202 29.93" stroke="#404366" stroke-width="0.75" stroke-linecap="round" stroke-linejoin="round"/>
<path d="M48.1599 20.78C49.9448 18.5098 52.1898 16.6429 54.7474 15.302C57.3051 13.9612 60.1175 13.1766 62.9999 13C63.1387 16.439 62.4166 19.8583 60.899 22.9474C59.3815 26.0366 57.1167 28.698 54.3099 30.69C48.8899 34.44 41.7999 35.48 36.8599 39.84" stroke="#404366" stroke-width="0.75" stroke-linecap="round" stroke-linejoin="round"/>
<path d="M58.2803 28.6201C60.495 28.8128 62.6874 29.2078 64.8302 29.8001C62.1482 33.1568 58.5171 35.6275 54.4103 36.8901C50.3003 38.2501 45.8002 38.1501 40.7002 37.9501" stroke="#404366" stroke-width="0.75" stroke-linecap="round" stroke-linejoin="round"/>
<path d="M10.8198 25.93C8.42626 23.674 6.65041 20.8426 5.66137 17.7057C4.67232 14.5688 4.50315 11.2309 5.16991 8.01001C8.09593 9.13713 10.7829 10.8063 13.0898 12.93" stroke="#404366" stroke-width="0.75" stroke-linecap="round" stroke-linejoin="round"/>
<path d="M7.71997 24.2399C5.25734 24.0413 2.78006 24.3476 0.439941 25.1399C3.43994 28.7199 6.43998 32.3399 10.6 34.5699C16.67 37.8499 23.93 36.0799 29.72 39.7999" stroke="#404366" stroke-width="0.75" stroke-linecap="round" stroke-linejoin="round"/>
<path d="M50.5302 12.9401C49.9329 10.6265 50.2033 8.17434 51.2902 6.04645C52.3772 3.91856 54.2056 2.26224 56.4303 1.39014C56.7103 4.06014 56.6502 6.82012 55.2202 9.09012C54.0002 11.0001 52.5202 11.7701 50.5302 12.9401Z" stroke="#404366" stroke-width="0.75" stroke-linecap="round" stroke-linejoin="round"/>
<path d="M47.8298 9.89993C46.2768 8.99445 45.0741 7.5923 44.4155 5.91959C43.757 4.24688 43.681 2.40111 44.1998 0.679932C45.7189 1.61686 46.8941 3.02005 47.5499 4.67993C48.1989 6.34527 48.2969 8.17474 47.8298 9.89993Z" stroke="#404366" stroke-width="0.75" stroke-linecap="round" stroke-linejoin="round"/>
</svg>
