<svg width="44" height="48" viewBox="0 0 44 48" fill="none" xmlns="http://www.w3.org/2000/svg">
<path d="M33.1098 11.6898L32.3098 14.31C32.0732 15.1487 31.6712 15.9317 31.1277 16.6129C30.5841 17.2942 29.9099 17.8599 29.1446 18.2769C28.3793 18.6938 27.5383 18.9537 26.6712 19.041C25.804 19.1284 24.9282 19.0415 24.0951 18.7855C23.262 18.5296 22.4885 18.1098 21.8199 17.5507C21.1514 16.9916 20.6013 16.3044 20.2021 15.5297C19.8029 14.755 19.5625 13.9084 19.4951 13.0395C19.4278 12.1705 19.5348 11.2969 19.8098 10.4699L20.4098 8.46987C22.0288 7.88535 23.603 7.18351 25.1198 6.3699C26.359 5.77842 27.4701 4.94947 28.3899 3.92996C28.4304 3.87148 28.4873 3.82622 28.5534 3.80007C28.6196 3.77393 28.692 3.76801 28.7616 3.78298C28.8311 3.79796 28.8947 3.83324 28.9442 3.8843C28.9937 3.93537 29.027 3.99988 29.0398 4.06985C29.6369 6.94788 31.0498 9.5932 33.1098 11.6898V11.6898Z" stroke="#404366" stroke-width="0.75" stroke-linecap="round" stroke-linejoin="round"/>
<path d="M9.21036 29.6301C9.21036 29.6301 6.90034 26.6301 9.37034 21.6301C11.8403 16.6301 16.8003 13.8201 17.8703 10.1201L18.9303 6.67015C19.5669 4.60103 20.9986 2.86907 22.911 1.85472C24.8235 0.840366 27.0603 0.626528 29.1303 1.26011V1.26011C30.1567 1.57409 31.1111 2.08747 31.9388 2.77086C32.7664 3.45424 33.4512 4.29423 33.9537 5.24266C34.4563 6.19108 34.7667 7.22934 34.8674 8.29795C34.9681 9.36657 34.8569 10.4445 34.5403 11.4701L33.4803 14.9201C33.2194 15.9576 33.1887 17.0395 33.3904 18.0901" stroke="#404366" stroke-width="0.75" stroke-miterlimit="10"/>
<path d="M19 9.00012C19.49 8.85012 20 8.68013 20.46 8.51013C22.079 7.9256 23.6531 7.22377 25.17 6.41016C26.6438 5.74991 27.9194 4.71569 28.87 3.41016" stroke="#404366" stroke-width="0.75" stroke-linecap="round" stroke-linejoin="round"/>
<path d="M28.9199 3.41016C29.4187 6.53965 30.8837 9.4347 33.1099 11.6901C33.4699 12.0501 33.8499 12.4001 34.2399 12.6901" stroke="#404366" stroke-width="0.75" stroke-linecap="round" stroke-linejoin="round"/>
<path d="M25.5601 10.6503C25.3881 10.8444 25.1596 10.9796 24.9066 11.037C24.6537 11.0944 24.3891 11.071 24.1502 10.9702C23.922 10.8685 23.7296 10.7008 23.5977 10.4886C23.4658 10.2765 23.4005 10.0299 23.4101 9.78027" stroke="#404366" stroke-width="0.75" stroke-miterlimit="10"/>
<path d="M30.0605 12.4801C29.8873 12.6725 29.6582 12.8059 29.4053 12.8615C29.1524 12.917 28.8885 12.8922 28.6505 12.7902C28.419 12.6931 28.2233 12.5263 28.0907 12.3131C27.9581 12.0999 27.8951 11.8507 27.9105 11.6001" stroke="#404366" stroke-width="0.75" stroke-miterlimit="10"/>
<path d="M23.8506 14.5498C24.2046 14.9213 24.6341 15.2126 25.1102 15.4041C25.5863 15.5955 26.0979 15.6828 26.6106 15.6598" stroke="#404366" stroke-width="0.75" stroke-miterlimit="10" stroke-linecap="round"/>
<path d="M35.8002 29.74C38.6389 29.74 40.9402 27.4387 40.9402 24.6C40.9402 21.7612 38.6389 19.46 35.8002 19.46C32.9614 19.46 30.6602 21.7612 30.6602 24.6C30.6602 27.4387 32.9614 29.74 35.8002 29.74Z" stroke="#404366" stroke-width="0.75" stroke-miterlimit="10"/>
<path d="M34.2302 22.9302C34.5339 22.9302 34.7802 22.6839 34.7802 22.3801C34.7802 22.0764 34.5339 21.8301 34.2302 21.8301C33.9264 21.8301 33.6802 22.0764 33.6802 22.3801C33.6802 22.6839 33.9264 22.9302 34.2302 22.9302Z" fill="#404366"/>
<path d="M36.8401 25.2401C37.1438 25.2401 37.3901 24.9938 37.3901 24.6901C37.3901 24.3863 37.1438 24.1401 36.8401 24.1401C36.5363 24.1401 36.29 24.3863 36.29 24.6901C36.29 24.9938 36.5363 25.2401 36.8401 25.2401Z" fill="#404366"/>
<path d="M33.2202 24.6899C33.2242 24.9864 33.3302 25.2725 33.5203 25.5C33.7116 25.7256 33.9779 25.8748 34.2703 25.92" stroke="#404366" stroke-width="0.75" stroke-miterlimit="10" stroke-linecap="round"/>
<path d="M19.7602 38.6598C18.8846 37.5664 18.4405 36.1896 18.5124 34.7907C18.5843 33.3917 19.1671 32.0676 20.1502 31.0697L30.8802 19.8297C32.0787 18.5341 33.7223 17.739 35.482 17.6036C37.2418 17.4683 38.9877 18.0026 40.3702 19.0997V19.0997C41.712 20.2748 42.5498 21.9213 42.7099 23.6976C42.8701 25.474 42.3402 27.2437 41.2302 28.6398L34.4002 37.6398" stroke="#404366" stroke-width="0.75" stroke-miterlimit="10" stroke-linecap="round"/>
<path d="M27.0703 18.9199V20.9999C27.0697 21.2554 27.1405 21.5059 27.2748 21.7233C27.4091 21.9406 27.6016 22.1161 27.8303 22.2299L28.2803 22.4598" stroke="#404366" stroke-width="0.75" stroke-miterlimit="10" stroke-linecap="round"/>
<path d="M21.5501 17.25V20.48C21.5576 20.8923 21.4492 21.2985 21.237 21.6521C21.0248 22.0057 20.7175 22.2926 20.3501 22.48L19.7101 22.8101L15.3701 24.8101C12.4603 26.1526 9.99581 28.3003 8.26801 30.9993C6.5402 33.6982 5.62134 36.8354 5.62012 40.04V43.1899" stroke="#404366" stroke-width="0.75" stroke-miterlimit="10" stroke-linecap="round"/>
<path d="M38.7 32.2998C40.0778 33.9238 41.1884 35.7566 41.99 37.7297C42.3851 38.7194 42.5594 39.7833 42.5007 40.8473C42.4419 41.9113 42.1516 42.9496 41.65 43.8898C40.7245 45.2933 39.3208 46.3131 37.7 46.7598C36.0912 47.1911 34.4179 47.33 32.76 47.1698C28.6068 46.9507 24.5684 45.7291 20.99 43.6097C20.5384 43.3226 20.1193 42.9873 19.74 42.6097C19.6676 42.5564 19.6083 42.4873 19.5667 42.4076C19.5251 42.3279 19.5023 42.2397 19.5 42.1498C19.5198 42.0569 19.5697 41.9731 19.6421 41.9116C19.7145 41.8501 19.8052 41.8144 19.9 41.8098C20.0874 41.8047 20.274 41.8352 20.45 41.8998C21.178 42.104 21.9387 42.165 22.69 42.0797" stroke="#404366" stroke-width="0.75" stroke-miterlimit="10"/>
<path d="M21.0001 41.9998C20.5423 41.8192 20.1417 41.5187 19.8401 41.1298C19.7718 41.0655 19.7171 40.988 19.6793 40.9021C19.6415 40.8163 19.6214 40.7236 19.6201 40.6298C19.6396 40.5415 19.681 40.4595 19.7404 40.3914C19.7998 40.3233 19.8754 40.2711 19.9601 40.2398C20.1264 40.1794 20.3045 40.1589 20.4801 40.1799C21.4025 40.3549 22.3434 40.412 23.2802 40.3498" stroke="#404366" stroke-width="0.75" stroke-miterlimit="10"/>
<path d="M21.2599 40.3102C20.7787 40.1474 20.3549 39.8486 20.0398 39.4501C19.9667 39.3772 19.9102 39.2896 19.8739 39.193C19.8377 39.0964 19.8227 38.9931 19.8299 38.8901C19.8588 38.7902 19.9155 38.7004 19.9934 38.6314C20.0713 38.5623 20.1671 38.5168 20.2699 38.5001C20.4712 38.4602 20.6785 38.4602 20.8799 38.5001C22.3069 38.6901 23.7528 38.6901 25.1798 38.5001" stroke="#404366" stroke-width="0.75" stroke-miterlimit="10"/>
<path d="M23.9199 38.6501C23.7744 38.2991 23.6541 37.9381 23.5599 37.57C23.5012 37.4199 23.4797 37.258 23.4971 37.0978C23.5145 36.9376 23.5703 36.784 23.6599 36.6501C23.7989 36.5329 23.9786 36.4754 24.1599 36.49C24.3387 36.5003 24.5146 36.5408 24.6799 36.61C25.7399 37 26.7399 37.5 27.7699 37.95C28.8228 38.4914 30.0027 38.7375 31.1843 38.6618C32.3658 38.5861 33.5047 38.1915 34.4799 37.5201C34.3999 37.5201 34.4799 37.6001 34.3999 37.6401" stroke="#404366" stroke-width="0.75" stroke-miterlimit="10"/>
<path d="M29.9202 38.6401C30.0578 39.7126 29.9727 40.802 29.6702 41.8401C29.3602 42.8816 28.7476 43.8076 27.9102 44.5001C27.0755 45.206 26.0014 45.564 24.9102 45.5001" stroke="#404366" stroke-width="0.75" stroke-miterlimit="10"/>
<path d="M10.0102 37.0001H14.5802V41.7802H10.0102V46.3501H5.23016V41.7802H0.660156V37.0001H5.23016V32.4302H10.0102V37.0001Z" fill="white" stroke="#404366" stroke-width="0.75" stroke-linecap="round" stroke-linejoin="round"/>
</svg>
