<svg width="58" height="38" viewBox="0 0 58 38" fill="none" xmlns="http://www.w3.org/2000/svg">
<path d="M0.799805 3.42993H9.39978V30.4299C9.39847 31.2594 9.56068 32.081 9.8772 32.8477C10.1937 33.6144 10.6583 34.3113 11.2444 34.8983C11.8305 35.4853 12.5265 35.9509 13.2927 36.2687C14.0589 36.5864 14.8802 36.7499 15.7097 36.7499H40.9998C41.8292 36.7499 42.6505 36.5864 43.4167 36.2687C44.183 35.9509 44.879 35.4853 45.4651 34.8983C46.0512 34.3113 46.5158 33.6144 46.8323 32.8477C47.1488 32.081 47.3111 31.2594 47.3098 30.4299V3.42993H57.4998" stroke="#404366" stroke-width="0.75" stroke-linecap="round" stroke-linejoin="round"/>
<path d="M13.73 3.42993H42.95" stroke="#404366" stroke-width="0.75" stroke-linecap="round" stroke-linejoin="round"/>
<path d="M41.9999 16.48V22.9301H40.5499L40.3699 21.4001L34.4999 21.3201V22.9301H32.6299V16.48C32.6299 15.5783 32.9881 14.7136 33.6257 14.0759C34.2634 13.4383 35.1282 13.0801 36.0299 13.0801H38.6499C39.5429 13.0932 40.3949 13.4572 41.0217 14.0934C41.6486 14.7296 42 15.5869 41.9999 16.48V16.48Z" stroke="#404366" stroke-width="0.75" stroke-linecap="round" stroke-linejoin="round"/>
<path d="M34.4502 17.27L34.6403 35.21" stroke="#404366" stroke-width="0.75" stroke-linecap="round" stroke-linejoin="round"/>
<path d="M39.8198 16.8901L41.9899 35.2101H39.6299L37.4999 23.7201H37.2999L37.1599 35.2101H34.6399L33.8599 36.5901" stroke="#404366" stroke-width="0.75" stroke-linecap="round" stroke-linejoin="round"/>
<path d="M32.5798 23C32.5701 23.4589 32.6659 23.9139 32.8598 24.33C32.9965 24.5387 33.1815 24.7112 33.3991 24.8331C33.6167 24.9549 33.8605 25.0225 34.1098 25.03" stroke="#404366" stroke-width="0.75" stroke-linecap="round" stroke-linejoin="round"/>
<path d="M41.9999 23.0901C42.0182 23.5412 41.9291 23.9902 41.7399 24.4001C41.6385 24.5593 41.5037 24.6946 41.3448 24.7964C41.186 24.8983 41.0068 24.9644 40.8198 24.9901" stroke="#404366" stroke-width="0.75" stroke-linecap="round" stroke-linejoin="round"/>
<path d="M37.1602 35.21V36.59" stroke="#404366" stroke-width="0.75" stroke-linecap="round" stroke-linejoin="round"/>
<path d="M39.6299 35.21L39.8499 36.52" stroke="#404366" stroke-width="0.75" stroke-linecap="round" stroke-linejoin="round"/>
<path d="M42 35.21C42.07 35.21 43 36.3199 43 36.3199" stroke="#404366" stroke-width="0.75" stroke-linecap="round" stroke-linejoin="round"/>
<path d="M37.2802 11.21C38.3129 11.21 39.1501 10.3728 39.1501 9.34003C39.1501 8.30725 38.3129 7.46997 37.2802 7.46997C36.2474 7.46997 35.4102 8.30725 35.4102 9.34003C35.4102 10.3728 36.2474 11.21 37.2802 11.21Z" fill="white" stroke="#404366" stroke-width="0.75" stroke-linecap="round" stroke-linejoin="round"/>
<path d="M13.1401 0.449951L19.0701 36.7399" stroke="#404366" stroke-width="0.75" stroke-linecap="round" stroke-linejoin="round"/>
<path d="M20.6201 0.449951L26.5502 36.7399" stroke="#404366" stroke-width="0.75" stroke-linecap="round" stroke-linejoin="round"/>
<path d="M25.6001 30.9299H18.1201" stroke="#404366" stroke-width="0.75" stroke-linecap="round" stroke-linejoin="round"/>
<path d="M24.6803 25.46H17.2002" stroke="#404366" stroke-width="0.75" stroke-linecap="round" stroke-linejoin="round"/>
<path d="M23.77 19.99H16.29" stroke="#404366" stroke-width="0.75" stroke-linecap="round" stroke-linejoin="round"/>
<path d="M22.8599 14.52H15.3799" stroke="#404366" stroke-width="0.75" stroke-linecap="round" stroke-linejoin="round"/>
<path d="M21.9497 9.04004H14.4697" stroke="#404366" stroke-width="0.75" stroke-linecap="round" stroke-linejoin="round"/>
</svg>
