<svg width="28" height="32" viewBox="0 0 28 32" fill="none" xmlns="http://www.w3.org/2000/svg">
<path d="M5.2876 28.6732V9.48243C5.2876 9.48243 9.55581 9.35277 9.42614 9.48243C9.29648 9.6121 11.9438 20.7851 11.9438 20.7851L15.3044 18.0837V20.8607L19.2917 18.1593V20.8607L23.1222 18.208V28.6732" stroke="#404366" stroke-width="0.75" stroke-linecap="round" stroke-linejoin="round"/>
<path d="M1.6084 28.6729H27.45" stroke="#404366" stroke-width="0.75" stroke-linecap="round" stroke-linejoin="round"/>
<path d="M14.4128 27.4737V26.3337C14.4138 26.2236 14.4438 26.1157 14.4998 26.0208C14.5557 25.926 14.6357 25.8476 14.7316 25.7935L16.2768 24.9182L16.8549 23.8376C16.9833 23.5985 17.1743 23.3987 17.4074 23.2598C17.6406 23.1208 17.9072 23.0479 18.1786 23.0488H20.4424C20.8037 23.0491 21.1528 23.1795 21.4257 23.4162L23.5868 25.264H24.2946C24.8539 25.2654 25.3898 25.4886 25.7848 25.8846C26.1798 26.2806 26.4017 26.8171 26.4017 27.3765V27.4737H14.4128Z" fill="white" stroke="#404366" stroke-width="0.75" stroke-linecap="round" stroke-linejoin="round"/>
<path d="M17.4654 28.6731C18.0264 28.6731 18.4812 28.2183 18.4812 27.6573C18.4812 27.0964 18.0264 26.6416 17.4654 26.6416C16.9045 26.6416 16.4497 27.0964 16.4497 27.6573C16.4497 28.2183 16.9045 28.6731 17.4654 28.6731Z" fill="white" stroke="#404366" stroke-width="0.75" stroke-linecap="round" stroke-linejoin="round"/>
<path d="M23.2628 28.6731C23.8238 28.6731 24.2785 28.2183 24.2785 27.6573C24.2785 27.0964 23.8238 26.6416 23.2628 26.6416C22.7018 26.6416 22.2471 27.0964 22.2471 27.6573C22.2471 28.2183 22.7018 28.6731 23.2628 28.6731Z" fill="white" stroke="#404366" stroke-width="0.75" stroke-linecap="round" stroke-linejoin="round"/>
<path d="M13.3862 26.4521H11.2305" stroke="#404366" stroke-width="0.75" stroke-linecap="round" stroke-linejoin="round"/>
<path d="M12.738 27.4736H9.96094" stroke="#404366" stroke-width="0.75" stroke-linecap="round" stroke-linejoin="round"/>
<path d="M5.69849 8.14769V4.61426" stroke="#404366" stroke-width="0.75" stroke-linecap="round" stroke-linejoin="round"/>
<path d="M8.7561 8.14769V4.61426" stroke="#404366" stroke-width="0.75" stroke-linecap="round" stroke-linejoin="round"/>
<path d="M6.81641 8.14761V2.46387V8.14761Z" fill="white"/>
<path d="M6.81641 8.14761V2.46387" stroke="#404366" stroke-width="0.75" stroke-linecap="round" stroke-linejoin="round"/>
<path d="M7.78882 6.68374V1V6.68374Z" fill="white"/>
<path d="M7.78882 6.68374V1" stroke="#404366" stroke-width="0.75" stroke-linecap="round" stroke-linejoin="round"/>
<path d="M22.0775 6.85516L14.4902 14.4424L15.9534 15.9056L23.5407 8.31835L22.0775 6.85516Z" fill="#404366"/>
<path d="M7.58723 22.9489L0 30.5361L1.4632 31.9993L9.05042 24.4121L7.58723 22.9489Z" fill="#404366"/>
</svg>
