<svg width="123" height="42" viewBox="0 0 123 42" fill="none" xmlns="http://www.w3.org/2000/svg">
<path d="M23.46 9.74023L20.3599 10.2003L14.6899 20.2402L20.3599 30.2502L23.46 30.7302L17.4199 20.2402L23.46 9.74023Z" fill="#FFA506"/>
<path d="M31.3901 9.74023L34.5001 10.2003L40.1601 20.2402L34.5001 30.2502L31.3901 30.7302L37.4201 20.2402L31.3901 9.74023Z" fill="#FFA506"/>
<path d="M23.46 9.74023L27.4199 9.28027V20.2402H17.4199L23.46 9.74023Z" fill="#FCF8F2"/>
<path d="M23.46 30.7302L27.4199 31.1702V20.2402H17.4199L23.46 30.7302Z" fill="#FCEFD9"/>
<path d="M31.39 30.7302L27.4199 31.1702V20.2402H37.4199L31.39 30.7302Z" fill="#FCE0B4"/>
<path d="M31.39 9.74023L27.4199 9.28027V20.2402H37.4199L31.39 9.74023Z" fill="#FCF4E6"/>
<path d="M45.6799 18.6398V11.8398H50.08V12.9998H47.08V14.5898H49.4999V15.7698H47.08V17.3998H50.08V18.5998L45.6799 18.6398Z" fill="black"/>
<path d="M55.31 11.6401V18.6401H54V18.4301C53.6251 18.6259 53.2124 18.7384 52.79 18.7601C52.5041 18.7914 52.2149 18.7501 51.9492 18.64C51.6836 18.5298 51.45 18.3545 51.27 18.1301C50.9341 17.5199 50.7846 16.8245 50.84 16.1301C50.7762 15.4233 50.96 14.7163 51.36 14.1301C51.5522 13.9126 51.7921 13.7425 52.0611 13.6332C52.33 13.5239 52.6205 13.4783 52.91 13.5001C53.2086 13.5128 53.506 13.5462 53.8 13.6001H53.99V11.6001L55.31 11.6401ZM53.83 17.4401H53.97V14.8101C53.6399 14.75 53.3055 14.7166 52.97 14.7101C52.43 14.7101 52.16 15.1901 52.16 16.1501C52.1342 16.529 52.1958 16.9088 52.34 17.2601C52.3976 17.3671 52.4848 17.4552 52.5913 17.5137C52.6977 17.5723 52.8188 17.5989 52.94 17.5901C53.2419 17.5789 53.5411 17.5284 53.83 17.4401Z" fill="black"/>
<path d="M59.5001 13.6401H60.8401V18.6401H59.5101V18.3601C59.1338 18.5965 58.7038 18.7341 58.2601 18.7601C57.9974 18.7945 57.7302 18.76 57.4848 18.6601C57.2394 18.5602 57.0241 18.3982 56.8601 18.1901C56.5753 17.5887 56.4513 16.9238 56.5001 16.2601V13.6401H57.8401V16.2802C57.8196 16.618 57.8602 16.9568 57.9601 17.2802C58.0401 17.4602 58.2301 17.5501 58.5401 17.5501C58.823 17.5549 59.1044 17.5074 59.3701 17.4101H59.5001V13.6401Z" fill="black"/>
<path d="M63.9999 13.5198C64.4471 13.5346 64.8921 13.5881 65.33 13.6798L65.5999 13.7398V14.7998C65.0699 14.7998 64.6799 14.7198 64.4299 14.7198C64.2654 14.6971 64.0979 14.7124 63.9402 14.7644C63.7825 14.8164 63.6388 14.9038 63.52 15.0198C63.3339 15.3584 63.2537 15.7451 63.2899 16.1298C63.254 16.5209 63.334 16.9139 63.52 17.2598C63.6403 17.3766 63.7857 17.4644 63.9452 17.5164C64.1046 17.5684 64.2739 17.5832 64.4399 17.5598L65.5999 17.4798V18.5498C65.0639 18.6682 64.5184 18.7385 63.9699 18.7598C63.6749 18.7876 63.3775 18.746 63.1014 18.6383C62.8254 18.5307 62.5783 18.36 62.3799 18.1398C62.0048 17.5436 61.8329 16.8419 61.8899 16.1398C61.8291 15.4361 62.0051 14.7321 62.3899 14.1398C62.595 13.9229 62.846 13.7545 63.1246 13.6473C63.4032 13.54 63.7023 13.4964 63.9999 13.5198Z" fill="black"/>
<path d="M70.37 15.2V17.28C70.3713 17.3979 70.3986 17.5139 70.45 17.62C70.4804 17.6578 70.5183 17.6889 70.5613 17.7112C70.6043 17.7336 70.6516 17.7468 70.7 17.75V18.75C70.4282 18.758 70.1564 18.7345 69.89 18.68C69.6667 18.6291 69.4558 18.5339 69.27 18.4C68.8144 18.6309 68.3107 18.7508 67.8 18.75C66.8 18.75 66.25 18.21 66.25 17.11C66.2273 16.9011 66.2544 16.6897 66.3291 16.4933C66.4039 16.2969 66.5241 16.121 66.68 15.98C67.0706 15.7187 67.53 15.5795 68 15.58L69.07 15.5V15.19C69.0783 15.114 69.0701 15.0372 69.0459 14.9647C69.0218 14.8922 68.9822 14.8258 68.93 14.77C68.7991 14.6775 68.6395 14.6349 68.48 14.65L66.5999 14.73V13.8C67.2514 13.6181 67.9236 13.5207 68.5999 13.51C69.097 13.4653 69.5928 13.6079 69.99 13.91C70.1367 14.0885 70.246 14.2947 70.3113 14.5163C70.3765 14.7379 70.3965 14.9705 70.37 15.2ZM68.12 16.52C68.0425 16.5183 67.9655 16.5329 67.8941 16.563C67.8227 16.5931 67.7585 16.6379 67.7056 16.6946C67.6527 16.7512 67.6124 16.8184 67.5873 16.8917C67.5622 16.965 67.5529 17.0428 67.56 17.12C67.56 17.49 67.72 17.67 68.05 17.67C68.3306 17.6659 68.6096 17.6256 68.88 17.55H69.03V16.48L68.12 16.52Z" fill="black"/>
<path d="M74.42 14.78H73.19V16.83C73.1822 16.9732 73.1822 17.1168 73.19 17.26C73.1974 17.3418 73.2369 17.4173 73.3 17.47C73.3811 17.5369 73.4853 17.5693 73.59 17.56H74.35L74.41 18.63C74.0824 18.7126 73.7474 18.7629 73.41 18.78C73.1882 18.8079 72.9629 18.7865 72.7503 18.7173C72.5377 18.6482 72.343 18.533 72.18 18.38C71.9134 17.9278 71.7978 17.4024 71.85 16.88V14.8H71.26V13.66H71.85V12.27H73.19V13.66H74.42V14.78Z" fill="black"/>
<path d="M75.29 13.0001V11.6401H76.6301V13.0001H75.29ZM75.29 18.6401V13.6401H76.6301V18.6401H75.29Z" fill="black"/>
<path d="M78.1399 14.2098C78.623 13.7671 79.2545 13.5215 79.9098 13.5215C80.5651 13.5215 81.1967 13.7671 81.6798 14.2098C82.0636 14.7737 82.25 15.4488 82.2099 16.1298C82.2099 17.8898 81.4398 18.7598 79.9098 18.7598C78.3798 18.7598 77.6098 17.8898 77.6098 16.1298C77.5697 15.4488 77.7561 14.7737 78.1399 14.2098ZM79.1399 17.2098C79.2149 17.3328 79.3234 17.432 79.4526 17.4957C79.5819 17.5595 79.7266 17.5851 79.8698 17.5698C80.0144 17.5835 80.1599 17.5572 80.2904 17.4937C80.421 17.4302 80.5315 17.332 80.6098 17.2098C80.8769 16.4835 80.8769 15.686 80.6098 14.9598C80.5294 14.8402 80.4183 14.7445 80.288 14.6829C80.1577 14.6213 80.0133 14.596 79.8698 14.6097C79.7277 14.5945 79.584 14.6193 79.4551 14.6811C79.3262 14.7429 79.2171 14.8394 79.1399 14.9598C78.86 15.6837 78.86 16.4859 79.1399 17.2098Z" fill="black"/>
<path d="M84.53 18.6399H83.1899V13.6399H84.52V13.9199C84.8948 13.6802 85.3256 13.5424 85.77 13.5199C86.0315 13.4894 86.2964 13.5278 86.5385 13.6313C86.7805 13.7348 86.9913 13.8998 87.15 14.1099C87.4393 14.6709 87.5707 15.3 87.53 15.9299V18.6399H86.1899V15.9999C86.2045 15.6564 86.1395 15.3141 85.9999 14.9999C85.9437 14.893 85.856 14.806 85.7487 14.7506C85.6414 14.6951 85.5197 14.674 85.4 14.6899C85.1306 14.691 84.8633 14.7383 84.6099 14.8299H84.4899L84.53 18.6399Z" fill="black"/>
<path d="M92.5001 14.7799V18.6399H91.1601V14.7799H90.6201V13.6399H91.1601V13.4199C91.1137 12.9023 91.2252 12.3828 91.4801 11.9299C91.626 11.7787 91.8046 11.6632 92.0023 11.5921C92.2 11.521 92.4114 11.4963 92.6201 11.5199C92.9321 11.5307 93.2429 11.5641 93.5501 11.6199H93.7601V12.7099H93.0201C92.9455 12.7019 92.87 12.7123 92.8002 12.7402C92.7305 12.7681 92.6687 12.8126 92.6201 12.8699C92.5386 13.0411 92.5041 13.2309 92.5201 13.4199V13.6299H93.7301V14.7699L92.5001 14.7799Z" fill="black"/>
<path d="M94.7199 14.2098C95.203 13.7671 95.8346 13.5215 96.4899 13.5215C97.1452 13.5215 97.7768 13.7671 98.2599 14.2098C98.6437 14.7737 98.83 15.4488 98.7899 16.1298C98.7899 17.8898 98.0199 18.7598 96.4899 18.7598C94.9599 18.7598 94.1899 17.8898 94.1899 16.1298C94.1498 15.4488 94.3361 14.7737 94.7199 14.2098ZM95.7199 17.2098C95.7982 17.332 95.9088 17.4302 96.0393 17.4937C96.1699 17.5572 96.3154 17.5835 96.4599 17.5698C96.6032 17.5851 96.7479 17.5595 96.8772 17.4957C97.0064 17.432 97.1149 17.3328 97.1899 17.2098C97.4698 16.4859 97.4698 15.6837 97.1899 14.9598C97.1127 14.8394 97.0035 14.7429 96.8746 14.6811C96.7457 14.6193 96.6021 14.5945 96.4599 14.6097C96.3165 14.596 96.172 14.6213 96.0418 14.6829C95.9115 14.7445 95.8003 14.8402 95.7199 14.9598C95.4529 15.686 95.4529 16.4835 95.7199 17.2098Z" fill="black"/>
<path d="M99.77 18.64V13.64H101.1V14.17C101.593 13.8646 102.134 13.6449 102.7 13.52V14.87C102.16 14.99 101.7 15.1 101.31 15.22L101.11 15.29V18.64H99.77Z" fill="black"/>
<path d="M47.0599 27.2603V29.5402H45.6799V22.7402H48.3199C49.9199 22.7402 50.7199 23.4802 50.7199 24.9802C50.7527 25.3732 50.6768 25.7677 50.5004 26.1205C50.3241 26.4732 50.054 26.7706 49.7199 26.9802L50.7199 29.5803H49.21L48.4199 27.3002L47.0599 27.2603ZM49.0599 25.7803C49.2278 25.5521 49.3125 25.2733 49.2999 24.9902C49.3171 24.7081 49.2279 24.4299 49.0499 24.2103C48.9561 24.1097 48.841 24.0314 48.7129 23.9812C48.5848 23.931 48.4471 23.9102 48.3099 23.9202H47.0499V26.0803H48.33C48.4683 26.093 48.6076 26.0723 48.7364 26.0201C48.8651 25.9679 48.9795 25.8857 49.0699 25.7803H49.0599Z" fill="black"/>
<path d="M52 25.1002C52.4852 24.6617 53.116 24.4189 53.77 24.4189C54.424 24.4189 55.0547 24.6617 55.5399 25.1002C55.8928 25.6679 56.0541 26.3339 56 27.0002C56 28.7502 55.23 29.6302 53.7 29.6302C52.17 29.6302 51.4 28.7502 51.4 27.0002C51.3869 26.3183 51.5977 25.6509 52 25.1002ZM53 28.1602C53.075 28.2832 53.1835 28.3824 53.3127 28.4462C53.442 28.5099 53.5866 28.5356 53.7299 28.5202C53.8745 28.534 54.02 28.5077 54.1505 28.4442C54.2811 28.3806 54.3916 28.2824 54.4699 28.1602C54.624 27.8043 54.6925 27.4173 54.6699 27.0302C54.6952 26.6462 54.6265 26.2617 54.4699 25.9102C54.3911 25.789 54.2802 25.6921 54.1496 25.6303C54.0189 25.5685 53.8736 25.5442 53.7299 25.5602C53.5876 25.5438 53.4436 25.568 53.3145 25.6299C53.1853 25.6918 53.0763 25.789 53 25.9102C52.8346 26.2591 52.7622 26.645 52.7899 27.0302C52.7645 27.4185 52.8367 27.8069 53 28.1602Z" fill="black"/>
<path d="M58.34 29.5401H57V24.5401H58.33V24.8202C58.6817 24.5861 59.0885 24.4482 59.51 24.4202C59.7399 24.4038 59.9707 24.4374 60.1864 24.5185C60.4021 24.5997 60.5978 24.7264 60.76 24.8902C61.2736 24.5997 61.8502 24.4383 62.44 24.4202C62.6994 24.3913 62.9619 24.4284 63.2032 24.5281C63.4444 24.6277 63.6566 24.7866 63.82 24.9902C64.114 25.5567 64.2455 26.1935 64.2 26.8302V29.5401H62.86V26.8702C62.883 26.5307 62.8353 26.1902 62.72 25.8702C62.6691 25.7684 62.588 25.6849 62.4877 25.6311C62.3874 25.5774 62.2729 25.5561 62.16 25.5702C61.8943 25.5764 61.6312 25.6236 61.38 25.7102H61.23C61.23 26.2102 61.23 26.5901 61.23 26.8501V29.4402H59.89V27.0002C59.9124 26.6451 59.8683 26.289 59.76 25.9502C59.7074 25.8476 59.6245 25.7637 59.5225 25.71C59.4204 25.6563 59.3043 25.6354 59.19 25.6502C58.9267 25.6472 58.6653 25.6947 58.42 25.7901H58.3L58.34 29.5401Z" fill="black"/>
<path d="M69.2201 26.0999V28.1799C69.2197 28.2948 69.2471 28.408 69.3001 28.51C69.3626 28.5866 69.452 28.6367 69.5501 28.65V29.65C69.2785 29.6529 69.0072 29.6295 68.7401 29.58C68.5182 29.5249 68.3081 29.43 68.1201 29.2999C67.6629 29.5264 67.1603 29.6461 66.6501 29.65C65.6501 29.65 65.1001 29.1 65.1001 28.01C65.0766 27.7995 65.1033 27.5864 65.178 27.3882C65.2528 27.1901 65.3735 27.0125 65.5301 26.8699C65.9241 26.617 66.3819 26.4817 66.8501 26.4799L67.9201 26.4V26.09C67.9286 26.0125 67.9205 25.934 67.8963 25.8599C67.8722 25.7857 67.8326 25.7176 67.7801 25.6599C67.6476 25.5717 67.4884 25.5328 67.3301 25.5499L65.4501 25.6299V24.7C66.1006 24.5134 66.7734 24.4158 67.4501 24.4099C67.9471 24.3652 68.4429 24.5079 68.8401 24.8099C68.9889 24.9872 69.0995 25.1933 69.1648 25.4153C69.2302 25.6373 69.249 25.8703 69.2201 26.0999ZM67.0001 27.4199C66.9222 27.4165 66.8444 27.4301 66.7723 27.4596C66.7001 27.4891 66.6352 27.534 66.582 27.591C66.5287 27.648 66.4885 27.7159 66.464 27.7899C66.4395 27.864 66.4314 27.9425 66.4401 28.02C66.4401 28.38 66.6001 28.5699 66.9301 28.5699C67.2108 28.5659 67.4898 28.5255 67.7601 28.45H67.9101V27.3799L67.0001 27.4199Z" fill="black"/>
<path d="M71.84 29.5401H70.5V24.5401H71.83V24.8201C72.2028 24.576 72.6348 24.4378 73.08 24.4201C73.3417 24.3875 73.6073 24.425 73.8497 24.5287C74.0922 24.6323 74.3028 24.7985 74.46 25.0101C74.7509 25.5706 74.8823 26.2001 74.84 26.8301V29.5401H73.5V26.8701C73.5265 26.5297 73.4752 26.1877 73.35 25.8701C73.2912 25.766 73.2027 25.6819 73.0958 25.6284C72.9889 25.575 72.8685 25.5547 72.75 25.5701C72.4802 25.5661 72.212 25.6136 71.96 25.7101H71.84V29.5401Z" fill="black"/>
<path d="M76 23.9001V22.54H77.34V23.9001H76ZM76 29.54V24.54H77.34V29.54H76Z" fill="black"/>
<path d="M82.44 26.0999V28.1799C82.4396 28.2948 82.4671 28.408 82.5201 28.51C82.5826 28.5866 82.672 28.6367 82.7701 28.65V29.65C82.4984 29.6529 82.2272 29.6295 81.9601 29.58C81.7382 29.5249 81.5281 29.43 81.3401 29.2999C80.8829 29.5264 80.3802 29.6461 79.87 29.65C78.87 29.65 78.3201 29.1 78.3201 28.01C78.2965 27.7995 78.3232 27.5864 78.398 27.3882C78.4727 27.1901 78.5934 27.0125 78.75 26.8699C79.144 26.617 79.6019 26.4817 80.0701 26.4799L81.1401 26.4V26.09C81.1485 26.0125 81.1404 25.934 81.1163 25.8599C81.0921 25.7857 81.0525 25.7176 81 25.6599C80.8675 25.5717 80.7083 25.5328 80.55 25.5499L78.67 25.6299V24.7C79.3205 24.5134 79.9933 24.4158 80.67 24.4099C81.167 24.3652 81.6628 24.5079 82.06 24.8099C82.2088 24.9872 82.3194 25.1933 82.3848 25.4153C82.4501 25.6373 82.469 25.8703 82.44 26.0999ZM80.19 27.4199C80.1121 27.4165 80.0344 27.4301 79.9622 27.4596C79.89 27.4891 79.8251 27.534 79.7719 27.591C79.7187 27.648 79.6784 27.7159 79.6539 27.7899C79.6294 27.864 79.6213 27.9425 79.6301 28.02C79.6301 28.38 79.79 28.5699 80.12 28.5699C80.4007 28.5659 80.6797 28.5255 80.9501 28.45H81.1V27.3799L80.19 27.4199Z" fill="black"/>
<path d="M102.01 1.96973H20.7301C10.1649 1.96973 1.6001 10.5345 1.6001 21.0997V21.1097C1.6001 31.6749 10.1649 40.2397 20.7301 40.2397H102.01C112.575 40.2397 121.14 31.6749 121.14 21.1097V21.0997C121.14 10.5345 112.575 1.96973 102.01 1.96973Z" stroke="#FFA506" stroke-width="2.17" stroke-linecap="round" stroke-linejoin="round"/>
</svg>
