<svg width="27" height="23" viewBox="0 0 27 23" fill="none" xmlns="http://www.w3.org/2000/svg">
<path d="M9.45996 0.740234L6.35992 1.20026L0.689941 11.2402L6.35992 21.2502L9.45996 21.7302L3.41992 11.2402L9.45996 0.740234Z" fill="#FFA506"/>
<path d="M17.3901 0.740234L20.5001 1.20026L26.1601 11.2402L20.5001 21.2502L17.3901 21.7302L23.4201 11.2402L17.3901 0.740234Z" fill="#FFA506"/>
<path d="M9.45996 0.740234L13.4199 0.280273V11.2402H3.41992L9.45996 0.740234Z" fill="#FCF8F2"/>
<path d="M9.45996 21.7302L13.4199 22.1702V11.2402H3.41992L9.45996 21.7302Z" fill="#FCEFD9"/>
<path d="M17.39 21.7302L13.4199 22.1702V11.2402H23.4199L17.39 21.7302Z" fill="#FCE0B4"/>
<path d="M17.39 0.740234L13.4199 0.280273V11.2402H23.4199L17.39 0.740234Z" fill="#FCF4E6"/>
</svg>
