<svg width="38" height="32" viewBox="0 0 38 32" fill="none" xmlns="http://www.w3.org/2000/svg">
<path d="M13.0215 1.28027L8.51185 1.93632L0.304565 16.2553L8.51185 30.5458L13.0215 31.2161L4.2487 16.2553L13.0215 1.28027Z" fill="#FFA506"/>
<path d="M24.5203 1.28027L29.0155 1.93632L37.2228 16.2553L29.0155 30.5458L24.5203 31.2161L33.2641 16.2553L24.5203 1.28027Z" fill="#FFA506"/>
<path d="M13.0215 1.28046L18.7637 0.638672V16.2555H4.24866L13.0215 1.28046Z" fill="#FCF8F2"/>
<path d="M13.0215 31.2156L18.7637 31.8432V16.2549H4.24866L13.0215 31.2156Z" fill="#FCEFD9"/>
<path d="M24.5204 31.2156L18.7637 31.8432V16.2549H33.2642L24.5204 31.2156Z" fill="#FCE0B4"/>
<path d="M24.5204 1.28046L18.7637 0.638672V16.2555H33.2642L24.5204 1.28046Z" fill="#FCF4E6"/>
</svg>
