<svg width="44" height="28" viewBox="0 0 44 28" fill="none" xmlns="http://www.w3.org/2000/svg">
<path d="M1 27.3105H43" stroke="#404366" stroke-width="0.75" stroke-linecap="round" stroke-linejoin="round"/>
<path d="M36.2818 27.3111V13.7062H29.4737V10.4706H23.9632V1H13.9365V27.3111C13.9365 27.3111 12.6333 25.1091 8.92029 23.6599C6.37679 22.7527 3.70027 22.2744 1 22.2443" stroke="#404366" stroke-width="0.75" stroke-linecap="round" stroke-linejoin="round"/>
<path d="M25.1091 3.76855H33.344V13.683" stroke="#404366" stroke-width="0.75" stroke-linecap="round" stroke-linejoin="round"/>
<path d="M4.77441 22.5753V20.0419H8.63907V7.10547H12.2622" stroke="#404366" stroke-width="0.75" stroke-linecap="round" stroke-linejoin="round"/>
<path d="M15.762 3.76855H21.6095" stroke="#404366" stroke-width="0.75" stroke-linecap="round" stroke-linejoin="round"/>
<path d="M15.762 6.85156H21.6095" stroke="#404366" stroke-width="0.75" stroke-linecap="round" stroke-linejoin="round"/>
<path d="M15.762 9.93652H21.6095" stroke="#404366" stroke-width="0.75" stroke-linecap="round" stroke-linejoin="round"/>
<path d="M36.3545 16.1828C36.7851 15.7765 37.3262 15.5063 37.9099 15.4064C38.4935 15.3065 39.0936 15.3812 39.635 15.6211C40.1809 15.8773 40.6383 16.2901 40.9489 16.8071C41.2595 17.324 41.4092 17.9217 41.3791 18.524C41.349 19.1263 41.1404 19.706 40.7798 20.1894C40.4191 20.6728 39.9229 21.0379 39.3541 21.2383C39.8152 21.2069 40.2704 21.356 40.6236 21.654C40.8076 21.8028 40.9542 21.9925 41.0517 22.2081C41.1492 22.4236 41.195 22.659 41.1853 22.8954C41.1773 23.0245 41.1488 23.1516 41.101 23.2718C41.0107 23.4811 40.8609 23.6593 40.6701 23.7841C40.4794 23.909 40.2561 23.975 40.0282 23.9739H36.3601" stroke="#404366" stroke-width="0.75" stroke-linecap="round" stroke-linejoin="round"/>
<path d="M37.7085 18.6875L37.8602 27.1527" stroke="#404366" stroke-width="0.75" stroke-linecap="round" stroke-linejoin="round"/>
<path d="M8.52148 13.0265C8.38316 12.852 8.20731 12.7109 8.00698 12.6136C7.80666 12.5164 7.58701 12.4655 7.36434 12.4647C6.95399 12.4393 6.54279 12.4984 6.15627 12.6386C5.76975 12.7787 5.41615 12.9967 5.11745 13.2792C4.81579 13.5703 4.57617 13.9195 4.41302 14.3056C4.24987 14.6918 4.16657 15.1069 4.16813 15.5261C3.85517 15.4479 3.52707 15.454 3.21724 15.5438C2.9074 15.6336 2.6269 15.804 2.40428 16.0374C2.18167 16.2709 2.02489 16.5592 1.9499 16.8729C1.87492 17.1867 1.88441 17.5147 1.97742 17.8236C2.07564 18.1279 2.2535 18.4003 2.49253 18.6127C2.73156 18.825 3.02306 18.9696 3.33678 19.0313C3.00195 19.1074 2.69144 19.266 2.43345 19.4926C2.17546 19.7192 1.97815 20.0067 1.85945 20.3289C1.75228 20.6554 1.72799 21.0035 1.78878 21.3418C1.84958 21.6801 1.99354 21.998 2.20772 22.2668" stroke="#404366" stroke-width="0.75" stroke-linecap="round" stroke-linejoin="round"/>
<path d="M19.211 27.3122C21.212 27.3122 22.8341 25.6624 22.8341 23.6273C22.8341 21.5922 21.212 19.9424 19.211 19.9424C17.21 19.9424 15.5879 21.5922 15.5879 23.6273C15.5879 25.6624 17.21 27.3122 19.211 27.3122Z" stroke="#404366" stroke-width="0.75" stroke-linecap="round" stroke-linejoin="round"/>
<path d="M31.0071 27.3122C33.0081 27.3122 34.6303 25.6624 34.6303 23.6273C34.6303 21.5922 33.0081 19.9424 31.0071 19.9424C29.0062 19.9424 27.384 21.5922 27.384 23.6273C27.384 25.6624 29.0062 27.3122 31.0071 27.3122Z" stroke="#404366" stroke-width="0.75" stroke-linecap="round" stroke-linejoin="round"/>
<path d="M19.2109 23.6267C19.8333 23.1864 20.3993 22.6714 20.8961 22.0932C21.1917 21.7069 21.4494 21.2931 21.6657 20.8574C21.9736 20.2439 22.1333 19.5666 22.1319 18.8801V17.5264H20.4973C20.3189 17.5292 20.1485 17.601 20.0218 17.7266C19.8951 17.8523 19.8219 18.0221 19.8176 18.2004V18.2004C19.8169 18.2904 19.8339 18.3797 19.8676 18.4631C19.9014 18.5465 19.9512 18.6225 20.0143 18.6867C20.0775 18.7508 20.1526 18.8019 20.2355 18.837C20.3183 18.8722 20.4073 18.8906 20.4973 18.8914H21.059" stroke="#404366" stroke-width="0.75" stroke-linecap="round" stroke-linejoin="round"/>
<path d="M22.1152 18.4648H28.1875L25.5586 23.6271L22.1152 18.4648Z" stroke="#404366" stroke-width="0.75" stroke-linecap="round" stroke-linejoin="round"/>
<path d="M28.1879 18.4648L31.0078 23.6271H25.5591" stroke="#404366" stroke-width="0.75" stroke-linecap="round" stroke-linejoin="round"/>
<path d="M27.0471 17.1895H29.1648" stroke="#404366" stroke-width="0.75" stroke-linecap="round" stroke-linejoin="round"/>
</svg>
