<svg width="29" height="27" viewBox="0 0 29 27" fill="none" xmlns="http://www.w3.org/2000/svg">
<path d="M14.7975 21.7178V23.298C14.7994 23.6676 14.6821 24.0279 14.4632 24.3257C14.2443 24.6235 13.9352 24.8428 13.5819 24.9512L9.45508 26.1667" stroke="#404366" stroke-width="0.6875" stroke-linecap="round" stroke-linejoin="round"/>
<path d="M25.391 9.17327C25.4542 9.59784 25.4867 10.0264 25.4882 10.4557V13.6405C25.4898 14.7443 25.274 15.8376 24.853 16.8581C24.4321 17.8785 23.8143 18.806 23.0349 19.5877C22.2554 20.3693 21.3297 20.9898 20.3105 21.4137C19.2913 21.8376 18.1986 22.0566 17.0947 22.0582V22.0582C15.9886 22.0598 14.8929 21.8432 13.8706 21.4208C12.8482 20.9984 11.9192 20.3786 11.1368 19.5967C10.3543 18.8148 9.73375 17.8862 9.31062 16.8642C8.88749 15.8421 8.6701 14.7466 8.6709 13.6405V10.4557C8.66912 8.63307 9.26238 6.85969 10.3605 5.40503" stroke="#404366" stroke-width="0.6875" stroke-linecap="round" stroke-linejoin="round"/>
<path d="M7.37012 16.8737V8.8206C7.37012 7.72742 7.58553 6.64496 8.00406 5.63507C8.42259 4.62518 9.03601 3.70767 9.80929 2.93495C10.5826 2.16224 11.5005 1.54948 12.5107 1.1317C13.5209 0.713909 14.6035 0.499281 15.6967 0.50008H18.4621C19.5578 0.495278 20.6437 0.70695 21.6574 1.12294C22.6711 1.53894 23.5927 2.15106 24.3692 2.92417C25.1457 3.69728 25.7618 4.61615 26.1823 5.62803C26.6027 6.63991 26.8191 7.72486 26.8191 8.8206V23.7842" stroke="#404366" stroke-width="0.6875" stroke-linecap="round" stroke-linejoin="round"/>
<path d="M10.1367 5.22266C10.1367 5.22266 15.2603 9.05168 25.7749 9.05168" stroke="#404366" stroke-width="0.6875" stroke-linecap="round" stroke-linejoin="round"/>
<path d="M15.3448 11.0635C15.3448 11.3988 15.2116 11.7203 14.9745 11.9574C14.7374 12.1945 14.4159 12.3277 14.0806 12.3277C13.7453 12.3277 13.4238 12.1945 13.1867 11.9574C12.9496 11.7203 12.8164 11.3988 12.8164 11.0635" stroke="#404366" stroke-width="0.6875" stroke-linecap="round" stroke-linejoin="round"/>
<path d="M20.8272 11.0635C20.8272 11.3988 20.694 11.7203 20.4569 11.9574C20.2198 12.1945 19.8983 12.3277 19.563 12.3277C19.2277 12.3277 18.9062 12.1945 18.6691 11.9574C18.432 11.7203 18.2988 11.3988 18.2988 11.0635" stroke="#404366" stroke-width="0.6875" stroke-linecap="round" stroke-linejoin="round"/>
<path d="M23.5802 16.5453C23.6319 16.6642 23.6588 16.7924 23.6593 16.9221C23.6597 17.1031 23.6069 17.2802 23.5075 17.4315C23.4081 17.5828 23.2664 17.7015 23.1001 17.773C22.9178 17.852 22.705 17.9431 22.4923 18.0282C22.6266 18.0656 22.7509 18.1324 22.856 18.2239C22.9612 18.3154 23.0446 18.4292 23.1001 18.557C23.1549 18.6752 23.1839 18.8036 23.1852 18.9338C23.1843 19.1153 23.1303 19.2926 23.0299 19.4438C22.9294 19.595 22.7869 19.7135 22.62 19.7847L22.2614 19.9367V19.9974C22.2618 20.1785 22.209 20.3556 22.1096 20.5069C22.0102 20.6581 21.8685 20.7769 21.7022 20.8483C20.5353 21.3528 18.3837 22.2645 16.4935 22.1611L13.2054 22.149C13.017 22.1557 12.8305 22.1906 12.6523 22.2523L7.7354 24.021C7.7354 24.021 5.21311 17.3354 5.20703 17.3354L11.3335 16.217L12.1418 15.0501C12.4035 14.6659 12.7971 14.3913 13.248 14.2782L18.0494 13.0627C18.1749 13.0303 18.3061 13.027 18.433 13.053C18.56 13.079 18.6793 13.1337 18.7819 13.2128C18.8845 13.292 18.9677 13.3935 19.0251 13.5097C19.0824 13.6258 19.1125 13.7536 19.1131 13.8832C19.114 14.0449 19.0676 14.2034 18.9793 14.339L18.6147 14.9954C19.7465 14.8902 20.867 14.6869 21.9635 14.3876L22.5713 14.1931C22.7911 14.1172 23.0315 14.127 23.2444 14.2205C23.4574 14.314 23.6272 14.4844 23.72 14.6976C23.7722 14.8142 23.7992 14.9406 23.799 15.0683C23.7991 15.25 23.7462 15.4278 23.6469 15.58C23.5477 15.7322 23.4062 15.8522 23.2399 15.9253L22.9421 16.0529C23.0798 16.0788 23.2094 16.1369 23.3203 16.2225C23.4312 16.308 23.5203 16.4186 23.5802 16.5453V16.5453Z" fill="white" stroke="#404366" stroke-width="0.6875" stroke-linecap="round" stroke-linejoin="round"/>
<path d="M17.9893 17.0926C19.6902 17.0717 21.3691 16.7057 22.9244 16.0168" stroke="#404366" stroke-width="0.6875" stroke-linecap="round" stroke-linejoin="round"/>
<path d="M18.6148 14.9897C18.007 15.0566 17.4296 15.0931 16.834 15.1052" stroke="#404366" stroke-width="0.6875" stroke-linecap="round" stroke-linejoin="round"/>
<path d="M22.4739 18.0286C21.0191 18.6491 19.4546 18.9715 17.873 18.9767" stroke="#404366" stroke-width="0.6875" stroke-linecap="round" stroke-linejoin="round"/>
<path d="M22.4744 18.0286H22.4678" stroke="#404366" stroke-width="0.6875" stroke-linecap="round" stroke-linejoin="round"/>
<path d="M17.3926 20.9822C19.0676 20.9685 20.7222 20.6128 22.2548 19.9368" stroke="#404366" stroke-width="0.6875" stroke-linecap="round" stroke-linejoin="round"/>
<path d="M18.615 14.9897L18.6084 14.9964" stroke="#404366" stroke-width="0.6875" stroke-linecap="round" stroke-linejoin="round"/>
<path d="M5.20695 17.3357L0.916016 18.1258L3.60241 25.5164L7.73532 24.0213" stroke="#404366" stroke-width="0.6875" stroke-linecap="round" stroke-linejoin="round"/>
<path d="M4.94723 1.45644L3.94141 2.46191L11.3665 9.88957L12.3723 8.88409L4.94723 1.45644Z" fill="#404366"/>
<path d="M21.1078 17.5948L20.1025 18.6008L27.0586 25.552L28.0639 24.546L21.1078 17.5948Z" fill="#404366"/>
<path d="M19.9824 21.7178V23.298C19.9806 23.6676 20.0978 24.0279 20.3167 24.3257C20.5356 24.6235 20.8447 24.8428 21.198 24.9512L25.3248 26.1667" stroke="#404366" stroke-width="0.6875" stroke-linecap="round" stroke-linejoin="round"/>
</svg>
