<svg width="39" height="26" viewBox="0 0 39 26" fill="none" xmlns="http://www.w3.org/2000/svg">
<path d="M18.9288 2.63184L12.4238 9.15975V13.7396" stroke="#404366" stroke-width="0.75" stroke-linecap="round" stroke-linejoin="round"/>
<path d="M18.9287 2.63184L25.4336 9.04483V13.7396" stroke="#404366" stroke-width="0.75" stroke-linecap="round" stroke-linejoin="round"/>
<path d="M13.9238 9.18856L18.9864 4.12598L24.072 9.21155" stroke="#404366" stroke-width="0.75" stroke-linecap="round" stroke-linejoin="round"/>
<path d="M15.1476 6.40723H5.36719V24.8187" stroke="#404366" stroke-width="0.75" stroke-linecap="round" stroke-linejoin="round"/>
<path d="M32.8179 24.819V12.0332" stroke="#404366" stroke-width="0.75" stroke-linecap="round" stroke-linejoin="round"/>
<path d="M22.7041 6.40723H32.8178V12.033" stroke="#404366" stroke-width="0.75" stroke-linecap="round" stroke-linejoin="round"/>
<path d="M1.23584 24.8193H36.4096" stroke="#404366" stroke-width="0.75" stroke-linecap="round" stroke-linejoin="round"/>
<path d="M25.4341 10.5049H32.8182" stroke="#404366" stroke-width="0.75" stroke-linecap="round" stroke-linejoin="round"/>
<path d="M12.4238 10.5049H5.36719" stroke="#404366" stroke-width="0.75" stroke-linecap="round" stroke-linejoin="round"/>
<path d="M25.4341 11.4697H32.7205" stroke="#404366" stroke-width="0.75" stroke-linecap="round" stroke-linejoin="round"/>
<path d="M12.3318 11.4697H5.36719" stroke="#404366" stroke-width="0.75" stroke-linecap="round" stroke-linejoin="round"/>
<path d="M18.9977 18.4696C18.9104 18.4658 18.8256 18.4392 18.7518 18.3924C18.678 18.3456 18.6178 18.2803 18.5771 18.203C18.5364 18.1257 18.5166 18.039 18.5199 17.9517C18.5231 17.8644 18.5491 17.7794 18.5954 17.7053L20.6067 14.5735C20.6389 14.5133 20.6833 14.4604 20.737 14.4182C20.7907 14.376 20.8526 14.3453 20.9187 14.3282C20.9848 14.3111 21.0538 14.3079 21.1212 14.3188C21.1887 14.3297 21.2531 14.3545 21.3105 14.3916C21.3679 14.4286 21.417 14.4772 21.4546 14.5342C21.4923 14.5911 21.5178 14.6553 21.5294 14.7226C21.541 14.79 21.5385 14.859 21.5221 14.9253C21.5058 14.9916 21.4758 15.0538 21.4341 15.1079L19.4172 18.2397C19.372 18.3101 19.31 18.3679 19.2367 18.4081C19.1634 18.4482 19.0812 18.4694 18.9977 18.4696V18.4696Z" stroke="#404366" stroke-width="0.75" stroke-linecap="round" stroke-linejoin="round"/>
<path d="M15.4349 13.4636C16.3299 13.4636 17.0554 12.7381 17.0554 11.8431C17.0554 10.9482 16.3299 10.2227 15.4349 10.2227C14.54 10.2227 13.8145 10.9482 13.8145 11.8431C13.8145 12.7381 14.54 13.4636 15.4349 13.4636Z" stroke="#404366" stroke-width="0.75" stroke-linecap="round" stroke-linejoin="round"/>
<path d="M13.8148 16.7852L12.7402 19.8825H15.4353" stroke="#404366" stroke-width="0.75" stroke-linecap="round" stroke-linejoin="round"/>
<path d="M17.0498 16.7852L18.1244 19.8825H15.4351" stroke="#404366" stroke-width="0.75" stroke-linecap="round" stroke-linejoin="round"/>
<path d="M15.1422 19.8828H14.1538V23.3939H15.1422V19.8828Z" stroke="#404366" stroke-width="0.75" stroke-linecap="round" stroke-linejoin="round"/>
<path d="M16.8082 19.8828H15.8198V23.3939H16.8082V19.8828Z" stroke="#404366" stroke-width="0.75" stroke-linecap="round" stroke-linejoin="round"/>
<path d="M11.7914 18.4695C11.6958 18.4676 11.6024 18.4398 11.5213 18.3891C11.4116 18.3174 11.3349 18.2051 11.3079 18.0769C11.281 17.9487 11.3061 17.815 11.3777 17.7052L13.4234 14.5734C13.4585 14.5187 13.504 14.4715 13.5574 14.4343C13.6107 14.3972 13.6709 14.371 13.7344 14.3571C13.7979 14.3432 13.8635 14.342 13.9274 14.3535C13.9914 14.365 14.0525 14.3889 14.1072 14.424C14.1619 14.4591 14.2092 14.5046 14.2463 14.558C14.2834 14.6114 14.3097 14.6715 14.3235 14.735C14.3374 14.7985 14.3387 14.8641 14.3272 14.9281C14.3157 14.9921 14.2917 15.0531 14.2566 15.1079L12.2396 18.2396C12.192 18.3142 12.1253 18.3748 12.0466 18.4151C11.9678 18.4555 11.8798 18.4743 11.7914 18.4695Z" fill="white" stroke="#404366" stroke-width="0.75" stroke-linecap="round" stroke-linejoin="round"/>
<path d="M18.998 18.4691C18.9152 18.469 18.8338 18.4479 18.7614 18.4076C18.6891 18.3674 18.6281 18.3095 18.5843 18.2393L16.5615 15.1075C16.5263 15.0528 16.5023 14.9917 16.4907 14.9277C16.4792 14.8637 16.4804 14.7981 16.4943 14.7345C16.5082 14.671 16.5345 14.6109 16.5716 14.5575C16.6088 14.5042 16.6561 14.4587 16.7109 14.4236C16.7654 14.3877 16.8265 14.363 16.8906 14.351C16.9547 14.3391 17.0206 14.3401 17.0844 14.354C17.1481 14.368 17.2084 14.3945 17.2617 14.4321C17.315 14.4697 17.3603 14.5177 17.3948 14.573L19.4175 17.7048C19.487 17.8157 19.5104 17.9494 19.4824 18.0773C19.4545 18.2051 19.3775 18.3169 19.2681 18.3887C19.187 18.4394 19.0937 18.4672 18.998 18.4691Z" fill="white" stroke="#404366" stroke-width="0.75" stroke-linecap="round" stroke-linejoin="round"/>
<path d="M22.641 13.4636C23.536 13.4636 24.2615 12.7381 24.2615 11.8431C24.2615 10.9482 23.536 10.2227 22.641 10.2227C21.746 10.2227 21.0205 10.9482 21.0205 11.8431C21.0205 12.7381 21.746 13.4636 22.641 13.4636Z" stroke="#404366" stroke-width="0.75" stroke-linecap="round" stroke-linejoin="round"/>
<path d="M26.2041 18.4691C26.1213 18.469 26.0399 18.4479 25.9675 18.4076C25.8951 18.3674 25.8341 18.3095 25.7903 18.2393L23.7676 15.1075C23.7324 15.0528 23.7083 14.9917 23.6968 14.9277C23.6853 14.8637 23.6865 14.7981 23.7004 14.7345C23.7142 14.671 23.7405 14.6109 23.7777 14.5575C23.8149 14.5042 23.8622 14.4587 23.917 14.4236C23.9714 14.3877 24.0325 14.363 24.0967 14.351C24.1608 14.3391 24.2267 14.3401 24.2904 14.354C24.3542 14.368 24.4145 14.3945 24.4678 14.4321C24.5211 14.4697 24.5663 14.5177 24.6008 14.573L26.6408 17.7048C26.676 17.7595 26.7 17.8206 26.7116 17.8846C26.7231 17.9486 26.7219 18.0142 26.708 18.0778C26.6941 18.1413 26.6679 18.2014 26.6307 18.2548C26.5935 18.3081 26.5462 18.3536 26.4914 18.3887C26.4057 18.4434 26.3057 18.4714 26.2041 18.4691Z" fill="white" stroke="#404366" stroke-width="0.75" stroke-linecap="round" stroke-linejoin="round"/>
<path d="M24.2557 18.0381H21.0205V19.8827H24.2557V18.0381Z" stroke="#404366" stroke-width="0.75" stroke-linejoin="round"/>
<path d="M22.6411 19.8829V18.8428" stroke="#404366" stroke-width="0.75" stroke-linejoin="round"/>
<path d="M15.1478 23.3945V24.7449H13.1021C13.1004 24.5602 13.1598 24.3801 13.271 24.2326C13.3822 24.085 13.5389 23.9783 13.7169 23.9289C13.7914 23.9059 13.8689 23.8943 13.9468 23.8945V23.3945H15.1478Z" stroke="#404366" stroke-width="0.75" stroke-linecap="round" stroke-linejoin="round"/>
<path d="M15.7856 23.3945V24.7449H17.8314C17.8327 24.5595 17.7725 24.3788 17.6602 24.2311C17.5479 24.0835 17.3899 23.9772 17.2108 23.9289C17.1383 23.9058 17.0627 23.8942 16.9866 23.8945V23.3945H15.7856Z" stroke="#404366" stroke-width="0.75" stroke-linecap="round" stroke-linejoin="round"/>
<path d="M22.3189 19.8828H21.3306V23.3939H22.3189V19.8828Z" stroke="#404366" stroke-width="0.75" stroke-linecap="round" stroke-linejoin="round"/>
<path d="M23.9801 19.8828H22.9917V23.3939H23.9801V19.8828Z" stroke="#404366" stroke-width="0.75" stroke-linecap="round" stroke-linejoin="round"/>
<path d="M22.3187 23.3945V24.7449H20.273C20.2717 24.5595 20.3319 24.3788 20.4441 24.2311C20.5564 24.0835 20.7145 23.9772 20.8936 23.9289C20.966 23.9058 21.0416 23.8942 21.1177 23.8945V23.3945H22.3187Z" stroke="#404366" stroke-width="0.75" stroke-linecap="round" stroke-linejoin="round"/>
<path d="M22.957 23.3945V24.7449H25.0028C25.0044 24.5602 24.945 24.3801 24.8339 24.2326C24.7227 24.085 24.5659 23.9783 24.3879 23.9289C24.3135 23.9059 24.236 23.8943 24.158 23.8945V23.3945H22.957Z" stroke="#404366" stroke-width="0.75" stroke-linecap="round" stroke-linejoin="round"/>
<path d="M17.0497 14.3545H13.8145V16.7852H17.0497V14.3545Z" fill="white" stroke="#404366" stroke-width="0.75" stroke-linecap="round" stroke-linejoin="round"/>
<path d="M24.2557 14.3545H21.0205V18.0379H24.2557V14.3545Z" fill="white" stroke="#404366" stroke-width="0.75" stroke-linecap="round" stroke-linejoin="round"/>
<path d="M5.22935 9.45871C7.56516 9.45871 9.45871 7.56516 9.45871 5.22935C9.45871 2.89355 7.56516 1 5.22935 1C2.89355 1 1 2.89355 1 5.22935C1 7.56516 2.89355 9.45871 5.22935 9.45871Z" fill="white" stroke="#404366" stroke-width="0.75" stroke-linecap="round" stroke-linejoin="round"/>
<path d="M3.08057 4.90205C3.90152 5.49796 4.61969 6.22389 5.20674 7.0512C5.20674 7.0512 7.5053 3.47694 9.71767 2.00586" stroke="#404366" stroke-width="0.75" stroke-linecap="round" stroke-linejoin="round"/>
<path d="M37.8172 15.5207C37.8172 16.047 37.6086 16.5519 37.2369 16.9246C36.8653 17.2973 36.3611 17.5075 35.8347 17.509H35.737C35.648 17.8226 35.4589 18.0984 35.1985 18.2945C34.9381 18.4906 34.6207 18.5962 34.2947 18.595H32.8179V9.22266C33.3092 9.26843 33.7658 9.49578 34.0984 9.86028C34.431 10.2248 34.6158 10.7002 34.6165 11.1937C34.6165 11.2511 34.6165 11.3086 34.6165 11.3603C34.7222 11.3372 34.8301 11.3256 34.9383 11.3258C35.329 11.3274 35.7031 11.4836 35.9789 11.7604C36.2546 12.0372 36.4094 12.412 36.4094 12.8027C36.4113 13.0723 36.3377 13.3371 36.1968 13.5669C36.6517 13.6537 37.0623 13.8962 37.358 14.2527C37.6537 14.6092 37.8161 15.0575 37.8172 15.5207V15.5207Z" stroke="#404366" stroke-width="0.75" stroke-linecap="round" stroke-linejoin="round"/>
</svg>
