<svg width="30" height="32" viewBox="0 0 30 32" fill="none" xmlns="http://www.w3.org/2000/svg">
<path d="M4.99512 31.0472V10.21C4.99512 10.21 9.62365 10.0692 9.48286 10.21C9.34207 10.3508 12.2224 22.4824 12.2224 22.4824L15.8654 19.5492V22.5645L20.2006 19.6314V22.5645L24.354 19.6842V31.0472" stroke="#404366" stroke-width="0.75" stroke-linecap="round" stroke-linejoin="round"/>
<path d="M1 31.0479H29.0528" stroke="#404366" stroke-width="0.75" stroke-linecap="round" stroke-linejoin="round"/>
<path d="M14.9033 29.745V28.5072C14.9032 28.3873 14.9352 28.2697 14.9961 28.1665C15.057 28.0633 15.1445 27.9783 15.2494 27.9205L16.9213 26.9702L17.549 25.7969C17.6875 25.5415 17.8914 25.3276 18.1399 25.1771C18.3883 25.0266 18.6724 24.9449 18.9628 24.9404H21.4267C21.8189 24.9412 22.1977 25.0827 22.4944 25.3393L24.8409 27.3456H25.6035C26.2118 27.3456 26.7953 27.5873 27.2254 28.0174C27.6556 28.4476 27.8972 29.031 27.8972 29.6394V29.745H14.9033Z" fill="white" stroke="#404366" stroke-width="0.75" stroke-linecap="round" stroke-linejoin="round"/>
<path d="M18.212 31.0475C18.8211 31.0475 19.3149 30.5538 19.3149 29.9447C19.3149 29.3356 18.8211 28.8418 18.212 28.8418C17.6029 28.8418 17.1091 29.3356 17.1091 29.9447C17.1091 30.5538 17.6029 31.0475 18.212 31.0475Z" fill="white" stroke="#404366" stroke-width="0.75" stroke-linecap="round" stroke-linejoin="round"/>
<path d="M24.5067 31.0475C25.1158 31.0475 25.6095 30.5538 25.6095 29.9447C25.6095 29.3356 25.1158 28.8418 24.5067 28.8418C23.8976 28.8418 23.4038 29.3356 23.4038 29.9447C23.4038 30.5538 23.8976 31.0475 24.5067 31.0475Z" fill="white" stroke="#404366" stroke-width="0.75" stroke-linecap="round" stroke-linejoin="round"/>
<path d="M13.7889 28.6357H11.4482" stroke="#404366" stroke-width="0.75" stroke-linecap="round" stroke-linejoin="round"/>
<path d="M13.0846 29.7451H10.0693" stroke="#404366" stroke-width="0.75" stroke-linecap="round" stroke-linejoin="round"/>
<path d="M5.44067 8.76041V4.92383" stroke="#404366" stroke-width="0.75" stroke-linecap="round" stroke-linejoin="round"/>
<path d="M8.76123 8.76041V4.92383" stroke="#404366" stroke-width="0.75" stroke-linecap="round" stroke-linejoin="round"/>
<path d="M6.64331 8.76122V2.58984V8.76122Z" fill="white"/>
<path d="M6.64331 8.76122V2.58984" stroke="#404366" stroke-width="0.75" stroke-linecap="round" stroke-linejoin="round"/>
<path d="M7.70557 7.17138V1V7.17138Z" fill="white"/>
<path d="M7.70557 7.17138V1" stroke="#404366" stroke-width="0.75" stroke-linecap="round" stroke-linejoin="round"/>
<path d="M28.5127 8.19802C28.515 9.62472 28.094 11.02 27.3029 12.2073C26.5119 13.3946 25.3863 14.3205 24.0688 14.8679C22.7513 15.4152 21.301 15.5593 19.9015 15.2819C18.502 15.0046 17.2163 14.3183 16.207 13.3099C15.1978 12.3015 14.5104 11.0163 14.2319 9.61702C13.9535 8.21777 14.0964 6.76735 14.6426 5.44937C15.1889 4.13138 16.1139 3.00509 17.3005 2.21306C18.4872 1.42103 19.8821 0.998879 21.3088 1.00004C22.2552 0.996943 23.1929 1.18097 24.0679 1.54153C24.943 1.9021 25.7381 2.43208 26.4076 3.10102C27.077 3.76995 27.6077 4.56464 27.9689 5.43937C28.3302 6.3141 28.515 7.25162 28.5127 8.19802Z" stroke="#404366" stroke-width="0.75" stroke-linecap="round" stroke-linejoin="round"/>
<path d="M21.3095 14.3221C24.6919 14.3221 27.434 11.5801 27.434 8.19769C27.434 4.81525 24.6919 2.07324 21.3095 2.07324C17.9271 2.07324 15.1851 4.81525 15.1851 8.19769C15.1851 11.5801 17.9271 14.3221 21.3095 14.3221Z" stroke="#404366" stroke-width="0.75" stroke-linecap="round" stroke-linejoin="round"/>
<path d="M29.5924 21.4557C29.4983 21.5175 29.3928 21.5596 29.2821 21.5795C29.1713 21.5994 29.0577 21.5966 28.9481 21.5714C28.8384 21.5462 28.735 21.499 28.6441 21.4327C28.5532 21.3665 28.4767 21.2825 28.4191 21.1858L24.7937 15.2843V15.255C25.2929 15.0003 25.7698 14.7039 26.2192 14.3691V14.4043L29.8622 20.2707C29.9243 20.3656 29.9666 20.4721 29.9866 20.5837C30.0066 20.6953 30.004 20.8099 29.9788 20.9204C29.9536 21.031 29.9064 21.1354 29.84 21.2274C29.7736 21.3193 29.6894 21.397 29.5924 21.4557Z" fill="#404366"/>
</svg>
