<svg width="53" height="45" viewBox="0 0 53 45" fill="none" xmlns="http://www.w3.org/2000/svg">
<g clip-path="url(#clip0)">
<path d="M48.02 41.87H39.45C37.4 41.87 35.73 40.2 35.73 38.15V29.58C35.73 27.53 37.4 25.86 39.45 25.86H48.02C50.07 25.86 51.74 27.53 51.74 29.58V38.15C51.74 40.21 50.07 41.87 48.02 41.87Z" stroke="#404366" stroke-width="0.75" stroke-miterlimit="10" stroke-linecap="round" stroke-linejoin="round"/>
<path d="M15.5399 36.84H2.07988C1.13988 36.84 0.379883 37.6 0.379883 38.54L0.399883 39.3C0.399883 40.24 1.15988 41 2.09988 41H15.5599C16.4999 41 17.2599 40.24 17.2599 39.3L17.2399 38.54C17.2399 37.6 16.4799 36.84 15.5399 36.84Z" stroke="#404366" stroke-width="0.75" stroke-miterlimit="10" stroke-linecap="round" stroke-linejoin="round"/>
<path d="M15.5399 31.1H2.07988C1.13988 31.1 0.379883 31.86 0.379883 32.8L0.399883 33.56C0.399883 34.5 1.15988 35.26 2.09988 35.26H15.5599C16.4999 35.26 17.2599 34.5 17.2599 33.56L17.2399 32.8C17.2399 31.87 16.4799 31.1 15.5399 31.1Z" stroke="#404366" stroke-width="0.75" stroke-miterlimit="10" stroke-linecap="round" stroke-linejoin="round"/>
<path d="M15.5399 25.37H2.07988C1.13988 25.37 0.379883 26.13 0.379883 27.07L0.399883 27.83C0.399883 28.77 1.15988 29.53 2.09988 29.53H15.5599C16.4999 29.53 17.2599 28.77 17.2599 27.83L17.2399 27.07C17.2399 26.13 16.4799 25.37 15.5399 25.37Z" stroke="#404366" stroke-width="0.75" stroke-miterlimit="10" stroke-linecap="round" stroke-linejoin="round"/>
<path d="M3.2199 28.22C3.67278 28.22 4.0399 27.8528 4.0399 27.4C4.0399 26.9471 3.67278 26.58 3.2199 26.58C2.76703 26.58 2.3999 26.9471 2.3999 27.4C2.3999 27.8528 2.76703 28.22 3.2199 28.22Z" stroke="#404366" stroke-width="0.75" stroke-miterlimit="10" stroke-linecap="round" stroke-linejoin="round"/>
<path d="M6.34978 28.16C6.80266 28.16 7.16979 27.7929 7.16979 27.34C7.16979 26.8871 6.80266 26.52 6.34978 26.52C5.89691 26.52 5.52979 26.8871 5.52979 27.34C5.52979 27.7929 5.89691 28.16 6.34978 28.16Z" stroke="#404366" stroke-width="0.75" stroke-miterlimit="10" stroke-linecap="round" stroke-linejoin="round"/>
<path d="M3.2199 34.06C3.67278 34.06 4.0399 33.6929 4.0399 33.24C4.0399 32.7872 3.67278 32.42 3.2199 32.42C2.76703 32.42 2.3999 32.7872 2.3999 33.24C2.3999 33.6929 2.76703 34.06 3.2199 34.06Z" stroke="#404366" stroke-width="0.75" stroke-miterlimit="10" stroke-linecap="round" stroke-linejoin="round"/>
<path d="M6.34978 34.06C6.80266 34.06 7.16979 33.6929 7.16979 33.24C7.16979 32.7872 6.80266 32.42 6.34978 32.42C5.89691 32.42 5.52979 32.7872 5.52979 33.24C5.52979 33.6929 5.89691 34.06 6.34978 34.06Z" stroke="#404366" stroke-width="0.75" stroke-miterlimit="10" stroke-linecap="round" stroke-linejoin="round"/>
<path d="M14.34 39.74C14.7929 39.74 15.16 39.3728 15.16 38.92C15.16 38.4671 14.7929 38.1 14.34 38.1C13.8871 38.1 13.52 38.4671 13.52 38.92C13.52 39.3728 13.8871 39.74 14.34 39.74Z" stroke="#404366" stroke-width="0.75" stroke-miterlimit="10" stroke-linecap="round" stroke-linejoin="round"/>
<path d="M8.58008 29.54V31.1" stroke="#404366" stroke-width="0.75" stroke-miterlimit="10" stroke-linecap="round" stroke-linejoin="round"/>
<path d="M8.81006 35.27L8.83006 36.84" stroke="#404366" stroke-width="0.75" stroke-miterlimit="10" stroke-linecap="round" stroke-linejoin="round"/>
<path d="M9.8999 27.45H15.6699" stroke="#404366" stroke-width="0.75" stroke-miterlimit="10" stroke-linecap="round" stroke-linejoin="round"/>
<path d="M9.8999 33.1899H15.6699" stroke="#404366" stroke-width="0.75" stroke-miterlimit="10" stroke-linecap="round" stroke-linejoin="round"/>
<path d="M2.83008 38.92H8.59008" stroke="#404366" stroke-width="0.75" stroke-miterlimit="10" stroke-linecap="round" stroke-linejoin="round"/>
<path d="M6.71973 22.57C7.55973 16.67 11.0897 11.63 16.0197 8.72998" stroke="#404366" stroke-width="0.75" stroke-miterlimit="10" stroke-linecap="round" stroke-linejoin="round"/>
<path d="M35.1999 42.05C32.4099 43.63 29.1799 44.5401 25.7399 44.5401C22.9499 44.5401 20.2899 43.94 17.8999 42.87" stroke="#404366" stroke-width="0.75" stroke-miterlimit="10" stroke-linecap="round" stroke-linejoin="round"/>
<path d="M35.5298 8.77002C40.4298 11.67 43.9298 16.7 44.7698 22.57" stroke="#404366" stroke-width="0.75" stroke-miterlimit="10" stroke-linecap="round" stroke-linejoin="round"/>
<path d="M33.8598 4.20996H19.2598V15.66H33.8598V4.20996Z" stroke="#404366" stroke-width="0.75" stroke-miterlimit="10" stroke-linecap="round" stroke-linejoin="round"/>
<path d="M32.5199 4.21V0.380005H27.3199L25.7799 2.19H17.6299V15.66H19.2599" stroke="#404366" stroke-width="0.75" stroke-miterlimit="10" stroke-linecap="round" stroke-linejoin="round"/>
<path d="M22.27 7.80005H31" stroke="#404366" stroke-width="0.75" stroke-miterlimit="10" stroke-linecap="round" stroke-linejoin="round"/>
<path d="M22.27 10.12H31" stroke="#404366" stroke-width="0.75" stroke-miterlimit="10" stroke-linecap="round" stroke-linejoin="round"/>
<path d="M22.27 12.4401H31" stroke="#404366" stroke-width="0.75" stroke-miterlimit="10" stroke-linecap="round" stroke-linejoin="round"/>
<path d="M33.5898 39.93C34.4598 38.31 35.1998 36.64 36.5198 35.31C37.1398 34.69 37.6698 34.36 38.5498 34.32C39.2498 34.29 39.9198 34.51 40.6098 34.46C41.2398 34.42 41.9298 34.12 42.3898 33.69C42.8398 33.28 43.1298 32.73 43.5998 32.34C44.0798 31.95 44.6598 31.71 45.2798 31.65C45.5398 31.62 45.8198 31.65 46.0798 31.63C47.3198 31.55 47.4898 30.41 48.6398 29.22" stroke="#404366" stroke-width="0.75" stroke-miterlimit="10" stroke-linejoin="round"/>
<path d="M46.79 29.53L48.75 29.08L48.63 31.17" stroke="#404366" stroke-width="0.75" stroke-miterlimit="10"/>
</g>
<defs>
<clipPath id="clip0">
<rect width="52.11" height="44.91" fill="white"/>
</clipPath>
</defs>
</svg>
