<svg width="35" height="27" viewBox="0 0 35 27" fill="none" xmlns="http://www.w3.org/2000/svg">
<path d="M28.2067 13.7212L14.5569 5.81445L1 13.7212L14.6034 21.6338L28.2067 13.7212Z" stroke="#404366" stroke-width="0.75" stroke-linecap="round" stroke-linejoin="round"/>
<path d="M14.557 13.6807L7.75244 17.6486V26.0716" stroke="#404366" stroke-width="0.75" stroke-linecap="round" stroke-linejoin="round"/>
<path d="M1 15.0273L14.6034 22.9341L28.2067 15.0273" stroke="#404366" stroke-width="0.75" stroke-linecap="round" stroke-linejoin="round"/>
<path d="M4.19629 16.8887V24.6736H24.9465V16.9177" stroke="#404366" stroke-width="0.75" stroke-linecap="round" stroke-linejoin="round"/>
<path d="M7.75217 23.2241C8.30322 23.2241 8.74994 22.7773 8.74994 22.2263C8.74994 21.6752 8.30322 21.2285 7.75217 21.2285C7.20111 21.2285 6.75439 21.6752 6.75439 22.2263C6.75439 22.7773 7.20111 23.2241 7.75217 23.2241Z" fill="#404366"/>
<path d="M7.74101 22.5039C8.26411 22.5039 8.76578 22.7117 9.13567 23.0816C9.50556 23.4515 9.71335 23.9531 9.71335 24.4762V26.9997H5.78027V24.4762C5.78026 23.9552 5.98647 23.4552 6.35385 23.0857C6.72123 22.7161 7.21993 22.507 7.74101 22.5039Z" fill="#404366"/>
<path d="M14.6498 14.2206C14.9478 14.2206 15.1893 13.979 15.1893 13.6811C15.1893 13.3831 14.9478 13.1416 14.6498 13.1416C14.3519 13.1416 14.1104 13.3831 14.1104 13.6811C14.1104 13.979 14.3519 14.2206 14.6498 14.2206Z" fill="#404366"/>
<path d="M9.42871 8.80235V1H34.0366V19.3022H24.9464" stroke="#404366" stroke-width="0.75" stroke-miterlimit="10"/>
<path d="M19.9229 8.90126C20.6727 8.53057 21.5292 8.43608 22.3419 8.63441C23.1472 8.83186 23.9849 8.85952 24.8015 8.71563C25.2948 8.58346 25.7373 8.30667 26.0719 7.92089C26.4548 7.47421 26.652 6.8245 26.9943 6.36042C27.76 5.36845 28.5547 5.62369 30.2776 4.62012" stroke="#404366" stroke-width="0.75" stroke-linecap="round" stroke-linejoin="round"/>
<path d="M29.8423 3.8484L30.782 5.42627L31.6754 3.8252L29.8423 3.8484Z" stroke="#404366" stroke-width="0.75" stroke-linecap="round" stroke-linejoin="round"/>
<path d="M28.1484 17.956H32.3426V7.17773" stroke="#404366" stroke-width="0.75" stroke-linecap="round" stroke-linejoin="round"/>
<path d="M32.3426 2.48535H11.1226V7.81647" stroke="#404366" stroke-width="0.75" stroke-linecap="round" stroke-linejoin="round"/>
</svg>
