<svg width="35" height="34" viewBox="0 0 35 34" fill="none" xmlns="http://www.w3.org/2000/svg">
<path d="M23.6669 1.90723H2.49658V25.1162H12.2185" stroke="#404366" stroke-width="0.75" stroke-linecap="round" stroke-linejoin="round"/>
<path d="M26.3654 11.4404V13.7973C25.8912 14.1891 25.2954 14.4034 24.6803 14.4034C24.0652 14.4034 23.4693 14.1891 22.9951 13.7973V12.1121" stroke="#404366" stroke-width="0.75" stroke-linecap="round" stroke-linejoin="round"/>
<path d="M23.0952 10.4751C23.2797 10.5504 23.4794 10.5812 23.678 10.5648C23.8766 10.5484 24.0686 10.4854 24.2383 10.3809" stroke="#404366" stroke-width="0.75" stroke-linecap="round" stroke-linejoin="round"/>
<path d="M24.2974 7.15072C24.6582 7.12686 25.0205 7.16269 25.3697 7.25678" stroke="#404366" stroke-width="0.75" stroke-linecap="round" stroke-linejoin="round"/>
<path d="M21.8467 7.33419L22.6539 6.94531" stroke="#404366" stroke-width="0.75" stroke-linecap="round" stroke-linejoin="round"/>
<path d="M22.0762 8.83605C22.0685 8.76451 22.0759 8.69216 22.098 8.62369C22.1201 8.55522 22.1564 8.49218 22.2045 8.43865C22.2525 8.38512 22.3113 8.34231 22.3771 8.313C22.4428 8.2837 22.5139 8.26855 22.5859 8.26855C22.6578 8.26855 22.7289 8.2837 22.7947 8.313C22.8604 8.34231 22.9192 8.38512 22.9672 8.43865C23.0153 8.49218 23.0516 8.55522 23.0737 8.62369C23.0958 8.69216 23.1032 8.76451 23.0955 8.83605" stroke="#404366" stroke-width="0.75" stroke-linecap="round" stroke-linejoin="round"/>
<path d="M24.3447 8.8368C24.3447 8.70241 24.3981 8.57352 24.4931 8.47849C24.5882 8.38346 24.7171 8.33008 24.8514 8.33008C24.9858 8.33008 25.1147 8.38346 25.2098 8.47849C25.3048 8.57352 25.3582 8.70241 25.3582 8.8368" stroke="#404366" stroke-width="0.75" stroke-linecap="round" stroke-linejoin="round"/>
<path d="M22.9834 13.8096C22.9834 13.8096 19.4481 14.1042 17.7689 16.3137C16.726 17.6984 16.0366 22.2353 16.0366 22.2353" stroke="#404366" stroke-width="0.75" stroke-linecap="round" stroke-linejoin="round"/>
<path d="M26.365 13.7803C26.365 13.7803 29.9003 14.1043 31.5795 16.3139C32.7226 17.8223 33.6182 21.3222 33.7832 23.9736C33.8445 25.3015 33.4471 26.6101 32.6578 27.6797C31.8634 28.6909 30.7961 29.4536 29.5821 29.8775C28.3496 30.31 27.0792 30.6256 25.7876 30.8202" stroke="#404366" stroke-width="0.75" stroke-linecap="round" stroke-linejoin="round"/>
<path d="M29.6472 24.3916C28.3709 25.411 27.0019 26.3086 25.5581 27.0725C25.8333 27.2823 26.0604 27.5486 26.2241 27.8535C26.3877 28.1584 26.4841 28.4948 26.5067 28.8401C26.5395 29.2027 26.4921 29.5679 26.3679 29.9101C26.2436 30.2522 26.0456 30.5628 25.7879 30.8199" stroke="#404366" stroke-width="0.75" stroke-linecap="round" stroke-linejoin="round"/>
<path d="M18.9824 27.5086C18.4948 27.7746 17.9585 27.9394 17.4057 27.993C16.8529 28.0467 16.2949 27.9881 15.7653 27.8209C14.7165 27.4615 13.7738 26.2772 13.1728 25.3992C12.1299 23.8673 11.6055 22.1232 10.7276 20.497C10.7243 20.4855 10.7243 20.4732 10.7276 20.4617C11.7009 19.9023 12.7062 19.4006 13.7384 18.9592L13.8209 18.9238C14.6489 20.3455 15.5804 21.7044 16.6079 22.9894" stroke="#404366" stroke-width="0.75" stroke-linecap="round" stroke-linejoin="round"/>
<path d="M25.5527 27.0722C25.1639 26.754 24.6866 26.3416 24.2977 26.0234C24.2601 25.9986 24.2161 25.9854 24.171 25.9854C24.126 25.9854 24.0819 25.9986 24.0444 26.0234C24.0004 26.0452 23.9634 26.0788 23.9374 26.1204C23.9113 26.162 23.8974 26.21 23.8971 26.2591C23.8676 26.6385 23.9261 27.0196 24.0679 27.3727" stroke="#404366" stroke-width="0.75" stroke-linecap="round" stroke-linejoin="round"/>
<path d="M24.4565 27.4553C23.7517 27.3551 23.0372 27.3433 22.3295 27.4199C22.1541 27.4291 21.983 27.4774 21.8286 27.5613C21.7524 27.6042 21.6915 27.6698 21.6545 27.7491C21.6175 27.8284 21.6063 27.9172 21.6224 28.0032C21.6813 28.2448 21.9818 28.3214 22.2116 28.3567L23.7554 28.5806C23.2365 28.6152 22.7259 28.7285 22.2411 28.9165C22.0349 29.0049 21.8817 29.1227 21.8876 29.3113C21.8874 29.3695 21.9033 29.4267 21.9334 29.4766C21.9635 29.5265 22.0068 29.5671 22.0584 29.5941C22.1667 29.6403 22.2825 29.6663 22.4002 29.6707L23.9675 29.7826" stroke="#404366" stroke-width="0.75" stroke-linecap="round" stroke-linejoin="round"/>
<path d="M22.9248 30.6602C23.8479 30.9711 24.8391 31.0201 25.7884 30.8016" stroke="#404366" stroke-width="0.75" stroke-linecap="round" stroke-linejoin="round"/>
<path d="M19.1589 19.2656C18.677 21.5886 18.8692 24.0009 19.7128 26.2183C18.4246 28.2717 17.6188 30.5904 17.356 33.0001" stroke="#404366" stroke-width="0.75" stroke-linecap="round" stroke-linejoin="round"/>
<path d="M26.6131 21.2277C26.3244 21.2631 21.3102 21.7286 20.9979 21.7639C20.7998 21.8179 20.5884 21.7925 20.4087 21.6932C20.3402 21.6403 20.2883 21.5689 20.2591 21.4875C20.2299 21.4061 20.2245 21.318 20.2437 21.2336C20.2606 21.1494 20.2958 21.0699 20.3467 21.0007C20.3976 20.9315 20.463 20.8742 20.5383 20.833C20.8475 20.7048 21.1828 20.6523 21.5164 20.6798L22.4533 20.6091L26.4893 20.3145" stroke="#404366" stroke-width="0.75" stroke-linecap="round" stroke-linejoin="round"/>
<path d="M20.2793 21.8105C20.2793 21.8813 20.7978 30.3718 20.7978 30.3718L22.6067 30.2304" stroke="#404366" stroke-width="0.75" stroke-linecap="round" stroke-linejoin="round"/>
<path d="M21.7583 20.5791V19.8132L28.9938 19.3418" stroke="#404366" stroke-width="0.75" stroke-linecap="round" stroke-linejoin="round"/>
<path d="M26.9785 20.2146L29.0997 20.085C29.0997 20.1792 29.2411 24.4746 29.2411 24.4746" stroke="#404366" stroke-width="0.75" stroke-linecap="round" stroke-linejoin="round"/>
<path d="M26.6128 20.3916C26.5188 20.4141 26.4351 20.4676 26.3752 20.5435C26.3153 20.6194 26.2827 20.7133 26.2827 20.8099C26.2827 20.9066 26.3153 21.0005 26.3752 21.0764C26.4351 21.1523 26.5188 21.2058 26.6128 21.2283L27.0665 25.9714" stroke="#404366" stroke-width="0.75" stroke-linecap="round" stroke-linejoin="round"/>
<path d="M21.7583 14.0039L23.1488 15.9837L24.4746 14.9938L26.0006 15.9837L27.291 14.0039" stroke="#404366" stroke-width="0.75" stroke-linecap="round" stroke-linejoin="round"/>
<path d="M25.4895 23.0118L21.5635 23.3643L21.6789 24.6495L25.6049 24.297L25.4895 23.0118Z" stroke="#404366" stroke-width="0.75" stroke-linecap="round" stroke-linejoin="round"/>
<path d="M13.7385 18.959C12.6943 19.3992 11.6771 19.9009 10.6923 20.4615C10.3738 19.9531 10.111 19.4118 9.90865 18.8471C9.83564 18.8412 9.76472 18.8198 9.70069 18.7842C9.63666 18.7486 9.58099 18.6997 9.53745 18.6408C9.39726 18.4985 9.26915 18.3448 9.15446 18.1813C9.0135 17.9872 8.91878 17.7635 8.87753 17.5272C8.81861 17.1973 9.20749 16.72 9.59048 16.938C9.51411 16.7826 9.47959 16.61 9.49031 16.4372C9.49031 16.172 10.0795 15.9776 10.3388 16.1779C10.2916 15.9894 10.2504 15.793 10.215 15.5887C10.1678 15.4111 10.1678 15.2243 10.215 15.0467C10.2411 14.9583 10.2945 14.8806 10.3676 14.8245C10.4406 14.7684 10.5295 14.7368 10.6216 14.7344C10.8219 14.7344 10.9633 14.9347 11.0753 15.1056C11.4288 15.6948 11.8648 16.3488 12.2537 16.9145C12.3129 16.7025 12.3837 16.494 12.4658 16.2899C12.4987 16.2234 12.545 16.1645 12.6018 16.1168C12.6586 16.0692 12.7246 16.0338 12.7958 16.013C12.8651 16.0056 12.935 16.0212 12.9946 16.0574C13.0542 16.0936 13.1003 16.1484 13.1257 16.2133C13.1726 16.3475 13.1906 16.49 13.1788 16.6316C13.1904 17.4393 13.3816 18.2344 13.7385 18.959Z" stroke="#404366" stroke-width="0.75" stroke-linecap="round" stroke-linejoin="round"/>
<path d="M12.2658 16.9082C12.1784 17.1476 12.1114 17.394 12.0654 17.6447" stroke="#404366" stroke-width="0.75" stroke-linecap="round" stroke-linejoin="round"/>
<path d="M10.6569 16.9968C10.5342 16.7286 10.4337 16.4507 10.3564 16.166" stroke="#404366" stroke-width="0.75" stroke-linecap="round" stroke-linejoin="round"/>
<path d="M10.7162 17.1084C10.8282 17.306 10.9059 17.5212 10.9459 17.7448C10.9548 17.8463 10.9252 17.9475 10.863 18.0283C10.8008 18.109 10.7105 18.1635 10.6101 18.1808C10.5248 18.1668 10.4437 18.1342 10.3724 18.0853C10.3011 18.0364 10.2414 17.9725 10.1976 17.898C9.95534 17.6257 9.75659 17.3177 9.60844 16.9847C9.60318 16.9654 9.60318 16.9451 9.60844 16.9258" stroke="#404366" stroke-width="0.75" stroke-linecap="round" stroke-linejoin="round"/>
<path d="M9.92676 18.8471C9.9775 18.8415 10.0263 18.8243 10.0692 18.7967C10.1121 18.7691 10.1481 18.7319 10.1742 18.688C10.2219 18.6016 10.2614 18.5108 10.2921 18.417" stroke="#404366" stroke-width="0.75" stroke-linecap="round" stroke-linejoin="round"/>
<path d="M10.7276 20.4973C10.7243 20.4857 10.7243 20.4735 10.7276 20.4619" stroke="#404366" stroke-width="0.75" stroke-linecap="round" stroke-linejoin="round"/>
<path d="M9.92655 18.8478C9.92292 18.8383 9.92292 18.8278 9.92655 18.8184" stroke="#404366" stroke-width="0.75" stroke-linecap="round" stroke-linejoin="round"/>
<path d="M27.4794 8.43022V8.95461C27.4832 9.6609 27.2579 10.3494 26.8371 10.9167C26.5298 11.3523 26.1218 11.7073 25.6479 11.9514C25.174 12.1955 24.6481 12.3217 24.115 12.319C23.4783 12.32 22.8544 12.1399 22.3161 11.7998C21.7778 11.4597 21.3472 10.9736 21.0747 10.3982C20.8511 9.94999 20.736 9.45548 20.7388 8.95461V8.43022C20.7434 7.76523 20.9445 7.11645 21.317 6.56555C21.6895 6.01465 22.2166 5.58626 22.8321 5.33429C23.4475 5.08233 24.1237 5.01806 24.7755 5.14957C25.4274 5.28109 26.0258 5.60251 26.4954 6.07338C26.8062 6.38231 27.0531 6.74947 27.2219 7.15387C27.3908 7.55827 27.4783 7.99199 27.4794 8.43022V8.43022Z" stroke="#404366" stroke-width="0.75" stroke-linecap="round" stroke-linejoin="round"/>
<path d="M28.3869 7.15773V7.87656C28.3825 8.46723 28.2402 9.0487 27.9711 9.57454C27.702 10.1004 27.3137 10.556 26.8372 10.9051C27.258 10.3378 27.4833 9.64931 27.4795 8.94303V8.43042C27.4795 7.53758 27.1252 6.68123 26.4944 6.04935C25.8637 5.41747 25.0079 5.0617 24.1151 5.06014C23.2207 5.06014 22.3628 5.41503 21.7299 6.04691C21.0969 6.67879 20.7405 7.53602 20.7389 8.43042V8.95482C20.7361 9.45568 20.8512 9.95019 21.0748 10.3984C20.4489 9.71186 20.1003 8.81734 20.0967 7.88835V7.15773C20.129 6.09444 20.5811 5.08723 21.354 4.3563C22.1269 3.62537 23.1577 3.23018 24.2211 3.25715H24.3802H24.7514C25.5692 3.35146 26.3415 3.68331 26.9728 4.21168C26.9904 4.21802 27.005 4.2306 27.014 4.24703C27.065 4.27918 27.1124 4.31671 27.1554 4.35898C27.5413 4.71634 27.8498 5.14913 28.0616 5.63055C28.2734 6.11198 28.3841 6.63177 28.3869 7.15773Z" stroke="#404366" stroke-width="0.75" stroke-linecap="round" stroke-linejoin="round"/>
<path d="M27.8795 2.76763C27.8844 3.07567 27.8086 3.37964 27.6598 3.64939C27.511 3.91914 27.2942 4.1453 27.0311 4.30547C27.0221 4.28904 27.0074 4.27647 26.9898 4.27012C26.3585 3.74175 25.5863 3.40991 24.7685 3.3156H24.3973C24.3505 3.13694 24.3326 2.95194 24.3443 2.76763C24.3443 2.29883 24.5305 1.84922 24.862 1.51773C25.1935 1.18623 25.6431 1 26.1119 1C26.5807 1 27.0303 1.18623 27.3618 1.51773C27.6933 1.84922 27.8795 2.29883 27.8795 2.76763V2.76763Z" stroke="#404366" stroke-width="0.75" stroke-linecap="round" stroke-linejoin="round"/>
<path d="M9.97972 9.44299C9.97972 8.50905 9.22262 7.75195 8.28869 7.75195C7.35476 7.75195 6.59766 8.50905 6.59766 9.44299V10.3445C6.59766 11.2784 7.35476 12.0355 8.28869 12.0355C9.22262 12.0355 9.97972 11.2784 9.97972 10.3445V9.44299Z" stroke="#404366" stroke-width="0.75" stroke-linecap="round" stroke-linejoin="round"/>
<path d="M16.384 9.44299C16.384 8.50905 15.6269 7.75195 14.693 7.75195C13.7591 7.75195 13.002 8.50905 13.002 9.44299V10.3445C13.002 11.2784 13.7591 12.0355 14.693 12.0355C15.6269 12.0355 16.384 11.2784 16.384 10.3445V9.44299Z" stroke="#404366" stroke-width="0.75" stroke-linecap="round" stroke-linejoin="round"/>
<path d="M9.98575 10.3271C9.94877 10.5268 9.95488 10.7321 10.0037 10.9292C10.0524 11.1264 10.1427 11.3108 10.2686 11.4702C10.4029 11.6231 10.5887 11.7214 10.7908 11.7464C10.9928 11.7714 11.1969 11.7213 11.3645 11.6057" stroke="#404366" stroke-width="0.75" stroke-linecap="round" stroke-linejoin="round"/>
<path d="M5.35449 12.113C5.82989 11.8125 6.23244 11.41 6.53291 10.9346" stroke="#404366" stroke-width="0.75" stroke-linecap="round" stroke-linejoin="round"/>
<path d="M4.61816 12.5898H19.2365" stroke="#404366" stroke-width="0.75" stroke-linecap="round" stroke-linejoin="round"/>
<path d="M4.61816 7.25781H19.2365" stroke="#404366" stroke-width="0.75" stroke-linecap="round" stroke-linejoin="round"/>
<path d="M1 26.1357H13.6916" stroke="#404366" stroke-width="0.75" stroke-linecap="round" stroke-linejoin="round"/>
<path d="M13.002 4.8418V10.4746" stroke="#404366" stroke-width="0.75" stroke-linecap="round" stroke-linejoin="round"/>
</svg>
