<svg width="30" height="35" viewBox="0 0 30 35" fill="none" xmlns="http://www.w3.org/2000/svg">
<path d="M15.7752 6.53409C16.425 6.98566 16.1552 8.48355 16.6673 9.03425C17.1795 9.58494 18.7214 9.45828 19.0959 10.1356C19.4704 10.813 18.5893 12.041 18.7985 12.7735C19.0078 13.5059 20.4231 14.1062 20.4506 14.8661C20.4781 15.6261 19.0463 16.2098 18.8261 16.9478C18.6058 17.6857 19.4538 18.9413 19.0078 19.5911C18.5617 20.2409 17.0748 19.8995 16.4746 20.3621C15.8743 20.8247 15.8027 22.3391 15.0758 22.6089C14.3489 22.8787 13.3191 21.7608 12.5371 21.8269C11.7551 21.893 10.9566 23.1651 10.1801 23.044C9.40364 22.9228 9.0512 21.4524 8.30776 21.1661C7.56432 20.8797 6.30322 21.6672 5.6534 21.2156C5.00358 20.7641 5.27342 19.2662 4.75576 18.7155C4.23811 18.1648 2.70717 18.2915 2.32719 17.6141C1.94721 16.9367 2.83934 15.7087 2.63008 14.9818C2.42081 14.2548 1.00552 13.6601 1.00002 12.9056C0.994509 12.1512 2.38226 11.5399 2.60254 10.802C2.82282 10.064 1.97475 8.79745 2.44284 8.14763C2.91093 7.4978 4.37028 7.83924 4.97604 7.37665C5.58181 6.91407 5.62586 5.39965 6.35278 5.12981C7.0797 4.85997 8.1095 5.97788 8.89149 5.9118C9.67348 5.84572 10.472 4.57361 11.254 4.70027C12.036 4.82693 12.3939 6.28627 13.1263 6.58365C13.8588 6.88102 15.1089 6.08251 15.7752 6.53409Z" stroke="#404366" stroke-width="0.75" stroke-linecap="round" stroke-linejoin="round"/>
<path d="M14.1288 16.2206C15.2687 14.5683 14.6645 12.1746 12.7794 10.8741C10.8942 9.57363 8.44201 9.85885 7.30216 11.5112C6.16231 13.1635 6.76648 15.5572 8.65162 16.8576C10.5367 18.1581 12.989 17.8729 14.1288 16.2206Z" stroke="#404366" stroke-width="0.75" stroke-linecap="round" stroke-linejoin="round"/>
<path d="M10.8411 23.0498V25.8253" stroke="#404366" stroke-width="0.75" stroke-linecap="round" stroke-linejoin="round"/>
<path d="M8.5061 21.2705V25.3897" stroke="#404366" stroke-width="0.75" stroke-linecap="round" stroke-linejoin="round"/>
<path d="M10.4609 28.9533V27.9786C10.4639 26.9984 10.6901 26.0318 11.1223 25.152C11.5546 24.2723 12.1815 23.5025 12.9556 22.9012L19.0133 18.2313C19.2049 18.0857 19.4389 18.0068 19.6796 18.0068C19.9203 18.0068 20.1543 18.0857 20.3459 18.2313C20.5215 18.3664 20.6537 18.5501 20.7261 18.7595C20.7986 18.9689 20.8081 19.195 20.7535 19.4098L19.8173 23.2646C19.754 23.5047 19.754 23.757 19.8173 23.9971L20.0706 24.9222" fill="white"/>
<path d="M10.4609 28.9533V27.9786C10.4639 26.9984 10.6901 26.0318 11.1223 25.152C11.5546 24.2723 12.1815 23.5025 12.9556 22.9012L19.0133 18.2313C19.2049 18.0857 19.4389 18.0068 19.6796 18.0068C19.9203 18.0068 20.1543 18.0857 20.3459 18.2313V18.2313C20.5215 18.3664 20.6537 18.5501 20.7261 18.7595C20.7986 18.9689 20.8081 19.195 20.7535 19.4098L19.8173 23.2646C19.754 23.5047 19.754 23.757 19.8173 23.9971L20.0706 24.9222" stroke="#404366" stroke-width="0.75" stroke-linecap="round" stroke-linejoin="round"/>
<path d="M28.0776 18.4131C28.7461 19.2149 29.0724 20.2474 28.9862 21.2877L28.5016 25.082C28.2703 26.8332 26.4145 28.1219 23.7491 29.7629L22.6477 30.4238C22.0144 30.8164 21.4673 31.3335 21.0397 31.9437C20.6704 32.4826 20.4692 33.1188 20.4614 33.772V34.2456" stroke="#404366" stroke-width="0.75" stroke-linecap="round" stroke-linejoin="round"/>
<path d="M27.0808 25.1977C27.0808 25.0821 27.7416 22.5158 28.1822 20.8692C28.4113 19.9825 28.3554 19.0461 28.0225 18.1929L27.1414 15.957" stroke="#404366" stroke-width="0.75" stroke-linecap="round" stroke-linejoin="round"/>
<path d="M25.572 23.9695L27.0919 19.2225L26.9487 14.9436C26.943 14.7419 26.8597 14.5502 26.716 14.4086C26.5723 14.267 26.3795 14.1864 26.1777 14.1836V14.1836C26.0178 14.1839 25.862 14.2338 25.7318 14.3266C25.6015 14.4193 25.5033 14.5502 25.4508 14.7012L24.2448 18.0495C24.0645 18.5571 23.7814 19.022 23.4132 19.4152L19.8447 23.2701" stroke="#404366" stroke-width="0.75" stroke-linecap="round" stroke-linejoin="round"/>
<path d="M22.864 8.77963L20.7123 8.12964C19.4773 7.75655 18.1736 8.45531 17.8005 9.69037L17.7989 9.69566C17.4258 10.9307 18.1246 12.2344 19.3597 12.6075L21.5113 13.2574C22.7464 13.6305 24.0501 12.9318 24.4232 11.6967L24.4247 11.6914C24.7978 10.4564 24.0991 9.15272 22.864 8.77963Z" fill="white" stroke="#404366" stroke-width="0.752135" stroke-linecap="round" stroke-linejoin="round"/>
<path d="M21.6125 8.29688C22.2043 8.47531 22.7015 8.88064 22.9956 9.42437C23.2896 9.9681 23.3566 10.6061 23.182 11.199V11.199C23.0035 11.7909 22.5982 12.2881 22.0545 12.5821C21.5107 12.8762 20.8727 12.9432 20.2798 12.7685" stroke="#404366" stroke-width="0.75" stroke-linecap="round" stroke-linejoin="round"/>
<path d="M20.4396 7.9502C20.8375 8.1279 21.1778 8.41343 21.4219 8.77448C21.666 9.13553 21.8041 9.55769 21.8208 9.99319C21.8374 10.4287 21.7318 10.8601 21.5159 11.2387C21.3 11.6173 20.9825 11.928 20.5993 12.1355C20.1483 12.3849 19.6261 12.4742 19.1179 12.3888V12.3888" stroke="#404366" stroke-width="0.75" stroke-linecap="round" stroke-linejoin="round"/>
<path d="M18.022 11.7505C19.1534 11.7505 20.0706 10.8333 20.0706 9.70191C20.0706 8.57051 19.1534 7.65332 18.022 7.65332C16.8906 7.65332 15.9734 8.57051 15.9734 9.70191C15.9734 10.8333 16.8906 11.7505 18.022 11.7505Z" fill="white" stroke="#404366" stroke-width="0.75" stroke-linecap="round" stroke-linejoin="round"/>
<path d="M15.676 11.0448C16.4728 11.0448 17.1188 10.3989 17.1188 9.602C17.1188 8.80515 16.4728 8.15918 15.676 8.15918C14.8791 8.15918 14.2332 8.80515 14.2332 9.602C14.2332 10.3989 14.8791 11.0448 15.676 11.0448Z" fill="white" stroke="#404366" stroke-width="0.75" stroke-linecap="round" stroke-linejoin="round"/>
<path d="M19.1619 7.80656C19.7877 6.23674 20.6494 4.77156 21.7171 3.46157C22.2138 2.81697 22.8845 2.32782 23.65 2.05179C23.8214 1.98993 24.0037 1.96389 24.1856 1.97525C24.3674 1.98662 24.545 2.03516 24.7074 2.11787C24.8992 2.25572 25.045 2.44829 25.1255 2.67036C25.2061 2.89243 25.2178 3.13365 25.1589 3.36245C25.0379 3.81733 24.8007 4.23293 24.4706 4.56847C23.0883 6.07738 21.1664 6.98052 19.3326 7.87265" stroke="#404366" stroke-width="0.75" stroke-linecap="round" stroke-linejoin="round"/>
<path d="M20.1697 3.27438C20.0635 2.85221 19.9044 2.44514 19.6961 2.06284C19.5806 1.79144 19.4001 1.55257 19.1706 1.36725C18.9411 1.18192 18.6696 1.05581 18.38 1C18.09 1.004 17.8082 1.097 17.5728 1.26642C17.3374 1.43583 17.1597 1.67348 17.0638 1.9472C16.8857 2.49982 16.8666 3.0914 17.0087 3.65436C17.3249 4.98456 17.8098 6.26891 18.4516 7.47619" stroke="#404366" stroke-width="0.75" stroke-linecap="round" stroke-linejoin="round"/>
<path d="M24.4268 11.5684L25.4455 11.8712" stroke="#404366" stroke-width="0.75" stroke-linecap="round" stroke-linejoin="round"/>
<path d="M15.0703 9.0293L15.3071 9.70115" stroke="#404366" stroke-width="0.75" stroke-linecap="round" stroke-linejoin="round"/>
<path d="M14.3379 9.26074L14.5747 9.9381" stroke="#404366" stroke-width="0.75" stroke-linecap="round" stroke-linejoin="round"/>
<path d="M9.48054 12.0968C9.65694 12.0968 9.79994 11.9538 9.79994 11.7774C9.79994 11.601 9.65694 11.458 9.48054 11.458C9.30413 11.458 9.16113 11.601 9.16113 11.7774C9.16113 11.9538 9.30413 12.0968 9.48054 12.0968Z" fill="#404366"/>
<path d="M8.14265 13.8751C8.31905 13.8751 8.46205 13.7321 8.46205 13.5557C8.46205 13.3793 8.31905 13.2363 8.14265 13.2363C7.96624 13.2363 7.82324 13.3793 7.82324 13.5557C7.82324 13.7321 7.96624 13.8751 8.14265 13.8751Z" fill="#404366"/>
<path d="M10.1138 13.6935C10.2902 13.6935 10.4332 13.5505 10.4332 13.3741C10.4332 13.1977 10.2902 13.0547 10.1138 13.0547C9.93744 13.0547 9.79443 13.1977 9.79443 13.3741C9.79443 13.5505 9.93744 13.6935 10.1138 13.6935Z" fill="#404366"/>
<path d="M11.7716 12.1906C11.948 12.1906 12.091 12.0476 12.091 11.8712C12.091 11.6948 11.948 11.5518 11.7716 11.5518C11.5952 11.5518 11.4521 11.6948 11.4521 11.8712C11.4521 12.0476 11.5952 12.1906 11.7716 12.1906Z" fill="#404366"/>
<path d="M12.6417 13.8751C12.8181 13.8751 12.9611 13.7321 12.9611 13.5557C12.9611 13.3793 12.8181 13.2363 12.6417 13.2363C12.4653 13.2363 12.3223 13.3793 12.3223 13.5557C12.3223 13.7321 12.4653 13.8751 12.6417 13.8751Z" fill="#404366"/>
<path d="M12.6417 16.2765C12.8181 16.2765 12.9611 16.1335 12.9611 15.9571C12.9611 15.7807 12.8181 15.6377 12.6417 15.6377C12.4653 15.6377 12.3223 15.7807 12.3223 15.9571C12.3223 16.1335 12.4653 16.2765 12.6417 16.2765Z" fill="#404366"/>
<path d="M11.254 15.3898C11.4304 15.3898 11.5734 15.2468 11.5734 15.0704C11.5734 14.894 11.4304 14.751 11.254 14.751C11.0776 14.751 10.9346 14.894 10.9346 15.0704C10.9346 15.2468 11.0776 15.3898 11.254 15.3898Z" fill="#404366"/>
<path d="M9.40339 15.7033C9.57979 15.7033 9.72279 15.5603 9.72279 15.3839C9.72279 15.2075 9.57979 15.0645 9.40339 15.0645C9.22699 15.0645 9.08398 15.2075 9.08398 15.3839C9.08398 15.5603 9.22699 15.7033 9.40339 15.7033Z" fill="#404366"/>
</svg>
