<svg width="26" height="27" viewBox="0 0 26 27" fill="none" xmlns="http://www.w3.org/2000/svg">
<path d="M15.1132 13.8682V16.8799C15.1132 17.8196 14.7399 18.7209 14.0754 19.3853C13.4109 20.0498 12.5097 20.4231 11.57 20.4231H4.56032C3.62059 20.4231 2.71936 20.0498 2.05488 19.3853C1.39039 18.7209 1.01709 17.8196 1.01709 16.8799V13.8682H15.1132Z" stroke="#404366" stroke-width="0.75" stroke-linecap="round" stroke-linejoin="round"/>
<path d="M15.1138 5.09268V13.8681H1V5.09268C1 4.66354 1.17048 4.25198 1.47392 3.94853C1.77737 3.64508 2.18893 3.47461 2.61807 3.47461H13.5017C13.9298 3.47617 14.3398 3.64734 14.642 3.95061C14.9442 4.25389 15.1138 4.66456 15.1138 5.09268V5.09268Z" stroke="#404366" stroke-width="0.75" stroke-linecap="round" stroke-linejoin="round"/>
<path d="M9.4683 11.0386H12.1671V13.8614H9.4683V16.5601H6.64553V13.8614H3.94678V11.0386H6.64553V8.33984H9.4683V11.0386Z" fill="white" stroke="#404366" stroke-width="0.75" stroke-linecap="round" stroke-linejoin="round"/>
<path d="M8.15123 1C8.31331 1 8.4738 1.03192 8.62355 1.09395C8.77329 1.15598 8.90935 1.24689 9.02396 1.3615C9.13856 1.4761 9.22948 1.61216 9.2915 1.76191C9.35353 1.91165 9.38545 2.07214 9.38545 2.23422V3.47435H6.91701V2.24013C6.91623 2.07755 6.94758 1.91642 7.00926 1.766C7.07093 1.61557 7.16172 1.47882 7.27641 1.36358C7.39109 1.24835 7.52742 1.15691 7.67754 1.09451C7.82767 1.03212 7.98865 0.999998 8.15123 1Z" fill="white" stroke="#404366" stroke-width="0.75" stroke-linecap="round" stroke-linejoin="round"/>
<path d="M6.98193 20.4346V26.0388" stroke="#404366" stroke-width="0.75" stroke-linecap="round" stroke-linejoin="round"/>
<path d="M5.29834 20.4346V26.0388" stroke="#404366" stroke-width="0.75" stroke-linecap="round" stroke-linejoin="round"/>
<path d="M9.99952 20.435V23.4704C9.99874 23.8529 10.0735 24.2319 10.2195 24.5854C10.3656 24.939 10.58 25.2603 10.8505 25.5308C11.121 25.8013 11.4422 26.0157 11.7958 26.1617C12.1494 26.3077 12.5283 26.3825 12.9109 26.3817H16.7671C17.5351 26.3755 18.2696 26.066 18.8105 25.5207C19.3513 24.9754 19.6548 24.2384 19.6548 23.4704V12.8407C19.6548 12.3468 19.8506 11.8731 20.1993 11.5233C20.548 11.1735 21.0211 10.9762 21.515 10.9746C22.0089 10.9762 22.482 11.1735 22.8307 11.5233C23.1794 11.8731 23.3752 12.3468 23.3752 12.8407V17.1339" stroke="#404366" stroke-width="0.75" stroke-linecap="round" stroke-linejoin="round"/>
<path d="M20.564 17.6943H18.7393V20.6529H20.564V17.6943Z" fill="white" stroke="#404366" stroke-width="0.75" stroke-linecap="round" stroke-linejoin="round"/>
<path d="M25 24.7872C24.9752 25.194 24.7962 25.5761 24.4993 25.8555C24.2025 26.1348 23.8102 26.2903 23.4026 26.2903C22.995 26.2903 22.6027 26.1348 22.3058 25.8555C22.009 25.5761 21.8299 25.194 21.8052 24.7872C21.8052 23.9014 23.3996 21.5215 23.3996 21.5215C23.3996 21.5215 25 23.9014 25 24.7872Z" fill="#FFF" stroke="#404366" stroke-width="0.75" stroke-linecap="round" stroke-linejoin="round"/>
</svg>
