<svg width="29" height="30" viewBox="0 0 29 30" fill="none" xmlns="http://www.w3.org/2000/svg">
<path d="M11.3344 11.4923C11.2388 11.4913 11.1475 11.4524 11.0804 11.3842L9.65889 9.96276C9.56542 9.86997 9.43927 9.81757 9.30757 9.81683H7.17805C7.13101 9.81756 7.08429 9.80883 7.04068 9.79116C6.99707 9.7735 6.95746 9.74725 6.92419 9.71398C6.89092 9.6807 6.86467 9.64109 6.847 9.59748C6.82933 9.55387 6.8206 9.50716 6.82133 9.46011V6.94684C6.82061 6.89955 6.82931 6.85258 6.84692 6.80867C6.86452 6.76477 6.89069 6.7248 6.92388 6.6911C6.95708 6.6574 6.99665 6.63064 7.04028 6.61238C7.08392 6.59411 7.13075 6.58471 7.17805 6.58472C7.28523 6.59038 7.38762 6.63095 7.46959 6.70024C7.55156 6.76952 7.60862 6.86372 7.63206 6.96846L7.99959 8.15213C8.0414 8.31669 8.12748 8.46666 8.24849 8.58576C8.3695 8.70486 8.52081 8.78855 8.68601 8.82774L9.6697 9.06015C9.76994 9.06047 9.86711 9.09477 9.94535 9.15744L11.3452 10.6059L11.5182 10.433C11.5514 10.3993 11.5909 10.3726 11.6345 10.3543C11.6781 10.3361 11.7249 10.3267 11.7722 10.3267C11.8195 10.3267 11.8663 10.3361 11.9099 10.3543C11.9535 10.3726 11.993 10.3993 12.0262 10.433C12.0916 10.5014 12.1281 10.5924 12.1281 10.687C12.1281 10.7817 12.0916 10.8726 12.0262 10.941L11.5992 11.3626C11.5667 11.4016 11.5263 11.4333 11.4806 11.4557C11.435 11.478 11.3852 11.4905 11.3344 11.4923Z" stroke="#404366" stroke-width="0.6875" stroke-miterlimit="10"/>
<path d="M9.05288 8.61701H7.35575C7.26114 8.61701 7.1704 8.57942 7.1035 8.51253C7.03661 8.44563 6.99902 8.35489 6.99902 8.26029C6.99902 8.16568 7.03661 8.07494 7.1035 8.00805C7.1704 7.94115 7.26114 7.90356 7.35575 7.90356H9.05288C9.14748 7.90356 9.23822 7.94115 9.30512 8.00805C9.37201 8.07494 9.4096 8.16568 9.4096 8.26029C9.4096 8.35489 9.37201 8.44563 9.30512 8.51253C9.23822 8.57942 9.14748 8.61701 9.05288 8.61701V8.61701Z" fill="white" stroke="#404366" stroke-width="0.6875" stroke-miterlimit="10"/>
<path d="M10.0105 10.7791C10.011 11.256 9.88214 11.7242 9.63768 12.1337C9.39321 12.5432 9.04228 12.8788 8.62223 13.1047C8.20219 13.3306 7.72875 13.4384 7.25231 13.4166C6.77587 13.3948 6.31426 13.2442 5.91661 12.9808C5.51896 12.7175 5.20016 12.3513 4.99413 11.9211C4.78811 11.491 4.70257 11.013 4.74663 10.5381C4.79069 10.0632 4.96269 9.60913 5.24433 9.22423C5.52596 8.83932 5.9067 8.53799 6.346 8.35229" stroke="#404366" stroke-width="0.6875" stroke-linecap="round" stroke-linejoin="round"/>
<path d="M9.30241 10.7784C9.30057 11.1258 9.20498 11.4663 9.02573 11.7639C8.84647 12.0614 8.59021 12.3051 8.28398 12.4691C7.97775 12.6331 7.63292 12.7115 7.28589 12.6958C6.93885 12.6801 6.60248 12.5711 6.31228 12.3801C6.02207 12.1892 5.7888 11.9234 5.63709 11.6109C5.48538 11.2984 5.42085 10.9507 5.45031 10.6046C5.47978 10.2584 5.60214 9.92665 5.80449 9.64428C6.00684 9.36191 6.28167 9.1394 6.59998 9.00024" stroke="#404366" stroke-width="0.6875" stroke-linecap="round" stroke-linejoin="round"/>
<path d="M7.31822 6.31441C7.60777 6.31441 7.84249 6.07969 7.84249 5.79014C7.84249 5.50059 7.60777 5.26587 7.31822 5.26587C7.02867 5.26587 6.79395 5.50059 6.79395 5.79014C6.79395 6.07969 7.02867 6.31441 7.31822 6.31441Z" stroke="#404366" stroke-width="0.6875" stroke-miterlimit="10"/>
<path d="M17.4805 9.15748C17.5737 9.18972 17.6627 9.23328 17.7453 9.2872C17.8558 8.88854 18.0814 8.53132 18.3939 8.26027C18.6753 7.99913 19.0337 7.83606 19.4154 7.79546C19.7089 7.75859 20.0069 7.78801 20.2875 7.88154C20.5681 7.97508 20.8242 8.13036 21.0369 8.33594C21.2545 8.58136 21.3882 8.88986 21.4183 9.2165C21.4484 9.54314 21.3735 9.87088 21.2044 10.152C21.0369 10.4114 20.7937 10.6168 20.6207 10.8762C20.4366 11.2141 20.3071 11.5789 20.237 11.9572C20.1632 12.3457 19.975 12.7034 19.6965 12.9841C19.541 13.121 19.3512 13.2129 19.1474 13.2501C18.9436 13.2872 18.7336 13.2681 18.5398 13.1949" stroke="#404366" stroke-width="0.6875" stroke-linecap="round" stroke-linejoin="round"/>
<path d="M18.6426 9.15762C18.7829 8.90217 19.0146 8.70914 19.2912 8.61713C19.4305 8.57339 19.5781 8.56234 19.7225 8.58483C19.8668 8.60733 20.0041 8.66277 20.1235 8.74685C20.2428 8.83373 20.3357 8.95191 20.392 9.08832C20.4483 9.22472 20.4657 9.37404 20.4424 9.51975" stroke="#404366" stroke-width="0.6875" stroke-linecap="round" stroke-linejoin="round"/>
<path d="M18.0532 10.1138C18.0312 10.1971 18.0392 10.2855 18.0757 10.3636C18.1123 10.4416 18.1751 10.5043 18.2532 10.5408C18.4 10.5762 18.5508 10.5925 18.7018 10.5894C18.8232 10.6095 18.9355 10.6664 19.0235 10.7524C19.1115 10.8385 19.1709 10.9495 19.1936 11.0704C19.207 11.2179 19.207 11.3662 19.1936 11.5136C19.1846 11.587 19.1921 11.6614 19.2154 11.7316C19.2388 11.8017 19.2775 11.8657 19.3288 11.919" stroke="#404366" stroke-width="0.6875" stroke-linecap="round" stroke-linejoin="round"/>
<path d="M22.7117 5.78853L20.9346 7.56567L21.5537 8.18481L23.3309 6.40766L22.7117 5.78853Z" fill="#404366" stroke="#404366" stroke-width="0.6875" stroke-miterlimit="10"/>
<path d="M17.7654 10.7346L15.9883 12.5117L16.6074 13.1309L18.3846 11.3537L17.7654 10.7346Z" fill="#404366" stroke="#404366" stroke-width="0.6875" stroke-miterlimit="10"/>
<path d="M2.67021 24.0424C3.68811 24.0424 4.51327 22.9002 4.51327 21.4913C4.51327 20.0824 3.68811 18.9402 2.67021 18.9402C1.65232 18.9402 0.827148 20.0824 0.827148 21.4913C0.827148 22.9002 1.65232 24.0424 2.67021 24.0424Z" fill="#404366" stroke="#404366" stroke-width="0.6875" stroke-miterlimit="10"/>
<path d="M7.4163 24.0424C8.4342 24.0424 9.25937 22.9002 9.25937 21.4913C9.25937 20.0824 8.4342 18.9402 7.4163 18.9402C6.39841 18.9402 5.57324 20.0824 5.57324 21.4913C5.57324 22.9002 6.39841 24.0424 7.4163 24.0424Z" fill="#404366" stroke="#404366" stroke-width="0.6875" stroke-miterlimit="10"/>
<path d="M9.1123 20.7779L11.9715 17.9133C11.9715 17.9133 12.7768 17.4323 12.7768 18.8429" stroke="#404366" stroke-width="0.6875" stroke-linecap="round" stroke-linejoin="round"/>
<path d="M1.19531 20.7779L4.05449 17.9133C4.05449 17.9133 4.85982 17.4323 4.85982 18.8429" stroke="#404366" stroke-width="0.6875" stroke-linecap="round" stroke-linejoin="round"/>
<path d="M4.32422 21.5071H6.08621" stroke="#404366" stroke-width="0.6875" stroke-linecap="round" stroke-linejoin="round"/>
<path d="M21.6366 24.729C21.6366 24.729 19.7935 17.4594 19.7989 17.454C19.8043 17.4486 19.4314 16.3731 18.4747 16.6379C18.2004 16.7117 17.955 16.8669 17.7707 17.0831C17.5864 17.2992 17.4719 17.5661 17.4424 17.8486" stroke="#404366" stroke-width="0.6875" stroke-linecap="round" stroke-linejoin="round"/>
<path d="M14.167 28.75C21.7609 28.75 27.917 22.5939 27.917 15C27.917 7.40608 21.7609 1.25 14.167 1.25C6.57308 1.25 0.416992 7.40608 0.416992 15C0.416992 22.5939 6.57308 28.75 14.167 28.75Z" stroke="#404366" stroke-width="0.6875" stroke-linecap="round" stroke-linejoin="round"/>
<path d="M14.167 1.25537V28.75" stroke="#404366" stroke-width="0.6875" stroke-linecap="round" stroke-linejoin="round"/>
<path d="M0.421875 15H27.9165" stroke="#404366" stroke-width="0.6875" stroke-linecap="round" stroke-linejoin="round"/>
</svg>
