<svg width="30" height="30" viewBox="0 0 30 30" fill="none" xmlns="http://www.w3.org/2000/svg">
<path d="M17.2942 12.0433C17.6768 11.6607 17.6768 11.0405 17.2942 10.658C16.9117 10.2754 16.2915 10.2754 15.9089 10.658L15.209 11.3579C14.8265 11.7404 14.8265 12.3606 15.209 12.7432C15.5916 13.1257 16.2118 13.1257 16.5943 12.7432L17.2942 12.0433Z" stroke="#404366" stroke-width="0.760833" stroke-linecap="round" stroke-linejoin="round"/>
<path d="M18.6848 13.43C19.0674 13.0475 19.0674 12.4272 18.6848 12.0447C18.3023 11.6622 17.6821 11.6622 17.2995 12.0447L16.5997 12.7446C16.2171 13.1271 16.2171 13.7473 16.5997 14.1299C16.9822 14.5124 17.6024 14.5124 17.985 14.1299L18.6848 13.43Z" stroke="#404366" stroke-width="0.760833" stroke-linecap="round" stroke-linejoin="round"/>
<path d="M19.845 15.0377C20.2275 14.6551 20.2275 14.0349 19.845 13.6524C19.4625 13.2698 18.8422 13.2698 18.4597 13.6524L17.7598 14.3522C17.3773 14.7348 17.3773 15.355 17.7598 15.7375C18.1424 16.1201 18.7626 16.1201 19.1451 15.7375L19.845 15.0377Z" stroke="#404366" stroke-width="0.760833" stroke-linecap="round" stroke-linejoin="round"/>
<path d="M15.5635 11.0104C15.3301 10.7771 15.0135 10.646 14.6835 10.646C14.3534 10.646 14.0368 10.7771 13.8034 11.0104L11.5637 13.245V14.9644L3.75781 22.1427" stroke="#404366" stroke-width="0.760833" stroke-linecap="round" stroke-linejoin="round"/>
<path d="M16.3139 13.5305C16.2726 13.7057 16.1716 13.8611 16.0283 13.97C15.8849 14.0789 15.7081 14.1345 15.5282 14.1274C15.1637 14.0718 14.8261 13.9021 14.564 13.6427C14.2885 13.3978 14.0895 13.2396 13.8701 13.0203" stroke="#404366" stroke-width="0.760833" stroke-linecap="round" stroke-linejoin="round"/>
<path d="M19.069 15.7908L17.6201 17.7397C17.4951 17.8656 17.3465 17.9655 17.1827 18.0338C17.019 18.1021 16.8434 18.1374 16.666 18.1376H15.5181L11.2529 23.5405" stroke="#404366" stroke-width="0.760833" stroke-linecap="round" stroke-linejoin="round"/>
<path d="M14.6504 13.7292C14.8544 14.3999 14.822 15.1203 14.5586 15.77" stroke="#404366" stroke-width="0.760833" stroke-linecap="round" stroke-linejoin="round"/>
<path d="M17.1084 20.0251V21.7241" stroke="#404366" stroke-width="0.760833" stroke-linecap="round" stroke-linejoin="round"/>
<path d="M21.0488 15.939H22.7426" stroke="#404366" stroke-width="0.760833" stroke-linecap="round" stroke-linejoin="round"/>
<path d="M19.4258 17.9846L20.6247 19.1836" stroke="#404366" stroke-width="0.760833" stroke-linecap="round" stroke-linejoin="round"/>
<path d="M13.3242 8.73532V7.0415" stroke="#404366" stroke-width="0.760833" stroke-linecap="round" stroke-linejoin="round"/>
<path d="M9.38545 12.8269H7.68652" stroke="#404366" stroke-width="0.760833" stroke-linecap="round" stroke-linejoin="round"/>
<path d="M11.0078 10.7805L9.80371 9.58154" stroke="#404366" stroke-width="0.760833" stroke-linecap="round" stroke-linejoin="round"/>
<path d="M24.997 24.9944V12.5152L26.0888 13.4336L27.3796 11.9693L14.2831 2.75537L1.20703 11.9693L2.4774 13.4336L3.5692 12.5152V24.9944" stroke="#404366" stroke-width="0.760833" stroke-linecap="round" stroke-linejoin="round"/>
<path d="M1.02344 24.9946H27.6195" stroke="#404366" stroke-width="0.760833" stroke-linecap="round" stroke-linejoin="round"/>
<path d="M1.70486 0.166479L0.333984 1.53735L7.96759 9.17096L9.33846 7.80008L1.70486 0.166479Z" fill="#404366"/>
<path d="M22.0789 20.4951L20.708 21.866L28.3416 29.4996L29.7125 28.1287L22.0789 20.4951Z" fill="#404366"/>
</svg>
