<svg width="39" height="29" viewBox="0 0 39 29" fill="none" xmlns="http://www.w3.org/2000/svg">
<path d="M17.9005 23.8019L11.6693 28L5.43203 23.8019C4.06787 22.8864 2.95 21.6493 2.17707 20.1997C1.40413 18.75 0.999881 17.1324 1 15.4896V3.06308L11.6693 1L22.3625 3.06308V15.4896C22.3588 17.135 21.9497 18.7542 21.1715 20.204C20.3933 21.6538 19.2698 22.8895 17.9005 23.8019Z" stroke="#404366" stroke-width="0.75" stroke-linecap="round" stroke-linejoin="round"/>
<path d="M11.6689 6.82324V23.118" stroke="#404366" stroke-width="0.75" stroke-linecap="round" stroke-linejoin="round"/>
<path d="M11.6691 25.6378L6.5174 22.1833C5.38959 21.4277 4.46529 20.4059 3.82618 19.2083C3.18707 18.0106 2.85284 16.6739 2.85303 15.3164V5.04895L11.6691 3.3457" stroke="#404366" stroke-width="0.75" stroke-linecap="round" stroke-linejoin="round"/>
<path d="M17.4147 4.45508L20.4853 5.05481V15.3163C20.4843 16.6742 20.1489 18.0111 19.5088 19.2087C18.8687 20.4063 17.9435 21.4279 16.8149 22.1832" stroke="#404366" stroke-width="0.75" stroke-linecap="round" stroke-linejoin="round"/>
<path d="M38.1176 23.6219C35.035 23.6219 35.035 26.7105 31.9523 26.7105C28.8697 26.7105 28.8697 23.6219 25.7871 23.6219C22.7044 23.6219 22.7044 26.7105 19.6218 26.7105C16.5392 26.7105 16.5392 23.6219 13.4565 23.6219V12.167C16.5392 12.167 16.5392 15.2556 19.6218 15.2556C22.7044 15.2556 22.7044 12.167 25.7871 12.167C28.8697 12.167 28.8697 15.2256 31.9583 15.2256C35.0469 15.2256 35.035 12.167 38.1176 12.167V23.6219Z" fill="white"/>
<path d="M38.1176 12.167C35.035 12.167 35.035 15.2256 31.9583 15.2256C28.8817 15.2256 28.8697 12.167 25.7871 12.167C22.7044 12.167 22.7044 15.2256 19.6218 15.2256C16.5392 15.2256 16.5392 12.167 13.4565 12.167" stroke="#404366" stroke-width="0.75" stroke-linecap="round" stroke-linejoin="round"/>
<path d="M13.4565 17.877C16.5392 17.877 16.5392 20.9716 19.6218 20.9716C22.7044 20.9716 22.7044 17.877 25.7871 17.877C28.8697 17.877 28.8697 20.9716 31.9583 20.9716C35.0469 20.9716 35.0409 17.877 38.1236 17.877" stroke="#404366" stroke-width="0.75" stroke-linecap="round" stroke-linejoin="round"/>
<path d="M13.4565 23.6221C16.5392 23.6221 16.5392 26.7107 19.6218 26.7107C22.7044 26.7107 22.7044 23.6221 25.7871 23.6221C28.8697 23.6221 28.8697 26.7107 31.9583 26.7107C35.0469 26.7107 35.0409 23.6221 38.1236 23.6221" stroke="#404366" stroke-width="0.75" stroke-linecap="round" stroke-linejoin="round"/>
</svg>
