<svg width="46" height="43" viewBox="0 0 46 43" fill="none" xmlns="http://www.w3.org/2000/svg">
<g clip-path="url(#clip0)">
<path d="M24.2699 5.57004C24.9499 7.86004 24.4499 10.19 23.1499 11.96C22.4499 12.9 22.1899 14.1 22.4799 15.24L22.6799 16.04C22.8699 16.79 22.4199 17.55 21.6699 17.74L18.3699 18.59C17.6199 18.78 16.8599 18.33 16.6699 17.59L16.4899 16.88C16.1999 15.74 15.4199 14.76 14.3399 14.27C12.3999 13.4 10.8599 11.68 10.2899 9.46004C9.2499 5.41004 11.8099 1.30004 15.9599 0.500036C19.5899 -0.189964 23.2199 2.02004 24.2699 5.57004Z" stroke="#404366" stroke-width="0.75" stroke-miterlimit="10" stroke-linecap="round" stroke-linejoin="round"/>
<path d="M17.77 20.06L22.66 18.8" stroke="#404366" stroke-width="0.75" stroke-miterlimit="10" stroke-linecap="round" stroke-linejoin="round"/>
<path d="M18.5601 21.33L22.5801 20.29" stroke="#404366" stroke-width="0.75" stroke-miterlimit="10" stroke-linecap="round" stroke-linejoin="round"/>
<path d="M19.2798 18.3401L14.8398 8.69006" stroke="#404366" stroke-width="0.75" stroke-miterlimit="10" stroke-linecap="round" stroke-linejoin="round"/>
<path d="M20.8098 17.95L20.0298 7.34998" stroke="#404366" stroke-width="0.75" stroke-miterlimit="10" stroke-linecap="round" stroke-linejoin="round"/>
<path d="M14.4399 10.77C17.0399 10.51 19.5599 9.58999 21.7099 8.10999" stroke="#404366" stroke-width="0.75" stroke-miterlimit="10" stroke-linecap="round" stroke-linejoin="round"/>
<path d="M18.3999 18.68L19.0899 21.37C19.2599 22.04 20.0399 22.41 20.8199 22.21L21.1399 22.13C21.9199 21.93 22.4199 21.22 22.2499 20.56L21.5599 17.87" stroke="#404366" stroke-width="0.75" stroke-miterlimit="10" stroke-linecap="round" stroke-linejoin="round"/>
<path d="M36.6909 5.46242L23.5718 26.342L29.7866 30.2469L42.9057 9.3673L36.6909 5.46242Z" stroke="#404366" stroke-width="0.75" stroke-miterlimit="10" stroke-linecap="round" stroke-linejoin="round"/>
<path d="M44.3902 7.01001L38.1802 3.11001L38.9602 1.87001C39.4802 1.04001 40.5702 0.790009 41.4002 1.31001L44.6102 3.33001C45.4402 3.85001 45.6902 4.94001 45.1702 5.77001L44.3902 7.01001Z" stroke="#404366" stroke-width="0.75" stroke-miterlimit="10" stroke-linecap="round" stroke-linejoin="round"/>
<path d="M23.5801 26.34L29.7901 30.25L23.0601 34.22L23.5801 26.34Z" stroke="#404366" stroke-width="0.75" stroke-miterlimit="10" stroke-linecap="round" stroke-linejoin="round"/>
<path d="M37.3256 2.56817L35.8467 4.922L43.6871 9.84832L45.1661 7.49449L37.3256 2.56817Z" stroke="#404366" stroke-width="0.75" stroke-miterlimit="10" stroke-linecap="round" stroke-linejoin="round"/>
<path d="M28.8398 27.7L41.0098 8.33997" stroke="#404366" stroke-width="0.75" stroke-miterlimit="10" stroke-linecap="round" stroke-linejoin="round"/>
<path d="M26.3599 26.14L38.5299 6.78003" stroke="#404366" stroke-width="0.75" stroke-miterlimit="10" stroke-linecap="round" stroke-linejoin="round"/>
<path d="M25.47 32.8L23.25 31.41" stroke="#404366" stroke-width="0.75" stroke-miterlimit="10" stroke-linecap="round" stroke-linejoin="round"/>
<path d="M23.2 34.4H5.54004" stroke="#404366" stroke-width="0.75" stroke-miterlimit="10" stroke-linecap="round" stroke-linejoin="round"/>
<path d="M5.54004 30.5701H18.76" stroke="#404366" stroke-width="0.75" stroke-miterlimit="10" stroke-linecap="round" stroke-linejoin="round"/>
<path d="M5.54004 25.11H18.76" stroke="#404366" stroke-width="0.75" stroke-miterlimit="10" stroke-linecap="round" stroke-linejoin="round"/>
<path d="M13.8699 18.28H0.379883V42.22H34.2499V23.14" stroke="#404366" stroke-width="0.75" stroke-miterlimit="10" stroke-linecap="round" stroke-linejoin="round"/>
<path d="M25.1899 18.28H28.6399" stroke="#404366" stroke-width="0.75" stroke-miterlimit="10" stroke-linecap="round" stroke-linejoin="round"/>
</g>
<defs>
<clipPath id="clip0">
<rect width="45.82" height="42.59" fill="white"/>
</clipPath>
</defs>
</svg>
