<svg width="19" height="27" viewBox="0 0 19 27" fill="none" xmlns="http://www.w3.org/2000/svg">
<path d="M5.17985 26.3L1 22.1201V5.15153L5.15153 1L5.17985 26.3Z" stroke="#404366" stroke-width="0.75" stroke-linecap="round" stroke-linejoin="round"/>
<path d="M6.14844 1V26.3" stroke="#404366" stroke-width="0.75" stroke-linecap="round" stroke-linejoin="round"/>
<path d="M6.14844 4.71582H17.1361V23.7234H6.14844" stroke="#404366" stroke-width="0.75" stroke-linecap="round" stroke-linejoin="round"/>
<path d="M18.1554 5.91602V24.7933H9.64844" stroke="#404366" stroke-width="0.75" stroke-linecap="round" stroke-linejoin="round"/>
<path d="M14.8763 13.998H6.14844" stroke="#404366" stroke-width="0.75" stroke-linecap="round" stroke-linejoin="round"/>
<path d="M14.8763 15.9922H6.14844" stroke="#404366" stroke-width="0.75" stroke-linecap="round" stroke-linejoin="round"/>
<path d="M14.8763 17.9854H6.14844" stroke="#404366" stroke-width="0.75" stroke-linecap="round" stroke-linejoin="round"/>
<path d="M14.8763 19.9795H6.14844" stroke="#404366" stroke-width="0.75" stroke-linecap="round" stroke-linejoin="round"/>
<path d="M6.17651 12.2032C6.37464 11.893 6.5434 11.565 6.68059 11.2234C6.8608 10.7169 7.15094 10.2565 7.53015 9.87543C8.18148 9.411 8.5383 10.7703 9.18397 10.0737C9.35954 9.87543 9.49547 9.56959 9.82397 9.64888C10.1525 9.72817 10.2997 10.1246 10.515 10.3059C10.8604 10.6004 11.3192 10.776 11.6817 10.4192C12.0442 10.0623 12.1178 9.2864 12.2764 8.75967C12.3783 8.40852 12.4463 8.02905 12.7861 7.84214C13.0281 7.72946 13.2758 7.62927 13.5281 7.54196C13.8679 7.39471 14.1398 7.17948 14.4626 7.00391" stroke="#404366" stroke-width="0.75" stroke-linecap="round" stroke-linejoin="round"/>
<path d="M13.7888 6.6582L14.695 6.9244L14.4402 7.80228" stroke="#404366" stroke-width="0.75" stroke-linecap="round" stroke-linejoin="round"/>
</svg>
