<svg width="35" height="28" viewBox="0 0 35 28" fill="none" xmlns="http://www.w3.org/2000/svg">
<path d="M30.6594 25.8194C30.7219 25.8775 30.7715 25.9478 30.8052 26.0259C30.8388 26.104 30.8558 26.1881 30.8549 26.273C30.8549 26.4432 30.7867 26.6065 30.6652 26.7268C30.5437 26.8472 30.3789 26.9148 30.207 26.9148C30.1065 26.9148 30.0074 26.8918 29.9173 26.8477C29.8272 26.8035 29.7486 26.7394 29.6876 26.6603C29.6281 26.7396 29.5506 26.804 29.4613 26.8482C29.3721 26.8924 29.2736 26.9152 29.1738 26.9148C29.002 26.9148 28.8372 26.8472 28.7157 26.7268C28.5942 26.6065 28.5259 26.4432 28.5259 26.273C28.5234 26.2473 28.5234 26.2213 28.5259 26.1956H3.81742C3.81742 26.3663 3.74934 26.5301 3.628 26.6513C3.50666 26.7726 3.34188 26.8414 3.16954 26.8428C3.00433 26.8373 2.84791 26.7678 2.73391 26.6492C2.64396 26.7428 2.52758 26.8073 2.4 26.8343C2.27242 26.8613 2.13959 26.8495 2.01889 26.8005C1.89818 26.7515 1.79523 26.6675 1.7235 26.5596C1.65177 26.4517 1.61461 26.3248 1.61688 26.1956C1.61645 26.0967 1.63947 25.9992 1.6841 25.9108C1.72872 25.8224 1.79371 25.7456 1.8738 25.6866C1.79392 25.6262 1.72918 25.5484 1.68462 25.4591C1.64006 25.3699 1.61688 25.2717 1.61688 25.1721C1.61688 25.0019 1.68514 24.8387 1.80664 24.7184C1.92814 24.598 2.09293 24.5304 2.26476 24.5304V3.27594C2.13432 3.27818 2.00624 3.24138 1.89727 3.17033C1.7883 3.09928 1.70353 2.99731 1.65404 2.87775C1.60455 2.75819 1.59265 2.62661 1.61991 2.50025C1.64716 2.37388 1.71229 2.2586 1.80678 2.16951C1.73401 2.1105 1.67509 2.0365 1.6341 1.95266C1.59312 1.86882 1.57105 1.77715 1.56943 1.68401C1.56781 1.59088 1.58669 1.49851 1.62474 1.41332C1.66279 1.32814 1.71911 1.25218 1.78978 1.19072C1.86045 1.12927 1.94379 1.08379 2.03399 1.05745C2.12419 1.0311 2.21911 1.02453 2.31213 1.03818C2.40516 1.05182 2.49407 1.08537 2.5727 1.13648C2.65132 1.18759 2.71776 1.25505 2.76742 1.33415C2.82895 1.25464 2.90858 1.19065 2.99981 1.14739C3.09104 1.10413 3.1913 1.08283 3.29242 1.08521C3.4623 1.08811 3.62423 1.157 3.74333 1.27703C3.86242 1.39707 3.92914 1.55864 3.92912 1.72694H28.4254C28.4259 1.59896 28.4647 1.474 28.5369 1.36786C28.6091 1.26172 28.7114 1.17916 28.831 1.13061C28.9505 1.08206 29.0819 1.0697 29.2085 1.0951C29.3352 1.1205 29.4514 1.18251 29.5424 1.2733C29.6018 1.21269 29.673 1.16474 29.7518 1.13239C29.8305 1.10005 29.9151 1.08399 30.0004 1.08521C30.0864 1.08374 30.1719 1.09925 30.2518 1.13084C30.3317 1.16244 30.4044 1.20947 30.4657 1.26921C30.5271 1.32895 30.5758 1.40019 30.6091 1.47878C30.6423 1.55736 30.6595 1.64172 30.6594 1.72694C30.6594 1.82649 30.6363 1.9247 30.5917 2.01393C30.5471 2.10316 30.4824 2.18101 30.4025 2.24143C30.4826 2.30038 30.5476 2.37716 30.5922 2.46557C30.6369 2.55398 30.6599 2.65154 30.6594 2.75038C30.6582 2.91402 30.594 3.07103 30.4798 3.18929C30.3656 3.30754 30.2101 3.37812 30.0451 3.38658V24.7351C30.097 24.7294 30.1495 24.7294 30.2015 24.7351C30.287 24.7351 30.3717 24.7519 30.4507 24.7845C30.5297 24.8171 30.6013 24.8648 30.6616 24.925C30.7218 24.9852 30.7694 25.0566 30.8016 25.1351C30.8339 25.2136 30.8501 25.2976 30.8493 25.3824C30.8467 25.5471 30.7784 25.7042 30.6594 25.8194V25.8194Z" stroke="#404366" stroke-width="0.75" stroke-linecap="round" stroke-linejoin="round"/>
<path d="M27.3363 4.76367H4.9624V23.418H27.3363V4.76367Z" stroke="#404366" stroke-width="0.75" stroke-linecap="round" stroke-linejoin="round"/>
<path d="M8.80497 10.8326C8.994 11.8842 8.75535 12.9672 8.14111 13.8451C7.52687 14.723 6.58694 15.3245 5.52651 15.5184H5.40364C4.60872 15.6397 3.79533 15.5257 3.06556 15.1908C2.33578 14.8559 1.72214 14.3149 1.30164 13.6358C0.881139 12.9567 0.672517 12.1697 0.701955 11.3735C0.731394 10.5774 0.997582 9.80759 1.46711 9.16075C1.93664 8.51392 2.5886 8.01887 3.34115 7.73772C4.0937 7.45658 4.91333 7.40187 5.69716 7.58046C6.48099 7.75905 7.19411 8.16299 7.74701 8.74157C8.29991 9.32016 8.66796 10.0476 8.80497 10.8326Z" fill="white" stroke="#404366" stroke-width="0.75" stroke-linecap="round" stroke-linejoin="round"/>
<path d="M1.31519 13.6649C1.88387 14.042 2.56617 14.2139 3.24763 14.1518C3.89824 14.0813 4.53041 13.8938 5.11306 13.5985C6.02262 13.2195 6.82153 12.6203 7.43646 11.8559C7.74263 11.4707 7.95526 11.0208 8.05792 10.5412C8.16057 10.0616 8.1505 9.565 8.02848 9.08984" stroke="#404366" stroke-width="0.75" stroke-linecap="round" stroke-linejoin="round"/>
<path d="M1.01929 13.0461C1.58872 13.4215 2.27042 13.5933 2.95173 13.533C3.60181 13.4599 4.23351 13.2725 4.81716 12.9797C5.72483 12.5975 6.52298 11.9988 7.14056 11.2371C7.41001 10.8445 7.58315 10.395 7.64618 9.92433C7.7092 9.4537 7.66038 8.975 7.5036 8.52637" stroke="#404366" stroke-width="0.75" stroke-linecap="round" stroke-linejoin="round"/>
<path d="M3.06361 9.30554C3.17466 9.30554 3.26468 9.21638 3.26468 9.10638C3.26468 8.99639 3.17466 8.90723 3.06361 8.90723C2.95257 8.90723 2.86255 8.99639 2.86255 9.10638C2.86255 9.21638 2.95257 9.30554 3.06361 9.30554Z" fill="#404366"/>
<path d="M2.83998 10.3407C2.95102 10.3407 3.04104 10.2515 3.04104 10.1415C3.04104 10.0315 2.95102 9.94238 2.83998 9.94238C2.72894 9.94238 2.63892 10.0315 2.63892 10.1415C2.63892 10.2515 2.72894 10.3407 2.83998 10.3407Z" fill="#404366"/>
<path d="M3.74476 10.8104C3.85581 10.8104 3.94583 10.7213 3.94583 10.6113C3.94583 10.5013 3.85581 10.4121 3.74476 10.4121C3.63372 10.4121 3.5437 10.5013 3.5437 10.6113C3.5437 10.7213 3.63372 10.8104 3.74476 10.8104Z" fill="#404366"/>
<path d="M1.43275 11.6239C1.5438 11.6239 1.63382 11.5347 1.63382 11.4247C1.63382 11.3148 1.5438 11.2256 1.43275 11.2256C1.32171 11.2256 1.23169 11.3148 1.23169 11.4247C1.23169 11.5347 1.32171 11.6239 1.43275 11.6239Z" fill="#404366"/>
<path d="M2.7787 11.7899C2.88974 11.7899 2.97976 11.7008 2.97976 11.5908C2.97976 11.4808 2.88974 11.3916 2.7787 11.3916C2.66766 11.3916 2.57764 11.4808 2.57764 11.5908C2.57764 11.7008 2.66766 11.7899 2.7787 11.7899Z" fill="#404366"/>
<path d="M1.61122 10.3514C1.72226 10.3514 1.81228 10.2623 1.81228 10.1523C1.81228 10.0423 1.72226 9.95312 1.61122 9.95312C1.50018 9.95312 1.41016 10.0423 1.41016 10.1523C1.41016 10.2623 1.50018 10.3514 1.61122 10.3514Z" fill="#404366"/>
<path d="M3.95717 9.7323C4.06821 9.7323 4.15823 9.64313 4.15823 9.53314C4.15823 9.42315 4.06821 9.33398 3.95717 9.33398C3.84612 9.33398 3.7561 9.42315 3.7561 9.53314C3.7561 9.64313 3.84612 9.7323 3.95717 9.7323Z" fill="#404366"/>
<path d="M4.24183 8.69226C4.35288 8.69226 4.4429 8.60309 4.4429 8.4931C4.4429 8.38311 4.35288 8.29395 4.24183 8.29395C4.13079 8.29395 4.04077 8.38311 4.04077 8.4931C4.04077 8.60309 4.13079 8.69226 4.24183 8.69226Z" fill="#404366"/>
<path d="M6.0851 8.77527C6.19614 8.77527 6.28616 8.6861 6.28616 8.57611C6.28616 8.46612 6.19614 8.37695 6.0851 8.37695C5.97405 8.37695 5.88403 8.46612 5.88403 8.57611C5.88403 8.6861 5.97405 8.77527 6.0851 8.77527Z" fill="#404366"/>
<path d="M6.27504 10.9716C6.38608 10.9716 6.4761 10.8824 6.4761 10.7724C6.4761 10.6624 6.38608 10.5732 6.27504 10.5732C6.16399 10.5732 6.07397 10.6624 6.07397 10.7724C6.07397 10.8824 6.16399 10.9716 6.27504 10.9716Z" fill="#404366"/>
<path d="M6.79994 9.99206C6.91099 9.99206 7.001 9.9029 7.001 9.79291C7.001 9.68292 6.91099 9.59375 6.79994 9.59375C6.6889 9.59375 6.59888 9.68292 6.59888 9.79291C6.59888 9.9029 6.6889 9.99206 6.79994 9.99206Z" fill="#404366"/>
<path d="M9.99456 18.1517C9.72049 18.4243 9.40595 18.6538 9.06184 18.8322C8.604 19.0743 8.09958 19.2176 7.58179 19.2526L6.54296 17.4713L5.92301 16.4534L5.3645 15.5406H5.48737C6.47221 15.3708 7.3581 14.8443 7.97275 14.0635L8.41956 14.9763L8.97807 16.0827L9.99456 18.1517Z" fill="white" stroke="#404366" stroke-width="0.75" stroke-linecap="round" stroke-linejoin="round"/>
<path d="M9.99452 18.1572L10.553 19.2637L10.715 19.6011C10.8393 19.8589 10.8581 20.1542 10.7675 20.4254C10.677 20.6966 10.484 20.9226 10.2291 21.0561L9.98335 21.1888C9.7303 21.3272 9.43298 21.3629 9.15386 21.2887C8.87474 21.2144 8.63555 21.0358 8.48654 20.7905L8.21846 20.3424L7.57617 19.236C8.09396 19.2009 8.59838 19.0576 9.05622 18.8156C9.39983 18.6428 9.71596 18.421 9.99452 18.1572Z" fill="white" stroke="#404366" stroke-width="0.75" stroke-linecap="round" stroke-linejoin="round"/>
<path d="M9.99461 18.1572L10.5531 19.2637C10.2857 19.5188 9.9829 19.7349 9.65392 19.9054C9.21463 20.1382 8.73183 20.2794 8.23531 20.3203L7.59302 19.2139C8.11081 19.1788 8.61523 19.0355 9.07307 18.7934C9.40937 18.6261 9.71971 18.4118 9.99461 18.1572Z" fill="white" stroke="#404366" stroke-width="0.75" stroke-linecap="round" stroke-linejoin="round"/>
<path d="M18.3388 22.058L20.9359 20.0166C21.5049 19.5416 21.9438 18.9322 22.2123 18.2447C22.4807 17.5573 22.57 16.8139 22.4718 16.0833L21.4162 8.26635L18.2606 7.59696C17.2811 7.38626 16.2678 7.38179 15.2864 7.58383C14.305 7.78587 13.3774 8.18991 12.5638 8.76978L9.94995 10.6396L12.1337 18.2187C12.3392 18.9277 12.7217 19.5741 13.2459 20.0981C13.7701 20.6221 14.419 21.007 15.1329 21.2171L18.3388 22.058Z" fill="white"/>
<path d="M18.3388 22.058L20.9359 20.0166C21.5049 19.5416 21.9438 18.9322 22.2123 18.2447C22.4807 17.5573 22.57 16.8139 22.4718 16.0833L21.4162 8.26635L18.2606 7.59696C17.2811 7.38626 16.2678 7.38179 15.2864 7.58383C14.305 7.78587 13.3774 8.18991 12.5638 8.76978L9.94995 10.6396L12.1337 18.2187C12.3392 18.9277 12.7217 19.5741 13.2459 20.0981C13.7701 20.6221 14.419 21.007 15.1329 21.2171L18.3388 22.058" stroke="#404366" stroke-width="0.75" stroke-linecap="round" stroke-linejoin="round"/>
<path d="M14.4849 15.1205C15.0031 15.1205 15.4232 14.7044 15.4232 14.1911C15.4232 13.6778 15.0031 13.2617 14.4849 13.2617C13.9667 13.2617 13.5466 13.6778 13.5466 14.1911C13.5466 14.7044 13.9667 15.1205 14.4849 15.1205Z" fill="#404366"/>
<path d="M18.9698 14.1908C19.488 14.1908 19.9081 13.7747 19.9081 13.2614C19.9081 12.7481 19.488 12.332 18.9698 12.332C18.4516 12.332 18.0315 12.7481 18.0315 13.2614C18.0315 13.7747 18.4516 14.1908 18.9698 14.1908Z" fill="#404366"/>
<path d="M20.0141 17.4053C19.663 16.9882 19.1983 16.6796 18.6754 16.5162C18.1524 16.3528 17.5931 16.3415 17.0638 16.4836C16.5346 16.6258 16.0576 16.9153 15.6896 17.318C15.3216 17.7206 15.0779 18.2194 14.9875 18.7552C15.6326 18.0912 16.4501 17.6165 17.3501 17.3832C18.2229 17.1452 19.1455 17.1528 20.0141 17.4053Z" fill="#404366"/>
<path d="M17.5513 10.0973C17.9113 10.0686 18.2734 10.1132 18.6153 10.2284C18.9572 10.3435 19.2718 10.5267 19.5396 10.7667" stroke="#404366" stroke-width="0.75" stroke-linecap="round" stroke-linejoin="round"/>
<path d="M14.3901 10.75C14.049 10.8685 13.7356 11.054 13.4688 11.2955C13.202 11.5369 12.9872 11.8294 12.8374 12.1552" stroke="#404366" stroke-width="0.75" stroke-linecap="round" stroke-linejoin="round"/>
<path d="M24.7337 19.1313L28.1853 18.4564C28.9567 18.2843 29.6716 17.9216 30.2633 17.4022C30.8551 16.8827 31.3046 16.2234 31.5699 15.4856L34.4183 7.60784L31.7765 5.42265C30.9563 4.74934 30.0027 4.25377 28.9772 3.96792C27.9518 3.68206 26.8772 3.61226 25.8228 3.76301L22.4382 4.2609L20.7739 12.4927C20.618 13.2606 20.6602 14.055 20.8964 14.8025C21.1327 15.5499 21.5554 16.2263 22.1255 16.7691L24.7337 19.1313Z" fill="white" stroke="#404366" stroke-width="0.75" stroke-linecap="round" stroke-linejoin="round"/>
<path d="M24.8845 10.9597C25.4336 10.9597 25.8787 10.5188 25.8787 9.97496C25.8787 9.43111 25.4336 8.99023 24.8845 8.99023C24.3355 8.99023 23.8904 9.43111 23.8904 9.97496C23.8904 10.5188 24.3355 10.9597 24.8845 10.9597Z" fill="#404366"/>
<path d="M29.5703 12.2487C30.1194 12.2487 30.5645 11.8079 30.5645 11.264C30.5645 10.7202 30.1194 10.2793 29.5703 10.2793C29.0213 10.2793 28.5762 10.7202 28.5762 11.264C28.5762 11.8079 29.0213 12.2487 29.5703 12.2487Z" fill="#404366"/>
<path d="M23.2256 12.6201C23.3341 13.2828 23.6333 13.9004 24.0872 14.3989C24.5411 14.8974 25.1305 15.2557 25.7848 15.4309C26.4391 15.6061 27.1305 15.5906 27.7761 15.3865C28.4218 15.1823 28.9943 14.798 29.4251 14.2798C28.3291 14.5836 27.17 14.5836 26.074 14.2798C24.9861 14.0022 23.9991 13.4271 23.2256 12.6201Z" fill="#404366"/>
<path d="M29.6375 8.13867C29.9915 8.284 30.3116 8.49996 30.5778 8.77311C30.8439 9.04626 31.0505 9.37076 31.1845 9.72639" stroke="#404366" stroke-width="0.75" stroke-linecap="round" stroke-linejoin="round"/>
<path d="M26.3309 7.2261C25.9534 7.17028 25.5683 7.19051 25.1989 7.28557C24.8294 7.38063 24.4831 7.54856 24.1807 7.77931" stroke="#404366" stroke-width="0.75" stroke-linecap="round" stroke-linejoin="round"/>
</svg>
