<svg width="47" height="43" viewBox="0 0 47 43" fill="none" xmlns="http://www.w3.org/2000/svg">
<g clip-path="url(#clip0)">
<path d="M46.2501 9.02999C46.0701 9.86999 45.7301 10.66 45.2901 11.36C44.6701 10.86 43.7601 10.9 43.1801 11.48C42.6001 12.06 42.5601 12.97 43.0601 13.59C42.3601 14.04 41.5701 14.37 40.7301 14.55C40.6401 13.76 39.9701 13.14 39.1601 13.14C38.3501 13.14 37.6701 13.76 37.5901 14.55C36.7501 14.37 35.9701 14.04 35.2601 13.59C35.7601 12.97 35.7201 12.06 35.1401 11.48C34.5601 10.9 33.6501 10.86 33.0301 11.36C32.5801 10.66 32.2501 9.86999 32.0701 9.02999C32.8601 8.93999 33.4801 8.27 33.4801 7.46C33.4801 6.65 32.8601 5.97 32.0701 5.89C32.2501 5.05 32.5801 4.27 33.0301 3.56C33.6501 4.06 34.5601 4.02 35.1401 3.44C35.7201 2.86 35.7601 1.95 35.2501 1.33C35.9501 0.879995 36.7401 0.549995 37.5801 0.369995C37.6701 1.16 38.3401 1.78 39.1501 1.78C39.9601 1.78 40.6401 1.16 40.7201 0.369995C41.5601 0.549995 42.3401 0.889995 43.0501 1.33C42.5501 1.95 42.5901 2.86 43.1601 3.44C43.7401 4.02 44.6501 4.06 45.2701 3.56C45.7201 4.26 46.0501 5.05 46.2301 5.89C45.4401 5.98 44.8201 6.65 44.8201 7.46C44.8401 8.28 45.4601 8.94999 46.2501 9.02999Z" stroke="#404366" stroke-width="0.75" stroke-miterlimit="10" stroke-linecap="round" stroke-linejoin="round"/>
<path d="M39.1602 11.14C41.1926 11.14 42.8402 9.49244 42.8402 7.46003C42.8402 5.42762 41.1926 3.78003 39.1602 3.78003C37.1278 3.78003 35.4802 5.42762 35.4802 7.46003C35.4802 9.49244 37.1278 11.14 39.1602 11.14Z" stroke="#404366" stroke-width="0.75" stroke-miterlimit="10" stroke-linecap="round" stroke-linejoin="round"/>
<path d="M14.5501 24.5901C14.3701 25.4301 14.0301 26.2201 13.5901 26.9201C12.9701 26.4201 12.0601 26.4601 11.4801 27.0401C10.9001 27.6201 10.8601 28.5301 11.3601 29.1501C10.6601 29.6001 9.87012 29.9301 9.03012 30.1101C8.94012 29.3201 8.27012 28.7001 7.46012 28.7001C6.65012 28.7001 5.97012 29.3201 5.89012 30.1101C5.05012 29.9301 4.27012 29.6001 3.56012 29.1501C4.06012 28.5301 4.02012 27.6201 3.44012 27.0401C2.86012 26.4601 1.95012 26.4201 1.33012 26.9201C0.880117 26.2201 0.550117 25.4301 0.370117 24.5901C1.16012 24.5001 1.78012 23.8301 1.78012 23.0201C1.78012 22.2101 1.16012 21.5301 0.370117 21.4501C0.550117 20.6101 0.880117 19.8301 1.33012 19.1201C1.95012 19.6201 2.86012 19.5801 3.44012 19.0001C4.02012 18.4201 4.06012 17.5101 3.55012 16.8901C4.25012 16.4401 5.04012 16.1101 5.88012 15.9301C5.97012 16.7201 6.64012 17.3401 7.45012 17.3401C8.26012 17.3401 8.94012 16.7201 9.02012 15.9301C9.86012 16.1101 10.6401 16.4501 11.3501 16.8901C10.8501 17.5101 10.8901 18.4201 11.4601 19.0001C12.0401 19.5801 12.9501 19.6201 13.5701 19.1201C14.0201 19.8201 14.3501 20.6101 14.5301 21.4501C13.7401 21.5401 13.1201 22.2101 13.1201 23.0201C13.1401 23.8301 13.7601 24.5101 14.5501 24.5901Z" stroke="#404366" stroke-width="0.75" stroke-miterlimit="10" stroke-linecap="round" stroke-linejoin="round"/>
<path d="M7.46011 26.12C9.17219 26.12 10.5601 24.7321 10.5601 23.02C10.5601 21.308 9.17219 19.92 7.46011 19.92C5.74802 19.92 4.36011 21.308 4.36011 23.02C4.36011 24.7321 5.74802 26.12 7.46011 26.12Z" stroke="#404366" stroke-width="0.75" stroke-miterlimit="10" stroke-linecap="round" stroke-linejoin="round"/>
<path d="M37.8201 22.01C37.8201 22.16 37.8201 22.3 37.8101 22.44C36.9501 22.34 36.1401 22.93 35.9701 23.79C35.8101 24.66 36.3401 25.5 37.1901 25.72C37.0201 26.22 36.8001 26.71 36.5601 27.18C36.2201 26.97 35.8401 26.9 35.4701 26.94L33.4301 24.79L34.3501 21.9C34.9101 20.09 34.4801 18.12 33.2101 16.72L32.4501 15.85C31.3001 14.74 28.8701 13.72 26.9201 14.16L26.6501 14.22C26.1301 14.34 25.9201 14.97 26.2701 15.37C27.1701 16.41 27.2601 16.44 27.3201 16.54L30.0401 19.51C30.3401 19.83 30.4401 20.29 30.3101 20.71L30.1201 21.29L29.3001 23.87C29.1701 24.29 28.8201 24.6 28.3901 24.7L25.1501 25.42C24.7201 25.51 24.2801 25.37 23.9801 25.05L21.2601 22.08L20.1401 20.83C19.7801 20.41 19.1001 20.55 18.9301 21.08L18.7601 21.62C18.1601 23.52 18.9901 25.33 20.0701 26.96L20.9201 27.97C22.2001 29.37 24.1201 29.97 25.9701 29.57L28.8201 28.94L30.6501 30.86C30.3001 31.34 30.2101 31.99 30.4701 32.56C29.9801 32.74 29.4701 32.89 28.9401 33C28.8201 32.14 28.0601 31.5 27.1801 31.56C26.3001 31.62 25.6201 32.34 25.6101 33.21C25.0801 33.17 24.5501 33.08 24.0401 32.97C24.3001 32.14 23.8801 31.23 23.0501 30.91C22.2301 30.59 21.3001 30.96 20.9301 31.74C20.4701 31.47 20.0301 31.18 19.6201 30.85C20.2001 30.21 20.2101 29.21 19.6001 28.57C19.0001 27.93 18.0001 27.87 17.3301 28.42C17.0301 27.99 16.7601 27.53 16.5201 27.05C17.3301 26.72 17.7501 25.82 17.4801 24.98C17.2001 24.14 16.3301 23.66 15.4801 23.87C15.4001 23.35 15.3401 22.82 15.3401 22.29C16.2101 22.34 16.9801 21.7 17.0901 20.82C17.2001 19.94 16.6101 19.14 15.7501 18.97C15.9401 18.3 16.1801 17.66 16.4901 17.05C17.2701 17.49 18.2501 17.25 18.7401 16.49C19.2001 15.77 19.0301 14.84 18.4001 14.31C18.7901 13.9 19.2101 13.51 19.6601 13.16C20.1601 13.93 21.1801 14.15 21.9601 13.65C22.6901 13.19 22.9401 12.26 22.5701 11.51C23.2501 11.25 23.9601 11.05 24.7001 10.93C24.7701 11.78 25.4901 12.45 26.3701 12.45C27.2601 12.45 27.9901 11.75 28.0401 10.86C28.6501 10.94 29.2401 11.07 29.8201 11.24C29.5001 12.05 29.8601 12.98 30.6701 13.36C31.4701 13.73 32.4201 13.42 32.8501 12.66C33.2901 12.95 33.7101 13.28 34.1101 13.64C33.4801 14.24 33.4101 15.24 33.9701 15.92C34.5301 16.6 35.5201 16.72 36.2301 16.21C36.5101 16.66 36.7501 17.13 36.9601 17.62C36.1301 17.9 35.6501 18.77 35.8701 19.63C36.0901 20.49 36.9301 21.02 37.7901 20.87C37.8001 21.23 37.8201 21.61 37.8201 22.01Z" stroke="#404366" stroke-width="0.75" stroke-miterlimit="10" stroke-linecap="round" stroke-linejoin="round"/>
<path d="M26.8001 18.1801L23.7701 18.8501L22.8401 21.8101L24.9301 24.0901L27.9601 23.4201L28.8901 20.4701L26.8001 18.1801Z" stroke="#404366" stroke-width="0.75" stroke-miterlimit="10" stroke-linecap="round" stroke-linejoin="round"/>
<path d="M45.12 41.6C43.88 42.78 41.92 42.73 40.75 41.49L30.65 30.86L28.82 28.94L25.97 29.57C24.12 29.98 22.2 29.37 20.92 27.97L20.07 26.96C18.99 25.34 18.16 23.53 18.76 21.62L18.93 21.08C19.1 20.55 19.78 20.41 20.14 20.83L21.26 22.08L23.98 25.05C24.27 25.37 24.72 25.51 25.15 25.42L28.39 24.7C28.82 24.61 29.16 24.29 29.3 23.87L30.12 21.29L30.31 20.71C30.44 20.29 30.34 19.83 30.04 19.51L27.32 16.54C27.26 16.44 27.18 16.41 26.27 15.37C25.92 14.97 26.13 14.33 26.65 14.22L26.92 14.16C28.87 13.73 31.29 14.74 32.45 15.85L33.21 16.72C34.48 18.12 34.92 20.09 34.35 21.9L33.43 24.79L35.47 26.94L45.24 37.22C46.41 38.46 46.36 40.42 45.12 41.6Z" stroke="#404366" stroke-width="0.75" stroke-miterlimit="10" stroke-linecap="round" stroke-linejoin="round"/>
</g>
<defs>
<clipPath id="clip0">
<rect width="46.62" height="42.82" fill="white"/>
</clipPath>
</defs>
</svg>
