<svg width="34" height="22" viewBox="0 0 34 22" fill="none" xmlns="http://www.w3.org/2000/svg">
<path d="M11.2902 14.3349C11.1866 14.7671 11.1871 15.2176 11.2917 15.6495C11.3962 16.0815 11.6017 16.4824 11.8914 16.8194C12.93 17.9722 14.6095 17.9623 15.3349 18.0467C15.5262 18.079 15.6993 18.1792 15.8225 18.3289C15.9458 18.4786 16.0108 18.6678 16.0058 18.8616V21.3809H18.4306L18.1225 18.0865C18.1225 18.0865 20.607 19.0803 22.0182 17.5001C23.4294 15.92 22.4257 13.8877 22.4257 13.8877" stroke="#404366" stroke-width="0.75" stroke-linecap="round" stroke-linejoin="round"/>
<path d="M22.7187 14.7724C23.089 14.8011 23.4593 14.7174 23.7811 14.5322C24.103 14.347 24.3614 14.0688 24.5225 13.7342C24.6837 13.3996 24.74 13.0242 24.6841 12.657C24.6282 12.2899 24.4628 11.9482 24.2094 11.6767C24.2094 11.6767 25.3523 8.25804 22.3808 6.21082C21.5383 5.61206 20.5613 5.22994 19.5361 5.09822C18.5109 4.9665 17.4691 5.08921 16.5025 5.45554C16.3042 5.25383 16.058 5.10566 15.7869 5.02485C15.5158 4.94404 15.2286 4.93323 14.9522 4.99343C14.6016 5.08206 14.298 5.301 14.1032 5.60566C13.9084 5.91032 13.8371 6.27777 13.9038 6.63319" stroke="#404366" stroke-width="0.75" stroke-linecap="round" stroke-linejoin="round"/>
<path d="M7.93213 13.7529C8.02569 14.33 8.25457 14.8766 8.60004 15.3482C8.9455 15.8198 9.39774 16.2028 9.91972 16.466C10.5443 16.7401 11.2278 16.8529 11.9073 16.7939" stroke="#404366" stroke-width="0.75" stroke-linecap="round" stroke-linejoin="round"/>
<path d="M11.5195 13.6535C11.6836 13.2412 11.9482 12.8765 12.2893 12.5927C12.6304 12.3089 13.0371 12.1149 13.4723 12.0286C14.1222 11.9616 14.7777 11.9716 15.4251 12.0584C15.7492 12.1006 16.0784 12.0784 16.3939 11.9931C16.7094 11.9079 17.005 11.7612 17.2637 11.5615" stroke="#404366" stroke-width="0.75" stroke-linecap="round" stroke-linejoin="round"/>
<path d="M6.69482 10.2447C6.99194 10.2304 7.28879 10.2778 7.56671 10.3839C7.84463 10.4899 8.09761 10.6523 8.30974 10.8608C8.69609 11.2588 8.98965 11.7373 9.16937 12.2621" stroke="#404366" stroke-width="0.75" stroke-linecap="round" stroke-linejoin="round"/>
<path d="M10.083 5.93652C10.0858 6.27073 10.1679 6.59949 10.3225 6.89578C10.4772 7.19208 10.6999 7.44744 10.9725 7.64088C10.7764 7.76324 10.6127 7.93094 10.4951 8.12984C10.3775 8.32875 10.3094 8.55302 10.2967 8.78374" stroke="#404366" stroke-width="0.75" stroke-linecap="round" stroke-linejoin="round"/>
<path d="M8.49805 10.9452C8.77823 10.6671 9.14424 10.492 9.53656 10.4483C9.9321 10.425 10.3235 10.5391 10.6446 10.7713" stroke="#404366" stroke-width="0.75" stroke-linecap="round" stroke-linejoin="round"/>
<path d="M18.8335 5.06696C19.2187 5.05156 19.5996 5.15258 19.9265 5.35686C20.2534 5.56114 20.5112 5.8592 20.6662 6.21215C20.8213 6.56511 20.8663 6.95659 20.7956 7.33554C20.7248 7.71449 20.5415 8.06332 20.2695 8.33654C20.6355 8.51678 20.9423 8.79778 21.154 9.14649C21.2511 9.326 21.2994 9.52782 21.2942 9.73183C21.2889 9.93584 21.2303 10.1349 21.1242 10.3092" stroke="#404366" stroke-width="0.75" stroke-linecap="round" stroke-linejoin="round"/>
<path d="M17.6411 10.6722H20.3691V13.5244H17.6411V16.2524H14.7939V13.5244H12.0659V10.6722H14.7939V7.94922H17.6411V10.6722Z" fill="white" stroke="#404366" stroke-width="0.75" stroke-linecap="round" stroke-linejoin="round"/>
<path d="M23.5439 12.571C23.8409 12.3083 24.0825 11.989 24.2545 11.6318" stroke="#404366" stroke-width="0.75" stroke-linecap="round" stroke-linejoin="round"/>
<path d="M23.3345 7.06934C23.59 7.35117 23.7392 7.7133 23.7565 8.09334C23.7737 8.47338 23.6579 8.84753 23.4289 9.15134" stroke="#404366" stroke-width="0.75" stroke-linecap="round" stroke-linejoin="round"/>
<path d="M22.1724 9.38102C22.3665 9.25566 22.5877 9.17816 22.8176 9.15489C23.0476 9.13161 23.2798 9.16323 23.4951 9.24714C23.7105 9.33105 23.9028 9.46486 24.0564 9.63757C24.21 9.81028 24.3204 10.017 24.3786 10.2407" stroke="#404366" stroke-width="0.75" stroke-linecap="round" stroke-linejoin="round"/>
<path d="M16.7821 5.33496C16.6309 5.38812 16.4939 5.47538 16.3819 5.58999C16.2699 5.7046 16.1858 5.84347 16.1361 5.99583C16.0901 6.14969 16.0921 6.3139 16.1418 6.46659C16.1916 6.61928 16.2866 6.7532 16.4144 6.8505C16.6684 6.98621 16.9583 7.04002 17.2442 7.00453" stroke="#404366" stroke-width="0.75" stroke-linecap="round" stroke-linejoin="round"/>
<path d="M14.322 5.30511C13.3941 5.13403 12.4405 5.16137 11.5239 5.38533C10.6074 5.60929 9.7486 6.02478 9.00415 6.60448C8.25969 7.18418 7.64642 7.91494 7.20469 8.74868C6.76295 9.58242 6.50276 10.5003 6.44123 11.4418C6.367 12.2731 6.51266 13.1094 6.86359 13.8666C7.04192 14.2431 7.29656 14.5784 7.61134 14.8513C7.92612 15.1242 8.29418 15.3286 8.69217 15.4517" stroke="#404366" stroke-width="0.75" stroke-linecap="round" stroke-linejoin="round"/>
<path d="M24.7074 10.9053C25.5899 9.77442 26.702 8.84344 27.9704 8.17366C29.2389 7.50389 30.6349 7.11054 32.0664 7.01953C32.1351 8.72778 31.7766 10.4262 31.0235 11.961C30.2704 13.4958 29.1465 14.8186 27.7534 15.8096C25.0552 17.673 21.5372 18.1898 19.0825 20.3562" stroke="#404366" stroke-width="0.75" stroke-linecap="round" stroke-linejoin="round"/>
<path d="M29.7452 14.8018C30.8457 14.8975 31.9352 15.0938 32.9999 15.3881C31.6672 17.056 29.8629 18.2837 27.8222 18.9111C25.775 19.5869 23.5439 19.5372 21.0098 19.4378" stroke="#404366" stroke-width="0.75" stroke-linecap="round" stroke-linejoin="round"/>
<path d="M6.16253 13.4649C4.96818 12.3472 4.08128 10.9411 3.58703 9.38179C3.09277 7.82245 3.00776 6.16222 3.34015 4.56055C4.79259 5.12063 6.12613 5.95009 7.27061 7.00528" stroke="#404366" stroke-width="0.75" stroke-linecap="round" stroke-linejoin="round"/>
<path d="M4.61741 12.6246C3.39375 12.5265 2.16292 12.6787 1 13.0718C2.51554 14.8507 3.98138 16.6495 6.05344 17.7576C9.06961 19.3824 12.6721 18.5079 15.5541 20.3563" stroke="#404366" stroke-width="0.75" stroke-linecap="round" stroke-linejoin="round"/>
<path d="M25.8945 7.01064C25.5974 5.86165 25.731 4.64365 26.2702 3.5864C26.8093 2.52915 27.7167 1.70574 28.8212 1.27148C28.9603 2.5982 28.9305 3.96964 28.2249 5.09759C27.6187 6.06654 26.8833 6.42928 25.8945 7.01064Z" stroke="#404366" stroke-width="0.75" stroke-linecap="round" stroke-linejoin="round"/>
<path d="M24.553 5.49936C23.7813 5.04943 23.1837 4.3527 22.8564 3.52154C22.5292 2.69037 22.4914 1.77322 22.7492 0.917969C23.5049 1.38383 24.0892 2.08215 24.4144 2.90816C24.7396 3.73417 24.7882 4.64336 24.553 5.49936V5.49936Z" stroke="#404366" stroke-width="0.75" stroke-linecap="round" stroke-linejoin="round"/>
</svg>
