<svg width="37" height="25" viewBox="0 0 37 25" fill="none" xmlns="http://www.w3.org/2000/svg">
<path d="M10.3677 6.56445V22.8729C10.3669 23.0206 10.3954 23.167 10.4513 23.3037C10.5073 23.4404 10.5898 23.5647 10.694 23.6694C10.7982 23.7741 10.922 23.8572 11.0584 23.914C11.1948 23.9707 11.3411 23.9998 11.4888 23.9998H25.6718C25.8195 23.9998 25.9658 23.9707 26.1022 23.914C26.2386 23.8572 26.3625 23.7741 26.4666 23.6694C26.5708 23.5647 26.6533 23.4404 26.7093 23.3037C26.7653 23.167 26.7937 23.0206 26.7929 22.8729V6.56445H10.3677Z" stroke="#404366" stroke-width="0.75" stroke-linecap="round" stroke-linejoin="round"/>
<path d="M8.74471 18.0906C7.16908 17.4021 5.80672 16.304 4.79934 14.9105C3.79196 13.517 3.17637 11.879 3.0166 10.167C4.75338 10.5655 6.29264 11.5669 7.36085 12.9931C8.4022 14.479 8.89169 16.2821 8.74471 18.0906Z" stroke="#404366" stroke-width="0.75" stroke-linecap="round" stroke-linejoin="round"/>
<path d="M7.79862 21.6821C7.15475 20.5187 6.15366 19.5934 4.94333 19.0428C3.73077 18.4994 2.3756 18.3602 1.07788 18.6458C1.27339 19.2814 1.59491 19.8711 2.02328 20.3797C2.45165 20.8883 2.97807 21.3054 3.57115 21.6062C4.92135 22.1587 6.42946 22.1858 7.79862 21.6821V21.6821Z" stroke="#404366" stroke-width="0.75" stroke-linecap="round" stroke-linejoin="round"/>
<path d="M28.7902 18.0906C30.3659 17.4014 31.7284 16.3032 32.7367 14.91C33.7449 13.5167 34.3621 11.8791 34.5242 10.167C32.7862 10.5627 31.246 11.5646 30.1799 12.9931C29.137 14.4785 28.6454 16.2814 28.7902 18.0906V18.0906Z" stroke="#404366" stroke-width="0.75" stroke-linecap="round" stroke-linejoin="round"/>
<path d="M29.7361 21.6815C30.3783 20.5134 31.3827 19.5856 32.5981 19.0379C33.8134 18.4903 35.1738 18.3525 36.4743 18.6452C36.2779 19.2812 35.9553 19.871 35.526 20.3797C35.0966 20.8883 34.5692 21.3052 33.9752 21.6056C32.6216 22.1612 31.1087 22.1883 29.7361 21.6815V21.6815Z" stroke="#404366" stroke-width="0.75" stroke-linecap="round" stroke-linejoin="round"/>
<path d="M27.6689 4.46802V5.811C27.6701 5.95659 27.6287 6.09935 27.5498 6.22175C27.471 6.34415 27.3581 6.44087 27.2251 6.50001C27.1275 6.54257 27.0221 6.56444 26.9156 6.56424H9.91233C9.80979 6.56285 9.70855 6.54102 9.61454 6.50001C9.4815 6.44087 9.36864 6.34415 9.2898 6.22175C9.21097 6.09935 9.1696 5.95659 9.17078 5.811V4.46802C9.16766 4.36841 9.18449 4.26919 9.22029 4.17618C9.25609 4.08318 9.31012 3.99827 9.37922 3.92645C9.44831 3.85464 9.53107 3.79737 9.62262 3.75801C9.71418 3.71865 9.81268 3.698 9.91233 3.69727H26.9156C27.016 3.69724 27.1154 3.71729 27.208 3.75623C27.3005 3.79518 27.3844 3.85223 27.4545 3.92404C27.5247 3.99585 27.5798 4.08097 27.6166 4.17439C27.6534 4.2678 27.6712 4.36764 27.6689 4.46802V4.46802Z" stroke="#404366" stroke-width="0.75" stroke-linecap="round" stroke-linejoin="round"/>
<path d="M24.2123 3.69768H12.6218C14.3602 2.61308 16.3681 2.03809 18.4171 2.03809C20.4661 2.03809 22.4739 2.61308 24.2123 3.69768V3.69768Z" stroke="#404366" stroke-width="0.75" stroke-linecap="round" stroke-linejoin="round"/>
<path d="M18.6069 1H17.9004V2.06271H18.6069V1Z" stroke="#404366" stroke-width="0.75" stroke-linecap="round" stroke-linejoin="round"/>
<path d="M20.4345 20.3447C20.3413 20.3461 20.2498 20.3196 20.1718 20.2687C20.0937 20.2177 20.0327 20.1445 19.9966 20.0585L19.4711 18.8907C19.4406 18.8178 19.4284 18.7385 19.4356 18.6598C19.4428 18.581 19.4691 18.5053 19.5123 18.4391C19.5555 18.3728 19.6142 18.3182 19.6834 18.2799C19.7525 18.2416 19.83 18.2207 19.909 18.2192H21.6607C21.7713 18.2237 21.881 18.1989 21.979 18.1475C22.0769 18.0961 22.1596 18.0199 22.2188 17.9264C22.278 17.8329 22.3115 17.7255 22.316 17.615C22.3206 17.5045 22.2959 17.3947 22.2446 17.2967L21.2929 15.5508C21.2634 15.4952 21.2451 15.4343 21.2391 15.3717C21.2331 15.309 21.2395 15.2458 21.2579 15.1856C21.2763 15.1254 21.3065 15.0695 21.3465 15.0209C21.3866 14.9724 21.4358 14.9322 21.4914 14.9027C21.547 14.8731 21.6079 14.8549 21.6705 14.8489C21.7332 14.8429 21.7964 14.8493 21.8566 14.8677C21.9168 14.8861 21.9727 14.9162 22.0213 14.9563C22.0698 14.9964 22.11 15.0456 22.1395 15.1012L23.0563 16.8529C23.1871 17.0947 23.2528 17.3664 23.2467 17.6412C23.2406 17.9161 23.163 18.1846 23.0216 18.4203C22.8801 18.656 22.6797 18.8509 22.4401 18.9856C22.2004 19.1203 21.9298 19.1902 21.6549 19.1885H20.6447L20.8725 19.7024C20.9219 19.8187 20.9239 19.9497 20.8781 20.0676C20.8323 20.1854 20.7423 20.2806 20.6272 20.333C20.5646 20.3506 20.4989 20.3546 20.4345 20.3447Z" fill="#404366"/>
<path d="M19.9088 19.1597C19.8363 19.1582 19.7649 19.1423 19.6986 19.113C19.5858 19.0554 19.5 18.9559 19.4596 18.8359C19.4192 18.7158 19.4275 18.5848 19.4825 18.4707L20.1248 17.1277C20.1851 17.0218 20.2835 16.9429 20.3999 16.907C20.5164 16.8711 20.6421 16.8809 20.7516 16.9346C20.861 16.9882 20.9459 17.0815 20.9889 17.1955C21.0319 17.3095 21.0299 17.4356 20.9831 17.5481L20.3409 18.8794C20.3019 18.9616 20.2409 19.0314 20.1646 19.0809C20.0883 19.1304 19.9997 19.1577 19.9088 19.1597Z" fill="#404366"/>
<path d="M16.7205 14.0858C16.6349 14.0868 16.5507 14.0646 16.4768 14.0216C16.4028 13.9786 16.3419 13.9163 16.3006 13.8414C16.2593 13.7665 16.239 13.6818 16.242 13.5963C16.245 13.5108 16.2711 13.4277 16.3176 13.3559L17.3511 11.6918C17.4917 11.4622 17.6892 11.2728 17.9245 11.1418C18.1598 11.0109 18.4248 10.9429 18.6941 10.9444C18.968 10.9472 19.2365 11.0214 19.473 11.1597C19.7095 11.2979 19.9059 11.4954 20.0429 11.7326L20.5626 12.6202L20.8896 12.1706C20.967 12.0684 21.0819 12.0011 21.2089 11.9836C21.3359 11.966 21.4647 11.9997 21.5669 12.0771C21.6691 12.1546 21.7364 12.2694 21.7539 12.3964C21.7714 12.5235 21.7377 12.6523 21.6603 12.7545L20.9012 13.7997C20.8569 13.8661 20.7956 13.9195 20.7238 13.9544C20.652 13.9892 20.5721 14.0044 20.4925 13.9982C20.4127 13.9932 20.3354 13.9688 20.2672 13.927C20.199 13.8853 20.1421 13.8275 20.1013 13.7588L19.2138 12.2348C19.161 12.1399 19.0841 12.0607 18.9907 12.0053C18.8973 11.9499 18.791 11.9203 18.6824 11.9195C18.5738 11.9176 18.4666 11.9441 18.3714 11.9964C18.2762 12.0486 18.1962 12.1247 18.1394 12.2173L17.1059 13.8872C17.0614 13.948 17.0035 13.9975 16.9366 14.032C16.8697 14.0665 16.7957 14.0849 16.7205 14.0858Z" fill="#404366"/>
<path d="M19.0391 14.0797C18.9213 14.0708 18.8109 14.0186 18.7292 13.9331C18.6475 13.8477 18.6003 13.7351 18.5967 13.6169C18.593 13.4988 18.6332 13.3835 18.7095 13.2932C18.7858 13.2029 18.8928 13.1441 19.0099 13.1279L20.5047 13.0403C20.5676 13.0357 20.6308 13.0436 20.6906 13.0634C20.7505 13.0832 20.8058 13.1146 20.8535 13.1558C20.9013 13.197 20.9404 13.2472 20.9687 13.3035C20.997 13.3599 21.014 13.4212 21.0186 13.4841C21.0232 13.547 21.0153 13.6102 20.9955 13.67C20.9757 13.7299 20.9443 13.7852 20.9031 13.8329C20.8619 13.8806 20.8117 13.9198 20.7554 13.9481C20.699 13.9764 20.6377 13.9933 20.5748 13.9979L19.0742 14.103L19.0391 14.0797Z" fill="#404366"/>
<path d="M17.4389 19.16H15.4536C15.1799 19.159 14.911 19.0872 14.6732 18.9517C14.4353 18.8161 14.2365 18.6214 14.0961 18.3864C13.9557 18.1514 13.8784 17.884 13.8717 17.6103C13.8651 17.3367 13.9293 17.0659 14.0581 16.8243L14.5427 15.9134L13.9588 15.8726C13.8961 15.8682 13.8349 15.8513 13.7788 15.823C13.7227 15.7946 13.6728 15.7554 13.632 15.7076C13.5913 15.6597 13.5604 15.6042 13.5414 15.5443C13.5223 15.4844 13.5153 15.4213 13.5209 15.3587C13.5246 15.2963 13.5407 15.2352 13.5685 15.1791C13.5962 15.1231 13.6349 15.0731 13.6822 15.0323C13.7296 14.9914 13.7847 14.9605 13.8443 14.9414C13.9038 14.9222 13.9666 14.9152 14.0289 14.9208L15.3193 15.0142C15.399 15.0191 15.4762 15.044 15.5436 15.0867C15.6111 15.1294 15.6666 15.1885 15.7051 15.2584C15.7436 15.3283 15.7637 15.4069 15.7636 15.4867C15.7636 15.5665 15.7433 15.645 15.7047 15.7149L14.8756 17.2739C14.8231 17.3717 14.7974 17.4816 14.8009 17.5924C14.8045 17.7033 14.8373 17.8113 14.8959 17.9055C14.9545 17.9996 15.037 18.0767 15.1349 18.1288C15.2328 18.1809 15.3428 18.2063 15.4536 18.2024H17.4389C17.5654 18.2039 17.6863 18.2548 17.7758 18.3443C17.8653 18.4337 17.9162 18.5546 17.9177 18.6812C17.9177 18.8081 17.8673 18.9299 17.7775 19.0197C17.6877 19.1095 17.5659 19.16 17.4389 19.16Z" fill="#404366"/>
<path d="M16.2126 17.1924C16.1363 17.1928 16.061 17.1751 15.9929 17.1405C15.9249 17.106 15.866 17.0557 15.8214 16.9938L14.9455 15.7735C14.8681 15.6713 14.8344 15.5425 14.8519 15.4155C14.8695 15.2884 14.9367 15.1736 15.0389 15.0962C15.1411 15.0187 15.2699 14.9851 15.397 15.0026C15.524 15.0201 15.6388 15.0874 15.7163 15.1896L16.6213 16.4333C16.6728 16.5046 16.7037 16.5887 16.7105 16.6764C16.7173 16.764 16.6999 16.8519 16.6601 16.9303C16.6203 17.0087 16.5596 17.0747 16.4848 17.1209C16.41 17.1671 16.3239 17.1919 16.2359 17.1924H16.2126Z" fill="#404366"/>
<path d="M5.48071 24H31.6805" stroke="#404366" stroke-width="0.75" stroke-linecap="round" stroke-linejoin="round"/>
<path d="M14.1865 8.14062V12.5491" stroke="#404366" stroke-width="0.75" stroke-linecap="round" stroke-linejoin="round"/>
<path d="M23.2605 8.14062V12.5491" stroke="#404366" stroke-width="0.75" stroke-linecap="round" stroke-linejoin="round"/>
<path d="M18.5659 8.14062V9.62374" stroke="#404366" stroke-width="0.75" stroke-linecap="round" stroke-linejoin="round"/>
<path d="M14.1865 22.6633V19.6328" stroke="#404366" stroke-width="0.75" stroke-linecap="round" stroke-linejoin="round"/>
<path d="M23.2605 22.6633V19.6328" stroke="#404366" stroke-width="0.75" stroke-linecap="round" stroke-linejoin="round"/>
<path d="M18.5659 22.6628V21.1855" stroke="#404366" stroke-width="0.75" stroke-linecap="round" stroke-linejoin="round"/>
</svg>
