<svg width="27" height="30" viewBox="0 0 27 30" fill="none" xmlns="http://www.w3.org/2000/svg">
<path d="M20.6119 7.5175L20.1223 9.10094C19.9699 9.59658 19.7214 10.0574 19.391 10.457C19.0605 10.8566 18.6546 11.1872 18.1963 11.4299C17.7381 11.6726 17.2366 11.8227 16.7203 11.8716C16.2041 11.9205 15.6833 11.8672 15.1877 11.7148C14.692 11.5624 14.2312 11.3139 13.8316 10.9835C13.432 10.653 13.1014 10.2471 12.8587 9.78885C12.616 9.33063 12.4659 8.82908 12.417 8.31285C12.3681 7.79662 12.4214 7.27581 12.5738 6.78017L12.9364 5.60165C13.9139 5.25098 14.8635 4.82671 15.7769 4.33248C16.5276 3.97501 17.201 3.47403 17.7592 2.85782C17.7851 2.8249 17.8198 2.79992 17.8592 2.78572C17.8985 2.77151 17.9411 2.76866 17.9821 2.77747C18.023 2.78629 18.0607 2.80643 18.0907 2.83559C18.1208 2.86476 18.142 2.90178 18.1521 2.94243C18.5167 4.67162 19.3705 6.25964 20.6119 7.5175V7.5175Z" stroke="#404366" stroke-width="0.75" stroke-linecap="round" stroke-linejoin="round"/>
<path d="M6.16726 18.3657C6.16726 18.3657 4.76512 16.5526 6.26395 13.5307C7.76279 10.5089 10.7484 8.81061 11.4011 6.56841L12.0417 4.48334C12.2314 3.86379 12.5415 3.28777 12.9542 2.78826C13.3669 2.28875 13.8742 1.87558 14.4468 1.57241C15.0194 1.26925 15.6463 1.08205 16.2914 1.02153C16.9365 0.961014 17.5872 1.02838 18.2063 1.21975V1.21975C19.4568 1.60445 20.5035 2.46972 21.1165 3.62555C21.7296 4.78137 21.8588 6.13326 21.4759 7.38431L20.8353 9.46938C20.6736 10.0956 20.6529 10.75 20.7748 11.3852" stroke="#404366" stroke-width="0.75" stroke-miterlimit="10"/>
<path d="M12.0537 5.89795C12.3499 5.80729 12.6581 5.71059 12.9361 5.60181C13.9136 5.25114 14.8632 4.82687 15.7766 4.33263C16.6682 3.93234 17.4408 3.30763 18.0188 2.51953" stroke="#404366" stroke-width="0.75" stroke-linecap="round" stroke-linejoin="round"/>
<path d="M18.0737 2.51953C18.3788 4.40922 19.2662 6.15653 20.6121 7.51765C20.8286 7.73131 21.0566 7.93306 21.295 8.12202" stroke="#404366" stroke-width="0.75" stroke-linecap="round" stroke-linejoin="round"/>
<path d="M16.0492 6.88811C15.9473 7.00325 15.8122 7.08397 15.6626 7.11917C15.5129 7.15437 15.3561 7.1423 15.2136 7.08463C15.071 7.02697 14.9499 6.92654 14.8669 6.79718C14.7838 6.66782 14.7429 6.51588 14.7498 6.3623" stroke="#404366" stroke-width="0.75" stroke-miterlimit="10"/>
<path d="M18.7628 7.99553C18.6589 8.11283 18.5207 8.19459 18.3679 8.22928C18.215 8.26397 18.0551 8.24986 17.9107 8.18892C17.7728 8.12745 17.6565 8.02608 17.5768 7.89789C17.4971 7.7697 17.4576 7.62057 17.4635 7.46973" stroke="#404366" stroke-width="0.75" stroke-miterlimit="10"/>
<path d="M15.0156 9.24512C15.2319 9.47497 15.4963 9.65427 15.7898 9.77022C16.0834 9.88618 16.3989 9.93595 16.7139 9.91597" stroke="#404366" stroke-width="0.75" stroke-miterlimit="10" stroke-linecap="round"/>
<path d="M22.2373 18.4326C23.953 18.4326 25.3438 17.0418 25.3438 15.3262C25.3438 13.6105 23.953 12.2197 22.2373 12.2197C20.5217 12.2197 19.1309 13.6105 19.1309 15.3262C19.1309 17.0418 20.5217 18.4326 22.2373 18.4326Z" stroke="#404366" stroke-width="0.75" stroke-miterlimit="10"/>
<path d="M21.2831 14.3103C21.4667 14.3103 21.6155 14.1615 21.6155 13.9779C21.6155 13.7943 21.4667 13.6455 21.2831 13.6455C21.0995 13.6455 20.9507 13.7943 20.9507 13.9779C20.9507 14.1615 21.0995 14.3103 21.2831 14.3103Z" fill="#F90000"/>
<path d="M22.8602 15.7058C23.0438 15.7058 23.1926 15.557 23.1926 15.3734C23.1926 15.1898 23.0438 15.041 22.8602 15.041C22.6767 15.041 22.5278 15.1898 22.5278 15.3734C22.5278 15.557 22.6767 15.7058 22.8602 15.7058Z" fill="#F90000"/>
<path d="M20.6714 15.374C20.6752 15.5529 20.7391 15.7253 20.8527 15.8636C20.9681 16.0013 21.1288 16.0935 21.306 16.1234" stroke="#404366" stroke-width="0.75" stroke-miterlimit="10" stroke-linecap="round"/>
<path d="M12.5435 23.8174C12.0118 23.1577 11.7418 22.3251 11.7853 21.4788C11.8288 20.6326 12.1826 19.832 12.7792 19.2303L19.258 12.4432C19.9818 11.6576 20.976 11.1748 22.041 11.0919C23.1059 11.0089 24.1629 11.3319 24.9995 11.996V11.996C25.8035 12.7121 26.3042 13.7077 26.3997 14.7801C26.4951 15.8525 26.1781 16.9209 25.5133 17.7677L21.3854 23.207" stroke="#404366" stroke-width="0.75" stroke-miterlimit="10" stroke-linecap="round"/>
<path d="M16.9619 11.8926V13.1315C16.9619 13.2859 17.0041 13.4374 17.084 13.5695C17.1639 13.7016 17.2785 13.8093 17.4152 13.8809L17.6932 14.02" stroke="#404366" stroke-width="0.75" stroke-miterlimit="10" stroke-linecap="round"/>
<path d="M13.6259 10.877V12.8291C13.6304 13.0783 13.5648 13.3237 13.4366 13.5374C13.3084 13.7512 13.1227 13.9245 12.9006 14.0378L12.5078 14.2372L9.88483 15.446C8.13561 16.26 6.6549 17.5562 5.61651 19.1823C4.57811 20.8084 4.02513 22.697 4.02246 24.6263V26.5301" stroke="#404366" stroke-width="0.75" stroke-miterlimit="10" stroke-linecap="round"/>
<path d="M23.9657 19.9805C24.7968 20.9631 25.4678 22.0706 25.9541 23.2622C26.192 23.8607 26.2963 24.504 26.2597 25.147C26.2232 25.79 26.0467 26.4174 25.7426 26.9851C25.1869 27.833 24.3397 28.4479 23.3613 28.7136C22.389 28.9741 21.3778 29.0581 20.3758 28.9614C17.8661 28.8313 15.4254 28.0951 13.2624 26.8159C12.9894 26.6423 12.7361 26.4397 12.5069 26.2115C12.4283 26.1329 12.3437 26.0362 12.3619 25.9274C12.3738 25.8713 12.404 25.8207 12.4477 25.7835C12.4915 25.7464 12.5463 25.7247 12.6036 25.722C12.7174 25.7185 12.8307 25.7391 12.936 25.7824C13.3745 25.9028 13.8317 25.9397 14.2837 25.8912" stroke="#404366" stroke-width="0.75" stroke-miterlimit="10"/>
<path d="M13.2808 25.8659C13.0055 25.7544 12.7638 25.5732 12.5798 25.3401C12.5372 25.3009 12.5033 25.2533 12.4804 25.2001C12.4575 25.147 12.446 25.0897 12.4468 25.0318C12.458 24.9791 12.4821 24.93 12.5169 24.8889C12.5517 24.8478 12.5961 24.8159 12.6463 24.7961C12.7495 24.7629 12.8585 24.7505 12.9666 24.7599C13.5234 24.8708 14.0924 24.9074 14.6588 24.8686" stroke="#404366" stroke-width="0.75" stroke-miterlimit="10"/>
<path d="M13.4501 24.8138C13.1583 24.714 12.9007 24.5338 12.7067 24.2941C12.6624 24.2514 12.628 24.1995 12.606 24.1421C12.5841 24.0846 12.5751 24.023 12.5798 23.9617C12.597 23.9005 12.631 23.8453 12.678 23.8026C12.7251 23.7598 12.7832 23.7312 12.8457 23.7199C12.9697 23.6988 13.0964 23.6988 13.2204 23.7199C14.0813 23.8287 14.9524 23.8287 15.8132 23.7199" stroke="#404366" stroke-width="0.75" stroke-miterlimit="10"/>
<path d="M15.0509 23.8105C14.9651 23.5941 14.8945 23.3719 14.8394 23.1457C14.8039 23.055 14.7909 22.9571 14.8014 22.8603C14.8119 22.7635 14.8457 22.6707 14.8998 22.5897C14.9402 22.5524 14.9879 22.524 15.04 22.5063C15.092 22.4886 15.1472 22.482 15.202 22.487C15.3099 22.4981 15.4158 22.5245 15.5163 22.5655C16.1206 22.7952 16.725 23.1034 17.3777 23.3754C18.016 23.6993 18.7295 23.8461 19.4439 23.8004C20.1582 23.7547 20.8472 23.5182 21.4391 23.1155C21.3907 23.1155 21.4391 23.1639 21.3847 23.188" stroke="#404366" stroke-width="0.75" stroke-miterlimit="10"/>
<path d="M18.6781 23.8125C18.7643 24.4606 18.7128 25.1196 18.527 25.7465C18.343 26.3828 17.975 26.9505 17.4694 27.3783C16.9634 27.8022 16.3154 28.0182 15.6562 27.9826" stroke="#404366" stroke-width="0.75" stroke-miterlimit="10"/>
<path d="M6.64479 22.8196H9.4128V25.7024H6.64479V28.4644H3.76196V25.7024H1V22.8196H3.76196V20.0576H6.64479V22.8196Z" fill="white" stroke="#404366" stroke-width="0.75" stroke-linecap="round" stroke-linejoin="round"/>
</svg>
