<svg width="25" height="27" viewBox="0 0 25 27" fill="none" xmlns="http://www.w3.org/2000/svg">
<path d="M4.16184 26.5004C5.07263 26.5004 5.81098 25.7621 5.81098 24.8513C5.81098 23.9405 5.07263 23.2021 4.16184 23.2021C3.25104 23.2021 2.5127 23.9405 2.5127 24.8513C2.5127 25.7621 3.25104 26.5004 4.16184 26.5004Z" stroke="#404366" stroke-width="0.6875" stroke-linecap="round" stroke-linejoin="round"/>
<path d="M4.16761 25.9729C3.94344 25.9729 3.7243 25.9064 3.53791 25.7819C3.35152 25.6574 3.20624 25.4803 3.12046 25.2732C3.03467 25.0661 3.01223 24.8382 3.05596 24.6184C3.09969 24.3985 3.20764 24.1965 3.36615 24.038C3.52467 23.8795 3.72663 23.7716 3.94649 23.7278C4.16635 23.6841 4.39425 23.7065 4.60136 23.7923C4.80846 23.8781 4.98548 24.0234 5.11002 24.2098C5.23457 24.3962 5.30104 24.6153 5.30104 24.8395C5.30104 25.1401 5.18163 25.4284 4.96907 25.6409C4.75651 25.8535 4.46822 25.9729 4.16761 25.9729Z" stroke="#404366" stroke-width="0.6875" stroke-linecap="round" stroke-linejoin="round"/>
<path d="M4.5752 5.71875H20.0805C20.7359 5.71875 21.3643 5.97907 21.8277 6.44245C22.2911 6.90583 22.5514 7.53431 22.5514 8.18963V24.0293C22.5514 24.6846 22.2911 25.3131 21.8277 25.7765C21.3643 26.2399 20.7359 26.5002 20.0805 26.5002H4.5752V5.71875Z" fill="white" stroke="#404366" stroke-width="0.6875" stroke-linecap="round" stroke-linejoin="round"/>
<path d="M4.5752 5.71876H7.03474C7.25665 5.71794 7.47648 5.76161 7.68123 5.84719C7.88597 5.93277 8.07149 6.05852 8.22682 6.21701C8.38214 6.37551 8.50412 6.56352 8.58554 6.76996C8.66697 6.9764 8.70619 7.19706 8.70088 7.41891V24.8341C8.70088 25.2745 8.52594 25.6968 8.21454 26.0082C7.90314 26.3196 7.48079 26.4946 7.04041 26.4946H4.5752V5.71876Z" stroke="#404366" stroke-width="0.6875" stroke-linecap="round" stroke-linejoin="round"/>
<path d="M0.416016 26.5H24.6488" stroke="#404366" stroke-width="0.6875" stroke-linecap="round" stroke-linejoin="round"/>
<path d="M15.6245 19.1607L10.4082 20.5603L11.0118 22.8099L16.2281 21.4103L15.6245 19.1607Z" stroke="#404366" stroke-width="0.6875" stroke-linecap="round" stroke-linejoin="round"/>
<path d="M7.23926 8.41064V23.0659" stroke="#404366" stroke-width="0.6875" stroke-linecap="round" stroke-linejoin="round"/>
<path d="M5.94629 8.41064V23.0659" stroke="#404366" stroke-width="0.6875" stroke-linecap="round" stroke-linejoin="round"/>
<path d="M16.5899 16.1179C18.6557 16.1179 20.3303 14.4433 20.3303 12.3775C20.3303 10.3118 18.6557 8.63721 16.5899 8.63721C14.5242 8.63721 12.8496 10.3118 12.8496 12.3775C12.8496 14.4433 14.5242 16.1179 16.5899 16.1179Z" stroke="#404366" stroke-width="0.6875" stroke-linecap="round" stroke-linejoin="round"/>
<path d="M14.4763 11.5502C14.5387 11.3406 14.567 11.1195 14.6294 10.9042C14.6841 10.6881 14.8174 10.5001 15.0034 10.3771C15.3151 10.1958 15.7345 10.3375 16.0631 10.1901C16.2142 10.0916 16.3713 10.0027 16.5335 9.92377C16.6183 9.90186 16.7065 9.89708 16.7931 9.90973C16.8798 9.92239 16.963 9.95221 17.0379 9.99745C17.1904 10.085 17.3297 10.1938 17.4516 10.3205C17.9094 10.7074 18.2934 11.174 18.585 11.6976C18.6389 11.8283 18.7114 11.9504 18.8004 12.0603C18.8449 12.1152 18.905 12.1554 18.9727 12.1756C19.0405 12.1958 19.1127 12.1951 19.1801 12.1736L19.2708 12.134C19.3898 12.1 19.5088 12.2246 19.5088 12.3493C19.5018 12.4733 19.4493 12.5903 19.3614 12.678C19.2783 12.7669 19.2094 12.8683 19.1574 12.9784C19.1317 13.0351 19.1267 13.0991 19.1433 13.1591C19.1598 13.2192 19.1969 13.2715 19.2481 13.3071C19.0087 13.242 18.7564 13.242 18.517 13.3071C18.3133 13.4077 18.1229 13.5333 17.9503 13.6811C17.6791 13.8527 17.3798 13.9754 17.0662 14.0438C16.5419 14.2089 15.9951 14.2911 15.4454 14.2875C15.362 14.2891 15.2803 14.2632 15.2131 14.2138C15.0827 14.0948 15.1564 13.8794 15.2414 13.7208C15.1047 13.7672 14.9593 13.7822 14.816 13.7645C14.6727 13.7468 14.5353 13.697 14.414 13.6188C14.1695 13.466 13.9513 13.2746 13.768 13.052C13.6716 12.95 13.4789 12.814 13.5299 12.6553C13.5809 12.4967 13.785 12.44 13.887 12.3606C14.1579 12.1535 14.3627 11.8719 14.4763 11.5502V11.5502Z" stroke="#404366" stroke-width="0.6875" stroke-linecap="round" stroke-linejoin="round"/>
<path d="M8.28223 5.71858V0.833496H17.769V5.71858" stroke="#404366" stroke-width="0.6875" stroke-linecap="round" stroke-linejoin="round"/>
<path d="M9.16016 2.45996H16.4254" stroke="#404366" stroke-width="0.6875" stroke-linecap="round" stroke-linejoin="round"/>
</svg>
