<svg width="36" height="28" viewBox="0 0 36 28" fill="none" xmlns="http://www.w3.org/2000/svg">
<path d="M16.3587 3.0308V22.3002C16.3587 22.3002 16.0279 22.1551 15.3839 21.9346C13.6432 21.3544 9.53518 20.2636 3.38477 20.2636V1C11.8039 1 16.3587 3.0308 16.3587 3.0308Z" stroke="#404366" stroke-width="0.75" stroke-linecap="round" stroke-linejoin="round"/>
<path d="M5.54346 5.38086C8.37288 5.49147 11.182 5.90779 13.9219 6.62255" stroke="#404366" stroke-width="0.75" stroke-linecap="round" stroke-linejoin="round"/>
<path d="M5.54346 8.44434C8.37343 8.55328 11.183 8.9716 13.9219 9.69183" stroke="#404366" stroke-width="0.75" stroke-linecap="round" stroke-linejoin="round"/>
<path d="M5.54346 11.5137C8.37317 11.6212 11.1827 12.0375 13.9219 12.7554" stroke="#404366" stroke-width="0.75" stroke-linecap="round" stroke-linejoin="round"/>
<path d="M5.54346 14.5771C8.37288 14.6878 11.182 15.1041 13.9219 15.8188" stroke="#404366" stroke-width="0.75" stroke-linecap="round" stroke-linejoin="round"/>
<path d="M27.0406 5.38086C24.2112 5.49147 21.402 5.90779 18.6621 6.62255" stroke="#404366" stroke-width="0.75" stroke-linecap="round" stroke-linejoin="round"/>
<path d="M27.0406 8.44434C24.2106 8.55328 21.4011 8.9716 18.6621 9.69183" stroke="#404366" stroke-width="0.75" stroke-linecap="round" stroke-linejoin="round"/>
<path d="M27.0406 11.5137C24.2109 11.6212 21.4014 12.0375 18.6621 12.7554" stroke="#404366" stroke-width="0.75" stroke-linecap="round" stroke-linejoin="round"/>
<path d="M27.0406 14.5771C24.2112 14.6878 21.402 15.1041 18.6621 15.8188" stroke="#404366" stroke-width="0.75" stroke-linecap="round" stroke-linejoin="round"/>
<path d="M15.3838 22.9846V24.3597C15.3838 24.3597 10.3359 22.3289 1 22.3289V3.05957C1.33073 3.05957 1.65566 3.05957 1.97478 3.05957V21.2845C8.9027 21.2845 13.4923 22.4102 15.3838 22.9846Z" stroke="#404366" stroke-width="0.75" stroke-linecap="round" stroke-linejoin="round"/>
<path d="M16.3589 22.3006V23.3218C16.3589 23.3218 16.034 23.1884 15.3842 22.9853C13.4926 22.4051 8.92622 21.2852 1.9751 21.2852V1.94043C2.45669 1.94043 2.92667 1.94043 3.38505 1.94043V20.264C9.53546 20.264 13.6203 21.349 15.3842 21.9351C16.0282 22.1556 16.3589 22.3006 16.3589 22.3006Z" stroke="#404366" stroke-width="0.75" stroke-linecap="round" stroke-linejoin="round"/>
<path d="M29.3386 1V20.2636C23.1882 20.2636 19.1034 21.3486 17.3395 21.9346C16.6954 22.1551 16.3589 22.3002 16.3589 22.3002V3.0308C16.3589 3.0308 20.9137 1 29.3386 1Z" stroke="#404366" stroke-width="0.75" stroke-linecap="round" stroke-linejoin="round"/>
<path d="M31.7232 3.05957V22.3289C22.3873 22.3289 17.3394 24.3597 17.3394 24.3597V22.9846C19.2309 22.4044 23.7973 21.2845 30.7484 21.2845V3.10019C31.0675 3.05957 31.3925 3.05957 31.7232 3.05957Z" stroke="#404366" stroke-width="0.75" stroke-linecap="round" stroke-linejoin="round"/>
<path d="M30.7485 1.94043V21.2852C23.7858 21.2852 19.231 22.4109 17.3395 22.9853C16.6896 23.1884 16.3589 23.3218 16.3589 23.3218V22.3006C16.3589 22.3006 16.6954 22.1556 17.3395 21.9351C19.0802 21.3548 23.1882 20.264 29.3386 20.264V1.94043C29.7912 1.94043 30.2669 1.94043 30.7485 1.94043Z" stroke="#404366" stroke-width="0.75" stroke-linecap="round" stroke-linejoin="round"/>
<path d="M17.3392 22.9854V24.3605C17.3392 24.3605 17.2695 24.9407 16.3934 24.9407C15.5172 24.9407 15.3838 24.3605 15.3838 24.3605V22.9854C16.0336 23.1884 16.3586 23.3219 16.3586 23.3219C16.3586 23.3219 16.6893 23.1884 17.3392 22.9854Z" stroke="#404366" stroke-width="0.75" stroke-linecap="round" stroke-linejoin="round"/>
<path d="M24.4937 12.8545L35.4484 18.9005L32.1991 21.1053L34.8797 25.0509L33.4408 26.0257L32.0018 27.0004L29.327 23.0549L26.0777 25.2598L24.4937 12.8545Z" fill="white" stroke="#404366" stroke-width="0.75" stroke-linecap="round" stroke-linejoin="round"/>
</svg>
