<svg width="37" height="24" viewBox="0 0 37 24" fill="none" xmlns="http://www.w3.org/2000/svg">
<path d="M1 2.84016H6.31145V19.5157C6.31145 20.5492 6.72204 21.5405 7.45289 22.2713C8.18375 23.0022 9.17499 23.4128 10.2086 23.4128H25.8094C26.3243 23.4169 26.8349 23.3189 27.3117 23.1245C27.7885 22.93 28.222 22.6431 28.5873 22.2801C28.9525 21.9172 29.2422 21.4855 29.4396 21.0099C29.637 20.5343 29.7383 20.0244 29.7374 19.5095V2.83398H36" stroke="#404366" stroke-width="0.75" stroke-linecap="round" stroke-linejoin="round"/>
<path d="M8.98584 2.84082H27.0324" stroke="#404366" stroke-width="0.75" stroke-linecap="round" stroke-linejoin="round"/>
<path d="M26.4453 10.9007V14.8842H25.5436L25.4139 13.9393L21.7886 13.8899V14.8842H20.6274V10.9007C20.6274 10.3437 20.8487 9.80962 21.2425 9.41582C21.6363 9.02202 22.1704 8.80078 22.7273 8.80078H24.3455C24.6212 8.80078 24.8943 8.8551 25.149 8.96062C25.4038 9.06615 25.6353 9.22083 25.8303 9.41582C26.0253 9.61081 26.18 9.8423 26.2855 10.0971C26.391 10.3518 26.4453 10.6249 26.4453 10.9007Z" stroke="#404366" stroke-width="0.75" stroke-linecap="round" stroke-linejoin="round"/>
<path d="M21.7827 11.3887L21.9001 22.4686" stroke="#404366" stroke-width="0.75" stroke-linecap="round" stroke-linejoin="round"/>
<path d="M25.1053 11.1533L26.4455 22.4679H24.9879L23.6662 15.3654H23.5612L23.4748 22.4679H21.8999L21.4243 23.3141" stroke="#404366" stroke-width="0.75" stroke-linecap="round" stroke-linejoin="round"/>
<path d="M20.6277 14.9023C20.6227 15.1837 20.6819 15.4625 20.8007 15.7176C20.8853 15.8481 21.0004 15.9561 21.1359 16.0325C21.2714 16.1088 21.4234 16.1513 21.5789 16.1561" stroke="#404366" stroke-width="0.75" stroke-linecap="round" stroke-linejoin="round"/>
<path d="M26.4456 14.9766C26.4545 15.257 26.3996 15.5357 26.285 15.7918C26.2209 15.8888 26.1373 15.9713 26.0394 16.0341C25.9416 16.0968 25.8317 16.1384 25.7168 16.1562" stroke="#404366" stroke-width="0.75" stroke-linecap="round" stroke-linejoin="round"/>
<path d="M23.4561 22.4678V23.3139" stroke="#404366" stroke-width="0.75" stroke-linecap="round" stroke-linejoin="round"/>
<path d="M24.9878 22.4678L25.1175 23.2707" stroke="#404366" stroke-width="0.75" stroke-linecap="round" stroke-linejoin="round"/>
<path d="M26.4458 22.4678C26.4829 22.4678 27.0634 23.1533 27.0634 23.1533" stroke="#404366" stroke-width="0.75" stroke-linecap="round" stroke-linejoin="round"/>
<path d="M23.5368 7.63897C24.1746 7.63897 24.6917 7.12189 24.6917 6.48404C24.6917 5.84618 24.1746 5.3291 23.5368 5.3291C22.8989 5.3291 22.3818 5.84618 22.3818 6.48404C22.3818 7.12189 22.8989 7.63897 23.5368 7.63897Z" fill="white" stroke="#404366" stroke-width="0.75" stroke-linecap="round" stroke-linejoin="round"/>
<path d="M8.62109 1L12.2897 23.4069" stroke="#404366" stroke-width="0.75" stroke-linecap="round" stroke-linejoin="round"/>
<path d="M13.2407 1L16.9093 23.4069" stroke="#404366" stroke-width="0.75" stroke-linecap="round" stroke-linejoin="round"/>
<path d="M16.3165 19.8252H11.6968" stroke="#404366" stroke-width="0.75" stroke-linecap="round" stroke-linejoin="round"/>
<path d="M15.755 16.4463H11.1353" stroke="#404366" stroke-width="0.75" stroke-linecap="round" stroke-linejoin="round"/>
<path d="M15.1925 13.0615H10.5728" stroke="#404366" stroke-width="0.75" stroke-linecap="round" stroke-linejoin="round"/>
<path d="M14.6305 9.68359H10.0107" stroke="#404366" stroke-width="0.75" stroke-linecap="round" stroke-linejoin="round"/>
<path d="M14.0626 6.30566H9.44287" stroke="#404366" stroke-width="0.75" stroke-linecap="round" stroke-linejoin="round"/>
</svg>
