<svg width="21" height="28" viewBox="0 0 21 28" fill="none" xmlns="http://www.w3.org/2000/svg">
<path d="M4.3538 14.8153L4.11029 14.4279C3.82203 14.0262 3.63482 13.561 3.56449 13.0716C3.49417 12.5822 3.5428 12.083 3.70628 11.6164L4.29292 9.95614C4.45806 9.48482 4.54226 8.98895 4.54197 8.48954V5.72237C4.56812 4.4448 5.10048 3.2299 6.02202 2.34468C6.94356 1.45946 8.17888 0.976366 9.45646 1.00157V1.00157C10.0903 0.985382 10.721 1.09424 11.3128 1.32192C11.9045 1.5496 12.4455 1.89164 12.905 2.32851C13.3645 2.76537 13.7334 3.28849 13.9906 3.86797C14.2478 4.44746 14.3884 5.07195 14.4042 5.70576V8.10767C14.4039 8.84297 14.5946 9.56575 14.9576 10.2052V10.2052C15.339 10.8935 15.53 11.671 15.511 12.4577C15.4782 13.3338 15.1002 14.1614 14.4595 14.7599V14.7599" stroke="#404366" stroke-width="0.75" stroke-linecap="round" stroke-linejoin="round"/>
<path d="M13.2531 4.80386V8.03038C13.2531 8.52822 13.1551 9.02119 12.9645 9.48114C12.774 9.94109 12.4948 10.359 12.1427 10.711C11.7907 11.0631 11.3728 11.3423 10.9128 11.5328C10.4529 11.7233 9.95993 11.8214 9.46209 11.8214V11.8214C8.45613 11.8214 7.4913 11.4222 6.77947 10.7114C6.06763 10.0006 5.66699 9.03633 5.66553 8.03038V5.36283C6.90558 5.25448 8.13351 5.03593 9.3348 4.70978C10.4597 4.39419 11.5073 3.84967 12.4119 3.11035C12.6717 3.30999 12.8826 3.56632 13.0284 3.8598C13.1742 4.15329 13.251 4.47617 13.2531 4.80386V4.80386Z" stroke="#404366" stroke-width="0.75" stroke-linecap="round" stroke-linejoin="round"/>
<path d="M12.9653 2.58984C12.7937 2.77248 12.6166 2.94404 12.4119 3.11007C11.5007 3.85209 10.4453 4.39673 9.31263 4.7095C8.11857 5.03437 6.89809 5.2529 5.66549 5.36255L5.11206 5.41789" stroke="#404366" stroke-width="0.75" stroke-linecap="round" stroke-linejoin="round"/>
<path d="M1 26.1712L1.55343 19.2644C1.63501 18.2072 2.0259 17.1975 2.6774 16.3609C3.3289 15.5244 4.21219 14.8981 5.21717 14.5602C5.96984 14.3167 6.61182 14.1008 6.84426 14.0067C6.98735 13.9518 7.12018 13.8733 7.2372 13.7743C7.41385 13.6202 7.55485 13.4295 7.65041 13.2154C7.74598 13.0013 7.79383 12.769 7.79064 12.5346V11.4277" stroke="#404366" stroke-width="0.75" stroke-linecap="round" stroke-linejoin="round"/>
<path d="M17.4314 19.2644C17.3481 18.2046 16.9539 17.1929 16.2983 16.3561C15.6426 15.5193 14.7546 14.8946 13.7455 14.5602C12.9928 14.3167 12.3508 14.1008 12.1129 14.0067C11.9721 13.9506 11.8413 13.8721 11.7255 13.7743C11.5488 13.6202 11.4078 13.4295 11.3122 13.2154C11.2167 13.0013 11.1688 12.769 11.172 12.5346V11.4277" stroke="#404366" stroke-width="0.75" stroke-linecap="round" stroke-linejoin="round"/>
<path d="M7.77954 12.6406H11.1832" stroke="#404366" stroke-width="0.75" stroke-linecap="round" stroke-linejoin="round"/>
<path d="M8.06188 7.69833C8.23304 7.69833 8.3718 7.4679 8.3718 7.18364C8.3718 6.89938 8.23304 6.66895 8.06188 6.66895C7.89071 6.66895 7.75195 6.89938 7.75195 7.18364C7.75195 7.4679 7.89071 7.69833 8.06188 7.69833Z" fill="#404366"/>
<path d="M11.056 7.69833C11.2272 7.69833 11.3659 7.4679 11.3659 7.18364C11.3659 6.89938 11.2272 6.66895 11.056 6.66895C10.8849 6.66895 10.7461 6.89938 10.7461 7.18364C10.7461 7.4679 10.8849 7.69833 11.056 7.69833Z" fill="#404366"/>
<path d="M8.85864 9.45215C9.08018 9.54576 9.31824 9.59399 9.55874 9.59399C9.79924 9.59399 10.0373 9.54576 10.2588 9.45215" stroke="#404366" stroke-width="0.75" stroke-linecap="round" stroke-linejoin="round"/>
<path d="M7.57471 5.92157C7.76946 5.81239 7.98387 5.7428 8.20562 5.7168" stroke="#404366" stroke-width="0.75" stroke-linecap="round" stroke-linejoin="round"/>
<path d="M10.7515 5.56208C11.0312 5.54698 11.3104 5.60016 11.565 5.71704" stroke="#404366" stroke-width="0.75" stroke-linecap="round" stroke-linejoin="round"/>
<path d="M17.5145 15.5791H7.78516V26.1718H17.5145V15.5791Z" fill="white" stroke="#404366" stroke-width="0.75" stroke-linecap="round" stroke-linejoin="round"/>
<path d="M10.7515 18.8496H11.305L10.663 21.6168H9.64467L9.00269 18.8496H9.59486L10.0708 21.1187H10.2534L10.7515 18.8496Z" fill="#404366"/>
<path d="M13.823 21.3122C13.7132 21.4356 13.5756 21.531 13.4217 21.5907C13.2677 21.6504 13.1017 21.6725 12.9375 21.6553C12.7733 21.6725 12.6073 21.6504 12.4533 21.5907C12.2993 21.531 12.1618 21.4356 12.052 21.3122C11.8564 20.99 11.7673 20.6143 11.7974 20.2386C11.7633 19.852 11.8524 19.4645 12.052 19.1317C12.1589 19.0039 12.2955 18.9042 12.4499 18.8415C12.6043 18.7788 12.7717 18.7549 12.9375 18.772C13.1033 18.7549 13.2707 18.7788 13.4251 18.8415C13.5795 18.9042 13.7161 19.0039 13.823 19.1317C14.0249 19.4637 14.116 19.8514 14.0831 20.2386C14.1115 20.6149 14.0205 20.9906 13.823 21.3122ZM12.4892 20.958C12.5379 21.0304 12.6053 21.0882 12.6842 21.1252C12.7632 21.1623 12.8507 21.1772 12.9375 21.1683C13.0244 21.1784 13.1124 21.1641 13.1915 21.1269C13.2707 21.0898 13.338 21.0313 13.3858 20.958C13.4846 20.7335 13.53 20.4891 13.5186 20.2441C13.532 19.9946 13.4905 19.7452 13.3968 19.5136C13.3512 19.4372 13.2849 19.3754 13.2055 19.3352C13.1262 19.2951 13.0371 19.2782 12.9486 19.2866C12.8607 19.2773 12.772 19.2937 12.6933 19.334C12.6147 19.3743 12.5495 19.4367 12.5058 19.5136C12.4096 19.7445 12.3679 19.9945 12.3841 20.2441C12.3645 20.487 12.4004 20.7311 12.4892 20.958Z" fill="#404366"/>
<path d="M14.5591 19.3477V18.8496H16.5847V19.3477H15.8541V21.6057H15.3007V19.3477H14.5591Z" fill="#404366"/>
<path d="M18.6822 24.3346L17.0219 23.5044C16.9388 23.4633 16.8647 23.4061 16.8038 23.3361C16.7429 23.2662 16.6965 23.1849 16.6672 23.0969C16.6378 23.0089 16.6262 22.916 16.633 22.8236C16.6397 22.7311 16.6647 22.6409 16.7064 22.5581C16.7471 22.4752 16.8038 22.4012 16.8731 22.3402C16.9424 22.2792 17.023 22.2325 17.1104 22.2027C17.1977 22.1729 17.2901 22.1606 17.3822 22.1665C17.4744 22.1724 17.5644 22.1964 17.6473 22.2371L19.3076 23.0672C19.3916 23.1104 19.4661 23.1698 19.5268 23.2422C19.5875 23.3146 19.6331 23.3983 19.6609 23.4885C19.6888 23.5788 19.6983 23.6737 19.689 23.7676C19.6796 23.8616 19.6515 23.9528 19.6064 24.0357L18.815 25.9728" fill="white"/>
<path d="M18.6822 24.3346L17.0219 23.5044C16.9388 23.4633 16.8647 23.4061 16.8038 23.3361C16.7429 23.2662 16.6965 23.1849 16.6672 23.0969C16.6378 23.0089 16.6262 22.916 16.633 22.8236C16.6397 22.7311 16.6647 22.6409 16.7064 22.5581V22.5581C16.7471 22.4752 16.8038 22.4012 16.8731 22.3402C16.9424 22.2792 17.023 22.2325 17.1104 22.2027C17.1977 22.1729 17.2901 22.1606 17.3822 22.1665C17.4744 22.1724 17.5644 22.1964 17.6473 22.2371L19.3076 23.0672C19.3916 23.1104 19.4661 23.1698 19.5268 23.2422C19.5875 23.3146 19.6331 23.3983 19.6609 23.4885C19.6888 23.5788 19.6983 23.6737 19.689 23.7676C19.6796 23.8616 19.6515 23.9528 19.6064 24.0357L18.815 25.9728" stroke="#404366" stroke-width="0.75" stroke-linecap="round" stroke-linejoin="round"/>
<path d="M18.0569 25.5966L16.3966 24.7665C16.3137 24.7258 16.2397 24.6692 16.1789 24.5997C16.1181 24.5303 16.0716 24.4495 16.0423 24.362C16.0129 24.2744 16.0013 24.182 16.0079 24.0899C16.0146 23.9978 16.0395 23.908 16.0811 23.8256C16.1594 23.6586 16.3001 23.529 16.473 23.4648C16.6459 23.4007 16.8371 23.407 17.0054 23.4825L18.6657 24.3126" fill="white"/>
<path d="M18.0569 25.5966L16.3966 24.7665C16.3137 24.7258 16.2397 24.6692 16.1789 24.5997C16.1181 24.5303 16.0716 24.4495 16.0423 24.362C16.0129 24.2744 16.0013 24.182 16.0079 24.0899C16.0146 23.9978 16.0395 23.908 16.0811 23.8256V23.8256C16.1594 23.6586 16.3001 23.529 16.473 23.4648C16.6459 23.4007 16.8371 23.407 17.0054 23.4825L18.6657 24.3126" stroke="#404366" stroke-width="0.75" stroke-linecap="round" stroke-linejoin="round"/>
<path d="M17.7081 26.9524L15.7323 26.0337C15.6493 25.9926 15.5751 25.9354 15.5143 25.8654C15.4534 25.7955 15.4069 25.7142 15.3776 25.6262C15.3483 25.5382 15.3367 25.4453 15.3434 25.3529C15.3502 25.2604 15.3751 25.1701 15.4169 25.0874C15.4576 25.0045 15.5142 24.9305 15.5835 24.8695C15.6528 24.8085 15.7335 24.7618 15.8208 24.732C15.9082 24.7022 16.0006 24.6899 16.0927 24.6958C16.1848 24.7017 16.2749 24.7257 16.3577 24.7664L18.018 25.5965" fill="white"/>
<path d="M17.7081 26.9524L15.7323 26.0337C15.6493 25.9926 15.5751 25.9354 15.5143 25.8654C15.4534 25.7955 15.4069 25.7142 15.3776 25.6262C15.3483 25.5382 15.3367 25.4453 15.3434 25.3529C15.3502 25.2604 15.3751 25.1701 15.4169 25.0874V25.0874C15.4576 25.0045 15.5142 24.9305 15.5835 24.8695C15.6528 24.8085 15.7335 24.7618 15.8208 24.732C15.9082 24.7022 16.0006 24.6899 16.0927 24.6958C16.1848 24.7017 16.2749 24.7257 16.3577 24.7664L18.018 25.5965" stroke="#404366" stroke-width="0.75" stroke-linecap="round" stroke-linejoin="round"/>
<path d="M17.7084 26.952C18.2159 27.103 18.7607 27.0671 19.244 26.8509C19.7274 26.6346 20.1172 26.2522 20.3427 25.7731C20.4806 25.4033 20.541 25.009 20.52 24.6149C20.4991 24.2207 20.3973 23.8351 20.2209 23.4819C19.8319 22.7624 19.3741 22.0822 18.854 21.4508C18.3005 20.6649 17.5146 19.0655 17.5146 18.0361" stroke="#404366" stroke-width="0.75" stroke-linecap="round" stroke-linejoin="round"/>
<path d="M18.8372 22.8347L19.1083 22.5469" stroke="#404366" stroke-width="0.75" stroke-linecap="round" stroke-linejoin="round"/>
<path d="M6.03615 27.4995C7.68668 27.4995 9.0247 26.1615 9.0247 24.511C9.0247 22.8605 7.68668 21.5225 6.03615 21.5225C4.38562 21.5225 3.04761 22.8605 3.04761 24.511C3.04761 26.1615 4.38562 27.4995 6.03615 27.4995Z" fill="white" stroke="#404366" stroke-width="0.75" stroke-linecap="round" stroke-linejoin="round"/>
<path d="M4.40356 24.6226C4.94475 24.9349 5.40236 25.3736 5.73734 25.901C5.73734 25.901 7.39764 23.1892 9.13543 22.3867" fill="white"/>
<path d="M4.40356 24.6226C4.94475 24.9349 5.40236 25.3736 5.73734 25.901C5.73734 25.901 7.39764 23.1892 9.13543 22.3867" stroke="#404366" stroke-width="0.75" stroke-linecap="round" stroke-linejoin="round"/>
</svg>
