<svg width="73" height="52" viewBox="0 0 73 52" fill="none" xmlns="http://www.w3.org/2000/svg">
<g clip-path="url(#clip0)">
<path d="M13.0499 25.72C16.8799 25.72 19.9899 22.61 19.9899 18.78V16.15C19.9899 12.32 16.8799 9.20996 13.0499 9.20996C9.21986 9.20996 6.10986 12.32 6.10986 16.15V18.78C6.10986 22.62 9.21986 25.72 13.0499 25.72Z" stroke="#404366" stroke-width="0.75" stroke-miterlimit="10" stroke-linecap="round" stroke-linejoin="round"/>
<path d="M10.5799 25.2599V26.7899C10.5799 27.6499 9.92993 28.1799 9.00993 28.3599L6.18993 28.9099C3.21993 29.3599 0.469932 31.4699 0.469932 34.6299L0.379932 43.3699C0.359932 45.3799 0.459932 48.0899 2.07993 49.2899" stroke="#404366" stroke-width="0.75" stroke-miterlimit="10" stroke-linecap="round" stroke-linejoin="round"/>
<path d="M15.5298 25.2599V27.2799C15.5298 28.1999 17.6098 28.3599 18.1998 28.3599C20.7798 28.3599 22.9598 30.2499 23.3398 32.7999L23.9098 36.6499" stroke="#404366" stroke-width="0.75" stroke-miterlimit="10" stroke-linecap="round" stroke-linejoin="round"/>
<path d="M20.27 36.6499L20.69 46.2799" stroke="#404366" stroke-width="0.75" stroke-miterlimit="10" stroke-linecap="round" stroke-linejoin="round"/>
<path d="M6.3999 36.0499V43.3399" stroke="#404366" stroke-width="0.75" stroke-miterlimit="10" stroke-linecap="round" stroke-linejoin="round"/>
<path d="M21.8499 51.48H6.3999" stroke="#404366" stroke-width="0.75" stroke-miterlimit="10" stroke-linecap="round" stroke-linejoin="round"/>
<path d="M9.93018 28.39C10.7902 29.02 11.8702 29.37 12.9402 29.36C14.0102 29.35 15.0802 28.99 15.9302 28.34" stroke="#404366" stroke-width="0.75" stroke-miterlimit="10" stroke-linecap="round" stroke-linejoin="round"/>
<path d="M14.3901 18.3999C14.6773 18.3999 14.9101 17.9835 14.9101 17.4699C14.9101 16.9563 14.6773 16.5399 14.3901 16.5399C14.1029 16.5399 13.8701 16.9563 13.8701 17.4699C13.8701 17.9835 14.1029 18.3999 14.3901 18.3999Z" fill="#404366"/>
<path d="M48.8897 19.43C49.2818 19.43 49.5997 19.1031 49.5997 18.7C49.5997 18.2968 49.2818 17.97 48.8897 17.97C48.4976 17.97 48.1797 18.2968 48.1797 18.7C48.1797 19.1031 48.4976 19.43 48.8897 19.43Z" fill="#404366"/>
<path d="M52.4297 19.43C52.8218 19.43 53.1397 19.1031 53.1397 18.7C53.1397 18.2968 52.8218 17.97 52.4297 17.97C52.0376 17.97 51.7197 18.2968 51.7197 18.7C51.7197 19.1031 52.0376 19.43 52.4297 19.43Z" fill="#404366"/>
<path d="M18.1299 18.3999C18.417 18.3999 18.6499 17.9835 18.6499 17.4699C18.6499 16.9563 18.417 16.5399 18.1299 16.5399C17.8427 16.5399 17.6099 16.9563 17.6099 17.4699C17.6099 17.9835 17.8427 18.3999 18.1299 18.3999Z" fill="#404366"/>
<path d="M16.2498 20.63C15.9398 20.89 15.6298 21.16 15.3198 21.42C15.6598 21.46 15.9998 21.55 16.3398 21.59" stroke="#404366" stroke-width="0.75" stroke-miterlimit="10" stroke-linecap="round" stroke-linejoin="round"/>
<path d="M50.0497 22.7499C50.4097 22.5599 50.5997 22.4399 50.9597 22.2499C50.6297 22.1399 49.9997 21.8799 49.6797 21.7799" stroke="#404366" stroke-width="0.75" stroke-miterlimit="10" stroke-linecap="round" stroke-linejoin="round"/>
<path d="M20.3901 37.8699C21.4801 37.4199 22.5901 37.0299 23.7201 36.6899" stroke="#404366" stroke-width="0.75" stroke-miterlimit="10" stroke-linecap="round" stroke-linejoin="round"/>
<path d="M0.439941 37.6799C2.15994 37.5199 4.91994 37.9099 6.39994 38.3199" stroke="#404366" stroke-width="0.75" stroke-miterlimit="10" stroke-linecap="round" stroke-linejoin="round"/>
<path d="M60.1201 18.77C59.9001 19.23 59.4201 19.54 58.9201 19.69C58.6301 19.78 58.3201 19.82 58.0201 19.83V20.98C58.0201 24.12 55.4701 26.67 52.3301 26.67C49.1901 26.67 46.6401 24.12 46.6401 20.98V13.69C46.8001 13.54 46.8901 13.46 47.0501 13.3C49.0201 13.38 51.0201 13.31 52.9901 13.05C55.2701 12.75 57.4601 14.15 58.0101 16.38C58.0101 16.39 58.0201 16.41 58.0201 16.42C58.0801 16.67 58.1501 16.92 58.2001 17.16C58.7501 17.06 59.4301 17.01 59.8601 17.35C60.2801 17.67 60.3501 18.3 60.1201 18.77Z" stroke="#404366" stroke-width="0.75" stroke-miterlimit="10" stroke-linecap="round" stroke-linejoin="round"/>
<path d="M57.3901 19.8199C57.6001 19.8299 57.8201 19.8299 58.0301 19.8199" stroke="#404366" stroke-width="0.75" stroke-miterlimit="10" stroke-linecap="round" stroke-linejoin="round"/>
<path d="M51.2298 28.2899L50.5298 31.8399L53.3498 30.8699L55.3198 33.1899L60.2998 29.4599L59.1798 27.3199C59.1698 27.3299 56.5898 29.8399 51.2298 28.2899Z" stroke="#404366" stroke-width="0.75" stroke-miterlimit="10" stroke-linecap="round" stroke-linejoin="round"/>
<path d="M51.23 28.2899L52.43 28.5799V26.6699" stroke="#404366" stroke-width="0.75" stroke-miterlimit="10" stroke-linecap="round" stroke-linejoin="round"/>
<path d="M58.52 27.7999V23.2999" stroke="#404366" stroke-width="0.75" stroke-miterlimit="10" stroke-linecap="round" stroke-linejoin="round"/>
<path d="M60.29 29.47C64.7 30.3 67.76 33.39 68.49 38.39L70.32 51.49" stroke="#404366" stroke-width="0.75" stroke-miterlimit="10" stroke-linecap="round" stroke-linejoin="round"/>
<path d="M50.9802 29.21L49.9202 29.46C45.5102 30.29 42.6502 33.81 41.6702 38.55L40.1302 46.43C39.6302 48.43 40.6402 50.5 42.5202 51.34" stroke="#404366" stroke-width="0.75" stroke-miterlimit="10" stroke-linecap="round" stroke-linejoin="round"/>
<path d="M45.73 39.5399V46.0599" stroke="#404366" stroke-width="0.75" stroke-miterlimit="10" stroke-linecap="round" stroke-linejoin="round"/>
<path d="M61.2598 40.62C61.5698 40.73 61.8398 40.93 62.0198 41.2L63.6798 51.14" stroke="#404366" stroke-width="0.75" stroke-miterlimit="10" stroke-linecap="round" stroke-linejoin="round"/>
<path d="M27.9501 12.9999C31.7601 12.3999 34.4201 9.11995 33.8701 5.65995C33.3201 2.19995 29.8001 -0.120053 25.9901 0.469947C22.1801 1.05995 19.5201 4.34995 20.0701 7.80995C20.3601 9.65995 21.5101 11.1899 23.1001 12.1199L22.6301 16.7199L27.9501 12.9999Z" stroke="#404366" stroke-width="0.75" stroke-miterlimit="10" stroke-linecap="round" stroke-linejoin="round"/>
<path d="M36.1502 17.6899C32.2902 17.6899 29.1602 14.8499 29.1602 11.3499C29.1602 7.84989 32.2902 5.00989 36.1502 5.00989C40.0102 5.00989 43.1402 7.84989 43.1402 11.3499C43.1402 13.2299 42.2402 14.9099 40.8202 16.0699L42.0002 20.5399L36.1502 17.6899Z" fill="white" stroke="#404366" stroke-width="0.75" stroke-miterlimit="10" stroke-linecap="round" stroke-linejoin="round"/>
<path d="M39.54 51.48H72.12" stroke="#404366" stroke-width="0.75" stroke-miterlimit="10" stroke-linecap="round" stroke-linejoin="round"/>
<path d="M1.72998 51.48H27.06" stroke="#404366" stroke-width="0.75" stroke-miterlimit="10" stroke-linecap="round" stroke-linejoin="round"/>
<path d="M47.06 13.3C46.65 13.3 46.12 13.19 45.75 12.96C45.18 12.6 44.94 12.24 44.78 11.6C44.48 10.37 44.87 9.27995 45.52 8.24995C45.54 8.24995 45.53 8.19995 45.55 8.19995H61.46C61.46 8.69995 61.53 9.13995 61.54 9.64995C61.55 10.71 61.54 11.77 61.54 12.84C61.54 14.38 61.68 15.9 61.7 17.43C61.72 18.75 61.8 20.23 61.14 21.41C60.81 22 60.35 22.69 59.68 22.91C59.2 23.07 58.54 23.27 58.03 23.21" stroke="#404366" stroke-width="0.75" stroke-miterlimit="10" stroke-linecap="round" stroke-linejoin="round"/>
<path d="M52.0098 16.08C52.6498 16.21 53.1498 16.4 53.7398 16.72" stroke="#404366" stroke-width="0.75" stroke-miterlimit="10" stroke-linecap="round" stroke-linejoin="round"/>
<path d="M47.8901 15.9599C48.2301 15.6599 48.5401 15.4899 48.9501 15.2799" stroke="#404366" stroke-width="0.75" stroke-miterlimit="10" stroke-linecap="round" stroke-linejoin="round"/>
<path d="M59.9201 35.9199H52.1001V40.8599H59.9201V35.9199Z" stroke="#404366" stroke-width="0.75" stroke-miterlimit="10" stroke-linecap="round" stroke-linejoin="round"/>
<path d="M53.9399 38.3899H58.0899" stroke="#404366" stroke-width="0.75" stroke-miterlimit="10" stroke-linecap="round" stroke-linejoin="round"/>
<path d="M43.8799 45.98C47.1599 45.95 50.4499 46.85 53.2599 48.53C53.6499 48.35 54.0799 48.22 54.4999 48.23C55.1699 48.23 55.7699 48.69 56.1299 49.26C56.4899 49.83 56.6499 50.49 56.7999 51.15" stroke="#404366" stroke-width="0.75" stroke-miterlimit="10" stroke-linecap="round" stroke-linejoin="round"/>
<path d="M51.8599 47.95C51.8599 48 51.8599 48.06 51.8599 48.11V51.15" stroke="#404366" stroke-width="0.75" stroke-miterlimit="10" stroke-linecap="round" stroke-linejoin="round"/>
<path d="M24.0802 45.98C20.8002 45.95 17.5102 46.85 14.7002 48.53C14.3102 48.35 13.8802 48.22 13.4602 48.23C12.7902 48.23 12.1902 48.69 11.8302 49.26C11.4702 49.83 11.3102 50.49 11.1602 51.15" stroke="#404366" stroke-width="0.75" stroke-miterlimit="10" stroke-linecap="round" stroke-linejoin="round"/>
<path d="M23.7497 35.5599C24.2497 38.3499 24.8597 41.0099 25.5197 43.7599C25.8597 45.1499 26.2197 46.5799 26.0297 47.9899C25.8397 49.4099 24.5797 51.1299 23.1997 51.4799" stroke="#404366" stroke-width="0.75" stroke-miterlimit="10" stroke-linecap="round" stroke-linejoin="round"/>
<path d="M4.27979 44.12C6.79979 43.36 9.26978 42.44 11.6698 41.35" stroke="#404366" stroke-width="0.75" stroke-miterlimit="10" stroke-linecap="round" stroke-linejoin="round"/>
<path d="M11.6997 41.3499C12.2197 40.4099 12.8097 39.5099 13.4797 38.6699C13.5697 38.5599 13.6597 38.4399 13.7897 38.3799C13.9197 38.3199 14.0897 38.3299 14.1797 38.4299C14.2397 38.4999 14.2497 38.5999 14.2597 38.6999C14.2797 39.0199 14.2597 39.3499 14.1797 39.6699" stroke="#404366" stroke-width="0.75" stroke-miterlimit="10" stroke-linecap="round" stroke-linejoin="round"/>
<path d="M13.7301 40.1199C14.4401 39.5899 15.1901 39.1299 15.9801 38.7299C16.2101 38.6099 16.4501 38.4999 16.7101 38.5099C17.2301 38.5399 17.5601 39.0699 17.8001 39.5399C17.9501 39.8299 18.1201 40.6999 18.0401 41.0099C17.9701 41.2899 17.7301 41.4899 17.5101 41.6699C16.3901 42.5799 15.5301 43.1199 14.2101 44.1199C12.4401 45.4499 10.8601 46.6399 9.08012 47.9699C8.03012 48.7599 6.90012 49.4999 5.63012 49.8299C4.35012 50.1499 2.89012 49.9899 1.91012 49.1099C1.24012 48.5099 0.860117 47.6499 0.620117 46.7799" stroke="#404366" stroke-width="0.75" stroke-miterlimit="10" stroke-linecap="round" stroke-linejoin="round"/>
<path d="M5.62012 50.0299V51.0399" stroke="#404366" stroke-width="0.75" stroke-miterlimit="10" stroke-linecap="round" stroke-linejoin="round"/>
<path d="M10.9302 12.7799C13.2402 14.6599 17.4202 15.0699 20.3702 14.6099" stroke="#404366" stroke-width="0.75" stroke-miterlimit="10" stroke-linecap="round" stroke-linejoin="round"/>
<path d="M10.9298 12.7799C10.9298 12.7799 10.3198 15.6299 9.61982 17.2799C9.14982 17.1399 8.50982 17.3999 8.21982 17.7899C7.92982 18.1899 7.92982 18.7599 8.20982 19.1599C8.48982 19.5599 8.69982 19.6099 8.94982 19.6399C8.50982 21.2699 7.96982 22.0799 7.31982 22.7699" stroke="#404366" stroke-width="0.75" stroke-miterlimit="10" stroke-linecap="round" stroke-linejoin="round"/>
<path d="M8.63014 20.8899C10.0053 20.8899 11.1201 19.7751 11.1201 18.3999C11.1201 17.0247 10.0053 15.9099 8.63014 15.9099C7.25495 15.9099 6.14014 17.0247 6.14014 18.3999C6.14014 19.7751 7.25495 20.8899 8.63014 20.8899Z" fill="#404366"/>
<path d="M8.50977 17.9999V11.1399" stroke="#404366" stroke-width="0.75" stroke-miterlimit="10" stroke-linecap="round" stroke-linejoin="round"/>
<path d="M9.25977 19.7L12.6398 21.8899H14.0898" stroke="#404366" stroke-width="0.75" stroke-miterlimit="10" stroke-linecap="round" stroke-linejoin="round"/>
</g>
<defs>
<clipPath id="clip0">
<rect width="72.49" height="51.86" fill="white"/>
</clipPath>
</defs>
</svg>
