<svg width="37" height="28" viewBox="0 0 37 28" fill="none" xmlns="http://www.w3.org/2000/svg">
<path d="M11.075 10.0085C11.075 8.14037 9.56064 6.62598 7.69255 6.62598C5.82445 6.62598 4.31006 8.14037 4.31006 10.0085V11.2901C4.31006 13.1582 5.82445 14.6726 7.69255 14.6726C9.56064 14.6726 11.075 13.1582 11.075 11.2901V10.0085Z" stroke="#404366" stroke-width="0.75" stroke-linecap="round" stroke-linejoin="round"/>
<path d="M6.48881 14.4502V15.1969C6.48881 15.6148 6.17118 15.8712 5.72538 15.9603L4.34898 16.2222C2.90014 16.4451 1.56274 17.4705 1.56274 19.0085V25.1828" stroke="#404366" stroke-width="0.75" stroke-linecap="round" stroke-linejoin="round"/>
<path d="M8.90186 14.4502V15.4309C8.90186 15.8823 9.91604 15.9603 10.2058 15.9603C10.8121 15.9604 11.3981 16.1781 11.8574 16.5739C12.3166 16.9697 12.6184 17.5173 12.7079 18.1169L12.9865 19.9948" stroke="#404366" stroke-width="0.75" stroke-linecap="round" stroke-linejoin="round"/>
<path d="M11.2144 19.9951L11.9778 27.2226" stroke="#404366" stroke-width="0.75" stroke-linecap="round" stroke-linejoin="round"/>
<path d="M4.45483 19.9951V27.2226" stroke="#404366" stroke-width="0.75" stroke-linecap="round" stroke-linejoin="round"/>
<path d="M11.9777 27.2227H4.45483" stroke="#404366" stroke-width="0.75" stroke-linecap="round" stroke-linejoin="round"/>
<path d="M6.17139 15.9712C6.59864 16.2779 7.11101 16.4435 7.63695 16.4449C8.16464 16.4377 8.67621 16.262 9.09693 15.9434" stroke="#404366" stroke-width="0.75" stroke-linecap="round" stroke-linejoin="round"/>
<path d="M12.1729 22.0453C12.7376 20.8008 13.1439 19.4903 13.3821 18.1445" stroke="#404366" stroke-width="0.75" stroke-linecap="round" stroke-linejoin="round"/>
<path d="M15.6389 18.501C15.6077 19.76 15.4867 21.0151 15.2767 22.2568C15.1555 23.1209 14.8161 23.9399 14.2904 24.6363C13.9701 24.9695 13.5561 25.1976 13.1033 25.2901C12.6505 25.3827 12.1802 25.3354 11.7549 25.1545" stroke="#404366" stroke-width="0.75" stroke-linecap="round" stroke-linejoin="round"/>
<path d="M10.3394 7.90234L10.3004 8.00822C10.2464 8.16548 10.1562 8.30788 10.0372 8.424C9.91814 8.54013 9.77356 8.62675 9.61502 8.67692C9.3608 8.75479 9.08909 8.75479 8.83487 8.67692L8.19404 8.47631C7.76963 8.3437 7.31341 8.35423 6.89557 8.50626C6.47773 8.6583 6.12142 8.94342 5.88146 9.31775L4.33789 11.7139" stroke="#404366" stroke-width="0.75" stroke-linecap="round" stroke-linejoin="round"/>
<path d="M8.34447 11.1063C8.48604 11.1063 8.6008 10.9017 8.6008 10.6493C8.6008 10.397 8.48604 10.1924 8.34447 10.1924C8.2029 10.1924 8.08813 10.397 8.08813 10.6493C8.08813 10.9017 8.2029 11.1063 8.34447 11.1063Z" fill="#404366"/>
<path d="M25.062 11.2127C25.2036 11.2127 25.3183 11.0081 25.3183 10.7558C25.3183 10.5034 25.2036 10.2988 25.062 10.2988C24.9204 10.2988 24.8057 10.5034 24.8057 10.7558C24.8057 11.0081 24.9204 11.2127 25.062 11.2127Z" fill="#404366"/>
<path d="M27.3745 11.2127C27.5161 11.2127 27.6308 11.0081 27.6308 10.7558C27.6308 10.5034 27.5161 10.2988 27.3745 10.2988C27.2329 10.2988 27.1182 10.5034 27.1182 10.7558C27.1182 11.0081 27.2329 11.2127 27.3745 11.2127Z" fill="#404366"/>
<path d="M10.1667 11.1063C10.3083 11.1063 10.4231 10.9017 10.4231 10.6493C10.4231 10.397 10.3083 10.1924 10.1667 10.1924C10.0252 10.1924 9.9104 10.397 9.9104 10.6493C9.9104 10.9017 10.0252 11.1063 10.1667 11.1063Z" fill="#404366"/>
<path d="M9.25288 12.1934L8.80151 12.5779C8.96312 12.5779 9.13029 12.6392 9.29746 12.6559" stroke="#404366" stroke-width="0.75" stroke-linecap="round" stroke-linejoin="round"/>
<path d="M13.4045 18.1836C13.3518 18.1544 13.3058 18.1146 13.2693 18.0666C13.2329 18.0186 13.2068 17.9636 13.1927 17.905C13.1637 17.7885 13.1543 17.668 13.1649 17.5484C13.1872 17.1958 13.2376 16.8454 13.3153 16.5008C13.325 16.3924 13.377 16.2923 13.4602 16.2221C13.5118 16.1967 13.5701 16.1878 13.627 16.1968C13.6839 16.2058 13.7366 16.2321 13.7778 16.2723C13.8617 16.3529 13.9314 16.4471 13.984 16.5509C14.1493 16.823 14.3627 17.0628 14.6137 17.2586" stroke="#404366" stroke-width="0.75" stroke-linecap="round" stroke-linejoin="round"/>
<path d="M14.5188 16.584C15.2437 16.6337 15.929 16.933 16.458 17.431L15.6556 18.4675" stroke="#404366" stroke-width="0.75" stroke-linecap="round" stroke-linejoin="round"/>
<path d="M14.2402 16.7518C14.5065 16.4072 14.8286 16.1096 15.1931 15.8713C15.3442 15.7599 15.524 15.6941 15.7114 15.6819C15.8036 15.6787 15.8939 15.7083 15.9663 15.7654C16.0388 15.8226 16.0886 15.9035 16.107 15.9939" stroke="#404366" stroke-width="0.75" stroke-linecap="round" stroke-linejoin="round"/>
<path d="M15.3267 16.7454C15.6019 16.4343 15.9232 16.1674 16.2796 15.9541C16.3584 15.9014 16.4524 15.876 16.547 15.8816C16.63 15.9025 16.7018 15.9544 16.7476 16.0265C16.7936 16.0966 16.8275 16.1738 16.8479 16.255" stroke="#404366" stroke-width="0.75" stroke-linecap="round" stroke-linejoin="round"/>
<path d="M16.0344 16.9517C16.2324 16.6658 16.4936 16.4293 16.7979 16.2607C16.869 16.2211 16.9511 16.2055 17.0319 16.2162C17.1768 16.244 17.2269 16.322 17.2269 16.4725C17.2269 16.623 17.043 16.7567 16.9427 16.8849C16.7987 17.0852 16.6364 17.2717 16.4579 17.4421" stroke="#404366" stroke-width="0.75" stroke-linecap="round" stroke-linejoin="round"/>
<path d="M11.27 20.5904C11.7999 20.3751 12.3413 20.1891 12.8916 20.0332" stroke="#404366" stroke-width="0.75" stroke-linecap="round" stroke-linejoin="round"/>
<path d="M2.24829 20.3682C3.001 20.4605 3.74597 20.6077 4.47728 20.8084" stroke="#404366" stroke-width="0.75" stroke-linecap="round" stroke-linejoin="round"/>
<path d="M30.6287 11.2849C30.5077 11.5 30.3079 11.6599 30.0714 11.7307C29.9301 11.772 29.784 11.7945 29.6368 11.7975V12.912C29.6368 13.5032 29.4019 14.0702 28.9839 14.4882C28.5659 14.9062 27.999 15.141 27.4078 15.141H26.2933C25.7021 15.141 25.1352 14.9062 24.7172 14.4882C24.2992 14.0702 24.0643 13.5032 24.0643 12.912V8.8107C24.056 8.74409 24.056 8.6767 24.0643 8.61009C25.7158 8.71167 27.373 8.5499 28.9737 8.13086C29.2167 8.78764 29.4232 9.45736 29.5922 10.1369C29.6201 10.254 29.6535 10.3766 29.6758 10.4992C29.8104 10.4587 29.9519 10.4457 30.0916 10.461C30.2314 10.4763 30.3667 10.5196 30.4894 10.5883C30.5835 10.6746 30.6477 10.7886 30.6728 10.9139C30.6978 11.0391 30.6824 11.169 30.6287 11.2849V11.2849Z" stroke="#404366" stroke-width="0.75" stroke-linecap="round" stroke-linejoin="round"/>
<path d="M24.0811 8.59348H23.5796C23.7834 8.02117 24.1145 7.5026 24.5479 7.0769C24.9813 6.6512 25.5057 6.32949 26.0816 6.13602C27.3731 5.68452 28.7871 5.73423 30.0437 6.27533C31.6318 7.04433 31.7154 8.74951 31.7154 10.2819C31.7154 11.8144 31.0021 13.1796 29.4864 13.6254" stroke="#404366" stroke-width="0.75" stroke-linecap="round" stroke-linejoin="round"/>
<path d="M29.2915 11.7979C29.3973 11.8034 29.5033 11.8034 29.6091 11.7979" stroke="#404366" stroke-width="0.75" stroke-linecap="round" stroke-linejoin="round"/>
<path d="M25.4688 12.8398C25.9397 12.9173 26.4222 12.8849 26.8786 12.7451" stroke="#404366" stroke-width="0.75" stroke-linecap="round" stroke-linejoin="round"/>
<path d="M26.2935 15.9213L25.9536 17.6544L27.3244 17.1807L28.2829 18.2952L30.7069 16.4786L30.1497 15.4365C30.1497 15.4365 28.907 16.6736 26.2935 15.9213Z" stroke="#404366" stroke-width="0.75" stroke-linecap="round" stroke-linejoin="round"/>
<path d="M26.2935 15.9212L26.8786 16.0661V15.1299" stroke="#404366" stroke-width="0.75" stroke-linecap="round" stroke-linejoin="round"/>
<path d="M29.843 15.6812V13.4912" stroke="#404366" stroke-width="0.75" stroke-linecap="round" stroke-linejoin="round"/>
<path d="M30.7068 16.4951C31.7551 16.6935 32.7045 17.2432 33.3984 18.0536C34.0923 18.864 34.4893 19.8867 34.5239 20.9531L34.7803 27.2221" stroke="#404366" stroke-width="0.75" stroke-linecap="round" stroke-linejoin="round"/>
<path d="M26.2153 16.4951H25.6581C24.6098 16.6935 23.6604 17.2432 22.9665 18.0536C22.2725 18.864 21.8755 19.8867 21.8409 20.9531L21.6013 27.25" stroke="#404366" stroke-width="0.75" stroke-linecap="round" stroke-linejoin="round"/>
<path d="M23.6187 21.3994V27.2226" stroke="#404366" stroke-width="0.75" stroke-linecap="round" stroke-linejoin="round"/>
<path d="M27.7589 27.2112H20.1079L20.7655 22.001H28.4165L27.7589 27.2112Z" fill="white" stroke="#404366" stroke-width="0.75" stroke-linecap="round" stroke-linejoin="round"/>
<path d="M30.7456 21.9287C30.8957 21.9812 31.0247 22.0809 31.1134 22.2129V27.1557" stroke="#404366" stroke-width="0.75" stroke-linecap="round" stroke-linejoin="round"/>
<path d="M15.7114 7.17797C16.5716 7.2174 17.4125 6.91489 18.0504 6.33648C18.6883 5.75807 19.0715 4.95076 19.1162 4.09082C19.0715 3.23088 18.6883 2.42357 18.0504 1.84516C17.4125 1.26676 16.5716 0.964243 15.7114 1.00368C14.8508 0.962756 14.0092 1.26476 13.3709 1.84347C12.7327 2.42218 12.3499 3.23036 12.3066 4.09082C12.3089 4.53329 12.4101 4.96964 12.603 5.36788C12.7958 5.76611 13.0754 6.11613 13.4211 6.39225L12.8639 8.57109L15.7114 7.17797Z" stroke="#404366" stroke-width="0.75" stroke-linecap="round" stroke-linejoin="round"/>
<path d="M20.3976 13.4636C19.8954 13.7735 19.316 13.9357 18.7259 13.9317C17.9791 13.9665 17.249 13.704 16.6954 13.2016C16.1419 12.6992 15.81 11.9979 15.7725 11.2513C15.8156 10.5076 16.1508 9.81113 16.7049 9.31333C17.2591 8.81553 17.9874 8.55673 18.7314 8.59324C19.4782 8.55839 20.2083 8.82091 20.7619 9.3233C21.3154 9.82569 21.6473 10.527 21.6848 11.2736C21.6836 11.5963 21.6212 11.9159 21.501 12.2153L22.6155 12.9955L20.3976 13.4636Z" stroke="#404366" stroke-width="0.75" stroke-linecap="round" stroke-linejoin="round"/>
<path d="M1 27.2227H36.4688" stroke="#404366" stroke-width="0.75" stroke-linecap="round" stroke-linejoin="round"/>
<path d="M28.4165 22.001L29.5031 27.2112" stroke="#404366" stroke-width="0.75" stroke-linecap="round" stroke-linejoin="round"/>
<path d="M22.0806 23.8848H26.455" stroke="#404366" stroke-width="0.75" stroke-linecap="round" stroke-linejoin="round"/>
<path d="M21.8467 25.3223H26.2155" stroke="#404366" stroke-width="0.75" stroke-linecap="round" stroke-linejoin="round"/>
</svg>
