<svg width="40" height="28" viewBox="0 0 40 28" fill="none" xmlns="http://www.w3.org/2000/svg">
<path d="M23.3248 17.6045H8.78467V27.2505H23.3248V17.6045Z" fill="white" stroke="#404366" stroke-width="0.81" stroke-miterlimit="10"/>
<path d="M8.78467 20.2861H23.3303" stroke="#404366" stroke-width="0.81" stroke-miterlimit="10"/>
<path d="M13.7938 25.1914C13.6573 25.3428 13.487 25.4598 13.2967 25.533C13.1065 25.6063 12.9017 25.6337 12.6989 25.613C12.4961 25.6337 12.2913 25.6063 12.1011 25.533C11.9109 25.4598 11.7406 25.3428 11.604 25.1914C11.3635 24.7934 11.2525 24.3305 11.2865 23.8666C11.2545 23.3977 11.3652 22.9301 11.604 22.5254C11.7378 22.3697 11.9072 22.2485 12.0978 22.1723C12.2884 22.096 12.4946 22.0669 12.6989 22.0874C12.9032 22.0669 13.1094 22.096 13.3 22.1723C13.4906 22.2485 13.66 22.3697 13.7938 22.5254C14.035 22.9292 14.1459 23.3975 14.1113 23.8666C14.149 24.3308 14.0378 24.7948 13.7938 25.1914ZM12.1515 24.748C12.2096 24.8381 12.2915 24.9103 12.3881 24.9567C12.4847 25.0031 12.5923 25.0218 12.6989 25.0108C12.8055 25.0218 12.9131 25.0031 13.0098 24.9567C13.1064 24.9103 13.1883 24.8381 13.2464 24.748C13.3648 24.4701 13.4155 24.168 13.3942 23.8666C13.4134 23.56 13.3629 23.2531 13.2464 22.9688C13.182 22.8848 13.0991 22.8167 13.0042 22.7699C12.9092 22.723 12.8048 22.6987 12.6989 22.6987C12.5931 22.6987 12.4886 22.723 12.3937 22.7699C12.2988 22.8167 12.2159 22.8848 12.1515 22.9688C12.0349 23.2531 11.9844 23.56 12.0037 23.8666C11.9806 24.1675 12.0294 24.4696 12.146 24.748H12.1515Z" fill="#404366"/>
<path d="M14.8286 25.553V22.126H15.9947L16.8158 24.9289H16.8651V22.126H17.5549V25.5311H16.4162L15.5567 22.7501H15.5074V25.553H14.8286Z" fill="#404366"/>
<path d="M19.8375 24.3157V23.7135H20.8284V25.4818C20.445 25.5495 20.057 25.588 19.6678 25.5968C19.4642 25.6214 19.2577 25.5954 19.0667 25.5209C18.8756 25.4464 18.706 25.3257 18.5729 25.1698C18.3527 24.7608 18.2557 24.2969 18.2937 23.834C18.2541 23.3677 18.3613 22.9006 18.6003 22.4982C18.7312 22.3509 18.8953 22.2368 19.079 22.1654C19.2627 22.094 19.4608 22.0674 19.6568 22.0876C19.9953 22.0915 20.3327 22.1281 20.6641 22.1971L20.8448 22.23V22.7774C20.5195 22.7384 20.1924 22.7165 19.8649 22.7117C19.678 22.6967 19.4903 22.7267 19.3174 22.7993C19.2029 22.8781 19.1227 22.9975 19.093 23.1333C19.0311 23.4061 19.0053 23.6858 19.0163 23.9654C18.9941 24.2473 19.045 24.5301 19.1641 24.7865C19.2353 24.8748 19.3283 24.9429 19.434 24.9842C19.5396 25.0255 19.6541 25.0385 19.7663 25.0219H20.1769V24.3157H19.8375Z" fill="#404366"/>
<path d="M38.8448 17.6045H24.3047V27.2505H38.8448V17.6045Z" fill="white" stroke="#404366" stroke-width="0.81" stroke-miterlimit="10"/>
<path d="M24.3047 20.2861H38.8448" stroke="#404366" stroke-width="0.81" stroke-miterlimit="10"/>
<path d="M29.3138 25.1919C29.0127 25.4612 28.6229 25.6101 28.2189 25.6101C27.8149 25.6101 27.4251 25.4612 27.124 25.1919C26.88 24.7953 26.7688 24.3312 26.8065 23.8671C26.772 23.398 26.8829 22.9297 27.124 22.5258C27.4192 22.2447 27.8113 22.0879 28.2189 22.0879C28.6266 22.0879 29.0186 22.2447 29.3138 22.5258C29.5527 22.9306 29.6634 23.3982 29.6313 23.8671C29.6653 24.3309 29.5544 24.7939 29.3138 25.1919ZM27.6715 24.7485C27.7383 24.8289 27.8219 24.8936 27.9165 24.938C28.0112 24.9824 28.1144 25.0054 28.2189 25.0054C28.3234 25.0054 28.4267 24.9824 28.5213 24.938C28.6159 24.8936 28.6996 24.8289 28.7664 24.7485C28.8848 24.4706 28.9355 24.1684 28.9142 23.8671C28.9334 23.5605 28.8829 23.2535 28.7664 22.9693C28.702 22.8853 28.6191 22.8172 28.5242 22.7704C28.4292 22.7235 28.3248 22.6991 28.2189 22.6991C28.1131 22.6991 28.0086 22.7235 27.9137 22.7704C27.8188 22.8172 27.7359 22.8853 27.6715 22.9693C27.5549 23.2535 27.5044 23.5605 27.5237 23.8671C27.5006 24.168 27.5494 24.4701 27.666 24.7485H27.6715Z" fill="#404366"/>
<path d="M30.3376 25.553V22.126H31.5037L32.3194 24.9289H32.3741V22.126H33.0749V25.5311H31.9362L31.0876 22.7282H31.0384V25.5311L30.3376 25.553Z" fill="#404366"/>
<path d="M35.3575 24.3156V23.7134H36.3593V25.4816C35.976 25.5494 35.588 25.5878 35.1988 25.5966C34.9952 25.6213 34.7887 25.5952 34.5977 25.5207C34.4066 25.4462 34.237 25.3256 34.1039 25.1696C33.8727 24.7583 33.7679 24.2879 33.8028 23.8174C33.7649 23.3505 33.874 22.8834 34.1148 22.4816C34.2458 22.3343 34.4099 22.2202 34.5936 22.1488C34.7773 22.0774 34.9753 22.0508 35.1714 22.071C35.5099 22.0749 35.8473 22.1115 36.1787 22.1805L36.3593 22.2134V22.7608C36.0323 22.7216 35.7033 22.6997 35.3739 22.6951C35.1871 22.6797 34.9992 22.7097 34.8265 22.7827C34.712 22.8615 34.6318 22.9809 34.602 23.1167C34.5402 23.3895 34.5144 23.6692 34.5254 23.9488C34.5032 24.2307 34.5541 24.5135 34.6732 24.7699C34.7663 24.9287 34.9688 25.0053 35.2754 25.0053H35.686V24.3156H35.3575Z" fill="#404366"/>
<path d="M4.54199 18.1621H6.66061" stroke="#404366" stroke-width="0.81" stroke-linecap="round" stroke-linejoin="round"/>
<path d="M6.39233 18.8525H7.45438" stroke="#404366" stroke-width="0.81" stroke-linecap="round" stroke-linejoin="round"/>
<path d="M2.63672 18.8525H4.75533" stroke="#404366" stroke-width="0.81" stroke-linecap="round" stroke-linejoin="round"/>
<path d="M12.3923 18.1621H14.5109" stroke="#404366" stroke-width="0.81" stroke-linecap="round" stroke-linejoin="round"/>
<path d="M20.1223 18.1621H22.2409" stroke="#404366" stroke-width="0.81" stroke-linecap="round" stroke-linejoin="round"/>
<path d="M11.5439 18.8525H12.6005" stroke="#404366" stroke-width="0.81" stroke-linecap="round" stroke-linejoin="round"/>
<path d="M21.9727 18.8525H23.0347" stroke="#404366" stroke-width="0.81" stroke-linecap="round" stroke-linejoin="round"/>
<path d="M18.217 18.8525H20.3357" stroke="#404366" stroke-width="0.81" stroke-linecap="round" stroke-linejoin="round"/>
<path d="M15.5401 9.20605H1V18.852H15.5401V9.20605Z" fill="white" stroke="#404366" stroke-width="0.81" stroke-miterlimit="10"/>
<path d="M1 11.8887H15.5401" stroke="#404366" stroke-width="0.81" stroke-miterlimit="10"/>
<path d="M6.00367 16.7942C5.86739 16.9459 5.69713 17.0632 5.50684 17.1365C5.31654 17.2097 5.1116 17.2369 4.90878 17.2158C4.706 17.2365 4.50119 17.2091 4.31097 17.1358C4.12074 17.0626 3.95045 16.9456 3.81389 16.7942C3.57908 16.3943 3.47389 15.9315 3.5128 15.4694C3.48074 15.0005 3.59144 14.5329 3.83032 14.1282C3.9641 13.9725 4.1335 13.8513 4.32411 13.7751C4.51473 13.6988 4.72093 13.6697 4.92521 13.6902C5.12952 13.6693 5.33587 13.6982 5.52656 13.7744C5.71726 13.8507 5.88661 13.9721 6.0201 14.1282C6.26126 14.532 6.37213 15.0003 6.33762 15.4694C6.37044 15.9353 6.25343 16.3996 6.00367 16.7942ZM4.36134 16.3508C4.41942 16.4409 4.50131 16.5131 4.59794 16.5595C4.69458 16.6059 4.80217 16.6246 4.90878 16.6136C5.0154 16.6246 5.12299 16.6059 5.21962 16.5595C5.31625 16.5131 5.39815 16.4409 5.45623 16.3508C5.57469 16.0729 5.62535 15.7708 5.60404 15.4694C5.6233 15.1628 5.57276 14.8559 5.45623 14.5716C5.40075 14.478 5.31985 14.4021 5.22295 14.3527C5.12604 14.3033 5.0171 14.2824 4.90878 14.2924C4.80047 14.2824 4.69152 14.3033 4.59462 14.3527C4.49771 14.4021 4.41682 14.478 4.36134 14.5716C4.2448 14.8559 4.19426 15.1628 4.21353 15.4694C4.19049 15.7703 4.23927 16.0724 4.35586 16.3508H4.36134Z" fill="#404366"/>
<path d="M7.03833 17.1551V13.75H8.20439L9.02556 16.5529H9.07483V13.75H9.76461V17.1551H8.62592L7.77738 14.3522H7.72811V17.1551H7.03833Z" fill="#404366"/>
<path d="M12.0475 15.9347V15.3325H13.0384V17.1008C12.655 17.1685 12.267 17.2069 11.8778 17.2157C11.6742 17.2404 11.4677 17.2143 11.2767 17.1398C11.0856 17.0653 10.916 16.9447 10.7829 16.7887C10.5545 16.3765 10.4517 15.9064 10.4873 15.4365C10.4477 14.9702 10.5549 14.5032 10.7939 14.1008C10.9248 13.9534 11.0889 13.8394 11.2726 13.768C11.4563 13.6966 11.6544 13.6699 11.8504 13.6902C12.1886 13.6947 12.5257 13.7296 12.8577 13.7942L13.0384 13.8325V14.38C12.7131 14.341 12.386 14.319 12.0585 14.3143C11.8716 14.2992 11.6839 14.3293 11.511 14.4019C11.4531 14.4396 11.4034 14.4886 11.3648 14.546C11.3262 14.6034 11.2996 14.6679 11.2866 14.7358C11.2146 15.0036 11.1778 15.2796 11.1771 15.557C11.1548 15.8388 11.2057 16.1217 11.3249 16.3781C11.3961 16.4664 11.4891 16.5345 11.5947 16.5758C11.7003 16.6171 11.8149 16.6301 11.9271 16.6135H12.3377V15.9347H12.0475Z" fill="#404366"/>
<path d="M28.022 18.1621H30.1406" stroke="#404366" stroke-width="0.81" stroke-linecap="round" stroke-linejoin="round"/>
<path d="M31.1149 9.20605H16.5747V18.852H31.1149V9.20605Z" fill="white" stroke="#404366" stroke-width="0.81" stroke-miterlimit="10"/>
<path d="M16.5747 11.8887H31.1203" stroke="#404366" stroke-width="0.81" stroke-miterlimit="10"/>
<path d="M21.5785 16.794C21.4403 16.9424 21.2693 17.0563 21.0792 17.1266C20.889 17.197 20.6851 17.2218 20.4836 17.1991C20.2808 17.2198 20.076 17.1924 19.8858 17.1192C19.6956 17.0459 19.5253 16.9289 19.3887 16.7776C19.1482 16.3795 19.0372 15.9166 19.0712 15.4527C19.0425 14.9893 19.153 14.528 19.3887 14.1279C19.5225 13.9722 19.6919 13.8511 19.8825 13.7748C20.0731 13.6986 20.2793 13.6695 20.4836 13.69C20.6879 13.6695 20.8941 13.6986 21.0847 13.7748C21.2753 13.8511 21.4447 13.9722 21.5785 14.1279C21.8174 14.5327 21.9281 15.0003 21.896 15.4692C21.93 15.933 21.819 16.3959 21.5785 16.794ZM19.9361 16.3506C20.0029 16.431 20.0866 16.4957 20.1812 16.5401C20.2758 16.5845 20.3791 16.6075 20.4836 16.6075C20.5881 16.6075 20.6913 16.5845 20.786 16.5401C20.8806 16.4957 20.9643 16.431 21.031 16.3506C21.1495 16.0726 21.2002 15.7705 21.1788 15.4692C21.1981 15.1626 21.1476 14.8556 21.031 14.5714C20.9666 14.4873 20.8838 14.4193 20.7888 14.3724C20.6939 14.3256 20.5895 14.3012 20.4836 14.3012C20.3777 14.3012 20.2733 14.3256 20.1784 14.3724C20.0834 14.4193 20.0006 14.4873 19.9361 14.5714C19.8196 14.8556 19.7691 15.1626 19.7883 15.4692C19.767 15.7705 19.8177 16.0726 19.9361 16.3506Z" fill="#404366"/>
<path d="M22.6187 17.1551V13.75H23.7683L24.5895 16.5529H24.6387V13.75H25.3285V17.1551H24.2062L23.3577 14.3522H23.3084V17.1551H22.6187Z" fill="#404366"/>
<path d="M27.6278 15.9347V15.3325H28.6187V17.1008C28.2353 17.1685 27.8473 17.2069 27.4581 17.2157C27.2546 17.2404 27.048 17.2143 26.857 17.1398C26.666 17.0653 26.4963 16.9447 26.3632 16.7887C26.1348 16.3765 26.0321 15.9064 26.0676 15.4365C26.028 14.9702 26.1352 14.5032 26.3742 14.1008C26.5051 13.9534 26.6692 13.8394 26.8529 13.768C27.0366 13.6966 27.2347 13.6699 27.4307 13.6902C27.7689 13.6947 28.1061 13.7296 28.438 13.7942L28.6187 13.8325V14.38C28.2916 14.3408 27.9627 14.3189 27.6333 14.3143C27.4464 14.2988 27.2586 14.3289 27.0859 14.4019C27.0279 14.4396 26.9782 14.4886 26.9396 14.546C26.9011 14.6034 26.8745 14.6679 26.8614 14.7358C26.7968 15.0046 26.7674 15.2806 26.7738 15.557C26.7516 15.8388 26.8025 16.1217 26.9216 16.3781C26.9928 16.4664 27.0858 16.5345 27.1915 16.5758C27.2971 16.6171 27.4116 16.6301 27.5238 16.6135H27.9344V15.9347H27.6278Z" fill="#404366"/>
<path d="M23.3248 1H8.78467V10.646H23.3248V1Z" fill="white" stroke="#404366" stroke-width="0.81" stroke-miterlimit="10"/>
<path d="M8.78467 3.68262H23.3303" stroke="#404366" stroke-width="0.81" stroke-miterlimit="10"/>
<path d="M13.7938 8.58793C13.6573 8.73926 13.487 8.85628 13.2967 8.92952C13.1065 9.00276 12.9017 9.03014 12.6989 9.00946C12.4961 9.03014 12.2913 9.00276 12.1011 8.92952C11.9109 8.85628 11.7406 8.73926 11.604 8.58793C11.3635 8.18988 11.2525 7.72695 11.2865 7.26311C11.2545 6.79422 11.3652 6.32662 11.604 5.92187C11.7378 5.76615 11.9072 5.64502 12.0978 5.56877C12.2884 5.49252 12.4946 5.46341 12.6989 5.48391C12.9032 5.46341 13.1094 5.49252 13.3 5.56877C13.4906 5.64502 13.66 5.76615 13.7938 5.92187C14.035 6.32569 14.1459 6.79402 14.1113 7.26311C14.149 7.72724 14.0378 8.19132 13.7938 8.58793ZM12.1515 8.1445C12.2096 8.23458 12.2915 8.30682 12.3881 8.35321C12.4847 8.39959 12.5923 8.4183 12.6989 8.40727C12.8055 8.4183 12.9131 8.39959 13.0098 8.35321C13.1064 8.30682 13.1883 8.23458 13.2464 8.1445C13.3648 7.86658 13.4155 7.56447 13.3942 7.26311C13.4134 6.95651 13.3629 6.64954 13.2464 6.3653C13.182 6.28128 13.0991 6.21322 13.0042 6.16637C12.9092 6.11953 12.8048 6.09516 12.6989 6.09516C12.5931 6.09516 12.4886 6.11953 12.3937 6.16637C12.2988 6.21322 12.2159 6.28128 12.1515 6.3653C12.0349 6.64954 11.9844 6.95651 12.0037 7.26311C11.9806 7.56403 12.0294 7.86612 12.146 8.1445H12.1515Z" fill="#404366"/>
<path d="M14.8286 8.94905V5.54395H15.9947L16.8158 8.34686H16.8651V5.54395H17.5549V8.94905H16.4162L15.5567 6.14614H15.5074V8.94905H14.8286Z" fill="#404366"/>
<path d="M19.8375 7.72767V7.12548H20.8283V8.89373C20.445 8.96147 20.057 8.9999 19.6678 9.00869C19.4642 9.03337 19.2577 9.0073 19.0666 8.93279C18.8756 8.85829 18.706 8.73766 18.5729 8.58168C18.3502 8.16774 18.2531 7.69779 18.2937 7.22949C18.2541 6.76316 18.3613 6.29613 18.6002 5.89373C18.7312 5.7464 18.8953 5.63234 19.079 5.56095C19.2627 5.48956 19.4608 5.46289 19.6568 5.48314C19.995 5.48771 20.3321 5.52252 20.6641 5.58716L20.8448 5.62548V6.17292C20.5195 6.13394 20.1924 6.11202 19.8648 6.10723C19.678 6.09221 19.4902 6.12224 19.3174 6.19482C19.2595 6.23255 19.2097 6.28157 19.1712 6.33894C19.1326 6.39632 19.106 6.46088 19.0929 6.52876C19.0215 6.79481 18.9847 7.06898 18.9835 7.34446C18.9612 7.62634 19.0121 7.90919 19.1313 8.16562C19.2025 8.25388 19.2955 8.32202 19.4011 8.3633C19.5067 8.40459 19.6213 8.41759 19.7335 8.40102H20.144V7.72767H19.8375Z" fill="#404366"/>
</svg>
