<svg width="30" height="30" viewBox="0 0 30 30" fill="none" xmlns="http://www.w3.org/2000/svg">
<path d="M15.4442 8.27794C15.4455 8.50369 15.379 8.72463 15.2535 8.91227C15.128 9.0999 14.9491 9.24561 14.74 9.33061C14.5308 9.4156 14.301 9.43598 14.0802 9.38911C13.8594 9.34224 13.6577 9.23027 13.5011 9.06765V13.5426H8.95429C9.08718 13.4386 9.19461 13.3057 9.26842 13.1539C9.34223 13.0021 9.38048 12.8355 9.38025 12.6668C9.3903 12.5126 9.36861 12.358 9.31652 12.2125C9.26442 12.067 9.18303 11.9338 9.07739 11.821C8.97174 11.7083 8.84408 11.6184 8.7023 11.5569C8.56052 11.4955 8.40765 11.4638 8.25313 11.4638C8.09861 11.4638 7.94573 11.4955 7.80395 11.5569C7.66217 11.6184 7.53451 11.7083 7.42887 11.821C7.32322 11.9338 7.24183 12.067 7.18973 12.2125C7.13764 12.358 7.11595 12.5126 7.126 12.6668C7.11997 12.8331 7.15223 12.9985 7.22027 13.1504C7.28832 13.3023 7.39034 13.4365 7.51846 13.5426H2.97168V9.12508C3.13272 9.2722 3.33307 9.36932 3.54833 9.40461C3.76358 9.4399 3.98445 9.41183 4.18404 9.32383C4.38363 9.23583 4.55332 9.09169 4.67245 8.90897C4.79158 8.72624 4.85501 8.51282 4.85501 8.29469C4.85501 8.07656 4.79158 7.86314 4.67245 7.68042C4.55332 7.4977 4.38363 7.35356 4.18404 7.26556C3.98445 7.17756 3.76358 7.14949 3.54833 7.18478C3.33307 7.22007 3.13272 7.31719 2.97168 7.46431V3.01325H7.63333C7.46897 2.9139 7.33346 2.77328 7.24027 2.60536C7.14707 2.43744 7.09943 2.24806 7.10207 2.05603C7.12073 1.76979 7.2476 1.50138 7.45692 1.30526C7.66625 1.10913 7.94235 1 8.2292 1C8.51604 1 8.79214 1.10913 9.00147 1.30526C9.21079 1.50138 9.33766 1.76979 9.35632 2.05603C9.35994 2.24769 9.31322 2.43694 9.22084 2.60491C9.12846 2.77287 8.99365 2.91367 8.82985 3.01325H13.5011V7.50738C13.6055 7.39645 13.7316 7.30818 13.8716 7.24808C14.0115 7.18797 14.1624 7.15731 14.3147 7.158C14.6126 7.15799 14.8985 7.27567 15.11 7.48543C15.3216 7.69519 15.4417 7.98004 15.4442 8.27794V8.27794Z" stroke="#404366" stroke-width="0.75" stroke-linecap="round" stroke-linejoin="round"/>
<path d="M1.00004 21.6932C0.998772 21.8421 1.02709 21.9898 1.08334 22.1277C1.1396 22.2656 1.22267 22.3909 1.32775 22.4964C1.43282 22.6019 1.55781 22.6856 1.69545 22.7424C1.83309 22.7992 1.98064 22.8282 2.12956 22.8275C2.28125 22.8269 2.43131 22.7961 2.57099 22.737C2.71067 22.6778 2.8372 22.5914 2.94319 22.4829V26.9579H7.51869C7.38401 26.8541 7.27508 26.7207 7.20037 26.568C7.12566 26.4152 7.08719 26.2473 7.08794 26.0773C7.08794 25.7777 7.20694 25.4904 7.41877 25.2786C7.6306 25.0668 7.91789 24.9478 8.21746 24.9478C8.51702 24.9478 8.80432 25.0668 9.01615 25.2786C9.22797 25.4904 9.34697 25.7777 9.34697 26.0773C9.34888 26.2485 9.30993 26.4177 9.23335 26.5709C9.15678 26.724 9.04478 26.8567 8.90665 26.9579H13.4774V22.5404C13.3148 22.6856 13.1137 22.7807 12.8983 22.8141C12.6829 22.8476 12.4624 22.818 12.2634 22.729C12.0645 22.6399 11.8955 22.4952 11.777 22.3123C11.6584 22.1293 11.5954 21.916 11.5954 21.698C11.5954 21.48 11.6584 21.2667 11.777 21.0838C11.8955 20.9008 12.0645 20.7561 12.2634 20.667C12.4624 20.578 12.6829 20.5484 12.8983 20.5819C13.1137 20.6154 13.3148 20.7104 13.4774 20.8557V16.4285H8.81093C8.97529 16.3292 9.1108 16.1886 9.20399 16.0206C9.29719 15.8527 9.34483 15.6633 9.34219 15.4713C9.34219 15.1717 9.22319 14.8844 9.01136 14.6726C8.79954 14.4608 8.51224 14.3418 8.21267 14.3418C7.91311 14.3418 7.62581 14.4608 7.41398 14.6726C7.20216 14.8844 7.08316 15.1717 7.08316 15.4713C7.08051 15.6633 7.12816 15.8527 7.22135 16.0206C7.31455 16.1886 7.45005 16.3292 7.61441 16.4285H2.94319V20.9227C2.83976 20.8102 2.71394 20.7205 2.57382 20.6596C2.4337 20.5986 2.28237 20.5675 2.12956 20.5685C1.83082 20.5685 1.54424 20.6868 1.33256 20.8976C1.12087 21.1084 1.00131 21.3945 1.00004 21.6932V21.6932Z" stroke="#404366" stroke-width="0.75" stroke-linecap="round" stroke-linejoin="round"/>
<path d="M10.5245 6.02368C11.1484 6.02368 11.6541 5.51798 11.6541 4.89416C11.6541 4.27035 11.1484 3.76465 10.5245 3.76465C9.90072 3.76465 9.39502 4.27035 9.39502 4.89416C9.39502 5.51798 9.90072 6.02368 10.5245 6.02368Z" stroke="#404366" stroke-width="0.75" stroke-linecap="round" stroke-linejoin="round"/>
<path d="M12.1321 7.7561C12.1228 8.11713 12.0239 8.47018 11.8443 8.78349C11.6647 9.09679 11.4099 9.36051 11.1031 9.55088V10.7235H10.3899V9.90027C10.0805 9.99982 9.75772 10.0515 9.43271 10.0534C9.03933 10.0609 8.64805 9.9943 8.27926 9.85719V10.7378H7.55656V9.42644C7.18975 9.1482 6.92009 8.7613 6.786 8.32086H5.95801V7.2727H6.76686C6.855 6.94762 7.01341 6.64585 7.2309 6.38866C7.4484 6.13147 7.71967 5.92515 8.0256 5.78423L8.28883 5.01367L8.72915 5.54971C8.95964 5.49378 9.19557 5.46329 9.43271 5.45878C10.9212 5.45878 12.1321 6.50693 12.1321 7.7561Z" fill="white" stroke="#404366" stroke-width="0.75" stroke-linecap="round" stroke-linejoin="round"/>
<path d="M8.39948 7.68471C8.59773 7.68471 8.75844 7.524 8.75844 7.32575C8.75844 7.12751 8.59773 6.9668 8.39948 6.9668C8.20124 6.9668 8.04053 7.12751 8.04053 7.32575C8.04053 7.524 8.20124 7.68471 8.39948 7.68471Z" fill="#404366"/>
<path d="M29.3291 8.42148C29.3508 8.27409 29.3433 8.12387 29.3069 7.9794C29.2705 7.83493 29.2061 7.69903 29.1172 7.57948C29.0283 7.45992 28.9167 7.35905 28.7888 7.28262C28.661 7.20619 28.5193 7.15569 28.3719 7.13403C28.0685 7.09224 27.7608 7.1713 27.5152 7.35418L28.1757 2.92706L23.6624 2.27136C23.7989 2.40887 23.8978 2.57919 23.9495 2.76596C24.0012 2.95272 24.0039 3.14964 23.9575 3.33778C23.9111 3.52592 23.8171 3.69896 23.6844 3.84025C23.5518 3.98154 23.3851 4.08634 23.2002 4.14456C23.0154 4.20278 22.8187 4.21247 22.6291 4.1727C22.4394 4.13293 22.2632 4.04503 22.1173 3.91745C21.9714 3.78988 21.8608 3.62692 21.7962 3.44426C21.7315 3.26159 21.7149 3.06535 21.748 2.87441C21.7714 2.70577 21.8344 2.54505 21.9317 2.40533C22.029 2.26561 22.1579 2.15084 22.3079 2.07035L17.7659 1.39551L17.115 5.7652C17.2972 5.6455 17.5102 5.58109 17.7282 5.57975C17.9463 5.57841 18.16 5.6402 18.3437 5.75766C18.5274 5.87513 18.6731 6.04324 18.7634 6.24171C18.8536 6.44019 18.8845 6.66054 18.8523 6.87617C18.8201 7.0918 18.7261 7.2935 18.5818 7.45693C18.4375 7.62035 18.2489 7.73851 18.039 7.79715C17.829 7.85578 17.6065 7.85239 17.3984 7.78738C17.1903 7.72236 17.0054 7.59851 16.8661 7.43076L16.2104 11.81L20.8242 12.4992C20.6491 12.5728 20.4958 12.6903 20.3793 12.8404C20.2628 12.9905 20.1869 13.168 20.159 13.3559C20.1145 13.6523 20.1897 13.9542 20.3678 14.1952C20.546 14.4362 20.8126 14.5966 21.109 14.641C21.4054 14.6854 21.7073 14.6103 21.9483 14.4321C22.1893 14.254 22.3496 13.9874 22.3941 13.691C22.4223 13.5032 22.402 13.3114 22.3349 13.1337C22.2679 12.9561 22.1564 12.7986 22.0112 12.6763L26.6298 13.3607L27.2902 8.90009C27.3748 9.02823 27.4854 9.1371 27.6149 9.21957C27.7444 9.30204 27.8898 9.35627 28.0417 9.3787C28.1891 9.40105 28.3396 9.39397 28.4843 9.35787C28.629 9.32177 28.7652 9.25737 28.8849 9.16837C29.0045 9.07938 29.1054 8.96756 29.1817 8.83936C29.2579 8.71117 29.308 8.56914 29.3291 8.42148V8.42148Z" stroke="#404366" stroke-width="0.75" stroke-linecap="round" stroke-linejoin="round"/>
<path d="M22.1498 10.2302C20.2832 9.22507 19.0053 6.27206 20.4411 5.40099C21.877 4.52992 22.7624 6.12369 22.7624 6.12369C22.7624 6.12369 24.0498 4.84102 25.1937 6.12369C26.3376 7.40636 24.2413 9.81376 22.1498 10.2302Z" stroke="#404366" stroke-width="0.75" stroke-linecap="round" stroke-linejoin="round"/>
<path d="M24.8632 8.43429L22.5057 7.41069C22.1299 7.24751 21.6929 7.41989 21.5297 7.7957L21.5278 7.80009C21.3647 8.17591 21.537 8.61284 21.9129 8.77602L24.2703 9.79962C24.6462 9.96279 25.0831 9.79042 25.2463 9.4146L25.2482 9.41021C25.4114 9.0344 25.239 8.59746 24.8632 8.43429Z" fill="white" stroke="#404366" stroke-width="0.75" stroke-linecap="round" stroke-linejoin="round"/>
<path d="M23.1022 7.76562L22.7241 8.53618" stroke="#404366" stroke-width="0.75" stroke-linecap="round" stroke-linejoin="round"/>
<path d="M24.2702 8.2207L23.9399 8.96733" stroke="#404366" stroke-width="0.75" stroke-linecap="round" stroke-linejoin="round"/>
<path d="M5.64258 22.9952C5.64258 21.9074 6.07472 20.8641 6.84393 20.0949C7.61314 19.3257 8.65642 18.8936 9.74425 18.8936" stroke="#404366" stroke-width="0.75" stroke-linecap="round" stroke-linejoin="round"/>
<path d="M6.67188 22.9952C6.67061 22.1786 6.99347 21.3948 7.56957 20.816C8.14567 20.2372 8.92792 19.9107 9.74455 19.9082" stroke="#404366" stroke-width="0.75" stroke-linecap="round" stroke-linejoin="round"/>
<path d="M7.69629 22.9956C7.69629 22.4519 7.91195 21.9304 8.29597 21.5454C8.67999 21.1605 9.20101 20.9437 9.74473 20.9424" stroke="#404366" stroke-width="0.75" stroke-linecap="round" stroke-linejoin="round"/>
<path d="M9.44249 23.2199C9.73325 23.2199 9.96895 22.9842 9.96895 22.6935C9.96895 22.4027 9.73325 22.167 9.44249 22.167C9.15172 22.167 8.91602 22.4027 8.91602 22.6935C8.91602 22.9842 9.15172 23.2199 9.44249 23.2199Z" fill="#404366"/>
<path d="M14.4395 21.7178C14.4392 21.4925 14.5063 21.2722 14.6322 21.0853C14.7581 20.8984 14.937 20.7535 15.1459 20.6691C15.3549 20.5847 15.5843 20.5647 15.8046 20.6117C16.025 20.6587 16.2263 20.7706 16.3826 20.9329V16.4531H20.9533C20.8027 16.5717 20.6848 16.7267 20.6106 16.9035C20.5364 17.0802 20.5084 17.2729 20.5293 17.4635C20.5502 17.6541 20.6192 17.8362 20.7299 17.9927C20.8405 18.1492 20.9892 18.275 21.1619 18.3582C21.3346 18.4413 21.5257 18.4792 21.7171 18.4682C21.9084 18.4572 22.0939 18.3976 22.2559 18.2951C22.4179 18.1927 22.5511 18.0507 22.6431 17.8825C22.7351 17.7143 22.7828 17.5255 22.7816 17.3338C22.7837 17.164 22.7462 16.9961 22.6723 16.8433C22.5984 16.6905 22.49 16.5569 22.3556 16.4531H26.9216V20.8659C26.7842 20.7475 26.6203 20.6641 26.4437 20.6227C26.2672 20.5814 26.0833 20.5833 25.9076 20.6284C25.732 20.6735 25.5699 20.7604 25.435 20.8816C25.3002 21.0029 25.1967 21.155 25.1334 21.3249C25.07 21.4948 25.0487 21.6775 25.0712 21.8574C25.0937 22.0373 25.1594 22.2091 25.2626 22.3582C25.3659 22.5073 25.5036 22.6292 25.6641 22.7135C25.8247 22.7978 26.0032 22.8421 26.1845 22.8426C26.4576 22.8404 26.7209 22.7402 26.9264 22.5602V26.9873H22.2503C22.4154 27.0859 22.5514 27.2264 22.6447 27.3945C22.738 27.5626 22.7852 27.7523 22.7816 27.9445C22.7629 28.2308 22.6361 28.4992 22.4268 28.6953C22.2174 28.8914 21.9413 29.0005 21.6545 29.0005C21.3676 29.0005 21.0915 28.8914 20.8822 28.6953C20.6729 28.4992 20.546 28.2308 20.5274 27.9445C20.5233 27.7528 20.5698 27.5633 20.6622 27.3953C20.7546 27.2272 20.8897 27.0865 21.0538 26.9873H16.3826V22.4932C16.2782 22.6041 16.1521 22.6924 16.0121 22.7525C15.8721 22.8126 15.7213 22.8432 15.569 22.8426C15.2702 22.8426 14.9837 22.7242 14.772 22.5134C14.5603 22.3026 14.4407 22.0166 14.4395 21.7178V21.7178Z" stroke="#404366" stroke-width="0.75" stroke-linecap="round" stroke-linejoin="round"/>
<path d="M23.6905 21.1765V22.9856H22.6184V24.0577H20.8093V22.9856H19.7324V21.1765H20.8093V20.0996H22.6184V21.1765H23.6905Z" stroke="#404366" stroke-width="0.75" stroke-linecap="round" stroke-linejoin="round"/>
<path d="M20.1921 20.6207C19.7859 19.621 19.0448 18.7937 18.0958 18.2803C17.7541 19.3512 17.7642 20.5035 18.1245 21.5683C18.3063 22.0939 18.6115 22.5681 19.0146 22.9512C19.4177 23.3343 19.9069 23.6151 20.441 23.7699" stroke="#404366" stroke-width="0.75" stroke-linecap="round" stroke-linejoin="round"/>
<path d="M25.2612 18.0801C24.7569 18.1398 24.2911 18.3793 23.9492 18.7547C23.6072 19.13 23.412 19.6161 23.3994 20.1237C23.8952 20.1088 24.367 19.907 24.7204 19.559C25.0661 19.1433 25.2572 18.6207 25.2612 18.0801V18.0801Z" stroke="#404366" stroke-width="0.75" stroke-linecap="round" stroke-linejoin="round"/>
<path d="M19.7375 21.5933C19.3418 21.1384 19.0189 20.625 18.7803 20.0713" stroke="#404366" stroke-width="0.75" stroke-linecap="round" stroke-linejoin="round"/>
</svg>
