<svg width="27" height="24" viewBox="0 0 27 24" fill="none" xmlns="http://www.w3.org/2000/svg">
<path d="M9.2962 0.487305L6.00665 0.97433L0 11.6205L6.00665 22.2326L9.2962 22.7367L2.88798 11.6205L9.2962 0.487305Z" fill="#7937C4"/>
<path d="M17.7038 0.487305L20.9934 0.97433L27 11.6205L20.9934 22.2326L17.7038 22.7367L24.1035 11.6205L17.7038 0.487305Z" fill="#7937C4"/>
<path d="M9.29623 0.487025L13.4915 0V11.6203H2.888L9.29623 0.487025Z" fill="#F6F2FC"/>
<path d="M9.29623 22.7367L13.4915 23.2067V11.6206H2.888L9.29623 22.7367Z" fill="#E7D9FC"/>
<path d="M17.7038 22.7367L13.5 23.2067V11.6206H24.1035L17.7038 22.7367Z" fill="#D2B4FC"/>
<path d="M17.7038 0.487025L13.5 0V11.6203H24.1035L17.7038 0.487025Z" fill="#EFE6FC"/>
</svg>
