<svg width="27" height="24" viewBox="0 0 27 24" fill="none" xmlns="http://www.w3.org/2000/svg">
<path d="M9.29786 0.475098L6.00628 0.972794L0 11.6167L6.00628 22.238L9.29786 22.7357L2.88437 11.6167L9.29786 0.475098Z" fill="#1B771B"/>
<path d="M17.7134 0.475098L21.005 0.972794L27 11.6167L21.005 22.238L17.7134 22.7357L24.1043 11.6167L17.7134 0.475098Z" fill="#1B771B"/>
<path d="M9.29783 0.475073L13.4943 0V11.6167H2.88434L9.29783 0.475073Z" fill="#F2FCF2"/>
<path d="M9.29783 22.7357L13.4943 23.2107V11.6167H2.88434L9.29783 22.7357Z" fill="#D9FCD9"/>
<path d="M17.7135 22.7357L13.4944 23.2107V11.6167H24.1044L17.7135 22.7357Z" fill="#ADE0AD"/>
<path d="M17.7135 0.475073L13.4944 0V11.6167H24.1044L17.7135 0.475073Z" fill="#E6FCE6"/>
</svg>
