<svg width="27" height="24" viewBox="0 0 27 24" fill="none" xmlns="http://www.w3.org/2000/svg">
<path d="M9.30048 0.477539L6.00236 0.965364L0 11.6127L6.00236 22.2388L9.30048 22.7372L2.88453 11.6127L9.30048 0.477539Z" fill="#FFA506"/>
<path d="M17.7101 0.477539L20.9977 0.965364L27 11.6127L20.9977 22.2388L17.7101 22.7372L24.1049 11.6127L17.7101 0.477539Z" fill="#FFA506"/>
<path d="M9.30048 0.477221L13.5 0V11.6123H2.88452L9.30048 0.477221Z" fill="#FCF8F2"/>
<path d="M9.30048 22.7373L13.5 23.2039V11.6128H2.88452L9.30048 22.7373Z" fill="#FCEFD9"/>
<path d="M17.7102 22.7373L13.5001 23.2039V11.6128H24.1049L17.7102 22.7373Z" fill="#FCE0B4"/>
<path d="M17.7102 0.477221L13.5001 0V11.6123H24.1049L17.7102 0.477221Z" fill="#FCF4E6"/>
</svg>
