<svg width="27" height="24" viewBox="0 0 27 24" fill="none" xmlns="http://www.w3.org/2000/svg">
<path d="M9.26213 0.491211L5.97451 0.993638L0 11.6648L6.04004 22.2594L9.33859 22.7509L2.89442 11.6538L9.26213 0.491211Z" fill="#F90000"/>
<path d="M17.6723 0.469727L20.9709 0.950308L27 11.5668L21.0364 22.2052L17.7488 22.7294L24.1056 11.5777L17.6723 0.469727Z" fill="#F90000"/>
<path d="M9.26213 0.491504L13.4563 0L13.5 11.6214L2.89441 11.6541L9.26213 0.491504Z" fill="#FCF2F2"/>
<path d="M9.33858 22.7509L13.5437 23.2097L13.5 11.6211L2.89441 11.6539L9.33858 22.7509Z" fill="#FCD9D9"/>
<path d="M17.7488 22.7298L13.5437 23.2104L13.5 11.6218L24.1056 11.5781L17.7488 22.7298Z" fill="#FCB4B4"/>
<path d="M17.6723 0.46966L13.4563 0L13.5 11.6214L24.1056 11.5777L17.6723 0.46966Z" fill="#FCE6E6"/>
</svg>
