<svg width="27" height="24" viewBox="0 0 27 24" fill="none" xmlns="http://www.w3.org/2000/svg">
<path d="M9.29207 0.486816L6.00361 0.973595L0 11.6178L6.00361 22.2404L9.29207 22.738L2.88822 11.6178L9.29207 0.486816Z" fill="#00B4CC"/>
<path d="M17.7079 0.486816L20.9964 0.973595L27 11.6178L20.9964 22.2404L17.7079 22.738L24.101 11.6178L17.7079 0.486816Z" fill="#00B4CC"/>
<path d="M9.29212 0.486779L13.5001 0V11.6178H2.88828L9.29212 0.486779Z" fill="#F2FBFC"/>
<path d="M9.29212 22.7384L13.5001 23.2035V11.6182H2.88828L9.29212 22.7384Z" fill="#D9FAFC"/>
<path d="M17.7081 22.7384L13.5001 23.2035V11.6182H24.1011L17.7081 22.7384Z" fill="#B4F7FC"/>
<path d="M17.7081 0.486779L13.5001 0V11.6178H24.1011L17.7081 0.486779Z" fill="#E6FAFC"/>
</svg>
