<svg width="32" height="30" viewBox="0 0 32 30" fill="none" xmlns="http://www.w3.org/2000/svg">
<path d="M1 28.894C1 28.894 31 28.7325 31 28.894H1Z" fill="white"/>
<path d="M1 28.894C1 28.894 31 28.7325 31 28.894" stroke="#404366" stroke-width="0.75" stroke-linecap="round" stroke-linejoin="round"/>
<path d="M7.15527 28.7824L9.77639 13.7451H17.882L15.2609 28.7824" fill="white"/>
<path d="M7.15527 28.7824L9.77639 13.7451H17.882L15.2609 28.7824" stroke="#404366" stroke-width="0.75" stroke-linecap="round" stroke-linejoin="round"/>
<path d="M18.416 28.7826L20.7763 15.2236" stroke="#404366" stroke-width="0.75" stroke-linecap="round" stroke-linejoin="round"/>
<path d="M22.8818 28.7821V9.73242" stroke="#404366" stroke-width="0.75" stroke-linecap="round" stroke-linejoin="round"/>
<path d="M25.2543 28.7821V9.73242H13.5835V13.7448" stroke="#404366" stroke-width="0.75" stroke-linecap="round" stroke-linejoin="round"/>
<path d="M20.7765 15.2237C20.5083 15.3437 20.2131 15.3908 19.9209 15.3602C19.6286 15.3297 19.3496 15.2226 19.1119 15.0498C18.8481 14.9248 18.6157 14.7421 18.4318 14.5153C18.248 14.2885 18.1175 14.0233 18.0498 13.7393" fill="white"/>
<path d="M20.7765 15.2237C20.5083 15.3437 20.2131 15.3908 19.9209 15.3602C19.6286 15.3297 19.3496 15.2226 19.1119 15.0498C18.8481 14.9248 18.6157 14.7421 18.4318 14.5153C18.248 14.2885 18.1175 14.0233 18.0498 13.7393" stroke="#404366" stroke-width="0.75" stroke-linecap="round" stroke-linejoin="round"/>
<path d="M14.3107 20.7455L14.9132 17.2734H10.8076L10.2051 20.7455H14.3107Z" fill="white" stroke="#404366" stroke-width="0.75" stroke-linecap="round" stroke-linejoin="round"/>
<path d="M18.6647 14.7207L16.584 27.3977" stroke="#404366" stroke-width="0.75" stroke-linecap="round" stroke-linejoin="round"/>
<path d="M19.6834 15.3672L17.3418 28.6529" stroke="#404366" stroke-width="0.75" stroke-linecap="round" stroke-linejoin="round"/>
<path d="M25.8012 20.1549L24.7018 14.571L23.7515 9.7201L26.18 9.09277L27.4658 13.7698L28.9937 19.3412" fill="white"/>
<path d="M25.8012 20.1549L24.7018 14.571L23.7515 9.7201L26.18 9.09277L27.4658 13.7698L28.9937 19.3412" stroke="#404366" stroke-width="0.75" stroke-linecap="round" stroke-linejoin="round"/>
<path d="M29.2363 19.2793L30.8077 25.4222C31.1555 26.7762 31.1555 28.3476 29.6897 28.7203C28.2239 29.093 27.5717 27.6892 27.2052 26.3414L25.6338 20.1923L29.2363 19.2793Z" fill="white" stroke="#404366" stroke-width="0.75" stroke-linecap="round" stroke-linejoin="round"/>
<path d="M24.9878 15.2051H25.0934L27.6151 14.584" fill="white"/>
<path d="M24.9878 15.2051H25.0934L27.6151 14.584" stroke="#404366" stroke-width="0.75" stroke-linecap="round" stroke-linejoin="round"/>
<path d="M23.5775 3.86914L22.8818 7.59585C23.5404 8.10772 24.0172 8.8175 24.2421 9.62069" fill="white"/>
<path d="M23.5775 3.86914L22.8818 7.59585C23.5404 8.10772 24.0172 8.8175 24.2421 9.62069" stroke="#404366" stroke-width="0.75" stroke-linecap="round" stroke-linejoin="round"/>
<path d="M23.5776 3.86914L25.9752 6.80082C25.4099 7.7325 25.7516 9.22939 25.7516 9.22939" fill="white"/>
<path d="M23.5776 3.86914L25.9752 6.80082C25.4099 7.7325 25.7516 9.22939 25.7516 9.22939" stroke="#404366" stroke-width="0.75" stroke-linecap="round" stroke-linejoin="round"/>
<path d="M23.584 3.83203L23.6275 3.9811L24.3666 6.78234" fill="white"/>
<path d="M23.584 3.83203L23.6275 3.9811L24.3666 6.78234" stroke="#404366" stroke-width="0.75" stroke-linecap="round" stroke-linejoin="round"/>
<path d="M24.4536 7.52834C24.6251 7.52834 24.7642 7.3893 24.7642 7.21779C24.7642 7.04627 24.6251 6.90723 24.4536 6.90723C24.2821 6.90723 24.1431 7.04627 24.1431 7.21779C24.1431 7.3893 24.2821 7.52834 24.4536 7.52834Z" fill="white" stroke="#404366" stroke-width="0.75" stroke-linecap="round" stroke-linejoin="round"/>
<path d="M26.5525 5.31088V2.62765C26.5525 2.62765 2.83203 2.50963 2.83203 2.62765V18.8575H8.88793" stroke="#404366" stroke-width="0.75" stroke-linecap="round" stroke-linejoin="round"/>
<path d="M27.7886 10.7888V1H1.23584V20.8571H8.54019" stroke="#404366" stroke-width="0.75" stroke-linecap="round" stroke-linejoin="round"/>
<path d="M8.09919 23.3542H1.23584V21.7393H8.38491" stroke="#404366" stroke-width="0.75" stroke-linecap="round" stroke-linejoin="round"/>
</svg>
