<svg width="29" height="30" viewBox="0 0 29 30" fill="none" xmlns="http://www.w3.org/2000/svg">
<path d="M1.61914 29.54H0.278076" stroke="#404366" stroke-width="0.5" stroke-linecap="round" stroke-linejoin="round"/>
<path d="M14.1414 15.2401C14.2799 15.2401 14.3921 15.053 14.3921 14.8222C14.3921 14.5914 14.2799 14.4043 14.1414 14.4043C14.0029 14.4043 13.8906 14.5914 13.8906 14.8222C13.8906 15.053 14.0029 15.2401 14.1414 15.2401Z" fill="#404366"/>
<path d="M15.8313 15.2401C15.9698 15.2401 16.0821 15.053 16.0821 14.8222C16.0821 14.5914 15.9698 14.4043 15.8313 14.4043C15.6928 14.4043 15.5806 14.5914 15.5806 14.8222C15.5806 15.053 15.6928 15.2401 15.8313 15.2401Z" fill="#404366"/>
<path d="M18.6408 14.9891C18.5855 15.0901 18.5097 15.1786 18.4184 15.2487C18.327 15.3189 18.2221 15.3694 18.1102 15.3968C17.9803 15.4324 17.8469 15.4538 17.7123 15.4607V16.4432C17.7149 16.7142 17.6635 16.983 17.561 17.2339C17.4585 17.4849 17.3069 17.7128 17.1153 17.9045C16.9236 18.0961 16.6957 18.2476 16.4448 18.3502C16.1938 18.4527 15.925 18.5041 15.654 18.5015H14.6715C14.404 18.5015 14.1391 18.4487 13.892 18.3462C13.645 18.2437 13.4206 18.0935 13.2316 17.9041C13.0427 17.7147 12.893 17.4899 12.7911 17.2426C12.6892 16.9953 12.6371 16.7303 12.6377 16.4628L12.8293 12.5328L17.5551 12.4346C17.5525 12.9294 17.6003 13.4232 17.6976 13.9083C17.727 14.0164 17.7516 14.1294 17.7762 14.2375C18.0248 14.1666 18.2913 14.1966 18.518 14.321C18.6133 14.4004 18.6779 14.5107 18.7003 14.6328C18.7227 14.7549 18.7017 14.8809 18.6408 14.9891Z" stroke="#404366" stroke-width="0.5" stroke-linecap="round" stroke-linejoin="round"/>
<path d="M12.8442 12.5721C12.5838 12.5721 12.407 12.1693 12.407 11.9925C12.407 10.9215 13.3895 10.3075 14.4457 10.2191C15.9587 10.0913 17.3931 10.0815 18.1104 10.4303C19.5841 11.1328 19.6382 12.69 19.6332 14.0901C19.6283 15.4901 18.9799 16.7084 17.6191 17.126" stroke="#404366" stroke-width="0.5" stroke-linecap="round" stroke-linejoin="round"/>
<path d="M17.4275 15.4609H17.7127" stroke="#404366" stroke-width="0.5" stroke-linecap="round" stroke-linejoin="round"/>
<path d="M14.8484 19.2037L14.3572 20.8052L15.9783 20.4662L17.1671 21.1638L18.6998 19.749L18.2085 18.7959C18.2085 18.7959 17.231 19.8914 14.8484 19.2037Z" stroke="#404366" stroke-width="0.5" stroke-linecap="round" stroke-linejoin="round"/>
<path d="M15.2217 19.3034V18.502" stroke="#404366" stroke-width="0.5" stroke-linecap="round" stroke-linejoin="round"/>
<path d="M17.9287 19.0072V17.0029" stroke="#404366" stroke-width="0.5" stroke-linecap="round" stroke-linejoin="round"/>
<path d="M22.4236 29.5396L22.2025 23.792C22.165 22.8234 21.8001 21.8963 21.1675 21.1619C20.5349 20.4276 19.6719 19.9295 18.7196 19.749C18.7196 19.749 17.1279 24.6124 12.24 26.5577" stroke="#404366" stroke-width="0.5" stroke-linecap="round" stroke-linejoin="round"/>
<path d="M14.6177 19.749H14.1265C13.1732 19.9285 12.3091 20.4261 11.6755 21.1606C11.0419 21.895 10.6763 22.8227 10.6385 23.792L10.4224 29.5396" stroke="#404366" stroke-width="0.5" stroke-linecap="round" stroke-linejoin="round"/>
<path d="M12.24 24.2295V29.5399" stroke="#404366" stroke-width="0.5" stroke-linecap="round" stroke-linejoin="round"/>
<path d="M19.0881 24.9668V29.4814" stroke="#404366" stroke-width="0.5" stroke-linecap="round" stroke-linejoin="round"/>
<path d="M1.00513 29.54H28.2547" stroke="#404366" stroke-width="0.5" stroke-linecap="round" stroke-linejoin="round"/>
<path d="M14.4458 16.4678C14.5679 16.54 14.7071 16.5781 14.849 16.5781C14.9908 16.5781 15.13 16.54 15.2521 16.4678" stroke="#404366" stroke-width="0.5" stroke-linecap="round" stroke-linejoin="round"/>
<path d="M21.0578 21.0508C20.3305 23.1076 19.0731 24.9361 17.4127 26.3513C14.5389 28.891 12.2251 28.9942 12.2251 28.9942" stroke="#404366" stroke-width="0.5" stroke-linecap="round" stroke-linejoin="round"/>
<path d="M10.0342 28.5571H1.83521V27.5156H3.70196" stroke="#404366" stroke-width="0.5" stroke-linecap="round" stroke-linejoin="round"/>
<path d="M10.3976 27.5167H3.7019V9.87598H11.6454V13.6193H12.79" stroke="#404366" stroke-width="0.5" stroke-linecap="round" stroke-linejoin="round"/>
<path d="M22.4236 28.5571H27.1642V27.5156H26.6435" stroke="#404366" stroke-width="0.5" stroke-linecap="round" stroke-linejoin="round"/>
<path d="M19.6328 13.6191H26.1271V18.5021V27.5165H22.4231" stroke="#404366" stroke-width="0.5" stroke-linecap="round" stroke-linejoin="round"/>
<path d="M7.69586 15.028C8.6183 15.028 9.36609 14.2802 9.36609 13.3577C9.36609 12.4353 8.6183 11.6875 7.69586 11.6875C6.77342 11.6875 6.02563 12.4353 6.02563 13.3577C6.02563 14.2802 6.77342 15.028 7.69586 15.028Z" stroke="#404366" stroke-width="0.5" stroke-linecap="round" stroke-linejoin="round"/>
<path d="M2.20361 9.87537L7.60735 4.47656L13.0062 9.87537" stroke="#404366" stroke-width="0.5" stroke-linecap="round" stroke-linejoin="round"/>
<path d="M7.60742 4.47638V0.462891" stroke="#404366" stroke-width="0.5" stroke-linecap="round" stroke-linejoin="round"/>
<path d="M7.60742 0.462891H12.1515V3.79852H7.60742" stroke="#404366" stroke-width="0.5" stroke-linecap="round" stroke-linejoin="round"/>
<path d="M9.19434 0.551758V3.65656" stroke="#404366" stroke-width="0.5" stroke-linecap="round" stroke-linejoin="round"/>
<path d="M10.6335 0.551758V3.65656" stroke="#404366" stroke-width="0.5" stroke-linecap="round" stroke-linejoin="round"/>
<path d="M7.75024 12.5576L7.6962 13.3584L6.82666 14.0854" stroke="#404366" stroke-width="0.5" stroke-linecap="round" stroke-linejoin="round"/>
<path d="M9.18927 22.5889H6.19263V27.5209H9.18927V22.5889Z" stroke="#404366" stroke-width="0.5" stroke-linecap="round" stroke-linejoin="round"/>
<path d="M6.19263 20.5703H12.2792" stroke="#404366" stroke-width="0.5" stroke-linecap="round" stroke-linejoin="round"/>
<path d="M6.19263 19.0078H13.2028" stroke="#404366" stroke-width="0.5" stroke-linecap="round" stroke-linejoin="round"/>
<path d="M6.19263 17.4404H12.9031" stroke="#404366" stroke-width="0.5" stroke-linecap="round" stroke-linejoin="round"/>
<path d="M24.3394 20.5703H20.542" stroke="#404366" stroke-width="0.5" stroke-linecap="round" stroke-linejoin="round"/>
<path d="M24.3395 19.0078H19.874" stroke="#404366" stroke-width="0.5" stroke-linecap="round" stroke-linejoin="round"/>
<path d="M24.3395 17.4404H17.9287" stroke="#404366" stroke-width="0.5" stroke-linecap="round" stroke-linejoin="round"/>
</svg>
