<svg width="26" height="27" viewBox="0 0 26 27" fill="none" xmlns="http://www.w3.org/2000/svg">
<path d="M8.12307 3.6524C8.99358 3.6524 9.69927 2.94671 9.69927 2.0762C9.69927 1.20569 8.99358 0.5 8.12307 0.5C7.25256 0.5 6.54688 1.20569 6.54688 2.0762C6.54688 2.94671 7.25256 3.6524 8.12307 3.6524Z" stroke="#404366" stroke-width="0.6875" stroke-linecap="round" stroke-linejoin="round"/>
<path d="M6.54612 6.88428L5.50195 9.89745H8.12232" stroke="#404366" stroke-width="0.6875" stroke-linecap="round" stroke-linejoin="round"/>
<path d="M9.70324 6.88428L10.7474 9.89745H8.12207" stroke="#404366" stroke-width="0.6875" stroke-linecap="round" stroke-linejoin="round"/>
<path d="M7.8445 9.89746H6.87988V13.3184H7.8445V9.89746Z" stroke="#404366" stroke-width="0.6875" stroke-linecap="round" stroke-linejoin="round"/>
<path d="M9.46461 9.89746H8.5V13.3184H9.46461V9.89746Z" stroke="#404366" stroke-width="0.6875" stroke-linecap="round" stroke-linejoin="round"/>
<path d="M3.0957 3.06057C3.09959 2.97524 3.12538 2.89235 3.17061 2.81989C3.21583 2.74743 3.27896 2.68784 3.35391 2.64687C3.42886 2.6059 3.5131 2.58493 3.59851 2.58597C3.68392 2.58702 3.76762 2.61005 3.84154 2.65285L6.89449 4.64174C6.96622 4.66587 7.0315 4.70606 7.08535 4.75923C7.1392 4.81241 7.18019 4.87718 7.20522 4.9486C7.23025 5.02002 7.23864 5.09621 7.22976 5.17137C7.22088 5.24653 7.19496 5.31866 7.15397 5.38229C7.11299 5.44591 7.05802 5.49934 6.99326 5.5385C6.9285 5.57766 6.85566 5.60152 6.78028 5.60827C6.7049 5.61501 6.62898 5.60446 6.5583 5.57742C6.48761 5.55037 6.42404 5.50755 6.37241 5.45222L3.29957 3.46332C3.23622 3.41704 3.18473 3.35641 3.1493 3.28642C3.11387 3.21642 3.0955 3.13903 3.0957 3.06057V3.06057Z" fill="white" stroke="#404366" stroke-width="0.6875" stroke-linecap="round" stroke-linejoin="round"/>
<path d="M12.0054 1.73803C11.9254 1.72827 11.8442 1.73811 11.7688 1.7667C11.6935 1.79528 11.6262 1.84175 11.5728 1.90212L9.19108 4.64182C9.13012 4.68526 9.07976 4.7419 9.04375 4.80751C9.00774 4.87313 8.98701 4.94603 8.9831 5.02077C8.97919 5.09552 8.99221 5.17018 9.02118 5.2392C9.05015 5.30821 9.09433 5.36979 9.15042 5.41935C9.20651 5.46891 9.27306 5.50517 9.34512 5.52542C9.41718 5.54567 9.49288 5.54939 9.56657 5.5363C9.64027 5.52322 9.71006 5.49367 9.77074 5.44985C9.83142 5.40603 9.88142 5.34908 9.91702 5.28324L12.2987 2.53359C12.379 2.43517 12.4186 2.30977 12.4093 2.1831C12.4001 2.05644 12.3427 1.93811 12.249 1.85239C12.1798 1.7926 12.0955 1.75303 12.0054 1.73803Z" fill="white" stroke="#404366" stroke-width="0.6875" stroke-linecap="round" stroke-linejoin="round"/>
<path d="M11.9307 1.73803C12.0107 1.72827 12.0919 1.73811 12.1672 1.7667C12.2426 1.79528 12.3099 1.84175 12.3633 1.90212L14.735 4.64182C14.7987 4.68363 14.8518 4.73951 14.8905 4.80513C14.9291 4.87076 14.9521 4.94437 14.9578 5.02031C14.9635 5.09625 14.9517 5.17247 14.9232 5.24311C14.8948 5.31375 14.8505 5.37691 14.7938 5.42772C14.737 5.47853 14.6694 5.51563 14.5961 5.53617C14.5227 5.5567 14.4457 5.56012 14.3708 5.54616C14.296 5.5322 14.2253 5.50123 14.1643 5.45565C14.1033 5.41006 14.0536 5.35108 14.019 5.28324L11.6373 2.53359C11.557 2.43517 11.5175 2.30977 11.5267 2.1831C11.536 2.05644 11.5933 1.93811 11.687 1.85239C11.7551 1.79096 11.8399 1.75115 11.9307 1.73803V1.73803Z" fill="white" stroke="#404366" stroke-width="0.6875" stroke-linecap="round" stroke-linejoin="round"/>
<path d="M15.7744 3.6524C16.645 3.6524 17.3506 2.94671 17.3506 2.0762C17.3506 1.20569 16.645 0.5 15.7744 0.5C14.9039 0.5 14.1982 1.20569 14.1982 2.0762C14.1982 2.94671 14.9039 3.6524 15.7744 3.6524Z" stroke="#404366" stroke-width="0.6875" stroke-linecap="round" stroke-linejoin="round"/>
<path d="M20.8106 3.06066C20.8092 3.14042 20.7885 3.21865 20.7504 3.28875C20.7123 3.35885 20.658 3.41876 20.5919 3.46342L17.5389 5.45231C17.4874 5.5106 17.423 5.55601 17.3508 5.58488C17.2786 5.61376 17.2007 5.62531 17.1232 5.61859C17.0457 5.61187 16.9709 5.58708 16.9048 5.54621C16.8386 5.50533 16.783 5.44951 16.7423 5.38324C16.7017 5.31696 16.6771 5.24207 16.6707 5.16458C16.6642 5.0871 16.676 5.00917 16.7051 4.93707C16.7342 4.86497 16.7798 4.8007 16.8383 4.74943C16.8967 4.69815 16.9664 4.6613 17.0417 4.64184L20.0946 2.65294C20.2008 2.59479 20.3245 2.57736 20.4426 2.60391C20.5607 2.63045 20.665 2.69915 20.7361 2.79714C20.7851 2.87626 20.8109 2.96757 20.8106 3.06066Z" fill="white" stroke="#404366" stroke-width="0.6875" stroke-linecap="round" stroke-linejoin="round"/>
<path d="M17.3506 8.10254H14.1982V9.89752H17.3506V8.10254Z" stroke="#404366" stroke-width="0.6875" stroke-linejoin="round"/>
<path d="M15.7744 9.89779V8.88843" stroke="#404366" stroke-width="0.6875" stroke-linejoin="round"/>
<path d="M7.84339 13.3183V14.631H5.8545C5.85398 14.4507 5.91323 14.2753 6.02299 14.1322C6.13275 13.9892 6.28682 13.8866 6.46111 13.8404C6.53151 13.8164 6.60551 13.8046 6.67989 13.8056V13.3083L7.84339 13.3183Z" stroke="#404366" stroke-width="0.6875" stroke-linecap="round" stroke-linejoin="round"/>
<path d="M8.4707 13.3183V14.631H10.4596C10.4604 14.4513 10.4019 14.2764 10.2931 14.1335C10.1843 13.9905 10.0313 13.8875 9.85796 13.8404C9.78593 13.816 9.71024 13.8042 9.63421 13.8056V13.3083L8.4707 13.3183Z" stroke="#404366" stroke-width="0.6875" stroke-linecap="round" stroke-linejoin="round"/>
<path d="M15.4656 9.89746H14.501V13.3184H15.4656V9.89746Z" stroke="#404366" stroke-width="0.6875" stroke-linecap="round" stroke-linejoin="round"/>
<path d="M17.0877 9.89746H16.123V13.3184H17.0877V9.89746Z" stroke="#404366" stroke-width="0.6875" stroke-linecap="round" stroke-linejoin="round"/>
<path d="M15.4616 13.3183V14.631H13.4727C13.4719 14.4513 13.5304 14.2764 13.6392 14.1335C13.748 13.9905 13.9009 13.8875 14.0743 13.8404C14.1464 13.8164 14.2221 13.8046 14.2981 13.8056V13.3083L15.4616 13.3183Z" stroke="#404366" stroke-width="0.6875" stroke-linecap="round" stroke-linejoin="round"/>
<path d="M16.123 13.3183V14.631H18.1119C18.1127 14.4513 18.0542 14.2764 17.9454 14.1335C17.8366 13.9905 17.6837 13.8875 17.5103 13.8404C17.4383 13.816 17.3626 13.8042 17.2866 13.8056V13.3083L16.123 13.3183Z" stroke="#404366" stroke-width="0.6875" stroke-linecap="round" stroke-linejoin="round"/>
<path d="M9.69927 4.51758H6.54688V6.88933H9.69927V4.51758Z" fill="white" stroke="#404366" stroke-width="0.6875" stroke-linecap="round" stroke-linejoin="round"/>
<path d="M17.3506 4.51758H14.1982V8.10753H17.3506V4.51758Z" fill="white" stroke="#404366" stroke-width="0.6875" stroke-linecap="round" stroke-linejoin="round"/>
<path d="M15.8543 20.7473L10.708 20.2501C10.0915 20.1854 9.41027 20.091 9.02741 19.6087C8.83413 19.2976 8.75521 18.9289 8.80421 18.5659C8.85321 18.203 9.02706 17.8685 9.29591 17.6198C9.85034 17.1279 10.5271 16.7947 11.255 16.6551C13.7767 15.9885 16.3789 15.6756 18.9868 15.7253C19.3825 15.7055 19.778 15.7677 20.1485 15.9081C20.519 16.0484 20.8565 16.2638 21.1398 16.5408C21.6818 17.1424 23.8496 22.0102 24.7596 23.6411" stroke="#404366" stroke-width="0.6875" stroke-linecap="round" stroke-linejoin="round"/>
<path d="M18.5042 26.1668L17.7882 24.2127L9.83259 23.4917C9.2958 23.4372 8.78209 23.2454 8.34092 22.9348L1.56873 18.2112C1.29467 18.0179 1.10289 17.729 1.03111 17.4014C0.959335 17.0738 1.01277 16.7313 1.1809 16.4411V16.4411C1.35682 16.1398 1.64348 15.9193 1.97974 15.8264C2.31599 15.7335 2.67523 15.7756 2.98085 15.9439L5.78519 17.4703C6.02665 17.6002 6.28655 17.6925 6.55588 17.7438L8.9177 18.1714" stroke="#404366" stroke-width="0.6875" stroke-linecap="round" stroke-linejoin="round"/>
<path d="M3.05078 15.9789L3.13034 15.8247C3.22017 15.6504 3.37237 15.5162 3.55664 15.4489C3.7409 15.3817 3.94374 15.3863 4.12478 15.4618L6.69543 16.6103C6.76175 16.6355 6.8299 16.6554 6.89929 16.67L9.88263 17.1672" stroke="#404366" stroke-width="0.6875" stroke-linecap="round" stroke-linejoin="round"/>
</svg>
