<svg width="39" height="30" viewBox="0 0 39 30" fill="none" xmlns="http://www.w3.org/2000/svg">
<path d="M27.6509 9.26536C27.4211 9.27823 27.1911 9.24407 26.9749 9.16497C26.7588 9.08588 26.561 8.96352 26.3938 8.80538C26.2265 8.64723 26.0933 8.45663 26.0023 8.24523C25.9112 8.03383 25.8643 7.80607 25.8643 7.5759C25.8643 7.34573 25.9112 7.11797 26.0023 6.90657C26.0933 6.69517 26.2265 6.50457 26.3938 6.34642C26.561 6.18828 26.7588 6.06592 26.9749 5.98682C27.1911 5.90773 27.4211 5.87357 27.6509 5.88643" fill="white"/>
<path d="M27.6509 9.26536C27.4211 9.27823 27.1911 9.24407 26.9749 9.16497C26.7588 9.08588 26.561 8.96352 26.3938 8.80538C26.2265 8.64723 26.0933 8.45663 26.0023 8.24523C25.9112 8.03383 25.8643 7.80607 25.8643 7.5759C25.8643 7.34573 25.9112 7.11797 26.0023 6.90657C26.0933 6.69517 26.2265 6.50457 26.3938 6.34642C26.561 6.18828 26.7588 6.06592 26.9749 5.98682C27.1911 5.90773 27.4211 5.87357 27.6509 5.88643" stroke="#404366" stroke-width="0.5" stroke-linecap="round" stroke-linejoin="round"/>
<path d="M29.6336 8.00177C29.6857 7.91361 29.768 7.84734 29.8652 7.81525C29.9625 7.78316 30.0681 7.78744 30.1624 7.82728L34.2023 10.1434C34.2781 10.1985 34.3419 10.2685 34.3899 10.3491C34.4378 10.4297 34.469 10.5191 34.4813 10.6121C34.4937 10.705 34.487 10.7995 34.4618 10.8898C34.4366 10.9801 34.3933 11.0644 34.3345 11.1375C34.2891 11.2184 34.2278 11.2894 34.1544 11.3463C34.081 11.4031 33.9968 11.4446 33.9071 11.4682C33.8173 11.4919 33.7237 11.4973 33.6318 11.4841C33.5399 11.4709 33.4516 11.4393 33.3721 11.3913L29.6706 8.56757C29.5944 8.49521 29.5483 8.39678 29.5414 8.29192C29.5346 8.18705 29.5675 8.08345 29.6336 8.00177Z" fill="white" stroke="#404366" stroke-width="0.5" stroke-linecap="round" stroke-linejoin="round"/>
<path d="M30.3158 6.73791L28.6766 6.03463C28.6766 6.03463 27.2859 5.79668 27.2859 7.8748C27.2859 9.95292 29.0626 9.40298 29.1261 9.37126C29.1895 9.33953 30.411 8.20793 30.411 8.20793L30.3158 6.73791Z" fill="white" stroke="#404366" stroke-width="0.5" stroke-linecap="round" stroke-linejoin="round"/>
<path d="M25.705 19.4658H7.47778V28.9998H25.705V19.4658Z" stroke="#404366" stroke-width="0.5" stroke-linecap="round" stroke-linejoin="round"/>
<path d="M19.4758 20.6768V28.2014" stroke="#404366" stroke-width="0.5" stroke-linecap="round" stroke-linejoin="round"/>
<path d="M6.01831 19.3551L10.1851 15.5479H13.5218" stroke="#404366" stroke-width="0.5" stroke-linecap="round" stroke-linejoin="round"/>
<path d="M18.9944 19.4659L23.1665 15.6533" stroke="#404366" stroke-width="0.5" stroke-linecap="round" stroke-linejoin="round"/>
<path d="M27.3916 19.3551L23.2248 15.5479H17.0327" stroke="#404366" stroke-width="0.5" stroke-linecap="round" stroke-linejoin="round"/>
<path d="M38.2369 23.6328C27.5079 23.9501 14.394 29 14.394 29H38.2369" fill="white"/>
<path d="M38.2369 23.6328C27.5079 23.9501 14.394 29 14.394 29H38.2369" stroke="#404366" stroke-width="0.5" stroke-linecap="round" stroke-linejoin="round"/>
<path d="M7.30311 29H1" stroke="#404366" stroke-width="0.5" stroke-linecap="round" stroke-linejoin="round"/>
<path d="M7.30311 25.5996H1" stroke="#404366" stroke-width="0.5" stroke-linecap="round" stroke-linejoin="round"/>
<path d="M4.17798 24.748V28.3279" stroke="#404366" stroke-width="0.5" stroke-linecap="round" stroke-linejoin="round"/>
<path d="M6.17163 24.748V28.3279" stroke="#404366" stroke-width="0.5" stroke-linecap="round" stroke-linejoin="round"/>
<path d="M2.15259 24.748V28.3279" stroke="#404366" stroke-width="0.5" stroke-linecap="round" stroke-linejoin="round"/>
<path d="M1.28027 22.6602C3.11413 21.4419 5.28248 20.8264 7.48291 20.8994" stroke="#404366" stroke-width="0.5" stroke-linecap="round" stroke-linejoin="round"/>
<path d="M30.1202 8.57283C30.5465 8.57283 30.8922 8.10881 30.8922 7.53642C30.8922 6.96402 30.5465 6.5 30.1202 6.5C29.6938 6.5 29.3481 6.96402 29.3481 7.53642C29.3481 8.10881 29.6938 8.57283 30.1202 8.57283Z" fill="#404366"/>
<path d="M29.3059 9.27148L30.1943 24.4317" stroke="#404366" stroke-width="0.5" stroke-linecap="round" stroke-linejoin="round"/>
<path d="M27.6508 9.27148L27.3494 17.4518" stroke="#404366" stroke-width="0.5" stroke-linecap="round" stroke-linejoin="round"/>
<path d="M29.3059 9.26558C29.3588 9.19155 30.3159 8.20801 30.3159 8.20801" stroke="#404366" stroke-width="0.5" stroke-linecap="round" stroke-linejoin="round"/>
<path d="M28.6608 8.00175C28.6088 7.91348 28.5268 7.8468 28.4298 7.81381C28.3327 7.78083 28.2271 7.78372 28.132 7.82196L24.1609 10.0957C24.086 10.1512 24.0232 10.2214 23.9763 10.3019C23.9294 10.3824 23.8993 10.4716 23.888 10.5641C23.8766 10.6565 23.8841 10.7504 23.9101 10.8399C23.9361 10.9293 23.9801 11.0126 24.0393 11.0846C24.0832 11.1656 24.1431 11.2369 24.2154 11.2942C24.2877 11.3514 24.3708 11.3934 24.4598 11.4176C24.5487 11.4419 24.6417 11.4478 24.733 11.4351C24.8243 11.4224 24.9121 11.3913 24.9911 11.3437L28.6291 8.56755C28.7045 8.49449 28.7497 8.3957 28.7556 8.29085C28.7615 8.186 28.7276 8.08278 28.6608 8.00175Z" fill="white" stroke="#404366" stroke-width="0.5" stroke-linecap="round" stroke-linejoin="round"/>
<path d="M29.0997 6.49484C28.9969 6.50318 28.8947 6.47323 28.8127 6.41075C28.7307 6.34828 28.6747 6.25769 28.6555 6.15642L28.2959 1.65118C28.2995 1.55689 28.3227 1.46439 28.3642 1.37962C28.4056 1.29485 28.4643 1.21968 28.5365 1.15893C28.6087 1.09819 28.6928 1.05321 28.7834 1.02688C28.874 1.00055 28.9691 0.993462 29.0626 1.00606C29.1537 0.996617 29.2457 1.00573 29.3331 1.03285C29.4205 1.05997 29.5015 1.10454 29.5712 1.16385C29.6409 1.22316 29.6978 1.29599 29.7385 1.37794C29.7793 1.45988 29.803 1.54924 29.8082 1.6406L29.5491 6.15113C29.531 6.25436 29.4747 6.347 29.3914 6.41067C29.3082 6.47434 29.204 6.50438 29.0997 6.49484Z" fill="white" stroke="#404366" stroke-width="0.5" stroke-linecap="round" stroke-linejoin="round"/>
<path d="M11.856 22.501H8.77319V24.8805H11.856V22.501Z" stroke="#404366" stroke-width="0.5" stroke-linecap="round" stroke-linejoin="round"/>
<path d="M17.0274 22.501H13.9446V24.8805H17.0274V22.501Z" stroke="#404366" stroke-width="0.5" stroke-linecap="round" stroke-linejoin="round"/>
<path d="M23.2249 18.7204C23.59 18.7204 23.8859 18.4245 23.8859 18.0594C23.8859 17.6944 23.59 17.3984 23.2249 17.3984C22.8599 17.3984 22.564 17.6944 22.564 18.0594C22.564 18.4245 22.8599 18.7204 23.2249 18.7204Z" stroke="#404366" stroke-width="0.5" stroke-linecap="round" stroke-linejoin="round"/>
</svg>
