<svg width="121" height="42" viewBox="0 0 121 42" fill="none" xmlns="http://www.w3.org/2000/svg">
<path d="M100.84 1.80005H21.0197C10.4544 1.80005 1.88965 10.3648 1.88965 20.9301V20.9401C1.88965 31.5053 10.4544 40.0701 21.0197 40.0701H100.84C111.405 40.0701 119.97 31.5053 119.97 20.9401V20.9301C119.97 10.3648 111.405 1.80005 100.84 1.80005Z" stroke="#1B771B" stroke-width="1.88" stroke-miterlimit="10"/>
<path d="M18.9197 10.2803L16.0097 10.7103L10.6997 20.1202L16.0097 29.5103L18.9197 29.9603L13.2497 20.1202L18.9197 10.2803Z" fill="#1B771B"/>
<path d="M26.3599 10.2803L29.2699 10.7103L34.5699 20.1202L29.2699 29.5103L26.3599 29.9603L32.0099 20.1202L26.3599 10.2803Z" fill="#1B771B"/>
<path d="M18.92 10.2802L22.63 9.8501V20.1201H13.25L18.92 10.2802Z" fill="#F2FCF2"/>
<path d="M18.92 29.9601L22.63 30.3701V20.1201H13.25L18.92 29.9601Z" fill="#D9FCD9"/>
<path d="M26.3599 29.9601L22.6299 30.3701V20.1201H32.0099L26.3599 29.9601Z" fill="#ADE0AD"/>
<path d="M26.3599 10.2802L22.6299 9.8501V20.1201H32.0099L26.3599 10.2802Z" fill="#E6FCE6"/>
<path d="M39.7998 18.6301V11.8301H44.1998V13.0001H41.1998V14.5901H43.6198V15.7701H41.1998V17.4001H44.1998V18.6L39.7998 18.6301Z" fill="black"/>
<path d="M46.5597 18.6302H45.2197V13.6302H46.5497V13.9101C46.9225 13.6661 47.3545 13.5278 47.7997 13.5102C48.0612 13.4797 48.3262 13.5181 48.5682 13.6216C48.8103 13.725 49.0211 13.89 49.1797 14.1001C49.4705 14.6606 49.602 15.2901 49.5597 15.9201V18.6302H48.2197V16.0002C48.2462 15.6598 48.195 15.3178 48.0697 15.0002C48.011 14.8961 47.9225 14.8119 47.8156 14.7585C47.7087 14.705 47.5882 14.6847 47.4697 14.7002C47.1998 14.6954 46.9315 14.7429 46.6797 14.8402H46.5597V18.6302Z" fill="black"/>
<path d="M50.2397 13.6299H51.6397L52.4397 17.4899H52.7197L53.5597 13.6299H54.9197L53.7197 18.6299H51.4397L50.2397 13.6299Z" fill="black"/>
<path d="M55.6895 13.0001V11.6401H56.9995V13.0001H55.6895ZM55.6895 18.6401V13.6401H56.9995V18.6401H55.6895Z" fill="black"/>
<path d="M58.2695 18.6298V13.6298H59.5995V14.1597C60.0903 13.8502 60.632 13.6302 61.1995 13.5098V14.8597C60.7305 14.9526 60.2666 15.0695 59.8095 15.2098L59.6095 15.2798V18.6298H58.2695Z" fill="black"/>
<path d="M62.2596 14.1898C62.4797 13.9443 62.7549 13.7546 63.0626 13.6364C63.3704 13.5182 63.7018 13.4748 64.0296 13.5098C64.3573 13.4772 64.688 13.5217 64.9953 13.6398C65.3027 13.7578 65.5781 13.9462 65.7996 14.1898C66.1835 14.7575 66.3697 15.4357 66.3296 16.1198C66.3296 17.8698 65.5596 18.7498 64.0296 18.7498C62.4996 18.7498 61.7296 17.8698 61.7296 16.1198C61.685 15.4353 61.8716 14.7556 62.2596 14.1898ZM63.2596 17.2498C63.3372 17.3728 63.4475 17.4717 63.5783 17.5353C63.7091 17.599 63.855 17.6247 63.9996 17.6098C64.1429 17.6252 64.2876 17.5995 64.4169 17.5358C64.5461 17.472 64.6546 17.3729 64.7296 17.2498C64.8929 16.8966 64.9651 16.5081 64.9396 16.1198C64.9674 15.7346 64.895 15.3488 64.7296 14.9998C64.6533 14.8786 64.5443 14.7815 64.4151 14.7195C64.286 14.6576 64.1419 14.6335 63.9996 14.6498C63.8559 14.6327 63.7102 14.6564 63.5793 14.7183C63.4484 14.7802 63.3376 14.8778 63.2596 14.9998C63.0986 15.35 63.0297 15.7355 63.0596 16.1198C63.0413 16.5097 63.1203 16.8981 63.2896 17.2498H63.2596Z" fill="black"/>
<path d="M68.6496 18.6302H67.3096V13.6302H68.6396V13.9101C69.0123 13.6661 69.4444 13.5278 69.8896 13.5102C70.1511 13.4797 70.416 13.5181 70.6581 13.6216C70.9001 13.725 71.1109 13.89 71.2696 14.1001C71.5604 14.6606 71.6918 15.2901 71.6496 15.9201V18.6302H70.3096V16.0002C70.3361 15.6598 70.2848 15.3178 70.1596 15.0002C70.1008 14.8961 70.0123 14.8119 69.9054 14.7585C69.7985 14.705 69.6781 14.6847 69.5596 14.7002C69.2897 14.6954 69.0214 14.7429 68.7696 14.8402H68.6496V18.6302Z" fill="black"/>
<path d="M74.1798 18.6301H72.8398V13.6301H74.1698V13.91C74.5215 13.676 74.9283 13.5381 75.3499 13.5101C75.5797 13.4944 75.8102 13.5283 76.0259 13.6094C76.2415 13.6905 76.4373 13.8168 76.5999 13.98C77.1135 13.6895 77.69 13.5282 78.2798 13.5101C78.5378 13.4811 78.7989 13.5181 79.0386 13.6179C79.2782 13.7176 79.4886 13.8767 79.6498 14.0801C79.9524 14.6438 80.0877 15.2821 80.0398 15.92V18.6301H78.6998V16.0001C78.7228 15.6606 78.6752 15.3201 78.5598 15.0001C78.5079 14.8992 78.4265 14.8165 78.3265 14.7629C78.2265 14.7094 78.1126 14.6875 77.9998 14.7001C77.734 14.7046 77.4707 14.7519 77.2198 14.8401H77.0699C77.0699 15.3401 77.0699 15.72 77.0699 15.98V18.5701H75.7298V16.0001C75.7414 15.6619 75.6975 15.3241 75.5999 15.0001C75.5473 14.8975 75.4643 14.8136 75.3623 14.7599C75.2603 14.7062 75.1442 14.6853 75.0298 14.7001C74.7666 14.6971 74.5052 14.7447 74.2598 14.8401H74.1398L74.1798 18.6301Z" fill="black"/>
<path d="M82.5695 17.3598C82.7628 17.5108 83.0048 17.5856 83.2495 17.5698C83.8695 17.5698 84.4195 17.5698 84.9095 17.5098H85.1895V18.5098C84.509 18.6816 83.8112 18.7755 83.1095 18.7898C82.8086 18.8203 82.5047 18.7822 82.2206 18.6783C81.9365 18.5744 81.6797 18.4073 81.4695 18.1898C81.0797 17.6181 80.8996 16.9292 80.9595 16.2398C80.9595 14.4398 81.6895 13.5498 83.1695 13.5498C84.6495 13.5498 85.3495 14.2998 85.3495 15.8098L85.2495 16.7398H82.3095C82.3072 16.8556 82.3292 16.9706 82.374 17.0773C82.4187 17.1841 82.4854 17.2803 82.5695 17.3598ZM84.0495 15.6798C84.0734 15.387 84.0071 15.0939 83.8595 14.8398C83.6696 14.6873 83.4332 14.6041 83.1895 14.6041C82.9459 14.6041 82.7095 14.6873 82.5195 14.8398C82.3642 15.0873 82.2939 15.3787 82.3195 15.6698L84.0495 15.6798Z" fill="black"/>
<path d="M87.6701 18.6302H86.3301V13.6302H87.6601V13.9101C88.0328 13.6661 88.4649 13.5278 88.9101 13.5102C89.1716 13.4797 89.4365 13.5181 89.6786 13.6216C89.9206 13.725 90.1314 13.89 90.2901 14.1001C90.5809 14.6606 90.7123 15.2901 90.6701 15.9201V18.6302H89.3301V16.0002C89.3566 15.6598 89.3053 15.3178 89.1801 15.0002C89.1213 14.8961 89.0328 14.8119 88.9259 14.7585C88.819 14.705 88.6986 14.6847 88.5801 14.7002C88.3102 14.6954 88.0419 14.7429 87.7901 14.8402H87.6701V18.6302Z" fill="black"/>
<path d="M94.6295 14.7698H93.3995V16.8198C93.3995 17.0198 93.3995 17.1597 93.3995 17.2397C93.4115 17.323 93.4501 17.4002 93.5095 17.4598C93.5936 17.5283 93.7015 17.5606 93.8095 17.5497H94.5695L94.6295 18.6198C94.3019 18.7024 93.9669 18.7526 93.6295 18.7698C93.407 18.7957 93.1815 18.7723 92.9689 18.7015C92.7564 18.6306 92.562 18.514 92.3995 18.3597C92.1343 17.9106 92.0188 17.3888 92.0695 16.8698V14.7897H91.4795V13.6498H92.0695V12.2598H93.4095V13.6498H94.6395L94.6295 14.7698Z" fill="black"/>
<path d="M99.2794 14.7703V18.6303H97.9394V14.7703H97.3994V13.6303H97.9394V13.4102C97.8864 12.8922 97.9984 12.3708 98.2594 11.9202C98.4039 11.7672 98.5824 11.6503 98.7804 11.579C98.9785 11.5078 99.1905 11.4843 99.3994 11.5103C99.7118 11.516 100.023 11.5494 100.329 11.6102H100.539V12.7003C100.239 12.7003 99.9994 12.7003 99.7994 12.7003C99.5994 12.7003 99.4594 12.7002 99.3994 12.8602C99.3145 13.0303 99.2798 13.2211 99.2994 13.4102V13.6202H100.509V14.7603L99.2794 14.7703Z" fill="black"/>
<path d="M101.499 14.1898C101.719 13.9443 101.995 13.7546 102.302 13.6364C102.61 13.5182 102.942 13.4748 103.269 13.5098C103.597 13.4772 103.928 13.5217 104.235 13.6398C104.542 13.7578 104.818 13.9462 105.039 14.1898C105.423 14.7575 105.609 15.4357 105.569 16.1198C105.569 17.8698 104.799 18.7498 103.269 18.7498C101.739 18.7498 100.969 17.8698 100.969 16.1198C100.925 15.4353 101.111 14.7556 101.499 14.1898ZM102.499 17.2498C102.586 17.3619 102.698 17.4527 102.825 17.5151C102.953 17.5776 103.093 17.61 103.234 17.61C103.376 17.61 103.516 17.5776 103.644 17.5151C103.771 17.4527 103.882 17.3619 103.969 17.2498C104.133 16.8966 104.205 16.5081 104.179 16.1198C104.216 15.7372 104.154 15.3515 103.999 14.9998C103.91 14.891 103.798 14.8034 103.671 14.7432C103.544 14.683 103.405 14.6517 103.264 14.6517C103.124 14.6517 102.985 14.683 102.858 14.7432C102.731 14.8034 102.618 14.891 102.529 14.9998C102.368 15.35 102.299 15.7355 102.329 16.1198C102.302 16.5072 102.37 16.8955 102.529 17.2498H102.499Z" fill="black"/>
<path d="M106.55 18.6298V13.6298H107.88V14.1597C108.371 13.8502 108.912 13.6302 109.48 13.5098V14.8597C109.011 14.9526 108.547 15.0695 108.09 15.2098L107.89 15.2798V18.6298H106.55Z" fill="black"/>
<path d="M41.1798 26.56V28.84H39.7998V22H42.4398C44.0398 22 44.8398 22.75 44.8398 24.24C44.8715 24.6329 44.795 25.0269 44.6187 25.3795C44.4425 25.732 44.1731 26.0296 43.8398 26.24L44.8398 28.84H43.2998L42.5098 26.56H41.1798ZM43.1798 25.08C43.3492 24.8526 43.434 24.5732 43.4198 24.29C43.4342 24.0066 43.3413 23.7281 43.1598 23.51C43.0667 23.4113 42.953 23.3342 42.8269 23.2841C42.7008 23.234 42.5653 23.2121 42.4298 23.22H41.1698V25.38H42.4498C42.588 25.3911 42.7269 25.3697 42.8553 25.3176C42.9838 25.2655 43.0983 25.1842 43.1898 25.08H43.1798Z" fill="black"/>
<path d="M46.0697 24.3999C46.2912 24.1563 46.5667 23.9679 46.874 23.8498C47.1814 23.7318 47.5121 23.6872 47.8397 23.7198C48.1671 23.6896 48.4972 23.7352 48.8041 23.8531C49.1111 23.9711 49.3868 24.1582 49.6097 24.3999C49.9935 24.9676 50.1798 25.6458 50.1397 26.3299C50.1397 28.0799 49.3697 28.9599 47.8397 28.9599C46.3097 28.9599 45.5397 28.0799 45.5397 26.3299C45.495 25.6453 45.6817 24.9656 46.0697 24.3999ZM47.0697 27.4599C47.1472 27.5829 47.2576 27.6818 47.3884 27.7454C47.5191 27.809 47.6651 27.8348 47.8097 27.8199C47.953 27.8353 48.0977 27.8096 48.227 27.7458C48.3562 27.6821 48.4647 27.5829 48.5397 27.4599C48.703 27.1067 48.7752 26.7182 48.7497 26.3299C48.7765 25.9447 48.7042 25.5592 48.5397 25.2099C48.4625 25.0895 48.3534 24.993 48.2244 24.9312C48.0955 24.8694 47.9519 24.8447 47.8097 24.8599C47.6662 24.845 47.5213 24.8699 47.3908 24.9316C47.2604 24.9933 47.1493 25.0895 47.0697 25.2099C46.9142 25.5618 46.8456 25.9459 46.8697 26.3299C46.8565 26.7194 46.9353 27.1065 47.0997 27.4599H47.0697Z" fill="black"/>
<path d="M52.4601 28.8402H51.1201V23.8402H52.4501V24.1201C52.8018 23.8861 53.2086 23.7482 53.6301 23.7201C53.8597 23.707 54.0895 23.7421 54.3048 23.823C54.5201 23.904 54.716 24.029 54.8801 24.1901C55.3955 23.9039 55.971 23.7429 56.5601 23.7201C56.8182 23.6901 57.0796 23.7268 57.3194 23.8266C57.5592 23.9264 57.7695 24.086 57.9301 24.2901C58.2316 24.8542 58.3668 25.4923 58.3201 26.1301V28.8402H57.0001V26.1701C57.0153 25.8474 56.9677 25.5248 56.8601 25.2201C56.8082 25.1193 56.7268 25.0366 56.6268 24.983C56.5268 24.9295 56.4129 24.9075 56.3001 24.9201C56.0348 24.9296 55.7722 24.9767 55.5201 25.0601L55.3701 25.1101C55.3701 25.6101 55.3701 25.9901 55.3701 26.2501V28.8402H54.0301V26.2702C54.0403 25.932 53.9964 25.5945 53.9001 25.2702C53.8475 25.1676 53.7646 25.0837 53.6626 25.03C53.5606 24.9763 53.4445 24.9554 53.3301 24.9701C53.0673 24.972 52.8068 25.0194 52.5601 25.1101H52.4401L52.4601 28.8402Z" fill="black"/>
<path d="M63.3397 25.4002V27.4802C63.3393 27.595 63.3668 27.7083 63.4197 27.8102C63.4492 27.8498 63.4867 27.8828 63.5298 27.9069C63.5729 27.9311 63.6206 27.9458 63.6697 27.9502V28.9502C63.3947 28.9577 63.1196 28.9342 62.8498 28.8802C62.6311 28.8248 62.4243 28.7299 62.2398 28.6002C61.7826 28.8266 61.2799 28.9463 60.7698 28.9502C59.7698 28.9502 59.2198 28.4002 59.2198 27.3102C59.1986 27.0999 59.2265 26.8875 59.301 26.6898C59.3756 26.492 59.495 26.3141 59.6497 26.1702C60.0422 25.9141 60.5011 25.7786 60.9698 25.7802L62.0397 25.7002V25.3902C62.0482 25.3127 62.0401 25.2343 62.016 25.1602C61.9918 25.086 61.9522 25.0179 61.8997 24.9602C61.7643 24.8788 61.6074 24.8404 61.4497 24.8502L59.5698 24.9302V24.0002C60.2212 23.8182 60.8934 23.7207 61.5698 23.7102C62.0668 23.6655 62.5626 23.8081 62.9598 24.1102C63.1096 24.2868 63.2208 24.4928 63.2862 24.715C63.3517 24.9371 63.3699 25.1706 63.3397 25.4002ZM61.0897 26.7202C61.0118 26.7168 60.9341 26.7304 60.8619 26.7599C60.7897 26.7894 60.7248 26.8342 60.6716 26.8912C60.6184 26.9483 60.5781 27.0161 60.5536 27.0902C60.5292 27.1642 60.521 27.2427 60.5297 27.3202C60.5297 27.6902 60.6898 27.8702 61.0198 27.8702C61.3004 27.8661 61.5794 27.8258 61.8498 27.7502H61.9997V26.6802L61.0897 26.7202Z" fill="black"/>
<path d="M65.9997 28.84H64.6597V23.84H65.9997V24.1199C66.3724 23.8759 66.8045 23.7376 67.2497 23.7199C67.5109 23.6924 67.7749 23.7322 68.0164 23.8354C68.2579 23.9387 68.4691 24.102 68.6297 24.3099C68.9205 24.8704 69.0519 25.4999 69.0097 26.1299V28.84H67.6697V26.1699C67.6875 25.8462 67.6364 25.5224 67.5197 25.2199C67.4609 25.1158 67.3724 25.0317 67.2655 24.9783C67.1586 24.9248 67.0382 24.9045 66.9197 24.9199C66.6502 24.9199 66.3828 24.9673 66.1297 25.0599H66.0097L65.9997 28.84Z" fill="black"/>
<path d="M70.1494 23.1998V21.8398H71.4894V23.1998H70.1494ZM70.1494 28.8398V23.8398H71.4894V28.8398H70.1494Z" fill="black"/>
<path d="M76.5597 25.4V27.48C76.5593 27.5948 76.5868 27.7081 76.6397 27.81C76.6692 27.8497 76.7067 27.8826 76.7497 27.9067C76.7928 27.9309 76.8405 27.9456 76.8897 27.95V28.95C76.6146 28.9575 76.3396 28.934 76.0697 28.88C75.851 28.8247 75.6443 28.7297 75.4597 28.6C75.0097 28.8423 74.5104 28.9791 73.9997 29C72.9997 29 72.4497 28.45 72.4497 27.36C72.4286 27.1497 72.4564 26.9373 72.531 26.7396C72.6056 26.5418 72.725 26.3639 72.8797 26.22C73.2722 25.9639 73.7311 25.8284 74.1997 25.83L75.2697 25.75V25.44C75.2782 25.3625 75.2701 25.2841 75.246 25.21C75.2218 25.1358 75.1822 25.0677 75.1297 25.01C74.9943 24.9286 74.8374 24.8903 74.6797 24.9L72.7997 24.98V24.05C73.4512 23.868 74.1234 23.7706 74.7997 23.76C75.2967 23.7153 75.7925 23.8579 76.1897 24.16C76.3313 24.3314 76.437 24.5295 76.5005 24.7425C76.5641 24.9555 76.5842 25.1791 76.5597 25.4ZM74.3097 26.72C74.2318 26.7166 74.1541 26.7302 74.0819 26.7597C74.0097 26.7892 73.9448 26.834 73.8916 26.8911C73.8383 26.9481 73.7981 27.0159 73.7736 27.09C73.7491 27.164 73.741 27.2425 73.7497 27.32C73.7497 27.69 73.9097 27.87 74.2397 27.87C74.5204 27.8659 74.7994 27.8256 75.0697 27.75H75.2197V26.68L74.3097 26.72Z" fill="black"/>
</svg>
