<svg width="25" height="22" viewBox="0 0 25 22" fill="none" xmlns="http://www.w3.org/2000/svg">
<path d="M8.91971 1.28027L6.0097 1.71027L0.699707 11.1202L6.0097 20.5103L8.91971 20.9603L3.24971 11.1202L8.91971 1.28027Z" fill="#1B771B"/>
<path d="M16.3599 1.28027L19.2699 1.71027L24.5699 11.1202L19.2699 20.5103L16.3599 20.9603L22.0099 11.1202L16.3599 1.28027Z" fill="#1B771B"/>
<path d="M8.92 1.28015L12.63 0.850098V11.1201H3.25L8.92 1.28015Z" fill="#F2FCF2"/>
<path d="M8.92 20.9601L12.63 21.3701V11.1201H3.25L8.92 20.9601Z" fill="#D9FCD9"/>
<path d="M16.3599 20.9601L12.6299 21.3701V11.1201H22.0099L16.3599 20.9601Z" fill="#ADE0AD"/>
<path d="M16.3599 1.28015L12.6299 0.850098V11.1201H22.0099L16.3599 1.28015Z" fill="#E6FCE6"/>
</svg>
