<svg width="36" height="30" viewBox="0 0 36 30" fill="none" xmlns="http://www.w3.org/2000/svg">
<path d="M12.4526 1.24316L8.23294 1.87069L0.533173 15.2912L8.23294 28.6831L12.4526 29.3107L4.2308 15.2912L12.4526 1.24316Z" fill="#1B771B"/>
<path d="M23.241 1.24316L27.4606 1.87069L35.1459 15.2912L27.4606 28.6831L23.241 29.3107L31.4337 15.2912L23.241 1.24316Z" fill="#1B771B"/>
<path d="M12.4526 1.24256L17.8322 0.643555V15.2906H4.23077L12.4526 1.24256Z" fill="#F2FCF2"/>
<path d="M12.4526 29.3095L17.8322 29.9085V15.29H4.23077L12.4526 29.3095Z" fill="#D9FCD9"/>
<path d="M23.2409 29.3095L17.8322 29.9085V15.29H31.4337L23.2409 29.3095Z" fill="#ADE0AD"/>
<path d="M23.2409 1.24256L17.8322 0.643555V15.2906H31.4337L23.2409 1.24256Z" fill="#E6FCE6"/>
</svg>
