<svg viewBox="0 0 1200 1000" fill="none" xmlns="http://www.w3.org/2000/svg">
<g id="segment-health-05-sprijin-nu-pedeapsa-pentru-dependenti">
<g id="Group 1183">
<g id="Group 1131">
<path id="Vector" d="M614.916 498.199C613.43 501.366 612.212 503.535 608.704 505.849C604.659 508.554 599.641 509.772 595.401 511.843C579.297 519.761 562.487 528.434 545.384 534.013C528.257 539.592 509.911 537.375 492.589 541.419C471.003 546.438 451.391 546.097 428.904 538.423C402.153 529.287 381.006 517.568 351.916 515.448C339.077 514.523 326.213 515.497 313.398 516.301C301.972 517.032 290.424 516.618 279.241 518.469C266.767 520.54 253.733 520.175 241.162 521.905C228.566 523.634 216.043 526.192 203.984 530.334C198.015 532.381 192.168 534.841 186.028 536.303C168.389 540.518 149.946 536.401 132.332 532.064C122.976 529.749 113.134 527.118 106.361 520.272C101.61 515.473 98.8569 509.041 94.6421 503.754C88.4295 495.982 79.4152 491.085 70.6688 486.408C66.5758 484.215 62.361 481.998 58 480.487" stroke="#F90000" stroke-width="9.14079" stroke-miterlimit="10" stroke-linejoin="round" stroke-dasharray="11.43 11.43"/>
<path id="Vector_2" d="M613.844 516.398C623.895 516.398 632.043 508.25 632.043 498.199C632.043 488.148 623.895 480 613.844 480C603.793 480 595.645 488.148 595.645 498.199C595.645 508.25 603.793 516.398 613.844 516.398Z" fill="white" stroke="#F90000" stroke-width="9.14079" stroke-miterlimit="10" stroke-linecap="round" stroke-linejoin="round"/>
</g>
<text id="Sprijin, nu pedeaps&#196;&#131;&#226;&#128;&#168;pentru dependen&#200;&#155;i" fill="#1E1E1E" xml:space="preserve" style="white-space: pre" font-family="Titillium Web" font-size="40" font-weight="600" letter-spacing="0px"><tspan x="799" y="491.9">Sprijin, nu pedeaps&#x103;</tspan><tspan x="799" y="533.9">pentru dependen&#x21b;i</tspan></text>
<g id="icon-sprijin-nu-pedeapsa-pentru-dependenti 1">
<path id="Vector_3" d="M668.917 471.284H684.409V519.921C684.409 522.935 685.606 525.826 687.738 527.958C689.87 530.09 692.761 531.287 695.775 531.287H741.278C742.78 531.299 744.269 531.013 745.659 530.446C747.05 529.879 748.314 529.042 749.38 527.983C750.445 526.925 751.29 525.666 751.866 524.279C752.442 522.892 752.737 521.404 752.734 519.903V471.266H771" stroke="#404366" stroke-width="2.1875" stroke-linecap="round" stroke-linejoin="round"/>
<path id="Vector_4" d="M692.21 471.286H744.846" stroke="#404366" stroke-width="2.1875" stroke-linecap="round" stroke-linejoin="round"/>
<path id="Vector_5" d="M743.131 494.794V506.412H740.501L740.123 503.656L729.549 503.512V506.412H726.162V494.794C726.162 493.169 726.808 491.611 727.956 490.463C729.105 489.314 730.663 488.669 732.287 488.669H737.007C737.811 488.669 738.607 488.827 739.35 489.135C740.093 489.443 740.768 489.894 741.337 490.463C741.906 491.032 742.357 491.707 742.665 492.45C742.973 493.193 743.131 493.989 743.131 494.794Z" stroke="#404366" stroke-width="2.1875" stroke-linecap="round" stroke-linejoin="round"/>
<path id="Vector_6" d="M729.531 496.217L729.874 528.533" stroke="#404366" stroke-width="2.1875" stroke-linecap="round" stroke-linejoin="round"/>
<path id="Vector_7" d="M739.223 495.53L743.131 528.531H738.88L735.025 507.816H734.719L734.467 528.531H729.873L728.486 530.999" stroke="#404366" stroke-width="2.1875" stroke-linecap="round" stroke-linejoin="round"/>
<path id="Vector_8" d="M726.163 506.465C726.148 507.286 726.321 508.099 726.668 508.843C726.914 509.224 727.25 509.539 727.645 509.762C728.04 509.984 728.484 510.108 728.937 510.122" stroke="#404366" stroke-width="2.1875" stroke-linecap="round" stroke-linejoin="round"/>
<path id="Vector_9" d="M743.133 506.682C743.159 507.499 742.999 508.312 742.665 509.059C742.478 509.342 742.234 509.583 741.949 509.766C741.663 509.949 741.343 510.07 741.008 510.122" stroke="#404366" stroke-width="2.1875" stroke-linecap="round" stroke-linejoin="round"/>
<path id="Vector_10" d="M734.413 528.531V530.999" stroke="#404366" stroke-width="2.1875" stroke-linecap="round" stroke-linejoin="round"/>
<path id="Vector_11" d="M738.883 528.531L739.261 530.873" stroke="#404366" stroke-width="2.1875" stroke-linecap="round" stroke-linejoin="round"/>
<path id="Vector_12" d="M743.132 528.531C743.24 528.531 744.933 530.531 744.933 530.531" stroke="#404366" stroke-width="2.1875" stroke-linecap="round" stroke-linejoin="round"/>
<path id="Vector_13" d="M734.649 485.28C736.509 485.28 738.017 483.772 738.017 481.912C738.017 480.051 736.509 478.543 734.649 478.543C732.788 478.543 731.28 480.051 731.28 481.912C731.28 483.772 732.788 485.28 734.649 485.28Z" fill="white" stroke="#404366" stroke-width="2.1875" stroke-linecap="round" stroke-linejoin="round"/>
<path id="Vector_14" d="M691.145 465.917L701.845 531.27" stroke="#404366" stroke-width="2.1875" stroke-linecap="round" stroke-linejoin="round"/>
<path id="Vector_15" d="M704.617 465.917L715.317 531.27" stroke="#404366" stroke-width="2.1875" stroke-linecap="round" stroke-linejoin="round"/>
<path id="Vector_16" d="M713.591 520.823H700.117" stroke="#404366" stroke-width="2.1875" stroke-linecap="round" stroke-linejoin="round"/>
<path id="Vector_17" d="M711.954 510.968H698.479" stroke="#404366" stroke-width="2.1875" stroke-linecap="round" stroke-linejoin="round"/>
<path id="Vector_18" d="M710.313 501.096H696.839" stroke="#404366" stroke-width="2.1875" stroke-linecap="round" stroke-linejoin="round"/>
<path id="Vector_19" d="M708.673 491.244H695.198" stroke="#404366" stroke-width="2.1875" stroke-linecap="round" stroke-linejoin="round"/>
<path id="Vector_20" d="M707.014 481.392H693.54" stroke="#404366" stroke-width="2.1875" stroke-linecap="round" stroke-linejoin="round"/>
</g>
</g>
</g>
</svg>
