<svg viewBox="0 0 1200 1000" fill="none" xmlns="http://www.w3.org/2000/svg">
<g id="segment-participation-09-acces-la-cultura">
<g id="Group 1164">
<path id="Vector" d="M581.18 479.859C572.737 485.909 563.256 490.176 553.233 491.304C543.142 492.433 533.119 489.228 523.028 488.776C515.94 488.46 508.739 488.573 501.718 488.234C496.458 487.986 491.582 487.963 486.842 487.715C479.347 487.309 472.213 486.316 464.538 482.884C452.822 477.647 441.422 472.974 432.776 462.996C424.424 453.357 419.57 441.302 410.992 431.618C409.863 430.331 408.712 429.067 407.561 427.848" stroke="#00B4CC" stroke-width="8.46967" stroke-miterlimit="10" stroke-linejoin="round" stroke-dasharray="10.59 10.59"/>
<path id="Vector_2" d="M581.179 497.535C590.493 497.535 598.042 489.985 598.042 480.672C598.042 471.359 590.493 463.809 581.179 463.809C571.866 463.809 564.316 471.359 564.316 480.672C564.316 489.985 571.866 497.535 581.179 497.535Z" fill="white" stroke="#00B4CC" stroke-width="8.46967" stroke-miterlimit="10" stroke-linecap="round" stroke-linejoin="round"/>
<path id="Vector_3" d="M407.537 427.893C393.361 412.903 377.649 403.016 356 402" stroke="#00B4CC" stroke-width="8.46967" stroke-miterlimit="10" stroke-linecap="round" stroke-linejoin="round"/>
<path id="Vector_4" d="M408.08 436.359C412.755 436.359 416.545 432.569 416.545 427.893C416.545 423.218 412.755 419.428 408.08 419.428C403.404 419.428 399.614 423.218 399.614 427.893C399.614 432.569 403.404 436.359 408.08 436.359Z" fill="white" stroke="#00B4CC" stroke-width="4.51487" stroke-miterlimit="10" stroke-linecap="round" stroke-linejoin="round"/>
<g id="icon-acces-la-cultura 1" clip-path="url(#clip0)">
<path id="Vector_5" d="M655.354 586.526C655.532 586.692 655.674 586.893 655.77 587.116C655.866 587.339 655.915 587.579 655.912 587.822C655.912 588.308 655.717 588.775 655.37 589.119C655.023 589.463 654.552 589.656 654.061 589.656C653.774 589.656 653.491 589.59 653.233 589.464C652.976 589.338 652.751 589.155 652.577 588.929C652.407 589.155 652.186 589.339 651.931 589.465C651.676 589.592 651.394 589.657 651.109 589.656C650.618 589.656 650.147 589.463 649.8 589.119C649.453 588.775 649.258 588.308 649.258 587.822C649.251 587.749 649.251 587.674 649.258 587.601H578.662C578.662 588.089 578.468 588.557 578.121 588.903C577.774 589.249 577.304 589.446 576.811 589.45C576.339 589.434 575.892 589.236 575.567 588.897C575.31 589.164 574.977 589.349 574.613 589.426C574.248 589.503 573.869 589.469 573.524 589.329C573.179 589.189 572.885 588.949 572.68 588.641C572.475 588.333 572.369 587.97 572.375 587.601C572.374 587.318 572.44 587.04 572.567 586.787C572.695 586.535 572.88 586.315 573.109 586.147C572.881 585.974 572.696 585.752 572.569 585.497C572.441 585.242 572.375 584.961 572.375 584.677C572.375 584.19 572.57 583.724 572.917 583.38C573.264 583.036 573.735 582.843 574.226 582.843V522.116C573.854 522.123 573.488 522.017 573.176 521.814C572.865 521.611 572.623 521.32 572.481 520.978C572.34 520.637 572.306 520.261 572.384 519.9C572.462 519.539 572.648 519.209 572.918 518.955C572.71 518.786 572.541 518.575 572.424 518.335C572.307 518.096 572.244 517.834 572.24 517.568C572.235 517.302 572.289 517.038 572.398 516.794C572.506 516.551 572.667 516.334 572.869 516.158C573.071 515.983 573.309 515.853 573.567 515.778C573.825 515.702 574.096 515.684 574.362 515.723C574.627 515.762 574.881 515.857 575.106 516.003C575.331 516.149 575.52 516.342 575.662 516.568C575.838 516.341 576.066 516.158 576.326 516.035C576.587 515.911 576.873 515.85 577.162 515.857C577.648 515.865 578.11 516.062 578.451 516.405C578.791 516.748 578.982 517.21 578.982 517.69H648.971C648.972 517.325 649.083 516.968 649.289 516.664C649.496 516.361 649.788 516.125 650.13 515.987C650.471 515.848 650.847 515.813 651.208 515.885C651.57 515.958 651.902 516.135 652.162 516.394C652.332 516.221 652.535 516.084 652.761 515.992C652.985 515.899 653.227 515.853 653.471 515.857C653.717 515.853 653.961 515.897 654.189 515.987C654.417 516.078 654.625 516.212 654.8 516.383C654.976 516.553 655.115 516.757 655.21 516.981C655.305 517.206 655.354 517.447 655.354 517.69C655.354 517.975 655.288 518.255 655.16 518.51C655.033 518.765 654.848 518.988 654.62 519.16C654.849 519.329 655.034 519.548 655.162 519.801C655.289 520.053 655.355 520.332 655.354 520.615C655.35 521.082 655.167 521.531 654.841 521.869C654.514 522.206 654.07 522.408 653.599 522.432V583.428C653.747 583.412 653.897 583.412 654.045 583.428C654.29 583.428 654.532 583.476 654.757 583.569C654.983 583.662 655.188 583.799 655.36 583.971C655.532 584.143 655.668 584.347 655.76 584.571C655.852 584.795 655.899 585.035 655.896 585.277C655.889 585.748 655.694 586.197 655.354 586.526Z" stroke="#00B4CC" stroke-width="1.2" stroke-linecap="round" stroke-linejoin="round"/>
<path id="Vector_6" d="M645.86 526.367H581.935V579.665H645.86V526.367Z" stroke="#00B4CC" stroke-width="1.2" stroke-linecap="round" stroke-linejoin="round"/>
<path id="Vector_7" d="M592.913 543.707C593.453 546.711 592.771 549.806 591.016 552.314C589.261 554.822 586.576 556.541 583.546 557.095H583.195C580.924 557.441 578.6 557.116 576.515 556.159C574.43 555.202 572.677 553.656 571.475 551.716C570.274 549.776 569.678 547.527 569.762 545.252C569.846 542.978 570.606 540.778 571.948 538.93C573.289 537.082 575.152 535.668 577.302 534.864C579.452 534.061 581.794 533.905 584.034 534.415C586.273 534.925 588.311 536.079 589.89 537.732C591.47 539.385 592.522 541.464 592.913 543.707Z" fill="white" stroke="#00B4CC" stroke-width="1.2" stroke-linecap="round" stroke-linejoin="round"/>
<path id="Vector_8" d="M571.514 551.799C573.138 552.876 575.088 553.367 577.035 553.19C578.894 552.989 580.7 552.453 582.365 551.609C584.963 550.526 587.246 548.814 589.003 546.63C589.878 545.53 590.485 544.244 590.779 542.874C591.072 541.504 591.043 540.085 590.694 538.727" stroke="#00B4CC" stroke-width="1.2" stroke-linecap="round" stroke-linejoin="round"/>
<path id="Vector_9" d="M570.669 550.031C572.296 551.103 574.244 551.594 576.19 551.422C578.048 551.213 579.852 550.678 581.52 549.841C584.113 548.749 586.394 547.039 588.158 544.862C588.928 543.741 589.423 542.456 589.603 541.112C589.783 539.767 589.643 538.399 589.196 537.117" stroke="#00B4CC" stroke-width="1.2" stroke-linecap="round" stroke-linejoin="round"/>
<path id="Vector_10" d="M576.51 539.344C576.827 539.344 577.084 539.089 577.084 538.775C577.084 538.46 576.827 538.206 576.51 538.206C576.193 538.206 575.936 538.46 575.936 538.775C575.936 539.089 576.193 539.344 576.51 539.344Z" fill="#00B4CC"/>
<path id="Vector_11" d="M575.87 542.301C576.188 542.301 576.445 542.046 576.445 541.732C576.445 541.418 576.188 541.163 575.87 541.163C575.553 541.163 575.296 541.418 575.296 541.732C575.296 542.046 575.553 542.301 575.87 542.301Z" fill="#00B4CC"/>
<path id="Vector_12" d="M578.454 543.643C578.772 543.643 579.029 543.389 579.029 543.074C579.029 542.76 578.772 542.505 578.454 542.505C578.137 542.505 577.88 542.76 577.88 543.074C577.88 543.389 578.137 543.643 578.454 543.643Z" fill="#00B4CC"/>
<path id="Vector_13" d="M571.85 545.967C572.167 545.967 572.424 545.713 572.424 545.398C572.424 545.084 572.167 544.829 571.85 544.829C571.533 544.829 571.275 545.084 571.275 545.398C571.275 545.713 571.533 545.967 571.85 545.967Z" fill="#00B4CC"/>
<path id="Vector_14" d="M575.695 546.442C576.012 546.442 576.269 546.187 576.269 545.873C576.269 545.559 576.012 545.304 575.695 545.304C575.377 545.304 575.12 545.559 575.12 545.873C575.12 546.187 575.377 546.442 575.695 546.442Z" fill="#00B4CC"/>
<path id="Vector_15" d="M572.36 542.332C572.677 542.332 572.934 542.077 572.934 541.763C572.934 541.449 572.677 541.194 572.36 541.194C572.042 541.194 571.785 541.449 571.785 541.763C571.785 542.077 572.042 542.332 572.36 542.332Z" fill="#00B4CC"/>
<path id="Vector_16" d="M579.061 540.563C579.378 540.563 579.635 540.308 579.635 539.994C579.635 539.68 579.378 539.425 579.061 539.425C578.744 539.425 578.486 539.68 578.486 539.994C578.486 540.308 578.744 540.563 579.061 540.563Z" fill="#00B4CC"/>
<path id="Vector_17" d="M579.874 537.591C580.192 537.591 580.449 537.337 580.449 537.022C580.449 536.708 580.192 536.453 579.874 536.453C579.557 536.453 579.3 536.708 579.3 537.022C579.3 537.337 579.557 537.591 579.874 537.591Z" fill="#00B4CC"/>
<path id="Vector_18" d="M585.141 537.829C585.458 537.829 585.715 537.574 585.715 537.26C585.715 536.945 585.458 536.69 585.141 536.69C584.824 536.69 584.566 536.945 584.566 537.26C584.566 537.574 584.824 537.829 585.141 537.829Z" fill="#00B4CC"/>
<path id="Vector_19" d="M585.684 544.104C586.001 544.104 586.258 543.849 586.258 543.535C586.258 543.22 586.001 542.966 585.684 542.966C585.367 542.966 585.109 543.22 585.109 543.535C585.109 543.849 585.367 544.104 585.684 544.104Z" fill="#00B4CC"/>
<path id="Vector_20" d="M587.185 541.305C587.502 541.305 587.759 541.05 587.759 540.736C587.759 540.422 587.502 540.167 587.185 540.167C586.868 540.167 586.61 540.422 586.61 540.736C586.61 541.05 586.868 541.305 587.185 541.305Z" fill="#00B4CC"/>
<path id="Vector_21" d="M596.311 564.618C595.528 565.397 594.629 566.053 593.646 566.563C592.338 567.254 590.897 567.664 589.417 567.764L586.449 562.674L584.678 559.766L583.082 557.158H583.433C586.247 556.673 588.778 555.169 590.534 552.938L591.811 555.546L593.407 558.707L596.311 564.618Z" fill="white" stroke="#00B4CC" stroke-width="1.2" stroke-linecap="round" stroke-linejoin="round"/>
<path id="Vector_22" d="M596.312 564.634L597.908 567.795L598.37 568.759C598.726 569.496 598.779 570.34 598.52 571.115C598.262 571.889 597.71 572.535 596.982 572.917L596.28 573.296C595.557 573.691 594.708 573.793 593.91 573.581C593.113 573.369 592.429 572.859 592.003 572.158L591.237 570.877L589.402 567.716C590.882 567.616 592.323 567.207 593.631 566.515C594.613 566.021 595.516 565.388 596.312 564.634Z" fill="white" stroke="#00B4CC" stroke-width="1.2" stroke-linecap="round" stroke-linejoin="round"/>
<path id="Vector_23" d="M596.313 564.634L597.909 567.795C597.145 568.524 596.279 569.142 595.339 569.629C594.084 570.294 592.705 570.697 591.286 570.814L589.451 567.653C590.931 567.553 592.372 567.143 593.68 566.452C594.641 565.974 595.527 565.361 596.313 564.634Z" fill="white" stroke="#00B4CC" stroke-width="1.2" stroke-linecap="round" stroke-linejoin="round"/>
<path id="Vector_24" d="M620.152 575.779L627.572 569.947C629.198 568.59 630.452 566.848 631.219 564.884C631.986 562.92 632.241 560.796 631.96 558.709L628.944 536.375L619.928 534.462C617.13 533.86 614.235 533.847 611.431 534.424C608.627 535.002 605.976 536.156 603.652 537.813L596.184 543.155L602.423 564.81C603.01 566.836 604.103 568.682 605.601 570.18C607.098 571.677 608.952 572.776 610.992 573.377L620.152 575.779Z" fill="white"/>
<path id="Vector_25" d="M620.152 575.779L627.572 569.947C629.198 568.59 630.452 566.848 631.219 564.884C631.986 562.92 632.241 560.796 631.96 558.709L628.944 536.375L619.928 534.462C617.13 533.86 614.235 533.847 611.431 534.424C608.627 535.002 605.976 536.156 603.652 537.813L596.184 543.155L602.423 564.81C603.01 566.836 604.103 568.682 605.601 570.18C607.098 571.677 608.952 572.776 610.992 573.377L620.152 575.779Z" stroke="#00B4CC" stroke-width="1.2" stroke-linecap="round" stroke-linejoin="round"/>
<path id="Vector_26" d="M609.141 555.958C610.621 555.958 611.822 554.769 611.822 553.302C611.822 551.836 610.621 550.647 609.141 550.647C607.66 550.647 606.46 551.836 606.46 553.302C606.46 554.769 607.66 555.958 609.141 555.958Z" fill="#00B4CC"/>
<path id="Vector_27" d="M621.956 553.302C623.437 553.302 624.637 552.113 624.637 550.646C624.637 549.18 623.437 547.991 621.956 547.991C620.476 547.991 619.275 549.18 619.275 550.646C619.275 552.113 620.476 553.302 621.956 553.302Z" fill="#00B4CC"/>
<path id="Vector_28" d="M624.938 562.486C623.935 561.294 622.607 560.412 621.113 559.946C619.619 559.479 618.021 559.446 616.508 559.852C614.996 560.259 613.634 561.086 612.582 562.236C611.531 563.387 610.834 564.812 610.576 566.343C612.419 564.446 614.755 563.089 617.326 562.423C619.82 561.743 622.456 561.764 624.938 562.486Z" fill="#00B4CC"/>
<path id="Vector_29" d="M617.902 541.606C618.931 541.524 619.965 541.651 620.942 541.98C621.919 542.309 622.818 542.833 623.583 543.518" stroke="#00B4CC" stroke-width="1.2" stroke-linecap="round" stroke-linejoin="round"/>
<path id="Vector_30" d="M608.871 543.471C607.896 543.809 607.001 544.339 606.239 545.029C605.476 545.719 604.863 546.555 604.435 547.486" stroke="#00B4CC" stroke-width="1.2" stroke-linecap="round" stroke-linejoin="round"/>
<path id="Vector_31" d="M638.424 567.417L648.286 565.489C650.49 564.997 652.532 563.961 654.223 562.477C655.914 560.993 657.198 559.109 657.956 557.001L666.094 534.493L658.546 528.25C656.203 526.326 653.478 524.91 650.548 524.093C647.619 523.277 644.548 523.077 641.536 523.508L631.865 524.93L627.11 548.45C626.665 550.644 626.785 552.913 627.46 555.049C628.135 557.185 629.343 559.117 630.972 560.668L638.424 567.417Z" fill="white" stroke="#00B4CC" stroke-width="1.2" stroke-linecap="round" stroke-linejoin="round"/>
<path id="Vector_32" d="M638.855 544.07C640.424 544.07 641.696 542.81 641.696 541.256C641.696 539.702 640.424 538.443 638.855 538.443C637.286 538.443 636.015 539.702 636.015 541.256C636.015 542.81 637.286 544.07 638.855 544.07Z" fill="#00B4CC"/>
<path id="Vector_33" d="M652.243 547.753C653.811 547.753 655.083 546.493 655.083 544.939C655.083 543.385 653.811 542.126 652.243 542.126C650.674 542.126 649.402 543.385 649.402 544.939C649.402 546.493 650.674 547.753 652.243 547.753Z" fill="#00B4CC"/>
<path id="Vector_34" d="M634.115 548.814C634.425 550.707 635.28 552.472 636.577 553.896C637.874 555.32 639.558 556.344 641.427 556.845C643.297 557.345 645.272 557.301 647.117 556.718C648.962 556.134 650.597 555.036 651.828 553.556C648.697 554.424 645.385 554.424 642.254 553.556C639.145 552.763 636.325 551.119 634.115 548.814Z" fill="#00B4CC"/>
<path id="Vector_35" d="M652.436 536.01C653.447 536.425 654.362 537.042 655.122 537.822C655.882 538.603 656.473 539.53 656.856 540.546" stroke="#00B4CC" stroke-width="1.2" stroke-linecap="round" stroke-linejoin="round"/>
<path id="Vector_36" d="M642.987 533.402C641.909 533.243 640.808 533.301 639.753 533.572C638.697 533.844 637.708 534.324 636.844 534.983" stroke="#00B4CC" stroke-width="1.2" stroke-linecap="round" stroke-linejoin="round"/>
</g>
<text class="btn-project" text-decoration="underline" cursor="pointer" data-projectid="1" id="Theater Hub" fill="#404366" xml:space="preserve" style="white-space: pre" font-family="Titillium Web" font-size="20" font-weight="600" letter-spacing="0px"><tspan x="427.975" y="429.206">Theater Hub</tspan></text>
<text id="Access to culture" fill="#1E1E1E" xml:space="preserve" style="white-space: pre" font-family="Titillium Web" font-size="40" font-weight="600" letter-spacing="0px"><tspan x="680.756" y="543.656">Access to</tspan><tspan x="680.756" y="583.656">culture</tspan></text>
</g>
</g>
<defs>
<clipPath id="clip0">
<rect width="98" height="76" fill="white" transform="translate(568.756 514.756)"/>
</clipPath>
</defs>
</svg>
