<svg viewBox="0 0 1200 1000" fill="none" xmlns="http://www.w3.org/2000/svg">
<g id="segment-care-04-fara-discriminare-impotriva-etniei-rome">
<g id="Group 1149">
<g id="Group 1141">
<path id="Vector" d="M847.432 402.565C811.872 408.104 777.122 437.666 741.156 427.181C723.863 422.128 708.812 411.509 691.707 405.456C670.603 397.998 638.772 400.025 620.181 411.59C605.968 420.453 585.188 419.994 569.192 417.075C554.708 414.427 543.359 402.051 530.2 399.214C519.499 396.917 502.8 402.241 494.369 408.158C479.913 418.291 465.862 428.83 451.324 438.909C439.948 446.799 430.896 457.959 418.736 464.714C406.684 471.416 393.282 472.794 380.798 479.387C363.937 488.277 349.129 499.383 332.889 508.786C327.863 511.705 322.864 515.163 318 518.865" stroke="#7937C4" stroke-width="10.1382" stroke-miterlimit="10" stroke-linejoin="round" stroke-dasharray="12.67 12.67"/>
<path id="Vector_2" d="M847.433 422.37C858.581 422.37 867.618 413.333 867.618 402.185C867.618 391.037 858.581 382 847.433 382C836.285 382 827.248 391.037 827.248 402.185C827.248 413.333 836.285 422.37 847.433 422.37Z" fill="white" stroke="#7937C4" stroke-width="10.1382" stroke-miterlimit="10" stroke-linecap="round" stroke-linejoin="round"/>
</g>
<g id="icon-fara-discriminare-impotriva-etniei-rome 1">
<path id="Vector_3" d="M881.229 454.829H779.344V522.752H881.229V454.829Z" stroke="#7937C4" stroke-width="3.0651" stroke-miterlimit="10"/>
<path id="Vector_4" d="M881.229 454.829H779.344V488.791H881.229V454.829Z" stroke="#7937C4" stroke-width="3.0651" stroke-miterlimit="10"/>
<path id="Vector_5" d="M830.272 511.406C842.776 511.406 852.913 501.27 852.913 488.765C852.913 476.261 842.776 466.124 830.272 466.124C817.768 466.124 807.631 476.261 807.631 488.765C807.631 501.27 817.768 511.406 830.272 511.406Z" fill="#7937C4"/>
<path id="Vector_6" d="M812.574 487.607C813.869 487.607 814.919 486.557 814.919 485.262C814.919 483.967 813.869 482.917 812.574 482.917C811.279 482.917 810.229 483.967 810.229 485.262C810.229 486.557 811.279 487.607 812.574 487.607Z" fill="white"/>
<path id="Vector_7" d="M823.896 488.362C824.369 488.362 824.753 487.978 824.753 487.505C824.753 487.031 824.369 486.647 823.896 486.647C823.423 486.647 823.039 487.031 823.039 487.505C823.039 487.978 823.423 488.362 823.896 488.362Z" fill="white"/>
<path id="Vector_8" d="M812.271 487.606L823.768 488.363V487.001L812.498 484.127L812.271 487.606Z" fill="white"/>
<path id="Vector_9" d="M813.182 482.967L824.099 486.648L823.67 487.934L812.098 486.169L813.182 482.967Z" fill="white"/>
<path id="Vector_10" d="M815.275 481.102C816.569 481.102 817.619 480.052 817.619 478.757C817.619 477.462 816.569 476.412 815.275 476.412C813.979 476.412 812.93 477.462 812.93 478.757C812.93 480.052 813.979 481.102 815.275 481.102Z" fill="white"/>
<path id="Vector_11" d="M824.854 486.018C825.328 486.018 825.712 485.634 825.712 485.161C825.712 484.687 825.328 484.304 824.854 484.304C824.381 484.304 823.997 484.687 823.997 485.161C823.997 485.634 824.381 486.018 824.854 486.018Z" fill="white"/>
<path id="Vector_12" d="M814.092 480.8L824.429 485.842L825.034 484.632L815.605 477.749L814.092 480.8Z" fill="white"/>
<path id="Vector_13" d="M816.712 476.892L825.385 484.455L824.478 485.489L814.393 479.413L816.712 476.892Z" fill="white"/>
<path id="Vector_14" d="M820.242 476.11C821.537 476.11 822.587 475.061 822.587 473.766C822.587 472.471 821.537 471.421 820.242 471.421C818.947 471.421 817.897 472.471 817.897 473.766C817.897 475.061 818.947 476.11 820.242 476.11Z" fill="white"/>
<path id="Vector_15" d="M826.643 484.227C827.117 484.227 827.5 483.843 827.5 483.37C827.5 482.897 827.117 482.513 826.643 482.513C826.17 482.513 825.786 482.897 825.786 483.37C825.786 483.843 826.17 484.227 826.643 484.227Z" fill="white"/>
<path id="Vector_16" d="M818.376 475.203L825.94 483.876L826.949 482.993L820.872 472.908L818.376 475.203Z" fill="white"/>
<path id="Vector_17" d="M822.282 472.606L827.324 482.944L826.088 483.549L819.256 474.044L822.282 472.606Z" fill="white"/>
<path id="Vector_18" d="M826.746 473.438C828.041 473.438 829.091 472.388 829.091 471.093C829.091 469.798 828.041 468.748 826.746 468.748C825.451 468.748 824.401 469.798 824.401 471.093C824.401 472.388 825.451 473.438 826.746 473.438Z" fill="white"/>
<path id="Vector_19" d="M829.017 483.243C829.49 483.243 829.874 482.859 829.874 482.386C829.874 481.912 829.49 481.528 829.017 481.528C828.543 481.528 828.159 481.912 828.159 482.386C828.159 482.859 828.543 483.243 829.017 483.243Z" fill="white"/>
<path id="Vector_20" d="M824.48 471.696L828.187 482.614L829.473 482.185L827.682 470.612L824.48 471.696Z" fill="white"/>
<path id="Vector_21" d="M829.09 470.764L829.847 482.286H828.485L825.712 470.915L829.09 470.764Z" fill="white"/>
<path id="Vector_22" d="M833.804 473.436C835.099 473.436 836.148 472.386 836.148 471.091C836.148 469.796 835.099 468.746 833.804 468.746C832.508 468.746 831.459 469.796 831.459 471.091C831.459 472.386 832.508 473.436 833.804 473.436Z" fill="white"/>
<path id="Vector_23" d="M831.537 483.244C832.01 483.244 832.394 482.86 832.394 482.387C832.394 481.913 832.01 481.529 831.537 481.529C831.064 481.529 830.68 481.913 830.68 482.387C830.68 482.86 831.064 483.244 831.537 483.244Z" fill="white"/>
<path id="Vector_24" d="M831.463 470.765L830.706 482.287H832.068L834.841 470.916L831.463 470.765Z" fill="white"/>
<path id="Vector_25" d="M836.077 471.697L832.371 482.615L831.085 482.186L832.85 470.613L836.077 471.697Z" fill="white"/>
<path id="Vector_26" d="M840.282 476.11C841.577 476.11 842.627 475.06 842.627 473.765C842.627 472.47 841.577 471.42 840.282 471.42C838.987 471.42 837.938 472.47 837.938 473.765C837.938 475.06 838.987 476.11 840.282 476.11Z" fill="white"/>
<path id="Vector_27" d="M833.88 484.228C834.353 484.228 834.737 483.844 834.737 483.371C834.737 482.897 834.353 482.514 833.88 482.514C833.406 482.514 833.022 482.897 833.022 483.371C833.022 483.844 833.406 484.228 833.88 484.228Z" fill="white"/>
<path id="Vector_28" d="M838.244 472.605L833.201 482.943L834.411 483.548L841.421 474.043L838.244 472.605Z" fill="white"/>
<path id="Vector_29" d="M842.174 475.201L834.61 483.874L833.602 482.991L839.653 472.906L842.174 475.201Z" fill="white"/>
<path id="Vector_30" d="M845.276 481.102C846.571 481.102 847.621 480.052 847.621 478.757C847.621 477.462 846.571 476.412 845.276 476.412C843.982 476.412 842.932 477.462 842.932 478.757C842.932 480.052 843.982 481.102 845.276 481.102Z" fill="white"/>
<path id="Vector_31" d="M835.695 486.018C836.168 486.018 836.552 485.634 836.552 485.161C836.552 484.687 836.168 484.304 835.695 484.304C835.222 484.304 834.838 484.687 834.838 485.161C834.838 485.634 835.222 486.018 835.695 486.018Z" fill="white"/>
<path id="Vector_32" d="M843.942 476.892L835.269 484.455L836.176 485.489L846.261 479.413L843.942 476.892Z" fill="white"/>
<path id="Vector_33" d="M846.459 480.799L836.097 485.841L835.517 484.631L844.946 477.748L846.459 480.799Z" fill="white"/>
<path id="Vector_34" d="M847.975 487.605C849.271 487.605 850.32 486.555 850.32 485.26C850.32 483.965 849.271 482.915 847.975 482.915C846.68 482.915 845.631 483.965 845.631 485.26C845.631 486.555 846.68 487.605 847.975 487.605Z" fill="white"/>
<path id="Vector_35" d="M836.653 488.36C837.127 488.36 837.511 487.976 837.511 487.503C837.511 487.029 837.127 486.646 836.653 486.646C836.18 486.646 835.796 487.029 835.796 487.503C835.796 487.976 836.18 488.36 836.653 488.36Z" fill="white"/>
<path id="Vector_36" d="M847.343 482.966L836.375 486.647L836.829 487.933L848.401 486.168L847.343 482.966Z" fill="white"/>
<path id="Vector_37" d="M848.276 487.604L836.779 488.361V486.999L848.05 484.125L848.276 487.604Z" fill="white"/>
<path id="Vector_38" d="M847.972 494.641C849.267 494.641 850.317 493.591 850.317 492.296C850.317 491.001 849.267 489.951 847.972 489.951C846.677 489.951 845.627 491.001 845.627 492.296C845.627 493.591 846.677 494.641 847.972 494.641Z" fill="white"/>
<path id="Vector_39" d="M836.653 490.908C837.127 490.908 837.511 490.524 837.511 490.051C837.511 489.577 837.127 489.193 836.653 489.193C836.18 489.193 835.796 489.577 835.796 490.051C835.796 490.524 836.18 490.908 836.653 490.908Z" fill="white"/>
<path id="Vector_40" d="M848.276 489.95L836.779 489.168V490.529L848.15 493.328L848.276 489.95Z" fill="white"/>
<path id="Vector_41" d="M847.343 494.565L836.375 490.859L836.829 489.573L848.401 491.363L847.343 494.565Z" fill="white"/>
<path id="Vector_42" d="M845.276 501.146C846.571 501.146 847.621 500.097 847.621 498.802C847.621 497.507 846.571 496.457 845.276 496.457C843.982 496.457 842.932 497.507 842.932 498.802C842.932 500.097 843.982 501.146 845.276 501.146Z" fill="white"/>
<path id="Vector_43" d="M835.695 493.255C836.168 493.255 836.552 492.871 836.552 492.397C836.552 491.924 836.168 491.54 835.695 491.54C835.222 491.54 834.838 491.924 834.838 492.397C834.838 492.871 835.222 493.255 835.695 493.255Z" fill="white"/>
<path id="Vector_44" d="M846.459 496.733L836.097 491.69L835.517 492.901L844.946 499.834L846.459 496.733Z" fill="white"/>
<path id="Vector_45" d="M843.938 500.667L835.265 493.103L836.172 492.069L846.257 498.145L843.938 500.667Z" fill="white"/>
<path id="Vector_46" d="M840.287 506.112C841.582 506.112 842.632 505.063 842.632 503.767C842.632 502.472 841.582 501.423 840.287 501.423C838.992 501.423 837.942 502.472 837.942 503.767C837.942 505.063 838.992 506.112 840.287 506.112Z" fill="white"/>
<path id="Vector_47" d="M833.88 495.044C834.353 495.044 834.737 494.66 834.737 494.186C834.737 493.713 834.353 493.329 833.88 493.329C833.406 493.329 833.022 493.713 833.022 494.186C833.022 494.66 833.406 495.044 833.88 495.044Z" fill="white"/>
<path id="Vector_48" d="M842.178 502.331L834.614 493.684L833.605 494.566L839.656 504.651L842.178 502.331Z" fill="white"/>
<path id="Vector_49" d="M838.244 504.952L833.201 494.615L834.411 494.01L841.421 503.464L838.244 504.952Z" fill="white"/>
<path id="Vector_50" d="M833.804 508.811C835.099 508.811 836.148 507.761 836.148 506.466C836.148 505.171 835.099 504.121 833.804 504.121C832.508 504.121 831.459 505.171 831.459 506.466C831.459 507.761 832.508 508.811 833.804 508.811Z" fill="white"/>
<path id="Vector_51" d="M831.533 496.029C832.006 496.029 832.39 495.645 832.39 495.172C832.39 494.698 832.006 494.314 831.533 494.314C831.06 494.314 830.676 494.698 830.676 495.172C830.676 495.645 831.06 496.029 831.533 496.029Z" fill="white"/>
<path id="Vector_52" d="M836.077 505.862L832.371 494.945L831.085 495.374L832.85 506.947L836.077 505.862Z" fill="white"/>
<path id="Vector_53" d="M831.463 506.819L830.706 495.322H832.068L834.841 506.693L831.463 506.819Z" fill="white"/>
<path id="Vector_54" d="M826.746 508.811C828.041 508.811 829.091 507.761 829.091 506.466C829.091 505.171 828.041 504.121 826.746 504.121C825.451 504.121 824.401 505.171 824.401 506.466C824.401 507.761 825.451 508.811 826.746 508.811Z" fill="white"/>
<path id="Vector_55" d="M829.017 496.027C829.49 496.027 829.874 495.643 829.874 495.17C829.874 494.696 829.49 494.312 829.017 494.312C828.543 494.312 828.159 494.696 828.159 495.17C828.159 495.643 828.543 496.027 829.017 496.027Z" fill="white"/>
<path id="Vector_56" d="M829.09 506.817L829.847 495.32H828.485L825.712 506.691L829.09 506.817Z" fill="white"/>
<path id="Vector_57" d="M824.476 505.86L828.182 494.942L829.468 495.371L827.678 506.943L824.476 505.86Z" fill="white"/>
<path id="Vector_58" d="M820.237 506.114C821.532 506.114 822.582 505.064 822.582 503.769C822.582 502.474 821.532 501.424 820.237 501.424C818.942 501.424 817.893 502.474 817.893 503.769C817.893 505.064 818.942 506.114 820.237 506.114Z" fill="white"/>
<path id="Vector_59" d="M826.64 495.044C827.113 495.044 827.497 494.661 827.497 494.187C827.497 493.714 827.113 493.33 826.64 493.33C826.166 493.33 825.782 493.714 825.782 494.187C825.782 494.661 826.166 495.044 826.64 495.044Z" fill="white"/>
<path id="Vector_60" d="M822.281 504.954L827.324 494.617L826.29 494.012L819.382 503.466L822.281 504.954Z" fill="white"/>
<path id="Vector_61" d="M818.371 502.331L825.935 493.684L826.944 494.566L820.867 504.651L818.371 502.331Z" fill="white"/>
<path id="Vector_62" d="M815.275 501.145C816.569 501.145 817.619 500.095 817.619 498.8C817.619 497.505 816.569 496.455 815.275 496.455C813.979 496.455 812.93 497.505 812.93 498.8C812.93 500.095 813.979 501.145 815.275 501.145Z" fill="white"/>
<path id="Vector_63" d="M824.854 493.254C825.328 493.254 825.712 492.87 825.712 492.396C825.712 491.923 825.328 491.539 824.854 491.539C824.381 491.539 823.997 491.923 823.997 492.396C823.997 492.87 824.381 493.254 824.854 493.254Z" fill="white"/>
<path id="Vector_64" d="M816.712 500.666L825.385 493.102L824.478 492.068L814.393 498.145L816.712 500.666Z" fill="white"/>
<path id="Vector_65" d="M814.092 496.733L824.429 491.69L825.034 492.901L815.605 499.834L814.092 496.733Z" fill="white"/>
<path id="Vector_66" d="M812.574 494.641C813.869 494.641 814.919 493.591 814.919 492.296C814.919 491.001 813.869 489.951 812.574 489.951C811.279 489.951 810.229 491.001 810.229 492.296C810.229 493.591 811.279 494.641 812.574 494.641Z" fill="white"/>
<path id="Vector_67" d="M823.896 490.908C824.369 490.908 824.753 490.524 824.753 490.051C824.753 489.577 824.369 489.193 823.896 489.193C823.423 489.193 823.039 489.577 823.039 490.051C823.039 490.524 823.423 490.908 823.896 490.908Z" fill="white"/>
<path id="Vector_68" d="M813.182 494.564L824.099 490.858L823.771 489.572L812.198 491.362L813.182 494.564Z" fill="white"/>
<path id="Vector_69" d="M812.271 489.95L823.768 489.168V490.529L812.398 493.328L812.271 489.95Z" fill="white"/>
</g>
<text id="F&#196;&#131;r&#196;&#131; discriminare&#226;&#128;&#168;&#195;&#174;mpotriva etniei rome" fill="#1E1E1E" xml:space="preserve" style="white-space: pre" font-family="Titillium Web" font-size="40" font-weight="600" letter-spacing="0px"><tspan x="587.258" y="570.9">F&#x103;r&#x103; discriminare</tspan><tspan x="516.047" y="612.9">&#xee;mpotriva etniei rome</tspan></text>
</g>
</g>
</svg>
