<svg viewBox="0 0 1200 1000" fill="none" xmlns="http://www.w3.org/2000/svg">
<g id="segment-environment-03-masurarea-poluarii">
<g id="Group 1172">
<g id="Group 1185">
<path id="Vector" d="M680 300C679.597 308.871 676.116 316.857 673.519 325.399C668.5 341.902 659.219 353.528 648.626 364.37C647.264 365.76 645.902 367.124 644.515 368.489C636.167 376.703 627.264 384.74 619.093 394.444C610.165 405.084 601.943 417.72 596.294 430.079C595.789 431.166 595.31 432.278 594.856 433.364C590.215 444.358 588.627 452.824 582.447 460.912C580.682 463.237 578.563 465.511 575.865 467.811C574.679 468.822 573.469 469.782 572.208 470.667C560.279 479.032 545.524 481.635 532.687 488.156C526.256 491.416 519.421 493.943 512.612 496.521C506.66 498.77 500.733 501.095 495.059 504.002C487.24 508.02 480.733 515.602 472.915 520.201C466.206 524.144 458.59 525.585 451.225 528.845C445.021 531.599 438.943 534.885 432.865 538.17" stroke="#C8CEDB" stroke-width="8.90654" stroke-miterlimit="10" stroke-linecap="round" stroke-linejoin="round"/>
<path id="Vector_2" d="M432.84 556.695C443.245 556.695 451.679 548.243 451.679 537.817C451.679 527.39 443.245 518.938 432.84 518.938C422.435 518.938 414 527.39 414 537.817C414 548.243 422.435 556.695 432.84 556.695Z" fill="white" stroke="#1B771B" stroke-width="8.90654" stroke-miterlimit="10" stroke-linecap="round" stroke-linejoin="round"/>
<path id="Vector_3" d="M663.355 358.102C668.578 358.102 672.812 353.859 672.812 348.625C672.812 343.391 668.578 339.148 663.355 339.148C658.131 339.148 653.897 343.391 653.897 348.625C653.897 353.859 658.131 358.102 663.355 358.102Z" fill="#404366"/>
<path id="Vector_4" d="M639.697 383.703C644.92 383.703 649.155 379.46 649.155 374.226C649.155 368.992 644.92 364.749 639.697 364.749C634.474 364.749 630.239 368.992 630.239 374.226C630.239 379.46 634.474 383.703 639.697 383.703Z" fill="#404366"/>
<path id="Vector_5" d="M612.132 413.475C617.355 413.475 621.59 409.232 621.59 403.998C621.59 398.763 617.355 394.52 612.132 394.52C606.909 394.52 602.674 398.763 602.674 403.998C602.674 409.232 606.909 413.475 612.132 413.475Z" fill="#404366"/>
<path id="Vector_6" d="M592.032 447.871C597.255 447.871 601.489 443.628 601.489 438.394C601.489 433.16 597.255 428.916 592.032 428.916C586.809 428.916 582.574 433.16 582.574 438.394C582.574 443.628 586.809 447.871 592.032 447.871Z" fill="#404366"/>
<path id="Vector_7" d="M565.877 484.794C571.1 484.794 575.335 480.551 575.335 475.317C575.335 470.083 571.1 465.84 565.877 465.84C560.654 465.84 556.419 470.083 556.419 475.317C556.419 480.551 560.654 484.794 565.877 484.794Z" fill="#404366"/>
<path id="Vector_8" d="M516.067 503.749C521.29 503.749 525.524 499.506 525.524 494.272C525.524 489.038 521.29 484.795 516.067 484.795C510.843 484.795 506.609 489.038 506.609 494.272C506.609 499.506 510.843 503.749 516.067 503.749Z" fill="#404366"/>
<path id="Vector_9" d="M480.33 525.003C485.553 525.003 489.788 520.76 489.788 515.526C489.788 510.292 485.553 506.049 480.33 506.049C475.106 506.049 470.872 510.292 470.872 515.526C470.872 520.76 475.106 525.003 480.33 525.003Z" fill="#404366"/>
</g>
<text class="btn-project" text-decoration="underline" cursor="pointer" data-projectid="1" id="DatePoluare" fill="#1E1E1E" xml:space="preserve" style="white-space: pre" font-family="Titillium Web" font-size="20" font-weight="600" letter-spacing="0px"><tspan x="538" y="326.17">DatePoluare</tspan></text>
<text class="btn-project" text-decoration="underline" cursor="pointer" data-projectid="2" id="Re&#200;&#155;eaua anti-poluare: aer" fill="#1E1E1E" xml:space="preserve" style="white-space: pre" font-family="Titillium Web" font-size="20" font-weight="600" letter-spacing="0px"><tspan x="663" y="406.17">Re&#x21b;eaua&#13;anti-poluare: aer</tspan></text>
<text class="btn-project" text-decoration="underline" cursor="pointer" data-projectid="3" id="Re&#200;&#155;eaua anti-poluare: zgomot" fill="#1E1E1E" xml:space="preserve" style="white-space: pre" font-family="Titillium Web" font-size="20" font-weight="600" letter-spacing="0px"><tspan x="335" y="395.17">Re&#x21b;eaua&#13;anti-poluare: zgomot</tspan></text>
<text class="btn-project" text-decoration="underline" cursor="pointer" data-projectid="4" id="Re&#200;&#155;eaua anti-poluare: ap&#196;&#131;" fill="#1E1E1E" xml:space="preserve" style="white-space: pre" font-family="Titillium Web" font-size="20" font-weight="600" letter-spacing="0px"><tspan x="615" y="466.17">Re&#x21b;eaua anti-poluare: ap&#x103;</tspan></text>
<text class="btn-project" text-decoration="underline" cursor="pointer" data-projectid="5" id="Inspectorul de energie" fill="#1E1E1E" xml:space="preserve" style="white-space: pre" font-family="Titillium Web" font-size="20" font-weight="600" letter-spacing="0px"><tspan x="319" y="470.17">Inspectorul de energie</tspan></text>
<text class="btn-project" text-decoration="underline" cursor="pointer" data-projectid="6" id="Eficien&#200;&#155;&#196;&#131; Energetic&#196;&#131;" fill="#1E1E1E" xml:space="preserve" style="white-space: pre" font-family="Titillium Web" font-size="20" font-weight="600" letter-spacing="0px"><tspan x="577" y="511.17">Eficien&#x21b;&#x103; Energetic&#x103;</tspan></text>
<text class="btn-project" text-decoration="underline" cursor="pointer" data-projectid="7" id="Contorul Public" fill="#1E1E1E" xml:space="preserve" style="white-space: pre" font-family="Titillium Web" font-size="20" font-weight="600" letter-spacing="0px"><tspan x="497" y="552.17">Contorul Public</tspan></text>
<text id="Pollution measurement" fill="#1E1E1E" xml:space="preserve" style="white-space: pre" font-family="Titillium Web" font-size="40" font-weight="600" letter-spacing="0px"><tspan x="494" y="659.62">Pollution measurement</tspan></text>
<g id="icon-masurarea-poluarii 1" clip-path="url(#clip0)">
<path id="Vector_10" d="M386.983 696.281V625.434C386.983 625.434 402.72 624.955 402.242 625.434C401.763 625.913 411.556 667.16 411.556 667.16L423.942 657.187V667.439L438.682 657.467V667.439L452.804 657.646V696.281" stroke="#1B771B" stroke-width="2.55" stroke-linecap="round" stroke-linejoin="round"/>
<path id="Vector_11" d="M373.4 696.283H468.779" stroke="#1B771B" stroke-width="2.55" stroke-linecap="round" stroke-linejoin="round"/>
<path id="Vector_12" d="M420.671 691.853V687.645C420.671 687.237 420.78 686.837 420.987 686.486C421.194 686.136 421.491 685.847 421.848 685.65L427.533 682.419L429.667 678.43C430.138 677.561 430.831 676.834 431.676 676.322C432.52 675.811 433.486 675.533 434.474 675.518H442.851C444.184 675.52 445.472 676.001 446.481 676.874L454.459 683.695H457.052C459.12 683.695 461.104 684.517 462.567 685.979C464.029 687.442 464.851 689.426 464.851 691.494V691.853H420.671Z" fill="white" stroke="#1B771B" stroke-width="2.55" stroke-linecap="round" stroke-linejoin="round"/>
<path id="Vector_13" d="M431.922 696.282C433.993 696.282 435.672 694.603 435.672 692.532C435.672 690.461 433.993 688.782 431.922 688.782C429.851 688.782 428.172 690.461 428.172 692.532C428.172 694.603 429.851 696.282 431.922 696.282Z" fill="white" stroke="#1B771B" stroke-width="2.55" stroke-linecap="round" stroke-linejoin="round"/>
<path id="Vector_14" d="M453.321 696.282C455.392 696.282 457.071 694.603 457.071 692.532C457.071 690.461 455.392 688.782 453.321 688.782C451.25 688.782 449.571 690.461 449.571 692.532C449.571 694.603 451.25 696.282 453.321 696.282Z" fill="white" stroke="#1B771B" stroke-width="2.55" stroke-linecap="round" stroke-linejoin="round"/>
<path id="Vector_15" d="M416.882 688.081H408.924" stroke="#1B771B" stroke-width="2.55" stroke-linecap="round" stroke-linejoin="round"/>
<path id="Vector_16" d="M414.488 691.854H404.236" stroke="#1B771B" stroke-width="2.55" stroke-linecap="round" stroke-linejoin="round"/>
<path id="Vector_17" d="M388.498 620.506V607.461" stroke="#1B771B" stroke-width="2.55" stroke-linecap="round" stroke-linejoin="round"/>
<path id="Vector_18" d="M399.79 620.506V607.461" stroke="#1B771B" stroke-width="2.55" stroke-linecap="round" stroke-linejoin="round"/>
<path id="Vector_19" d="M392.588 620.508V599.526" stroke="#1B771B" stroke-width="2.55" stroke-linecap="round" stroke-linejoin="round"/>
<path id="Vector_20" d="M396.201 615.103V594.12" stroke="#1B771B" stroke-width="2.55" stroke-linecap="round" stroke-linejoin="round"/>
<path id="Vector_21" d="M466.945 618.593C466.953 623.444 465.521 628.188 462.832 632.225C460.142 636.262 456.315 639.41 451.836 641.271C447.356 643.132 442.425 643.622 437.667 642.679C432.909 641.736 428.537 639.402 425.106 635.974C421.674 632.545 419.337 628.176 418.39 623.418C417.444 618.661 417.93 613.729 419.787 609.248C421.644 604.767 424.789 600.937 428.824 598.245C432.858 595.552 437.601 594.116 442.452 594.12C445.67 594.11 448.858 594.735 451.833 595.961C454.808 597.187 457.511 598.989 459.788 601.264C462.064 603.538 463.868 606.24 465.096 609.214C466.325 612.188 466.953 615.376 466.945 618.593Z" stroke="#1B771B" stroke-width="2.55" stroke-linecap="round" stroke-linejoin="round"/>
<path id="Vector_22" d="M442.454 639.415C453.954 639.415 463.277 630.092 463.277 618.592C463.277 607.092 453.954 597.769 442.454 597.769C430.954 597.769 421.631 607.092 421.631 618.592C421.631 630.092 430.954 639.415 442.454 639.415Z" stroke="#1B771B" stroke-width="2.55" stroke-linecap="round" stroke-linejoin="round"/>
<path id="Vector_23" d="M470.615 663.669C470.295 663.88 469.936 664.023 469.56 664.09C469.183 664.158 468.797 664.149 468.424 664.063C468.051 663.977 467.7 663.817 467.391 663.591C467.082 663.366 466.822 663.081 466.626 662.752L454.299 642.687V642.587C455.997 641.721 457.618 640.713 459.146 639.575V639.695L471.532 659.64C471.743 659.963 471.887 660.325 471.955 660.705C472.023 661.084 472.014 661.474 471.929 661.849C471.843 662.225 471.683 662.58 471.457 662.893C471.231 663.206 470.945 663.47 470.615 663.669Z" fill="#1B771B"/>
</g>
</g>
</g>
<defs>
<clipPath id="clip0">
<rect width="102" height="108.8" fill="white" transform="translate(370 590.72)"/>
</clipPath>
</defs>
</svg>
