<svg viewBox="0 0 1200 1000" fill="none" xmlns="http://www.w3.org/2000/svg">
<g id="segment-care-02-diaspora-mai-aproape-de-casa">
<g id="Group 1194">
<text id="A diaspora that is closer to home" fill="#1E1E1E" xml:space="preserve" style="white-space: pre" font-family="Titillium Web" font-size="40" font-weight="600" letter-spacing="0px"><tspan x="323.516" y="239.9">A diaspora that</tspan><tspan x="293.516" y="281.9">is closer to home</tspan></text>
<g id="icon-diaspora-mai-aproape-de-casa 1">
<path id="Vector" d="M606.814 296.061C610.493 296.061 613.476 293.079 613.476 289.399C613.476 285.719 610.493 282.736 606.814 282.736C603.134 282.736 600.151 285.719 600.151 289.399C600.151 293.079 603.134 296.061 606.814 296.061Z" stroke="#7937C4" stroke-width="2.7775" stroke-linecap="round" stroke-linejoin="round"/>
<path id="Vector_2" d="M606.837 293.931C605.932 293.931 605.046 293.662 604.293 293.159C603.54 292.656 602.953 291.94 602.607 291.104C602.26 290.267 602.17 289.346 602.346 288.458C602.523 287.57 602.959 286.754 603.599 286.114C604.24 285.473 605.056 285.037 605.944 284.86C606.832 284.684 607.753 284.774 608.59 285.121C609.426 285.468 610.142 286.055 610.645 286.808C611.148 287.561 611.416 288.446 611.416 289.352C611.416 290.566 610.934 291.731 610.075 292.589C609.217 293.448 608.052 293.931 606.837 293.931Z" stroke="#7937C4" stroke-width="2.7775" stroke-linecap="round" stroke-linejoin="round"/>
<path id="Vector_3" d="M608.484 212.104H671.125C673.773 212.104 676.312 213.155 678.184 215.027C680.056 216.899 681.108 219.438 681.108 222.086V286.078C681.108 288.726 680.056 291.265 678.184 293.137C676.312 295.009 673.773 296.061 671.125 296.061H608.484V212.104Z" fill="white" stroke="#7937C4" stroke-width="2.7775" stroke-linecap="round" stroke-linejoin="round"/>
<path id="Vector_4" d="M608.484 212.104H618.42C619.317 212.1 620.205 212.277 621.032 212.622C621.859 212.968 622.609 213.476 623.236 214.116C623.864 214.757 624.357 215.516 624.686 216.35C625.015 217.184 625.173 218.076 625.152 218.972V289.33C625.152 291.109 624.445 292.815 623.187 294.073C621.929 295.331 620.222 296.038 618.443 296.038H608.484V212.104Z" stroke="#7937C4" stroke-width="2.7775" stroke-linecap="round" stroke-linejoin="round"/>
<path id="Vector_5" d="M591.681 296.06H689.581" stroke="#7937C4" stroke-width="2.7775" stroke-linecap="round" stroke-linejoin="round"/>
<path id="Vector_6" d="M653.123 266.409L632.049 272.064L634.488 281.152L655.562 275.498L653.123 266.409Z" stroke="#7937C4" stroke-width="2.7775" stroke-linecap="round" stroke-linejoin="round"/>
<path id="Vector_7" d="M619.247 222.979V282.186" stroke="#7937C4" stroke-width="2.7775" stroke-linecap="round" stroke-linejoin="round"/>
<path id="Vector_8" d="M614.023 222.979V282.186" stroke="#7937C4" stroke-width="2.7775" stroke-linecap="round" stroke-linejoin="round"/>
<path id="Vector_9" d="M657.023 254.117C665.369 254.117 672.135 247.351 672.135 239.005C672.135 230.66 665.369 223.895 657.023 223.895C648.678 223.895 641.913 230.66 641.913 239.005C641.913 247.351 648.678 254.117 657.023 254.117Z" stroke="#7937C4" stroke-width="2.7775" stroke-linecap="round" stroke-linejoin="round"/>
<path id="Vector_10" d="M648.485 235.663C648.737 234.816 648.851 233.923 649.103 233.053C649.324 232.18 649.863 231.421 650.614 230.924C651.873 230.191 653.568 230.764 654.895 230.168C655.506 229.77 656.14 229.411 656.796 229.092C657.138 229.004 657.495 228.985 657.844 229.036C658.195 229.087 658.531 229.207 658.833 229.39C659.449 229.744 660.012 230.183 660.505 230.695C662.354 232.258 663.906 234.143 665.084 236.259C665.301 236.787 665.594 237.28 665.954 237.724C666.134 237.946 666.376 238.108 666.65 238.19C666.924 238.271 667.216 238.269 667.488 238.182L667.854 238.022C668.335 237.884 668.816 238.388 668.816 238.892C668.788 239.393 668.575 239.865 668.22 240.22C667.885 240.579 667.606 240.988 667.396 241.433C667.292 241.662 667.272 241.921 667.339 242.163C667.406 242.406 667.556 242.617 667.763 242.761C666.795 242.498 665.776 242.498 664.809 242.761C663.986 243.167 663.217 243.675 662.519 244.272C661.424 244.965 660.215 245.461 658.948 245.737C656.83 246.404 654.62 246.736 652.4 246.722C652.063 246.728 651.733 246.624 651.461 246.424C650.934 245.943 651.232 245.073 651.576 244.432C651.023 244.62 650.436 244.68 649.857 244.609C649.278 244.537 648.723 244.336 648.233 244.02C647.245 243.403 646.364 242.63 645.623 241.73C645.234 241.318 644.455 240.769 644.661 240.128C644.867 239.487 645.692 239.258 646.104 238.937C647.198 238.101 648.026 236.963 648.485 235.663Z" stroke="#7937C4" stroke-width="2.7775" stroke-linecap="round" stroke-linejoin="round"/>
<path id="Vector_11" d="M623.46 212.103V192.367H661.787V212.103" stroke="#7937C4" stroke-width="2.7775" stroke-linecap="round" stroke-linejoin="round"/>
<path id="Vector_12" d="M627.007 198.938H656.358" stroke="#7937C4" stroke-width="2.7775" stroke-linecap="round" stroke-linejoin="round"/>
</g>
<g id="Group 1193">
<path id="Vector_13" d="M746.172 811C746.855 803.588 746.828 796.177 744.859 788.793C741.14 774.818 738.432 762.375 737.53 747.634C737.475 746.868 737.448 746.075 737.393 745.31C736.408 724.634 734.029 703.33 726.098 683.995C725.606 682.792 725.114 681.616 724.621 680.44C718.55 665.781 712.616 651.889 711.686 635.644C711.166 626.537 713.08 618.36 715.268 610.292C717.538 601.951 720.136 593.692 720.738 584.64C722.133 563.417 712.287 548.732 699.024 536.288C687.264 525.24 672.824 515.941 661.092 505.412C658.494 503.06 656.005 500.654 653.735 498.165C652.231 496.524 650.836 494.856 649.551 493.16C631.857 470.079 632.431 443.223 620.507 416.859C619.851 415.382 619.14 413.906 618.374 412.429" stroke="#C8CEDB" stroke-width="10.2607" stroke-miterlimit="10" stroke-linecap="round" stroke-linejoin="round"/>
<path id="Vector_14" d="M571.854 334.814C573.249 349.582 581.59 361.041 591.217 371.57C603.332 384.834 610.142 396.238 618.374 412.346" stroke="#C8CEDB" stroke-width="10.2607" stroke-miterlimit="10" stroke-linecap="round" stroke-linejoin="round"/>
<path id="Vector_15" d="M572.429 356.858C583.712 356.858 592.858 347.712 592.858 336.429C592.858 325.146 583.712 316 572.429 316C561.146 316 552 325.146 552 336.429C552 347.712 561.146 356.858 572.429 356.858Z" fill="white" stroke="#7937C4" stroke-width="10.2607" stroke-miterlimit="10" stroke-linecap="round" stroke-linejoin="round"/>
<path id="Vector_16" d="M738.677 759.942C744.341 759.942 748.933 755.35 748.933 749.686C748.933 744.022 744.341 739.431 738.677 739.431C733.013 739.431 728.422 744.022 728.422 749.686C728.422 755.35 733.013 759.942 738.677 759.942Z" fill="#404366"/>
<path id="Vector_17" d="M734.684 719.71C740.348 719.71 744.94 715.119 744.94 709.455C744.94 703.791 740.348 699.199 734.684 699.199C729.02 699.199 724.429 703.791 724.429 709.455C724.429 715.119 729.02 719.71 734.684 719.71Z" fill="#404366"/>
<path id="Vector_18" d="M721.12 681.888C726.784 681.888 731.375 677.296 731.375 671.632C731.375 665.969 726.784 661.377 721.12 661.377C715.456 661.377 710.864 665.969 710.864 671.632C710.864 677.296 715.456 681.888 721.12 681.888Z" fill="#404366"/>
<path id="Vector_19" d="M710.864 643.874C716.528 643.874 721.12 639.283 721.12 633.619C721.12 627.955 716.528 623.363 710.864 623.363C705.2 623.363 700.609 627.955 700.609 633.619C700.609 639.283 705.2 643.874 710.864 643.874Z" fill="#404366"/>
<path id="Vector_20" d="M718.167 606.053C723.831 606.053 728.422 601.461 728.422 595.798C728.422 590.134 723.831 585.542 718.167 585.542C712.503 585.542 707.911 590.134 707.911 595.798C707.911 601.461 712.503 606.053 718.167 606.053Z" fill="#404366"/>
<path id="Vector_21" d="M716.936 566.288C722.6 566.288 727.192 561.697 727.192 556.033C727.192 550.369 722.6 545.777 716.936 545.777C711.272 545.777 706.681 550.369 706.681 556.033C706.681 561.697 711.272 566.288 716.936 566.288Z" fill="#404366"/>
<path id="Vector_22" d="M690.436 537.38C696.1 537.38 700.692 532.789 700.692 527.125C700.692 521.461 696.1 516.869 690.436 516.869C684.772 516.869 680.181 521.461 680.181 527.125C680.181 532.789 684.772 537.38 690.436 537.38Z" fill="#404366"/>
<path id="Vector_23" d="M663.089 515.695C668.753 515.695 673.344 511.103 673.344 505.439C673.344 499.775 668.753 495.184 663.089 495.184C657.425 495.184 652.833 499.775 652.833 505.439C652.833 511.103 657.425 515.695 663.089 515.695Z" fill="#404366"/>
<path id="Vector_24" d="M640.388 490.344C646.052 490.344 650.644 485.753 650.644 480.089C650.644 474.425 646.052 469.833 640.388 469.833C634.724 469.833 630.133 474.425 630.133 480.089C630.133 485.753 634.724 490.344 640.388 490.344Z" fill="#404366"/>
<path id="Vector_25" d="M630.133 458.209C635.797 458.209 640.389 453.618 640.389 447.954C640.389 442.29 635.797 437.698 630.133 437.698C624.469 437.698 619.877 442.29 619.877 447.954C619.877 453.618 624.469 458.209 630.133 458.209Z" fill="#404366"/>
<path id="Vector_26" d="M619.522 422.027C625.186 422.027 629.778 417.435 629.778 411.771C629.778 406.107 625.186 401.516 619.522 401.516C613.858 401.516 609.267 406.107 609.267 411.771C609.267 417.435 613.858 422.027 619.522 422.027Z" fill="#404366"/>
</g>
<text class="btn-project" text-decoration="underline" cursor="pointer" data-projectid="1" id="Diaspora Hub" fill="#404366" xml:space="preserve" style="white-space: pre" font-family="Titillium Web" font-size="20" font-weight="600" letter-spacing="0px"><tspan x="602" y="768.95">Diaspora Hub</tspan></text>
<text class="btn-project" text-decoration="underline" cursor="pointer" data-projectid="2" id="Info Diaspora" fill="#404366" xml:space="preserve" style="white-space: pre" font-family="Titillium Web" font-size="20" font-weight="600" letter-spacing="0px"><tspan x="597" y="717.95">Info Diaspora&#13;</tspan></text>
<text class="btn-project" text-decoration="underline" cursor="pointer" data-projectid="3" id="Sprijin Diaspora" fill="#404366" xml:space="preserve" style="white-space: pre" font-family="Titillium Web" font-size="20" font-weight="600" letter-spacing="0px"><tspan x="561" y="676.95">Sprijin Diaspora</tspan></text>
<text class="btn-project" text-decoration="underline" cursor="pointer" data-projectid="4" id="&#195;&#142;napoi acas&#196;&#131;" fill="#404366" xml:space="preserve" style="white-space: pre" font-family="Titillium Web" font-size="20" font-weight="600" letter-spacing="0px"><tspan x="735" y="640.95">&#xce;napoi acas&#x103;</tspan></text>
<text class="btn-project" text-decoration="underline" cursor="pointer" data-projectid="5" id="Echivalare Studii" fill="#404366" xml:space="preserve" style="white-space: pre" font-family="Titillium Web" font-size="20" font-weight="600" letter-spacing="0px"><tspan x="549" y="595.95">Echivalare Studii</tspan></text>
<text class="btn-project" text-decoration="underline" cursor="pointer" data-projectid="6" id="&#195;&#142;n Afar&#196;&#131; Mobile App" fill="#404366" xml:space="preserve" style="white-space: pre" font-family="Titillium Web" font-size="20" font-weight="600" letter-spacing="0px"><tspan x="739" y="559.95">&#xce;n Afar&#x103; Mobile App</tspan></text>
<text class="btn-project" text-decoration="underline" cursor="pointer" data-projectid="7" id="Keep in touch" fill="#404366" xml:space="preserve" style="white-space: pre" font-family="Titillium Web" font-size="20" font-weight="600" letter-spacing="0px"><tspan x="711" y="511.95">Keep in touch</tspan></text>
<text class="btn-project" text-decoration="underline" cursor="pointer" data-projectid="8" id="ePove&#200;&#153;ti" fill="#404366" xml:space="preserve" style="white-space: pre" font-family="Titillium Web" font-size="20" font-weight="600" letter-spacing="0px"><tspan x="572" y="530.95">ePove&#x219;ti</tspan></text>
<text class="btn-project" text-decoration="underline" cursor="pointer" data-projectid="9" id="RO-connect" fill="#404366" xml:space="preserve" style="white-space: pre" font-family="Titillium Web" font-size="20" font-weight="600" letter-spacing="0px"><tspan x="513" y="489.95">RO-connect</tspan></text>
<text class="btn-project" text-decoration="underline" cursor="pointer" data-projectid="10" id="Brain Gain" fill="#404366" xml:space="preserve" style="white-space: pre" font-family="Titillium Web" font-size="20" font-weight="600" letter-spacing="0px"><tspan x="517" y="454.95">Brain Gain</tspan></text>
<text class="btn-project" text-decoration="underline" cursor="pointer" data-projectid="11" id="Bine Acas&#196;&#131;" fill="#404366" xml:space="preserve" style="white-space: pre" font-family="Titillium Web" font-size="20" font-weight="600" letter-spacing="0px"><tspan x="646" y="411.95">Bine Acas&#x103;</tspan></text>
</g>
</g>
</svg>
