<svg viewBox="0 0 1200 1000" fill="none" xmlns="http://www.w3.org/2000/svg">
<g id="segment-environment-08-protectia-naturii">
<g id="Group 1177">
<g id="Group 1125">
<path id="Vector" d="M659.4 362.957C672.635 388.403 684.163 410.619 708.165 434.2C738.783 464.241 793.351 490.395 807.557 532.936C820.346 571.223 811.391 607.776 831.611 645.17C840.225 661.083 852.803 678.231 861.626 696.061" stroke="#1B771B" stroke-width="9.85237" stroke-miterlimit="10" stroke-linejoin="round" stroke-dasharray="12.32 12.32"/>
<path id="Vector_2" d="M656.616 382.232C667.45 382.232 676.232 373.45 676.232 362.616C676.232 351.782 667.45 343 656.616 343C645.782 343 637 351.782 637 362.616C637 373.45 645.782 382.232 656.616 382.232Z" fill="white" stroke="#1B771B" stroke-width="9.85237" stroke-miterlimit="10" stroke-linecap="round" stroke-linejoin="round"/>
</g>
<g id="icon-protectia-naturii 1">
<path id="Vector_3" d="M531.636 325.216C533.845 326.751 532.928 331.844 534.669 333.716C536.411 335.589 541.653 335.158 542.926 337.461C544.2 339.764 541.204 343.939 541.915 346.43C542.627 348.92 547.439 350.961 547.532 353.545C547.626 356.129 542.758 358.113 542.009 360.623C541.26 363.131 544.143 367.4 542.627 369.61C541.11 371.819 536.055 370.658 534.014 372.231C531.973 373.804 531.73 378.953 529.258 379.87C526.787 380.788 523.285 376.987 520.627 377.211C517.968 377.436 515.253 381.761 512.613 381.35C509.973 380.938 508.774 375.938 506.247 374.965C503.719 373.991 499.431 376.668 497.222 375.133C495.013 373.598 495.93 368.505 494.17 366.633C492.41 364.76 487.205 365.191 485.913 362.888C484.621 360.585 487.654 356.41 486.943 353.938C486.231 351.466 481.419 349.444 481.4 346.879C481.382 344.314 486.1 342.236 486.849 339.727C487.598 337.218 484.715 332.911 486.306 330.702C487.898 328.493 492.859 329.653 494.919 328.081C496.979 326.508 497.128 321.359 499.6 320.441C502.071 319.524 505.573 323.325 508.231 323.1C510.89 322.875 513.605 318.55 516.264 318.981C518.923 319.412 520.14 324.373 522.63 325.384C525.12 326.395 529.371 323.681 531.636 325.216Z" stroke="#1B771B" stroke-width="2.55" stroke-linecap="round" stroke-linejoin="round"/>
<path id="Vector_4" d="M526.039 358.15C529.915 352.532 527.861 344.393 521.451 339.972C515.042 335.55 506.704 336.52 502.829 342.138C498.953 347.756 501.007 355.894 507.417 360.316C513.826 364.737 522.164 363.768 526.039 358.15Z" stroke="#1B771B" stroke-width="2.55" stroke-linecap="round" stroke-linejoin="round"/>
<path id="Vector_5" d="M514.858 381.369V390.806" stroke="#1B771B" stroke-width="2.55" stroke-linecap="round" stroke-linejoin="round"/>
<path id="Vector_6" d="M506.92 375.32V389.325" stroke="#1B771B" stroke-width="2.55" stroke-linecap="round" stroke-linejoin="round"/>
<path id="Vector_7" d="M513.567 401.441V398.127C513.578 394.795 514.347 391.508 515.816 388.517C517.286 385.526 519.417 382.909 522.049 380.864L542.646 364.987C543.297 364.492 544.093 364.223 544.911 364.223C545.729 364.223 546.525 364.492 547.176 364.987C547.773 365.446 548.223 366.07 548.469 366.782C548.716 367.494 548.748 368.263 548.562 368.993L545.379 382.1C545.164 382.916 545.164 383.774 545.379 384.59L546.24 387.736" fill="white"/>
<path id="Vector_8" d="M513.567 401.441V398.127C513.578 394.795 514.347 391.508 515.816 388.517C517.286 385.526 519.417 382.909 522.049 380.864L542.646 364.987C543.297 364.492 544.093 364.223 544.911 364.223C545.729 364.223 546.525 364.492 547.176 364.987C547.773 365.446 548.223 366.07 548.469 366.782C548.716 367.494 548.748 368.263 548.562 368.993L545.379 382.1C545.164 382.916 545.164 383.774 545.379 384.59L546.24 387.736" stroke="#1B771B" stroke-width="2.55" stroke-linecap="round" stroke-linejoin="round"/>
<path id="Vector_9" d="M573.462 365.604C575.735 368.331 576.845 371.841 576.552 375.378L574.904 388.279C574.118 394.233 567.808 398.614 558.746 404.194L555.001 406.441C552.848 407.776 550.987 409.534 549.534 411.609C548.278 413.441 547.594 415.604 547.567 417.825V419.435" stroke="#1B771B" stroke-width="2.55" stroke-linecap="round" stroke-linejoin="round"/>
<path id="Vector_10" d="M570.075 388.672C570.075 388.279 572.322 379.554 573.82 373.955C574.599 370.941 574.409 367.757 573.277 364.856L570.281 357.254" stroke="#1B771B" stroke-width="2.55" stroke-linecap="round" stroke-linejoin="round"/>
<path id="Vector_11" d="M564.945 384.496L570.112 368.357L569.625 353.808C569.606 353.122 569.323 352.471 568.834 351.989C568.346 351.508 567.69 351.234 567.004 351.224C566.46 351.225 565.931 351.395 565.488 351.71C565.045 352.026 564.711 352.471 564.532 352.984L560.432 364.368C559.819 366.094 558.856 367.675 557.605 369.012L545.472 382.118" stroke="#1B771B" stroke-width="2.55" stroke-linecap="round" stroke-linejoin="round"/>
<path id="Vector_12" d="M555.737 332.851L548.421 330.641C544.222 329.372 539.789 331.748 538.521 335.947L538.515 335.965C537.247 340.165 539.623 344.597 543.822 345.866L551.137 348.075C555.337 349.344 559.769 346.968 561.038 342.769L561.043 342.751C562.312 338.552 559.936 334.119 555.737 332.851Z" fill="white" stroke="#1B771B" stroke-width="2.55726" stroke-linecap="round" stroke-linejoin="round"/>
<path id="Vector_13" d="M551.484 331.209C553.496 331.816 555.187 333.194 556.187 335.043C557.186 336.891 557.414 339.061 556.821 341.077C556.214 343.089 554.836 344.779 552.987 345.779C551.138 346.779 548.969 347.007 546.953 346.413" stroke="#1B771B" stroke-width="2.55" stroke-linecap="round" stroke-linejoin="round"/>
<path id="Vector_14" d="M547.496 330.031C548.849 330.635 550.006 331.606 550.836 332.833C551.665 334.061 552.135 335.496 552.192 336.977C552.248 338.458 551.889 339.924 551.155 341.212C550.421 342.499 549.342 343.555 548.039 344.261C546.505 345.109 544.73 345.412 543.002 345.122" stroke="#1B771B" stroke-width="2.55" stroke-linecap="round" stroke-linejoin="round"/>
<path id="Vector_15" d="M539.276 342.952C543.123 342.952 546.241 339.833 546.241 335.986C546.241 332.14 543.123 329.021 539.276 329.021C535.429 329.021 532.311 332.14 532.311 335.986C532.311 339.833 535.429 342.952 539.276 342.952Z" fill="white" stroke="#1B771B" stroke-width="2.55" stroke-linecap="round" stroke-linejoin="round"/>
<path id="Vector_16" d="M531.299 340.552C534.008 340.552 536.205 338.356 536.205 335.647C536.205 332.938 534.008 330.741 531.299 330.741C528.59 330.741 526.394 332.938 526.394 335.647C526.394 338.356 528.59 340.552 531.299 340.552Z" fill="white" stroke="#1B771B" stroke-width="2.55" stroke-linecap="round" stroke-linejoin="round"/>
<path id="Vector_17" d="M543.151 329.542C545.279 324.205 548.209 319.223 551.839 314.769C553.528 312.578 555.808 310.915 558.411 309.976C558.994 309.766 559.613 309.677 560.232 309.716C560.85 309.755 561.454 309.92 562.006 310.201C562.658 310.669 563.154 311.324 563.428 312.079C563.702 312.834 563.741 313.654 563.541 314.432C563.13 315.979 562.323 317.392 561.201 318.533C556.501 323.663 549.967 326.734 543.732 329.767" stroke="#1B771B" stroke-width="2.55" stroke-linecap="round" stroke-linejoin="round"/>
<path id="Vector_18" d="M546.578 314.133C546.217 312.698 545.676 311.314 544.968 310.014C544.575 309.091 543.962 308.279 543.181 307.649C542.401 307.019 541.478 306.59 540.493 306.4C539.507 306.414 538.549 306.73 537.749 307.306C536.948 307.882 536.344 308.69 536.018 309.621C535.413 311.499 535.348 313.511 535.831 315.425C536.906 319.948 538.555 324.314 540.737 328.419" stroke="#1B771B" stroke-width="2.55" stroke-linecap="round" stroke-linejoin="round"/>
<path id="Vector_19" d="M561.051 342.332L564.514 343.362" stroke="#1B771B" stroke-width="2.55" stroke-linecap="round" stroke-linejoin="round"/>
<path id="Vector_20" d="M529.239 333.7L530.044 335.984" stroke="#1B771B" stroke-width="2.55" stroke-linecap="round" stroke-linejoin="round"/>
<path id="Vector_21" d="M526.749 334.487L527.554 336.79" stroke="#1B771B" stroke-width="2.55" stroke-linecap="round" stroke-linejoin="round"/>
<path id="Vector_22" d="M510.233 344.129C510.833 344.129 511.319 343.643 511.319 343.043C511.319 342.443 510.833 341.957 510.233 341.957C509.634 341.957 509.147 342.443 509.147 343.043C509.147 343.643 509.634 344.129 510.233 344.129Z" fill="#1B771B"/>
<path id="Vector_23" d="M505.685 350.175C506.284 350.175 506.771 349.689 506.771 349.089C506.771 348.49 506.284 348.004 505.685 348.004C505.085 348.004 504.599 348.49 504.599 349.089C504.599 349.689 505.085 350.175 505.685 350.175Z" fill="#1B771B"/>
<path id="Vector_24" d="M512.386 349.558C512.985 349.558 513.472 349.072 513.472 348.472C513.472 347.872 512.985 347.386 512.386 347.386C511.786 347.386 511.3 347.872 511.3 348.472C511.3 349.072 511.786 349.558 512.386 349.558Z" fill="#1B771B"/>
<path id="Vector_25" d="M518.024 344.448C518.624 344.448 519.11 343.962 519.11 343.362C519.11 342.762 518.624 342.276 518.024 342.276C517.424 342.276 516.938 342.762 516.938 343.362C516.938 343.962 517.424 344.448 518.024 344.448Z" fill="#1B771B"/>
<path id="Vector_26" d="M520.981 350.175C521.581 350.175 522.067 349.689 522.067 349.089C522.067 348.49 521.581 348.004 520.981 348.004C520.382 348.004 519.896 348.49 519.896 349.089C519.896 349.689 520.382 350.175 520.981 350.175Z" fill="#1B771B"/>
<path id="Vector_27" d="M520.981 358.34C521.581 358.34 522.067 357.854 522.067 357.254C522.067 356.654 521.581 356.168 520.981 356.168C520.382 356.168 519.896 356.654 519.896 357.254C519.896 357.854 520.382 358.34 520.981 358.34Z" fill="#1B771B"/>
<path id="Vector_28" d="M516.264 355.325C516.863 355.325 517.35 354.839 517.35 354.239C517.35 353.64 516.863 353.153 516.264 353.153C515.664 353.153 515.178 353.64 515.178 354.239C515.178 354.839 515.664 355.325 516.264 355.325Z" fill="#1B771B"/>
<path id="Vector_29" d="M509.972 356.391C510.571 356.391 511.058 355.905 511.058 355.305C511.058 354.705 510.571 354.219 509.972 354.219C509.372 354.219 508.886 354.705 508.886 355.305C508.886 355.905 509.372 356.391 509.972 356.391Z" fill="#1B771B"/>
</g>
<text id="Protecting nature" fill="#1E1E1E" xml:space="preserve" style="white-space: pre" font-family="Titillium Web" font-size="40" font-weight="600" letter-spacing="0px"><tspan x="339.555" y="481.9">Protecting nature</tspan></text>
</g>
</g>
</svg>
