<svg viewBox="0 0 1200 1000" fill="none" xmlns="http://www.w3.org/2000/svg">
<g id="segment-environment-09-paduri-protejate-si-sanatoase">
<g id="Group 1178">
<g id="Group 1126">
<path id="Vector" d="M530.748 362.439C535.803 367.754 540.05 373.904 543.308 381.226C552.063 400.873 545.106 419.634 568.974 427.608C603.526 439.177 631.251 415.465 662.676 406.241C700.329 395.193 717.422 413.25 741.499 440.168C752.652 452.649 761.85 455.02 775.009 464.635C786.213 472.817 786.969 481.885 795.516 491.031C816.023 512.998 840.908 523.42 867.043 533.791C898.416 546.247 915.249 558.363 929.137 587.6C942.14 614.96 965.357 633.669 980.158 659.648C985.578 669.133 990.216 678.07 994.698 686.643" stroke="#1B771B" stroke-width="9.77642" stroke-miterlimit="10" stroke-linejoin="round" stroke-dasharray="12.22 12.22"/>
<path id="Vector_2" d="M527.465 381.93C538.215 381.93 546.93 373.215 546.93 362.465C546.93 351.715 538.215 343 527.465 343C516.715 343 508 351.715 508 362.465C508 373.215 516.715 381.93 527.465 381.93Z" fill="white" stroke="#1B771B" stroke-width="9.77642" stroke-miterlimit="10" stroke-linecap="round" stroke-linejoin="round"/>
</g>
<g id="icon-paduri-protejate-si-sanatoase 1">
<path id="Vector_3" d="M380.146 379.889C381.672 380.638 383.346 381.034 385.046 381.047H389.482H443.167C443.815 381.064 444.46 380.953 445.066 380.72C445.67 380.487 446.224 380.137 446.694 379.691C447.164 379.244 447.541 378.709 447.804 378.116C448.067 377.524 448.211 376.885 448.227 376.237C448.227 376.058 448.227 375.862 448.227 375.684C448.103 374.639 447.674 373.654 446.992 372.852C446.311 372.05 445.408 371.467 444.396 371.176C445.337 369.373 445.729 367.334 445.523 365.31C445.317 363.287 444.523 361.368 443.238 359.791C441.978 358.223 440.383 356.957 438.57 356.085C436.757 355.212 434.773 354.756 432.761 354.749C433.976 352.614 434.486 350.15 434.217 347.709C433.949 345.267 432.915 342.973 431.265 341.154C429.591 339.409 427.403 338.247 425.02 337.836C422.638 337.426 420.187 337.789 418.026 338.873C417.218 336.057 415.551 333.563 413.258 331.739C410.965 329.915 408.159 328.853 405.233 328.699C402.322 328.713 399.489 329.638 397.13 331.344C394.772 333.051 393.007 335.453 392.084 338.214C390.207 338.198 388.356 338.652 386.7 339.536C385.044 340.42 383.636 341.705 382.605 343.274C381.612 344.894 381.037 346.735 380.931 348.632C380.825 350.529 381.192 352.423 381.999 354.143C379.336 354.967 376.983 356.574 375.247 358.756C373.512 360.937 372.475 363.592 372.271 366.372C372.067 369.152 372.706 371.929 374.104 374.341C375.503 376.752 377.596 378.686 380.11 379.889H380.146Z" stroke="#1B771B" stroke-width="2.425" stroke-linecap="round" stroke-linejoin="round"/>
<path id="Vector_4" d="M448.227 377.486H461.055C461.845 377.44 462.607 377.183 463.262 376.741C463.917 376.299 464.441 375.688 464.779 374.974C465.126 374.279 465.306 373.514 465.306 372.737C465.306 371.961 465.126 371.196 464.779 370.502C465.878 369.711 466.79 368.688 467.449 367.506C468.108 366.323 468.498 365.01 468.592 363.659C468.733 362.259 468.567 360.845 468.106 359.516C467.644 358.186 466.898 356.974 465.919 355.962C466.642 353.264 466.707 350.432 466.109 347.704C465.51 344.976 464.266 342.431 462.481 340.283C460.661 338.156 458.365 336.488 455.781 335.414C453.196 334.34 450.394 333.89 447.603 334.1C447.858 333.07 447.897 331.998 447.715 330.952C447.535 329.906 447.138 328.909 446.552 328.024C445.917 327.197 445.111 326.516 444.188 326.03C443.265 325.544 442.248 325.264 441.206 325.209C440.759 323.067 439.707 321.098 438.176 319.535C436.644 317.972 434.697 316.881 432.565 316.389C430.417 316.027 428.211 316.298 426.215 317.168C424.219 318.038 422.519 319.47 421.322 321.289C418.84 321.541 416.496 322.549 414.605 324.176C412.746 325.696 411.417 327.767 410.81 330.091" stroke="#1B771B" stroke-width="2.425" stroke-linecap="round" stroke-linejoin="round"/>
<path id="Vector_5" d="M404.484 406.724V381.102" stroke="#1B771B" stroke-width="2.425" stroke-linecap="round" stroke-linejoin="round"/>
<path id="Vector_6" d="M414.108 406.724V389.459L422.465 381.102" stroke="#1B771B" stroke-width="2.425" stroke-linecap="round" stroke-linejoin="round"/>
<path id="Vector_7" d="M416.745 381.102L413.787 384.042V381.102" stroke="#1B771B" stroke-width="2.425" stroke-linecap="round" stroke-linejoin="round"/>
<path id="Vector_8" d="M436.54 390.011V381.102" stroke="#1B771B" stroke-width="2.425" stroke-linecap="round" stroke-linejoin="round"/>
<path id="Vector_9" d="M427.917 396.354L428.024 381.102" stroke="#1B771B" stroke-width="2.425" stroke-linecap="round" stroke-linejoin="round"/>
<path id="Vector_10" d="M383.316 406.672C383.726 406.672 457.919 406.886 458.151 406.672" stroke="#1B771B" stroke-width="2.425" stroke-linecap="round" stroke-linejoin="round"/>
<path id="Vector_11" d="M418.292 406.725C418.188 405.256 418.421 403.783 418.972 402.417C419.523 401.051 420.378 399.829 421.472 398.843C422.566 397.857 423.87 397.134 425.286 396.727C426.701 396.321 428.191 396.242 429.642 396.498C429.806 395.4 430.211 394.351 430.827 393.428C431.442 392.503 432.255 391.727 433.205 391.153C435.12 389.988 437.391 389.552 439.601 389.923C441.806 390.309 443.85 391.33 445.481 392.863C445.823 390.438 447.103 388.244 449.045 386.751C449.974 386.009 451.042 385.458 452.186 385.131C453.33 384.804 454.527 384.707 455.709 384.845" stroke="#1B771B" stroke-width="2.425" stroke-linecap="round" stroke-linejoin="round"/>
<path id="Vector_12" d="M379.701 405.549C379.377 404.367 379.416 403.114 379.813 401.954C380.21 400.794 380.947 399.781 381.928 399.045C382.939 398.348 384.138 397.975 385.367 397.975C386.595 397.975 387.794 398.348 388.805 399.045C388.748 398.464 388.813 397.876 388.998 397.322C389.183 396.768 389.483 396.258 389.878 395.828C390.273 395.397 390.755 395.055 391.292 394.823C391.828 394.592 392.408 394.476 392.992 394.484C392.57 393.158 392.522 391.742 392.852 390.39C393.182 389.039 393.878 387.804 394.863 386.822C395.874 385.89 397.13 385.264 398.483 385.018C399.837 384.772 401.232 384.915 402.507 385.433" stroke="#1B771B" stroke-width="2.425" stroke-linecap="round" stroke-linejoin="round"/>
<path id="Vector_13" d="M374.819 325.299H401.92V351.473L388.575 359.793L374.819 350.172V325.299Z" fill="white" stroke="#1B771B" stroke-width="2.425" stroke-linecap="round" stroke-linejoin="round"/>
<path id="Vector_14" d="M379.755 342.278C382.74 343.69 385.226 345.977 386.882 348.835C390.087 344.186 393.905 339.991 398.232 336.363" stroke="#1B771B" stroke-width="2.425" stroke-linecap="round" stroke-linejoin="round"/>
<path id="Vector_15" d="M378.792 338.002L378.596 328.238H398.355L398.498 332.782" stroke="#1B771B" stroke-width="2.425" stroke-linecap="round" stroke-linejoin="round"/>
<path id="Vector_16" d="M378.596 344.755V348.443L388.36 355.196L398.498 348.746V341.405" stroke="#1B771B" stroke-width="2.425" stroke-linecap="round" stroke-linejoin="round"/>
</g>
<text id="Protected and healthy forests" fill="#1E1E1E" xml:space="preserve" style="white-space: pre" font-family="Titillium Web" font-size="40" font-weight="600" letter-spacing="0px"><tspan x="206.375" y="468.9">Protected and</tspan><tspan x="278.719" y="510.9">healthy forests</tspan></text>
</g>
</g>
</svg>
