<svg viewBox="0 0 1200 1000" fill="none" xmlns="http://www.w3.org/2000/svg">
<g id="segment-health-04-spitale-functionale">
<g id="Group 1182">
<g id="Group 1130">
<path id="Vector" d="M590.946 336.724C587.446 335.499 583.846 334.724 580.121 334.749C571.672 334.799 563.898 338.999 556.498 343.074C539.749 350.523 522.85 358.848 507.826 362.947C475.528 371.747 440.931 364.622 409.033 370.672C367.436 378.571 328.913 366.722 292.191 391.27C287.266 394.57 283.266 399.12 278.442 402.545C272.192 406.994 267.092 412.369 262.493 418.469C258.043 424.443 255.318 429.618 253.718 436.617C251.968 444.292 248.794 451.616 248.594 459.666C248.569 460.791 248.819 462.316 248.669 463.466C248.444 465.165 247.644 466.015 247.319 467.49C246.569 471.065 246.994 474.815 246.944 478.49C246.894 482.139 245.619 484.539 245.194 488.139C244.544 493.539 245.594 498.188 247.369 503.188C248.594 506.638 249.169 510.837 250.593 514.137C251.593 516.462 253.693 517.762 254.968 519.937C271.417 547.585 289.341 581.833 310.314 606.331C322.939 621.08 340.362 624.905 356.186 635.279C373.66 646.753 389.109 666.177 392.234 687.251C392.884 691.6 392.934 695.65 392.634 699.5" stroke="#F90000" stroke-width="9.37912" stroke-miterlimit="10" stroke-linejoin="round" stroke-dasharray="11.72 11.72"/>
<path id="Vector_2" d="M590.946 357.348C601.259 357.348 609.62 348.987 609.62 338.674C609.62 328.361 601.259 320 590.946 320C580.633 320 572.272 328.361 572.272 338.674C572.272 348.987 580.633 357.348 590.946 357.348Z" fill="white" stroke="#F90000" stroke-width="9.37912" stroke-miterlimit="10" stroke-linecap="round" stroke-linejoin="round"/>
</g>
<g id="icon-spitale-functionale 1">
<path id="Vector_3" d="M703.692 307.358H656.196V367.412H703.692V307.358Z" stroke="#F90000" stroke-width="2.07" stroke-linecap="round" stroke-linejoin="round"/>
<path id="Vector_4" d="M682.387 315.544H687.082V320.448H682.387V325.126H677.483V320.448H672.805V315.544H677.483V310.849H682.387V315.544Z" stroke="#F90000" stroke-width="2.07" stroke-linecap="round" stroke-linejoin="round"/>
<path id="Vector_5" d="M691.939 302.76H667.886V307.358H691.939V302.76Z" stroke="#F90000" stroke-width="2.07" stroke-linecap="round" stroke-linejoin="round"/>
<path id="Vector_6" d="M656.198 336.316H646.245V367.396H656.198V336.316Z" stroke="#F90000" stroke-width="2.07" stroke-linecap="round" stroke-linejoin="round"/>
<path id="Vector_7" d="M663.287 330.109H696.715" stroke="#F90000" stroke-width="2.07" stroke-linecap="round" stroke-linejoin="round"/>
<path id="Vector_8" d="M663.287 337.217H696.715" stroke="#F90000" stroke-width="2.07" stroke-linecap="round" stroke-linejoin="round"/>
<path id="Vector_9" d="M663.287 344.324H696.715" stroke="#F90000" stroke-width="2.07" stroke-linecap="round" stroke-linejoin="round"/>
<path id="Vector_10" d="M663.287 351.445H696.715" stroke="#F90000" stroke-width="2.07" stroke-linecap="round" stroke-linejoin="round"/>
<path id="Vector_11" d="M663.287 358.553H696.715" stroke="#F90000" stroke-width="2.07" stroke-linecap="round" stroke-linejoin="round"/>
<path id="Vector_12" d="M682.323 363.391H729.947C730.587 363.391 731.2 363.137 731.653 362.685C732.105 362.232 732.359 361.619 732.359 360.979V359.548C732.363 359.176 732.281 358.807 732.118 358.471L722.182 338.55C721.979 338.148 721.668 337.811 721.285 337.575C720.902 337.339 720.461 337.215 720.011 337.215H686.246C685.681 337.2 685.129 337.382 684.685 337.732C684.241 338.082 683.935 338.576 683.818 339.129L679.959 357.619C679.943 357.78 679.943 357.941 679.959 358.101V360.979C679.959 361.611 680.207 362.217 680.649 362.668C681.09 363.119 681.692 363.379 682.323 363.391Z" fill="white" stroke="#F90000" stroke-width="2.07" stroke-linecap="round" stroke-linejoin="round"/>
<path id="Vector_13" d="M706.314 348.809H711.009V353.713H706.314V358.408H701.41V353.713H696.715V348.809H701.41V344.114H706.314V348.809Z" stroke="#F90000" stroke-width="2.07" stroke-linecap="round" stroke-linejoin="round"/>
<path id="Vector_14" d="M723.275 340.753H717.423L720.124 352.539H729.16" stroke="#F90000" stroke-width="2.07" stroke-linecap="round" stroke-linejoin="round"/>
<path id="Vector_15" d="M717.424 367.058C719.581 367.058 721.331 365.308 721.331 363.15C721.331 360.992 719.581 359.243 717.424 359.243C715.266 359.243 713.517 360.992 713.517 363.15C713.517 365.308 715.266 367.058 717.424 367.058Z" fill="white" stroke="#F90000" stroke-width="2.07" stroke-linecap="round" stroke-linejoin="round"/>
<path id="Vector_16" d="M691.055 367.058C693.213 367.058 694.963 365.308 694.963 363.15C694.963 360.992 693.213 359.243 691.055 359.243C688.897 359.243 687.148 360.992 687.148 363.15C687.148 365.308 688.897 367.058 691.055 367.058Z" fill="white" stroke="#F90000" stroke-width="2.07" stroke-linecap="round" stroke-linejoin="round"/>
<path id="Vector_17" d="M651.725 321.812C648.453 320.38 645.621 318.101 643.524 315.21C641.427 312.318 640.14 308.919 639.795 305.364C643.422 306.164 646.644 308.234 648.879 311.2C651.031 314.3 652.037 318.052 651.725 321.812Z" stroke="#F90000" stroke-width="2.07" stroke-linecap="round" stroke-linejoin="round"/>
<path id="Vector_18" d="M649.764 329.273C648.406 326.871 646.312 324.969 643.79 323.848C641.268 322.728 638.453 322.448 635.76 323.05C636.17 324.372 636.841 325.597 637.733 326.655C638.625 327.713 639.72 328.581 640.953 329.208C643.78 330.323 646.921 330.346 649.764 329.273Z" stroke="#F90000" stroke-width="2.07" stroke-linecap="round" stroke-linejoin="round"/>
<path id="Vector_19" d="M708.934 332.233C708.491 330.626 708.376 328.945 708.596 327.293C708.816 325.64 709.366 324.049 710.213 322.613C711.061 321.177 712.189 319.927 713.53 318.936C714.87 317.945 716.397 317.234 718.018 316.846C718.521 318.408 718.7 320.056 718.545 321.69C718.39 323.323 717.905 324.908 717.118 326.348C715.273 329.313 712.331 331.428 708.934 332.233Z" stroke="#F90000" stroke-width="2.07" stroke-linecap="round" stroke-linejoin="round"/>
</g>
<text id="Functional hospitals" fill="#1E1E1E" xml:space="preserve" style="white-space: pre" font-family="Titillium Web" font-size="40" font-weight="600" letter-spacing="0px"><tspan x="636" y="419.9">Functional hospitals</tspan></text>
</g>
</g>
</svg>
