<svg width="59" height="61" viewBox="0 0 59 61" fill="none" xmlns="http://www.w3.org/2000/svg">
<path d="M3.8999 60.02H1.16992" stroke="#404366" stroke-width="0.7" stroke-linecap="round" stroke-linejoin="round"/>
<path d="M29.3899 30.9003C29.6716 30.9003 29.8999 30.5197 29.8999 30.0503C29.8999 29.5809 29.6716 29.2002 29.3899 29.2002C29.1082 29.2002 28.8799 29.5809 28.8799 30.0503C28.8799 30.5197 29.1082 30.9003 29.3899 30.9003Z" fill="#404366"/>
<path d="M32.8298 30.9003C33.1115 30.9003 33.3398 30.5197 33.3398 30.0503C33.3398 29.5809 33.1115 29.2002 32.8298 29.2002C32.5482 29.2002 32.3198 29.5809 32.3198 30.0503C32.3198 30.5197 32.5482 30.9003 32.8298 30.9003Z" fill="#404366"/>
<path d="M38.5502 30.39C38.4376 30.5957 38.2834 30.7757 38.0974 30.9186C37.9115 31.0615 37.6979 31.1641 37.4701 31.22C37.2078 31.3021 36.935 31.3459 36.6602 31.35V33.4C36.6602 34.5007 36.2229 35.5562 35.4446 36.3345C34.6663 37.1127 33.6108 37.55 32.5101 37.55H30.5101C29.9656 37.5501 29.4264 37.4426 28.9235 37.2339C28.4205 37.0252 27.9637 36.7194 27.5791 36.3339C27.1945 35.9484 26.8899 35.4909 26.6824 34.9874C26.4749 34.484 26.3688 33.9445 26.3701 33.4L26.7601 25.4L36.3801 25.21C36.374 26.2172 36.4713 27.2225 36.6702 28.21C36.7302 28.44 36.7801 28.66 36.8301 28.89C37.3362 28.7458 37.8787 28.8069 38.3401 29.0601C38.5221 29.2242 38.6423 29.4458 38.6806 29.6879C38.7188 29.93 38.6728 30.1778 38.5502 30.39V30.39Z" stroke="#404366" stroke-width="0.7" stroke-linecap="round" stroke-linejoin="round"/>
<path d="M26.7499 25.4202C26.2199 25.4202 25.8599 24.6001 25.8599 24.2501C25.8599 22.0601 27.8599 20.8201 30.0099 20.6301C33.0899 20.3701 36.0098 20.3602 37.4698 21.0602C40.4698 22.4902 40.5798 25.6702 40.5698 28.5202C40.5598 31.3702 39.2398 33.9001 36.4398 34.7401" stroke="#404366" stroke-width="0.7" stroke-linecap="round" stroke-linejoin="round"/>
<path d="M36.0698 31.3501H36.6599" stroke="#404366" stroke-width="0.7" stroke-linecap="round" stroke-linejoin="round"/>
<path d="M30.8301 38.9999L29.8301 42.2499L33.1301 41.5599L35.5502 42.9899L38.6702 40.0999L37.6702 38.1699C37.6702 38.1699 35.6801 40.3799 30.8301 38.9999Z" stroke="#404366" stroke-width="0.7" stroke-linecap="round" stroke-linejoin="round"/>
<path d="M31.5898 39.1698V37.5498" stroke="#404366" stroke-width="0.7" stroke-linecap="round" stroke-linejoin="round"/>
<path d="M37.1001 38.5699V34.5" stroke="#404366" stroke-width="0.7" stroke-linecap="round" stroke-linejoin="round"/>
<path d="M46.25 60L45.8 48.29C45.7219 46.319 44.9784 44.4325 43.6909 42.938C42.4034 41.4435 40.6477 40.4291 38.71 40.0601C38.71 40.0601 35.51 49.96 25.52 53.92" stroke="#404366" stroke-width="0.7" stroke-linecap="round" stroke-linejoin="round"/>
<path d="M30.3601 40.0801H29.3601C27.4223 40.4491 25.6666 41.4635 24.3792 42.958C23.0917 44.4525 22.3483 46.3391 22.2701 48.3102L21.8301 60.0201" stroke="#404366" stroke-width="0.7" stroke-linecap="round" stroke-linejoin="round"/>
<path d="M25.52 49.2002V60.0203" stroke="#404366" stroke-width="0.7" stroke-linecap="round" stroke-linejoin="round"/>
<path d="M39.46 50.71V59.89" stroke="#404366" stroke-width="0.7" stroke-linecap="round" stroke-linejoin="round"/>
<path d="M2.6499 60.02H58.1199" stroke="#404366" stroke-width="0.7" stroke-linecap="round" stroke-linejoin="round"/>
<path d="M30 33.3999C30.2483 33.5468 30.5314 33.6244 30.8199 33.6244C31.1085 33.6244 31.3917 33.5468 31.64 33.3999" stroke="#404366" stroke-width="0.7" stroke-linecap="round" stroke-linejoin="round"/>
<path d="M43.49 42.7402C42.0126 46.926 39.4523 50.6456 36.0699 53.5203C30.2299 58.7003 25.52 58.9103 25.52 58.9103" stroke="#404366" stroke-width="0.7" stroke-linecap="round" stroke-linejoin="round"/>
<path d="M21.0299 58.0099H4.33984V55.8999H8.13989" stroke="#404366" stroke-width="0.7" stroke-linecap="round" stroke-linejoin="round"/>
<path d="M21.7802 55.9003H8.14014V19.9902H24.3102V27.6102H26.6401" stroke="#404366" stroke-width="0.7" stroke-linecap="round" stroke-linejoin="round"/>
<path d="M46.25 58.0099H55.9V55.8999H54.84" stroke="#404366" stroke-width="0.7" stroke-linecap="round" stroke-linejoin="round"/>
<path d="M40.5698 27.6099H53.7899V37.5499V55.8999H46.2499" stroke="#404366" stroke-width="0.7" stroke-linecap="round" stroke-linejoin="round"/>
<path d="M16.2701 30.4698C18.1479 30.4698 19.6702 28.9476 19.6702 27.0698C19.6702 25.1921 18.1479 23.6699 16.2701 23.6699C14.3924 23.6699 12.8701 25.1921 12.8701 27.0698C12.8701 28.9476 14.3924 30.4698 16.2701 30.4698Z" stroke="#404366" stroke-width="0.7" stroke-linecap="round" stroke-linejoin="round"/>
<path d="M5.08984 19.9902L16.0898 8.99023L27.0798 19.9902" stroke="#404366" stroke-width="0.7" stroke-linecap="round" stroke-linejoin="round"/>
<path d="M16.0898 8.98987V0.819824" stroke="#404366" stroke-width="0.7" stroke-linecap="round" stroke-linejoin="round"/>
<path d="M16.0898 0.819824H25.3398V7.60986H16.0898" stroke="#404366" stroke-width="0.7" stroke-linecap="round" stroke-linejoin="round"/>
<path d="M19.3198 1.00977V7.3197" stroke="#404366" stroke-width="0.7" stroke-linecap="round" stroke-linejoin="round"/>
<path d="M22.25 1.00977V7.3197" stroke="#404366" stroke-width="0.7" stroke-linecap="round" stroke-linejoin="round"/>
<path d="M16.38 25.4399L16.27 27.0699L14.5 28.5601" stroke="#404366" stroke-width="0.7" stroke-linecap="round" stroke-linejoin="round"/>
<path d="M19.3101 45.8599H13.21V55.8999H19.3101V45.8599Z" stroke="#404366" stroke-width="0.7" stroke-linecap="round" stroke-linejoin="round"/>
<path d="M13.21 41.75H25.6" stroke="#404366" stroke-width="0.7" stroke-linecap="round" stroke-linejoin="round"/>
<path d="M13.21 38.5698H27.48" stroke="#404366" stroke-width="0.7" stroke-linecap="round" stroke-linejoin="round"/>
<path d="M13.21 35.3901H26.86" stroke="#404366" stroke-width="0.7" stroke-linecap="round" stroke-linejoin="round"/>
<path d="M50.1499 41.75H42.4199" stroke="#404366" stroke-width="0.7" stroke-linecap="round" stroke-linejoin="round"/>
<path d="M50.15 38.5698H41.0601" stroke="#404366" stroke-width="0.7" stroke-linecap="round" stroke-linejoin="round"/>
<path d="M50.1501 35.3901H37.1001" stroke="#404366" stroke-width="0.7" stroke-linecap="round" stroke-linejoin="round"/>
</svg>
