<svg width="62" height="48" viewBox="0 0 62 48" fill="none" xmlns="http://www.w3.org/2000/svg">
<path d="M54.25 45.2203C54.4192 45.3813 54.5358 45.5897 54.5846 45.8182C54.6334 46.0466 54.6121 46.2844 54.5235 46.5005C54.4349 46.7166 54.2831 46.9009 54.088 47.0293C53.8929 47.1578 53.6636 47.2243 53.4301 47.2203C53.2521 47.223 53.076 47.1837 52.9162 47.1055C52.7563 47.0273 52.6171 46.9125 52.51 46.7703C52.3604 46.9608 52.1553 47.1001 51.9231 47.1691C51.6909 47.2381 51.443 47.2332 51.2136 47.1553C50.9843 47.0774 50.7848 46.9302 50.6426 46.7341C50.5005 46.5379 50.4227 46.3026 50.4201 46.0603C50.4201 46.0603 50.4201 45.9703 50.4201 45.9303H6.17007C5.23657 46.3166 4.30319 46.7032 3.37002 47.0903C3.12779 47.0876 2.89234 47.0099 2.69619 46.8677C2.50004 46.7256 2.35285 46.526 2.27493 46.2967C2.19701 46.0673 2.19228 45.8194 2.26126 45.5872C2.33023 45.355 2.46957 45.1499 2.66006 45.0003C2.51907 44.8921 2.40501 44.7528 2.32693 44.5932C2.24885 44.4336 2.20882 44.2579 2.20999 44.0802C2.20999 43.9279 2.24007 43.7771 2.29836 43.6364C2.35666 43.4957 2.44211 43.3678 2.54983 43.2601C2.65755 43.1523 2.78543 43.0669 2.92617 43.0086C3.06691 42.9503 3.21769 42.9203 3.37002 42.9203V4.50029C2.98541 3.56277 2.59871 2.62604 2.20999 1.69023C2.20999 1.38258 2.33229 1.08758 2.54983 0.870038C2.76737 0.652496 3.06237 0.530317 3.37002 0.530317C3.54971 0.531799 3.72677 0.57394 3.88784 0.653608C4.04891 0.733275 4.18985 0.848362 4.30007 0.990278C4.40665 0.846872 4.54542 0.730582 4.70522 0.650678C4.86503 0.570774 5.04133 0.529532 5.22 0.530317C5.52765 0.530317 5.82277 0.652496 6.04031 0.870038C6.25785 1.08758 6.38003 1.38258 6.38003 1.69023H50.27C50.27 1.53705 50.3004 1.38546 50.3593 1.24406C50.4182 1.10267 50.5045 0.974346 50.6133 0.866498C50.7221 0.758651 50.8512 0.673348 50.9931 0.615644C51.135 0.55794 51.2868 0.528996 51.44 0.530317C51.5463 0.640401 51.6737 0.727968 51.8146 0.787763C51.9555 0.847558 52.107 0.878339 52.26 0.878339C52.4131 0.878339 52.5646 0.847558 52.7055 0.787763C52.8464 0.727968 52.9737 0.640401 53.08 0.530317C53.3876 0.530317 53.6828 0.652496 53.9003 0.870038C54.1178 1.08758 54.24 1.38258 54.24 1.69023C54.24 1.87018 54.1986 2.04773 54.1188 2.20903C54.039 2.37033 53.9231 2.51108 53.7801 2.62028C53.9702 2.76241 54.1115 2.95987 54.185 3.18559C54.2584 3.41131 54.2602 3.65426 54.1901 3.88102C54.12 4.10779 53.9814 4.3073 53.7934 4.45219C53.6054 4.59709 53.3772 4.68019 53.14 4.69023V43.2903C53.2329 43.2772 53.3272 43.2772 53.4201 43.2903C53.5732 43.2903 53.7248 43.3206 53.8662 43.3796C54.0076 43.4385 54.136 43.5248 54.2438 43.6336C54.3516 43.7424 54.437 43.8715 54.4947 44.0133C54.5524 44.1552 54.5813 44.3071 54.58 44.4602C54.5692 44.746 54.4515 45.0173 54.25 45.2203Z" stroke="#404366" stroke-width="0.75" stroke-linecap="round" stroke-linejoin="round"/>
<path d="M48.29 7.16016H8.22998V40.8801H48.29V7.16016Z" stroke="#404366" stroke-width="0.75" stroke-linecap="round" stroke-linejoin="round"/>
<path d="M15.1199 18.1398C15.4572 20.0479 15.0232 22.0119 13.9131 23.6001C12.803 25.1883 11.1077 26.2709 9.19983 26.6097H8.98987C7.56815 26.8199 6.11608 26.6063 4.81507 25.9957C3.51406 25.3851 2.42182 24.4046 1.67505 23.1766C0.928292 21.9487 0.560129 20.5279 0.61646 19.0918C0.67279 17.6557 1.15117 16.2682 1.99183 15.1025C2.83248 13.9369 3.99806 13.0448 5.3429 12.538C6.68774 12.0311 8.15209 11.932 9.55298 12.2529C10.9539 12.5738 12.2291 13.3006 13.2192 14.3423C14.2094 15.384 14.8705 16.6944 15.1199 18.1097V18.1398Z" fill="white" stroke="#404366" stroke-width="0.75" stroke-linecap="round" stroke-linejoin="round"/>
<path d="M1.70996 23.26C2.72885 23.9401 3.95004 24.2507 5.17004 24.14C6.3349 24.0125 7.46671 23.6736 8.51001 23.14C10.1351 22.4585 11.5624 21.3786 12.66 20C13.2089 19.304 13.59 18.4909 13.7738 17.6238C13.9576 16.7567 13.9392 15.8588 13.72 15" stroke="#404366" stroke-width="0.75" stroke-linecap="round" stroke-linejoin="round"/>
<path d="M1.18018 22.0898C2.19598 22.7685 3.41338 23.079 4.63013 22.9698C5.79562 22.8454 6.92798 22.5064 7.97009 21.9698C9.59822 21.284 11.0285 20.201 12.1301 18.8198C12.6171 18.1123 12.9306 17.3 13.0453 16.4487C13.16 15.5974 13.0726 14.7311 12.7902 13.9199" stroke="#404366" stroke-width="0.75" stroke-linecap="round" stroke-linejoin="round"/>
<path d="M4.82971 15.3699C5.02853 15.3699 5.1897 15.2087 5.1897 15.0099C5.1897 14.8111 5.02853 14.6499 4.82971 14.6499C4.63089 14.6499 4.46973 14.8111 4.46973 15.0099C4.46973 15.2087 4.63089 15.3699 4.82971 15.3699Z" fill="#404366"/>
<path d="M4.42993 17.24C4.62875 17.24 4.78992 17.0788 4.78992 16.88C4.78992 16.6812 4.62875 16.52 4.42993 16.52C4.23111 16.52 4.06982 16.6812 4.06982 16.88C4.06982 17.0788 4.23111 17.24 4.42993 17.24Z" fill="#404366"/>
<path d="M6.05005 18.0901C6.24887 18.0901 6.41003 17.9289 6.41003 17.7301C6.41003 17.5313 6.24887 17.3701 6.05005 17.3701C5.85123 17.3701 5.68994 17.5313 5.68994 17.7301C5.68994 17.9289 5.85123 18.0901 6.05005 18.0901Z" fill="#404366"/>
<path d="M1.90979 19.5599C2.10861 19.5599 2.26978 19.3987 2.26978 19.1998C2.26978 19.001 2.10861 18.8398 1.90979 18.8398C1.71097 18.8398 1.5498 19.001 1.5498 19.1998C1.5498 19.3987 1.71097 19.5599 1.90979 19.5599Z" fill="#404366"/>
<path d="M4.32971 19.8699C4.52853 19.8699 4.6897 19.7087 4.6897 19.5099C4.6897 19.3111 4.52853 19.1499 4.32971 19.1499C4.13089 19.1499 3.96973 19.3111 3.96973 19.5099C3.96973 19.7087 4.13089 19.8699 4.32971 19.8699Z" fill="#404366"/>
<path d="M2.2301 17.26C2.42893 17.26 2.59009 17.0988 2.59009 16.9C2.59009 16.7012 2.42893 16.54 2.2301 16.54C2.03128 16.54 1.87012 16.7012 1.87012 16.9C1.87012 17.0988 2.03128 17.26 2.2301 17.26Z" fill="#404366"/>
<path d="M6.44006 16.1501C6.63889 16.1501 6.80017 15.989 6.80017 15.7902C6.80017 15.5913 6.63889 15.4302 6.44006 15.4302C6.24124 15.4302 6.08008 15.5913 6.08008 15.7902C6.08008 15.989 6.24124 16.1501 6.44006 16.1501Z" fill="#404366"/>
<path d="M6.94006 14.26C7.13889 14.26 7.30017 14.0988 7.30017 13.9C7.30017 13.7012 7.13889 13.54 6.94006 13.54C6.74124 13.54 6.58008 13.7012 6.58008 13.9C6.58008 14.0988 6.74124 14.26 6.94006 14.26Z" fill="#404366"/>
<path d="M10.2501 14.41C10.4489 14.41 10.6101 14.2489 10.6101 14.05C10.6101 13.8512 10.4489 13.6899 10.2501 13.6899C10.0513 13.6899 9.89014 13.8512 9.89014 14.05C9.89014 14.2489 10.0513 14.41 10.2501 14.41Z" fill="#404366"/>
<path d="M10.59 18.3899C10.7888 18.3899 10.95 18.2287 10.95 18.0299C10.95 17.8311 10.7888 17.6699 10.59 17.6699C10.3911 17.6699 10.23 17.8311 10.23 18.0299C10.23 18.2287 10.3911 18.3899 10.59 18.3899Z" fill="#404366"/>
<path d="M11.5201 16.6101C11.719 16.6101 11.8801 16.4489 11.8801 16.2501C11.8801 16.0513 11.719 15.8901 11.5201 15.8901C11.3213 15.8901 11.1602 16.0513 11.1602 16.2501C11.1602 16.4489 11.3213 16.6101 11.5201 16.6101Z" fill="#404366"/>
<path d="M17.2302 31.3698C16.7428 31.8592 16.1829 32.2707 15.5702 32.5897C14.7499 33.0259 13.8471 33.2849 12.9203 33.3497L11.0603 30.1798L9.9502 28.2898L8.9502 26.6398H9.16028C10.9249 26.3289 12.5128 25.3782 13.6202 23.9697L14.4103 25.6198L15.4103 27.6198L17.2302 31.3698Z" fill="white" stroke="#404366" stroke-width="0.75" stroke-linecap="round" stroke-linejoin="round"/>
<path d="M17.23 31.3701L18.23 33.3701L18.53 33.9901C18.7525 34.456 18.7862 34.9899 18.624 35.4801C18.4619 35.9703 18.1165 36.3788 17.66 36.6201L17.21 36.8501C16.7551 37.0875 16.2264 37.1411 15.7332 36.9996C15.2399 36.8582 14.82 36.5325 14.5601 36.0901L14.09 35.2802L12.9399 33.2802C13.8678 33.2214 14.772 32.9621 15.59 32.5201C16.1909 32.2208 16.7437 31.8331 17.23 31.3701Z" fill="white" stroke="#404366" stroke-width="0.75" stroke-linecap="round" stroke-linejoin="round"/>
<path d="M17.23 31.3701L18.23 33.3701C17.7555 33.8321 17.2166 34.2229 16.63 34.5302C15.8429 34.9497 14.9787 35.2049 14.09 35.2802L12.9399 33.2802C13.8678 33.2214 14.772 32.9621 15.59 32.5201C16.1909 32.2208 16.7437 31.8331 17.23 31.3701Z" fill="white" stroke="#404366" stroke-width="0.75" stroke-linecap="round" stroke-linejoin="round"/>
<path d="M32.1802 38.43L36.8301 34.7299C37.8496 33.8718 38.6361 32.7704 39.1168 31.5275C39.5975 30.2847 39.7568 28.9407 39.5801 27.6199L37.6901 13.4999L32.0402 12.28C30.2873 11.9007 28.4742 11.8943 26.7186 12.2613C24.9631 12.6282 23.3043 13.3603 21.8501 14.41L17.1602 17.78L21.0801 31.4799C21.4446 32.7617 22.1272 33.9307 23.0642 34.8782C24.0013 35.8258 25.1624 36.5212 26.4401 36.9L32.1802 38.43Z" fill="white"/>
<path d="M32.1802 38.43L36.8301 34.7299C37.8496 33.8718 38.6361 32.7704 39.1168 31.5275C39.5975 30.2847 39.7568 28.9407 39.5801 27.6199L37.6901 13.4999L32.0402 12.28C30.2873 11.9007 28.4742 11.8943 26.7186 12.2613C24.9631 12.6282 23.3043 13.3603 21.8501 14.41V14.41L17.1602 17.78L21.0801 31.4799C21.4446 32.7617 22.1272 33.9307 23.0642 34.8782C24.0013 35.8258 25.1624 36.5212 26.4401 36.9L32.1802 38.43" stroke="#404366" stroke-width="0.75" stroke-linecap="round" stroke-linejoin="round"/>
<path d="M25.2802 25.88C26.208 25.88 26.9601 25.1278 26.9601 24.2C26.9601 23.2721 26.208 22.52 25.2802 22.52C24.3523 22.52 23.6001 23.2721 23.6001 24.2C23.6001 25.1278 24.3523 25.88 25.2802 25.88Z" fill="#404366"/>
<path d="M33.3099 24.1998C34.2378 24.1998 34.9899 23.4477 34.9899 22.5199C34.9899 21.5921 34.2378 20.8398 33.3099 20.8398C32.3821 20.8398 31.6299 21.5921 31.6299 22.5199C31.6299 23.4477 32.3821 24.1998 33.3099 24.1998Z" fill="#404366"/>
<path d="M35.1899 30C34.5585 29.2498 33.7257 28.6959 32.7897 28.4036C31.8537 28.1113 30.8536 28.0928 29.9075 28.3504C28.9613 28.6079 28.1086 29.1308 27.45 29.8572C26.7913 30.5836 26.354 31.4832 26.1899 32.45C27.3503 31.2546 28.8117 30.3944 30.42 29.96C31.9831 29.5318 33.6343 29.5457 35.1899 30Z" fill="#404366"/>
<path d="M30.7803 16.7998C31.4247 16.7492 32.0728 16.8303 32.6848 17.0383C33.2969 17.2463 33.8601 17.5769 34.3402 18.0097" stroke="#404366" stroke-width="0.75" stroke-linecap="round" stroke-linejoin="round"/>
<path d="M25.1099 18C24.4997 18.2127 23.9393 18.5476 23.463 18.9844C22.9867 19.4211 22.6045 19.9505 22.3398 20.54" stroke="#404366" stroke-width="0.75" stroke-linecap="round" stroke-linejoin="round"/>
<path d="M43.63 33.0898L49.8199 31.8699C51.1988 31.5536 52.4762 30.8962 53.535 29.958C54.5938 29.0198 55.4002 27.8307 55.88 26.4999L60.97 12.2499L56.24 8.34984C54.7735 7.13247 53.0679 6.23648 51.2334 5.71971C49.3989 5.20295 47.4762 5.0769 45.59 5.34984L39.52 6.25987L36.52 21.0898C36.2437 22.4763 36.3205 23.9101 36.7434 25.2591C37.1663 26.6082 37.9216 27.8293 38.9399 28.8099L43.61 33.0499" fill="white"/>
<path d="M43.63 33.0898L49.8199 31.8699C51.1988 31.5536 52.4762 30.8962 53.535 29.958C54.5938 29.0198 55.4002 27.8307 55.88 26.4999L60.97 12.2499L56.24 8.34984C54.7735 7.13247 53.0679 6.23648 51.2334 5.71971C49.3989 5.20295 47.4762 5.0769 45.59 5.34984L39.52 6.25987L36.52 21.0898C36.2437 22.4763 36.3205 23.9101 36.7434 25.2591C37.1663 26.6082 37.9216 27.8293 38.9399 28.8099L43.61 33.0499" stroke="#404366" stroke-width="0.75" stroke-linecap="round" stroke-linejoin="round"/>
<path d="M43.9001 18.3597C44.8832 18.3597 45.6802 17.5628 45.6802 16.5797C45.6802 15.5966 44.8832 14.7998 43.9001 14.7998C42.9171 14.7998 42.1201 15.5966 42.1201 16.5797C42.1201 17.5628 42.9171 18.3597 43.9001 18.3597Z" fill="#404366"/>
<path d="M52.2898 20.6898C53.2729 20.6898 54.0697 19.893 54.0697 18.9099C54.0697 17.9268 53.2729 17.1299 52.2898 17.1299C51.3067 17.1299 50.5098 17.9268 50.5098 18.9099C50.5098 19.893 51.3067 20.6898 52.2898 20.6898Z" fill="#404366"/>
<path d="M40.9399 21.3701C41.1382 22.5655 41.676 23.6786 42.489 24.577C43.3021 25.4754 44.3562 26.1211 45.5259 26.4373C46.6956 26.7534 47.9315 26.7266 49.0864 26.3601C50.2413 25.9936 51.2666 25.3029 52.04 24.3701C50.0775 24.9178 48.0025 24.9178 46.04 24.3701C44.0929 23.8669 42.3258 22.8275 40.9399 21.3701Z" fill="#404366"/>
<path d="M52.4199 13.2598C53.053 13.5247 53.6247 13.9171 54.0995 14.4126C54.5743 14.9081 54.9422 15.496 55.1799 16.1398" stroke="#404366" stroke-width="0.75" stroke-linecap="round" stroke-linejoin="round"/>
<path d="M46.5001 11.6198C45.8225 11.5128 45.1301 11.5463 44.4661 11.7183C43.802 11.8904 43.1805 12.1973 42.6401 12.6198" stroke="#404366" stroke-width="0.75" stroke-linecap="round" stroke-linejoin="round"/>
</svg>
