<svg width="32" height="46" viewBox="0 0 32 46" fill="none" xmlns="http://www.w3.org/2000/svg">
<path d="M8.52014 45.2L1.14014 37.82V7.87003L8.4801 0.530029L8.52014 45.2Z" stroke="#404366" stroke-width="0.75" stroke-linecap="round" stroke-linejoin="round"/>
<path d="M10.2402 0.530029V45.2" stroke="#404366" stroke-width="0.75" stroke-linecap="round" stroke-linejoin="round"/>
<path d="M10.2402 7.09009H29.6302V40.6501H10.2402" stroke="#404366" stroke-width="0.75" stroke-linecap="round" stroke-linejoin="round"/>
<path d="M31.4302 9.21997V42.54H16.4102" stroke="#404366" stroke-width="0.75" stroke-linecap="round" stroke-linejoin="round"/>
<path d="M25.6403 23.49H10.2402" stroke="#404366" stroke-width="0.75" stroke-linecap="round" stroke-linejoin="round"/>
<path d="M25.6403 27.01H10.2402" stroke="#404366" stroke-width="0.75" stroke-linecap="round" stroke-linejoin="round"/>
<path d="M25.6403 30.52H10.2402" stroke="#404366" stroke-width="0.75" stroke-linecap="round" stroke-linejoin="round"/>
<path d="M25.6403 34.04H10.2402" stroke="#404366" stroke-width="0.75" stroke-linecap="round" stroke-linejoin="round"/>
<path d="M10.2803 20.3099C10.6301 19.7621 10.928 19.183 11.1702 18.5799C11.4884 17.6855 12.0007 16.8728 12.6702 16.1999C13.8202 15.3799 14.4503 17.7799 15.5903 16.5499C15.9003 16.2099 16.1502 15.6599 16.7302 15.7999C17.3102 15.9399 17.5602 16.6399 17.9402 16.9699C18.5502 17.4799 19.3602 17.7999 20.0002 17.1599C20.6402 16.5199 20.7702 15.1599 21.0002 14.2299C21.1902 13.6099 21.3003 12.9399 21.9003 12.6099C22.3103 12.3799 22.7803 12.2699 23.2103 12.0799C23.8103 11.8199 24.2902 11.4399 24.8602 11.1299" stroke="#404366" stroke-width="0.75" stroke-linecap="round" stroke-linejoin="round"/>
<path d="M23.73 10.52L25.32 10.99L24.87 12.54" stroke="#404366" stroke-width="0.75" stroke-linecap="round" stroke-linejoin="round"/>
</svg>
