<svg width="37" height="50" viewBox="0 0 37 50" fill="none" xmlns="http://www.w3.org/2000/svg">
<path d="M7.18019 26L6.69019 25.31C6.16935 24.5841 5.83106 23.7435 5.70399 22.8592C5.57692 21.9749 5.66482 21.0731 5.96021 20.23L7.02021 17.23C7.3186 16.3783 7.4707 15.4823 7.47016 14.58V9.57996C7.5278 7.26615 8.50198 5.06996 10.1784 3.47415C11.8549 1.87835 14.0963 1.01358 16.4102 1.06998V1.06998C18.7223 1.01627 20.9613 1.88224 22.6356 3.47775C24.3098 5.07327 25.2826 7.26792 25.3402 9.57996V13.91C25.3388 15.2387 25.6834 16.5449 26.3402 17.7V17.7C27.0293 18.9437 27.3745 20.3485 27.3402 21.77C27.2835 23.3516 26.6042 24.8468 25.4502 25.93V25.93" stroke="#404366" stroke-width="0.75" stroke-linecap="round" stroke-linejoin="round"/>
<path d="M23.2701 7.86005V13.6901C23.2674 15.5077 22.5435 17.25 21.2573 18.5344C19.9711 19.8187 18.2277 20.5401 16.41 20.5401V20.5401C14.5933 20.5401 12.851 19.8184 11.5664 18.5338C10.2818 17.2491 9.56006 15.5068 9.56006 13.6901V8.87006C11.8009 8.68169 14.0201 8.2901 16.1901 7.70007C18.2358 7.13534 20.1403 6.14734 21.7801 4.80005C22.2441 5.16383 22.6194 5.62833 22.8775 6.15845C23.1356 6.68857 23.2699 7.27042 23.2701 7.86005Z" stroke="#404366" stroke-width="0.75" stroke-linecap="round" stroke-linejoin="round"/>
<path d="M22.7502 3.85986C22.4372 4.19408 22.1032 4.50805 21.7502 4.79987C20.1104 6.14716 18.206 7.13516 16.1602 7.69989C13.9902 8.28991 11.7712 8.68151 9.53027 8.86987L8.53027 8.97989" stroke="#404366" stroke-width="0.75" stroke-linecap="round" stroke-linejoin="round"/>
<path d="M1.12012 46.4801L2.12012 33.9901C2.27326 32.0757 2.9878 30.249 4.17426 28.7388C5.36072 27.2286 6.96634 26.102 8.7901 25.5001C10.1401 25.0501 11.3001 24.6601 11.7301 24.5001C11.9875 24.4048 12.2249 24.2623 12.4301 24.0801C12.7512 23.8053 13.0074 23.4629 13.1803 23.0773C13.3532 22.6917 13.4385 22.2726 13.4301 21.8501V19.8501" stroke="#404366" stroke-width="0.75" stroke-linecap="round" stroke-linejoin="round"/>
<path d="M30.8099 33.9999C30.6614 32.0855 29.9497 30.2578 28.7646 28.7471C27.5795 27.2363 25.9739 26.11 24.1499 25.5099C22.7999 25.0599 21.6399 24.6699 21.2099 24.5099C20.9495 24.4146 20.7088 24.2722 20.4999 24.0899C20.1799 23.8142 19.9244 23.4716 19.7516 23.0862C19.5788 22.7008 19.4929 22.2822 19.4999 21.8599V19.8599" stroke="#404366" stroke-width="0.75" stroke-linecap="round" stroke-linejoin="round"/>
<path d="M13.3799 22.03H19.5199" stroke="#404366" stroke-width="0.75" stroke-linecap="round" stroke-linejoin="round"/>
<path d="M13.8803 13.1C14.1896 13.1 14.4403 12.6836 14.4403 12.17C14.4403 11.6564 14.1896 11.24 13.8803 11.24C13.571 11.24 13.3203 11.6564 13.3203 12.17C13.3203 12.6836 13.571 13.1 13.8803 13.1Z" fill="#404366"/>
<path d="M19.29 13.1C19.5993 13.1 19.85 12.6836 19.85 12.17C19.85 11.6564 19.5993 11.24 19.29 11.24C18.9807 11.24 18.73 11.6564 18.73 12.17C18.73 12.6836 18.9807 13.1 19.29 13.1Z" fill="#404366"/>
<path d="M15.3203 16.26C15.7199 16.432 16.1503 16.5207 16.5853 16.5207C17.0203 16.5207 17.4507 16.432 17.8503 16.26" stroke="#404366" stroke-width="0.75" stroke-linecap="round" stroke-linejoin="round"/>
<path d="M13 9.88C13.3502 9.68716 13.7335 9.56167 14.13 9.51001" stroke="#404366" stroke-width="0.75" stroke-linecap="round" stroke-linejoin="round"/>
<path d="M18.73 9.23013C19.2354 9.20283 19.74 9.29893 20.2 9.51012" stroke="#404366" stroke-width="0.75" stroke-linecap="round" stroke-linejoin="round"/>
<path d="M30.9701 27.3301H13.3901V46.4701H30.9701V27.3301Z" fill="white" stroke="#404366" stroke-width="0.75" stroke-linecap="round" stroke-linejoin="round"/>
<path d="M18.7098 33.25H19.7698L18.6098 38.25H16.7398L15.5898 33.25H16.6498L17.5098 37.35H17.8398L18.7098 33.25Z" fill="#404366"/>
<path d="M24.3001 37.7001C23.8601 38.0937 23.2904 38.3113 22.7001 38.3113C22.1097 38.3113 21.5401 38.0937 21.1001 37.7001C20.7444 37.1185 20.5801 36.44 20.6301 35.7601C20.5734 35.0607 20.7378 34.3611 21.1001 33.7601C21.5314 33.3493 22.1044 33.1201 22.7001 33.1201C23.2958 33.1201 23.8687 33.3493 24.3001 33.7601C24.6582 34.3625 24.8191 35.0618 24.7601 35.7601C24.8131 36.439 24.6522 37.1174 24.3001 37.7001ZM21.8901 37.0501C21.983 37.1762 22.1043 37.2787 22.2441 37.3494C22.3839 37.42 22.5384 37.4568 22.6951 37.4568C22.8518 37.4568 23.0062 37.42 23.146 37.3494C23.2858 37.2787 23.4071 37.1762 23.5001 37.0501C23.6789 36.6449 23.7544 36.2017 23.7201 35.7601C23.7505 35.3123 23.6752 34.8635 23.5001 34.4501C23.4221 34.3104 23.3046 34.1969 23.1622 34.124C23.0198 34.051 22.859 34.0218 22.7001 34.0401C22.5398 34.0224 22.3779 34.0518 22.234 34.1246C22.0902 34.1974 21.9707 34.3105 21.8901 34.4501C21.715 34.8635 21.6396 35.3123 21.6701 35.7601C21.6357 36.2017 21.7113 36.6449 21.8901 37.0501Z" fill="#404366"/>
<path d="M25.6201 34.14V33.25H29.2802V34.14H28.0001V38.23H27.0001V34.14H25.6201Z" fill="#404366"/>
<path d="M33.0803 43.15L30.0803 41.65C29.9306 41.5764 29.7968 41.4741 29.6866 41.3489C29.5764 41.2237 29.492 41.078 29.4381 40.9201C29.3843 40.7622 29.3621 40.5953 29.3727 40.4289C29.3834 40.2624 29.4267 40.0997 29.5003 39.95C29.5738 39.799 29.6765 39.6641 29.8025 39.553C29.9284 39.442 30.0752 39.3571 30.2342 39.3031C30.3933 39.2492 30.5614 39.2273 30.729 39.2388C30.8965 39.2503 31.0601 39.2949 31.2103 39.37L34.2103 40.87C34.3601 40.9434 34.4938 41.0458 34.6037 41.1712C34.7136 41.2967 34.7975 41.4427 34.8505 41.6009C34.9035 41.759 34.9246 41.9261 34.9126 42.0925C34.9005 42.2588 34.8556 42.4211 34.7803 42.57L33.3503 46.07" fill="white"/>
<path d="M33.0803 43.15L30.0803 41.65C29.9306 41.5764 29.7968 41.4741 29.6866 41.3489C29.5764 41.2237 29.492 41.078 29.4381 40.9201C29.3843 40.7622 29.3621 40.5953 29.3727 40.4289C29.3834 40.2624 29.4267 40.0997 29.5003 39.95V39.95C29.5738 39.799 29.6765 39.6641 29.8025 39.553C29.9284 39.442 30.0752 39.3571 30.2342 39.3031C30.3933 39.2492 30.5614 39.2273 30.729 39.2388C30.8965 39.2503 31.0601 39.2949 31.2103 39.37L34.2103 40.87C34.3601 40.9434 34.4938 41.0458 34.6037 41.1712C34.7136 41.2967 34.7975 41.4427 34.8505 41.6009C34.9035 41.759 34.9246 41.9261 34.9126 42.0925C34.9005 42.2588 34.8556 42.4211 34.7803 42.57L33.3503 46.07" stroke="#404366" stroke-width="0.75" stroke-linecap="round" stroke-linejoin="round"/>
<path d="M31.9998 45.44L28.9998 43.94C28.6967 43.7895 28.4656 43.5252 28.3569 43.2047C28.2482 42.8843 28.2708 42.5338 28.4198 42.23C28.5703 41.927 28.8346 41.6958 29.1551 41.5871C29.4755 41.4784 29.826 41.501 30.1298 41.65L33.1298 43.15" fill="white"/>
<path d="M31.9998 45.44L28.9998 43.94C28.6967 43.7895 28.4656 43.5252 28.3569 43.2047C28.2482 42.8843 28.2708 42.5338 28.4198 42.23C28.5703 41.927 28.8346 41.6958 29.1551 41.5871C29.4755 41.4784 29.826 41.501 30.1298 41.65L33.1298 43.15" stroke="#404366" stroke-width="0.75" stroke-linecap="round" stroke-linejoin="round"/>
<path d="M31.3198 47.8901L27.7898 46.2201C27.4867 46.0696 27.2556 45.8053 27.1469 45.4848C27.0382 45.1644 27.0609 44.8139 27.2099 44.5101C27.3621 44.2088 27.6272 43.9798 27.9475 43.8731C28.2677 43.7663 28.6172 43.7904 28.9198 43.9401L31.9198 45.4401" fill="white"/>
<path d="M31.3198 47.8901L27.7898 46.2201C27.4867 46.0696 27.2556 45.8053 27.1469 45.4848C27.0382 45.1644 27.0609 44.8139 27.2099 44.5101V44.5101C27.3621 44.2088 27.6272 43.9798 27.9475 43.8731C28.2677 43.7663 28.6172 43.7904 28.9198 43.9401L31.9198 45.4401" stroke="#404366" stroke-width="0.75" stroke-linecap="round" stroke-linejoin="round"/>
<path d="M31.3199 47.89C32.2368 48.1595 33.2198 48.0918 34.0911 47.6993C34.9624 47.3068 35.6644 46.6153 36.0699 45.75C36.3267 45.0764 36.4398 44.3566 36.4019 43.6367C36.364 42.9169 36.176 42.2129 35.8499 41.57C35.1529 40.2662 34.3254 39.0365 33.3799 37.9C32.3799 36.48 30.96 33.59 30.96 31.72" stroke="#404366" stroke-width="0.75" stroke-linecap="round" stroke-linejoin="round"/>
<path d="M33.3501 40.4399L33.8501 39.9199" stroke="#404366" stroke-width="0.75" stroke-linecap="round" stroke-linejoin="round"/>
<path d="M10.23 48.8801C13.2124 48.8801 15.6301 46.4624 15.6301 43.4801C15.6301 40.4978 13.2124 38.0801 10.23 38.0801C7.2477 38.0801 4.83008 40.4978 4.83008 43.4801C4.83008 46.4624 7.2477 48.8801 10.23 48.8801Z" fill="white" stroke="#404366" stroke-width="0.75" stroke-linecap="round" stroke-linejoin="round"/>
<path d="M7.28027 43.6799C8.25699 44.2414 9.08371 45.0305 9.69025 45.9799C9.69025 45.9799 12.6903 41.0899 15.8203 39.6299" fill="white"/>
<path d="M7.28027 43.6799C8.25699 44.2414 9.08371 45.0305 9.69025 45.9799C9.69025 45.9799 12.6903 41.0899 15.8203 39.6299" stroke="#404366" stroke-width="0.75" stroke-linecap="round" stroke-linejoin="round"/>
</svg>
