<svg width="74" height="59" viewBox="0 0 74 59" fill="none" xmlns="http://www.w3.org/2000/svg">
<path d="M1.31006 57.71H73.14" stroke="#404366" stroke-width="0.75" stroke-linecap="round" stroke-linejoin="round"/>
<path d="M8 57.3V54.98H66.45V57.3" stroke="#404366" stroke-width="0.75" stroke-linecap="round" stroke-linejoin="round"/>
<path d="M10.8101 54.9801V52.6602H63.65V54.9801" stroke="#404366" stroke-width="0.75" stroke-linecap="round" stroke-linejoin="round"/>
<path d="M15.2803 52.6598V25.2197" stroke="#404366" stroke-width="0.75" stroke-linecap="round" stroke-linejoin="round"/>
<path d="M19.6602 52.6598V25.2197" stroke="#404366" stroke-width="0.75" stroke-linecap="round" stroke-linejoin="round"/>
<path d="M27.9902 52.6598V25.2197" stroke="#404366" stroke-width="0.75" stroke-linecap="round" stroke-linejoin="round"/>
<path d="M32.3701 52.6598V25.2197" stroke="#404366" stroke-width="0.75" stroke-linecap="round" stroke-linejoin="round"/>
<path d="M40.6899 52.6598V25.2197" stroke="#404366" stroke-width="0.75" stroke-linecap="round" stroke-linejoin="round"/>
<path d="M45.0801 52.6598V25.2197" stroke="#404366" stroke-width="0.75" stroke-linecap="round" stroke-linejoin="round"/>
<path d="M53.3999 52.6598V25.2197" stroke="#404366" stroke-width="0.75" stroke-linecap="round" stroke-linejoin="round"/>
<path d="M57.7803 52.6598V25.2197" stroke="#404366" stroke-width="0.75" stroke-linecap="round" stroke-linejoin="round"/>
<path d="M20.36 23.3799H14.48V25.2198H20.36V23.3799Z" stroke="#404366" stroke-width="0.75" stroke-linecap="round" stroke-linejoin="round"/>
<path d="M33.1202 23.3799H27.2402V25.2198H33.1202V23.3799Z" stroke="#404366" stroke-width="0.75" stroke-linecap="round" stroke-linejoin="round"/>
<path d="M45.7701 23.3799H39.8901V25.2198H45.7701V23.3799Z" stroke="#404366" stroke-width="0.75" stroke-linecap="round" stroke-linejoin="round"/>
<path d="M58.5299 23.3799H52.6499V25.2198H58.5299V23.3799Z" stroke="#404366" stroke-width="0.75" stroke-linecap="round" stroke-linejoin="round"/>
<path d="M60.3298 20.3901H12.8398V23.3801H60.3298V20.3901Z" stroke="#404366" stroke-width="0.75" stroke-linecap="round" stroke-linejoin="round"/>
<path d="M15.2803 20.3898V17.3998H22.4003V14.0098H29.2803V9.56982H37.7502" stroke="#404366" stroke-width="0.75" stroke-linecap="round" stroke-linejoin="round"/>
<path d="M58.53 20.3898V17.3998H51.4V14.0098H44.53V9.56982H36.0601" stroke="#404366" stroke-width="0.75" stroke-linecap="round" stroke-linejoin="round"/>
<path d="M37.23 9.57025V1.28027" stroke="#404366" stroke-width="0.75" stroke-linecap="round" stroke-linejoin="round"/>
<path d="M37.23 1.28027H45.96V7.68024H37.23" stroke="#404366" stroke-width="0.75" stroke-linecap="round" stroke-linejoin="round"/>
<path d="M40.2803 1.4502V7.41016" stroke="#404366" stroke-width="0.75" stroke-linecap="round" stroke-linejoin="round"/>
<path d="M43.04 1.4502V7.41016" stroke="#404366" stroke-width="0.75" stroke-linecap="round" stroke-linejoin="round"/>
<path d="M37.23 18.4697C39.1519 18.4697 40.71 16.9117 40.71 14.9897C40.71 13.0678 39.1519 11.5098 37.23 11.5098C35.308 11.5098 33.75 13.0678 33.75 14.9897C33.75 16.9117 35.308 18.4697 37.23 18.4697Z" stroke="#404366" stroke-width="0.75" stroke-linecap="round" stroke-linejoin="round"/>
<path d="M35.7803 13.77L37.1803 15.28L39.7202 14.14" stroke="#404366" stroke-width="0.75" stroke-linecap="round" stroke-linejoin="round"/>
<path d="M37.9203 28.8599H35.2402V35.9899H37.9203V28.8599Z" stroke="#404366" stroke-width="0.64" stroke-linecap="round" stroke-linejoin="round"/>
<path d="M37.9203 38.3301H35.2402V45.4601H37.9203V38.3301Z" stroke="#404366" stroke-width="0.64" stroke-linecap="round" stroke-linejoin="round"/>
<path d="M25.3998 28.8599H22.7197V35.9899H25.3998V28.8599Z" stroke="#404366" stroke-width="0.64" stroke-linecap="round" stroke-linejoin="round"/>
<path d="M50.7297 28.8599H48.0498V35.9899H50.7297V28.8599Z" stroke="#404366" stroke-width="0.64" stroke-linecap="round" stroke-linejoin="round"/>
<path d="M25.3998 38.3301H22.7197V45.4601H25.3998V38.3301Z" stroke="#404366" stroke-width="0.64" stroke-linecap="round" stroke-linejoin="round"/>
<path d="M50.9301 38.3301H47.29V45.4601H50.9301V38.3301Z" stroke="#404366" stroke-width="0.75" stroke-linecap="round" stroke-linejoin="round"/>
<path d="M41.25 43.7998C41.9313 45.0875 42.6893 46.333 43.52 47.5298C44.2 48.5298 45.11 49.5298 46.28 49.5298C46.5459 49.5001 46.8141 49.5001 47.08 49.5298C47.34 49.5898 47.59 49.8297 47.53 50.0897C47.4717 50.2336 47.383 50.3632 47.27 50.4697C47.1346 50.6603 47.0553 50.885 47.0411 51.1183C47.027 51.3516 47.0785 51.5843 47.1899 51.7898C47.4178 52.1967 47.7676 52.5219 48.1899 52.7197C50.3899 53.8197 53.13 52.3797 55.5 53.0697C56.2704 53.4142 57.0704 53.6887 57.89 53.8898C58.8769 53.9166 59.8433 53.6062 60.63 53.0098C61.3975 52.4037 62.2135 51.8618 63.0699 51.3898C63.4978 51.1511 63.9777 51.0208 64.4675 51.0104C64.9574 50.9999 65.4423 51.1095 65.88 51.3297C66.24 51.5397 66.52 51.8598 66.88 52.0498C67.053 52.1601 67.2577 52.2101 67.462 52.192C67.6664 52.1739 67.8591 52.0887 68.01 51.9497C68.1445 51.7557 68.2176 51.5258 68.22 51.2898C68.1948 50.215 68.472 49.1547 69.02 48.2297C69.2322 48.0019 69.4016 47.7376 69.52 47.4497C69.5778 47.15 69.5257 46.8395 69.3733 46.5751C69.2209 46.3106 68.9782 46.11 68.6899 46.0098C67.6899 45.6198 66.91 46.3098 65.95 46.2498C65.4281 46.15 64.9522 45.8853 64.5922 45.4946C64.2321 45.104 64.0069 44.6079 63.95 44.0797C63.74 43.0797 63.88 41.9598 63.66 40.9298C63.2633 39.4798 62.4287 38.1876 61.27 37.2297C60.39 36.4097 59.39 35.1298 58.1 35.0098C57.4111 35.0761 56.7365 35.2481 56.1 35.5198C55.4145 35.673 54.7092 35.7169 54.01 35.6498C52.71 35.5298 51.07 35.0198 49.87 35.7598C48.528 36.7535 47.3676 37.9713 46.4399 39.3597C45.7883 40.3317 45.0413 41.2362 44.21 42.0598C43.4224 42.7534 42.4734 43.2381 41.45 43.4697C41.4 43.4197 41.36 43.7198 41.25 43.7998Z" fill="white" stroke="#404366" stroke-width="0.75" stroke-linecap="round" stroke-linejoin="round"/>
</svg>
