<svg width="54" height="54" viewBox="0 0 54 54" fill="none" xmlns="http://www.w3.org/2000/svg">
<path d="M45.8002 50.8501H6.16016L9.69006 0.430176H49.3301L45.8002 50.8501Z" stroke="#404366" stroke-width="0.63" stroke-linecap="round" stroke-linejoin="round"/>
<path d="M35.89 11.9701H12.48L12.9 5.87012H36.3199L35.89 11.9701Z" fill="white" stroke="#404366" stroke-width="0.63" stroke-linecap="round" stroke-linejoin="round"/>
<path d="M44.7098 11.9701H38.6099L39.0399 5.87012H45.1399L44.7098 11.9701Z" fill="white" stroke="#404366" stroke-width="0.63" stroke-linecap="round" stroke-linejoin="round"/>
<path d="M12.23 15.46H22.6899" stroke="#404366" stroke-width="0.63" stroke-linecap="round" stroke-linejoin="round"/>
<path d="M11.9502 19.48H22.4103" stroke="#404366" stroke-width="0.63" stroke-linecap="round" stroke-linejoin="round"/>
<path d="M11.6699 23.5098H22.1199" stroke="#404366" stroke-width="0.63" stroke-linecap="round" stroke-linejoin="round"/>
<path d="M25.1899 15.46H35.65" stroke="#404366" stroke-width="0.63" stroke-linecap="round" stroke-linejoin="round"/>
<path d="M24.9102 19.48H35.3701" stroke="#404366" stroke-width="0.63" stroke-linecap="round" stroke-linejoin="round"/>
<path d="M24.6299 23.5098H35.0798" stroke="#404366" stroke-width="0.63" stroke-linecap="round" stroke-linejoin="round"/>
<path d="M38.3701 15.46H44.4701" stroke="#404366" stroke-width="0.63" stroke-linecap="round" stroke-linejoin="round"/>
<path d="M38.0898 19.48H44.1898" stroke="#404366" stroke-width="0.63" stroke-linecap="round" stroke-linejoin="round"/>
<path d="M37.8101 23.5098H43.9" stroke="#404366" stroke-width="0.63" stroke-linecap="round" stroke-linejoin="round"/>
<path d="M50.1799 3.1499H53.0099L49.3298 53.4598H11.6699" stroke="#404366" stroke-width="0.63" stroke-linecap="round" stroke-linejoin="round"/>
<path d="M30.5802 23.5898H1.99023C1.13972 23.5898 0.450195 24.2794 0.450195 25.1299V43.1199C0.450195 43.9704 1.13972 44.6599 1.99023 44.6599H30.5802C31.4307 44.6599 32.1202 43.9704 32.1202 43.1199V25.1299C32.1202 24.2794 31.4307 23.5898 30.5802 23.5898Z" fill="white" stroke="#404366" stroke-width="0.63" stroke-linecap="round" stroke-linejoin="round"/>
<path d="M24.8599 23.5898V44.6499" stroke="#404366" stroke-width="0.63" stroke-linecap="round" stroke-linejoin="round"/>
<path d="M10.8901 20.4102H5.91016V23.5901H10.8901V20.4102Z" fill="white" stroke="#404366" stroke-width="0.63" stroke-linecap="round" stroke-linejoin="round"/>
<path d="M9.57996 21.7002H7.22998V23.5902H9.57996V21.7002Z" fill="#404366"/>
<path d="M21.5399 21.9697H18.0898V23.5797H21.5399V21.9697Z" fill="white" stroke="#404366" stroke-width="0.63" stroke-linecap="round" stroke-linejoin="round"/>
<path d="M26.66 21.9697H23.21V23.5797H26.66V21.9697Z" fill="white" stroke="#404366" stroke-width="0.63" stroke-linecap="round" stroke-linejoin="round"/>
<path d="M45.8002 50.8501H6.16016L9.69006 0.430176H49.3301L45.8002 50.8501Z" stroke="#404366" stroke-width="0.63" stroke-linecap="round" stroke-linejoin="round"/>
<path d="M35.89 11.9701H12.48L12.9 5.87012H36.3199L35.89 11.9701Z" fill="white" stroke="#404366" stroke-width="0.63" stroke-linecap="round" stroke-linejoin="round"/>
<path d="M44.7098 11.9701H38.6099L39.0399 5.87012H45.1399L44.7098 11.9701Z" fill="white" stroke="#404366" stroke-width="0.63" stroke-linecap="round" stroke-linejoin="round"/>
<path d="M12.23 15.46H22.6899" stroke="#404366" stroke-width="0.63" stroke-linecap="round" stroke-linejoin="round"/>
<path d="M11.9502 19.48H22.4103" stroke="#404366" stroke-width="0.63" stroke-linecap="round" stroke-linejoin="round"/>
<path d="M11.6699 23.5098H22.1199" stroke="#404366" stroke-width="0.63" stroke-linecap="round" stroke-linejoin="round"/>
<path d="M25.1899 15.46H35.65" stroke="#404366" stroke-width="0.63" stroke-linecap="round" stroke-linejoin="round"/>
<path d="M24.9102 19.48H35.3701" stroke="#404366" stroke-width="0.63" stroke-linecap="round" stroke-linejoin="round"/>
<path d="M24.6299 23.5098H35.0798" stroke="#404366" stroke-width="0.63" stroke-linecap="round" stroke-linejoin="round"/>
<path d="M38.3701 15.46H44.4701" stroke="#404366" stroke-width="0.63" stroke-linecap="round" stroke-linejoin="round"/>
<path d="M38.0898 19.48H44.1898" stroke="#404366" stroke-width="0.63" stroke-linecap="round" stroke-linejoin="round"/>
<path d="M37.8101 23.5098H43.9" stroke="#404366" stroke-width="0.63" stroke-linecap="round" stroke-linejoin="round"/>
<path d="M50.1799 3.1499H53.0099L49.3298 53.4598H11.6699" stroke="#404366" stroke-width="0.63" stroke-linecap="round" stroke-linejoin="round"/>
<path d="M30.5802 23.5898H1.99023C1.13972 23.5898 0.450195 24.2794 0.450195 25.1299V43.1199C0.450195 43.9704 1.13972 44.6599 1.99023 44.6599H30.5802C31.4307 44.6599 32.1202 43.9704 32.1202 43.1199V25.1299C32.1202 24.2794 31.4307 23.5898 30.5802 23.5898Z" fill="white" stroke="#404366" stroke-width="0.63" stroke-linecap="round" stroke-linejoin="round"/>
<path d="M24.8599 23.5898V44.6499" stroke="#404366" stroke-width="0.63" stroke-linecap="round" stroke-linejoin="round"/>
<path d="M10.8901 20.4102H5.91016V23.5901H10.8901V20.4102Z" fill="white" stroke="#404366" stroke-width="0.63" stroke-linecap="round" stroke-linejoin="round"/>
<path d="M9.57996 21.7002H7.22998V23.5902H9.57996V21.7002Z" fill="#404366"/>
<path d="M21.5399 21.9697H18.0898V23.5797H21.5399V21.9697Z" fill="white" stroke="#404366" stroke-width="0.63" stroke-linecap="round" stroke-linejoin="round"/>
<path d="M26.66 21.9697H23.21V23.5797H26.66V21.9697Z" fill="white" stroke="#404366" stroke-width="0.63" stroke-linecap="round" stroke-linejoin="round"/>
</svg>
