<svg width="71" height="49" viewBox="0 0 71 49" fill="none" xmlns="http://www.w3.org/2000/svg">
<path d="M41.6 30.77H15.04V48.39H41.6V30.77Z" fill="white" stroke="#404366" stroke-width="0.81" stroke-miterlimit="10"/>
<path d="M15.04 35.6699H41.61" stroke="#404366" stroke-width="0.81" stroke-miterlimit="10"/>
<path d="M24.19 44.6298C23.6399 45.1217 22.9279 45.3937 22.19 45.3937C21.452 45.3937 20.74 45.1217 20.19 44.6298C19.7493 43.9032 19.5466 43.0572 19.61 42.2098C19.5516 41.3565 19.7538 40.5055 20.19 39.7698C20.7292 39.2562 21.4453 38.9697 22.19 38.9697C22.9346 38.9697 23.6507 39.2562 24.19 39.7698C24.6261 40.5055 24.8284 41.3565 24.77 42.2098C24.8334 43.0572 24.6306 43.9032 24.19 44.6298ZM21.19 43.8298C21.312 43.9766 21.4649 44.0948 21.6377 44.1759C21.8105 44.257 21.999 44.2991 22.19 44.2991C22.3809 44.2991 22.5695 44.257 22.7423 44.1759C22.9152 44.0948 23.068 43.9766 23.19 43.8298C23.4052 43.3218 23.4978 42.7702 23.46 42.2197C23.4962 41.6596 23.4039 41.0987 23.19 40.5798C23.0748 40.4227 22.9242 40.295 22.7505 40.2069C22.5768 40.1189 22.3847 40.073 22.19 40.073C21.9952 40.073 21.8033 40.1189 21.6295 40.2069C21.4558 40.295 21.3051 40.4227 21.19 40.5798C20.9761 41.0987 20.8838 41.6596 20.9201 42.2197C20.8791 42.7694 20.9682 43.321 21.1801 43.8298H21.19Z" fill="#404366"/>
<path d="M26.0801 45.29V39.0801H28.2101L29.7101 44.2001H29.8002V39.0801H31.0602V45.29H29.0001L27.4501 40.17H27.3601V45.29H26.0801Z" fill="#404366"/>
<path d="M35.2299 43.0598V41.9998H36.9999V45.2198C36.2996 45.3435 35.5909 45.4137 34.8799 45.4298C34.5091 45.4734 34.1331 45.4261 33.7847 45.292C33.4362 45.1578 33.1257 44.9408 32.8799 44.6598C32.4627 43.9068 32.2749 43.0482 32.3399 42.1898C32.2662 41.3379 32.4622 40.4844 32.8999 39.7498C33.1391 39.4807 33.4389 39.2724 33.7744 39.142C34.11 39.0116 34.4717 38.9628 34.8299 38.9998C35.4479 39.0032 36.0642 39.0668 36.6699 39.1898L36.9999 39.2498V40.2498C36.4024 40.1783 35.8015 40.1382 35.1998 40.1298C34.8576 40.1035 34.5142 40.1619 34.1998 40.2998C34.0951 40.3676 34.005 40.4556 33.9346 40.5586C33.8642 40.6616 33.815 40.7776 33.7899 40.8998C33.6775 41.3983 33.6305 41.9092 33.6499 42.4198C33.6075 42.938 33.7006 43.4584 33.9199 43.9298C34.0513 44.0895 34.2213 44.2129 34.4138 44.2881C34.6064 44.3634 34.8151 44.3881 35.0199 44.3598H35.7699V43.1498L35.2299 43.0598Z" fill="#404366"/>
<path d="M69.9501 30.77H43.3901V48.39H69.9501V30.77Z" fill="white" stroke="#404366" stroke-width="0.81" stroke-miterlimit="10"/>
<path d="M43.3901 35.6699H69.9501" stroke="#404366" stroke-width="0.81" stroke-miterlimit="10"/>
<path d="M52.54 44.6298C51.99 45.1217 51.2779 45.3937 50.54 45.3937C49.8021 45.3937 49.09 45.1217 48.54 44.6298C48.0943 43.9053 47.891 43.0576 47.9599 42.2098C47.8963 41.356 48.099 40.5036 48.54 39.7698C49.0792 39.2562 49.7953 38.9697 50.54 38.9697C51.2846 38.9697 52.0008 39.2562 52.54 39.7698C52.9761 40.5055 53.1784 41.3565 53.12 42.2098C53.1833 43.0572 52.9806 43.9032 52.54 44.6298ZM49.54 43.8298C49.662 43.9766 49.8148 44.0948 49.9876 44.1759C50.1605 44.257 50.3491 44.2991 50.54 44.2991C50.7309 44.2991 50.9194 44.257 51.0922 44.1759C51.2651 44.0948 51.418 43.9766 51.54 43.8298C51.9066 42.7774 51.9066 41.6321 51.54 40.5798C51.4449 40.4026 51.2986 40.2582 51.1202 40.1655C50.9418 40.0727 50.7396 40.0358 50.54 40.0598C50.3404 40.0358 50.1381 40.0727 49.9597 40.1655C49.7813 40.2582 49.6351 40.4026 49.54 40.5798C49.3261 41.0987 49.2337 41.6596 49.27 42.2197C49.229 42.7694 49.3181 43.321 49.53 43.8298H49.54Z" fill="#404366"/>
<path d="M54.4302 45.29V39.0801H56.5602L58.0502 44.2001H58.1501V39.0801H59.4102V45.29H57.3301L55.7802 40.17H55.6901V45.29H54.4302Z" fill="#404366"/>
<path d="M63.58 43.0598V41.9998H65.39V45.2198C64.6897 45.3435 63.981 45.4137 63.27 45.4298C62.8992 45.4734 62.5233 45.4261 62.1748 45.292C61.8264 45.1578 61.5158 44.9408 61.27 44.6598C60.8488 43.9081 60.6575 43.0492 60.72 42.1898C60.6493 41.3368 60.8488 40.4832 61.29 39.7498C61.5292 39.4807 61.829 39.2724 62.1646 39.142C62.5001 39.0116 62.8618 38.9628 63.22 38.9998C63.838 39.0032 64.4544 39.0668 65.0601 39.1898L65.39 39.2498V40.2498C64.7925 40.1783 64.1917 40.1382 63.59 40.1298C63.2477 40.1035 62.9043 40.1619 62.59 40.2998C62.4852 40.3676 62.3951 40.4556 62.3247 40.5586C62.2543 40.6616 62.2052 40.7776 62.1801 40.8998C62.0677 41.3983 62.0206 41.9092 62.04 42.4198C61.9977 42.938 62.0907 43.4584 62.3101 43.9298C62.4408 44.0902 62.6107 44.2141 62.8035 44.2895C62.9962 44.3648 63.2052 44.3891 63.41 44.3598H64.16V43.1498L63.58 43.0598Z" fill="#404366"/>
<path d="M7.29004 31.79H11.16" stroke="#404366" stroke-width="0.81" stroke-linecap="round" stroke-linejoin="round"/>
<path d="M10.6699 33.0498H12.6099" stroke="#404366" stroke-width="0.81" stroke-linecap="round" stroke-linejoin="round"/>
<path d="M3.81006 33.0498H7.68005" stroke="#404366" stroke-width="0.81" stroke-linecap="round" stroke-linejoin="round"/>
<path d="M21.6299 31.79H25.4999" stroke="#404366" stroke-width="0.81" stroke-linecap="round" stroke-linejoin="round"/>
<path d="M35.75 31.79H39.62" stroke="#404366" stroke-width="0.81" stroke-linecap="round" stroke-linejoin="round"/>
<path d="M20.0801 33.0498H22.0101" stroke="#404366" stroke-width="0.81" stroke-linecap="round" stroke-linejoin="round"/>
<path d="M39.1299 33.0498H41.0698" stroke="#404366" stroke-width="0.81" stroke-linecap="round" stroke-linejoin="round"/>
<path d="M32.27 33.0498H36.13" stroke="#404366" stroke-width="0.81" stroke-linecap="round" stroke-linejoin="round"/>
<path d="M27.37 15.4302H0.810059V33.0502H27.37V15.4302Z" fill="white" stroke="#404366" stroke-width="0.81" stroke-miterlimit="10"/>
<path d="M0.810059 20.3301H27.38" stroke="#404366" stroke-width="0.81" stroke-miterlimit="10"/>
<path d="M10.0001 29.2899C9.45007 29.7818 8.73803 30.0538 8.00009 30.0538C7.26216 30.0538 6.55012 29.7818 6.00009 29.2899C5.56071 28.5628 5.35808 27.7171 5.42014 26.8699C5.36045 26.0165 5.56277 25.1652 6.00009 24.4299C6.53932 23.9163 7.25544 23.6299 8.00009 23.6299C8.74474 23.6299 9.46086 23.9163 10.0001 24.4299C10.4374 25.1652 10.6397 26.0165 10.58 26.8699C10.6421 27.7171 10.4395 28.5628 10.0001 29.2899ZM7.00009 28.4799C7.12209 28.6267 7.27489 28.7449 7.44772 28.826C7.62056 28.9072 7.80917 28.9492 8.00009 28.9492C8.19101 28.9492 8.37963 28.9072 8.55246 28.826C8.72529 28.7449 8.8781 28.6267 9.00009 28.4799C9.21565 27.9755 9.30821 27.4271 9.27011 26.8799C9.30509 26.3166 9.21279 25.7526 9.00009 25.2299C8.88245 25.0764 8.73112 24.9521 8.55771 24.8665C8.3843 24.7809 8.19347 24.7365 8.00009 24.7365C7.80672 24.7365 7.61589 24.7809 7.44248 24.8665C7.26907 24.9521 7.11774 25.0764 7.00009 25.2299C6.7874 25.7526 6.6951 26.3166 6.73007 26.8799C6.69198 27.4271 6.78454 27.9755 7.00009 28.4799Z" fill="#404366"/>
<path d="M11.8501 30.0002V23.7803H14.0001L15.5001 28.9003H15.5901V23.7803H16.8501V30.0002H14.7701L13.2201 24.8802H13.1301V30.0002H11.8501Z" fill="#404366"/>
<path d="M20.9997 27.7201V26.6201H22.8098V29.8501C22.1095 29.9738 21.4006 30.0441 20.6896 30.0601C20.3178 30.1052 19.9406 30.0576 19.5916 29.9215C19.2427 29.7854 18.9328 29.5651 18.6896 29.2801C18.2721 28.5309 18.0844 27.6753 18.1497 26.8201C18.0767 25.9651 18.2724 25.1085 18.7097 24.3701C18.9513 24.1047 19.2517 23.8996 19.5869 23.7711C19.922 23.6426 20.2826 23.5943 20.6397 23.6301C21.2578 23.6335 21.874 23.6971 22.4797 23.8201L22.8098 23.8801V24.8801C22.2123 24.8086 21.6114 24.7685 21.0097 24.7601C20.6675 24.7338 20.324 24.7922 20.0097 24.9301C19.9042 24.997 19.8135 25.0848 19.743 25.1879C19.6725 25.2911 19.6237 25.4075 19.5997 25.5301C19.4867 26.0285 19.4396 26.5395 19.4597 27.0501C19.419 27.565 19.5121 28.0817 19.7297 28.5501C19.8598 28.7113 20.0297 28.8358 20.2226 28.9112C20.4155 28.9866 20.6247 29.0104 20.8297 28.9801H21.5797V27.7701L20.9997 27.7201Z" fill="#404366"/>
<path d="M50.1802 31.79H54.0502" stroke="#404366" stroke-width="0.81" stroke-linecap="round" stroke-linejoin="round"/>
<path d="M55.83 15.4302H29.27V33.0502H55.83V15.4302Z" fill="white" stroke="#404366" stroke-width="0.81" stroke-miterlimit="10"/>
<path d="M29.27 20.3301H55.83" stroke="#404366" stroke-width="0.81" stroke-miterlimit="10"/>
<path d="M38.4199 29.2899C37.8699 29.7818 37.1578 30.0538 36.4199 30.0538C35.6819 30.0538 34.9699 29.7818 34.4199 29.2899C33.9742 28.5654 33.7709 27.7177 33.8398 26.8699C33.7749 26.016 33.9777 25.1632 34.4199 24.4299C34.9591 23.9163 35.6752 23.6299 36.4199 23.6299C37.1645 23.6299 37.8806 23.9163 38.4199 24.4299C38.8572 25.1652 39.0595 26.0165 38.9998 26.8699C39.0619 27.7171 38.8593 28.5628 38.4199 29.2899ZM35.4199 28.4799C35.5419 28.6267 35.6947 28.7449 35.8675 28.826C36.0403 28.9072 36.229 28.9492 36.4199 28.9492C36.6108 28.9492 36.7993 28.9072 36.9721 28.826C37.145 28.7449 37.2979 28.6267 37.4199 28.4799C37.6354 27.9755 37.7279 27.4271 37.6898 26.8799C37.7248 26.3166 37.6326 25.7526 37.4199 25.2299C37.3022 25.0764 37.1508 24.9521 36.9774 24.8665C36.804 24.7809 36.6133 24.7365 36.4199 24.7365C36.2265 24.7365 36.0357 24.7809 35.8623 24.8665C35.6889 24.9521 35.5375 25.0764 35.4199 25.2299C35.2072 25.7526 35.1149 26.3166 35.1499 26.8799C35.1086 27.4263 35.1977 27.9746 35.4099 28.4799H35.4199Z" fill="#404366"/>
<path d="M40.3101 30.0002V23.7803H42.4399L43.9399 28.9003H44.03V23.7803H45.29V30.0002H43.21L41.66 24.8802H41.5699V30.0002H40.3101Z" fill="#404366"/>
<path d="M49.4599 27.7201V26.6201H51.2699V29.8501C50.5696 29.9738 49.8609 30.0441 49.1499 30.0601C48.7781 30.1052 48.4009 30.0576 48.0519 29.9215C47.7029 29.7854 47.3931 29.5651 47.1499 29.2801C46.7284 28.5322 46.537 27.6764 46.5999 26.8201C46.5292 25.964 46.7286 25.1071 47.17 24.3701C47.4116 24.1047 47.712 23.8996 48.0472 23.7711C48.3823 23.6426 48.7428 23.5943 49.0999 23.6301C49.7179 23.6335 50.3342 23.6971 50.9399 23.8201L51.2699 23.8801V24.8801C50.6725 24.8086 50.0716 24.7685 49.4699 24.7601C49.1276 24.7338 48.7842 24.7922 48.4699 24.9301C48.3644 24.997 48.2736 25.0848 48.2032 25.1879C48.1327 25.2911 48.084 25.4075 48.06 25.5301C47.947 26.0285 47.8999 26.5395 47.92 27.0501C47.8793 27.565 47.9722 28.0817 48.1899 28.5501C48.3599 28.8401 48.73 28.9801 49.29 28.9801H50.04V27.7701L49.4599 27.7201Z" fill="#404366"/>
<path d="M41.6 0.439941H15.04V18.0599H41.6V0.439941Z" fill="white" stroke="#404366" stroke-width="0.81" stroke-miterlimit="10"/>
<path d="M15.04 5.33984H41.61" stroke="#404366" stroke-width="0.81" stroke-miterlimit="10"/>
<path d="M24.19 14.3001C23.64 14.7921 22.928 15.064 22.19 15.064C21.4521 15.064 20.7401 14.7921 20.19 14.3001C19.7507 13.573 19.548 12.7274 19.6101 11.8801C19.5504 11.0267 19.7527 10.1754 20.19 9.44012C20.7293 8.92657 21.4454 8.64014 22.19 8.64014C22.9347 8.64014 23.6508 8.92657 24.19 9.44012C24.6274 10.1754 24.8298 11.0267 24.7701 11.8801C24.8322 12.7274 24.6294 13.573 24.19 14.3001ZM21.19 13.4901C21.312 13.637 21.465 13.7552 21.6378 13.8363C21.8106 13.9174 21.9991 13.9595 22.19 13.9595C22.381 13.9595 22.5696 13.9174 22.7424 13.8363C22.9152 13.7552 23.068 13.637 23.19 13.4901C23.4056 12.9857 23.4982 12.4373 23.4601 11.8901C23.495 11.3268 23.4027 10.7629 23.19 10.2401C23.0724 10.0866 22.9211 9.96234 22.7477 9.87677C22.5742 9.7912 22.3834 9.74664 22.19 9.74664C21.9967 9.74664 21.8059 9.7912 21.6325 9.87677C21.4591 9.96234 21.3077 10.0866 21.19 10.2401C20.9773 10.7629 20.8852 11.3268 20.9201 11.8901C20.8789 12.4365 20.968 12.9849 21.1801 13.4901H21.19Z" fill="#404366"/>
<path d="M26.0801 15.0002V8.78027H28.2101L29.7101 13.9003H29.8002V8.78027H31.0602V15.0002H29.0001L27.4501 9.88025H27.3601V15.0002H26.0801Z" fill="#404366"/>
<path d="M35.2302 12.7299V11.6299H37.0002V14.8599C36.2999 14.9836 35.5912 15.0538 34.8802 15.0699C34.5083 15.115 34.1311 15.0673 33.7822 14.9312C33.4332 14.7951 33.1233 14.5748 32.8802 14.2898C32.4627 13.5406 32.2748 12.6851 32.3401 11.8299C32.2671 10.9748 32.4629 10.1183 32.9002 9.37988C33.1419 9.11449 33.4423 8.90937 33.7774 8.78088C34.1125 8.65238 34.473 8.60409 34.8301 8.63989C35.4482 8.64328 36.0645 8.70691 36.6702 8.82989L37.0002 8.88989V9.88989C36.4027 9.81833 35.8018 9.77828 35.2001 9.76989C34.8579 9.74358 34.5145 9.80195 34.2001 9.93987C34.0946 10.0068 34.0039 10.0945 33.9334 10.1977C33.8629 10.3008 33.8142 10.4172 33.7902 10.5398C33.6773 11.0382 33.6302 11.5493 33.6502 12.0599C33.6096 12.5748 33.7026 13.0914 33.9202 13.5599C34.0503 13.7211 34.2201 13.8455 34.413 13.921C34.6059 13.9964 34.8153 14.0201 35.0202 13.9899H35.7702V12.7799L35.2302 12.7299Z" fill="#404366"/>
</svg>
