<svg width="65" height="49" viewBox="0 0 65 49" fill="none" xmlns="http://www.w3.org/2000/svg">
<path d="M18.6801 16.78C18.6801 13.4276 15.9624 10.71 12.61 10.71C9.25762 10.71 6.54004 13.4276 6.54004 16.78V19.08C6.54004 22.4323 9.25762 25.15 12.61 25.15C15.9624 25.15 18.6801 22.4323 18.6801 19.08V16.78Z" stroke="#404366" stroke-width="0.75" stroke-linecap="round" stroke-linejoin="round"/>
<path d="M10.4401 24.75V26.09C10.4401 26.85 9.87007 27.31 9.07007 27.46L6.6001 27.93C4.0001 28.33 1.6001 30.17 1.6001 32.93V44" stroke="#404366" stroke-width="0.75" stroke-linecap="round" stroke-linejoin="round"/>
<path d="M14.7803 24.75V26.51C14.7803 27.32 16.5902 27.51 17.1102 27.51C18.2008 27.5101 19.2551 27.9019 20.0811 28.6141C20.907 29.3262 21.4496 30.3113 21.6102 31.39L22.1002 34.75" stroke="#404366" stroke-width="0.75" stroke-linecap="round" stroke-linejoin="round"/>
<path d="M18.9199 34.7002L20.2999 47.6702" stroke="#404366" stroke-width="0.75" stroke-linecap="round" stroke-linejoin="round"/>
<path d="M6.79004 34.7002V47.6702" stroke="#404366" stroke-width="0.75" stroke-linecap="round" stroke-linejoin="round"/>
<path d="M20.3 47.6699H6.79004" stroke="#404366" stroke-width="0.75" stroke-linecap="round" stroke-linejoin="round"/>
<path d="M9.87012 27.48C10.629 28.0441 11.5495 28.3488 12.4951 28.3488C13.4407 28.3488 14.3612 28.0441 15.1201 27.48" stroke="#404366" stroke-width="0.75" stroke-linecap="round" stroke-linejoin="round"/>
<path d="M20.6401 38.3799C21.6614 36.1487 22.3939 33.7964 22.8201 31.3799" stroke="#404366" stroke-width="0.75" stroke-linecap="round" stroke-linejoin="round"/>
<path d="M26.8599 32C26.8077 34.2591 26.5938 36.5115 26.2198 38.74C26.0072 40.2919 25.3975 41.7627 24.4498 43.01C23.8767 43.6105 23.1338 44.0215 22.3206 44.1877C21.5073 44.3539 20.6627 44.2675 19.8999 43.94" stroke="#404366" stroke-width="0.75" stroke-linecap="round" stroke-linejoin="round"/>
<path d="M17.3501 13L17.2802 13.19C17.1845 13.473 17.0233 13.7293 16.8094 13.9379C16.5956 14.1465 16.3354 14.3014 16.0502 14.39C15.594 14.5298 15.1064 14.5298 14.6501 14.39L13.5001 14.03C12.7384 13.7938 11.9203 13.8135 11.1709 14.0862C10.4215 14.3589 9.78188 14.8695 9.3501 15.54L6.58008 19.85" stroke="#404366" stroke-width="0.75" stroke-linecap="round" stroke-linejoin="round"/>
<path d="M13.7799 18.7499C14.034 18.7499 14.2399 18.3827 14.2399 17.9299C14.2399 17.477 14.034 17.1099 13.7799 17.1099C13.5259 17.1099 13.3198 17.477 13.3198 17.9299C13.3198 18.3827 13.5259 18.7499 13.7799 18.7499Z" fill="#404366"/>
<path d="M43.77 18.9398C44.0241 18.9398 44.23 18.5727 44.23 18.1198C44.23 17.6669 44.0241 17.2998 43.77 17.2998C43.516 17.2998 43.3101 17.6669 43.3101 18.1198C43.3101 18.5727 43.516 18.9398 43.77 18.9398Z" fill="#404366"/>
<path d="M47.92 18.9398C48.1741 18.9398 48.38 18.5727 48.38 18.1198C48.38 17.6669 48.1741 17.2998 47.92 17.2998C47.666 17.2998 47.46 17.6669 47.46 18.1198C47.46 18.5727 47.666 18.9398 47.92 18.9398Z" fill="#404366"/>
<path d="M17.0402 18.7499C17.2942 18.7499 17.5001 18.3827 17.5001 17.9299C17.5001 17.477 17.2942 17.1099 17.0402 17.1099C16.7861 17.1099 16.5801 17.477 16.5801 17.9299C16.5801 18.3827 16.7861 18.7499 17.0402 18.7499Z" fill="#404366"/>
<path d="M15.4099 20.7002L14.5898 21.3902C14.8898 21.3902 15.1799 21.5002 15.4799 21.5402" stroke="#404366" stroke-width="0.75" stroke-linecap="round" stroke-linejoin="round"/>
<path d="M22.86 31.4502C22.7643 31.4004 22.6801 31.331 22.6129 31.2466C22.5457 31.1622 22.497 31.0646 22.4699 30.9602C22.4345 30.745 22.4345 30.5254 22.4699 30.3102C22.5068 29.6776 22.5938 29.049 22.73 28.4302C22.7473 28.2357 22.8407 28.056 22.99 27.9302C23.0845 27.885 23.1904 27.8695 23.2939 27.8856C23.3974 27.9016 23.4935 27.9485 23.5699 28.0202C23.7173 28.1653 23.8391 28.3344 23.93 28.5202C24.2269 29.0083 24.6098 29.4385 25.06 29.7902" stroke="#404366" stroke-width="0.75" stroke-linecap="round" stroke-linejoin="round"/>
<path d="M24.8501 28.5801C26.1534 28.671 27.3858 29.2077 28.3401 30.1L26.8901 31.9601" stroke="#404366" stroke-width="0.75" stroke-linecap="round" stroke-linejoin="round"/>
<path d="M24.3501 28.8799C24.8249 28.2615 25.4035 27.7303 26.0602 27.3099C26.3304 27.1068 26.6531 26.9854 26.9901 26.9599C27.1568 26.9539 27.3203 27.0066 27.4519 27.109C27.5836 27.2114 27.675 27.3569 27.7101 27.5199" stroke="#404366" stroke-width="0.75" stroke-linecap="round" stroke-linejoin="round"/>
<path d="M26.2998 28.8702C26.7936 28.312 27.3703 27.8331 28.0098 27.4502C28.1533 27.3524 28.3273 27.3098 28.4998 27.3302C28.5719 27.3462 28.6401 27.3766 28.7002 27.4195C28.7603 27.4625 28.8112 27.5171 28.8497 27.5802C28.9311 27.7077 28.9951 27.8456 29.0398 27.9902" stroke="#404366" stroke-width="0.75" stroke-linecap="round" stroke-linejoin="round"/>
<path d="M27.5698 29.2599C27.9251 28.7467 28.3939 28.3224 28.9398 28.0199C29.0695 27.9541 29.2151 27.9263 29.3599 27.9399C29.6299 27.9399 29.7098 28.1299 29.7098 28.3999C29.7098 28.6699 29.3898 28.9099 29.1998 29.1399C28.9417 29.4967 28.654 29.8312 28.3398 30.1399" stroke="#404366" stroke-width="0.75" stroke-linecap="round" stroke-linejoin="round"/>
<path d="M19 35.77C20 35.38 20.93 35.03 21.91 34.77" stroke="#404366" stroke-width="0.75" stroke-linecap="round" stroke-linejoin="round"/>
<path d="M2.83008 35.3701C4.18084 35.5359 5.51771 35.7999 6.83008 36.1601" stroke="#404366" stroke-width="0.75" stroke-linecap="round" stroke-linejoin="round"/>
<path d="M53.7599 19.0702C53.5452 19.4584 53.1858 19.746 52.7599 19.8702C52.5063 19.9444 52.244 19.9847 51.9798 19.9902V21.9902C51.9798 23.051 51.5585 24.0685 50.8083 24.8186C50.0582 25.5687 49.0407 25.9902 47.9798 25.9902H45.9999C44.939 25.9902 43.9216 25.5687 43.1715 24.8186C42.4213 24.0685 41.9999 23.051 41.9999 21.9902V14.6502C41.9896 14.5338 41.9896 14.4166 41.9999 14.3002C44.9673 14.4734 47.9434 14.1798 50.8198 13.4302C51.2481 14.6105 51.6153 15.8121 51.9199 17.0302C51.9199 17.2502 52.0298 17.4702 52.0798 17.6802C52.3205 17.6093 52.5731 17.5877 52.8222 17.6169C53.0714 17.6462 53.3122 17.7255 53.5299 17.8502C53.6916 18.0035 53.8009 18.204 53.8421 18.423C53.8834 18.642 53.8547 18.8685 53.7599 19.0702V19.0702Z" stroke="#404366" stroke-width="0.75" stroke-linecap="round" stroke-linejoin="round"/>
<path d="M42.0001 14.2798L41.1001 14.2197C41.469 13.1945 42.0643 12.2656 42.8417 11.5022C43.619 10.7387 44.5584 10.1602 45.5901 9.80977C47.9077 8.99953 50.4451 9.08875 52.7001 10.0598C55.5501 11.4398 55.7001 14.4998 55.7001 17.2598C55.7001 20.0198 54.4201 22.4498 51.7001 23.2598" stroke="#404366" stroke-width="0.75" stroke-linecap="round" stroke-linejoin="round"/>
<path d="M51.3599 20H51.9299" stroke="#404366" stroke-width="0.75" stroke-linecap="round" stroke-linejoin="round"/>
<path d="M44.5 21.8599C45.3452 21.9993 46.2111 21.9411 47.03 21.6899" stroke="#404366" stroke-width="0.75" stroke-linecap="round" stroke-linejoin="round"/>
<path d="M46.0001 27.4L45.3901 30.5L47.8501 29.65L49.5701 31.65L53.9302 28.39L52.9302 26.52C52.9302 26.52 50.6701 28.74 46.0001 27.4Z" stroke="#404366" stroke-width="0.75" stroke-linecap="round" stroke-linejoin="round"/>
<path d="M45.98 27.3998L47.03 27.6498V25.9697" stroke="#404366" stroke-width="0.75" stroke-linecap="round" stroke-linejoin="round"/>
<path d="M52.3599 26.9603V23.0303" stroke="#404366" stroke-width="0.75" stroke-linecap="round" stroke-linejoin="round"/>
<path d="M53.9102 28.4199C55.7895 28.7779 57.491 29.7653 58.7343 31.2194C59.9775 32.6736 60.6885 34.5077 60.7501 36.4199L61.1901 47.7199" stroke="#404366" stroke-width="0.75" stroke-linecap="round" stroke-linejoin="round"/>
<path d="M45.84 28.4199H44.84C42.9587 28.7759 41.255 29.7624 40.0098 31.2167C38.7645 32.6711 38.0521 34.5063 37.99 36.4199L37.5601 47.7199" stroke="#404366" stroke-width="0.75" stroke-linecap="round" stroke-linejoin="round"/>
<path d="M41.1802 37.23V47.67" stroke="#404366" stroke-width="0.75" stroke-linecap="round" stroke-linejoin="round"/>
<path d="M48.6099 47.6498H34.8799L36.0698 38.2998H49.7899L48.6099 47.6498Z" fill="white" stroke="#404366" stroke-width="0.75" stroke-linecap="round" stroke-linejoin="round"/>
<path d="M54 38.1699C54.2687 38.2654 54.4999 38.444 54.66 38.6799V47.5499" stroke="#404366" stroke-width="0.75" stroke-linecap="round" stroke-linejoin="round"/>
<path d="M27.0001 11.71C28.0734 11.6054 29.0933 11.1915 29.9359 10.5186C30.7786 9.8457 31.4077 8.94269 31.7471 7.91913C32.0864 6.89557 32.1215 5.79548 31.8478 4.75244C31.5741 3.7094 31.0034 2.76827 30.2052 2.04321C29.407 1.31816 28.4155 0.840387 27.3511 0.667908C26.2866 0.495429 25.1949 0.635632 24.2086 1.07153C23.2223 1.50743 22.3836 2.22029 21.7946 3.12354C21.2055 4.02678 20.8913 5.08156 20.8901 6.15991C20.8956 6.95369 21.0779 7.73631 21.4238 8.45074C21.7698 9.16518 22.2708 9.79344 22.8901 10.2899L21.8901 14.2L27.0001 11.71Z" stroke="#404366" stroke-width="0.75" stroke-linecap="round" stroke-linejoin="round"/>
<path d="M35.4 22.9999C34.4958 23.5481 33.4575 23.8354 32.4 23.83C31.4694 23.739 30.5851 23.3798 29.8546 22.796C29.1241 22.2122 28.5787 21.4288 28.2848 20.5411C27.9909 19.6534 27.961 18.6994 28.1988 17.795C28.4365 16.8906 28.9316 16.0747 29.624 15.4462C30.3165 14.8178 31.1765 14.4038 32.0996 14.2547C33.0228 14.1056 33.9695 14.2276 34.8246 14.606C35.6797 14.9844 36.4066 15.6029 36.917 16.3864C37.4274 17.1699 37.6994 18.0848 37.7 19.02C37.7026 19.5996 37.5905 20.1739 37.37 20.71L39.37 22.1099L35.4 22.9999Z" stroke="#404366" stroke-width="0.75" stroke-linecap="round" stroke-linejoin="round"/>
<path d="M0.589844 47.6699H64.2499" stroke="#404366" stroke-width="0.75" stroke-linecap="round" stroke-linejoin="round"/>
<path d="M49.79 38.2998L51.75 47.6498" stroke="#404366" stroke-width="0.75" stroke-linecap="round" stroke-linejoin="round"/>
<path d="M38.4199 41.6802H46.2699" stroke="#404366" stroke-width="0.75" stroke-linecap="round" stroke-linejoin="round"/>
<path d="M38 44.2598H45.84" stroke="#404366" stroke-width="0.75" stroke-linecap="round" stroke-linejoin="round"/>
</svg>
