<svg width="37" height="25" viewBox="0 0 37 25" fill="none" xmlns="http://www.w3.org/2000/svg">
<path d="M25.613 2.66602H8.4043V24.4245H25.613V2.66602Z" stroke="#404366" stroke-width="0.75" stroke-linecap="round" stroke-linejoin="round"/>
<path d="M17.8939 5.63173H19.595V7.40852H17.8939V9.10376H16.1171V7.40852H14.4219V5.63173H16.1171V3.93066H17.8939V5.63173Z" stroke="#404366" stroke-width="0.75" stroke-linecap="round" stroke-linejoin="round"/>
<path d="M21.3547 1H12.6396V2.66611H21.3547V1Z" stroke="#404366" stroke-width="0.75" stroke-linecap="round" stroke-linejoin="round"/>
<path d="M8.40436 13.1582H4.79834V24.419H8.40436V13.1582Z" stroke="#404366" stroke-width="0.75" stroke-linecap="round" stroke-linejoin="round"/>
<path d="M10.9736 10.9092H23.085" stroke="#404366" stroke-width="0.75" stroke-linecap="round" stroke-linejoin="round"/>
<path d="M10.9736 13.4844H23.085" stroke="#404366" stroke-width="0.75" stroke-linecap="round" stroke-linejoin="round"/>
<path d="M10.9736 16.0596H23.085" stroke="#404366" stroke-width="0.75" stroke-linecap="round" stroke-linejoin="round"/>
<path d="M10.9736 18.6396H23.085" stroke="#404366" stroke-width="0.75" stroke-linecap="round" stroke-linejoin="round"/>
<path d="M10.9736 21.2148H23.085" stroke="#404366" stroke-width="0.75" stroke-linecap="round" stroke-linejoin="round"/>
<path d="M17.8709 22.9678H35.1262C35.358 22.9678 35.5802 22.8757 35.7441 22.7118C35.908 22.5479 36 22.3257 36 22.0939V21.5754C36.0015 21.4403 35.9716 21.3067 35.9127 21.1851L32.3125 13.9673C32.239 13.8217 32.1266 13.6994 31.9878 13.614C31.8489 13.5287 31.689 13.4836 31.526 13.4837H19.2923C19.0877 13.478 18.8876 13.5442 18.7268 13.6709C18.5661 13.7976 18.4549 13.9767 18.4127 14.177L17.0145 20.8764C17.0088 20.9345 17.0088 20.993 17.0145 21.0511V22.0939C17.0145 22.3227 17.1042 22.5423 17.2643 22.7057C17.4244 22.8691 17.6422 22.9632 17.8709 22.9678Z" fill="white" stroke="#404366" stroke-width="0.75" stroke-linecap="round" stroke-linejoin="round"/>
<path d="M26.5628 17.6845H28.2639V19.4613H26.5628V21.1623H24.786V19.4613H23.085V17.6845H24.786V15.9834H26.5628V17.6845Z" stroke="#404366" stroke-width="0.75" stroke-linecap="round" stroke-linejoin="round"/>
<path d="M32.7084 14.7656H30.5879L31.5666 19.0358H34.8405" stroke="#404366" stroke-width="0.75" stroke-linecap="round" stroke-linejoin="round"/>
<path d="M30.588 24.2961C31.3698 24.2961 32.0036 23.6623 32.0036 22.8805C32.0036 22.0986 31.3698 21.4648 30.588 21.4648C29.8062 21.4648 29.1724 22.0986 29.1724 22.8805C29.1724 23.6623 29.8062 24.2961 30.588 24.2961Z" fill="white" stroke="#404366" stroke-width="0.75" stroke-linecap="round" stroke-linejoin="round"/>
<path d="M21.0343 24.2961C21.8161 24.2961 22.4499 23.6623 22.4499 22.8805C22.4499 22.0986 21.8161 21.4648 21.0343 21.4648C20.2524 21.4648 19.6187 22.0986 19.6187 22.8805C19.6187 23.6623 20.2524 24.2961 21.0343 24.2961Z" fill="white" stroke="#404366" stroke-width="0.75" stroke-linecap="round" stroke-linejoin="round"/>
<path d="M6.78448 7.9029C5.59875 7.3842 4.57297 6.55838 3.81309 5.51072C3.0532 4.46306 2.58676 3.23155 2.46191 1.94336C3.77606 2.23338 4.94335 2.98334 5.75335 4.05804C6.53289 5.18114 6.89743 6.54045 6.78448 7.9029V7.9029Z" stroke="#404366" stroke-width="0.75" stroke-linecap="round" stroke-linejoin="round"/>
<path d="M6.07406 10.6061C5.58201 9.73574 4.8231 9.0467 3.90942 8.64074C2.99573 8.23477 1.97571 8.1334 1 8.3516C1.14866 8.83035 1.39177 9.27446 1.71496 9.65768C2.03814 10.0409 2.43485 10.3555 2.88166 10.5828C3.90597 10.9867 5.04396 10.995 6.07406 10.6061V10.6061Z" stroke="#404366" stroke-width="0.75" stroke-linecap="round" stroke-linejoin="round"/>
<path d="M27.5123 11.6786C27.3519 11.0962 27.3103 10.4875 27.3899 9.88875C27.4696 9.28997 27.6689 8.71333 27.976 8.19317C28.2831 7.673 28.6917 7.21993 29.1775 6.86094C29.6633 6.50195 30.2164 6.24436 30.8038 6.10352C30.9859 6.6695 31.0508 7.26662 30.9948 7.85852C30.9387 8.45042 30.7627 9.02472 30.4775 9.54642C29.8091 10.6205 28.7433 11.3869 27.5123 11.6786V11.6786Z" stroke="#404366" stroke-width="0.75" stroke-linecap="round" stroke-linejoin="round"/>
</svg>
