<svg width="156" height="174" viewBox="0 0 156 174" fill="none" xmlns="http://www.w3.org/2000/svg">
<path d="M90.8501 97.6899C92.0116 99.4919 93.2945 101.213 94.6901 102.84C94.9701 103.16 95.2502 103.48 95.5402 103.84C98.7602 107.38 101.91 110.94 105.37 114.35C107.213 116.267 108.547 118.615 109.25 121.18C110.98 126.69 111.25 132.85 116.1 136.78C118.36 138.6 121.18 139.56 123.64 141.05C125.313 142.066 126.863 143.27 128.26 144.64C132.542 148.98 136.431 153.692 139.88 158.72" stroke="#00B4CC" stroke-width="3.75" stroke-linejoin="round" stroke-dasharray="4.69 3.75"/>
<path d="M145.86 172.02C149.986 172.02 153.33 168.676 153.33 164.55C153.33 160.425 149.986 157.08 145.86 157.08C141.735 157.08 138.39 160.425 138.39 164.55C138.39 168.676 141.735 172.02 145.86 172.02Z" fill="white" stroke="#00B4CC" stroke-width="3.75" stroke-linecap="round" stroke-linejoin="round"/>
<path d="M83.5103 80.5801C84.2503 82.3501 84.8803 84.1701 85.5103 85.9901C86.3138 88.4953 87.2757 90.9469 88.3903 93.3301C89.132 94.8282 89.9566 96.2837 90.8602 97.6901" stroke="#C8CEDB" stroke-width="3.75" stroke-linecap="round" stroke-linejoin="round"/>
<path d="M90.6001 101.44C92.6712 101.44 94.3501 99.761 94.3501 97.6899C94.3501 95.6189 92.6712 93.9399 90.6001 93.9399C88.529 93.9399 86.8501 95.6189 86.8501 97.6899C86.8501 99.761 88.529 101.44 90.6001 101.44Z" fill="#404366"/>
<path d="M66.8398 66.5699C67.8898 66.5199 68.8398 66.4799 69.7198 66.4999C74.6598 66.5799 77.3099 68.3199 82.3599 78.0999C82.7799 78.9099 83.1599 79.7399 83.5099 80.5799" stroke="#C8CEDB" stroke-width="3.75" stroke-linecap="round" stroke-linejoin="round"/>
<path d="M83.1001 84.6099C85.1712 84.6099 86.8501 82.9309 86.8501 80.8599C86.8501 78.7888 85.1712 77.1099 83.1001 77.1099C81.029 77.1099 79.3501 78.7888 79.3501 80.8599C79.3501 82.9309 81.029 84.6099 83.1001 84.6099Z" fill="#404366"/>
<path d="M47.52 61.2002C51.73 64.2002 56.29 66.8702 61.24 66.8002C63.4 66.8002 65.24 66.6502 66.84 66.5702" stroke="#C8CEDB" stroke-width="3.75" stroke-linecap="round" stroke-linejoin="round"/>
<path d="M66.8403 70.5498C68.9113 70.5498 70.5903 68.8709 70.5903 66.7998C70.5903 64.7287 68.9113 63.0498 66.8403 63.0498C64.7692 63.0498 63.0903 64.7287 63.0903 66.7998C63.0903 68.8709 64.7692 70.5498 66.8403 70.5498Z" fill="#404366"/>
<path d="M34.8701 51.6802C37.1273 53.7025 39.5159 55.5733 42.0201 57.2802C43.7801 58.4802 45.6101 59.8602 47.5201 61.2002" stroke="#C8CEDB" stroke-width="3.75" stroke-linecap="round" stroke-linejoin="round"/>
<path d="M47.8003 64.9502C49.8714 64.9502 51.5503 63.2713 51.5503 61.2002C51.5503 59.1291 49.8714 57.4502 47.8003 57.4502C45.7292 57.4502 44.0503 59.1291 44.0503 61.2002C44.0503 63.2713 45.7292 64.9502 47.8003 64.9502Z" fill="#404366"/>
<path d="M23.6401 39.5898C25.8109 42.374 28.1239 45.0443 30.5701 47.5898C31.9601 49.0198 33.4001 50.3998 34.8701 51.7098" stroke="#C8CEDB" stroke-width="3.75" stroke-linecap="round" stroke-linejoin="round"/>
<path d="M34.8701 55.29C36.9412 55.29 38.6201 53.6111 38.6201 51.54C38.6201 49.469 36.9412 47.79 34.8701 47.79C32.799 47.79 31.1201 49.469 31.1201 51.54C31.1201 53.6111 32.799 55.29 34.8701 55.29Z" fill="#404366"/>
<path d="M13.0903 23.96C14.457 26.28 15.8803 28.5666 17.3603 30.8199C19.3603 33.8199 21.4403 36.82 23.6403 39.58" stroke="#C8CEDB" stroke-width="3.75" stroke-linecap="round" stroke-linejoin="round"/>
<path d="M23.9902 43.3101C26.0613 43.3101 27.7402 41.6311 27.7402 39.5601C27.7402 37.489 26.0613 35.8101 23.9902 35.8101C21.9192 35.8101 20.2402 37.489 20.2402 39.5601C20.2402 41.6311 21.9192 43.3101 23.9902 43.3101Z" fill="#404366"/>
<path d="M2.18018 2.87012C5.41018 9.87012 9.02021 17.0602 13.0902 23.9702" stroke="#C8CEDB" stroke-width="3.75" stroke-linecap="round" stroke-linejoin="round"/>
<path d="M13.1401 27.7202C15.2112 27.7202 16.8901 26.0413 16.8901 23.9702C16.8901 21.8991 15.2112 20.2202 13.1401 20.2202C11.0691 20.2202 9.39014 21.8991 9.39014 23.9702C9.39014 26.0413 11.0691 27.7202 13.1401 27.7202Z" fill="#404366"/>
</svg>
