<svg width="157" height="165" viewBox="0 0 157 165" fill="none" xmlns="http://www.w3.org/2000/svg">
<path d="M2 1.47998C4 4.22998 5.83995 6.99996 7.69995 9.70996C11.61 15.42 16.87 21.04 19.79 27.3C22.98 34.16 25.46 41.5 28.52 48.45C34.84 62.79 45.3401 75.0399 55.1801 87.1899C59.8001 92.8899 65.8001 97.1899 70.1801 103.4C74.5601 109.61 77.3 116.12 82.84 121.4C92.72 130.89 108.9 135.78 121.77 139.93C133.77 143.82 141.93 148.68 150.09 155.93" stroke="#00B4CC" stroke-width="3.75" stroke-linejoin="round" stroke-dasharray="4.69 3.75"/>
<path d="M146.83 162.14C150.956 162.14 154.3 158.796 154.3 154.67C154.3 150.545 150.956 147.2 146.83 147.2C142.705 147.2 139.36 150.545 139.36 154.67C139.36 158.796 142.705 162.14 146.83 162.14Z" fill="white" stroke="#00B4CC" stroke-width="3.75" stroke-linecap="round" stroke-linejoin="round"/>
</svg>
