<svg width="141" height="48" viewBox="0 0 141 48" fill="none" xmlns="http://www.w3.org/2000/svg">
<path d="M122.63 16.6299C122.02 18.1399 119.04 19.2698 117.78 20.2198C116.192 21.5204 114.871 23.1164 113.89 24.9198C110.843 29.816 106.897 34.0913 102.26 37.5199" stroke="#00B4CC" stroke-width="3.75" stroke-linejoin="round" stroke-dasharray="4.69 3.75"/>
<path d="M129.46 21.5897C135.292 21.5897 140.02 16.8618 140.02 11.0297C140.02 5.19754 135.292 0.469727 129.46 0.469727C123.628 0.469727 118.9 5.19754 118.9 11.0297C118.9 16.8618 123.628 21.5897 129.46 21.5897Z" fill="#00B4CC"/>
<path d="M102.26 37.52C98.6367 40.2445 94.3733 41.9905 89.8799 42.59C85.4099 43.09 80.9699 41.67 76.4999 41.48C73.3599 41.34 70.1699 41.39 67.0599 41.24C64.7299 41.13 62.5698 41.12 60.4698 41.01C57.0666 40.9366 53.7091 40.21 50.5798 38.87C45.3998 36.55 40.3399 34.4899 36.5099 30.0699C32.6799 25.6499 30.6599 20.4599 26.8599 16.1699C26.3599 15.5999 25.8598 15.04 25.3398 14.5" stroke="#00B4CC" stroke-width="3.75" stroke-linejoin="round" stroke-dasharray="4.69 3.75"/>
<path d="M102.26 45.3502C106.386 45.3502 109.73 42.0058 109.73 37.8802C109.73 33.7547 106.386 30.4102 102.26 30.4102C98.1344 30.4102 94.79 33.7547 94.79 37.8802C94.79 42.0058 98.1344 45.3502 102.26 45.3502Z" fill="white" stroke="#00B4CC" stroke-width="3.75" stroke-linecap="round" stroke-linejoin="round"/>
<path d="M25.3402 14.4999C19.0602 7.85988 12.1103 3.49979 2.51025 3.02979" stroke="#00B4CC" stroke-width="3.75" stroke-linecap="round" stroke-linejoin="round"/>
<path d="M25.5801 18.25C27.6511 18.25 29.3301 16.5711 29.3301 14.5C29.3301 12.4289 27.6511 10.75 25.5801 10.75C23.509 10.75 21.8301 12.4289 21.8301 14.5C21.8301 16.5711 23.509 18.25 25.5801 18.25Z" fill="white" stroke="#00B4CC" stroke-width="2" stroke-linecap="round" stroke-linejoin="round"/>
</svg>
