<svg width="235" height="266" viewBox="0 0 235 266" fill="none" xmlns="http://www.w3.org/2000/svg">
<path d="M215 184.28C215 184.88 214.94 185.49 214.89 186.09C214.67 188.721 214.221 191.327 213.55 193.88C212.618 197.307 211.87 200.782 211.31 204.29C211.11 205.64 210.95 206.92 210.85 208.17C210.11 216.74 211.62 223.29 214.85 231.83C216.33 235.72 218.19 240.01 220.36 245.1C221.85 248.6 223.44 252.21 225.13 255.87" stroke="#00B4CC" stroke-width="3.75" stroke-linejoin="round" stroke-dasharray="4.69 3.75"/>
<path d="M224.92 263.88C229.046 263.88 232.39 260.536 232.39 256.41C232.39 252.284 229.046 248.94 224.92 248.94C220.795 248.94 217.45 252.284 217.45 256.41C217.45 260.536 220.795 263.88 224.92 263.88Z" fill="white" stroke="#00B4CC" stroke-width="3.75" stroke-linecap="round" stroke-linejoin="round"/>
<path d="M211.64 164.26C214.02 170.653 215.161 177.44 215 184.26" stroke="#C8CEDB" stroke-width="3.75" stroke-linecap="round" stroke-linejoin="round"/>
<path d="M215.03 188.03C217.101 188.03 218.78 186.351 218.78 184.28C218.78 182.209 217.101 180.53 215.03 180.53C212.959 180.53 211.28 182.209 211.28 184.28C211.28 186.351 212.959 188.03 215.03 188.03Z" fill="#404366"/>
<path d="M192.38 124.69C193.38 126.4 194.38 128.26 195.26 130.21C200.8 141.77 207.63 152.8 211.64 164.21" stroke="#00B4CC" stroke-width="3.75" stroke-linecap="round" stroke-linejoin="round"/>
<path d="M211.34 166.53C213.411 166.53 215.09 164.851 215.09 162.78C215.09 160.709 213.411 159.03 211.34 159.03C209.269 159.03 207.59 160.709 207.59 162.78C207.59 164.851 209.269 166.53 211.34 166.53Z" fill="white" stroke="#00B4CC" stroke-width="2" stroke-linecap="round" stroke-linejoin="round"/>
<path d="M178.46 112.86C181.388 113.989 184.134 115.542 186.61 117.47C188.949 119.513 190.903 121.958 192.38 124.69" stroke="#C8CEDB" stroke-width="3.75" stroke-linecap="round" stroke-linejoin="round"/>
<path d="M192.55 128.26C194.621 128.26 196.3 126.581 196.3 124.51C196.3 122.439 194.621 120.76 192.55 120.76C190.479 120.76 188.8 122.439 188.8 124.51C188.8 126.581 190.479 128.26 192.55 128.26Z" fill="#404366"/>
<path d="M154.44 102.55C157.08 103.92 159.87 105.26 162.87 106.65C163.55 106.97 164.22 107.28 164.87 107.57C169.75 109.76 174.33 111.15 178.44 112.86" stroke="#C8CEDB" stroke-width="3.75" stroke-linecap="round" stroke-linejoin="round"/>
<path d="M178.46 116.61C180.531 116.61 182.21 114.931 182.21 112.86C182.21 110.789 180.531 109.11 178.46 109.11C176.389 109.11 174.71 110.789 174.71 112.86C174.71 114.931 176.389 116.61 178.46 116.61Z" fill="#404366"/>
<path d="M137.72 91.6101C138.67 92.4201 139.63 93.2101 140.61 93.9601C144.949 97.2389 149.578 100.114 154.44 102.55" stroke="#00B4CC" stroke-width="3.75" stroke-linecap="round" stroke-linejoin="round"/>
<path d="M154.3 106.22C156.371 106.22 158.05 104.541 158.05 102.47C158.05 100.399 156.371 98.72 154.3 98.72C152.229 98.72 150.55 100.399 150.55 102.47C150.55 104.541 152.229 106.22 154.3 106.22Z" fill="white" stroke="#00B4CC" stroke-width="2" stroke-linecap="round" stroke-linejoin="round"/>
<path d="M126.62 79.51C127.17 80.26 127.73 80.99 128.31 81.72C131.13 85.3044 134.28 88.6157 137.72 91.61" stroke="#C8CEDB" stroke-width="3.75" stroke-linecap="round" stroke-linejoin="round"/>
<path d="M137.72 95.24C139.791 95.24 141.47 93.5611 141.47 91.49C141.47 89.4189 139.791 87.74 137.72 87.74C135.649 87.74 133.97 89.4189 133.97 91.49C133.97 93.5611 135.649 95.24 137.72 95.24Z" fill="#404366"/>
<path d="M117 64.51C119.924 69.6767 123.122 74.6839 126.58 79.51" stroke="#C8CEDB" stroke-width="3.75" stroke-linecap="round" stroke-linejoin="round"/>
<path d="M126.62 82.9199C128.691 82.9199 130.37 81.241 130.37 79.1699C130.37 77.0989 128.691 75.4199 126.62 75.4199C124.549 75.4199 122.87 77.0989 122.87 79.1699C122.87 81.241 124.549 82.9199 126.62 82.9199Z" fill="#404366"/>
<path d="M109 51.3999C109.59 52.2599 110.17 53.1299 110.73 54.0099C112.68 57.0099 114.5 60.1299 116.31 63.2199C116.57 63.6499 116.82 64.0799 117.07 64.5099" stroke="#00B4CC" stroke-width="3.75" stroke-linecap="round" stroke-linejoin="round"/>
<path d="M117.11 67.52C119.181 67.52 120.86 65.8411 120.86 63.77C120.86 61.699 119.181 60.02 117.11 60.02C115.039 60.02 113.36 61.699 113.36 63.77C113.36 65.8411 115.039 67.52 117.11 67.52Z" fill="white" stroke="#00B4CC" stroke-width="2" stroke-linecap="round" stroke-linejoin="round"/>
<path d="M98.4702 36.78C100.89 40.29 103.47 43.7 105.98 47.16C106.987 48.56 107.987 49.9734 108.98 51.4" stroke="#C8CEDB" stroke-width="3.75" stroke-linecap="round" stroke-linejoin="round"/>
<path d="M108.97 54.6602C111.041 54.6602 112.72 52.9812 112.72 50.9102C112.72 48.8391 111.041 47.1602 108.97 47.1602C106.899 47.1602 105.22 48.8391 105.22 50.9102C105.22 52.9812 106.899 54.6602 108.97 54.6602Z" fill="#404366"/>
<path d="M88.0503 23.28C90.6267 26.0808 93.0502 29.0184 95.3103 32.08C95.6603 32.57 95.9903 33.08 96.3103 33.56C97.0003 34.65 97.7203 35.72 98.4603 36.78" stroke="#00B4CC" stroke-width="3.75" stroke-linecap="round" stroke-linejoin="round"/>
<path d="M98.3403 40.4102C100.411 40.4102 102.09 38.7312 102.09 36.6602C102.09 34.5891 100.411 32.9102 98.3403 32.9102C96.2693 32.9102 94.5903 34.5891 94.5903 36.6602C94.5903 38.7312 96.2693 40.4102 98.3403 40.4102Z" fill="white" stroke="#00B4CC" stroke-width="2" stroke-linecap="round" stroke-linejoin="round"/>
<path d="M73.1401 14.0701C74.3594 14.7519 75.6463 15.3049 76.9801 15.7201C78.7179 16.193 80.3956 16.864 81.9801 17.7201C83.9363 18.9338 85.6768 20.4647 87.1301 22.2501L88.0001 23.2501" stroke="#C8CEDB" stroke-width="3.75" stroke-linecap="round" stroke-linejoin="round"/>
<path d="M88.1802 26.52C90.2512 26.52 91.9302 24.8411 91.9302 22.77C91.9302 20.699 90.2512 19.02 88.1802 19.02C86.1091 19.02 84.4302 20.699 84.4302 22.77C84.4302 24.8411 86.1091 26.52 88.1802 26.52Z" fill="#404366"/>
<path d="M38.2402 9.96014C40.2166 10.8855 42.3594 11.4025 44.5402 11.4802C50.7302 11.6802 56.4302 9.22013 62.5402 9.82013C63.3153 9.88899 64.0842 10.016 64.8403 10.2001C68.0203 10.9501 70.5502 12.6402 73.1902 14.0402" stroke="#C8CEDB" stroke-width="3.75" stroke-linecap="round" stroke-linejoin="round"/>
<path d="M73.1401 18.45C75.2112 18.45 76.8901 16.771 76.8901 14.7C76.8901 12.6289 75.2112 10.95 73.1401 10.95C71.0691 10.95 69.3901 12.6289 69.3901 14.7C69.3901 16.771 71.0691 18.45 73.1401 18.45Z" fill="#404366"/>
<path d="M2 4.48011C9.9 3.34011 17.76 1.88007 25.26 3.63007C28.221 4.45076 31.0327 5.7368 33.59 7.44007C35.0938 8.37759 36.6497 9.22901 38.25 9.99012" stroke="#C8CEDB" stroke-width="3.75" stroke-linecap="round" stroke-linejoin="round"/>
<path d="M38.2402 13.1899C40.3113 13.1899 41.9902 11.511 41.9902 9.43994C41.9902 7.36887 40.3113 5.68994 38.2402 5.68994C36.1692 5.68994 34.4902 7.36887 34.4902 9.43994C34.4902 11.511 36.1692 13.1899 38.2402 13.1899Z" fill="#404366"/>
</svg>
