<svg width="42" height="179" viewBox="0 0 42 179" fill="none" xmlns="http://www.w3.org/2000/svg">
<path d="M29 168.16C30.46 165.46 32 162.71 33.59 159.86C35.5912 156.088 36.8794 151.979 37.39 147.74C37.6943 145.442 37.8512 143.128 37.86 140.81" stroke="#C8CEDB" stroke-width="3.75" stroke-linecap="round" stroke-linejoin="round"/>
<path d="M27.89 176.45C32.0155 176.45 35.3599 173.106 35.3599 168.98C35.3599 164.854 32.0155 161.51 27.89 161.51C23.7644 161.51 20.4199 164.854 20.4199 168.98C20.4199 173.106 23.7644 176.45 27.89 176.45Z" fill="white" stroke="#00B4CC" stroke-width="3.75" stroke-linecap="round" stroke-linejoin="round"/>
<path d="M37.8502 140.9C37.83 136.267 37.4455 131.643 36.7003 127.07V126.96C35.3503 118.29 33.0902 109.74 31.3702 102.49C29.8402 96.0699 27.8802 89.8999 26.9402 83.4099C25.5404 75.0038 23.4671 66.7237 20.7402 58.6499" stroke="#C8CEDB" stroke-width="3.75" stroke-linecap="round" stroke-linejoin="round"/>
<path d="M37.8501 144.53C39.9212 144.53 41.6001 142.851 41.6001 140.78C41.6001 138.709 39.9212 137.03 37.8501 137.03C35.779 137.03 34.1001 138.709 34.1001 140.78C34.1001 142.851 35.779 144.53 37.8501 144.53Z" fill="#404366"/>
<path d="M11.1802 41.8999C11.7902 43.3199 12.3902 44.7399 12.9702 46.1899C14.6202 50.3399 18.9702 53.1399 20.3802 57.5199L20.7402 58.6399" stroke="#C8CEDB" stroke-width="3.75" stroke-linecap="round" stroke-linejoin="round"/>
<path d="M20.1899 62.6699C22.261 62.6699 23.9399 60.991 23.9399 58.9199C23.9399 56.8489 22.261 55.1699 20.1899 55.1699C18.1189 55.1699 16.4399 56.8489 16.4399 58.9199C16.4399 60.991 18.1189 62.6699 20.1899 62.6699Z" fill="#404366"/>
<path d="M5.26025 25.8701C5.99126 27.5639 6.61908 29.3004 7.14026 31.0701C8.20986 34.7721 9.54671 38.3916 11.1403 41.9001" stroke="#C8CEDB" stroke-width="3.75" stroke-linecap="round" stroke-linejoin="round"/>
<path d="M10.77 46.01C12.8411 46.01 14.52 44.3311 14.52 42.26C14.52 40.1889 12.8411 38.51 10.77 38.51C8.69895 38.51 7.02002 40.1889 7.02002 42.26C7.02002 44.3311 8.69895 46.01 10.77 46.01Z" fill="#404366"/>
<path d="M5.85022 2.67993C4.33226 5.66101 3.44063 8.92125 3.23022 12.2599C3.11022 15.0699 2.87022 18.2599 3.54022 20.9999C3.99697 22.6621 4.57179 24.2896 5.26025 25.8699" stroke="#00B4CC" stroke-width="3.75" stroke-linecap="round" stroke-linejoin="round"/>
<path d="M4.75 29.4399C6.82107 29.4399 8.5 27.761 8.5 25.6899C8.5 23.6189 6.82107 21.9399 4.75 21.9399C2.67893 21.9399 1 23.6189 1 25.6899C1 27.761 2.67893 29.4399 4.75 29.4399Z" fill="white" stroke="#00B4CC" stroke-width="2" stroke-linecap="round" stroke-linejoin="round"/>
</svg>
