<svg width="145" height="205" viewBox="0 0 145 205" fill="none" xmlns="http://www.w3.org/2000/svg">
<path d="M25.4201 173.59C22.8601 177.47 20.2201 181.28 17.4201 184.97C16.3068 186.43 15.1668 187.863 14.0001 189.27C12.3735 191.235 10.987 193.387 9.87012 195.68" stroke="#C8CEDB" stroke-width="3.75" stroke-linecap="round" stroke-linejoin="round"/>
<path d="M10.2103 202.9C14.3358 202.9 17.6802 199.556 17.6802 195.43C17.6802 191.304 14.3358 187.96 10.2103 187.96C6.0847 187.96 2.74023 191.304 2.74023 195.43C2.74023 199.556 6.0847 202.9 10.2103 202.9Z" fill="white" stroke="#00B4CC" stroke-width="3.75" stroke-linecap="round" stroke-linejoin="round"/>
<path d="M36.4399 157.29C35.0764 158.83 33.8359 160.475 32.7299 162.21C30.3099 166.02 27.8999 169.84 25.4199 173.59" stroke="#C8CEDB" stroke-width="3.75" stroke-linecap="round" stroke-linejoin="round"/>
<path d="M25.1802 177.34C27.2512 177.34 28.9302 175.661 28.9302 173.59C28.9302 171.519 27.2512 169.84 25.1802 169.84C23.1091 169.84 21.4302 171.519 21.4302 173.59C21.4302 175.661 23.1091 177.34 25.1802 177.34Z" fill="#404366"/>
<path d="M36.4399 157.29C41.8599 151.19 48.6599 147.45 56.1599 144.24" stroke="#00B4CC" stroke-width="3.75" stroke-linecap="round" stroke-linejoin="round"/>
<path d="M36.4399 160.72C38.511 160.72 40.1899 159.041 40.1899 156.97C40.1899 154.899 38.511 153.22 36.4399 153.22C34.3689 153.22 32.6899 154.899 32.6899 156.97C32.6899 159.041 34.3689 160.72 36.4399 160.72Z" fill="white" stroke="#00B4CC" stroke-width="2" stroke-linecap="round" stroke-linejoin="round"/>
<path d="M98.2102 132.33C95.7402 133.63 92.9202 135.26 90.3902 135.91C88.9902 136.26 87.7502 135.91 86.3902 136.14C85.0302 136.37 84.1702 137.14 82.9502 137.4C81.4502 137.76 79.8802 137.32 78.3402 137.49C76.5102 137.69 76.0302 138.56 74.4202 138.93C73.1702 139.22 71.9102 138.8 70.6202 139.16C70.0002 139.33 69.9802 140.06 69.0502 140.27C68.3902 140.43 67.5902 140.01 66.9302 140.16C64.2317 140.935 61.5917 141.901 59.0302 143.05C58.0302 143.44 57.1202 143.84 56.1802 144.24" stroke="#C8CEDB" stroke-width="3.75" stroke-linecap="round" stroke-linejoin="round"/>
<path d="M58 147.21C60.0711 147.21 61.75 145.531 61.75 143.46C61.75 141.389 60.0711 139.71 58 139.71C55.9289 139.71 54.25 141.389 54.25 143.46C54.25 145.531 55.9289 147.21 58 147.21Z" fill="#404366"/>
<path d="M116.44 117.18C112.57 120.231 108.921 123.553 105.52 127.12C103.884 128.897 101.956 130.382 99.8199 131.51C99.2999 131.76 98.76 132.04 98.21 132.33" stroke="#C8CEDB" stroke-width="3.75" stroke-linecap="round" stroke-linejoin="round"/>
<path d="M98.21 136.08C100.281 136.08 101.96 134.401 101.96 132.33C101.96 130.259 100.281 128.58 98.21 128.58C96.1389 128.58 94.46 130.259 94.46 132.33C94.46 134.401 96.1389 136.08 98.21 136.08Z" fill="#404366"/>
<path d="M136.37 94.8201C136.19 95.1001 136 95.3801 135.8 95.6701C133.3 99.1701 131.19 102.92 129 106.62C127.86 108.65 126.39 110.475 124.65 112.02C122.47 113.95 119.75 114.76 117.56 116.35L116.44 117.18" stroke="#C8CEDB" stroke-width="3.75" stroke-linecap="round" stroke-linejoin="round"/>
<path d="M118 119.53C120.071 119.53 121.75 117.851 121.75 115.78C121.75 113.709 120.071 112.03 118 112.03C115.929 112.03 114.25 113.709 114.25 115.78C114.25 117.851 115.929 119.53 118 119.53Z" fill="#404366"/>
<path d="M138.73 76.1301V77.1301C138.73 84.1301 139.84 89.2801 136.37 94.7901" stroke="#C8CEDB" stroke-width="3.75" stroke-linecap="round" stroke-linejoin="round"/>
<path d="M134.64 100.79C136.711 100.79 138.39 99.1111 138.39 97.04C138.39 94.969 136.711 93.29 134.64 93.29C132.569 93.29 130.89 94.969 130.89 97.04C130.89 99.1111 132.569 100.79 134.64 100.79Z" fill="#404366"/>
<path d="M136.14 49.6101C135.89 50.7521 135.815 51.9257 135.92 53.0901C136.8 57.2601 138.56 58.9901 138.76 63.7001C138.76 64.9401 138.83 66.1801 138.83 67.4301C138.83 70.3301 138.75 73.2401 138.73 76.1301" stroke="#00B4CC" stroke-width="3.75" stroke-linecap="round" stroke-linejoin="round"/>
<path d="M138.79 79.6599C140.861 79.6599 142.54 77.981 142.54 75.9099C142.54 73.8388 140.861 72.1599 138.79 72.1599C136.719 72.1599 135.04 73.8388 135.04 75.9099C135.04 77.981 136.719 79.6599 138.79 79.6599Z" fill="white" stroke="#00B4CC" stroke-width="2" stroke-linecap="round" stroke-linejoin="round"/>
<path d="M140.87 27.79C140.12 31.79 139.22 35.73 138.39 39.29C137.39 43.42 136.57 47.03 136.14 49.61" stroke="#C8CEDB" stroke-width="3.75" stroke-linecap="round" stroke-linejoin="round"/>
<path d="M136.45 53.3601C138.521 53.3601 140.2 51.6812 140.2 49.6101C140.2 47.539 138.521 45.8601 136.45 45.8601C134.379 45.8601 132.7 47.539 132.7 49.6101C132.7 51.6812 134.379 53.3601 136.45 53.3601Z" fill="#404366"/>
<path d="M140.08 2.01001C143.77 7.01001 142.8 17.56 140.87 27.79" stroke="#C8CEDB" stroke-width="3.75" stroke-linecap="round" stroke-linejoin="round"/>
<path d="M140.73 31.54C142.801 31.54 144.48 29.8611 144.48 27.79C144.48 25.719 142.801 24.04 140.73 24.04C138.659 24.04 136.98 25.719 136.98 27.79C136.98 29.8611 138.659 31.54 140.73 31.54Z" fill="#404366"/>
</svg>
