<svg width="320" height="173" viewBox="0 0 320 173" fill="none" xmlns="http://www.w3.org/2000/svg">
<path d="M310.39 116.76C309.06 117.65 307.69 118.51 306.39 119.34C300.55 123.09 293.33 128.86 286.39 129.93C280.14 130.93 272.76 128.63 265.57 129.93C256.45 131.53 250.57 132.73 241.36 132.74C236.29 132.74 231.23 132.66 226.16 132.85C222.53 132.99 219.05 131.94 215.58 133.21C207.86 136.06 202.89 144.21 199.03 150.99C194.15 159.6 188.11 169.25 178.33 170.75C170.44 171.96 162.85 167.24 156.99 161.82C147.311 152.836 140.101 141.519 136.05 128.95C132.05 116.52 131.2 102.95 124.82 91.5702C118.21 79.8002 106.57 71.8802 95.3499 64.3802C76.8632 52.0002 58.3998 39.5836 39.9598 27.1302L18.2999 12.5402C12.9899 8.96016 6.65992 6.47023 1.91992 2.24023" stroke="#00B4CC" stroke-width="3.75" stroke-linejoin="round" stroke-dasharray="4.69 3.75"/>
<path d="M310.39 124.23C314.515 124.23 317.86 120.886 317.86 116.76C317.86 112.635 314.515 109.29 310.39 109.29C306.264 109.29 302.92 112.635 302.92 116.76C302.92 120.886 306.264 124.23 310.39 124.23Z" fill="white" stroke="#00B4CC" stroke-width="3.75" stroke-linecap="round" stroke-linejoin="round"/>
</svg>
