<svg width="105" height="97" viewBox="0 0 105 97" fill="none" xmlns="http://www.w3.org/2000/svg">
<path d="M23.4102 75.7001C34.7602 66.4001 45.1402 56.1501 48.9102 40.9501C49.1202 39.6501 48.6502 37.3701 49.0502 35.8901C49.4502 34.4101 50.5401 32.8301 50.9901 31.2201C52.1101 27.2201 52.7001 21.0801 55.2001 17.6001C58.2001 13.4401 63.6301 17.3101 67.6301 16.2601C69.9201 15.6501 71.8401 14.5201 74.3401 14.2601C76.3401 14.0601 78.4002 14.0401 80.1802 13.0801C82.3402 11.9301 83.4901 10.7801 85.8601 10.3201C87.7101 9.95007 90.1301 10.2301 91.9601 9.62012" stroke="#00B4CC" stroke-width="3.75" stroke-linejoin="round" stroke-dasharray="4.69 3.75"/>
<path d="M2.39014 94.76C3.77462 93.8301 5.10976 92.8287 6.39014 91.76C7.58014 90.76 7.39016 88.4499 8.66016 87.4399C13.4502 83.4399 18.5001 79.6699 23.3701 75.6699" stroke="#00B4CC" stroke-width="3.75" stroke-linecap="round" stroke-linejoin="round"/>
<path d="M23.4102 79.3999C25.4812 79.3999 27.1602 77.721 27.1602 75.6499C27.1602 73.5788 25.4812 71.8999 23.4102 71.8999C21.3391 71.8999 19.6602 73.5788 19.6602 75.6499C19.6602 77.721 21.3391 79.3999 23.4102 79.3999Z" fill="white" stroke="#00B4CC" stroke-width="2" stroke-linecap="round" stroke-linejoin="round"/>
<path d="M94.7703 17.7501C98.8958 17.7501 102.24 14.4056 102.24 10.28C102.24 6.15446 98.8958 2.81006 94.7703 2.81006C90.6447 2.81006 87.3003 6.15446 87.3003 10.28C87.3003 14.4056 90.6447 17.7501 94.7703 17.7501Z" fill="white" stroke="#00B4CC" stroke-width="3.75" stroke-linecap="round" stroke-linejoin="round"/>
</svg>
