<svg width="139" height="91" viewBox="0 0 139 91" fill="none" xmlns="http://www.w3.org/2000/svg">
<path d="M97.1201 73.02C98.4701 73.14 99.8101 73.33 101.12 73.56C103.71 73.99 106.39 74.56 109.44 75.05C115.19 76 121.08 75.32 126.94 74.48" stroke="#C8CEDB" stroke-width="3.75" stroke-linecap="round" stroke-linejoin="round"/>
<path d="M128.77 81.92C132.896 81.92 136.24 78.5755 136.24 74.45C136.24 70.3244 132.896 66.98 128.77 66.98C124.645 66.98 121.3 70.3244 121.3 74.45C121.3 78.5755 124.645 81.92 128.77 81.92Z" fill="white" stroke="#00B4CC" stroke-width="3.75" stroke-linecap="round" stroke-linejoin="round"/>
<path d="M74.75 78.46C76.37 77.64 77.99 76.8 79.66 76.04C82.0253 74.9152 84.5162 74.076 87.08 73.54C90.3701 72.8793 93.7392 72.7041 97.08 73.02" stroke="#C8CEDB" stroke-width="3.75" stroke-linecap="round" stroke-linejoin="round"/>
<path d="M97.1201 76.8901C99.1912 76.8901 100.87 75.2112 100.87 73.1401C100.87 71.0691 99.1912 69.3901 97.1201 69.3901C95.049 69.3901 93.3701 71.0691 93.3701 73.1401C93.3701 75.2112 95.049 76.8901 97.1201 76.8901Z" fill="#404366"/>
<path d="M54 85.4501C56.58 84.7601 59.15 83.9401 61.66 83.2101C62.86 82.8601 64.04 82.5401 65.21 82.2101C68.515 81.3212 71.7037 80.0457 74.71 78.4102" stroke="#C8CEDB" stroke-width="3.75" stroke-linecap="round" stroke-linejoin="round"/>
<path d="M74.75 82.6299C76.8211 82.6299 78.5 80.951 78.5 78.8799C78.5 76.8088 76.8211 75.1299 74.75 75.1299C72.6789 75.1299 71 76.8088 71 78.8799C71 80.951 72.6789 82.6299 74.75 82.6299Z" fill="#404366"/>
<path d="M54.0003 85.45C49.2203 86.72 44.3903 87.52 39.7603 86.39L39.1003 86.22C37.6154 85.8063 36.1751 85.247 34.8003 84.55" stroke="#00B4CC" stroke-width="3.75" stroke-linecap="round" stroke-linejoin="round"/>
<path d="M54.0103 89.0801C56.0813 89.0801 57.7603 87.4011 57.7603 85.3301C57.7603 83.259 56.0813 81.5801 54.0103 81.5801C51.9392 81.5801 50.2603 83.259 50.2603 85.3301C50.2603 87.4011 51.9392 89.0801 54.0103 89.0801Z" fill="white" stroke="#00B4CC" stroke-width="2" stroke-linecap="round" stroke-linejoin="round"/>
<path d="M34.8401 84.5499C29.9601 82.0199 28.1901 78.2699 25.1001 73.4199" stroke="#C8CEDB" stroke-width="3.75" stroke-linecap="round" stroke-linejoin="round"/>
<path d="M34.6299 88.45C36.701 88.45 38.3799 86.771 38.3799 84.7C38.3799 82.6289 36.701 80.95 34.6299 80.95C32.5588 80.95 30.8799 82.6289 30.8799 84.7C30.8799 86.771 32.5588 88.45 34.6299 88.45Z" fill="#404366"/>
<path d="M14.73 59.1099C17.13 63.9399 20.39 66.4698 23.79 71.4298C24.26 72.1098 24.69 72.7798 25.1 73.4298" stroke="#00B4CC" stroke-width="3.75" stroke-linecap="round" stroke-linejoin="round"/>
<path d="M24.4399 77C26.511 77 28.1899 75.3211 28.1899 73.25C28.1899 71.1789 26.511 69.5 24.4399 69.5C22.3689 69.5 20.6899 71.1789 20.6899 73.25C20.6899 75.3211 22.3689 77 24.4399 77Z" fill="white" stroke="#00B4CC" stroke-width="2" stroke-linecap="round" stroke-linejoin="round"/>
<path d="M9.74023 43.55C10.9502 47.55 11.9903 51.6901 13.3303 55.7101C13.7155 56.8752 14.1833 58.0114 14.7302 59.11" stroke="#C8CEDB" stroke-width="3.75" stroke-linecap="round" stroke-linejoin="round"/>
<path d="M14.4399 62.1001C16.511 62.1001 18.1899 60.4212 18.1899 58.3501C18.1899 56.279 16.511 54.6001 14.4399 54.6001C12.3689 54.6001 10.6899 56.279 10.6899 58.3501C10.6899 60.4212 12.3689 62.1001 14.4399 62.1001Z" fill="#404366"/>
<path d="M6.31007 24.74C5.58988 29.6642 6.17256 34.6911 8.00007 39.32C8.52007 40.72 9.00007 42.13 9.44007 43.55" stroke="#00B4CC" stroke-width="3.75" stroke-linecap="round" stroke-linejoin="round"/>
<path d="M9.7002 47.3C11.7713 47.3 13.4502 45.6211 13.4502 43.55C13.4502 41.479 11.7713 39.8 9.7002 39.8C7.62913 39.8 5.9502 41.479 5.9502 43.55C5.9502 45.6211 7.62913 47.3 9.7002 47.3Z" fill="white" stroke="#00B4CC" stroke-width="2" stroke-linecap="round" stroke-linejoin="round"/>
<path d="M14.0003 2.12988C10.3403 9.70988 7.29031 16.9299 6.32031 24.7399" stroke="#00B4CC" stroke-width="3.75" stroke-linecap="round" stroke-linejoin="round"/>
<path d="M5.72021 30.3C7.79128 30.3 9.47021 28.6211 9.47021 26.55C9.47021 24.479 7.79128 22.8 5.72021 22.8C3.64915 22.8 1.97021 24.479 1.97021 26.55C1.97021 28.6211 3.64915 30.3 5.72021 30.3Z" fill="white" stroke="#00B4CC" stroke-width="2" stroke-linecap="round" stroke-linejoin="round"/>
</svg>
