<svg width="1049" height="103" viewBox="0 0 1049 103" fill="none" xmlns="http://www.w3.org/2000/svg">
<g clip-path="url(#clip0)">
<path d="M1034.71 41.4348C1040.59 40.0672 1043.65 39.4385 1048.56 39.8891" stroke="#C8CEDB" stroke-width="2.6198" stroke-miterlimit="10"/>
<path d="M1021.74 52.8256C1025.38 49.2941 1028.97 42.6398 1034.71 41.4347" stroke="#C8CEDB" stroke-width="2.6198" stroke-miterlimit="10"/>
<path d="M1014.31 68.1358C1012.71 61.4134 1017.03 56.9702 1021.74 52.8257" stroke="#C8CEDB" stroke-width="2.6198" stroke-miterlimit="10"/>
<path d="M998.51 68.5968C999.683 74.8267 1014.52 74.9839 1014.31 68.1357" stroke="#0000FF" stroke-width="2.6198" stroke-miterlimit="10"/>
<path d="M988.721 55.1206C996.496 54.2351 1000.36 62.4561 998.508 68.5916" stroke="#0000FF" stroke-width="2.6198" stroke-miterlimit="10"/>
<path d="M876.526 90.4722C869.809 103.178 894.257 104.797 896.143 96.8016C898.061 84.7872 906.664 84.7767 908.975 78.0543C923.169 36.7191 966.458 74.8529 988.722 55.1206" stroke="#0000FF" stroke-width="2.6198" stroke-miterlimit="10" stroke-linejoin="round" stroke-dasharray="2.62 2.62"/>
<path d="M854.467 78.421C860.047 91.0642 870.374 80.2496 876.525 90.4773" stroke="#0000FF" stroke-width="2.6198" stroke-miterlimit="10"/>
<path d="M848.332 66.239C851.832 68.9322 851.911 75.0677 854.462 78.4158" stroke="#C8CEDB" stroke-width="2.6198" stroke-miterlimit="10"/>
<path d="M830.209 60.7007C835.302 62.063 844.12 62.6027 848.333 66.2389" stroke="#0000FF" stroke-width="2.6198" stroke-miterlimit="10"/>
<path d="M821.117 47.3712C827.038 48.6759 825.188 58.5525 830.208 60.7007" stroke="#0000FF" stroke-width="2.6198" stroke-miterlimit="10"/>
<path d="M802.322 48.4454C808.515 49.6872 815.065 46.4858 821.117 47.3713" stroke="#0000FF" stroke-width="2.6198" stroke-miterlimit="10"/>
<path d="M788.324 43.3734C793.176 45.8832 796.964 47.7956 802.319 48.4453" stroke="#0000FF" stroke-width="2.6198" stroke-miterlimit="10"/>
<path d="M773.574 37.8246C779.432 36.6614 783.791 40.4706 788.324 43.3733" stroke="#C8CEDB" stroke-width="2.6198" stroke-miterlimit="10"/>
<path d="M759.092 38.2701C767.166 35.0844 765.856 39.1923 773.574 37.8247" stroke="#0000FF" stroke-width="2.6198" stroke-miterlimit="10"/>
<path d="M745.699 29.9705C752.946 28.5768 755.277 33.9893 759.092 38.27" stroke="#C8CEDB" stroke-width="2.6198" stroke-miterlimit="10"/>
<path d="M723.75 24.7623C725.746 28.8073 731.929 27.2354 734.633 28.8387C736.037 32.6794 742.146 28.8807 745.704 29.9652" stroke="#0000FF" stroke-width="2.6198" stroke-miterlimit="10"/>
<path d="M604.518 35.8441C613.603 35.7707 618.649 31.7572 618.455 24.3432C618.376 21.2309 612.754 18.1343 614.2 16.2113C628.887 -3.36382 671.632 -0.267214 698.862 6.46043C706.554 14.1993 701.487 10.2277 712.155 15.2787C715.691 16.9553 714.004 20.7069 723.75 24.7623" stroke="#0000FF" stroke-width="2.6198" stroke-miterlimit="10" stroke-linejoin="round" stroke-dasharray="2.62 2.62"/>
<path d="M587.379 39.7371C593.729 39.5328 599.11 38.3591 604.518 35.8494" stroke="#0000FF" stroke-width="2.6198" stroke-miterlimit="10"/>
<path d="M571.686 37.9818C577.706 38.1862 581.337 40.8583 587.378 39.7371" stroke="#0000FF" stroke-width="2.6198" stroke-miterlimit="10"/>
<path d="M553.254 35.3358C557.776 42.5874 564.514 36.9863 571.687 37.9818" stroke="#C8CEDB" stroke-width="2.6198" stroke-miterlimit="10"/>
<path d="M538.986 30.9241C543.01 34.6651 548.25 33.6696 553.259 35.3306" stroke="#C8CEDB" stroke-width="2.6198" stroke-miterlimit="10"/>
<path d="M522.439 23.793C531.588 26.6852 534.611 22.6612 538.986 30.9241" stroke="#C8CEDB" stroke-width="2.6198" stroke-miterlimit="10"/>
<path d="M502.293 21.9696C508.664 19.1402 516.466 21.5295 522.434 23.793" stroke="#0000FF" stroke-width="2.6198" stroke-miterlimit="10"/>
<path d="M486.365 25.8574C490.284 24.2174 498.437 24.0864 502.294 21.9696" stroke="#0000FF" stroke-width="2.6198" stroke-miterlimit="10"/>
<path d="M472.82 28.5558C477.51 26.9577 481.911 26.4862 486.365 25.8574" stroke="#0000FF" stroke-width="2.6198" stroke-miterlimit="10"/>
<path d="M458.674 31.2489C463.426 31.8934 468.215 29.9967 472.821 28.5558" stroke="#C8CEDB" stroke-width="2.6198" stroke-miterlimit="10"/>
<path d="M443.684 31.972C448.478 29.5775 453.455 31.6157 458.674 31.2437" stroke="#0000FF" stroke-width="2.6198" stroke-miterlimit="10"/>
<path d="M429.422 41.4766C434.185 37.7565 433.965 37.3216 436.616 35.3044C438.696 33.722 440.64 31.8829 443.684 31.9668" stroke="#0000FF" stroke-width="2.6198" stroke-miterlimit="10"/>
<path d="M416.176 48.0262C427.263 50.1482 421.18 44.8457 429.421 41.4767" stroke="#0000FF" stroke-width="2.6198" stroke-miterlimit="10"/>
<path d="M410.355 38.6263C407.762 42.4303 412.373 47.2664 416.177 48.0262" stroke="#C8CEDB" stroke-width="2.6198" stroke-miterlimit="10"/>
<path d="M389.742 36.4781C394.149 38.4481 401.83 28.3357 403.921 34.2774C407.211 43.6458 407.279 36.3785 410.355 38.6315" stroke="#0000FF" stroke-width="2.6198" stroke-miterlimit="10"/>
<path d="M374.803 37.1959C382.248 38.1704 380.236 33.35 389.741 36.4781" stroke="#C8CEDB" stroke-width="2.6198" stroke-miterlimit="10"/>
<path d="M360.488 30.7721C372.246 26.7114 372.822 26.0407 374.803 37.1906" stroke="#C8CEDB" stroke-width="2.6198" stroke-miterlimit="10"/>
<path d="M341.768 44.2065C344.45 37.0912 349.768 43.7193 353.415 36.6458C351.309 32.779 357.507 36.6825 357.869 34.4766C358.623 32.6689 358.76 31.0604 360.494 30.767" stroke="#0000FF" stroke-width="2.6198" stroke-miterlimit="10"/>
<path d="M233.062 37.9347C272.239 26.3133 303.079 60.5226 341.774 44.2117" stroke="#0000FF" stroke-width="2.6198" stroke-miterlimit="10" stroke-linejoin="round" stroke-dasharray="2.62 2.62"/>
<path d="M205.586 37.3688C213.99 40.4916 224.428 39.0926 233.062 37.9347" stroke="#0000FF" stroke-width="2.6198" stroke-miterlimit="10"/>
<path d="M187.43 40.4706C194.702 40.9107 199.077 38.0604 205.585 37.3688" stroke="#0000FF" stroke-width="2.6198" stroke-miterlimit="10"/>
<path d="M169.977 46.4124C173.126 40.7851 181.001 38.8307 187.43 40.4759" stroke="#0000FF" stroke-width="2.6198" stroke-miterlimit="10"/>
<path d="M157.994 54.6909C161.809 52.024 166.797 49.7395 169.982 46.4124" stroke="#0000FF" stroke-width="2.6198" stroke-miterlimit="10"/>
<path d="M144.266 59.9358C148.856 59.2598 155.075 58.4058 157.993 54.6909" stroke="#C8CEDB" stroke-width="2.6198" stroke-miterlimit="10"/>
<path d="M128.014 63.7764C133.211 61.0151 138.44 60.5383 144.267 59.9358" stroke="#0000FF" stroke-width="2.6198" stroke-miterlimit="10"/>
<path d="M114.49 68.1724C118.97 67.8266 123.859 65.715 128.014 63.7764" stroke="#C8CEDB" stroke-width="2.6198" stroke-miterlimit="10"/>
<path d="M97.5137 73.6111C104.828 76.933 108.255 67.7533 114.49 68.1672" stroke="#C8CEDB" stroke-width="2.6198" stroke-miterlimit="10"/>
<path d="M82.1094 78.8769C85.6094 74.2608 92.5571 74.6118 97.5138 73.6111" stroke="#0000FF" stroke-width="2.6198" stroke-miterlimit="10"/>
<path d="M64.4199 85.6517C71.1004 84.6457 75.3183 75.2511 82.1088 78.8769" stroke="#0000FF" stroke-width="2.6198" stroke-miterlimit="10"/>
<path d="M38.8145 85.1068C49.98 89.7596 53.7421 90.797 64.4204 85.6517" stroke="#0000FF" stroke-width="2.6198" stroke-miterlimit="10"/>
<path d="M0.654297 71.2743C12.4486 78.0858 24.9922 84.3523 38.8143 85.1121" stroke="#0000FF" stroke-width="2.6198" stroke-miterlimit="10"/>
<path d="M116.371 66.5325C118.797 68.9165 114.998 72.668 112.645 70.2159C110.219 67.8319 114.013 64.0803 116.371 66.5325Z" fill="#404366"/>
<path d="M130.282 61.932C132.708 64.316 128.909 68.0676 126.557 65.6155C124.131 63.2314 127.93 59.4799 130.282 61.932Z" fill="#404366"/>
<path d="M159.979 52.8466C162.405 55.2306 158.607 58.9821 156.254 56.53C153.828 54.146 157.627 50.3944 159.979 52.8466Z" fill="#404366"/>
<path d="M376.753 35.1577C379.179 37.5417 375.38 41.2933 373.028 38.8412C370.602 36.4571 374.4 32.7056 376.753 35.1577Z" fill="#404366"/>
<path d="M391.974 34.5289C394.4 36.9129 390.601 40.6645 388.249 38.2123C385.823 35.8336 389.616 32.0768 391.974 34.5289Z" fill="#404366"/>
<path d="M417.836 46.2133C420.262 48.5973 416.463 52.3488 414.11 49.8967C411.684 47.5127 415.478 43.7611 417.836 46.2133Z" fill="#404366"/>
<path d="M474.685 26.7115C477.111 29.0955 473.312 32.8471 470.96 30.395C468.534 28.0162 472.327 24.2594 474.685 26.7115Z" fill="#404366"/>
<path d="M540.532 29.3051C542.958 31.6891 539.159 35.4407 536.807 32.9886C534.381 30.6045 538.18 26.8478 540.532 29.3051Z" fill="#404366"/>
<path d="M555.382 33.9159C557.808 36.2999 554.009 40.0514 551.656 37.5993C549.231 35.2205 553.029 31.4637 555.382 33.9159Z" fill="#404366"/>
<path d="M573.443 36.5357C575.869 38.9198 572.07 42.6713 569.718 40.2192C567.292 37.8404 571.085 34.0836 573.443 36.5357Z" fill="#404366"/>
<path d="M760.774 36.2003C763.2 38.5843 759.402 42.3359 757.049 39.8838C754.623 37.4997 758.422 33.7482 760.774 36.2003Z" fill="#404366"/>
<path d="M790.247 41.7334C792.673 44.1174 788.874 47.869 786.522 45.4168C784.096 43.0328 787.894 39.2813 790.247 41.7334Z" fill="#404366"/>
<path d="M856.778 77.0955C859.204 79.4795 855.406 83.231 853.053 80.7789C850.627 78.3949 854.426 74.6433 856.778 77.0955Z" fill="#404366"/>
<path d="M1023.73 51.1175C1026.16 53.5015 1022.36 57.2531 1020.01 54.801C1017.58 52.4222 1021.38 48.6654 1023.73 51.1175Z" fill="#404366"/>
<path d="M1036.58 39.8157C1039 42.1997 1035.2 45.9512 1032.85 43.4991C1030.42 41.1151 1034.22 37.3635 1036.58 39.8157Z" fill="#404366"/>
<path d="M83.6084 76.519C86.0343 78.903 82.2356 82.6546 79.8831 80.2025C77.4571 77.8237 81.2558 74.0669 83.6084 76.519Z" fill="white" stroke="#0000FF" stroke-width="1.57188" stroke-miterlimit="10" stroke-linecap="round" stroke-linejoin="round"/>
<path d="M99.4254 72.013C101.851 74.397 98.0527 78.1486 95.7001 75.6964C93.2742 73.3124 97.0676 69.5556 99.4254 72.013Z" fill="white" stroke="#0000FF" stroke-width="1.57188" stroke-miterlimit="10" stroke-linecap="round" stroke-linejoin="round"/>
<path d="M146.132 58.2434C148.558 60.6274 144.76 64.379 142.407 61.9268C139.981 59.548 143.775 55.7913 146.132 58.2434Z" fill="white" stroke="#0000FF" stroke-width="1.57188" stroke-miterlimit="10" stroke-linecap="round" stroke-linejoin="round"/>
<path d="M171.843 44.8981C174.269 47.2821 170.47 51.0336 168.117 48.5815C165.691 46.1975 169.49 42.4459 171.843 44.8981Z" fill="white" stroke="#0000FF" stroke-width="1.57188" stroke-miterlimit="10" stroke-linecap="round" stroke-linejoin="round"/>
<path d="M189.321 38.3906C191.747 40.7746 187.949 44.5261 185.596 42.074C183.17 39.69 186.969 35.9332 189.321 38.3906Z" fill="white" stroke="#0000FF" stroke-width="1.57188" stroke-miterlimit="10" stroke-linecap="round" stroke-linejoin="round"/>
<path d="M207.692 35.7707C210.118 38.1547 206.32 41.9063 203.967 39.4541C201.541 37.0701 205.34 33.3133 207.692 35.7707Z" fill="white" stroke="#0000FF" stroke-width="1.57188" stroke-miterlimit="10" stroke-linecap="round" stroke-linejoin="round"/>
<path d="M362.453 29.2894C364.879 31.6734 361.08 35.425 358.727 32.9728C356.301 30.5941 360.095 26.8373 362.453 29.2894Z" fill="white" stroke="#0000FF" stroke-width="1.57188" stroke-miterlimit="10" stroke-linecap="round" stroke-linejoin="round"/>
<path d="M411.214 37.1488C413.64 39.5328 409.841 43.2843 407.489 40.8322C405.063 38.4534 408.861 34.6966 411.214 37.1488Z" fill="white" stroke="#0000FF" stroke-width="1.57188" stroke-miterlimit="10" stroke-linecap="round" stroke-linejoin="round"/>
<path d="M431.548 39.7685C433.974 42.1525 430.175 45.9041 427.823 43.452C425.397 41.0732 429.195 37.3164 431.548 39.7685Z" fill="white" stroke="#0000FF" stroke-width="1.57188" stroke-miterlimit="10" stroke-linecap="round" stroke-linejoin="round"/>
<path d="M445.192 30.3163C447.618 32.7003 443.82 36.4519 441.467 33.9997C439.041 31.6157 442.84 27.8642 445.192 30.3163Z" fill="white" stroke="#0000FF" stroke-width="1.57188" stroke-miterlimit="10" stroke-linecap="round" stroke-linejoin="round"/>
<path d="M460.535 29.2894C462.961 31.6734 459.162 35.425 456.809 32.9728C454.384 30.5941 458.177 26.8373 460.535 29.2894Z" fill="white" stroke="#0000FF" stroke-width="1.57188" stroke-miterlimit="10" stroke-linecap="round" stroke-linejoin="round"/>
<path d="M488.534 24.0917C490.96 26.4757 487.161 30.2272 484.809 27.7751C482.383 25.3963 486.182 21.6395 488.534 24.0917Z" fill="white" stroke="#0000FF" stroke-width="1.57188" stroke-miterlimit="10" stroke-linecap="round" stroke-linejoin="round"/>
<path d="M504.854 20.0781C507.28 22.4621 503.482 26.2137 501.129 23.7615C498.703 21.3828 502.502 17.626 504.854 20.0781Z" fill="white" stroke="#0000FF" stroke-width="1.57188" stroke-miterlimit="10" stroke-linecap="round" stroke-linejoin="round"/>
<path d="M524.478 21.9539C526.903 24.3379 523.105 28.0894 520.752 25.6373C518.326 23.2533 522.125 19.5017 524.478 21.9539Z" fill="white" stroke="#0000FF" stroke-width="1.57188" stroke-miterlimit="10" stroke-linecap="round" stroke-linejoin="round"/>
<path d="M589.244 37.8928C591.67 40.2768 587.871 44.0284 585.518 41.5763C583.093 39.1922 586.886 35.4407 589.244 37.8928Z" fill="white" stroke="#0000FF" stroke-width="1.57188" stroke-miterlimit="10" stroke-linecap="round" stroke-linejoin="round"/>
<path d="M747.302 28.1262C749.728 30.5102 745.93 34.2618 743.577 31.8096C741.151 29.4309 744.945 25.6741 747.302 28.1262Z" fill="white" stroke="#0000FF" stroke-width="1.57188" stroke-miterlimit="10" stroke-linecap="round" stroke-linejoin="round"/>
<path d="M775.439 36.2003C777.865 38.5843 774.066 42.3359 771.714 39.8838C769.288 37.4997 773.081 33.7482 775.439 36.2003Z" fill="white" stroke="#0000FF" stroke-width="1.57188" stroke-miterlimit="10" stroke-linecap="round" stroke-linejoin="round"/>
<path d="M804.183 46.6167C806.609 49.0007 802.81 52.7523 800.457 50.3001C798.031 47.9161 801.83 44.1646 804.183 46.6167Z" fill="white" stroke="#0000FF" stroke-width="1.57188" stroke-miterlimit="10" stroke-linecap="round" stroke-linejoin="round"/>
<path d="M822.978 45.8779C825.403 48.2619 821.605 52.0135 819.252 49.5613C816.826 47.1826 820.625 43.4258 822.978 45.8779Z" fill="white" stroke="#0000FF" stroke-width="1.57188" stroke-miterlimit="10" stroke-linecap="round" stroke-linejoin="round"/>
<path d="M832.341 58.9874C834.767 61.3714 830.968 65.123 828.615 62.6708C826.19 60.2921 829.988 56.5353 832.341 58.9874Z" fill="white" stroke="#0000FF" stroke-width="1.57188" stroke-miterlimit="10" stroke-linecap="round" stroke-linejoin="round"/>
<path d="M849.736 64.227C852.162 66.611 848.363 70.3626 846.011 67.9105C843.585 65.5317 847.378 61.7749 849.736 64.227Z" fill="white" stroke="#0000FF" stroke-width="1.57188" stroke-miterlimit="10" stroke-linecap="round" stroke-linejoin="round"/>
<path d="M1000.37 66.7524C1002.8 69.1365 999.002 72.888 996.649 70.4359C994.223 68.0519 998.017 64.3003 1000.37 66.7524Z" fill="white" stroke="#0000FF" stroke-width="1.57188" stroke-miterlimit="10" stroke-linecap="round" stroke-linejoin="round"/>
<path d="M1016.06 66.7524C1018.49 69.1365 1014.69 72.888 1012.34 70.4359C1009.91 68.0519 1013.71 64.3003 1016.06 66.7524Z" fill="white" stroke="#0000FF" stroke-width="1.57188" stroke-miterlimit="10" stroke-linecap="round" stroke-linejoin="round"/>
<path d="M66.2848 83.9016C68.7107 86.2856 64.912 90.0372 62.5595 87.5851C60.1335 85.201 63.927 81.4495 66.2848 83.9016Z" fill="white" stroke="#0000FF" stroke-width="1.57188" stroke-miterlimit="10" stroke-linecap="round" stroke-linejoin="round"/>
<path d="M42.5456 81.4233C47.3974 86.1861 39.8 93.6945 35.0949 88.7902C30.243 84.0274 37.8352 76.5191 42.5456 81.4233Z" fill="white" stroke="#0000FF" stroke-width="2.09584" stroke-miterlimit="10" stroke-linecap="round" stroke-linejoin="round"/>
<path d="M236.834 33.9264C241.686 38.6892 234.088 46.1975 229.383 41.2932C224.531 36.5305 232.129 29.0221 236.834 33.9264Z" fill="white" stroke="#0000FF" stroke-width="2.09584" stroke-miterlimit="10" stroke-linecap="round" stroke-linejoin="round"/>
<path d="M345.923 39.4909C350.774 44.2536 343.177 51.762 338.472 46.8577C333.62 42.0897 341.212 34.5866 345.923 39.4909Z" fill="white" stroke="#0000FF" stroke-width="2.09584" stroke-miterlimit="10" stroke-linecap="round" stroke-linejoin="round"/>
<path d="M609.082 32.5432C613.934 37.306 606.337 44.8143 601.631 39.9101C596.779 35.1473 604.377 27.6389 609.082 32.5432Z" fill="white" stroke="#0000FF" stroke-width="2.09584" stroke-miterlimit="10" stroke-linecap="round" stroke-linejoin="round"/>
<path d="M727.366 22.0639C732.218 26.8267 724.62 34.3351 719.915 29.4308C715.063 24.668 722.655 17.1597 727.366 22.0639Z" fill="white" stroke="#0000FF" stroke-width="2.09584" stroke-miterlimit="10" stroke-linecap="round" stroke-linejoin="round"/>
<path d="M878.854 87.3807C883.705 92.1435 876.108 99.6519 871.403 94.7476C866.551 89.9848 874.148 82.4765 878.854 87.3807Z" fill="white" stroke="#0000FF" stroke-width="2.09584" stroke-miterlimit="10" stroke-linecap="round" stroke-linejoin="round"/>
<path d="M992.598 51.8982C997.45 56.661 989.853 64.1693 985.148 59.2651C980.296 54.497 987.888 46.9939 992.598 51.8982Z" fill="white" stroke="#0000FF" stroke-width="2.09584" stroke-miterlimit="10" stroke-linecap="round" stroke-linejoin="round"/>
</g>
<defs>
<clipPath id="clip0">
<rect width="1048.67" height="103" fill="white"/>
</clipPath>
</defs>
</svg>
