<svg width="1040" height="101" viewBox="0 0 1040 101" fill="none" xmlns="http://www.w3.org/2000/svg">
<g clip-path="url(#clip0)">
<path d="M1011.8 85.2274C1021.26 105 1029.18 102.447 1038.87 85.0873" stroke="#F90000" stroke-width="2.59412" stroke-miterlimit="10" stroke-linejoin="round" stroke-dasharray="2.59 2.59"/>
<path d="M896.674 18.7504C913.613 42.6993 942.886 32.6445 941.303 56.4534C940.956 61.6676 941.552 68.9052 946.896 67.3331C957.273 61.5534 965.88 67.909 975.852 67.7949C983.769 67.7067 985.45 63.8207 992.911 63.3434C1007.48 62.4198 996.75 80.558 1011.79 85.2274" stroke="#F90000" stroke-width="2.59412" stroke-miterlimit="10" stroke-linejoin="round" stroke-dasharray="2.59 2.59"/>
<path d="M873.893 12.6541C882.905 11.5439 890.287 13.0692 896.669 18.7503" stroke="#F90000" stroke-width="2.59412" stroke-miterlimit="10" stroke-linecap="round" stroke-linejoin="round"/>
<path d="M857.881 16.2444C864.719 15.3157 867.749 13.0018 873.892 12.6542" stroke="#C8CEDB" stroke-width="2.59412" stroke-miterlimit="10" stroke-linecap="round" stroke-linejoin="round"/>
<path d="M842.543 21.4067C850.019 17.7646 851.654 16.9345 857.879 16.2444" stroke="#F90000" stroke-width="2.59412" stroke-miterlimit="10" stroke-linecap="round" stroke-linejoin="round"/>
<path d="M824.334 26.9737C830.824 22.4288 834.975 25.4639 842.545 21.4067" stroke="#F90000" stroke-width="2.59412" stroke-miterlimit="10" stroke-linecap="round" stroke-linejoin="round"/>
<path d="M807.42 33.5524C813.464 34.3721 820.188 30.4498 824.339 26.9737" stroke="#F90000" stroke-width="2.59412" stroke-miterlimit="10" stroke-linecap="round" stroke-linejoin="round"/>
<path d="M791.434 29.1891C799.071 25.8998 802.77 28.551 807.419 33.5473" stroke="#C8CEDB" stroke-width="2.59412" stroke-miterlimit="10" stroke-linecap="round" stroke-linejoin="round"/>
<path d="M775.633 29.7702C781.521 30.5588 785.729 31.7365 791.436 29.1891" stroke="#F90000" stroke-width="2.59412" stroke-miterlimit="10" stroke-linecap="round" stroke-linejoin="round"/>
<path d="M759.295 34.3463C764.073 29.5938 769.552 28.992 775.633 29.7702" stroke="#C8CEDB" stroke-width="2.59412" stroke-miterlimit="10" stroke-linecap="round" stroke-linejoin="round"/>
<path d="M744.943 40.2193C750.158 38.3827 753.992 38.3204 759.294 34.3462" stroke="#C8CEDB" stroke-width="2.59412" stroke-miterlimit="10" stroke-linecap="round" stroke-linejoin="round"/>
<path d="M734.07 49.9058C737.666 45.9835 741.323 44.2143 744.945 40.2193" stroke="#C8CEDB" stroke-width="2.59412" stroke-miterlimit="10" stroke-linecap="round" stroke-linejoin="round"/>
<path d="M723.115 63.0528C728.573 58.7258 727.494 55.0889 734.062 49.9058" stroke="#C8CEDB" stroke-width="2.59412" stroke-miterlimit="10" stroke-linecap="round" stroke-linejoin="round"/>
<path d="M705.607 75.5565C713.411 73.8911 716.202 66.3058 723.118 63.0528" stroke="#F90000" stroke-width="2.59412" stroke-miterlimit="10" stroke-linecap="round" stroke-linejoin="round"/>
<path d="M624.867 72.2256C657.263 88.1224 671.458 100.636 705.607 75.5565" stroke="#F90000" stroke-width="2.59412" stroke-miterlimit="10" stroke-linejoin="round" stroke-dasharray="2.59 2.59"/>
<path d="M617.137 60.6662C619.731 64.5885 622.045 68.1944 624.867 72.2256" stroke="#F90000" stroke-width="2.59412" stroke-miterlimit="10" stroke-linecap="round" stroke-linejoin="round"/>
<path d="M618.263 46.1028C618.584 50.6321 617.215 56.3755 617.137 60.6662" stroke="#C8CEDB" stroke-width="2.59412" stroke-miterlimit="10" stroke-linecap="round" stroke-linejoin="round"/>
<path d="M621.048 32.4214C623.434 37.8016 614.454 41.0494 618.257 46.1028" stroke="#F90000" stroke-width="2.59412" stroke-miterlimit="10" stroke-linecap="round" stroke-linejoin="round"/>
<path d="M607.373 26.211C614.237 25.0541 625.568 20.2809 621.049 32.4214" stroke="#C8CEDB" stroke-width="2.59412" stroke-miterlimit="10" stroke-linecap="round" stroke-linejoin="round"/>
<path d="M590.174 29.2202C594.698 25.604 602.475 24.0476 607.373 26.2111" stroke="#C8CEDB" stroke-width="2.59412" stroke-miterlimit="10" stroke-linecap="round" stroke-linejoin="round"/>
<path d="M567.51 21.8218C576.537 22.2576 580.74 37.6563 590.172 29.2202" stroke="#F90000" stroke-width="2.59412" stroke-miterlimit="10" stroke-linecap="round" stroke-linejoin="round"/>
<path d="M549.855 25.988C558.618 13.4791 559.594 32.079 567.516 21.8218" stroke="#F90000" stroke-width="2.59412" stroke-miterlimit="10" stroke-linecap="round" stroke-linejoin="round"/>
<path d="M540.5 37.6252C542.824 33.0284 542.892 25.5158 549.854 25.9879" stroke="#C8CEDB" stroke-width="2.59412" stroke-miterlimit="10" stroke-linecap="round" stroke-linejoin="round"/>
<path d="M526.176 51.317C536.48 42.6734 524.184 45.6307 540.501 37.6304" stroke="#C8CEDB" stroke-width="2.59412" stroke-miterlimit="10" stroke-linecap="round" stroke-linejoin="round"/>
<path d="M435.953 59.1357C444.602 57.0811 437.65 62.866 447.782 65.0555C451.435 65.8441 459.383 56.0435 465.697 64.5626C469.614 69.8494 471.124 71.5563 482.865 73.2633C491.353 74.4981 488.51 79.2349 493.901 78.4619C503.784 71.8884 517.85 62.7052 526.177 51.3118" stroke="#F90000" stroke-width="2.59412" stroke-miterlimit="10" stroke-linejoin="round" stroke-dasharray="2.59 2.59"/>
<path d="M422.939 39.5604C441.342 39.2854 411.427 68.1736 435.952 59.1305" stroke="#F90000" stroke-width="2.59412" stroke-miterlimit="10" stroke-linecap="round" stroke-linejoin="round"/>
<path d="M397.328 32.1101C407.238 32.2398 401.09 32.4162 411.056 31.8559C415.964 31.5809 415.3 32.7067 416.141 33.8274C417.936 36.2244 419.197 39.8198 422.948 39.5604" stroke="#F90000" stroke-width="2.59412" stroke-miterlimit="10" stroke-linecap="round" stroke-linejoin="round"/>
<path d="M382.4 24.1098C387.002 28.3797 392.927 28.3434 397.322 32.1153" stroke="#F90000" stroke-width="2.59412" stroke-miterlimit="10" stroke-linecap="round" stroke-linejoin="round"/>
<path d="M369.152 14.8539C372.431 18.7659 377.983 22.1849 382.398 24.1046" stroke="#C8CEDB" stroke-width="2.59412" stroke-miterlimit="10" stroke-linecap="round" stroke-linejoin="round"/>
<path d="M360.922 4.14542C367.293 4.71094 369.923 8.90304 369.156 14.854" stroke="#C8CEDB" stroke-width="2.59412" stroke-miterlimit="10" stroke-linecap="round" stroke-linejoin="round"/>
<path d="M341.91 5.8731C347.918 -1.72769 352.006 1.93522 360.92 4.14541" stroke="#F90000" stroke-width="2.59412" stroke-miterlimit="10" stroke-linecap="round" stroke-linejoin="round"/>
<path d="M307.219 18.0188C309.849 9.98739 322.856 25.2097 317.938 11.2481C317.844 5.16232 319.868 8.12481 322.929 8.00548C323.614 6.97301 324.138 3.88082 325.922 5.15713C326.483 9.13133 330.083 3.98458 331.303 3.07145C336.122 1.93004 330.286 9.49969 341.913 5.87829" stroke="#C8CEDB" stroke-width="2.59412" stroke-miterlimit="10" stroke-linecap="round" stroke-linejoin="round"/>
<path d="M296.453 24.4263C299.784 20.9761 302.591 18.989 307.219 18.024" stroke="#C8CEDB" stroke-width="2.59412" stroke-miterlimit="10" stroke-linecap="round" stroke-linejoin="round"/>
<path d="M281.877 29.3707C288.175 31.1969 292.01 29.298 296.456 24.4211" stroke="#F90000" stroke-width="2.59412" stroke-miterlimit="10" stroke-linecap="round" stroke-linejoin="round"/>
<path d="M264.014 29.8739C270.167 27.643 275.324 30.4083 281.872 29.3707" stroke="#F90000" stroke-width="2.59412" stroke-miterlimit="10" stroke-linecap="round" stroke-linejoin="round"/>
<path d="M248.061 33.5472C253.353 35.5136 258.94 31.5031 264.014 29.874" stroke="#C8CEDB" stroke-width="2.59412" stroke-miterlimit="10" stroke-linecap="round" stroke-linejoin="round"/>
<path d="M233.502 39.742C241.788 42.7148 242.535 37.4176 248.06 33.5472" stroke="#C8CEDB" stroke-width="2.59412" stroke-miterlimit="10" stroke-linecap="round" stroke-linejoin="round"/>
<path d="M211.365 36.4682C221.067 37.1427 225.259 37.9417 233.503 39.7368" stroke="#C8CEDB" stroke-width="2.59412" stroke-miterlimit="10" stroke-linecap="round" stroke-linejoin="round"/>
<path d="M105.025 33.9467C121.524 37.6875 129.981 44.8732 147.071 33.4798C167.772 33.76 190.113 37.4644 211.364 36.4734" stroke="#F90000" stroke-width="2.59412" stroke-miterlimit="10" stroke-linejoin="round" stroke-dasharray="2.59 2.59"/>
<path d="M86.4121 35.7834C92.1918 35.7626 99.2478 31.5134 105.028 33.9467" stroke="#F90000" stroke-width="2.59412" stroke-miterlimit="10" stroke-linecap="round" stroke-linejoin="round"/>
<path d="M67.7754 41.2673C73.7211 36.0791 79.6876 33.5732 86.4116 35.7833" stroke="#F90000" stroke-width="2.59412" stroke-miterlimit="10" stroke-linecap="round" stroke-linejoin="round"/>
<path d="M53.4648 45.4387C57.0551 43.9237 64.7752 42.938 67.7688 41.2673" stroke="#C8CEDB" stroke-width="2.59412" stroke-miterlimit="10" stroke-linecap="round" stroke-linejoin="round"/>
<path d="M38.6309 51.9136C43.8243 49.9888 48.2084 47.2857 53.4692 45.4335" stroke="#F90000" stroke-width="2.59412" stroke-miterlimit="10" stroke-linecap="round" stroke-linejoin="round"/>
<path d="M19.709 54.5959C29.2502 56.4014 30.926 55.1874 38.6305 51.9136" stroke="#C8CEDB" stroke-width="2.59412" stroke-miterlimit="10" stroke-linecap="round" stroke-linejoin="round"/>
<path d="M1.29688 52.7437C4.00514 52.4221 14.4698 53.7295 19.71 54.6011" stroke="#C8CEDB" stroke-width="2.59412" stroke-miterlimit="10" stroke-linecap="round" stroke-linejoin="round"/>
<path d="M21.5311 52.9409C23.9332 55.3015 20.1717 59.0163 17.8422 56.5882C15.4401 54.2276 19.2015 50.5076 21.5311 52.9409Z" fill="#404366"/>
<path d="M40.4725 50.3468C42.8746 52.7074 39.1131 56.4222 36.7836 53.9941C34.3815 51.6335 38.1429 47.9135 40.4725 50.3468Z" fill="#404366"/>
<path d="M69.615 39.825C72.0172 42.1856 68.2557 45.9004 65.9262 43.4723C63.524 41.1117 67.2855 37.3969 69.615 39.825Z" fill="#404366"/>
<path d="M88.6932 33.7288C91.0953 36.0895 87.3338 39.8042 85.0043 37.3761C82.6022 35.0207 86.3636 31.3007 88.6932 33.7288Z" fill="white" stroke="#F90000" stroke-width="1.55647" stroke-miterlimit="10" stroke-linecap="round" stroke-linejoin="round"/>
<path d="M235.334 38.0247C237.736 40.3854 233.974 44.1001 231.645 41.672C229.243 39.3114 233.004 35.5966 235.334 38.0247Z" fill="#404366"/>
<path d="M250.234 32.0426C252.636 34.4033 248.875 38.1181 246.545 35.69C244.143 33.3293 247.905 29.6145 250.234 32.0426Z" fill="#404366"/>
<path d="M343.758 4.05203C346.16 6.41268 342.399 10.1275 340.069 7.69937C337.667 5.33872 341.424 1.61874 343.758 4.05203Z" fill="#404366"/>
<path d="M371.178 12.7475C373.58 15.1082 369.818 18.823 367.489 16.3949C365.087 14.0342 368.848 10.3194 371.178 12.7475Z" fill="#404366"/>
<path d="M384.246 22.8128C386.648 25.1734 382.887 28.8882 380.557 26.4601C378.155 24.0994 381.916 20.3847 384.246 22.8128Z" fill="#404366"/>
<path d="M542.347 35.8041C544.75 38.1648 540.988 41.8796 538.659 39.4515C536.256 37.0908 540.018 33.376 542.347 35.8041Z" fill="#404366"/>
<path d="M610.08 23.9749C612.483 26.3356 608.721 30.0504 606.392 27.6223C603.99 25.2616 607.746 21.5416 610.08 23.9749Z" fill="#404366"/>
<path d="M622.928 30.5951C625.33 32.9558 621.568 36.6705 619.239 34.2424C616.837 31.8818 620.598 28.167 622.928 30.5951Z" fill="#404366"/>
<path d="M735.787 47.9602C738.189 50.3208 734.428 54.0356 732.098 51.6075C729.696 49.2469 733.457 45.5321 735.787 47.9602Z" fill="#404366"/>
<path d="M551.707 23.9749C554.109 26.3356 550.348 30.0504 548.018 27.6223C545.616 25.2616 549.377 21.5416 551.707 23.9749Z" fill="#404366"/>
<path d="M619.353 58.6324C621.755 60.9931 617.994 64.7078 615.664 62.2797C613.262 59.9243 617.024 56.2043 619.353 58.6324Z" fill="#404366"/>
<path d="M746.832 38.5591C749.234 40.9197 745.473 44.6345 743.143 42.2064C740.741 39.8458 744.502 36.131 746.832 38.5591Z" fill="#404366"/>
<path d="M761.141 32.5511C763.543 34.9118 759.782 38.6265 757.452 36.1984C755.05 33.843 758.806 30.123 761.141 32.5511Z" fill="#404366"/>
<path d="M777.479 28.1359C779.881 30.4965 776.12 34.2113 773.79 31.7832C771.388 29.4278 775.144 25.7078 777.479 28.1359Z" fill="#404366"/>
<path d="M809.309 31.612C811.711 33.9727 807.95 37.6875 805.62 35.2593C803.218 32.8987 806.974 29.1839 809.309 31.612Z" fill="#404366"/>
<path d="M875.738 10.8331C878.14 13.1938 874.379 16.9085 872.049 14.4804C869.647 12.1198 873.409 8.39981 875.738 10.8331Z" fill="#404366"/>
<path d="M265.996 28.001C268.398 30.3616 264.637 34.0764 262.307 31.6483C259.905 29.2877 263.666 25.5729 265.996 28.001Z" fill="#404366"/>
<path d="M308.857 16.1977C311.259 18.5584 307.498 22.2731 305.168 19.845C302.766 17.4844 306.528 13.7696 308.857 16.1977Z" fill="#404366"/>
<path d="M362.768 2.40217C365.17 4.76283 361.409 8.47761 359.079 6.04951C356.677 3.68886 360.433 -0.0259276 362.768 2.40217Z" fill="white" stroke="#F90000" stroke-width="1.55647" stroke-miterlimit="10" stroke-linecap="round" stroke-linejoin="round"/>
<path d="M399.148 30.289C401.55 32.6497 397.789 36.3644 395.459 33.9363C393.057 31.5757 396.819 27.8557 399.148 30.289Z" fill="white" stroke="#F90000" stroke-width="1.55647" stroke-miterlimit="10" stroke-linecap="round" stroke-linejoin="round"/>
<path d="M425.026 37.3398C427.428 39.7005 423.666 43.4153 421.337 40.9872C418.935 38.6265 422.691 34.9117 425.026 37.3398Z" fill="white" stroke="#F90000" stroke-width="1.55647" stroke-miterlimit="10" stroke-linecap="round" stroke-linejoin="round"/>
<path d="M569.41 20.6856C571.812 23.0462 568.051 26.761 565.721 24.3329C563.319 21.9723 567.08 18.2523 569.41 20.6856Z" fill="white" stroke="#F90000" stroke-width="1.55647" stroke-miterlimit="10" stroke-linecap="round" stroke-linejoin="round"/>
<path d="M619.617 44.6138C622.019 46.9744 618.258 50.6892 615.928 48.2611C613.526 45.9057 617.287 42.1857 619.617 44.6138Z" fill="white" stroke="#F90000" stroke-width="1.55647" stroke-miterlimit="10" stroke-linecap="round" stroke-linejoin="round"/>
<path d="M725.056 61.2265C727.459 63.5872 723.697 67.302 721.368 64.8739C718.965 62.5184 722.727 58.7984 725.056 61.2265Z" fill="white" stroke="#F90000" stroke-width="1.55647" stroke-miterlimit="10" stroke-linecap="round" stroke-linejoin="round"/>
<path d="M793.277 27.3628C795.679 29.7235 791.918 33.4383 789.588 31.0102C787.186 28.6547 790.948 24.9347 793.277 27.3628Z" fill="white" stroke="#F90000" stroke-width="1.55647" stroke-miterlimit="10" stroke-linecap="round" stroke-linejoin="round"/>
<path d="M826.394 24.7687C828.796 27.1293 825.035 30.8441 822.705 28.416C820.303 26.0606 824.065 22.3406 826.394 24.7687Z" fill="white" stroke="#F90000" stroke-width="1.55647" stroke-miterlimit="10" stroke-linecap="round" stroke-linejoin="round"/>
<path d="M844.678 19.5805C847.08 21.9411 843.319 25.6559 840.989 23.2278C838.587 20.8723 842.343 17.1524 844.678 19.5805Z" fill="white" stroke="#F90000" stroke-width="1.55647" stroke-miterlimit="10" stroke-linecap="round" stroke-linejoin="round"/>
<path d="M859.912 14.3922C862.314 16.7529 858.553 20.4677 856.223 18.0396C853.821 15.6841 857.582 11.9641 859.912 14.3922Z" fill="white" stroke="#F90000" stroke-width="1.55647" stroke-miterlimit="10" stroke-linecap="round" stroke-linejoin="round"/>
<path d="M283.812 27.5496C286.214 29.9103 282.453 33.6251 280.123 31.197C277.726 28.8363 281.483 25.1215 283.812 27.5496Z" fill="white" stroke="#F90000" stroke-width="1.55647" stroke-miterlimit="10" stroke-linecap="round" stroke-linejoin="round"/>
<path d="M298.299 22.8128C300.701 25.1734 296.939 28.8882 294.61 26.4601C292.208 24.0994 295.969 20.3847 298.299 22.8128Z" fill="white" stroke="#F90000" stroke-width="1.55647" stroke-miterlimit="10" stroke-linecap="round" stroke-linejoin="round"/>
<path d="M55.3123 43.6643C57.7145 46.0249 53.953 49.7397 51.6235 47.3116C49.2213 44.9562 52.9828 41.2362 55.3123 43.6643Z" fill="white" stroke="#F90000" stroke-width="1.55647" stroke-miterlimit="10" stroke-linecap="round" stroke-linejoin="round"/>
<path d="M108.553 30.2164C113.357 34.9325 105.834 42.3672 101.175 37.511C96.371 32.7949 103.889 25.3602 108.553 30.2164Z" fill="white" stroke="#F90000" stroke-width="2.0753" stroke-miterlimit="10" stroke-linecap="round" stroke-linejoin="round"/>
<path d="M215.057 32.8105C219.861 37.5266 212.338 44.9614 207.679 40.1052C202.875 35.389 210.393 27.9543 215.057 32.8105Z" fill="white" stroke="#F90000" stroke-width="2.0753" stroke-miterlimit="10" stroke-linecap="round" stroke-linejoin="round"/>
<path d="M529.75 47.981C534.555 52.6971 527.032 60.1318 522.373 55.2756C517.568 50.5543 525.086 43.1248 529.75 47.981Z" fill="white" stroke="#F90000" stroke-width="2.0753" stroke-miterlimit="10" stroke-linecap="round" stroke-linejoin="round"/>
<path d="M593.863 26.1799C598.667 30.896 591.144 38.3308 586.485 33.4746C581.681 28.7533 589.204 21.3185 593.863 26.1799Z" fill="white" stroke="#F90000" stroke-width="2.0753" stroke-miterlimit="10" stroke-linecap="round" stroke-linejoin="round"/>
<path d="M628.556 68.5783C633.361 73.2944 625.838 80.7292 621.179 75.873C616.374 71.1568 623.897 63.7221 628.556 68.5783Z" fill="white" stroke="#F90000" stroke-width="2.0753" stroke-miterlimit="10" stroke-linecap="round" stroke-linejoin="round"/>
<path d="M709.726 72.0907C714.53 76.8068 707.008 84.2416 702.348 79.3854C697.544 74.6641 705.067 67.2293 709.726 72.0907Z" fill="white" stroke="#F90000" stroke-width="2.0753" stroke-miterlimit="10" stroke-linecap="round" stroke-linejoin="round"/>
<path d="M900.362 15.103C905.166 19.8191 897.643 27.2539 892.984 22.3977C888.18 17.6764 895.697 10.2416 900.362 15.103Z" fill="white" stroke="#F90000" stroke-width="2.0753" stroke-miterlimit="10" stroke-linecap="round" stroke-linejoin="round"/>
<path d="M1015.02 82.2441C1019.82 86.9603 1012.3 94.395 1007.64 89.5388C1002.84 84.8227 1010.35 77.3879 1015.02 82.2441Z" fill="white" stroke="#F90000" stroke-width="2.0753" stroke-miterlimit="10" stroke-linecap="round" stroke-linejoin="round"/>
<path d="M440.051 55.4883C444.855 60.2044 437.332 67.6392 432.673 62.783C427.869 58.0617 435.387 50.6269 440.051 55.4883Z" fill="white" stroke="#F90000" stroke-width="2.0753" stroke-miterlimit="10" stroke-linecap="round" stroke-linejoin="round"/>
</g>
<defs>
<clipPath id="clip0">
<rect width="1040" height="100.398" fill="white"/>
</clipPath>
</defs>
</svg>
