<svg width="1040" height="104" viewBox="0 0 1040 104" fill="none" xmlns="http://www.w3.org/2000/svg">
<g clip-path="url(#clip0)">
<path d="M1024.04 43.4823C1032.73 42.0187 1033.99 51.9058 1039.29 55.3728" stroke="#1B771B" stroke-width="2.59503" stroke-miterlimit="10" stroke-linejoin="round" stroke-dasharray="2.6 2.6"/>
<path d="M1005.16 67.9691C1022.46 64.8343 1013.26 51.0495 1024.05 43.4824" stroke="#1B771B" stroke-width="2.59503" stroke-miterlimit="10" stroke-linecap="round" stroke-linejoin="round"/>
<path d="M993.424 77.9911C998.692 75.9825 1001.67 71.8149 1005.17 67.9691" stroke="#1B771B" stroke-width="2.59503" stroke-miterlimit="10" stroke-linecap="round" stroke-linejoin="round"/>
<path d="M981.584 84.9717C985.466 82.2469 988.731 79.164 993.422 77.991" stroke="#C8CEDB" stroke-width="2.59503" stroke-miterlimit="10" stroke-linecap="round" stroke-linejoin="round"/>
<path d="M962.502 88.2726C969.223 89.5856 976.084 89.4403 981.586 84.9769" stroke="#C8CEDB" stroke-width="2.59503" stroke-miterlimit="10" stroke-linecap="round" stroke-linejoin="round"/>
<path d="M944.658 84.38C951.597 83.97 956.393 85.4699 962.502 88.2726" stroke="#C8CEDB" stroke-width="2.59503" stroke-miterlimit="10" stroke-linecap="round" stroke-linejoin="round"/>
<path d="M926.518 78.754C932.486 79.7453 937.645 84.1102 944.657 84.3749" stroke="#C8CEDB" stroke-width="2.59503" stroke-miterlimit="10" stroke-linecap="round" stroke-linejoin="round"/>
<path d="M911.732 80.0255C916.668 78.7903 921.754 78.4633 926.519 78.754" stroke="#1B771B" stroke-width="2.59503" stroke-miterlimit="10" stroke-linecap="round" stroke-linejoin="round"/>
<path d="M887.734 78.1468C895.68 78.5879 904.535 84.4164 911.733 80.0256" stroke="#C8CEDB" stroke-width="2.59503" stroke-miterlimit="10" stroke-linecap="round" stroke-linejoin="round"/>
<path d="M865.51 74.0051C870.601 78.209 880.426 76.9063 887.734 78.1467" stroke="#1B771B" stroke-width="2.59503" stroke-miterlimit="10" stroke-linecap="round" stroke-linejoin="round"/>
<path d="M722.035 50.7173C744.638 37.4982 765.383 18.9334 790.694 38.5362C809.472 52.0408 841.926 21.9228 865.509 74.0051" stroke="#1B771B" stroke-width="2.59503" stroke-miterlimit="10" stroke-linejoin="round" stroke-dasharray="2.6 2.6"/>
<path d="M712.596 67.3514C716.509 62.8309 716.758 54.2829 722.036 50.7173" stroke="#1B771B" stroke-width="2.59503" stroke-miterlimit="10" stroke-linecap="round" stroke-linejoin="round"/>
<path d="M696.873 77.3993C702.686 77.4512 708.867 71.3425 712.594 67.3462" stroke="#1B771B" stroke-width="2.59503" stroke-miterlimit="10" stroke-linecap="round" stroke-linejoin="round"/>
<path d="M682.535 72.6245C686.973 74.6071 692.786 78.2038 696.875 77.3994" stroke="#C8CEDB" stroke-width="2.59503" stroke-miterlimit="10" stroke-linecap="round" stroke-linejoin="round"/>
<path d="M670.598 67.3462C674.859 69.0485 679.234 70.5744 682.535 72.6193" stroke="#1B771B" stroke-width="2.59503" stroke-miterlimit="10" stroke-linecap="round" stroke-linejoin="round"/>
<path d="M655.184 62.0368C658.241 62.6908 666.929 65.566 670.598 67.3514" stroke="#C8CEDB" stroke-width="2.59503" stroke-miterlimit="10" stroke-linecap="round" stroke-linejoin="round"/>
<path d="M635.906 58.1235C642.461 58.9746 649.281 58.7567 655.187 62.0368" stroke="#C8CEDB" stroke-width="2.59503" stroke-miterlimit="10" stroke-linecap="round" stroke-linejoin="round"/>
<path d="M615.91 61.5489C623.135 57.6304 628.013 56.2602 635.907 58.1235" stroke="#C8CEDB" stroke-width="2.59503" stroke-miterlimit="10" stroke-linecap="round" stroke-linejoin="round"/>
<path d="M594.832 71.7941C601.865 70.9482 609.489 64.3049 615.914 61.5438" stroke="#1B771B" stroke-width="2.59503" stroke-miterlimit="10" stroke-linecap="round" stroke-linejoin="round"/>
<path d="M579.371 83.669C582.2 78.78 590.789 74.8303 594.832 71.7993" stroke="#1B771B" stroke-width="2.59503" stroke-miterlimit="10" stroke-linecap="round" stroke-linejoin="round"/>
<path d="M562.865 90.1618C566.005 88.1896 577.19 85.1222 579.37 83.6638" stroke="#1B771B" stroke-width="2.59503" stroke-miterlimit="10" stroke-linecap="round" stroke-linejoin="round"/>
<path d="M545.205 97.869C553.878 94.1114 555.455 93.5353 562.867 90.1669" stroke="#1B771B" stroke-width="2.59503" stroke-miterlimit="10" stroke-linecap="round" stroke-linejoin="round"/>
<path d="M520.146 99.7166C528.912 102.934 537.383 102.623 545.204 97.869" stroke="#C8CEDB" stroke-width="2.59503" stroke-miterlimit="10" stroke-linecap="round" stroke-linejoin="round"/>
<path d="M506.352 94.0179C511.884 96.997 513.898 97.2514 520.147 99.7166" stroke="#C8CEDB" stroke-width="2.59503" stroke-miterlimit="10" stroke-linecap="round" stroke-linejoin="round"/>
<path d="M488.197 89.9126C493.912 92.1755 501.385 92.4921 506.352 94.0231" stroke="#C8CEDB" stroke-width="2.59503" stroke-miterlimit="10" stroke-linecap="round" stroke-linejoin="round"/>
<path d="M469.393 85.9007C475.34 88.231 481.932 87.8003 488.196 89.9126" stroke="#1B771B" stroke-width="2.59503" stroke-miterlimit="10" stroke-linecap="round" stroke-linejoin="round"/>
<path d="M454.486 81.5359C459.209 83.4303 463.854 84.3852 469.392 85.8955" stroke="#1B771B" stroke-width="2.59503" stroke-miterlimit="10" stroke-linecap="round" stroke-linejoin="round"/>
<path d="M438.705 75.4064C444.098 77.8509 448.483 79.2885 454.493 81.5358" stroke="#C8CEDB" stroke-width="2.59503" stroke-miterlimit="10" stroke-linecap="round" stroke-linejoin="round"/>
<path d="M424.631 63.5315C426.94 69.9516 433.48 72.583 438.706 75.4063" stroke="#1B771B" stroke-width="2.59503" stroke-miterlimit="10" stroke-linecap="round" stroke-linejoin="round"/>
<path d="M328.566 36.7353C344.63 2.20061 385.174 3.19191 420.083 5.81808C438.803 7.22978 424.505 44.5723 424.624 63.5316" stroke="#1B771B" stroke-width="2.59503" stroke-miterlimit="10" stroke-linejoin="round" stroke-dasharray="2.6 2.6"/>
<path d="M306.484 38.531C311.192 46.669 323.767 43.5498 328.568 36.7352" stroke="#1B771B" stroke-width="2.59503" stroke-miterlimit="10" stroke-linecap="round" stroke-linejoin="round"/>
<path d="M303.789 24.0871C306.701 26.2825 305.476 36.1903 306.483 38.531" stroke="#1B771B" stroke-width="2.59503" stroke-miterlimit="10" stroke-linecap="round" stroke-linejoin="round"/>
<path d="M294.287 15.0771C297.557 17.6877 300.635 21.3779 303.79 24.0923" stroke="#C8CEDB" stroke-width="2.59503" stroke-miterlimit="10" stroke-linecap="round" stroke-linejoin="round"/>
<path d="M279.008 10.8265C284.696 10.1829 290.042 11.6102 294.293 15.0772" stroke="#1B771B" stroke-width="2.59503" stroke-miterlimit="10" stroke-linecap="round" stroke-linejoin="round"/>
<path d="M261.064 7.06372C267.121 8.83872 272.156 11.5427 279.006 10.8265" stroke="#C8CEDB" stroke-width="2.59503" stroke-miterlimit="10" stroke-linecap="round" stroke-linejoin="round"/>
<path d="M243.227 7.2557C249.346 8.31966 254.982 5.39247 261.065 7.06367" stroke="#1B771B" stroke-width="2.59503" stroke-miterlimit="10" stroke-linecap="round" stroke-linejoin="round"/>
<path d="M226.805 6.57062C231.637 7.32837 238.332 6.57062 243.226 7.25571" stroke="#C8CEDB" stroke-width="2.59503" stroke-miterlimit="10" stroke-linecap="round" stroke-linejoin="round"/>
<path d="M209.17 2.22654C216.805 0.186847 221.263 2.16426 226.806 6.57062" stroke="#1B771B" stroke-width="2.59503" stroke-miterlimit="10" stroke-linecap="round" stroke-linejoin="round"/>
<path d="M194.502 6.73673C199.785 5.10186 204.249 3.58636 209.174 2.22656" stroke="#C8CEDB" stroke-width="2.59503" stroke-miterlimit="10" stroke-linecap="round" stroke-linejoin="round"/>
<path d="M177.561 11.6154C183.944 13.0374 188.948 8.52727 194.496 6.73669" stroke="#C8CEDB" stroke-width="2.59503" stroke-miterlimit="10" stroke-linecap="round" stroke-linejoin="round"/>
<path d="M161.596 6.04126C166.422 8.43907 172.209 10.785 177.56 11.6154" stroke="#1B771B" stroke-width="2.59503" stroke-miterlimit="10" stroke-linecap="round" stroke-linejoin="round"/>
<path d="M140.221 8.49614C148.213 6.87685 153.32 2.64175 161.599 6.04124" stroke="#C8CEDB" stroke-width="2.59503" stroke-miterlimit="10" stroke-linecap="round" stroke-linejoin="round"/>
<path d="M122.002 8.56363C130.353 9.60683 132.636 10.1725 140.224 8.49615" stroke="#1B771B" stroke-width="2.59503" stroke-miterlimit="10" stroke-linecap="round" stroke-linejoin="round"/>
<path d="M106.641 9.503C111.405 8.11725 119.512 8.16916 122.003 8.5636" stroke="#C8CEDB" stroke-width="2.59503" stroke-miterlimit="10" stroke-linecap="round" stroke-linejoin="round"/>
<path d="M88.7773 25.888C96.8012 23.2774 96.8375 10.9251 106.642 9.50299" stroke="#1B771B" stroke-width="2.59503" stroke-miterlimit="10" stroke-linecap="round" stroke-linejoin="round"/>
<path d="M71.5352 31.2442C76.8861 28.2703 82.5329 27.497 88.7765 25.8881" stroke="#1B771B" stroke-width="2.59503" stroke-miterlimit="10" stroke-linecap="round" stroke-linejoin="round"/>
<path d="M55.8301 48.2312C60.662 44.2816 67.5959 35.5363 71.5352 31.2441" stroke="#1B771B" stroke-width="2.59503" stroke-miterlimit="10" stroke-linecap="round" stroke-linejoin="round"/>
<path d="M42.5684 55.6479C47.2809 54.7707 52.0869 51.2467 55.829 48.2365" stroke="#1B771B" stroke-width="2.59503" stroke-miterlimit="10" stroke-linecap="round" stroke-linejoin="round"/>
<path d="M29.3535 65.0937C41.0208 66.8895 36.5833 61.5697 42.5674 55.6478" stroke="#C8CEDB" stroke-width="2.59503" stroke-miterlimit="10" stroke-linecap="round" stroke-linejoin="round"/>
<path d="M12.5801 66.8272C24.6003 76.3043 20.5313 64.4969 29.3544 65.0937" stroke="#C8CEDB" stroke-width="2.59503" stroke-miterlimit="10" stroke-linecap="round" stroke-linejoin="round"/>
<path d="M1.29688 68.3427C4.49914 67.4345 9.23767 66.2563 12.5801 66.8221" stroke="#C8CEDB" stroke-width="2.59503" stroke-miterlimit="10" stroke-linecap="round" stroke-linejoin="round"/>
<path d="M13.8412 64.9121C16.2442 67.2736 12.4814 70.9897 10.1511 68.5607C7.74808 66.1993 11.5109 62.4832 13.8412 64.9121Z" fill="#404366"/>
<path d="M31.2025 63.4537C33.6055 65.8152 29.8427 69.5312 27.5124 67.1023C25.1094 64.7408 28.8722 61.0247 31.2025 63.4537Z" fill="#404366"/>
<path d="M44.9043 53.7794C47.3073 56.1409 43.5445 59.857 41.2142 57.428C38.8112 55.0717 42.5688 51.3505 44.9043 53.7794Z" fill="#404366"/>
<path d="M123.865 6.56542C126.268 8.9269 122.505 12.643 120.175 10.214C117.772 7.85775 121.534 4.13647 123.865 6.56542Z" fill="#404366"/>
<path d="M163.445 3.97039C165.848 6.33187 162.085 10.048 159.755 7.619C157.352 5.26271 161.114 1.54144 163.445 3.97039Z" fill="#404366"/>
<path d="M196.044 5.12257C198.447 7.48405 194.685 11.2001 192.354 8.77119C189.951 6.40971 193.714 2.69362 196.044 5.12257Z" fill="#404366"/>
<path d="M210.97 0.794081C213.373 3.15556 209.61 6.87164 207.28 4.44269C204.877 2.08122 208.64 -1.63487 210.97 0.794081Z" fill="#404366"/>
<path d="M245.074 5.41841C247.477 7.77989 243.714 11.496 241.384 9.06702C238.981 6.70555 242.739 2.98946 245.074 5.41841Z" fill="#404366"/>
<path d="M280.847 8.99438C283.25 11.3559 279.487 15.0719 277.157 12.643C274.754 10.2867 278.517 6.56543 280.847 8.99438Z" fill="#404366"/>
<path d="M305.673 22.4885C308.076 24.85 304.313 28.5661 301.983 26.1371C299.58 23.7808 303.343 20.0596 305.673 22.4885Z" fill="#404366"/>
<path d="M456.389 79.7141C458.792 82.0756 455.029 85.7917 452.699 83.3627C450.296 81.0013 454.053 77.2852 456.389 79.7141Z" fill="#404366"/>
<path d="M508.201 92.1962C510.604 94.5577 506.841 98.2738 504.511 95.8449C502.108 93.4834 505.866 89.7673 508.201 92.1962Z" fill="#404366"/>
<path d="M522.141 97.8949C524.544 100.256 520.781 103.972 518.451 101.544C516.048 99.182 519.805 95.466 522.141 97.8949Z" fill="#404366"/>
<path d="M547.053 96.4365C549.456 98.798 545.693 102.514 543.363 100.085C540.96 97.7237 544.717 94.0076 547.053 96.4365Z" fill="#404366"/>
<path d="M637.747 56.3485C640.15 58.7099 636.388 62.426 634.057 59.9971C631.654 57.6356 635.417 53.9195 637.747 56.3485Z" fill="#404366"/>
<path d="M657.029 59.722C659.432 62.0835 655.669 65.7996 653.339 63.3706C650.936 61.0091 654.698 57.2931 657.029 59.722Z" fill="#404366"/>
<path d="M672.205 65.2443C674.608 67.6057 670.845 71.3218 668.515 68.8929C666.112 66.5366 669.87 62.8153 672.205 65.2443Z" fill="#404366"/>
<path d="M698.443 75.6244C700.846 77.9859 697.083 81.7019 694.753 79.273C692.35 76.9167 696.112 73.1954 698.443 75.6244Z" fill="#404366"/>
<path d="M913.611 78.2194C916.014 80.5809 912.251 84.297 909.921 81.868C907.518 79.5117 911.28 75.7905 913.611 78.2194Z" fill="#404366"/>
<path d="M946.506 82.631C948.909 84.9925 945.146 88.7086 942.816 86.2796C940.413 83.9181 944.17 80.202 946.506 82.631Z" fill="#404366"/>
<path d="M964.349 86.0771C966.752 88.4386 962.989 92.1547 960.659 89.7258C958.256 87.3643 962.019 83.643 964.349 86.0771Z" fill="#404366"/>
<path d="M983.427 83.4821C985.83 85.8436 982.067 89.5597 979.737 87.1307C977.339 84.7693 981.097 81.048 983.427 83.4821Z" fill="#404366"/>
<path d="M995.267 76.2212C997.67 78.5827 993.907 82.2988 991.577 79.8698C989.174 77.5083 992.937 73.7923 995.267 76.2212Z" fill="#404366"/>
<path d="M57.7436 46.4095C60.1466 48.771 56.3838 52.4871 54.0534 50.0581C51.6504 47.6966 55.4132 43.9806 57.7436 46.4095Z" fill="white" stroke="#1B771B" stroke-width="1.55702" stroke-miterlimit="10" stroke-linecap="round" stroke-linejoin="round"/>
<path d="M90.6068 24.0144C93.0098 26.3759 89.247 30.092 86.9167 27.663C84.5137 25.3016 88.2765 21.5855 90.6068 24.0144Z" fill="white" stroke="#1B771B" stroke-width="1.55702" stroke-miterlimit="10" stroke-linecap="round" stroke-linejoin="round"/>
<path d="M142.066 6.56542C144.469 8.9269 140.706 12.643 138.376 10.214C135.973 7.85775 139.735 4.13647 142.066 6.56542Z" fill="white" stroke="#1B771B" stroke-width="1.55702" stroke-miterlimit="10" stroke-linecap="round" stroke-linejoin="round"/>
<path d="M179.347 10.3126C181.75 12.6741 177.987 16.3902 175.657 13.9612C173.254 11.5998 177.017 7.88369 179.347 10.3126Z" fill="white" stroke="#1B771B" stroke-width="1.55702" stroke-miterlimit="10" stroke-linecap="round" stroke-linejoin="round"/>
<path d="M228.73 4.62434C231.133 6.98582 227.371 10.7019 225.04 8.27296C222.637 5.91148 226.395 2.19539 228.73 4.62434Z" fill="white" stroke="#1B771B" stroke-width="1.55702" stroke-miterlimit="10" stroke-linecap="round" stroke-linejoin="round"/>
<path d="M262.652 5.41841C265.055 7.77989 261.292 11.496 258.962 9.06702C256.559 6.70555 260.321 2.98946 262.652 5.41841Z" fill="white" stroke="#1B771B" stroke-width="1.55702" stroke-miterlimit="10" stroke-linecap="round" stroke-linejoin="round"/>
<path d="M296.134 13.2139C298.537 15.5753 294.774 19.2914 292.444 16.8625C290.041 14.5062 293.804 10.7849 296.134 13.2139Z" fill="white" stroke="#1B771B" stroke-width="1.55702" stroke-miterlimit="10" stroke-linecap="round" stroke-linejoin="round"/>
<path d="M308.33 36.7041C310.733 39.0656 306.97 42.7817 304.64 40.3527C302.237 37.9964 305.995 34.2751 308.33 36.7041Z" fill="white" stroke="#1B771B" stroke-width="1.55702" stroke-miterlimit="10" stroke-linecap="round" stroke-linejoin="round"/>
<path d="M440.553 73.4757C442.956 75.8372 439.193 79.5533 436.863 77.1243C434.46 74.7629 438.217 71.0468 440.553 73.4757Z" fill="white" stroke="#1B771B" stroke-width="1.55702" stroke-miterlimit="10" stroke-linecap="round" stroke-linejoin="round"/>
<path d="M471.226 84.1309C473.629 86.4924 469.866 90.2084 467.536 87.7795C465.133 85.418 468.896 81.7019 471.226 84.1309Z" fill="white" stroke="#1B771B" stroke-width="1.55702" stroke-miterlimit="10" stroke-linecap="round" stroke-linejoin="round"/>
<path d="M490.045 88.2414C492.448 90.6029 488.685 94.319 486.355 91.89C483.952 89.5285 487.709 85.8073 490.045 88.2414Z" fill="white" stroke="#1B771B" stroke-width="1.55702" stroke-miterlimit="10" stroke-linecap="round" stroke-linejoin="round"/>
<path d="M564.47 88.2414C566.873 90.6029 563.11 94.319 560.78 91.89C558.377 89.5285 562.14 85.8073 564.47 88.2414Z" fill="white" stroke="#1B771B" stroke-width="1.55702" stroke-miterlimit="10" stroke-linecap="round" stroke-linejoin="round"/>
<path d="M580.949 81.4788C583.352 83.8402 579.589 87.5563 577.259 85.1274C574.856 82.7711 578.614 79.0498 580.949 81.4788Z" fill="white" stroke="#1B771B" stroke-width="1.55702" stroke-miterlimit="10" stroke-linecap="round" stroke-linejoin="round"/>
<path d="M617.783 59.722C620.186 62.0835 616.423 65.7996 614.092 63.3706C611.689 61.0091 615.452 57.2931 617.783 59.722Z" fill="white" stroke="#1B771B" stroke-width="1.55702" stroke-miterlimit="10" stroke-linecap="round" stroke-linejoin="round"/>
<path d="M684.392 70.4343C686.795 72.7958 683.032 76.5119 680.702 74.0829C678.299 71.7266 682.062 68.0054 684.392 70.4343Z" fill="white" stroke="#1B771B" stroke-width="1.55702" stroke-miterlimit="10" stroke-linecap="round" stroke-linejoin="round"/>
<path d="M714.344 65.2443C716.747 67.6057 712.984 71.3218 710.654 68.8929C708.251 66.5366 712.008 62.8153 714.344 65.2443Z" fill="white" stroke="#1B771B" stroke-width="1.55702" stroke-miterlimit="10" stroke-linecap="round" stroke-linejoin="round"/>
<path d="M889.005 76.2212C891.408 78.5827 887.645 82.2988 885.315 79.8698C882.912 77.5083 886.675 73.7923 889.005 76.2212Z" fill="white" stroke="#1B771B" stroke-width="1.55702" stroke-miterlimit="10" stroke-linecap="round" stroke-linejoin="round"/>
<path d="M1007.1 66.2874C1009.51 68.6489 1005.75 72.365 1003.41 69.936C1001.01 67.5746 1004.77 63.8585 1007.1 66.2874Z" fill="white" stroke="#1B771B" stroke-width="1.55702" stroke-miterlimit="10" stroke-linecap="round" stroke-linejoin="round"/>
<path d="M928.833 76.9738C931.236 79.3353 927.474 83.0514 925.143 80.6224C922.74 78.2661 926.503 74.5449 928.833 76.9738Z" fill="white" stroke="#1B771B" stroke-width="1.55702" stroke-miterlimit="10" stroke-linecap="round" stroke-linejoin="round"/>
<path d="M108.499 7.7176C110.902 10.0791 107.14 13.7952 104.809 11.3662C102.406 9.00474 106.169 5.28866 108.499 7.7176Z" fill="white" stroke="#1B771B" stroke-width="1.55702" stroke-miterlimit="10" stroke-linecap="round" stroke-linejoin="round"/>
<path d="M75.2234 28.0211C80.0294 32.7389 72.5038 40.1762 67.8432 35.3183C63.0372 30.6006 70.5628 23.1632 75.2234 28.0211Z" fill="white" stroke="#1B771B" stroke-width="2.07602" stroke-miterlimit="10" stroke-linecap="round" stroke-linejoin="round"/>
<path d="M332.188 33.1334C336.994 37.8511 329.469 45.2885 324.808 40.4306C320.002 35.7128 327.528 28.2755 332.188 33.1334Z" fill="white" stroke="#1B771B" stroke-width="2.07602" stroke-miterlimit="10" stroke-linecap="round" stroke-linejoin="round"/>
<path d="M428.195 59.6909C433.001 64.4087 425.475 71.846 420.814 66.9881C416.008 62.2704 423.529 54.833 428.195 59.6909Z" fill="white" stroke="#1B771B" stroke-width="2.07602" stroke-miterlimit="10" stroke-linecap="round" stroke-linejoin="round"/>
<path d="M598.917 68.6126C603.723 73.3303 596.197 80.7677 591.537 75.9098C586.731 71.1868 594.256 63.7547 598.917 68.6126Z" fill="white" stroke="#1B771B" stroke-width="2.07602" stroke-miterlimit="10" stroke-linecap="round" stroke-linejoin="round"/>
<path d="M725.73 47.9666C730.536 52.6843 723.01 60.1217 718.35 55.2638C713.544 50.5408 721.064 43.1035 725.73 47.9666Z" fill="white" stroke="#1B771B" stroke-width="2.07602" stroke-miterlimit="10" stroke-linecap="round" stroke-linejoin="round"/>
<path d="M868.95 71.2077C873.756 75.9254 866.23 83.3628 861.57 78.5049C856.764 73.7819 864.289 66.3498 868.95 71.2077Z" fill="white" stroke="#1B771B" stroke-width="2.07602" stroke-miterlimit="10" stroke-linecap="round" stroke-linejoin="round"/>
<path d="M1028.21 41.6346C1033.01 46.3524 1025.49 53.7898 1020.83 48.9319C1016.02 44.2141 1023.55 36.7768 1028.21 41.6346Z" fill="white" stroke="#1B771B" stroke-width="2.07602" stroke-miterlimit="10" stroke-linecap="round" stroke-linejoin="round"/>
</g>
<defs>
<clipPath id="clip0">
<rect width="1040" height="103.132" fill="white"/>
</clipPath>
</defs>
</svg>
