<svg width="1035" height="97" viewBox="0 0 1035 97" fill="none" xmlns="http://www.w3.org/2000/svg">
<g clip-path="url(#clip0)">
<path d="M1011.75 43.4114C1019.37 44.1295 1026.52 41.8977 1033.54 42.9103" stroke="#00B4CC" stroke-width="2.58309" stroke-miterlimit="10" stroke-linecap="round" stroke-linejoin="round"/>
<path d="M995.395 44.305C1005.38 48.1487 1003.47 42.533 1011.75 43.4113" stroke="#00B4CC" stroke-width="2.58309" stroke-miterlimit="10" stroke-linecap="round" stroke-linejoin="round"/>
<path d="M980.869 37.1499C987.947 38.8031 990.664 41.8408 995.391 44.305" stroke="#00B4CC" stroke-width="2.58309" stroke-miterlimit="10" stroke-linecap="round" stroke-linejoin="round"/>
<path d="M965.318 41.6394C973.011 46.2166 971.673 32.7794 980.869 37.15" stroke="#C8CEDB" stroke-width="2.58309" stroke-miterlimit="10" stroke-linecap="round" stroke-linejoin="round"/>
<path d="M951.742 32.8931C956.96 36.9847 959.481 39.2113 965.319 41.6394" stroke="#00B4CC" stroke-width="2.58309" stroke-miterlimit="10" stroke-linecap="round" stroke-linejoin="round"/>
<path d="M935.814 28.0265C941.668 29.814 946.741 29.5763 951.742 32.893" stroke="#C8CEDB" stroke-width="2.58309" stroke-miterlimit="10" stroke-linecap="round" stroke-linejoin="round"/>
<path d="M919.469 24.281C925.983 24.7925 929.822 26.2648 935.815 28.0265" stroke="#C8CEDB" stroke-width="2.58309" stroke-miterlimit="10" stroke-linecap="round" stroke-linejoin="round"/>
<path d="M903.283 22.0337C907.587 22.8861 914.84 23.6197 919.474 24.2758" stroke="#C8CEDB" stroke-width="2.58309" stroke-miterlimit="10" stroke-linecap="round" stroke-linejoin="round"/>
<path d="M881.209 22.3953C887.656 20.9023 896.981 20.1997 903.284 22.0337" stroke="#00B4CC" stroke-width="2.58309" stroke-miterlimit="10" stroke-linecap="round" stroke-linejoin="round"/>
<path d="M795.703 6.07026C807.477 -1.95796 824.422 10.1825 837.053 8.24522C853.952 4.12262 865.539 21.8167 881.208 22.3954" stroke="#00B4CC" stroke-width="2.58309" stroke-miterlimit="10" stroke-linejoin="round" stroke-dasharray="2.58 2.58"/>
<path d="M776.732 16.8521C779.92 17.1156 786.512 17.0278 787.483 14.0055C787.545 13.1635 791.595 17.0743 791.714 15.3849C790.459 10.0638 790.526 8.32276 795.708 6.07031" stroke="#00B4CC" stroke-width="2.58309" stroke-miterlimit="10" stroke-linecap="round" stroke-linejoin="round"/>
<path d="M757.881 15.6173C765.785 16.1029 769.779 15.9583 776.732 16.852" stroke="#00B4CC" stroke-width="2.58309" stroke-miterlimit="10" stroke-linecap="round" stroke-linejoin="round"/>
<path d="M740.506 15.5916C749.283 17.6012 748.565 18.2418 757.88 15.6174" stroke="#00B4CC" stroke-width="2.58309" stroke-miterlimit="10" stroke-linecap="round" stroke-linejoin="round"/>
<path d="M725.66 20.5717C730.966 18.9186 734.939 16.1753 740.513 15.5916" stroke="#C8CEDB" stroke-width="2.58309" stroke-miterlimit="10" stroke-linecap="round" stroke-linejoin="round"/>
<path d="M711.051 27.5047C717.751 26.6781 719.172 22.5761 725.656 20.5717" stroke="#C8CEDB" stroke-width="2.58309" stroke-miterlimit="10" stroke-linecap="round" stroke-linejoin="round"/>
<path d="M693.201 26.208C698.373 26.7195 706.251 27.825 711.05 27.5047" stroke="#00B4CC" stroke-width="2.58309" stroke-miterlimit="10" stroke-linecap="round" stroke-linejoin="round"/>
<path d="M675.967 23.9968C681.464 26.3991 687.208 24.9991 693.201 26.2079" stroke="#00B4CC" stroke-width="2.58309" stroke-miterlimit="10" stroke-linecap="round" stroke-linejoin="round"/>
<path d="M657.971 26.8899C667.626 23.7282 662.15 20.2101 675.964 24.002" stroke="#00B4CC" stroke-width="2.58309" stroke-miterlimit="10" stroke-linecap="round" stroke-linejoin="round"/>
<path d="M638.732 29.1682C644.813 28.8944 652.33 27.5977 657.971 26.8899" stroke="#C8CEDB" stroke-width="2.58309" stroke-miterlimit="10" stroke-linecap="round" stroke-linejoin="round"/>
<path d="M550.133 35.7189C607.033 35.1971 576.868 51.9045 638.733 29.1733" stroke="#00B4CC" stroke-width="2.58309" stroke-miterlimit="10" stroke-linejoin="round" stroke-dasharray="2.58 2.58"/>
<path d="M530.787 35.0009C536.821 35.6311 544.281 36.1219 550.14 35.719" stroke="#00B4CC" stroke-width="2.58309" stroke-miterlimit="10" stroke-linecap="round" stroke-linejoin="round"/>
<path d="M514.561 30.2221C520.796 29.318 525.038 34.944 530.788 35.0008" stroke="#00B4CC" stroke-width="2.58309" stroke-miterlimit="10" stroke-linecap="round" stroke-linejoin="round"/>
<path d="M497.879 32.6296C503.67 31.8908 509.601 30.7181 514.555 30.2273" stroke="#00B4CC" stroke-width="2.58309" stroke-miterlimit="10" stroke-linecap="round" stroke-linejoin="round"/>
<path d="M483.227 37.15C486.59 33.8643 493.063 33.8591 497.883 32.6244" stroke="#00B4CC" stroke-width="2.58309" stroke-miterlimit="10" stroke-linecap="round" stroke-linejoin="round"/>
<path d="M466.861 42.9567C472.771 43.5818 480.314 42.7345 483.223 37.1499" stroke="#C8CEDB" stroke-width="2.58309" stroke-miterlimit="10" stroke-linecap="round" stroke-linejoin="round"/>
<path d="M450.73 48.4948C455.855 46.4903 461.486 43.4423 466.859 42.9567" stroke="#C8CEDB" stroke-width="2.58309" stroke-miterlimit="10" stroke-linecap="round" stroke-linejoin="round"/>
<path d="M444.104 58.9047C435.972 53.1754 445.023 50.7835 450.732 48.4949" stroke="#C8CEDB" stroke-width="2.58309" stroke-miterlimit="10" stroke-linecap="round" stroke-linejoin="round"/>
<path d="M439.205 72.3625C440.724 67.7078 440.486 62.6501 444.108 58.9047" stroke="#C8CEDB" stroke-width="2.58309" stroke-miterlimit="10" stroke-linecap="round" stroke-linejoin="round"/>
<path d="M425.004 88.0212C428.961 82.1473 439.939 80.4063 439.201 72.3625" stroke="#00B4CC" stroke-width="2.58309" stroke-miterlimit="10" stroke-linecap="round" stroke-linejoin="round"/>
<path d="M277.535 86.4507C327.141 101.241 373.383 95.6516 425.003 88.0212" stroke="#00B4CC" stroke-width="2.58309" stroke-miterlimit="10" stroke-linejoin="round" stroke-dasharray="2.58 2.58"/>
<path d="M253.131 86.9208C261.862 85.2883 267.88 86.368 277.541 86.4507" stroke="#00B4CC" stroke-width="2.58309" stroke-miterlimit="10" stroke-linecap="round" stroke-linejoin="round"/>
<path d="M237.266 87.799C243.894 88.512 247.19 88.0677 253.131 86.9208" stroke="#00B4CC" stroke-width="2.58309" stroke-miterlimit="10" stroke-linecap="round" stroke-linejoin="round"/>
<path d="M219.41 86.5902C223.321 86.8743 232.088 87.3806 237.259 87.7991" stroke="#C8CEDB" stroke-width="2.58309" stroke-miterlimit="10" stroke-linecap="round" stroke-linejoin="round"/>
<path d="M203.16 79.2698C208.858 83.0411 212.563 84.7201 219.418 86.5902" stroke="#C8CEDB" stroke-width="2.58309" stroke-miterlimit="10" stroke-linecap="round" stroke-linejoin="round"/>
<path d="M191.438 71.4946C195.565 74.0622 198.701 77.5752 203.16 79.2697" stroke="#00B4CC" stroke-width="2.58309" stroke-miterlimit="10" stroke-linecap="round" stroke-linejoin="round"/>
<path d="M178.789 62.9963C184.095 64.1846 187.411 68.4518 191.436 71.4998" stroke="#00B4CC" stroke-width="2.58309" stroke-miterlimit="10" stroke-linecap="round" stroke-linejoin="round"/>
<path d="M162.248 58.3777C166.412 62.4486 173.014 63.6885 178.785 62.9962" stroke="#C8CEDB" stroke-width="2.58309" stroke-miterlimit="10" stroke-linecap="round" stroke-linejoin="round"/>
<path d="M146.779 55.4589C154.141 57.1999 155.644 56.9002 162.247 58.3777" stroke="#00B4CC" stroke-width="2.58309" stroke-miterlimit="10" stroke-linecap="round" stroke-linejoin="round"/>
<path d="M130.33 52.8137C136.7 53.5267 140.11 54.1828 146.779 55.4588" stroke="#00B4CC" stroke-width="2.58309" stroke-miterlimit="10" stroke-linecap="round" stroke-linejoin="round"/>
<path d="M115.607 50.8816C119.952 51.4705 126.002 52.2041 130.331 52.8189" stroke="#00B4CC" stroke-width="2.58309" stroke-miterlimit="10" stroke-linecap="round" stroke-linejoin="round"/>
<path d="M99.6641 46.7435C105.801 46.5265 109.32 51.6978 115.607 50.8816" stroke="#C8CEDB" stroke-width="2.58309" stroke-miterlimit="10" stroke-linecap="round" stroke-linejoin="round"/>
<path d="M83.4414 41.8977C89.9456 44.6978 92.8335 47.7561 99.6632 46.7436" stroke="#00B4CC" stroke-width="2.58309" stroke-miterlimit="10" stroke-linecap="round" stroke-linejoin="round"/>
<path d="M65.9648 36.7314C72.6292 38.8341 76.8913 40.2083 83.4368 41.8976" stroke="#C8CEDB" stroke-width="2.58309" stroke-miterlimit="10" stroke-linecap="round" stroke-linejoin="round"/>
<path d="M0.308594 1.99927C6.23419 3.45613 12.3406 7.2171 18.5607 8.31749C24.7291 9.95 24.3416 19.962 31.9979 19.8277C46.5613 22.6123 54.4914 29.8449 65.9706 36.7314" stroke="#00B4CC" stroke-width="2.58309" stroke-miterlimit="10" stroke-linejoin="round" stroke-dasharray="2.58 2.58"/>
<path d="M85.059 40.1721C87.4509 42.5228 83.7054 46.2217 81.3858 43.804C78.9939 41.4534 82.7393 37.7544 85.059 40.1721Z" fill="#404366"/>
<path d="M117.442 49.2594C119.834 51.61 116.088 55.309 113.769 52.8912C111.377 50.5458 115.122 46.8416 117.442 49.2594Z" fill="#404366"/>
<path d="M180.623 61.0435C183.015 63.3941 179.27 67.0931 176.95 64.6753C174.558 62.3298 178.304 58.6257 180.623 61.0435Z" fill="#404366"/>
<path d="M221.25 84.7871C223.642 87.1377 219.897 90.8367 217.577 88.419C215.185 86.0683 218.931 82.3694 221.25 84.7871Z" fill="#404366"/>
<path d="M239.1 86.1046C241.492 88.4552 237.746 92.1542 235.427 89.7364C233.035 87.391 236.78 83.6869 239.1 86.1046Z" fill="#404366"/>
<path d="M445.414 57.0862C447.806 59.4368 444.061 63.1358 441.741 60.718C439.349 58.3726 443.095 54.6684 445.414 57.0862Z" fill="#404366"/>
<path d="M452.342 46.6764C454.734 49.027 450.989 52.726 448.669 50.3082C446.277 47.9628 450.023 44.2586 452.342 46.6764Z" fill="#404366"/>
<path d="M468.7 40.9626C471.092 43.3132 467.346 47.0121 465.026 44.5944C462.634 42.2438 466.38 38.5448 468.7 40.9626Z" fill="#404366"/>
<path d="M484.879 35.3366C487.271 37.6872 483.526 41.3862 481.206 38.9684C478.814 36.6178 482.56 32.9188 484.879 35.3366Z" fill="#404366"/>
<path d="M659.522 25.0043C661.914 27.3549 658.168 31.0539 655.849 28.6361C653.457 26.2855 657.202 22.5865 659.522 25.0043Z" fill="#404366"/>
<path d="M727.705 18.8358C730.097 21.1865 726.352 24.8854 724.032 22.4677C721.64 20.1171 725.386 16.4181 727.705 18.8358Z" fill="#404366"/>
<path d="M742.346 13.6697C744.738 16.0203 740.993 19.7193 738.673 17.3015C736.281 14.9509 740.026 11.2519 742.346 13.6697Z" fill="#404366"/>
<path d="M920.926 22.385C923.318 24.7356 919.573 28.4346 917.253 26.0168C914.861 23.6714 918.607 19.9673 920.926 22.385Z" fill="#404366"/>
<path d="M937.282 26.2132C939.674 28.5638 935.928 32.2627 933.608 29.845C931.217 27.4944 934.962 23.7954 937.282 26.2132Z" fill="#404366"/>
<path d="M953.637 31.3793C956.029 33.7299 952.284 37.4289 949.964 35.0111C947.572 32.6605 951.318 28.9615 953.637 31.3793Z" fill="#404366"/>
<path d="M982.707 35.3366C985.099 37.6872 981.354 41.3862 979.034 38.9684C976.642 36.6178 980.388 32.9188 982.707 35.3366Z" fill="#404366"/>
<path d="M101.844 45.0541C104.236 47.4048 100.491 51.1037 98.171 48.686C95.779 46.3354 99.5245 42.6312 101.844 45.0541Z" fill="white" stroke="#00B4CC" stroke-width="1.54985" stroke-miterlimit="10" stroke-linecap="round" stroke-linejoin="round"/>
<path d="M132.166 50.8816C134.558 53.2322 130.813 56.9312 128.493 54.5134C126.101 52.1628 129.847 48.4639 132.166 50.8816Z" fill="white" stroke="#00B4CC" stroke-width="1.54985" stroke-miterlimit="10" stroke-linecap="round" stroke-linejoin="round"/>
<path d="M148.655 53.4646C151.047 55.8152 147.302 59.5142 144.982 57.0964C142.59 54.7458 146.33 51.0469 148.655 53.4646Z" fill="white" stroke="#00B4CC" stroke-width="1.54985" stroke-miterlimit="10" stroke-linecap="round" stroke-linejoin="round"/>
<path d="M164.086 56.8951C166.478 59.2457 162.733 62.9447 160.413 60.5269C158.021 58.1763 161.767 54.4722 164.086 56.8951Z" fill="white" stroke="#00B4CC" stroke-width="1.54985" stroke-miterlimit="10" stroke-linecap="round" stroke-linejoin="round"/>
<path d="M193.022 69.7484C195.414 72.099 191.668 75.798 189.349 73.3802C186.957 71.0348 190.702 67.3307 193.022 69.7484Z" fill="white" stroke="#00B4CC" stroke-width="1.54985" stroke-miterlimit="10" stroke-linecap="round" stroke-linejoin="round"/>
<path d="M205.292 77.6631C207.684 80.0137 203.938 83.7127 201.619 81.2949C199.227 78.9495 202.967 75.2453 205.292 77.6631Z" fill="white" stroke="#00B4CC" stroke-width="1.54985" stroke-miterlimit="10" stroke-linecap="round" stroke-linejoin="round"/>
<path d="M255.016 84.7871C257.408 87.1377 253.662 90.8367 251.343 88.419C248.951 86.0683 252.696 82.3694 255.016 84.7871Z" fill="white" stroke="#00B4CC" stroke-width="1.54985" stroke-miterlimit="10" stroke-linecap="round" stroke-linejoin="round"/>
<path d="M441.075 70.012C443.467 72.3626 439.721 76.0616 437.401 73.6438C435.009 71.2983 438.755 67.5942 441.075 70.012Z" fill="white" stroke="#00B4CC" stroke-width="1.54985" stroke-miterlimit="10" stroke-linecap="round" stroke-linejoin="round"/>
<path d="M499.739 30.9712C502.131 33.3218 498.385 37.0208 496.065 34.603C493.674 32.2524 497.419 28.5535 499.739 30.9712Z" fill="white" stroke="#00B4CC" stroke-width="1.54985" stroke-miterlimit="10" stroke-linecap="round" stroke-linejoin="round"/>
<path d="M516.178 28.3881C518.57 30.7387 514.825 34.4377 512.505 32.0199C510.113 29.6693 513.859 25.9703 516.178 28.3881Z" fill="white" stroke="#00B4CC" stroke-width="1.54985" stroke-miterlimit="10" stroke-linecap="round" stroke-linejoin="round"/>
<path d="M677.799 22.4212C680.191 24.7718 676.446 28.4708 674.126 26.053C671.734 23.7024 675.48 20.0034 677.799 22.4212Z" fill="white" stroke="#00B4CC" stroke-width="1.54985" stroke-miterlimit="10" stroke-linecap="round" stroke-linejoin="round"/>
<path d="M695.04 24.002C697.432 26.3526 693.686 30.0516 691.367 27.6338C688.975 25.2832 692.715 21.5842 695.04 24.002Z" fill="white" stroke="#00B4CC" stroke-width="1.54985" stroke-miterlimit="10" stroke-linecap="round" stroke-linejoin="round"/>
<path d="M713.153 25.8051C715.545 28.1557 711.799 31.8547 709.48 29.4369C707.088 27.0863 710.833 23.3873 713.153 25.8051Z" fill="white" stroke="#00B4CC" stroke-width="1.54985" stroke-miterlimit="10" stroke-linecap="round" stroke-linejoin="round"/>
<path d="M759.544 14.021C761.936 16.3716 758.19 20.0706 755.871 17.6528C753.479 15.3022 757.219 11.6033 759.544 14.021Z" fill="white" stroke="#00B4CC" stroke-width="1.54985" stroke-miterlimit="10" stroke-linecap="round" stroke-linejoin="round"/>
<path d="M778.474 15.142C780.866 17.4926 777.12 21.1916 774.8 18.7738C772.409 16.4232 776.149 12.7242 778.474 15.142Z" fill="white" stroke="#00B4CC" stroke-width="1.54985" stroke-miterlimit="10" stroke-linecap="round" stroke-linejoin="round"/>
<path d="M905.118 20.3083C907.509 22.6589 903.764 26.3578 901.444 23.9401C899.052 21.5895 902.798 17.8905 905.118 20.3083Z" fill="white" stroke="#00B4CC" stroke-width="1.54985" stroke-miterlimit="10" stroke-linecap="round" stroke-linejoin="round"/>
<path d="M967.159 40.074C969.55 42.4246 965.805 46.1236 963.485 43.7058C961.093 41.3552 964.839 37.6562 967.159 40.074Z" fill="white" stroke="#00B4CC" stroke-width="1.54985" stroke-miterlimit="10" stroke-linecap="round" stroke-linejoin="round"/>
<path d="M997.229 42.6571C999.621 45.0077 995.875 48.7067 993.556 46.289C991.164 43.9383 994.909 40.2394 997.229 42.6571Z" fill="white" stroke="#00B4CC" stroke-width="1.54985" stroke-miterlimit="10" stroke-linecap="round" stroke-linejoin="round"/>
<path d="M1013.58 41.9958C1015.98 44.3464 1012.23 48.0453 1009.91 45.6276C1007.52 43.277 1011.26 39.578 1013.58 41.9958Z" fill="white" stroke="#00B4CC" stroke-width="1.54985" stroke-miterlimit="10" stroke-linecap="round" stroke-linejoin="round"/>
<path d="M532.619 33.5542C535.011 35.9048 531.266 39.6038 528.946 37.186C526.554 34.8354 530.3 31.1365 532.619 33.5542Z" fill="white" stroke="#00B4CC" stroke-width="1.54985" stroke-miterlimit="10" stroke-linecap="round" stroke-linejoin="round"/>
<path d="M69.6394 34.0812C74.4233 38.7773 66.9323 46.1804 62.2931 41.3449C57.5092 36.6437 65.0002 29.2457 69.6394 34.0812Z" fill="white" stroke="#00B4CC" stroke-width="2.06647" stroke-miterlimit="10" stroke-linecap="round" stroke-linejoin="round"/>
<path d="M281.214 82.9739C285.998 87.6699 278.507 95.073 273.868 90.2375C269.084 85.5363 276.57 78.1332 281.214 82.9739Z" fill="white" stroke="#00B4CC" stroke-width="2.06647" stroke-miterlimit="10" stroke-linecap="round" stroke-linejoin="round"/>
<path d="M428.678 83.4129C433.462 88.109 425.971 95.5121 421.332 90.6766C416.548 85.9754 424.039 78.5722 428.678 83.4129Z" fill="white" stroke="#00B4CC" stroke-width="2.06647" stroke-miterlimit="10" stroke-linecap="round" stroke-linejoin="round"/>
<path d="M553.812 31.7409C558.596 36.437 551.105 43.8401 546.466 39.0046C541.682 34.3034 549.167 26.9002 553.812 31.7409Z" fill="white" stroke="#00B4CC" stroke-width="2.06647" stroke-miterlimit="10" stroke-linecap="round" stroke-linejoin="round"/>
<path d="M642.097 25.7688C646.881 30.4649 639.39 37.868 634.751 33.0325C629.967 28.3364 637.453 20.9333 642.097 25.7688Z" fill="white" stroke="#00B4CC" stroke-width="2.06647" stroke-miterlimit="10" stroke-linecap="round" stroke-linejoin="round"/>
<path d="M799.566 2.60893C804.35 7.30497 796.859 14.7081 792.219 9.87256C787.436 5.17651 794.921 -2.22661 799.566 2.60893Z" fill="white" stroke="#00B4CC" stroke-width="2.06647" stroke-miterlimit="10" stroke-linecap="round" stroke-linejoin="round"/>
<path d="M884.622 18.4948C889.406 23.1909 881.915 30.594 877.276 25.7585C872.492 21.0573 879.978 13.6541 884.622 18.4948Z" fill="white" stroke="#00B4CC" stroke-width="2.06647" stroke-miterlimit="10" stroke-linecap="round" stroke-linejoin="round"/>
</g>
<defs>
<clipPath id="clip0">
<rect width="1034.84" height="97" fill="white"/>
</clipPath>
</defs>
</svg>
