<svg width="1035" height="102" viewBox="0 0 1035 102" fill="none" xmlns="http://www.w3.org/2000/svg">
<g clip-path="url(#clip0)">
<path d="M1018 75.5834C1026.02 78.3606 1027.8 71.3918 1033.71 75.8725" stroke="#C8CEDB" stroke-width="2.58105" stroke-miterlimit="10" stroke-linecap="round" stroke-linejoin="round"/>
<path d="M1002.29 78.7943C1006.58 74.52 1012.57 74.7885 1018.01 75.5834" stroke="#C8CEDB" stroke-width="2.58105" stroke-miterlimit="10" stroke-linecap="round" stroke-linejoin="round"/>
<path d="M988.959 85.2521C993.775 83.8686 998.979 83.0685 1002.29 78.7994" stroke="#FFA506" stroke-width="2.58105" stroke-miterlimit="10" stroke-linecap="round" stroke-linejoin="round"/>
<path d="M964.496 82.4903C972.265 81.8192 980.819 86.6819 988.959 85.252" stroke="#C8CEDB" stroke-width="2.58105" stroke-miterlimit="10" stroke-linecap="round" stroke-linejoin="round"/>
<path d="M846.264 65.5999C867.062 64.2784 873.876 85.3759 894.503 87.1414C917.413 92.6906 911.373 83.1924 928.506 84.137C941.391 86.7749 950.868 87.0536 964.496 82.4903" stroke="#FFA506" stroke-width="2.58105" stroke-miterlimit="10" stroke-linejoin="round" stroke-dasharray="2.58 2.58"/>
<path d="M826.82 60.7527C834.016 63.2099 841.248 64.836 846.261 65.6" stroke="#FFA506" stroke-width="2.58105" stroke-miterlimit="10" stroke-linecap="round" stroke-linejoin="round"/>
<path d="M814.236 53.7116C818.242 56.7727 820.741 58.7085 826.822 60.7527" stroke="#C8CEDB" stroke-width="2.58105" stroke-miterlimit="10" stroke-linecap="round" stroke-linejoin="round"/>
<path d="M796.441 49.933C799.11 44.8225 810.085 50.062 814.235 53.7116" stroke="#FFA506" stroke-width="2.58105" stroke-miterlimit="10" stroke-linecap="round" stroke-linejoin="round"/>
<path d="M783.877 49.9433C791.341 49.9433 796.441 49.933 796.441 49.933" stroke="#FFA506" stroke-width="2.58105" stroke-miterlimit="10" stroke-linecap="round" stroke-linejoin="round"/>
<path d="M766.482 49.3652C771.5 50.3666 779.006 49.7988 783.879 49.9433" stroke="#C8CEDB" stroke-width="2.58105" stroke-miterlimit="10" stroke-linecap="round" stroke-linejoin="round"/>
<path d="M753.617 39.7172C757.618 43.7746 759.445 47.8888 766.481 49.3651" stroke="#FFA506" stroke-width="2.58105" stroke-miterlimit="10" stroke-linecap="round" stroke-linejoin="round"/>
<path d="M739.152 29.8421C746.57 31.8037 747.174 34.266 753.617 39.7172" stroke="#C8CEDB" stroke-width="2.58105" stroke-miterlimit="10" stroke-linecap="round" stroke-linejoin="round"/>
<path d="M723.383 31.6128C727.6 27.4624 732.024 29.4344 739.153 29.8422" stroke="#C8CEDB" stroke-width="2.58105" stroke-miterlimit="10" stroke-linecap="round" stroke-linejoin="round"/>
<path d="M706.164 38.7261C715.017 39.8308 716.643 40.0011 723.385 31.6127" stroke="#FFA506" stroke-width="2.58105" stroke-miterlimit="10" stroke-linecap="round" stroke-linejoin="round"/>
<path d="M691.818 49.8039C692.531 42.8558 699.727 40.1198 706.164 38.7261" stroke="#FFA506" stroke-width="2.58105" stroke-miterlimit="10" stroke-linecap="round" stroke-linejoin="round"/>
<path d="M675.629 60.9128C683.016 60.1127 688.746 55.8488 691.817 49.804" stroke="#C8CEDB" stroke-width="2.58105" stroke-miterlimit="10" stroke-linecap="round" stroke-linejoin="round"/>
<path d="M568.785 91.1832C597.941 72.2229 599.252 89.1545 625.635 84.8906C647.972 81.6901 630.963 58.4607 675.63 60.9127" stroke="#FFA506" stroke-width="2.58105" stroke-miterlimit="10" stroke-linejoin="round" stroke-dasharray="2.58 2.58"/>
<path d="M535.973 97.5223C547.247 102.086 558.841 97.574 568.783 91.1833" stroke="#FFA506" stroke-width="2.58105" stroke-miterlimit="10" stroke-linecap="round" stroke-linejoin="round"/>
<path d="M525.689 91.4827C529.36 93.3462 533.169 94.6212 535.967 97.5223" stroke="#FFA506" stroke-width="2.58105" stroke-miterlimit="10" stroke-linecap="round" stroke-linejoin="round"/>
<path d="M510.705 85.1591C517.276 89.6914 517.782 89.7792 525.691 91.4827" stroke="#C8CEDB" stroke-width="2.58105" stroke-miterlimit="10" stroke-linecap="round" stroke-linejoin="round"/>
<path d="M496.484 84.3693C500.635 85.8147 506.649 85.3191 510.706 85.1643" stroke="#C8CEDB" stroke-width="2.58105" stroke-miterlimit="10" stroke-linecap="round" stroke-linejoin="round"/>
<path d="M475.387 76.4919C476.538 77.4005 478.52 76.8585 479.393 77.9167C479.744 78.5671 478.866 78.8717 480.446 78.7994C483.538 78.4174 482.516 78.6652 484.926 79.4137C495.555 82.6916 488.416 82.1909 496.484 84.3745" stroke="#FFA506" stroke-width="2.58105" stroke-miterlimit="10" stroke-linecap="round" stroke-linejoin="round"/>
<path d="M460.492 73.8283C469.908 81.5869 464.849 74.7626 475.38 76.4919" stroke="#FFA506" stroke-width="2.58105" stroke-miterlimit="10" stroke-linecap="round" stroke-linejoin="round"/>
<path d="M446.086 70.6174C451.305 70.9323 455.553 72.7804 460.493 73.8283" stroke="#C8CEDB" stroke-width="2.58105" stroke-miterlimit="10" stroke-linecap="round" stroke-linejoin="round"/>
<path d="M429.779 66.7459C435.742 67.9642 440.14 69.8277 446.086 70.6175" stroke="#C8CEDB" stroke-width="2.58105" stroke-miterlimit="10" stroke-linecap="round" stroke-linejoin="round"/>
<path d="M408.303 69.3941C417.636 70.7517 419.355 62.5233 429.782 66.7459" stroke="#FFA506" stroke-width="2.58105" stroke-miterlimit="10" stroke-linecap="round" stroke-linejoin="round"/>
<path d="M394.973 72.1609C399.887 71.3969 403.578 70.029 408.306 69.394" stroke="#FFA506" stroke-width="2.58105" stroke-miterlimit="10" stroke-linecap="round" stroke-linejoin="round"/>
<path d="M372.631 67.8661C382.32 68.4288 386.176 74.0864 394.972 72.1609" stroke="#C8CEDB" stroke-width="2.58105" stroke-miterlimit="10" stroke-linecap="round" stroke-linejoin="round"/>
<path d="M353.947 65.1354C365.263 72.5636 360.632 70.8705 372.629 67.8661" stroke="#C8CEDB" stroke-width="2.58105" stroke-miterlimit="10" stroke-linecap="round" stroke-linejoin="round"/>
<path d="M334.324 50.3615C341.123 56.1482 345.985 61.6045 353.95 65.1354" stroke="#FFA506" stroke-width="2.58105" stroke-miterlimit="10" stroke-linecap="round" stroke-linejoin="round"/>
<path d="M222.416 28.2986C229.746 26.7913 221.962 20.6226 229.932 23.2243C235.796 24.8762 258.876 14.8824 265.607 10.6856C269.644 8.17164 280.934 1.2854 287.484 1.2854C306.548 1.2854 286.364 10.35 285.899 13.437C284.268 24.2516 326.277 27.5501 334.315 50.3563" stroke="#FFA506" stroke-width="2.58105" stroke-miterlimit="10" stroke-linecap="round" stroke-linejoin="round"/>
<path d="M206.074 31.0707C212.429 31.5714 216.502 28.056 222.417 28.2986" stroke="#FFA506" stroke-width="2.58105" stroke-miterlimit="10" stroke-linecap="round" stroke-linejoin="round"/>
<path d="M188.859 29.5995C193.794 29.7234 201.646 30.6267 206.08 31.0758" stroke="#C8CEDB" stroke-width="2.58105" stroke-miterlimit="10" stroke-linecap="round" stroke-linejoin="round"/>
<path d="M172.826 22.6152C177.364 26.4506 182.717 28.4019 188.86 29.5943" stroke="#C8CEDB" stroke-width="2.58105" stroke-miterlimit="10" stroke-linecap="round" stroke-linejoin="round"/>
<path d="M156.344 20.3697C162.151 19.4302 167.902 20.2819 172.826 22.6152" stroke="#C8CEDB" stroke-width="2.58105" stroke-miterlimit="10" stroke-linecap="round" stroke-linejoin="round"/>
<path d="M142.643 25.3098C149.126 26.5797 150.757 21.5725 156.343 20.3697" stroke="#FFA506" stroke-width="2.58105" stroke-miterlimit="10" stroke-linecap="round" stroke-linejoin="round"/>
<path d="M126.562 30.89C129.376 25.3923 136.918 25.5833 142.642 25.3098" stroke="#C8CEDB" stroke-width="2.58105" stroke-miterlimit="10" stroke-linecap="round" stroke-linejoin="round"/>
<path d="M119.51 43.2739C122.132 39.4281 126.979 35.5617 126.561 30.89" stroke="#C8CEDB" stroke-width="2.58105" stroke-miterlimit="10" stroke-linecap="round" stroke-linejoin="round"/>
<path d="M98.2891 36.8522C105.222 37.4252 100.173 42.6647 104.484 42.1846C109.759 42.3601 113.517 44.234 119.51 43.2738" stroke="#FFA506" stroke-width="2.58105" stroke-miterlimit="10" stroke-linecap="round" stroke-linejoin="round"/>
<path d="M80.9609 36.1657C87.3464 37.7763 92.1369 37.8073 98.2901 36.8523" stroke="#C8CEDB" stroke-width="2.58105" stroke-miterlimit="10" stroke-linecap="round" stroke-linejoin="round"/>
<path d="M65.1445 35.3604C70.8435 36.5838 75.2364 35.0455 80.9612 36.1605" stroke="#C8CEDB" stroke-width="2.58105" stroke-miterlimit="10" stroke-linecap="round" stroke-linejoin="round"/>
<path d="M48.9355 32.4954C54.6397 41.9524 52.2496 33.404 65.1445 35.3604" stroke="#C8CEDB" stroke-width="2.58105" stroke-miterlimit="10" stroke-linecap="round" stroke-linejoin="round"/>
<path d="M31.6328 33.0891C37.3008 30.9055 44.9613 25.5731 48.931 32.4955" stroke="#FFA506" stroke-width="2.58105" stroke-miterlimit="10" stroke-linecap="round" stroke-linejoin="round"/>
<path d="M17.6836 45.3439C26.9547 37.7969 17.8694 36.9864 31.6316 33.0891" stroke="#FFA506" stroke-width="2.58105" stroke-miterlimit="10" stroke-linecap="round" stroke-linejoin="round"/>
<path d="M1.28906 51.2958C7.82944 53.3348 11.9591 47.5481 17.6839 45.3387" stroke="#C8CEDB" stroke-width="2.58105" stroke-miterlimit="10" stroke-linecap="round" stroke-linejoin="round"/>
<path d="M19.5222 43.5269C21.9123 45.8756 18.1698 49.5717 15.852 47.1558C13.4619 44.8122 17.2045 41.111 19.5222 43.5269Z" fill="#404366"/>
<path d="M67.0535 33.9202C69.4435 36.2689 65.701 39.965 63.3832 37.5491C60.9932 35.2004 64.7357 31.5043 67.0535 33.9202Z" fill="#404366"/>
<path d="M83.3094 34.4467C85.6994 36.7954 81.9569 40.4915 79.6391 38.0756C77.2491 35.7269 80.9916 32.0308 83.3094 34.4467Z" fill="#404366"/>
<path d="M100.18 35.1488C102.57 37.4975 98.828 41.1936 96.5102 38.7777C94.1201 36.429 97.8627 32.7329 100.18 35.1488Z" fill="#404366"/>
<path d="M128.389 28.6909C130.779 31.0397 127.037 34.7357 124.719 32.3199C122.329 29.9711 126.072 26.2751 128.389 28.6909Z" fill="#404366"/>
<path d="M144.384 23.5289C146.774 25.8776 143.031 29.5737 140.713 27.1578C138.323 24.8091 142.066 21.113 144.384 23.5289Z" fill="#404366"/>
<path d="M174.567 20.8394C176.957 23.1882 173.215 26.8842 170.897 24.4684C168.507 22.1196 172.249 18.4184 174.567 20.8394Z" fill="#404366"/>
<path d="M190.339 28.0973C192.729 30.446 188.987 34.1421 186.669 31.7262C184.279 29.3827 188.016 25.6814 190.339 28.0973Z" fill="#404366"/>
<path d="M207.911 29.2846C210.301 31.6334 206.558 35.3294 204.241 32.9136C201.851 30.5648 205.593 26.8688 207.911 29.2846Z" fill="#404366"/>
<path d="M374.466 66.049C376.856 68.3978 373.113 72.0938 370.795 69.678C368.405 67.3344 372.148 63.6332 374.466 66.049Z" fill="#404366"/>
<path d="M396.802 70.4007C399.192 72.7495 395.449 76.4455 393.131 74.0297C390.741 71.6809 394.484 67.9849 396.802 70.4007Z" fill="#404366"/>
<path d="M448.296 68.6301C450.686 70.9788 446.943 74.6749 444.625 72.259C442.235 69.9154 445.978 66.2142 448.296 68.6301Z" fill="#404366"/>
<path d="M512.542 83.7292C514.932 86.0779 511.19 89.774 508.872 87.3581C506.482 85.0094 510.219 81.3082 512.542 83.7292Z" fill="#404366"/>
<path d="M527.173 89.7895C529.563 92.1383 525.821 95.8343 523.503 93.4185C521.113 91.0697 524.85 87.3736 527.173 89.7895Z" fill="#404366"/>
<path d="M693.898 47.6823C696.288 50.031 692.545 53.7271 690.228 51.3112C687.838 48.9625 691.575 45.2664 693.898 47.6823Z" fill="#404366"/>
<path d="M740.991 28.2418C743.381 30.5906 739.639 34.2867 737.321 31.8708C734.931 29.522 738.673 25.826 740.991 28.2418Z" fill="#404366"/>
<path d="M755.487 37.9053C757.877 40.254 754.135 43.9501 751.817 41.5342C749.427 39.1855 753.169 35.4894 755.487 37.9053Z" fill="#404366"/>
<path d="M785.716 48.1211C788.106 50.4698 784.363 54.1659 782.045 51.75C779.655 49.4013 783.398 45.7052 785.716 48.1211Z" fill="#404366"/>
<path d="M828.678 58.9925C831.069 61.3412 827.326 65.0373 825.008 62.6214C822.618 60.2726 826.361 56.5766 828.678 58.9925Z" fill="#404366"/>
<path d="M990.79 83.4504C993.18 85.7992 989.437 89.4953 987.12 87.0794C984.73 84.7358 988.472 81.0346 990.79 83.4504Z" fill="#404366"/>
<path d="M1019.97 73.787C1022.36 76.1358 1018.62 79.8318 1016.3 77.416C1013.91 75.0672 1017.65 71.3711 1019.97 73.787Z" fill="#404366"/>
<path d="M462.177 72.1455C464.567 74.4942 460.824 78.1903 458.506 75.7744C456.116 73.4257 459.859 69.7296 462.177 72.1455Z" fill="#404366"/>
<path d="M33.3933 31.3391C35.7834 33.6879 32.0409 37.3839 29.7231 34.9681C27.333 32.6193 31.0756 28.9233 33.3933 31.3391Z" fill="white" stroke="#FFA506" stroke-width="1.54863" stroke-miterlimit="10" stroke-linecap="round" stroke-linejoin="round"/>
<path d="M50.7683 30.6784C53.1584 33.0272 49.4159 36.7232 47.0981 34.3074C44.708 31.9638 48.4506 28.2625 50.7683 30.6784Z" fill="white" stroke="#FFA506" stroke-width="1.54863" stroke-miterlimit="10" stroke-linecap="round" stroke-linejoin="round"/>
<path d="M121.349 41.4568C123.739 43.8055 119.997 47.5016 117.679 45.0857C115.289 42.7421 119.026 39.0409 121.349 41.4568Z" fill="white" stroke="#FFA506" stroke-width="1.54863" stroke-miterlimit="10" stroke-linecap="round" stroke-linejoin="round"/>
<path d="M158.178 18.8365C160.569 21.1852 156.826 24.8813 154.508 22.4654C152.118 20.1218 155.861 16.4206 158.178 18.8365Z" fill="white" stroke="#FFA506" stroke-width="1.54863" stroke-miterlimit="10" stroke-linecap="round" stroke-linejoin="round"/>
<path d="M224.255 26.7035C226.645 29.0523 222.902 32.7483 220.584 30.3325C218.194 27.9837 221.937 24.2876 224.255 26.7035Z" fill="white" stroke="#FFA506" stroke-width="1.54863" stroke-miterlimit="10" stroke-linecap="round" stroke-linejoin="round"/>
<path d="M355.787 63.3389C358.177 65.6877 354.434 69.3838 352.116 66.9679C349.726 64.6191 353.464 60.9231 355.787 63.3389Z" fill="white" stroke="#FFA506" stroke-width="1.54863" stroke-miterlimit="10" stroke-linecap="round" stroke-linejoin="round"/>
<path d="M410.093 67.8197C412.483 70.1684 408.74 73.8645 406.422 71.4486C404.032 69.0999 407.775 65.4038 410.093 67.8197Z" fill="white" stroke="#FFA506" stroke-width="1.54863" stroke-miterlimit="10" stroke-linecap="round" stroke-linejoin="round"/>
<path d="M431.616 65.2386C434.006 67.5874 430.264 71.2834 427.946 68.8676C425.556 66.5188 429.298 62.8227 431.616 65.2386Z" fill="white" stroke="#FFA506" stroke-width="1.54863" stroke-miterlimit="10" stroke-linecap="round" stroke-linejoin="round"/>
<path d="M538.063 95.9427C540.453 98.2915 536.711 101.988 534.393 99.5717C532.003 97.2229 535.745 93.5217 538.063 95.9427Z" fill="white" stroke="#FFA506" stroke-width="1.54863" stroke-miterlimit="10" stroke-linecap="round" stroke-linejoin="round"/>
<path d="M707.993 37.0071C710.383 39.3558 706.64 43.0519 704.323 40.636C701.933 38.2873 705.675 34.5861 707.993 37.0071Z" fill="white" stroke="#FFA506" stroke-width="1.54863" stroke-miterlimit="10" stroke-linecap="round" stroke-linejoin="round"/>
<path d="M725.22 30.1518C727.61 32.5006 723.868 36.1966 721.55 33.7808C719.16 31.432 722.897 27.736 725.22 30.1518Z" fill="white" stroke="#FFA506" stroke-width="1.54863" stroke-miterlimit="10" stroke-linecap="round" stroke-linejoin="round"/>
<path d="M768.32 47.6823C770.71 50.031 766.967 53.7271 764.649 51.3112C762.259 48.9625 765.997 45.2664 768.32 47.6823Z" fill="white" stroke="#FFA506" stroke-width="1.54863" stroke-miterlimit="10" stroke-linecap="round" stroke-linejoin="round"/>
<path d="M798.28 48.1211C800.67 50.4698 796.928 54.1659 794.61 51.75C792.22 49.4013 795.962 45.7052 798.28 48.1211Z" fill="white" stroke="#FFA506" stroke-width="1.54863" stroke-miterlimit="10" stroke-linecap="round" stroke-linejoin="round"/>
<path d="M815.94 51.812C818.33 54.1607 814.588 57.8568 812.27 55.4409C809.88 53.0922 813.622 49.3961 815.94 51.812Z" fill="white" stroke="#FFA506" stroke-width="1.54863" stroke-miterlimit="10" stroke-linecap="round" stroke-linejoin="round"/>
<path d="M1004.15 77.003C1006.54 79.3517 1002.8 83.0478 1000.48 80.6319C998.09 78.2884 1001.83 74.5871 1004.15 77.003Z" fill="white" stroke="#FFA506" stroke-width="1.54863" stroke-miterlimit="10" stroke-linecap="round" stroke-linejoin="round"/>
<path d="M477.22 74.7265C479.61 77.0753 475.867 80.7713 473.549 78.3555C471.159 76.0067 474.902 72.3107 477.22 74.7265Z" fill="white" stroke="#FFA506" stroke-width="1.54863" stroke-miterlimit="10" stroke-linecap="round" stroke-linejoin="round"/>
<path d="M498.347 82.4696C500.737 84.8184 496.995 88.5144 494.677 86.0986C492.287 83.7498 496.024 80.0538 498.347 82.4696Z" fill="white" stroke="#FFA506" stroke-width="1.54863" stroke-miterlimit="10" stroke-linecap="round" stroke-linejoin="round"/>
<path d="M337.677 46.304C342.457 50.9964 334.972 58.3937 330.337 53.5619C325.557 48.8696 333.042 41.4723 337.677 46.304Z" fill="white" stroke="#FFA506" stroke-width="2.06484" stroke-miterlimit="10" stroke-linecap="round" stroke-linejoin="round"/>
<path d="M572.453 87.6317C577.233 92.3241 569.748 99.7214 565.112 94.8896C560.332 90.1921 567.817 82.7948 572.453 87.6317Z" fill="white" stroke="#FFA506" stroke-width="2.06484" stroke-miterlimit="10" stroke-linecap="round" stroke-linejoin="round"/>
<path d="M679.298 57.0515C684.078 61.7439 676.593 69.1412 671.958 64.3094C667.178 59.6171 674.663 52.2198 679.298 57.0515Z" fill="white" stroke="#FFA506" stroke-width="2.06484" stroke-miterlimit="10" stroke-linecap="round" stroke-linejoin="round"/>
<path d="M849.931 62.2136C854.711 66.906 847.226 74.3033 842.591 69.4715C837.816 64.7792 845.295 57.3819 849.931 62.2136Z" fill="white" stroke="#FFA506" stroke-width="2.06484" stroke-miterlimit="10" stroke-linecap="round" stroke-linejoin="round"/>
<path d="M968.201 79.0575C972.981 83.7499 965.496 91.1472 960.86 86.3154C956.08 81.6179 963.565 74.2258 968.201 79.0575Z" fill="white" stroke="#FFA506" stroke-width="2.06484" stroke-miterlimit="10" stroke-linecap="round" stroke-linejoin="round"/>
</g>
<defs>
<clipPath id="clip0">
<rect width="1035" height="101.131" fill="white"/>
</clipPath>
</defs>
</svg>
