<svg width="1040" height="101" viewBox="0 0 1040 101" fill="none" xmlns="http://www.w3.org/2000/svg">
<g clip-path="url(#clip0)">
<path d="M968.467 52.1697C983.056 50.0715 994.279 37.0927 1010.65 31.9043C1025.17 21.9378 1020.26 12.2673 1039.21 2.5033" stroke="#7937C4" stroke-width="2.5968" stroke-miterlimit="10" stroke-linejoin="round" stroke-dasharray="2.6 2.6"/>
<path d="M950.721 60.3756C955.639 59.4823 965.351 53.8161 968.467 52.1646" stroke="#7937C4" stroke-width="2.5968" stroke-miterlimit="10" stroke-linecap="round" stroke-linejoin="round"/>
<path d="M933.541 65.7562C934.471 65.3251 944.572 62.2401 950.721 60.3756" stroke="#C8CEDB" stroke-width="2.5968" stroke-miterlimit="10" stroke-linecap="round" stroke-linejoin="round"/>
<path d="M914.9 60.4535C918.313 59.124 932.242 66.3535 933.54 65.7562" stroke="#C8CEDB" stroke-width="2.5968" stroke-miterlimit="10" stroke-linecap="round" stroke-linejoin="round"/>
<path d="M900.654 73.4324C907.816 70.7057 905.027 63.9021 914.906 60.4536" stroke="#C8CEDB" stroke-width="2.5968" stroke-miterlimit="10" stroke-linecap="round" stroke-linejoin="round"/>
<path d="M883.998 73.2817C891.144 79.3946 895.762 75.032 900.654 73.4323" stroke="#7937C4" stroke-width="2.5968" stroke-miterlimit="10" stroke-linecap="round" stroke-linejoin="round"/>
<path d="M870.719 65.964C873.638 66.8053 879.241 70.4201 883.999 73.2817" stroke="#C8CEDB" stroke-width="2.5968" stroke-miterlimit="10" stroke-linecap="round" stroke-linejoin="round"/>
<path d="M856.629 70.8511C860.467 69.6826 867.193 65.6004 870.714 65.964" stroke="#7937C4" stroke-width="2.5968" stroke-miterlimit="10" stroke-linecap="round" stroke-linejoin="round"/>
<path d="M842.777 74.9489C850.313 72.7883 854.453 71.7964 856.629 70.8511" stroke="#C8CEDB" stroke-width="2.5968" stroke-miterlimit="10" stroke-linecap="round" stroke-linejoin="round"/>
<path d="M825.451 78.143C830.51 76.159 836.259 77.5405 842.772 74.9541" stroke="#C8CEDB" stroke-width="2.5968" stroke-miterlimit="10" stroke-linecap="round" stroke-linejoin="round"/>
<path d="M800.396 86.8318C810.129 83.9078 817.068 80.7761 825.456 78.1429" stroke="#7937C4" stroke-width="2.5968" stroke-miterlimit="10" stroke-linecap="round" stroke-linejoin="round"/>
<path d="M779.861 85.4452C787.278 87.7044 792.399 89.4546 800.397 86.8319" stroke="#7937C4" stroke-width="2.5968" stroke-miterlimit="10" stroke-linecap="round" stroke-linejoin="round"/>
<path d="M763.461 83.5807C769.766 83.8403 775.609 84.4168 779.862 85.4452" stroke="#C8CEDB" stroke-width="2.5968" stroke-miterlimit="10" stroke-linecap="round" stroke-linejoin="round"/>
<path d="M750.086 85.3569C757.393 84.2091 757.757 83.5651 763.459 83.5807" stroke="#C8CEDB" stroke-width="2.5968" stroke-miterlimit="10" stroke-linecap="round" stroke-linejoin="round"/>
<path d="M730.248 91.3451C739.804 88.6029 744.665 86.2034 750.088 85.3621" stroke="#C8CEDB" stroke-width="2.5968" stroke-miterlimit="10" stroke-linecap="round" stroke-linejoin="round"/>
<path d="M599.545 57.7269C636.69 80.3398 686.626 116.035 730.242 91.3451" stroke="#7937C4" stroke-width="2.5968" stroke-miterlimit="10" stroke-linejoin="round" stroke-dasharray="2.6 2.6"/>
<path d="M577.326 52.8241C585.22 53.8421 593.177 52.8968 599.544 57.7217" stroke="#7937C4" stroke-width="2.5968" stroke-miterlimit="10" stroke-linecap="round" stroke-linejoin="round"/>
<path d="M559.158 53.2241C562.659 53.5668 572.594 51.4946 577.331 52.8241" stroke="#7937C4" stroke-width="2.5968" stroke-miterlimit="10" stroke-linecap="round" stroke-linejoin="round"/>
<path d="M541.865 52.2269C544.15 52.0815 556.615 53.0579 559.16 53.224" stroke="#7937C4" stroke-width="2.5968" stroke-miterlimit="10" stroke-linecap="round" stroke-linejoin="round"/>
<path d="M523.801 50.8298C529.036 53.894 536.494 51.4375 541.864 52.2269" stroke="#C8CEDB" stroke-width="2.5968" stroke-miterlimit="10" stroke-linecap="round" stroke-linejoin="round"/>
<path d="M510.381 44.3066C516.982 44.6026 519.345 47.8123 523.801 50.8298" stroke="#7937C4" stroke-width="2.5968" stroke-miterlimit="10" stroke-linecap="round" stroke-linejoin="round"/>
<path d="M495.947 48.5602C501.354 45.9426 504.948 44.6234 510.38 44.3066" stroke="#C8CEDB" stroke-width="2.5968" stroke-miterlimit="10" stroke-linecap="round" stroke-linejoin="round"/>
<path d="M482.371 55.5975C487.393 51.4374 490.4 51.7231 495.952 48.5654" stroke="#7937C4" stroke-width="2.5968" stroke-miterlimit="10" stroke-linecap="round" stroke-linejoin="round"/>
<path d="M469.693 65.0759C475.167 60.5107 476.217 60.8483 482.371 55.5975" stroke="#C8CEDB" stroke-width="2.5968" stroke-miterlimit="10" stroke-linecap="round" stroke-linejoin="round"/>
<path d="M455.506 75.3228C461.795 72.6222 463.042 70.5343 469.695 65.0759" stroke="#C8CEDB" stroke-width="2.5968" stroke-miterlimit="10" stroke-linecap="round" stroke-linejoin="round"/>
<path d="M432.83 76.2888C440.34 82.2719 445.871 78.1897 455.505 75.3228" stroke="#7937C4" stroke-width="2.5968" stroke-miterlimit="10" stroke-linecap="round" stroke-linejoin="round"/>
<path d="M415.879 74.736C419.301 76.4343 428.608 73.2142 432.831 76.2889" stroke="#7937C4" stroke-width="2.5968" stroke-miterlimit="10" stroke-linecap="round" stroke-linejoin="round"/>
<path d="M398.775 71.5159C402.151 72.5754 412.809 72.4404 415.878 74.736" stroke="#7937C4" stroke-width="2.5968" stroke-miterlimit="10" stroke-linecap="round" stroke-linejoin="round"/>
<path d="M379.393 70.794C384.42 68.9035 397.435 70.768 398.775 71.5159" stroke="#C8CEDB" stroke-width="2.5968" stroke-miterlimit="10" stroke-linecap="round" stroke-linejoin="round"/>
<path d="M364.004 78.2468C372.444 73.6245 370.013 73.7388 379.393 70.794" stroke="#7937C4" stroke-width="2.5968" stroke-miterlimit="10" stroke-linecap="round" stroke-linejoin="round"/>
<path d="M336.416 72.9753C344.892 77.1717 354.111 84.3597 364.004 78.2416" stroke="#C8CEDB" stroke-width="2.5968" stroke-miterlimit="10" stroke-linecap="round" stroke-linejoin="round"/>
<path d="M217.852 49.4639C284.937 66.4469 245.617 82.8951 336.416 72.9753" stroke="#7937C4" stroke-width="2.5968" stroke-miterlimit="10" stroke-linejoin="round" stroke-dasharray="2.6 2.6"/>
<path d="M199.145 31.2395C202.307 34.0752 217.852 49.4639 217.852 49.4639" stroke="#7937C4" stroke-width="2.5968" stroke-miterlimit="10" stroke-linecap="round" stroke-linejoin="round"/>
<path d="M185.682 29.8321C189.203 30.4709 198.157 30.1541 199.138 31.2395" stroke="#7937C4" stroke-width="2.5968" stroke-miterlimit="10" stroke-linecap="round" stroke-linejoin="round"/>
<path d="M171.031 24.8981C179.092 22.3325 180.66 24.4307 185.682 29.8321" stroke="#C8CEDB" stroke-width="2.5968" stroke-miterlimit="10" stroke-linecap="round" stroke-linejoin="round"/>
<path d="M152.105 30.0917C159.122 29.1725 163.048 26.2744 171.031 24.8981" stroke="#C8CEDB" stroke-width="2.5968" stroke-miterlimit="10" stroke-linecap="round" stroke-linejoin="round"/>
<path d="M134.391 29.7853C142.082 31.1253 145.515 30.9175 152.106 30.0917" stroke="#7937C4" stroke-width="2.5968" stroke-miterlimit="10" stroke-linecap="round" stroke-linejoin="round"/>
<path d="M118.051 23.4076C122.465 26.2744 127.462 29.0063 134.39 29.7853" stroke="#C8CEDB" stroke-width="2.5968" stroke-miterlimit="10" stroke-linecap="round" stroke-linejoin="round"/>
<path d="M107.736 11.2078C110.458 15.773 112.722 19.8811 118.051 23.4076" stroke="#C8CEDB" stroke-width="2.5968" stroke-miterlimit="10" stroke-linecap="round" stroke-linejoin="round"/>
<path d="M96.7207 3.39661C101.904 3.47451 106.043 6.76725 107.736 11.2078" stroke="#C8CEDB" stroke-width="2.5968" stroke-miterlimit="10" stroke-linecap="round" stroke-linejoin="round"/>
<path d="M78.916 2.6747C85.5482 1.85411 90.2485 2.04108 96.7197 3.39661" stroke="#7937C4" stroke-width="2.5968" stroke-miterlimit="10" stroke-linecap="round" stroke-linejoin="round"/>
<path d="M64.0176 9.91457C66.9104 5.80123 73.0129 3.26675 78.918 2.67468" stroke="#C8CEDB" stroke-width="2.5968" stroke-miterlimit="10" stroke-linecap="round" stroke-linejoin="round"/>
<path d="M53.1465 17.2376C58.5011 15.3263 60.3189 14.5317 64.0167 9.91458" stroke="#7937C4" stroke-width="2.5968" stroke-miterlimit="10" stroke-linecap="round" stroke-linejoin="round"/>
<path d="M40.6914 30.3358C44.7113 25.2409 45.4643 18.6347 53.1405 17.2428" stroke="#C8CEDB" stroke-width="2.5968" stroke-miterlimit="10" stroke-linecap="round" stroke-linejoin="round"/>
<path d="M0.566406 43.8496C12.8337 37.8769 31.7073 40.9256 40.6922 30.3306" stroke="#7937C4" stroke-width="2.5968" stroke-miterlimit="10" stroke-linejoin="round" stroke-dasharray="2.6 2.6"/>
<path d="M55.0357 15.5393C57.4403 17.9024 53.6749 21.621 51.343 19.1904C48.9384 16.8273 52.7037 13.1087 55.0357 15.5393Z" fill="#404366"/>
<path d="M109.581 9.38483C111.985 11.7479 108.22 15.4665 105.888 13.0359C103.483 10.6728 107.249 6.95423 109.581 9.38483Z" fill="#404366"/>
<path d="M119.661 21.5846C122.066 23.9477 118.301 27.6663 115.969 25.2357C113.564 22.8726 117.324 19.154 119.661 21.5846Z" fill="#404366"/>
<path d="M136.235 28.2688C138.64 30.6319 134.874 34.3505 132.542 31.9199C130.138 29.5568 133.903 25.8382 136.235 28.2688Z" fill="#404366"/>
<path d="M172.344 23.0752C174.749 25.4383 170.984 29.1569 168.652 26.7263C166.247 24.3632 170.012 20.6446 172.344 23.0752Z" fill="#404366"/>
<path d="M187.551 28.2688C189.956 30.6319 186.191 34.3505 183.859 31.9199C181.454 29.5568 185.219 25.8382 187.551 28.2688Z" fill="#404366"/>
<path d="M365.858 76.4342C368.263 78.7973 364.497 82.516 362.165 80.0853C359.761 77.7275 363.526 74.0036 365.858 76.4342Z" fill="#404366"/>
<path d="M400.734 69.6722C403.138 72.0353 399.373 75.7539 397.041 73.3233C394.636 70.9602 398.396 67.2416 400.734 69.6722Z" fill="#404366"/>
<path d="M471.543 63.4502C473.948 65.8133 470.183 69.5319 467.851 67.1013C465.446 64.7434 469.212 61.0196 471.543 63.4502Z" fill="#404366"/>
<path d="M484.008 53.7694C486.413 56.1324 482.648 59.8511 480.316 57.4205C477.911 55.0626 481.676 51.3388 484.008 53.7694Z" fill="#404366"/>
<path d="M512.23 42.4837C514.634 44.8468 510.869 48.5654 508.537 46.1348C506.132 43.7717 509.893 40.0531 512.23 42.4837Z" fill="#404366"/>
<path d="M544.342 50.3676C546.747 52.7307 542.982 56.4493 540.65 54.0187C538.245 51.6608 542.01 47.937 544.342 50.3676Z" fill="#404366"/>
<path d="M751.202 83.7053C753.607 86.0684 749.842 89.787 747.51 87.3564C745.105 84.9933 748.865 81.2747 751.202 83.7053Z" fill="#404366"/>
<path d="M765.297 81.981C767.702 84.3441 763.937 88.0627 761.605 85.6321C759.2 83.269 762.965 79.5504 765.297 81.981Z" fill="#404366"/>
<path d="M781.258 83.3521C783.663 85.7152 779.898 89.4339 777.566 87.0032C775.161 84.6402 778.926 80.9215 781.258 83.3521Z" fill="#404366"/>
<path d="M844.022 73.4428C846.427 75.8058 842.661 79.5245 840.329 77.0939C837.925 74.7308 841.69 71.0121 844.022 73.4428Z" fill="#404366"/>
<path d="M858.477 69.3294C860.882 71.6925 857.116 75.4111 854.784 72.9805C852.38 70.6226 856.145 66.8988 858.477 69.3294Z" fill="#404366"/>
<path d="M885.129 70.846C887.534 73.209 883.769 76.9277 881.437 74.4971C879.032 72.134 882.797 68.4153 885.129 70.846Z" fill="#404366"/>
<path d="M916.749 58.6306C919.153 60.9937 915.388 64.7123 913.056 62.2817C910.651 59.9186 914.417 56.2 916.749 58.6306Z" fill="#404366"/>
<path d="M935.045 64.1358C937.45 66.4989 933.685 70.2175 931.353 67.7869C928.948 65.429 932.713 61.7052 935.045 64.1358Z" fill="#404366"/>
<path d="M952.288 58.6306C954.693 60.9937 950.928 64.7123 948.596 62.2817C946.191 59.9186 949.951 56.2 952.288 58.6306Z" fill="#404366"/>
<path d="M80.7603 0.90888C83.1649 3.27197 79.3995 6.99059 77.0676 4.55998C74.663 2.19689 78.4283 -1.52173 80.7603 0.90888Z" fill="#404366"/>
<path d="M66.0011 8.20073C68.4058 10.5638 64.6404 14.2824 62.3085 11.8518C59.9038 9.49393 63.664 5.77012 66.0011 8.20073Z" fill="white" stroke="#7937C4" stroke-width="1.55808" stroke-miterlimit="10" stroke-linecap="round" stroke-linejoin="round"/>
<path d="M98.5279 1.57367C100.932 3.93676 97.1671 7.65538 94.8352 5.22478C92.4306 2.86169 96.1959 -0.856932 98.5279 1.57367Z" fill="white" stroke="#7937C4" stroke-width="1.55808" stroke-miterlimit="10" stroke-linecap="round" stroke-linejoin="round"/>
<path d="M153.825 28.2688C156.229 30.6319 152.464 34.3505 150.132 31.9199C147.727 29.5568 151.493 25.8382 153.825 28.2688Z" fill="white" stroke="#7937C4" stroke-width="1.55808" stroke-miterlimit="10" stroke-linecap="round" stroke-linejoin="round"/>
<path d="M200.989 28.9751C203.393 31.3382 199.628 35.0568 197.296 32.6262C194.891 30.2683 198.657 26.5445 200.989 28.9751Z" fill="white" stroke="#7937C4" stroke-width="1.55808" stroke-miterlimit="10" stroke-linecap="round" stroke-linejoin="round"/>
<path d="M381.241 68.6438C383.646 71.0069 379.881 74.7255 377.549 72.2949C375.144 69.937 378.904 66.2132 381.241 68.6438Z" fill="white" stroke="#7937C4" stroke-width="1.55808" stroke-miterlimit="10" stroke-linecap="round" stroke-linejoin="round"/>
<path d="M417.836 72.913C420.241 75.2761 416.476 78.9947 414.144 76.5641C411.739 74.201 415.505 70.4824 417.836 72.913Z" fill="white" stroke="#7937C4" stroke-width="1.55808" stroke-miterlimit="10" stroke-linecap="round" stroke-linejoin="round"/>
<path d="M434.678 74.8658C437.083 77.2289 433.318 80.9475 430.986 78.5169C428.581 76.1538 432.346 72.4352 434.678 74.8658Z" fill="white" stroke="#7937C4" stroke-width="1.55808" stroke-miterlimit="10" stroke-linecap="round" stroke-linejoin="round"/>
<path d="M457.354 73.8374C459.759 76.2005 455.993 79.9192 453.661 77.4885C451.257 75.1307 455.022 71.4068 457.354 73.8374Z" fill="white" stroke="#7937C4" stroke-width="1.55808" stroke-miterlimit="10" stroke-linecap="round" stroke-linejoin="round"/>
<path d="M497.797 46.9969C500.202 49.36 496.437 53.0786 494.105 50.648C491.7 48.2901 495.465 44.5663 497.797 46.9969Z" fill="white" stroke="#7937C4" stroke-width="1.55808" stroke-miterlimit="10" stroke-linecap="round" stroke-linejoin="round"/>
<path d="M525.245 48.5758C527.649 50.9388 523.884 54.6575 521.552 52.2269C519.147 49.869 522.913 46.1452 525.245 48.5758Z" fill="white" stroke="#7937C4" stroke-width="1.55808" stroke-miterlimit="10" stroke-linecap="round" stroke-linejoin="round"/>
<path d="M561.491 51.6088C563.895 53.9719 560.13 57.6905 557.798 55.2599C555.393 52.8968 559.159 49.1782 561.491 51.6088Z" fill="white" stroke="#7937C4" stroke-width="1.55808" stroke-miterlimit="10" stroke-linecap="round" stroke-linejoin="round"/>
<path d="M579.436 51.1726C581.841 53.5356 578.075 57.2543 575.743 54.8237C573.339 52.4658 577.104 48.742 579.436 51.1726Z" fill="white" stroke="#7937C4" stroke-width="1.55808" stroke-miterlimit="10" stroke-linecap="round" stroke-linejoin="round"/>
<path d="M802.651 84.7544C805.056 87.1175 801.29 90.8361 798.958 88.4055C796.554 86.0424 800.319 82.3238 802.651 84.7544Z" fill="white" stroke="#7937C4" stroke-width="1.55808" stroke-miterlimit="10" stroke-linecap="round" stroke-linejoin="round"/>
<path d="M827.051 76.7874C829.456 79.1505 825.691 82.8691 823.359 80.4385C820.954 78.0754 824.719 74.3568 827.051 76.7874Z" fill="white" stroke="#7937C4" stroke-width="1.55808" stroke-miterlimit="10" stroke-linecap="round" stroke-linejoin="round"/>
<path d="M902.497 71.9262C904.901 74.2893 901.136 78.0079 898.804 75.5773C896.399 73.2194 900.165 69.4956 902.497 71.9262Z" fill="white" stroke="#7937C4" stroke-width="1.55808" stroke-miterlimit="10" stroke-linecap="round" stroke-linejoin="round"/>
<path d="M872.136 64.1358C874.541 66.4989 870.775 70.2175 868.443 67.7869C866.039 65.429 869.799 61.7052 872.136 64.1358Z" fill="white" stroke="#7937C4" stroke-width="1.55808" stroke-miterlimit="10" stroke-linecap="round" stroke-linejoin="round"/>
<path d="M44.5094 26.4406C49.3187 31.1616 41.788 38.604 37.1241 33.7428C32.3149 29.0219 39.8404 21.5794 44.5094 26.4406Z" fill="white" stroke="#7937C4" stroke-width="2.07744" stroke-miterlimit="10" stroke-linecap="round" stroke-linejoin="round"/>
<path d="M221.544 45.8128C226.353 50.5337 218.823 57.9762 214.159 53.115C209.349 48.394 216.88 40.9515 221.544 45.8128Z" fill="white" stroke="#7937C4" stroke-width="2.07744" stroke-miterlimit="10" stroke-linecap="round" stroke-linejoin="round"/>
<path d="M340.093 69.4177C344.903 74.1387 337.372 81.5811 332.708 76.7199C327.899 71.9937 335.424 64.5565 340.093 69.4177Z" fill="white" stroke="#7937C4" stroke-width="2.07744" stroke-miterlimit="10" stroke-linecap="round" stroke-linejoin="round"/>
<path d="M603.242 54.0343C608.051 58.7552 600.52 66.1977 595.857 61.3365C591.047 56.6155 598.573 49.173 603.242 54.0343Z" fill="white" stroke="#7937C4" stroke-width="2.07744" stroke-miterlimit="10" stroke-linecap="round" stroke-linejoin="round"/>
<path d="M733.685 88.1251C738.495 92.846 730.964 100.288 726.3 95.4273C721.491 90.7011 729.016 83.2587 733.685 88.1251Z" fill="white" stroke="#7937C4" stroke-width="2.07744" stroke-miterlimit="10" stroke-linecap="round" stroke-linejoin="round"/>
<path d="M971.974 49.012C976.783 53.733 969.252 61.1755 964.588 56.3142C959.779 51.5933 967.31 44.1508 971.974 49.012Z" fill="white" stroke="#7937C4" stroke-width="2.07744" stroke-miterlimit="10" stroke-linecap="round" stroke-linejoin="round"/>
</g>
<defs>
<clipPath id="clip0">
<rect width="1039.81" height="101" fill="white"/>
</clipPath>
</defs>
</svg>
