<svg width="2201" height="1546" viewBox="0 0 2201 1546" fill="none" xmlns="http://www.w3.org/2000/svg">
<path d="M1360 307.24C1368.77 302.411 1378.23 301.923 1386.77 297.571C1388.89 296.488 1391.06 295.331 1393.15 294.1C1394.44 293.336 1395.71 292.54 1396.93 291.712C1398.54 290.608 1401.11 288.963 1402.37 287.53" stroke="#C8CEDB" stroke-width="3.7519" stroke-miterlimit="10" stroke-linecap="round" stroke-linejoin="round"/>
<path d="M1269.98 552.56C1270.77 549.811 1271.58 547.083 1272.88 544.748C1277.37 536.65 1290.56 531.406 1297.52 525.335C1306.4 517.608 1311.48 508.565 1316.76 497.835C1318.26 494.81 1319.82 491.933 1321.48 489.195C1328.21 478.125 1336.97 471.459 1346.2 463.032C1349.45 460.06 1353.14 459.497 1357.23 457.99C1372.09 452.545 1375.9 433.387 1366.92 420.576C1364.31 416.85 1360.92 414.314 1357.1 411.734C1347.52 405.26 1345.9 400.537 1343.65 389.106C1341.43 377.812 1334.89 368.058 1332.08 356.977C1330.5 350.726 1331.46 345.503 1331.59 339.262C1331.69 333.892 1330.29 328.882 1333.69 324.063C1338.67 317.016 1346.49 314.224 1353.95 310.435C1356.02 309.384 1358.03 308.333 1359.99 307.261" stroke="#C8CEDB" stroke-width="3.7519" stroke-miterlimit="10" stroke-linecap="round" stroke-linejoin="round"/>
<path d="M1258.6 570.084C1262.16 567.101 1265.48 564.723 1267.62 559.767C1268.59 557.527 1269.27 555.033 1269.97 552.549" stroke="#C8CEDB" stroke-width="3.7519" stroke-miterlimit="10" stroke-linecap="round" stroke-linejoin="round"/>
<path d="M812.207 993.633C808.395 992.04 804.052 992.338 799.996 993.155C795.94 993.983 791.98 995.31 787.871 995.734C781.627 996.382 774.736 994.598 773.494 987.71C773.112 985.608 773.059 983.464 772.57 981.384C771.222 975.759 766.858 971.439 762.685 967.437C758.481 963.415 754.276 959.392 750.071 955.359C747.003 951.495 744.508 946.974 743.127 942.452C739.634 931.01 737.649 918.008 728.634 908.902C718.112 898.277 701.623 900.708 691.61 890.263C686.344 884.765 687.575 879.384 684.677 872.952C681.417 865.713 675.407 860.385 670.152 854.675C666.52 850.727 659.353 846.311 657.612 841.153C655.414 834.646 659.459 824.192 664.036 819.628C673.199 810.489 685.728 804.535 698.48 804.004C717.071 803.229 728.443 789.293 742.087 779.008C744.805 776.96 747.927 775.346 749.785 772.311C751.76 769.074 751.526 765.04 754.042 762.206C758.682 756.963 764.31 757.006 770.235 754.777C776.669 752.357 780.438 749.162 787.913 749.926C793.912 750.542 801.281 752.558 806.951 754.596C810.752 755.955 812.875 758.863 815.732 760.837C819.798 763.639 823.153 762.504 828.43 761.835C830.204 761.612 831.966 761.485 833.697 761.432C840.928 761.219 847.925 762.217 855.325 761.845C866.198 761.294 871.188 756.167 879.958 750.404C886.191 746.307 893.061 744.555 899.102 740.087C907.979 733.528 907.968 721.735 915.708 714.539C923.47 707.322 932.856 710.294 941.987 707.937C952.563 705.22 963.234 709.073 973.904 705.953C984.458 702.864 993.76 697.207 1003.19 691.602C1005.39 690.297 1008.71 690.021 1010.74 688.514C1013.39 686.54 1015.2 684.693 1018.1 683.164C1027.64 678.144 1036.9 672.359 1047.34 669.334C1051.37 668.167 1054.71 667.19 1058.35 665.142C1069.55 658.837 1082.55 656.959 1094.43 652.204C1101.6 649.327 1108.52 646.207 1115.95 644.604C1129.58 641.675 1143.14 636.145 1157.05 632.918C1161.32 631.931 1165.59 630.742 1169.83 629.575C1173.23 628.651 1176.61 627.738 1179.96 626.974C1182.99 626.284 1185.04 626.868 1188.04 625.064C1191.87 622.771 1195.75 619.353 1199.47 616.796C1204.05 613.643 1208 610.215 1213.13 607.806C1215.93 606.5 1218.13 606.606 1220.72 605.736C1223.03 604.972 1225 602.838 1227.02 601.405C1231.83 597.998 1236.65 592.861 1240.73 588.594C1245.39 583.733 1250.02 578.649 1254.74 573.65C1256.04 572.281 1257.33 571.134 1258.61 570.073" stroke="#FFA506" stroke-width="3.7519" stroke-miterlimit="10" stroke-linejoin="round" stroke-dasharray="4.69 4.69"/>
<path d="M1412.88 275.727C1409.85 277.086 1406.92 278.689 1405.38 280.939C1403.96 283.008 1404.18 285.481 1402.36 287.53" stroke="#C8CEDB" stroke-width="3.7519" stroke-miterlimit="10" stroke-linecap="round" stroke-linejoin="round"/>
<path d="M1446.69 261.653C1442.21 263.649 1437.58 265.283 1433.15 266.737C1432.75 266.865 1432.36 266.992 1431.97 267.13C1427.52 268.574 1424.21 270.24 1420.23 272.448C1418.24 273.552 1415.52 274.549 1412.89 275.727" stroke="#C8CEDB" stroke-width="3.7519" stroke-miterlimit="10" stroke-linecap="round" stroke-linejoin="round"/>
<path d="M1474.52 238.006C1474.33 240.245 1472.83 241.72 1470.16 244.109C1466.94 246.985 1464.22 250.381 1460.86 253.184C1456.72 256.633 1451.81 259.371 1446.69 261.653" stroke="#FFA506" stroke-width="3.7519" stroke-miterlimit="10" stroke-linecap="round" stroke-linejoin="round"/>
<path d="M1448.27 198.66C1452.98 200.899 1457.41 203.85 1461.02 208.308C1467.03 215.727 1470.91 225.152 1473.85 234.015C1474.39 235.66 1474.62 236.923 1474.52 238.006" stroke="#FFA506" stroke-width="3.7519" stroke-miterlimit="10" stroke-linecap="round" stroke-linejoin="round"/>
<path d="M1369.88 138.893C1370.22 140.06 1370.41 141.164 1370.36 142.119C1370 148.456 1365.72 150.886 1370.73 156.586C1371.69 157.669 1372.68 158.666 1373.71 159.6C1379.25 164.61 1385.84 167.731 1392.15 171.488C1399.4 175.797 1406.03 182.07 1413.45 186.56C1421.76 191.591 1431.78 192.472 1440.75 195.645C1441.27 195.826 1441.79 196.017 1442.31 196.208C1444.31 196.951 1446.31 197.747 1448.25 198.681" stroke="#C8CEDB" stroke-width="3.7519" stroke-miterlimit="10" stroke-linecap="round" stroke-linejoin="round"/>
<path d="M1350.96 107.995C1354.77 115.659 1361.21 121.539 1365.38 129.308C1366.69 131.749 1368.9 135.581 1369.87 138.903" stroke="#FFA506" stroke-width="3.7519" stroke-miterlimit="10" stroke-linecap="round" stroke-linejoin="round"/>
<path d="M1446.52 269.582C1450.9 269.582 1454.45 266.032 1454.45 261.653C1454.45 257.274 1450.9 253.725 1446.52 253.725C1442.14 253.725 1438.59 257.274 1438.59 261.653C1438.59 266.032 1442.14 269.582 1446.52 269.582Z" fill="white" stroke="#FFA506" stroke-width="3.7519" stroke-miterlimit="10" stroke-linecap="round" stroke-linejoin="round"/>
<path d="M892.721 751.401C897.101 751.401 900.652 747.851 900.652 743.473C900.652 739.094 897.101 735.544 892.721 735.544C888.341 735.544 884.79 739.094 884.79 743.473C884.79 747.851 888.341 751.401 892.721 751.401Z" fill="white" stroke="#FFA506" stroke-width="3.7519" stroke-miterlimit="10" stroke-linecap="round" stroke-linejoin="round"/>
<path d="M677.87 817.059C682.251 817.059 685.802 813.509 685.802 809.131C685.802 804.752 682.251 801.202 677.87 801.202C673.49 801.202 669.939 804.752 669.939 809.131C669.939 813.509 673.49 817.059 677.87 817.059Z" fill="white" stroke="#FFA506" stroke-width="3.7519" stroke-miterlimit="10" stroke-linecap="round" stroke-linejoin="round"/>
<path d="M1056.09 674.482C1060.47 674.482 1064.02 670.932 1064.02 666.554C1064.02 662.175 1060.47 658.625 1056.09 658.625C1051.71 658.625 1048.15 662.175 1048.15 666.554C1048.15 670.932 1051.71 674.482 1056.09 674.482Z" fill="white" stroke="#FFA506" stroke-width="3.7519" stroke-miterlimit="10" stroke-linecap="round" stroke-linejoin="round"/>
<path d="M1258.82 579.487C1263.2 579.487 1266.75 575.938 1266.75 571.559C1266.75 567.18 1263.2 563.63 1258.82 563.63C1254.44 563.63 1250.89 567.18 1250.89 571.559C1250.89 575.938 1254.44 579.487 1258.82 579.487Z" fill="white" stroke="#FFA506" stroke-width="3.7519" stroke-miterlimit="10" stroke-linecap="round" stroke-linejoin="round"/>
<path d="M774.036 996.328C778.416 996.328 781.967 992.779 781.967 988.4C781.967 984.021 778.416 980.471 774.036 980.471C769.655 980.471 766.104 984.021 766.104 988.4C766.104 992.779 769.655 996.328 774.036 996.328Z" fill="white" stroke="#FFA506" stroke-width="3.7519" stroke-miterlimit="10" stroke-linecap="round" stroke-linejoin="round"/>
<path d="M813.088 1004.3C819.28 1004.3 824.3 999.281 824.3 993.091C824.3 986.901 819.28 981.883 813.088 981.883C806.896 981.883 801.876 986.901 801.876 993.091C801.876 999.281 806.896 1004.3 813.088 1004.3Z" fill="#FFA506"/>
<path d="M1413.28 279.272C1415.48 279.272 1417.26 277.49 1417.26 275.292C1417.26 273.094 1415.48 271.312 1413.28 271.312C1411.08 271.312 1409.3 273.094 1409.3 275.292C1409.3 277.49 1411.08 279.272 1413.28 279.272Z" fill="#404366"/>
<path d="M1425.56 273.18C1427.76 273.18 1429.54 271.398 1429.54 269.2C1429.54 267.002 1427.76 265.22 1425.56 265.22C1423.36 265.22 1421.58 267.002 1421.58 269.2C1421.58 271.398 1423.36 273.18 1425.56 273.18Z" fill="#404366"/>
<path d="M1402.42 291.341C1404.62 291.341 1406.4 289.559 1406.4 287.36C1406.4 285.162 1404.62 283.38 1402.42 283.38C1400.22 283.38 1398.43 285.162 1398.43 287.36C1398.43 289.559 1400.22 291.341 1402.42 291.341Z" fill="#404366"/>
<path d="M1391.52 298.664C1393.72 298.664 1395.5 296.882 1395.5 294.684C1395.5 292.486 1393.72 290.704 1391.52 290.704C1389.32 290.704 1387.54 292.486 1387.54 294.684C1387.54 296.882 1389.32 298.664 1391.52 298.664Z" fill="#404366"/>
<path d="M1377.88 304.417C1380.08 304.417 1381.86 302.635 1381.86 300.437C1381.86 298.238 1380.08 296.456 1377.88 296.456C1375.68 296.456 1373.9 298.238 1373.9 300.437C1373.9 302.635 1375.68 304.417 1377.88 304.417Z" fill="#404366"/>
<path d="M1358.6 311.146C1360.8 311.146 1362.58 309.364 1362.58 307.166C1362.58 304.968 1360.8 303.186 1358.6 303.186C1356.4 303.186 1354.61 304.968 1354.61 307.166C1354.61 309.364 1356.4 311.146 1358.6 311.146Z" fill="#404366"/>
<path d="M1340.77 320.486C1342.97 320.486 1344.75 318.704 1344.75 316.506C1344.75 314.308 1342.97 312.526 1340.77 312.526C1338.57 312.526 1336.79 314.308 1336.79 316.506C1336.79 318.704 1338.57 320.486 1340.77 320.486Z" fill="#404366"/>
<path d="M1333.34 333.021C1335.54 333.021 1337.32 331.239 1337.32 329.041C1337.32 326.843 1335.54 325.061 1333.34 325.061C1331.14 325.061 1329.36 326.843 1329.36 329.041C1329.36 331.239 1331.14 333.021 1333.34 333.021Z" fill="#404366"/>
<path d="M1331.71 347.478C1333.91 347.478 1335.69 345.696 1335.69 343.497C1335.69 341.299 1333.91 339.517 1331.71 339.517C1329.51 339.517 1327.73 341.299 1327.73 343.497C1327.73 345.696 1329.51 347.478 1331.71 347.478Z" fill="#404366"/>
<path d="M1332.67 362.486C1334.87 362.486 1336.65 360.704 1336.65 358.505C1336.65 356.307 1334.87 354.525 1332.67 354.525C1330.47 354.525 1328.69 356.307 1328.69 358.505C1328.69 360.704 1330.47 362.486 1332.67 362.486Z" fill="#404366"/>
<path d="M1337.98 377.494C1340.18 377.494 1341.96 375.712 1341.96 373.513C1341.96 371.315 1340.18 369.533 1337.98 369.533C1335.78 369.533 1334 371.315 1334 373.513C1334 375.712 1335.78 377.494 1337.98 377.494Z" fill="#404366"/>
<path d="M1343.63 390.517C1345.82 390.517 1347.61 388.735 1347.61 386.537C1347.61 384.339 1345.82 382.557 1343.63 382.557C1341.43 382.557 1339.64 384.339 1339.64 386.537C1339.64 388.735 1341.43 390.517 1343.63 390.517Z" fill="#404366"/>
<path d="M1346.55 404.485C1348.74 404.485 1350.53 402.703 1350.53 400.505C1350.53 398.306 1348.74 396.524 1346.55 396.524C1344.35 396.524 1342.56 398.306 1342.56 400.505C1342.56 402.703 1344.35 404.485 1346.55 404.485Z" fill="#404366"/>
<path d="M1356.02 414.664C1358.22 414.664 1360 412.882 1360 410.684C1360 408.485 1358.22 406.703 1356.02 406.703C1353.82 406.703 1352.03 408.485 1352.03 410.684C1352.03 412.882 1353.82 414.664 1356.02 414.664Z" fill="#404366"/>
<path d="M1366.23 423.059C1368.43 423.059 1370.21 421.277 1370.21 419.079C1370.21 416.881 1368.43 415.099 1366.23 415.099C1364.03 415.099 1362.25 416.881 1362.25 419.079C1362.25 421.277 1364.03 423.059 1366.23 423.059Z" fill="#404366"/>
<path d="M1371.74 434.448C1373.94 434.448 1375.72 432.666 1375.72 430.468C1375.72 428.27 1373.94 426.488 1371.74 426.488C1369.54 426.488 1367.76 428.27 1367.76 430.468C1367.76 432.666 1369.54 434.448 1371.74 434.448Z" fill="#404366"/>
<path d="M1370.21 449.276C1372.41 449.276 1374.19 447.494 1374.19 445.295C1374.19 443.097 1372.41 441.315 1370.21 441.315C1368.01 441.315 1366.23 443.097 1366.23 445.295C1366.23 447.494 1368.01 449.276 1370.21 449.276Z" fill="#404366"/>
<path d="M1361.33 461.047C1363.52 461.047 1365.31 459.265 1365.31 457.066C1365.31 454.868 1363.52 453.086 1361.33 453.086C1359.13 453.086 1357.34 454.868 1357.34 457.066C1357.34 459.265 1359.13 461.047 1361.33 461.047Z" fill="#404366"/>
<path d="M1347.61 466.481C1349.81 466.481 1351.59 464.699 1351.59 462.501C1351.59 460.303 1349.81 458.521 1347.61 458.521C1345.41 458.521 1343.63 460.303 1343.63 462.501C1343.63 464.699 1345.41 466.481 1347.61 466.481Z" fill="#404366"/>
<path d="M1336.72 476.256C1338.92 476.256 1340.71 474.474 1340.71 472.276C1340.71 470.078 1338.92 468.296 1336.72 468.296C1334.52 468.296 1332.74 470.078 1332.74 472.276C1332.74 474.474 1334.52 476.256 1336.72 476.256Z" fill="#404366"/>
<path d="M1326.28 486.562C1328.47 486.562 1330.26 484.78 1330.26 482.582C1330.26 480.384 1328.47 478.602 1326.28 478.602C1324.08 478.602 1322.29 480.384 1322.29 482.582C1322.29 484.78 1324.08 486.562 1326.28 486.562Z" fill="#404366"/>
<path d="M1318.31 498.418C1320.51 498.418 1322.29 496.636 1322.29 494.438C1322.29 492.24 1320.51 490.458 1318.31 490.458C1316.11 490.458 1314.33 492.24 1314.33 494.438C1314.33 496.636 1316.11 498.418 1318.31 498.418Z" fill="#404366"/>
<path d="M1311.41 512.015C1313.61 512.015 1315.39 510.233 1315.39 508.034C1315.39 505.836 1313.61 504.054 1311.41 504.054C1309.21 504.054 1307.43 505.836 1307.43 508.034C1307.43 510.233 1309.21 512.015 1311.41 512.015Z" fill="#404366"/>
<path d="M1303.02 523.86C1305.22 523.86 1307 522.078 1307 519.88C1307 517.681 1305.22 515.899 1303.02 515.899C1300.82 515.899 1299.04 517.681 1299.04 519.88C1299.04 522.078 1300.82 523.86 1303.02 523.86Z" fill="#404366"/>
<path d="M1291.52 534.261C1293.72 534.261 1295.51 532.479 1295.51 530.281C1295.51 528.083 1293.72 526.301 1291.52 526.301C1289.33 526.301 1287.54 528.083 1287.54 530.281C1287.54 532.479 1289.33 534.261 1291.52 534.261Z" fill="#404366"/>
<path d="M1278.26 543.029C1280.46 543.029 1282.24 541.247 1282.24 539.048C1282.24 536.85 1280.46 535.068 1278.26 535.068C1276.06 535.068 1274.28 536.85 1274.28 539.048C1274.28 541.247 1276.06 543.029 1278.26 543.029Z" fill="#404366"/>
<path d="M1270.6 556.54C1272.8 556.54 1274.58 554.758 1274.58 552.56C1274.58 550.362 1272.8 548.58 1270.6 548.58C1268.4 548.58 1266.62 550.362 1266.62 552.56C1266.62 554.758 1268.4 556.54 1270.6 556.54Z" fill="#404366"/>
<path d="M1474.54 243.726C1476.74 243.726 1478.52 241.944 1478.52 239.746C1478.52 237.548 1476.74 235.766 1474.54 235.766C1472.34 235.766 1470.56 237.548 1470.56 239.746C1470.56 241.944 1472.34 243.726 1474.54 243.726Z" fill="white" stroke="#FFA506" stroke-width="2" stroke-miterlimit="10" stroke-linecap="round" stroke-linejoin="round"/>
<path d="M1464.83 217.298C1467.03 217.298 1468.81 215.516 1468.81 213.318C1468.81 211.119 1467.03 209.337 1464.83 209.337C1462.63 209.337 1460.85 211.119 1460.85 213.318C1460.85 215.516 1462.63 217.298 1464.83 217.298Z" fill="white" stroke="#FFA506" stroke-width="2" stroke-miterlimit="10" stroke-linecap="round" stroke-linejoin="round"/>
<path d="M1448.08 202.385C1450.28 202.385 1452.06 200.603 1452.06 198.405C1452.06 196.207 1450.28 194.425 1448.08 194.425C1445.88 194.425 1444.1 196.207 1444.1 198.405C1444.1 200.603 1445.88 202.385 1448.08 202.385Z" fill="#404366"/>
<path d="M1417.24 192.907C1419.44 192.907 1421.22 191.125 1421.22 188.927C1421.22 186.728 1419.44 184.946 1417.24 184.946C1415.04 184.946 1413.26 186.728 1413.26 188.927C1413.26 191.125 1415.04 192.907 1417.24 192.907Z" fill="#404366"/>
<path d="M1395.5 177.899C1397.7 177.899 1399.49 176.117 1399.49 173.918C1399.49 171.72 1397.7 169.938 1395.5 169.938C1393.3 169.938 1391.52 171.72 1391.52 173.918C1391.52 176.117 1393.3 177.899 1395.5 177.899Z" fill="#404366"/>
<path d="M1373.9 164.355C1376.1 164.355 1377.88 162.573 1377.88 160.375C1377.88 158.177 1376.1 156.395 1373.9 156.395C1371.7 156.395 1369.91 158.177 1369.91 160.375C1369.91 162.573 1371.7 164.355 1373.9 164.355Z" fill="#404366"/>
<path d="M1369.22 142.873C1371.42 142.873 1373.21 141.091 1373.21 138.893C1373.21 136.694 1371.42 134.912 1369.22 134.912C1367.03 134.912 1365.24 136.694 1365.24 138.893C1365.24 141.091 1367.03 142.873 1369.22 142.873Z" fill="white" stroke="#FFA506" stroke-width="2" stroke-miterlimit="10" stroke-linecap="round" stroke-linejoin="round"/>
</svg>
