<svg width="2201" height="1546" viewBox="0 0 2201 1546" fill="none" xmlns="http://www.w3.org/2000/svg">
<path d="M1784.59 788.747C1785.9 788.428 1787.26 788.204 1788.69 788.098C1797.12 787.448 1801.78 787.161 1809.08 782.434C1813.18 779.783 1820.88 777.622 1823.63 774.055" stroke="#1B771B" stroke-width="3.7519" stroke-miterlimit="10" stroke-linecap="round" stroke-linejoin="round"/>
<path d="M1753.62 799.766C1756.25 799.564 1758.84 799.223 1761.35 798.563C1769.79 796.359 1776.24 790.759 1784.58 788.758" stroke="#1B771B" stroke-width="3.7519" stroke-miterlimit="10" stroke-linecap="round" stroke-linejoin="round"/>
<path d="M1713.91 808.751C1719.58 805.44 1725.31 802.396 1732.61 801.022C1739.41 799.745 1746.66 800.277 1753.62 799.755" stroke="#1B771B" stroke-width="3.7519" stroke-miterlimit="10" stroke-linecap="round" stroke-linejoin="round"/>
<path d="M1685.39 822.57C1689.46 820.526 1693.78 818.812 1697.97 817.172C1703.93 814.82 1708.9 811.69 1713.93 808.751" stroke="#1B771B" stroke-width="3.7519" stroke-miterlimit="10" stroke-linecap="round" stroke-linejoin="round"/>
<path d="M1666.79 842.979C1669.12 832.865 1676.66 826.956 1685.39 822.57" stroke="#1B771B" stroke-width="3.7519" stroke-miterlimit="10" stroke-linecap="round" stroke-linejoin="round"/>
<path d="M1664.3 867.508C1664.8 860.716 1665.53 853.604 1666.17 846.801C1666.3 845.47 1666.5 844.193 1666.78 842.979" stroke="#1B771B" stroke-width="3.7519" stroke-miterlimit="10" stroke-linecap="round" stroke-linejoin="round"/>
<path d="M1674.7 902.044C1670.81 898.786 1666.71 895.891 1664.91 890.376C1663.1 884.882 1663.78 875.546 1664.15 869.754C1664.2 869.009 1664.26 868.253 1664.31 867.497" stroke="#1B771B" stroke-width="3.7519" stroke-miterlimit="10" stroke-linecap="round" stroke-linejoin="round"/>
<path d="M1685.98 928.298C1684.54 926.073 1683.33 923.911 1682.64 921.846C1680.8 916.342 1683.07 911.668 1679.81 907.218C1678.33 905.206 1676.54 903.588 1674.7 902.044" stroke="#1B771B" stroke-width="3.7519" stroke-miterlimit="10" stroke-linecap="round" stroke-linejoin="round"/>
<path d="M1691.1 960.811C1692.67 959.938 1694.08 958.618 1695.26 956.648C1701 947.067 1691.71 937.134 1685.98 928.298" stroke="#1B771B" stroke-width="3.7519" stroke-miterlimit="10" stroke-linecap="round" stroke-linejoin="round"/>
<path d="M1605.67 1028.28C1606.58 1027.68 1607.49 1027.08 1608.42 1026.49C1612.49 1023.87 1616.51 1022.69 1620.82 1020.7C1625.12 1018.71 1625.59 1015.97 1628.45 1012.78C1629.98 1011.07 1631.58 1009.44 1633.17 1007.84C1637.09 1003.89 1641.05 1000.03 1644.26 995.369C1648.09 989.801 1649.67 983.36 1652.65 977.43C1652.93 976.866 1653.22 976.312 1653.53 975.758C1657.57 968.562 1665.62 961.045 1674.14 961.461C1679.58 961.727 1686.1 963.579 1691.09 960.811" stroke="#C8CEDB" stroke-width="3.7519" stroke-miterlimit="10" stroke-linecap="round" stroke-linejoin="round"/>
<path d="M1582.92 1043.79C1584.16 1043.07 1585.37 1042.31 1586.54 1041.48C1591.29 1038.1 1596.1 1034.71 1600.97 1031.41C1602.52 1030.35 1604.09 1029.31 1605.65 1028.28" stroke="#C8CEDB" stroke-width="3.7519" stroke-miterlimit="10" stroke-linecap="round" stroke-linejoin="round"/>
<path d="M1582.92 1043.79C1576.12 1047.67 1568.41 1049.66 1560.37 1050.04C1559.08 1050.1 1557.78 1050.11 1556.48 1050.09C1550.19 1049.98 1545.28 1052.3 1539.1 1052.23C1531.07 1052.13 1522.38 1050.64 1513.71 1049.8" stroke="#1B771B" stroke-width="3.7519" stroke-miterlimit="10" stroke-linecap="round" stroke-linejoin="round"/>
<path d="M1368.48 1234.38C1368.31 1238.11 1366.84 1241.48 1365.75 1245.08C1363.64 1252.03 1359.73 1256.92 1355.26 1261.49C1354.69 1262.08 1354.12 1262.65 1353.53 1263.23C1350.02 1266.69 1346.27 1270.07 1342.82 1274.16C1339.06 1278.64 1335.6 1283.97 1333.22 1289.17C1333.01 1289.63 1332.8 1290.1 1332.61 1290.56C1330.66 1295.19 1329.99 1298.75 1327.39 1302.16C1326.64 1303.14 1325.75 1304.1 1324.61 1305.07C1324.11 1305.49 1323.6 1305.9 1323.07 1306.27C1318.05 1309.79 1311.83 1310.89 1306.42 1313.64C1303.72 1315.01 1300.84 1316.07 1297.97 1317.16C1295.46 1318.11 1292.96 1319.09 1290.57 1320.31C1287.28 1322 1284.54 1325.2 1281.25 1327.14C1278.42 1328.8 1275.21 1329.4 1272.11 1330.78C1269.5 1331.94 1266.93 1333.32 1264.37 1334.71" stroke="#C8CEDB" stroke-width="3.7519" stroke-miterlimit="10" stroke-linecap="round" stroke-linejoin="round"/>
<path d="M1368.48 1234.38C1368.72 1228.93 1369.69 1228.36 1372.17 1223.71C1376.19 1216.16 1380.14 1214.06 1387.78 1210.81C1398.03 1206.44 1404.71 1201.81 1411.1 1193.43C1411.78 1192.54 1412.48 1191.59 1413.16 1190.6C1415.12 1187.76 1416.83 1184.73 1418.99 1182.02C1422.3 1177.84 1427.02 1174.3 1431.09 1170.38C1434.96 1166.64 1438.24 1162.56 1439.15 1157.23C1439.38 1155.92 1439.49 1154.66 1439.6 1153.39C1439.78 1151.11 1439.93 1148.86 1440.61 1146.41C1441.61 1142.82 1442.7 1139.36 1443.81 1135.8C1445.78 1129.44 1448.89 1123.12 1449.8 1116.41C1449.91 1115.5 1449.99 1114.6 1450.03 1113.7C1450.2 1110.11 1449.84 1106.59 1449.84 1103.1" stroke="#C8CEDB" stroke-width="3.7519" stroke-miterlimit="10" stroke-linecap="round" stroke-linejoin="round"/>
<path d="M1460.48 1075.19C1456.62 1081.27 1453.55 1087.8 1451.23 1094.03C1450.11 1097.05 1449.83 1100.06 1449.83 1103.1" stroke="#1B771B" stroke-width="3.7519" stroke-miterlimit="10" stroke-linecap="round" stroke-linejoin="round"/>
<path d="M1513.7 1049.81C1504.73 1048.95 1495.76 1048.78 1487.57 1051.62C1480.17 1054.18 1473.82 1058.88 1468.46 1064.7C1465.5 1067.91 1462.84 1071.47 1460.48 1075.19" stroke="#C8CEDB" stroke-width="3.7519" stroke-miterlimit="10" stroke-linecap="round" stroke-linejoin="round"/>
<path d="M1059.21 1397.34C1050.76 1387.63 1043.66 1375.16 1030.97 1370.39C1024.63 1368.01 1017.84 1367.4 1011.11 1367.29C1007.76 1367.24 1004.34 1367.17 1000.98 1367.34C990.918 1367.85 979.731 1364.31 971.157 1359.19C966.217 1356.23 961.532 1352.43 955.859 1351.44C947.37 1349.96 939.147 1355.16 930.541 1355.64C920.554 1356.2 911.078 1350.19 904.979 1342.23C898.881 1334.28 895.577 1324.58 892.581 1315.01C889.585 1305.44 886.716 1295.67 881.287 1287.25C878.684 1283.19 875.423 1279.51 871.577 1276.6C867.699 1273.67 863.598 1272.9 859.402 1270.86C850.297 1266.44 841.468 1259.61 832.841 1254.19C822.95 1247.98 813.271 1242.36 802.307 1238.12C795.051 1235.31 787.561 1232.48 780.113 1229.68C776.639 1228.38 773.186 1227.08 769.755 1225.8C758.886 1221.73 747.402 1219.52 738.105 1212.41C734.599 1209.73 731.54 1205.65 728.703 1202.34C724.135 1197 720.48 1194.52 714.105 1192.05C704.777 1188.44 698.785 1176.43 688.618 1174.26C687.184 1173.95 685.781 1173.67 684.411 1173.42" stroke="#1B771B" stroke-width="3.7519" stroke-miterlimit="10" stroke-linejoin="round" stroke-dasharray="4.69 4.69"/>
<path d="M1059.21 1397.34C1059.77 1397.99 1060.28 1398.69 1060.78 1399.39C1061.61 1400.55 1062.44 1401.71 1063.51 1402.64C1064.62 1403.6 1066.01 1404.24 1067.17 1405.06C1069.82 1406.94 1072.44 1408.9 1075.09 1410.88C1078.35 1413.31 1081.32 1415.67 1084.39 1418.31C1085.69 1419.43 1087.06 1420.73 1088.52 1421.91C1090.39 1423.42 1092.42 1424.74 1094.63 1425.23C1098.2 1426.02 1102.37 1425.42 1106.01 1425.42C1108.51 1425.42 1111.01 1425.49 1113.52 1425.5C1115.14 1425.51 1116.74 1425.5 1118.34 1425.44C1120.26 1425.38 1122.09 1425.16 1123.89 1424.82C1130.18 1423.59 1135.8 1420.78 1141.24 1417.6C1151.73 1411.46 1161.62 1403.93 1174.58 1403.63C1175.05 1403.62 1175.51 1403.62 1175.99 1403.63C1185.88 1403.8 1195.13 1398.6 1201.65 1391.46C1203.51 1389.42 1205.15 1387.22 1206.53 1384.95C1208.03 1382.44 1209.27 1379.74 1210.62 1377.07C1211.03 1376.24 1211.45 1375.42 1211.9 1374.6C1212.81 1372.93 1213.82 1371.3 1215.01 1369.77C1216.32 1368.1 1217.68 1366.5 1219.07 1364.91C1221.49 1362.14 1223.98 1359.44 1226.3 1356.56C1228.52 1353.81 1227.92 1352.35 1231.59 1350.57C1232.72 1350.02 1233.8 1349.55 1234.87 1349.07C1236.63 1348.28 1238.34 1347.48 1240.19 1346.34C1243.77 1344.14 1247.51 1342.47 1251.4 1340.81C1253.31 1339.99 1255.27 1339.18 1257.26 1338.3C1259.65 1337.25 1261.99 1335.99 1264.35 1334.73" stroke="#C8CEDB" stroke-width="3.7519" stroke-miterlimit="10" stroke-linecap="round" stroke-linejoin="round"/>
<path d="M532.942 1099.85C535.471 1104.97 537.245 1110.23 537.139 1115.55C536.852 1130.19 531.922 1140.18 536.151 1155.27C541.664 1174.96 559.311 1180.34 577.372 1184.37C591.301 1187.48 603.816 1184.97 617.107 1181.33C618.52 1180.94 619.933 1180.54 621.367 1180.13C646.175 1173.1 659.827 1168.87 684.411 1173.42" stroke="#1B771B" stroke-width="3.7519" stroke-miterlimit="10" stroke-linejoin="round" stroke-dasharray="4.69 4.69"/>
<path d="M451.115 964.814C456.469 975.13 461.133 984.137 470.844 993.697C483.231 1005.88 505.308 1016.48 511.056 1033.73C516.23 1049.25 512.607 1064.07 520.788 1079.23C524.273 1085.68 529.362 1092.63 532.931 1099.86" stroke="#1B771B" stroke-width="3.7519" stroke-miterlimit="10" stroke-linejoin="round" stroke-dasharray="4.69 4.69"/>
<path d="M261.929 832.343C263.991 834.515 265.722 837.028 267.05 840.019C270.62 848.047 267.783 855.712 277.515 858.97C291.603 863.696 302.907 854.008 315.72 850.24C331.072 845.726 338.041 853.103 347.858 864.101C352.405 869.201 356.155 870.169 361.52 874.098C366.089 877.441 366.397 881.146 369.882 884.882C378.243 893.857 388.389 898.116 399.045 902.353C411.837 907.442 418.7 912.392 424.363 924.337C429.664 935.516 439.13 943.16 445.165 953.774C447.374 957.649 449.266 961.301 451.093 964.803" stroke="#1B771B" stroke-width="3.7519" stroke-miterlimit="10" stroke-linejoin="round" stroke-dasharray="4.69 4.69"/>
<path d="M220.219 808.017C225.117 815.597 240.575 819.877 248.607 823.496C253.685 825.785 258.296 828.521 261.919 832.343" stroke="#1B771B" stroke-width="3.7519" stroke-miterlimit="10" stroke-linejoin="round" stroke-dasharray="4.69 4.69"/>
<path d="M260.581 840.307C264.964 840.307 268.517 836.746 268.517 832.354C268.517 827.962 264.964 824.401 260.581 824.401C256.197 824.401 252.644 827.962 252.644 832.354C252.644 836.746 256.197 840.307 260.581 840.307Z" fill="white" stroke="#1B771B" stroke-width="3.7519" stroke-miterlimit="10" stroke-linecap="round" stroke-linejoin="round"/>
<path d="M1056.64 1404.84C1061.02 1404.84 1064.58 1401.28 1064.58 1396.89C1064.58 1392.5 1061.02 1388.94 1056.64 1388.94C1052.26 1388.94 1048.7 1392.5 1048.7 1396.89C1048.7 1401.28 1052.26 1404.84 1056.64 1404.84Z" fill="white" stroke="#1B771B" stroke-width="3.7519" stroke-miterlimit="10" stroke-linecap="round" stroke-linejoin="round"/>
<path d="M1264.36 1342.51C1268.75 1342.51 1272.3 1338.95 1272.3 1334.56C1272.3 1330.16 1268.75 1326.6 1264.36 1326.6C1259.98 1326.6 1256.43 1330.16 1256.43 1334.56C1256.43 1338.95 1259.98 1342.51 1264.36 1342.51Z" fill="white" stroke="#1B771B" stroke-width="3.7519" stroke-miterlimit="10" stroke-linecap="round" stroke-linejoin="round"/>
<path d="M896.724 1334.45C901.108 1334.45 904.661 1330.89 904.661 1326.5C904.661 1322.11 901.108 1318.54 896.724 1318.54C892.341 1318.54 888.788 1322.11 888.788 1326.5C888.788 1330.89 892.341 1334.45 896.724 1334.45Z" fill="white" stroke="#1B771B" stroke-width="3.7519" stroke-miterlimit="10" stroke-linecap="round" stroke-linejoin="round"/>
<path d="M684.974 1181.81C689.357 1181.81 692.91 1178.24 692.91 1173.85C692.91 1169.46 689.357 1165.9 684.974 1165.9C680.591 1165.9 677.038 1169.46 677.038 1173.85C677.038 1178.24 680.591 1181.81 684.974 1181.81Z" fill="white" stroke="#1B771B" stroke-width="3.7519" stroke-miterlimit="10" stroke-linecap="round" stroke-linejoin="round"/>
<path d="M533.133 1107.56C537.516 1107.56 541.069 1104 541.069 1099.61C541.069 1095.21 537.516 1091.65 533.133 1091.65C528.75 1091.65 525.197 1095.21 525.197 1099.61C525.197 1104 528.75 1107.56 533.133 1107.56Z" fill="white" stroke="#1B771B" stroke-width="3.7519" stroke-miterlimit="10" stroke-linecap="round" stroke-linejoin="round"/>
<path d="M449.988 972.628C454.371 972.628 457.924 969.068 457.924 964.676C457.924 960.284 454.371 956.723 449.988 956.723C445.605 956.723 442.052 960.284 442.052 964.676C442.052 969.068 445.605 972.628 449.988 972.628Z" fill="white" stroke="#1B771B" stroke-width="3.7519" stroke-miterlimit="10" stroke-linecap="round" stroke-linejoin="round"/>
<path d="M1582.24 1050.05C1586.62 1050.05 1590.18 1046.49 1590.18 1042.09C1590.18 1037.7 1586.62 1034.14 1582.24 1034.14C1577.86 1034.14 1574.3 1037.7 1574.3 1042.09C1574.3 1046.49 1577.86 1050.05 1582.24 1050.05Z" fill="white" stroke="#1B771B" stroke-width="3.7519" stroke-miterlimit="10" stroke-linecap="round" stroke-linejoin="round"/>
<path d="M1368.48 1244.78C1372.86 1244.78 1376.42 1241.22 1376.42 1236.82C1376.42 1232.43 1372.86 1228.87 1368.48 1228.87C1364.1 1228.87 1360.54 1232.43 1360.54 1236.82C1360.54 1241.22 1364.1 1244.78 1368.48 1244.78Z" fill="white" stroke="#1B771B" stroke-width="3.7519" stroke-miterlimit="10" stroke-linecap="round" stroke-linejoin="round"/>
<path d="M220.219 819.259C226.415 819.259 231.438 814.226 231.438 808.017C231.438 801.808 226.415 796.774 220.219 796.774C214.023 796.774 209 801.808 209 808.017C209 814.226 214.023 819.259 220.219 819.259Z" fill="#1B771B"/>
<path d="M1241.8 1349.86C1244 1349.86 1245.78 1348.07 1245.78 1345.86C1245.78 1343.66 1244 1341.87 1241.8 1341.87C1239.6 1341.87 1237.81 1343.66 1237.81 1345.86C1237.81 1348.07 1239.6 1349.86 1241.8 1349.86Z" fill="#404366"/>
<path d="M1225.72 1361.14C1227.92 1361.14 1229.71 1359.35 1229.71 1357.15C1229.71 1354.94 1227.92 1353.16 1225.72 1353.16C1223.52 1353.16 1221.74 1354.94 1221.74 1357.15C1221.74 1359.35 1223.52 1361.14 1225.72 1361.14Z" fill="#404366"/>
<path d="M1215.09 1374.25C1217.29 1374.25 1219.07 1372.46 1219.07 1370.25C1219.07 1368.05 1217.29 1366.26 1215.09 1366.26C1212.89 1366.26 1211.1 1368.05 1211.1 1370.25C1211.1 1372.46 1212.89 1374.25 1215.09 1374.25Z" fill="#404366"/>
<path d="M1206.66 1388.65C1208.86 1388.65 1210.65 1386.86 1210.65 1384.66C1210.65 1382.45 1208.86 1380.67 1206.66 1380.67C1204.46 1380.67 1202.68 1382.45 1202.68 1384.66C1202.68 1386.86 1204.46 1388.65 1206.66 1388.65Z" fill="#404366"/>
<path d="M1196.57 1400.77C1198.77 1400.77 1200.55 1398.98 1200.55 1396.77C1200.55 1394.57 1198.77 1392.78 1196.57 1392.78C1194.37 1392.78 1192.59 1394.57 1192.59 1396.77C1192.59 1398.98 1194.37 1400.77 1196.57 1400.77Z" fill="#404366"/>
<path d="M1183.16 1407.15C1185.36 1407.15 1187.15 1405.37 1187.15 1403.16C1187.15 1400.96 1185.36 1399.17 1183.16 1399.17C1180.96 1399.17 1179.18 1400.96 1179.18 1403.16C1179.18 1405.37 1180.96 1407.15 1183.16 1407.15Z" fill="#404366"/>
<path d="M1168.27 1407.93C1170.47 1407.93 1172.25 1406.14 1172.25 1403.94C1172.25 1401.73 1170.47 1399.95 1168.27 1399.95C1166.07 1399.95 1164.28 1401.73 1164.28 1403.94C1164.28 1406.14 1166.07 1407.93 1168.27 1407.93Z" fill="#404366"/>
<path d="M1153.52 1413.81C1155.72 1413.81 1157.51 1412.02 1157.51 1409.81C1157.51 1407.61 1155.72 1405.82 1153.52 1405.82C1151.32 1405.82 1149.54 1407.61 1149.54 1409.81C1149.54 1412.02 1151.32 1413.81 1153.52 1413.81Z" fill="#404366"/>
<path d="M1141.04 1421.18C1143.24 1421.18 1145.02 1419.4 1145.02 1417.19C1145.02 1414.99 1143.24 1413.2 1141.04 1413.2C1138.84 1413.2 1137.05 1414.99 1137.05 1417.19C1137.05 1419.4 1138.84 1421.18 1141.04 1421.18Z" fill="#404366"/>
<path d="M1129.09 1427.77C1131.29 1427.77 1133.07 1425.99 1133.07 1423.78C1133.07 1421.58 1131.29 1419.79 1129.09 1419.79C1126.89 1419.79 1125.1 1421.58 1125.1 1423.78C1125.1 1425.99 1126.89 1427.77 1129.09 1427.77Z" fill="#404366"/>
<path d="M1115.57 1429.64C1117.77 1429.64 1119.56 1427.85 1119.56 1425.65C1119.56 1423.44 1117.77 1421.65 1115.57 1421.65C1113.37 1421.65 1111.59 1423.44 1111.59 1425.65C1111.59 1427.85 1113.37 1429.64 1115.57 1429.64Z" fill="#404366"/>
<path d="M1100.39 1429.9C1102.59 1429.9 1104.37 1428.12 1104.37 1425.91C1104.37 1423.71 1102.59 1421.92 1100.39 1421.92C1098.19 1421.92 1096.41 1423.71 1096.41 1425.91C1096.41 1428.12 1098.19 1429.9 1100.39 1429.9Z" fill="#404366"/>
<path d="M1086.26 1425.18C1088.46 1425.18 1090.24 1423.39 1090.24 1421.18C1090.24 1418.98 1088.46 1417.19 1086.26 1417.19C1084.06 1417.19 1082.28 1418.98 1082.28 1421.18C1082.28 1423.39 1084.06 1425.18 1086.26 1425.18Z" fill="#404366"/>
<path d="M1076.63 1416.94C1078.83 1416.94 1080.62 1415.15 1080.62 1412.94C1080.62 1410.74 1078.83 1408.95 1076.63 1408.95C1074.43 1408.95 1072.65 1410.74 1072.65 1412.94C1072.65 1415.15 1074.43 1416.94 1076.63 1416.94Z" fill="#404366"/>
<path d="M1361.47 1258.85C1363.67 1258.85 1365.45 1257.06 1365.45 1254.86C1365.45 1252.65 1363.67 1250.87 1361.47 1250.87C1359.27 1250.87 1357.48 1252.65 1357.48 1254.86C1357.48 1257.06 1359.27 1258.85 1361.47 1258.85Z" fill="#404366"/>
<path d="M1351.5 1269.64C1353.7 1269.64 1355.49 1267.85 1355.49 1265.64C1355.49 1263.44 1353.7 1261.65 1351.5 1261.65C1349.3 1261.65 1347.52 1263.44 1347.52 1265.64C1347.52 1267.85 1349.3 1269.64 1351.5 1269.64Z" fill="#404366"/>
<path d="M1339.89 1282.18C1342.09 1282.18 1343.87 1280.39 1343.87 1278.19C1343.87 1275.98 1342.09 1274.19 1339.89 1274.19C1337.69 1274.19 1335.91 1275.98 1335.91 1278.19C1335.91 1280.39 1337.69 1282.18 1339.89 1282.18Z" fill="#404366"/>
<path d="M1331.42 1296.67C1333.62 1296.67 1335.41 1294.88 1335.41 1292.67C1335.41 1290.47 1333.62 1288.68 1331.42 1288.68C1329.22 1288.68 1327.44 1290.47 1327.44 1292.67C1327.44 1294.88 1329.22 1296.67 1331.42 1296.67Z" fill="#404366"/>
<path d="M1320.41 1312.22C1322.61 1312.22 1324.39 1310.43 1324.39 1308.23C1324.39 1306.02 1322.61 1304.24 1320.41 1304.24C1318.21 1304.24 1316.42 1306.02 1316.42 1308.23C1316.42 1310.43 1318.21 1312.22 1320.41 1312.22Z" fill="#404366"/>
<path d="M1299.42 1320.21C1301.62 1320.21 1303.41 1318.42 1303.41 1316.21C1303.41 1314.01 1301.62 1312.22 1299.42 1312.22C1297.22 1312.22 1295.44 1314.01 1295.44 1316.21C1295.44 1318.42 1297.22 1320.21 1299.42 1320.21Z" fill="#404366"/>
<path d="M1284.37 1329.16C1286.57 1329.16 1288.35 1327.37 1288.35 1325.17C1288.35 1322.96 1286.57 1321.17 1284.37 1321.17C1282.17 1321.17 1280.38 1322.96 1280.38 1325.17C1280.38 1327.37 1282.17 1329.16 1284.37 1329.16Z" fill="#404366"/>
<path d="M1436.58 1166.8C1438.78 1166.8 1440.57 1165.02 1440.57 1162.81C1440.57 1160.61 1438.78 1158.82 1436.58 1158.82C1434.38 1158.82 1432.6 1160.61 1432.6 1162.81C1432.6 1165.02 1434.38 1166.8 1436.58 1166.8Z" fill="#404366"/>
<path d="M1441.82 1147.35C1444.02 1147.35 1445.8 1145.57 1445.8 1143.36C1445.8 1141.16 1444.02 1139.37 1441.82 1139.37C1439.62 1139.37 1437.84 1141.16 1437.84 1143.36C1437.84 1145.57 1439.62 1147.35 1441.82 1147.35Z" fill="#404366"/>
<path d="M1448.77 1126.8C1450.97 1126.8 1452.75 1125.01 1452.75 1122.8C1452.75 1120.6 1450.97 1118.81 1448.77 1118.81C1446.57 1118.81 1444.78 1120.6 1444.78 1122.8C1444.78 1125.01 1446.57 1126.8 1448.77 1126.8Z" fill="#404366"/>
<path d="M1450.02 1106.25C1452.22 1106.25 1454 1104.46 1454 1102.26C1454 1100.05 1452.22 1098.26 1450.02 1098.26C1447.82 1098.26 1446.04 1100.05 1446.04 1102.26C1446.04 1104.46 1447.82 1106.25 1450.02 1106.25Z" fill="white" stroke="#1B771B" stroke-width="2" stroke-miterlimit="10" stroke-linecap="round" stroke-linejoin="round"/>
<path d="M1460.48 1078.75C1462.68 1078.75 1464.46 1076.96 1464.46 1074.76C1464.46 1072.55 1462.68 1070.77 1460.48 1070.77C1458.28 1070.77 1456.49 1072.55 1456.49 1074.76C1456.49 1076.96 1458.28 1078.75 1460.48 1078.75Z" fill="#404366"/>
<path d="M1510.6 1053.51C1512.8 1053.51 1514.58 1051.72 1514.58 1049.52C1514.58 1047.31 1512.8 1045.52 1510.6 1045.52C1508.4 1045.52 1506.62 1047.31 1506.62 1049.52C1506.62 1051.72 1508.4 1053.51 1510.6 1053.51Z" fill="white" stroke="#1B771B" stroke-width="2" stroke-miterlimit="10" stroke-linecap="round" stroke-linejoin="round"/>
<path d="M1548.02 1055.1C1550.22 1055.1 1552 1053.32 1552 1051.11C1552 1048.91 1550.22 1047.12 1548.02 1047.12C1545.82 1047.12 1544.03 1048.91 1544.03 1051.11C1544.03 1053.32 1545.82 1055.1 1548.02 1055.1Z" fill="white" stroke="#1B771B" stroke-width="2" stroke-miterlimit="10" stroke-linecap="round" stroke-linejoin="round"/>
<path d="M1606.24 1031.41C1608.44 1031.41 1610.22 1029.62 1610.22 1027.41C1610.22 1025.21 1608.44 1023.42 1606.24 1023.42C1604.04 1023.42 1602.25 1025.21 1602.25 1027.41C1602.25 1029.62 1604.04 1031.41 1606.24 1031.41Z" fill="#404366"/>
<path d="M1629.19 1015.09C1631.39 1015.09 1633.17 1013.3 1633.17 1011.09C1633.17 1008.89 1631.39 1007.1 1629.19 1007.1C1626.99 1007.1 1625.2 1008.89 1625.2 1011.09C1625.2 1013.3 1626.99 1015.09 1629.19 1015.09Z" fill="#404366"/>
<path d="M1644.94 999.116C1647.14 999.116 1648.93 997.329 1648.93 995.124C1648.93 992.919 1647.14 991.132 1644.94 991.132C1642.74 991.132 1640.96 992.919 1640.96 995.124C1640.96 997.329 1642.74 999.116 1644.94 999.116Z" fill="#404366"/>
<path d="M1652.62 981.422C1654.82 981.422 1656.61 979.635 1656.61 977.43C1656.61 975.225 1654.82 973.438 1652.62 973.438C1650.42 973.438 1648.64 975.225 1648.64 977.43C1648.64 979.635 1650.42 981.422 1652.62 981.422Z" fill="#404366"/>
<path d="M1691.11 964.505C1693.31 964.505 1695.09 962.718 1695.09 960.513C1695.09 958.308 1693.31 956.521 1691.11 956.521C1688.9 956.521 1687.12 958.308 1687.12 960.513C1687.12 962.718 1688.9 964.505 1691.11 964.505Z" fill="white" stroke="#1B771B" stroke-width="2" stroke-miterlimit="10" stroke-linecap="round" stroke-linejoin="round"/>
<path d="M1685.46 932.503C1687.66 932.503 1689.45 930.715 1689.45 928.511C1689.45 926.306 1687.66 924.518 1685.46 924.518C1683.26 924.518 1681.48 926.306 1681.48 928.511C1681.48 930.715 1683.26 932.503 1685.46 932.503Z" fill="white" stroke="#1B771B" stroke-width="2" stroke-miterlimit="10" stroke-linecap="round" stroke-linejoin="round"/>
<path d="M1674.78 906.036C1676.98 906.036 1678.76 904.249 1678.76 902.044C1678.76 899.839 1676.98 898.052 1674.78 898.052C1672.58 898.052 1670.79 899.839 1670.79 902.044C1670.79 904.249 1672.58 906.036 1674.78 906.036Z" fill="white" stroke="#1B771B" stroke-width="2" stroke-miterlimit="10" stroke-linecap="round" stroke-linejoin="round"/>
<path d="M1663.9 872.16C1666.1 872.16 1667.88 870.373 1667.88 868.168C1667.88 865.963 1666.1 864.176 1663.9 864.176C1661.7 864.176 1659.91 865.963 1659.91 868.168C1659.91 870.373 1661.7 872.16 1663.9 872.16Z" fill="white" stroke="#1B771B" stroke-width="2" stroke-miterlimit="10" stroke-linecap="round" stroke-linejoin="round"/>
<path d="M1666.14 846.694C1668.34 846.694 1670.12 844.907 1670.12 842.702C1670.12 840.497 1668.34 838.71 1666.14 838.71C1663.94 838.71 1662.15 840.497 1662.15 842.702C1662.15 844.907 1663.94 846.694 1666.14 846.694Z" fill="white" stroke="#1B771B" stroke-width="2" stroke-miterlimit="10" stroke-linecap="round" stroke-linejoin="round"/>
<path d="M1685.46 826.722C1687.66 826.722 1689.45 824.935 1689.45 822.73C1689.45 820.525 1687.66 818.738 1685.46 818.738C1683.26 818.738 1681.48 820.525 1681.48 822.73C1681.48 824.935 1683.26 826.722 1685.46 826.722Z" fill="white" stroke="#1B771B" stroke-width="2" stroke-miterlimit="10" stroke-linecap="round" stroke-linejoin="round"/>
<path d="M1713.37 812.744C1715.57 812.744 1717.36 810.956 1717.36 808.751C1717.36 806.546 1715.57 804.759 1713.37 804.759C1711.17 804.759 1709.39 806.546 1709.39 808.751C1709.39 810.956 1711.17 812.744 1713.37 812.744Z" fill="white" stroke="#1B771B" stroke-width="2" stroke-miterlimit="10" stroke-linecap="round" stroke-linejoin="round"/>
<path d="M1753.95 802.758C1756.15 802.758 1757.93 800.97 1757.93 798.765C1757.93 796.56 1756.15 794.773 1753.95 794.773C1751.75 794.773 1749.96 796.56 1749.96 798.765C1749.96 800.97 1751.75 802.758 1753.95 802.758Z" fill="white" stroke="#1B771B" stroke-width="2" stroke-miterlimit="10" stroke-linecap="round" stroke-linejoin="round"/>
<path d="M1784.59 792.771C1786.79 792.771 1788.57 790.984 1788.57 788.779C1788.57 786.574 1786.79 784.787 1784.59 784.787C1782.39 784.787 1780.6 786.574 1780.6 788.779C1780.6 790.984 1782.39 792.771 1784.59 792.771Z" fill="white" stroke="#1B771B" stroke-width="2" stroke-miterlimit="10" stroke-linecap="round" stroke-linejoin="round"/>
</svg>
