<svg width="2200" height="1546" viewBox="0 0 2200 1546" fill="none" xmlns="http://www.w3.org/2000/svg">
<path d="M287.773 1020.02C286.902 1022.03 286.074 1024.01 285.554 1025.95C283.749 1032.68 278.005 1036.07 276.975 1043.26" stroke="#7937C4" stroke-width="3.752" stroke-miterlimit="10" stroke-linejoin="round"/>
<path d="M298.316 991.186C294.696 993.786 291.404 996.896 290.693 1000.97C290.226 1003.63 291.627 1005.79 291.447 1008.65C291.213 1012.4 289.419 1016.25 287.784 1020.02" stroke="#C8CEDB" stroke-width="3.7519" stroke-miterlimit="10" stroke-linecap="round" stroke-linejoin="round"/>
<path d="M333.45 979.945C332.94 980.168 332.441 980.412 331.984 980.709C330.636 981.558 330.318 983.012 328.364 983.628C325.699 984.466 322.354 983.755 319.594 983.893C315.081 984.105 309.603 983.5 305.695 986.281C303.593 987.778 300.875 989.359 298.316 991.196" stroke="#C8CEDB" stroke-width="3.7519" stroke-miterlimit="10" stroke-linecap="round" stroke-linejoin="round"/>
<path d="M362.255 979.584C360.588 979.191 358.911 978.47 357.244 978.289C353.708 977.928 350.215 978.512 346.69 978.544C342.528 978.576 337.315 978.3 333.46 979.945" stroke="#C8CEDB" stroke-width="3.7519" stroke-miterlimit="10" stroke-linecap="round" stroke-linejoin="round"/>
<path d="M375.612 962.23C376.164 963.504 376.578 964.81 376.77 966.189C377.513 971.465 370.155 979.372 364.687 979.828C363.88 979.892 363.073 979.775 362.255 979.584" stroke="#7937C4" stroke-width="3.752" stroke-miterlimit="10" stroke-linejoin="round"/>
<path d="M370.112 929.486C369.581 930.038 369.072 930.633 368.583 931.269C365.228 935.621 366.12 941.788 367.426 946.936C368.838 952.519 373.372 957.051 375.623 962.241" stroke="#C8CEDB" stroke-width="3.7519" stroke-miterlimit="10" stroke-linecap="round" stroke-linejoin="round"/>
<path d="M476.575 710.002C476.84 707.125 476.83 704.249 476.065 701.383C474.621 695.959 473.57 691.13 473.22 685.409C473.199 685.112 473.188 684.804 473.167 684.507C472.784 676.483 471.861 668.215 468.782 660.711C468.59 660.244 468.399 659.787 468.208 659.331C465.851 653.642 463.547 648.25 463.186 641.945C462.984 638.411 463.728 635.237 464.577 632.106C465.458 628.869 466.467 625.663 466.701 622.15C467.242 613.914 463.42 608.214 458.27 603.385C453.705 599.097 448.099 595.488 443.544 591.402C442.535 590.489 441.569 589.555 440.688 588.589C440.104 587.952 439.562 587.305 439.063 586.647C432.193 577.689 432.416 567.266 427.787 557.034C427.532 556.461 427.256 555.888 426.959 555.314" stroke="#C8CEDB" stroke-width="3.7519" stroke-miterlimit="10" stroke-linecap="round" stroke-linejoin="round"/>
<path d="M474.695 728.013C475.014 724.118 474.961 723.247 475.258 720.053C475.577 716.688 475.216 717.367 475.524 714.024" stroke="#C8CEDB" stroke-width="3.7519" stroke-miterlimit="10" stroke-linecap="round" stroke-linejoin="round"/>
<path d="M370.112 929.486C373.722 925.687 378.118 923.606 382.397 920.454C387.61 916.622 392.866 912.844 398.026 908.98C401.625 906.284 402.698 902.739 405.851 899.757C410.841 895.066 417.053 893.569 423.126 891.181C424.336 890.703 425.557 890.204 426.757 889.663C437.003 885.089 446.761 878.094 450.126 867.172C450.732 865.198 451.135 863.086 451.284 860.846C451.666 855.2 450.392 849.712 451.135 844.013C451.475 841.455 452.08 838.971 452.781 836.509C453.556 833.813 454.448 831.149 455.233 828.442C457.336 821.193 458.036 815.026 457.548 808.307C457.357 805.622 456.975 802.852 456.423 799.891C455.085 792.769 453.641 786.708 453.662 780.085C453.673 777.877 453.843 775.606 454.235 773.207C455.552 765.204 459.565 761.351 465.214 756.087C465.501 755.822 465.787 755.556 466.074 755.291C471.223 750.493 473.145 742.756 474.069 735.05C474.239 733.649 474.366 732.259 474.483 730.879" stroke="#C8CEDB" stroke-width="3.7519" stroke-miterlimit="10" stroke-linecap="round" stroke-linejoin="round"/>
<path d="M408.898 525.192C409.44 530.923 412.678 535.371 416.415 539.457C421.119 544.605 423.763 549.031 426.959 555.282" stroke="#C8CEDB" stroke-width="3.7519" stroke-miterlimit="10" stroke-linecap="round" stroke-linejoin="round"/>
<path d="M527.709 429.189C525.787 430.654 523.929 432.203 522.209 433.721C517.665 437.691 515.34 442.308 511.708 446.659C508.311 450.735 502.577 453.06 498.426 456.403C494.434 459.619 491.524 464.279 487.33 467.155C477.424 473.969 464.588 476.644 453.768 481.611C444.488 485.867 438.532 493.955 430.218 499.156C421.034 504.909 407.688 512.052 408.93 525.192" stroke="#7937C4" stroke-width="3.7519" stroke-miterlimit="10" stroke-linejoin="round" stroke-dasharray="4.69 4.69"/>
<path d="M735.75 383.496C721.777 385.672 708.123 397.284 693.991 393.165C687.196 391.181 681.282 387.009 674.561 384.632C666.268 381.702 653.761 382.498 646.456 387.052C640.871 390.533 632.706 390.353 626.421 389.206C620.73 388.166 616.27 383.305 611.099 382.191C606.895 381.288 600.333 383.379 597.021 385.704C591.34 389.684 585.819 393.823 580.107 397.782C575.637 400.882 572.08 405.265 567.302 407.919C562.566 410.551 557.3 411.092 552.395 413.682C545.769 417.174 539.951 421.536 533.57 425.23C531.595 426.376 529.631 427.735 527.72 429.189" stroke="#7937C4" stroke-width="3.7519" stroke-miterlimit="10" stroke-linejoin="round" stroke-dasharray="4.69 4.69"/>
<path d="M861.313 379.612C845.122 376.619 829.779 370.229 813.513 367.915C808.544 367.215 806.378 365.867 802.057 367.278C796.557 369.083 791.429 372.776 785.992 374.952C779.155 377.68 772.763 378.051 765.522 379.208C756.072 380.726 746.622 382.276 737.109 383.316C736.652 383.369 736.207 383.422 735.75 383.496" stroke="#7937C4" stroke-width="3.7519" stroke-miterlimit="10" stroke-linejoin="round" stroke-dasharray="4.69 4.69"/>
<path d="M1033.55 446.999C1026.57 448.771 1017.47 456.583 1010.13 451.69C1007.06 449.642 1005.88 445.778 1003.67 442.838C998.8 436.342 989.701 435.069 981.6 434.57C973.488 434.071 964.505 433.445 958.878 427.596C957.137 425.781 955.841 423.563 953.93 421.929C951.287 419.657 949.598 420.878 946.753 420.464C944.396 420.114 941.593 418.373 939.469 417.312C932.207 413.682 931.612 409.553 927.556 402.877C922.046 393.791 908.232 389.333 898.507 387.211C886.19 384.515 873.725 381.914 861.313 379.622" stroke="#7937C4" stroke-width="3.7519" stroke-miterlimit="10" stroke-linejoin="round" stroke-dasharray="4.69 4.69"/>
<path d="M1135.25 316.915C1132.96 319.76 1130.89 322.795 1129.07 326.34C1126.42 331.456 1127.39 336.604 1125.6 341.953C1124.39 345.583 1119.1 352.376 1119.47 355.815C1120.03 360.952 1125.09 358.967 1128 360.283C1131.9 362.056 1132.77 366.323 1132.47 370.292C1131.65 380.588 1122.9 386.532 1114.92 391.573C1104.46 398.196 1100.11 402.134 1093.46 412.706C1091.06 416.527 1089.34 421.823 1086.29 425.347C1081.34 431.057 1067.43 435.504 1060.06 439.102C1053.13 442.488 1045.05 445.757 1037.32 446.437C1035.63 446.585 1034.5 446.755 1033.55 446.989" stroke="#7937C4" stroke-width="3.7519" stroke-miterlimit="10" stroke-linejoin="round" stroke-dasharray="4.69 4.69"/>
<path d="M1157.22 280.764C1155.91 282.738 1157.36 287.228 1156.99 289.977C1156.04 297.131 1148.74 302.544 1144.07 307.299C1140.86 310.557 1137.91 313.604 1135.25 316.915" stroke="#7937C4" stroke-width="3.7519" stroke-miterlimit="10" stroke-linejoin="round" stroke-dasharray="4.69 4.69"/>
<path d="M476.341 714.597C480.722 714.597 484.273 711.047 484.273 706.668C484.273 702.289 480.722 698.74 476.341 698.74C471.961 698.74 468.41 702.289 468.41 706.668C468.41 711.047 471.961 714.597 476.341 714.597Z" fill="white" stroke="#7937C4" stroke-width="3.7519" stroke-miterlimit="10" stroke-linecap="round" stroke-linejoin="round"/>
<path d="M409.121 533.746C413.502 533.746 417.053 530.197 417.053 525.818C417.053 521.439 413.502 517.889 409.121 517.889C404.741 517.889 401.19 521.439 401.19 525.818C401.19 530.197 404.741 533.746 409.121 533.746Z" fill="white" stroke="#7937C4" stroke-width="3.7519" stroke-miterlimit="10" stroke-linecap="round" stroke-linejoin="round"/>
<path d="M527.709 437.415C532.089 437.415 535.64 433.865 535.64 429.486C535.64 425.107 532.089 421.558 527.709 421.558C523.329 421.558 519.778 425.107 519.778 429.486C519.778 433.865 523.329 437.415 527.709 437.415Z" fill="white" stroke="#7937C4" stroke-width="3.7519" stroke-miterlimit="10" stroke-linecap="round" stroke-linejoin="round"/>
<path d="M735.75 391.265C740.13 391.265 743.681 387.716 743.681 383.337C743.681 378.958 740.13 375.408 735.75 375.408C731.369 375.408 727.818 378.958 727.818 383.337C727.818 387.716 731.369 391.265 735.75 391.265Z" fill="white" stroke="#7937C4" stroke-width="3.7519" stroke-miterlimit="10" stroke-linecap="round" stroke-linejoin="round"/>
<path d="M861.727 386.861C866.108 386.861 869.659 383.311 869.659 378.932C869.659 374.553 866.108 371.003 861.727 371.003C857.347 371.003 853.796 374.553 853.796 378.932C853.796 383.311 857.347 386.861 861.727 386.861Z" fill="white" stroke="#7937C4" stroke-width="3.7519" stroke-miterlimit="10" stroke-linecap="round" stroke-linejoin="round"/>
<path d="M1034.1 454.928C1038.48 454.928 1042.04 451.378 1042.04 446.999C1042.04 442.621 1038.48 439.071 1034.1 439.071C1029.72 439.071 1026.17 442.621 1026.17 446.999C1026.17 451.378 1029.72 454.928 1034.1 454.928Z" fill="white" stroke="#7937C4" stroke-width="3.7519" stroke-miterlimit="10" stroke-linecap="round" stroke-linejoin="round"/>
<path d="M1134.51 324.844C1138.89 324.844 1142.45 321.294 1142.45 316.915C1142.45 312.536 1138.89 308.986 1134.51 308.986C1130.13 308.986 1126.58 312.536 1126.58 316.915C1126.58 321.294 1130.13 324.844 1134.51 324.844Z" fill="white" stroke="#7937C4" stroke-width="3.7519" stroke-miterlimit="10" stroke-linecap="round" stroke-linejoin="round"/>
<path d="M1157.79 288.417C1163.98 288.417 1169 283.398 1169 277.208C1169 271.018 1163.98 266 1157.79 266C1151.6 266 1146.58 271.018 1146.58 277.208C1146.58 283.398 1151.6 288.417 1157.79 288.417Z" fill="#7937C4"/>
<path d="M287.762 1024C289.961 1024 291.744 1022.22 291.744 1020.02C291.744 1017.82 289.961 1016.04 287.762 1016.04C285.563 1016.04 283.781 1017.82 283.781 1020.02C283.781 1022.22 285.563 1024 287.762 1024Z" fill="white" stroke="#7937C4" stroke-width="2" stroke-miterlimit="10" stroke-linecap="round" stroke-linejoin="round"/>
<path d="M298.412 994.794C300.61 994.794 302.393 993.012 302.393 990.814C302.393 988.616 300.61 986.833 298.412 986.833C296.213 986.833 294.43 988.616 294.43 990.814C294.43 993.012 296.213 994.794 298.412 994.794Z" fill="#404366"/>
<path d="M333.598 984.445C335.797 984.445 337.58 982.663 337.58 980.465C337.58 978.267 335.797 976.485 333.598 976.485C331.399 976.485 329.617 978.267 329.617 980.465C329.617 982.663 331.399 984.445 333.598 984.445Z" fill="#404366"/>
<path d="M362.478 983.543C364.677 983.543 366.46 981.761 366.46 979.563C366.46 977.365 364.677 975.583 362.478 975.583C360.279 975.583 358.497 977.365 358.497 979.563C358.497 981.761 360.279 983.543 362.478 983.543Z" fill="#404366"/>
<path d="M375.485 966.317C377.684 966.317 379.467 964.535 379.467 962.337C379.467 960.138 377.684 958.356 375.485 958.356C373.286 958.356 371.503 960.138 371.503 962.337C371.503 964.535 373.286 966.317 375.485 966.317Z" fill="white" stroke="#7937C4" stroke-width="2" stroke-miterlimit="10" stroke-linecap="round" stroke-linejoin="round"/>
<path d="M369.772 933.466C371.971 933.466 373.754 931.684 373.754 929.486C373.754 927.288 371.971 925.506 369.772 925.506C367.573 925.506 365.791 927.288 365.791 929.486C365.791 931.684 367.573 933.466 369.772 933.466Z" fill="#404366"/>
<path d="M445.232 880.821C447.431 880.821 449.213 879.039 449.213 876.841C449.213 874.643 447.431 872.861 445.232 872.861C443.033 872.861 441.25 874.643 441.25 876.841C441.25 879.039 443.033 880.821 445.232 880.821Z" fill="#404366"/>
<path d="M451.454 860.507C453.652 860.507 455.435 858.725 455.435 856.527C455.435 854.328 453.652 852.546 451.454 852.546C449.255 852.546 447.472 854.328 447.472 856.527C447.472 858.725 449.255 860.507 451.454 860.507Z" fill="#404366"/>
<path d="M452.314 840.203C454.513 840.203 456.295 838.421 456.295 836.222C456.295 834.024 454.513 832.242 452.314 832.242C450.115 832.242 448.332 834.024 448.332 836.222C448.332 838.421 450.115 840.203 452.314 840.203Z" fill="#404366"/>
<path d="M457.559 821.49C459.757 821.49 461.54 819.708 461.54 817.51C461.54 815.311 459.757 813.529 457.559 813.529C455.36 813.529 453.577 815.311 453.577 817.51C453.577 819.708 455.36 821.49 457.559 821.49Z" fill="#404366"/>
<path d="M455.615 799.498C457.814 799.498 459.597 797.716 459.597 795.518C459.597 793.32 457.814 791.538 455.615 791.538C453.416 791.538 451.634 793.32 451.634 795.518C451.634 797.716 453.416 799.498 455.615 799.498Z" fill="#404366"/>
<path d="M455.244 774.874C457.443 774.874 459.225 773.092 459.225 770.893C459.225 768.695 457.443 766.913 455.244 766.913C453.045 766.913 451.262 768.695 451.262 770.893C451.262 773.092 453.045 774.874 455.244 774.874Z" fill="#404366"/>
<path d="M469.875 754.781C472.074 754.781 473.857 752.999 473.857 750.801C473.857 748.603 472.074 746.821 469.875 746.821C467.676 746.821 465.893 748.603 465.893 750.801C465.893 752.999 467.676 754.781 469.875 754.781Z" fill="#404366"/>
<path d="M474.355 734.126C476.554 734.126 478.337 732.344 478.337 730.146C478.337 727.948 476.554 726.166 474.355 726.166C472.156 726.166 470.374 727.948 470.374 730.146C470.374 732.344 472.156 734.126 474.355 734.126Z" fill="#404366"/>
<path d="M473.665 690.185C475.864 690.185 477.647 688.403 477.647 686.205C477.647 684.007 475.864 682.225 473.665 682.225C471.466 682.225 469.684 684.007 469.684 686.205C469.684 688.403 471.466 690.185 473.665 690.185Z" fill="#404366"/>
<path d="M472.115 674.572C474.314 674.572 476.097 672.79 476.097 670.592C476.097 668.393 474.314 666.611 472.115 666.611C469.916 666.611 468.134 668.393 468.134 670.592C468.134 672.79 469.916 674.572 472.115 674.572Z" fill="#404366"/>
<path d="M466.849 659.893C469.048 659.893 470.83 658.111 470.83 655.913C470.83 653.715 469.048 651.933 466.849 651.933C464.65 651.933 462.867 653.715 462.867 655.913C462.867 658.111 464.65 659.893 466.849 659.893Z" fill="#404366"/>
<path d="M462.867 645.14C465.066 645.14 466.849 643.358 466.849 641.159C466.849 638.961 465.066 637.179 462.867 637.179C460.668 637.179 458.886 638.961 458.886 641.159C458.886 643.358 460.668 645.14 462.867 645.14Z" fill="#404366"/>
<path d="M465.702 630.46C467.901 630.46 469.684 628.678 469.684 626.48C469.684 624.282 467.901 622.5 465.702 622.5C463.503 622.5 461.721 624.282 461.721 626.48C461.721 628.678 463.503 630.46 465.702 630.46Z" fill="#404366"/>
<path d="M465.225 615.028C467.424 615.028 469.206 613.246 469.206 611.048C469.206 608.849 467.424 607.067 465.225 607.067C463.026 607.067 461.243 608.849 461.243 611.048C461.243 613.246 463.026 615.028 465.225 615.028Z" fill="#404366"/>
<path d="M454.936 603.809C457.135 603.809 458.918 602.027 458.918 599.829C458.918 597.631 457.135 595.849 454.936 595.849C452.737 595.849 450.955 597.631 450.955 599.829C450.955 602.027 452.737 603.809 454.936 603.809Z" fill="#404366"/>
<path d="M444.319 595.392C446.518 595.392 448.3 593.61 448.3 591.412C448.3 589.214 446.518 587.432 444.319 587.432C442.12 587.432 440.337 589.214 440.337 591.412C440.337 593.61 442.12 595.392 444.319 595.392Z" fill="#404366"/>
<path d="M435.506 585.553C437.705 585.553 439.487 583.771 439.487 581.573C439.487 579.375 437.705 577.593 435.506 577.593C433.307 577.593 431.524 579.375 431.524 581.573C431.524 583.771 433.307 585.553 435.506 585.553Z" fill="#404366"/>
<path d="M431.524 573.082C433.723 573.082 435.506 571.3 435.506 569.101C435.506 566.903 433.723 565.121 431.524 565.121C429.325 565.121 427.543 566.903 427.543 569.101C427.543 571.3 429.325 573.082 431.524 573.082Z" fill="#404366"/>
<path d="M427.405 559.04C429.604 559.04 431.386 557.258 431.386 555.059C431.386 552.861 429.604 551.079 427.405 551.079C425.206 551.079 423.423 552.861 423.423 555.059C423.423 557.258 425.206 559.04 427.405 559.04Z" fill="#404366"/>
<g opacity="0.6" clip-path="url(#clip0)">
<path fill-rule="evenodd" clip-rule="evenodd" d="M261.892 1063.08C258.594 1057.14 253.073 1052.76 246.544 1050.9C240.016 1049.04 233.014 1049.84 227.079 1053.14C221.145 1056.44 216.764 1061.96 214.9 1068.49C213.036 1075.02 213.842 1082.02 217.14 1087.95C220.439 1093.89 225.96 1098.27 232.488 1100.13C239.017 1102 246.019 1101.19 251.953 1097.89C257.888 1094.59 262.269 1089.07 264.133 1082.54C265.997 1076.02 265.191 1069.01 261.892 1063.08V1063.08ZM229.571 1077.38C228.829 1077.8 228.281 1078.49 228.048 1079.3C227.815 1080.12 227.916 1080.99 228.328 1081.73C228.741 1082.48 229.431 1083.02 230.247 1083.26C231.063 1083.49 231.938 1083.39 232.68 1082.98L242.71 1077.4L241.104 1083.03C240.887 1083.84 240.998 1084.7 241.412 1085.43C241.826 1086.16 242.51 1086.7 243.317 1086.93C244.124 1087.16 244.989 1087.07 245.726 1086.66C246.463 1086.26 247.012 1085.59 247.257 1084.79L250.984 1071.73C251.217 1070.91 251.116 1070.04 250.704 1069.3C250.291 1068.56 249.602 1068.01 248.786 1067.78L235.731 1064.05C234.92 1063.83 234.057 1063.94 233.327 1064.36C232.597 1064.77 232.059 1065.46 231.829 1066.26C231.599 1067.07 231.694 1067.93 232.096 1068.67C232.497 1069.41 233.171 1069.96 233.974 1070.2L239.601 1071.81L229.571 1077.38Z" fill="#7937C4"/>
</g>
<defs>
<clipPath id="clip0">
<rect width="64" height="64" fill="white" transform="translate(227.093 1119.03) rotate(-119.066)"/>
</clipPath>
</defs>
</svg>
