<svg width="2075" height="1458" viewBox="0 0 2075 1458" fill="none" xmlns="http://www.w3.org/2000/svg">
<path d="M1666.34 1127.54C1660.06 1120.9 1653.11 1116.52 1643.51 1116.07" stroke="#00B4CC" stroke-width="3.7519" stroke-miterlimit="10" stroke-linecap="round" stroke-linejoin="round"/>
<path d="M1763.63 1129.67C1763.01 1131.18 1760.03 1132.31 1758.78 1133.26C1757.03 1134.57 1756.03 1136.15 1754.89 1137.96C1749.66 1146.27 1740.92 1154.52 1730.88 1155.64C1726.41 1156.14 1721.97 1154.72 1717.5 1154.52C1714.36 1154.38 1711.17 1154.43 1708.06 1154.28C1705.73 1154.17 1703.57 1154.16 1701.47 1154.05C1698.15 1153.87 1694.99 1153.43 1691.59 1151.91C1686.4 1149.59 1681.35 1147.52 1677.52 1143.1C1673.82 1138.83 1671.67 1133.49 1667.87 1129.2C1667.37 1128.63 1666.86 1128.07 1666.35 1127.53" stroke="#00B4CC" stroke-width="3.7519" stroke-miterlimit="10" stroke-linejoin="round" stroke-dasharray="4.69 4.69"/>
<path d="M1575.41 1181.74C1586.76 1172.44 1597.14 1162.18 1600.91 1146.98C1601.12 1145.68 1600.65 1143.41 1601.04 1141.93C1601.46 1140.37 1602.53 1138.86 1602.98 1137.25C1604.11 1133.2 1604.7 1127.11 1607.2 1123.63C1610.19 1119.47 1615.63 1123.34 1619.63 1122.29C1621.92 1121.68 1623.84 1120.56 1626.34 1120.31C1628.29 1120.12 1630.41 1120.09 1632.19 1119.14C1634.35 1117.98 1635.49 1116.84 1637.87 1116.37C1639.72 1116.01 1642.14 1116.28 1643.97 1115.67" stroke="#00B4CC" stroke-width="3.7519" stroke-miterlimit="10" stroke-linejoin="round" stroke-dasharray="4.69 4.69"/>
<path d="M1554.39 1200.8C1555.84 1199.83 1557.23 1198.84 1558.43 1197.83C1559.63 1196.82 1559.48 1194.53 1560.71 1193.51C1565.5 1189.55 1570.55 1185.74 1575.42 1181.74" stroke="#00B4CC" stroke-width="3.7519" stroke-miterlimit="10" stroke-linecap="round" stroke-linejoin="round"/>
<path d="M1554.39 1200.8C1553.06 1201.69 1551.7 1202.55 1550.4 1203.38C1544.56 1207.13 1537.35 1212.9 1530.45 1213.97C1524.2 1214.94 1516.83 1212.66 1509.63 1213.93C1500.51 1215.53 1494.64 1216.73 1485.43 1216.73C1480.36 1216.73 1475.3 1216.65 1470.23 1216.84C1466.6 1216.98 1463.12 1215.93 1459.65 1217.2C1451.93 1220.04 1446.96 1228.2 1443.1 1234.98C1438.21 1243.58 1432.17 1253.24 1422.39 1254.74C1414.5 1255.95 1406.91 1251.23 1401.05 1245.81C1391.41 1236.89 1384.12 1225.45 1380.12 1212.94C1376.14 1200.51 1375.27 1186.94 1368.89 1175.56C1362.29 1163.79 1350.64 1155.87 1339.43 1148.37C1320.94 1136 1302.49 1123.56 1284.03 1111.13C1276.81 1106.26 1269.59 1101.4 1262.37 1096.53C1257.06 1092.95 1250.73 1090.46 1245.99 1086.24" stroke="#00B4CC" stroke-width="3.7519" stroke-miterlimit="10" stroke-linejoin="round" stroke-dasharray="4.69 4.69"/>
<path d="M1100.96 933.52C1102.91 936.27 1104.8 939.05 1106.65 941.75C1110.57 947.46 1115.83 953.07 1118.75 959.34C1121.94 966.19 1124.42 973.53 1127.48 980.49C1133.8 994.82 1144.3 1007.08 1154.14 1019.23C1158.76 1024.93 1164.76 1029.19 1169.15 1035.44C1173.5 1041.63 1176.27 1048.17 1181.81 1053.5C1191.69 1062.99 1207.87 1067.88 1220.73 1072.03C1232.79 1075.92 1240.9 1080.78 1249.06 1088.06" stroke="#00B4CC" stroke-width="3.7519" stroke-miterlimit="10" stroke-linejoin="round" stroke-dasharray="4.69 4.69"/>
<path d="M1048.85 870.73C1050 872.53 1051.29 874.26 1052.69 875.88C1052.97 876.2 1053.25 876.52 1053.53 876.83C1056.76 880.37 1059.91 883.93 1063.37 887.34C1065.36 889.3 1066.45 891.66 1067.24 894.17C1068.97 899.67 1069.21 905.84 1074.09 909.77C1076.35 911.59 1079.17 912.55 1081.64 914.04C1083.31 915.06 1084.86 916.25 1086.26 917.62C1090.55 921.81 1094.33 926.71 1097.88 931.71" stroke="#00B4CC" stroke-width="3.7519" stroke-miterlimit="10" stroke-linejoin="round" stroke-dasharray="4.69 4.69"/>
<path d="M960.18 775.91C964.5 785.26 969.49 794.95 975.36 803.86C979.34 809.91 983.73 815.6 988.57 820.59C992.13 824.26 995.94 827.55 1000.02 830.32C1001.78 831.51 1003.61 832.9 1005.51 834.23C1009.72 837.18 1014.29 839.9 1019.23 839.84C1022.8 839.79 1025.49 839.5 1027.71 839.53C1032.65 839.62 1035.31 841.35 1040.35 851.13C1041.66 853.66 1042.58 856.35 1043.5 859.02C1044.36 861.52 1045.21 864.01 1046.37 866.36C1047.1 867.84 1047.93 869.3 1048.84 870.72" stroke="#C8CEDB" stroke-width="3.7519" stroke-miterlimit="10" stroke-linecap="round" stroke-linejoin="round"/>
<path d="M950 704.32C949.98 704.92 949.94 705.53 949.89 706.14C949.68 708.69 949.25 711.28 948.55 713.93C947.53 717.8 946.79 721.22 946.32 724.34C946.12 725.68 945.96 726.97 945.85 728.21C945.11 736.79 946.62 743.33 949.9 751.88C951.39 755.76 953.24 760.06 955.41 765.14C956.9 768.64 958.49 772.25 960.18 775.92" stroke="#00B4CC" stroke-width="3.7519" stroke-miterlimit="10" stroke-linejoin="round" stroke-dasharray="4.69 4.69"/>
<path d="M946.64 684.3C948.91 690.78 950.27 697.39 949.99 704.32" stroke="#C8CEDB" stroke-width="3.7519" stroke-miterlimit="10" stroke-linecap="round" stroke-linejoin="round"/>
<path d="M927.38 644.73C928.38 646.44 929.33 648.3 930.26 650.25C935.8 661.81 942.63 672.84 946.64 684.3" stroke="#C8CEDB" stroke-width="3.7519" stroke-miterlimit="10" stroke-linecap="round" stroke-linejoin="round"/>
<path d="M913.46 632.9C916.44 634.13 919.17 635.53 921.61 637.51C923.81 639.29 925.67 641.8 927.38 644.73" stroke="#C8CEDB" stroke-width="3.7519" stroke-miterlimit="10" stroke-linecap="round" stroke-linejoin="round"/>
<path d="M889.44 622.59C892.08 623.95 894.88 625.3 897.87 626.69C898.55 627.01 899.22 627.31 899.89 627.61C904.78 629.8 909.35 631.19 913.46 632.9" stroke="#00B4CC" stroke-width="3.7519" stroke-miterlimit="10" stroke-linecap="round" stroke-linejoin="round"/>
<path d="M872.72 611.65C873.67 612.47 874.63 613.25 875.6 614C879.8 617.24 884.32 619.95 889.43 622.59" stroke="#C8CEDB" stroke-width="3.7519" stroke-miterlimit="10" stroke-linecap="round" stroke-linejoin="round"/>
<path d="M852.04 584.55C855.04 589.67 858.07 594.76 861.62 599.55C862.17 600.29 862.73 601.03 863.31 601.75C866.37 605.61 869.46 608.83 872.73 611.64" stroke="#C8CEDB" stroke-width="3.7519" stroke-miterlimit="10" stroke-linecap="round" stroke-linejoin="round"/>
<path d="M843.97 571.44C844.56 572.3 845.14 573.17 845.7 574.05C847.64 577.08 849.47 580.17 851.28 583.26C851.53 583.69 851.79 584.12 852.04 584.55" stroke="#00B4CC" stroke-width="3.7519" stroke-miterlimit="10" stroke-linecap="round" stroke-linejoin="round"/>
<path d="M833.47 556.82C835.9 560.33 838.48 563.74 840.98 567.2C841.99 568.6 843 570.01 843.97 571.44" stroke="#C8CEDB" stroke-width="3.7519" stroke-miterlimit="10" stroke-linecap="round" stroke-linejoin="round"/>
<path d="M823.05 543.32C825.56 546.17 828.15 549.04 830.32 552.11C830.67 552.6 831 553.09 831.32 553.6C832.02 554.69 832.74 555.76 833.47 556.82" stroke="#00B4CC" stroke-width="3.7519" stroke-miterlimit="10" stroke-linecap="round" stroke-linejoin="round"/>
<path d="M736.99 524.52C744.88 523.38 752.75 521.93 760.25 523.68C763.44 524.43 766.04 525.96 768.58 527.48C771.9 529.46 775.14 531.42 779.54 531.56C785.73 531.75 791.43 529.29 797.49 529.89C798.25 529.96 799.01 530.09 799.79 530.27C804.46 531.37 807.7 534.49 811.98 535.77C814.04 536.38 815.62 537 817.03 537.82C818.83 538.86 820.34 540.24 822.19 542.35C822.48 542.68 822.76 543 823.05 543.33" stroke="#C8CEDB" stroke-width="3.7519" stroke-miterlimit="10" stroke-linecap="round" stroke-linejoin="round"/>
<path d="M644.84 534.59C639.96 532.06 638.19 528.31 635.1 523.46" stroke="#C8CEDB" stroke-width="3.7519" stroke-miterlimit="10" stroke-linecap="round" stroke-linejoin="round"/>
<path d="M664.04 535.49C659.26 536.76 654.43 537.57 649.8 536.43C649.58 536.38 649.36 536.32 649.14 536.25C647.47 535.77 646.06 535.22 644.84 534.58" stroke="#00B4CC" stroke-width="3.7519" stroke-miterlimit="10" stroke-linecap="round" stroke-linejoin="round"/>
<path d="M664.04 535.49C666.62 534.8 669.19 533.98 671.69 533.25C672.89 532.9 674.08 532.58 675.24 532.3C680.55 531.03 684.89 528.25 689.65 526.08C691.97 525.02 694.39 524.11 697.07 523.58C702.51 522.52 706.72 522.86 711.16 523.59C713.76 524.02 716.43 524.59 719.48 525.09C725.24 526.03 731.12 525.36 736.99 524.51" stroke="#C8CEDB" stroke-width="3.7519" stroke-miterlimit="10" stroke-linecap="round" stroke-linejoin="round"/>
<path d="M624.73 509.15C627.13 513.98 630.39 516.51 633.79 521.47C634.26 522.15 634.69 522.82 635.1 523.46" stroke="#00B4CC" stroke-width="3.7519" stroke-miterlimit="10" stroke-linecap="round" stroke-linejoin="round"/>
<path d="M619.74 493.59C620.95 497.63 621.99 501.73 623.33 505.74C623.75 507.01 624.22 508.13 624.73 509.14" stroke="#C8CEDB" stroke-width="3.7519" stroke-miterlimit="10" stroke-linecap="round" stroke-linejoin="round"/>
<path d="M616.33 472.2C615.61 477.33 616.03 482.74 618.18 488.78C618.75 490.37 619.26 491.97 619.74 493.59" stroke="#00B4CC" stroke-width="3.7519" stroke-miterlimit="10" stroke-linecap="round" stroke-linejoin="round"/>
<path d="M623.99 452.17C620.34 458.89 617.3 465.29 616.33 472.21" stroke="#00B4CC" stroke-width="3.7519" stroke-miterlimit="10" stroke-linecap="round" stroke-linejoin="round"/>
<path d="M632.38 431.75C631.79 436.09 630.6 440.19 628.58 443.87C627.01 446.72 625.45 449.47 623.98 452.17" stroke="#C8CEDB" stroke-width="3.7519" stroke-miterlimit="10" stroke-linecap="round" stroke-linejoin="round"/>
<path d="M631.7 410.99C632.79 418.04 633.28 425.17 632.39 431.75" stroke="#C8CEDB" stroke-width="3.7519" stroke-miterlimit="10" stroke-linecap="round" stroke-linejoin="round"/>
<path d="M627.44 248.33C632.85 242.23 639.66 238.49 647.16 235.28" stroke="#C8CEDB" stroke-width="3.7519" stroke-miterlimit="10" stroke-linecap="round" stroke-linejoin="round"/>
<path d="M600.26 309.91C600.96 311.63 601.68 313.35 602.14 315.11C603.47 320.18 605.93 325.08 607.97 330.22C609.62 334.38 613.98 337.17 615.39 341.56C618.07 349.9 620.68 358.76 621.94 367.44C622.88 373.93 624.84 380.1 626.37 386.52C628.1 393.77 630.36 402.32 631.7 410.99" stroke="#C8CEDB" stroke-width="3.7519" stroke-miterlimit="10" stroke-linecap="round" stroke-linejoin="round"/>
<path d="M600.85 286.72C599.34 289.81 598.37 293.12 598.23 296.3C598.11 299.11 597.87 302.33 598.55 305.03C598.96 306.68 599.61 308.29 600.26 309.91" stroke="#00B4CC" stroke-width="3.7519" stroke-miterlimit="10" stroke-linecap="round" stroke-linejoin="round"/>
<path d="M627.44 248.33C626.12 249.82 624.88 251.45 623.73 253.25C618.8 260.99 613.95 268.74 608.4 276.01C607.29 277.46 606.15 278.9 604.98 280.31C603.39 282.23 601.97 284.41 600.84 286.72" stroke="#C8CEDB" stroke-width="3.7519" stroke-miterlimit="10" stroke-linecap="round" stroke-linejoin="round"/>
<path d="M689.21 223.37C686.74 224.67 683.92 226.3 681.39 226.95C679.99 227.31 678.75 226.98 677.37 227.18C675.91 227.39 675.14 228.16 673.93 228.44C672.43 228.8 670.86 228.36 669.32 228.52C667.49 228.72 667.01 229.59 665.4 229.97C664.15 230.26 662.89 229.84 661.6 230.19C660.98 230.36 660.96 231.09 660.03 231.31C659.37 231.46 658.57 231.04 657.91 231.2C655.42 231.78 652.57 233.05 650.01 234.09C649.05 234.48 648.1 234.87 647.16 235.28" stroke="#C8CEDB" stroke-width="3.7519" stroke-miterlimit="10" stroke-linecap="round" stroke-linejoin="round"/>
<path d="M707.44 208.22C703.64 211.13 699.8 214.78 696.52 218.15C694.87 219.85 692.94 221.54 690.82 222.55C690.31 222.8 689.77 223.07 689.21 223.37" stroke="#00B4CC" stroke-width="3.7519" stroke-miterlimit="10" stroke-linecap="round" stroke-linejoin="round"/>
<path d="M727.37 185.86C727.19 186.14 727 186.42 726.8 186.71C724.3 190.21 722.19 193.96 720 197.66C718.77 199.75 717.5 201.44 715.65 203.07C713.47 204.99 710.75 205.8 708.56 207.39C708.19 207.66 707.81 207.94 707.44 208.23" stroke="#C8CEDB" stroke-width="3.7519" stroke-miterlimit="10" stroke-linecap="round" stroke-linejoin="round"/>
<path d="M729.73 167.17C729.73 167.51 729.73 167.85 729.73 168.2C729.73 175.18 730.84 180.35 727.37 185.86" stroke="#00B4CC" stroke-width="3.7519" stroke-miterlimit="10" stroke-linecap="round" stroke-linejoin="round"/>
<path d="M727.14 140.65C726.87 142.24 726.77 143.44 726.92 144.13C727.8 148.3 729.56 150.03 729.76 154.74C729.81 155.98 729.83 157.23 729.84 158.48C729.85 161.37 729.76 164.29 729.74 167.18" stroke="#C8CEDB" stroke-width="3.7519" stroke-miterlimit="10" stroke-linecap="round" stroke-linejoin="round"/>
<path d="M731.08 93.05C736.2 100.06 732.34 117.61 729.39 130.33C728.43 134.45 727.57 138.07 727.14 140.65" stroke="#00B4CC" stroke-width="3.7519" stroke-miterlimit="10" stroke-linecap="round" stroke-linejoin="round"/>
<path d="M1770.46 1134.63C1776.29 1134.63 1781.02 1129.9 1781.02 1124.07C1781.02 1118.24 1776.29 1113.51 1770.46 1113.51C1764.63 1113.51 1759.9 1118.24 1759.9 1124.07C1759.9 1129.9 1764.63 1134.63 1770.46 1134.63Z" fill="#00B4CC"/>
<path d="M1743.26 1158.39C1747.39 1158.39 1750.73 1155.05 1750.73 1150.92C1750.73 1146.79 1747.39 1143.45 1743.26 1143.45C1739.13 1143.45 1735.79 1146.79 1735.79 1150.92C1735.79 1155.05 1739.13 1158.39 1743.26 1158.39Z" fill="white" stroke="#00B4CC" stroke-width="3.7519" stroke-miterlimit="10" stroke-linecap="round" stroke-linejoin="round"/>
<path d="M601.21 293.94C605.336 293.94 608.68 290.596 608.68 286.47C608.68 282.344 605.336 279 601.21 279C597.085 279 593.74 282.344 593.74 286.47C593.74 290.596 597.085 293.94 601.21 293.94Z" fill="white" stroke="#00B4CC" stroke-width="3.7519" stroke-miterlimit="10" stroke-linecap="round" stroke-linejoin="round"/>
<path d="M622.89 460.49C627.016 460.49 630.36 457.146 630.36 453.02C630.36 448.894 627.016 445.55 622.89 445.55C618.764 445.55 615.42 448.894 615.42 453.02C615.42 457.146 618.764 460.49 622.89 460.49Z" fill="white" stroke="#00B4CC" stroke-width="3.7519" stroke-miterlimit="10" stroke-linecap="round" stroke-linejoin="round"/>
<path d="M738.77 531.96C742.895 531.96 746.24 528.616 746.24 524.49C746.24 520.364 742.895 517.02 738.77 517.02C734.644 517.02 731.3 520.364 731.3 524.49C731.3 528.616 734.644 531.96 738.77 531.96Z" fill="white" stroke="#00B4CC" stroke-width="3.7519" stroke-miterlimit="10" stroke-linecap="round" stroke-linejoin="round"/>
<path d="M959.92 783.92C964.046 783.92 967.39 780.576 967.39 776.45C967.39 772.324 964.046 768.98 959.92 768.98C955.795 768.98 952.45 772.324 952.45 776.45C952.45 780.576 955.795 783.92 959.92 783.92Z" fill="white" stroke="#00B4CC" stroke-width="3.7519" stroke-miterlimit="10" stroke-linecap="round" stroke-linejoin="round"/>
<path d="M1103.86 945.06C1107.99 945.06 1111.33 941.716 1111.33 937.59C1111.33 933.464 1107.99 930.12 1103.86 930.12C1099.73 930.12 1096.39 933.464 1096.39 937.59C1096.39 941.716 1099.73 945.06 1103.86 945.06Z" fill="white" stroke="#00B4CC" stroke-width="3.7519" stroke-miterlimit="10" stroke-linecap="round" stroke-linejoin="round"/>
<path d="M1245.83 1094.18C1249.96 1094.18 1253.3 1090.84 1253.3 1086.71C1253.3 1082.58 1249.96 1079.24 1245.83 1079.24C1241.7 1079.24 1238.36 1082.58 1238.36 1086.71C1238.36 1090.84 1241.7 1094.18 1245.83 1094.18Z" fill="white" stroke="#00B4CC" stroke-width="3.7519" stroke-miterlimit="10" stroke-linecap="round" stroke-linejoin="round"/>
<path d="M1554.39 1208.27C1558.52 1208.27 1561.86 1204.93 1561.86 1200.8C1561.86 1196.67 1558.52 1193.33 1554.39 1193.33C1550.26 1193.33 1546.92 1196.67 1546.92 1200.8C1546.92 1204.93 1550.26 1208.27 1554.39 1208.27Z" fill="white" stroke="#00B4CC" stroke-width="3.7519" stroke-miterlimit="10" stroke-linecap="round" stroke-linejoin="round"/>
<path d="M1646.77 1123.79C1650.9 1123.79 1654.24 1120.45 1654.24 1116.32C1654.24 1112.19 1650.9 1108.85 1646.77 1108.85C1642.64 1108.85 1639.3 1112.19 1639.3 1116.32C1639.3 1120.45 1642.64 1123.79 1646.77 1123.79Z" fill="white" stroke="#00B4CC" stroke-width="3.7519" stroke-miterlimit="10" stroke-linecap="round" stroke-linejoin="round"/>
<path d="M632.85 428.57C634.921 428.57 636.6 426.891 636.6 424.82C636.6 422.749 634.921 421.07 632.85 421.07C630.779 421.07 629.1 422.749 629.1 424.82C629.1 426.891 630.779 428.57 632.85 428.57Z" fill="#404366"/>
<path d="M615.72 480.34C617.791 480.34 619.47 478.661 619.47 476.59C619.47 474.519 617.791 472.84 615.72 472.84C613.649 472.84 611.97 474.519 611.97 476.59C611.97 478.661 613.649 480.34 615.72 480.34Z" fill="white" stroke="#00B4CC" stroke-width="2" stroke-miterlimit="10" stroke-linecap="round" stroke-linejoin="round"/>
<path d="M619.7 497.34C621.771 497.34 623.45 495.661 623.45 493.59C623.45 491.519 621.771 489.84 619.7 489.84C617.629 489.84 615.95 491.519 615.95 493.59C615.95 495.661 617.629 497.34 619.7 497.34Z" fill="white" stroke="#00B4CC" stroke-width="2" stroke-miterlimit="10" stroke-linecap="round" stroke-linejoin="round"/>
<path d="M624.44 512.14C626.511 512.14 628.19 510.461 628.19 508.39C628.19 506.319 626.511 504.64 624.44 504.64C622.369 504.64 620.69 506.319 620.69 508.39C620.69 510.461 622.369 512.14 624.44 512.14Z" fill="#404366"/>
<path d="M634.44 527.04C636.511 527.04 638.19 525.361 638.19 523.29C638.19 521.219 636.511 519.54 634.44 519.54C632.369 519.54 630.69 521.219 630.69 523.29C630.69 525.361 632.369 527.04 634.44 527.04Z" fill="white" stroke="#00B4CC" stroke-width="2" stroke-miterlimit="10" stroke-linecap="round" stroke-linejoin="round"/>
<path d="M644.63 538.49C646.701 538.49 648.38 536.811 648.38 534.74C648.38 532.669 646.701 530.99 644.63 530.99C642.559 530.99 640.88 532.669 640.88 534.74C640.88 536.811 642.559 538.49 644.63 538.49Z" fill="#404366"/>
<path d="M664.01 539.12C666.081 539.12 667.76 537.441 667.76 535.37C667.76 533.299 666.081 531.62 664.01 531.62C661.939 531.62 660.26 533.299 660.26 535.37C660.26 537.441 661.939 539.12 664.01 539.12Z" fill="white" stroke="#00B4CC" stroke-width="2" stroke-miterlimit="10" stroke-linecap="round" stroke-linejoin="round"/>
<path d="M696.06 527.99C698.131 527.99 699.81 526.311 699.81 524.24C699.81 522.169 698.131 520.49 696.06 520.49C693.989 520.49 692.31 522.169 692.31 524.24C692.31 526.311 693.989 527.99 696.06 527.99Z" fill="#404366"/>
<path d="M679.68 534.54C681.751 534.54 683.43 532.861 683.43 530.79C683.43 528.719 681.751 527.04 679.68 527.04C677.609 527.04 675.93 528.719 675.93 530.79C675.93 532.861 677.609 534.54 679.68 534.54Z" fill="#404366"/>
<path d="M716.2 527.99C718.271 527.99 719.95 526.311 719.95 524.24C719.95 522.169 718.271 520.49 716.2 520.49C714.129 520.49 712.45 522.169 712.45 524.24C712.45 526.311 714.129 527.99 716.2 527.99Z" fill="#404366"/>
<path d="M773.24 533.23C775.311 533.23 776.99 531.551 776.99 529.48C776.99 527.409 775.311 525.73 773.24 525.73C771.169 525.73 769.49 527.409 769.49 529.48C769.49 531.551 771.169 533.23 773.24 533.23Z" fill="#404366"/>
<path d="M808.14 538.49C810.211 538.49 811.89 536.811 811.89 534.74C811.89 532.669 810.211 530.99 808.14 530.99C806.069 530.99 804.39 532.669 804.39 534.74C804.39 536.811 806.069 538.49 808.14 538.49Z" fill="#404366"/>
<path d="M823.18 546.56C825.251 546.56 826.93 544.881 826.93 542.81C826.93 540.739 825.251 539.06 823.18 539.06C821.109 539.06 819.43 540.739 819.43 542.81C819.43 544.881 821.109 546.56 823.18 546.56Z" fill="#404366"/>
<path d="M833.34 560.45C835.411 560.45 837.09 558.771 837.09 556.7C837.09 554.629 835.411 552.95 833.34 552.95C831.269 552.95 829.59 554.629 829.59 556.7C829.59 558.771 831.269 560.45 833.34 560.45Z" fill="white" stroke="#00B4CC" stroke-width="2" stroke-miterlimit="10" stroke-linecap="round" stroke-linejoin="round"/>
<path d="M843.97 574.7C846.041 574.7 847.72 573.021 847.72 570.95C847.72 568.879 846.041 567.2 843.97 567.2C841.899 567.2 840.22 568.879 840.22 570.95C840.22 573.021 841.899 574.7 843.97 574.7Z" fill="#404366"/>
<path d="M852.11 587.56C854.181 587.56 855.86 585.881 855.86 583.81C855.86 581.739 854.181 580.06 852.11 580.06C850.039 580.06 848.36 581.739 848.36 583.81C848.36 585.881 850.039 587.56 852.11 587.56Z" fill="white" stroke="#00B4CC" stroke-width="2" stroke-miterlimit="10" stroke-linecap="round" stroke-linejoin="round"/>
<path d="M861.62 602.96C863.691 602.96 865.37 601.281 865.37 599.21C865.37 597.139 863.691 595.46 861.62 595.46C859.549 595.46 857.87 597.139 857.87 599.21C857.87 601.281 859.549 602.96 861.62 602.96Z" fill="#404366"/>
<path d="M872.72 615.28C874.791 615.28 876.47 613.601 876.47 611.53C876.47 609.459 874.791 607.78 872.72 607.78C870.649 607.78 868.97 609.459 868.97 611.53C868.97 613.601 870.649 615.28 872.72 615.28Z" fill="#404366"/>
<path d="M889.3 626.26C891.371 626.26 893.05 624.581 893.05 622.51C893.05 620.439 891.371 618.76 889.3 618.76C887.229 618.76 885.55 620.439 885.55 622.51C885.55 624.581 887.229 626.26 889.3 626.26Z" fill="#404366"/>
<path d="M913.46 636.65C915.531 636.65 917.21 634.971 917.21 632.9C917.21 630.829 915.531 629.15 913.46 629.15C911.389 629.15 909.71 630.829 909.71 632.9C909.71 634.971 911.389 636.65 913.46 636.65Z" fill="white" stroke="#00B4CC" stroke-width="2" stroke-miterlimit="10" stroke-linecap="round" stroke-linejoin="round"/>
<path d="M927.55 648.3C929.621 648.3 931.3 646.621 931.3 644.55C931.3 642.479 929.621 640.8 927.55 640.8C925.479 640.8 923.8 642.479 923.8 644.55C923.8 646.621 925.479 648.3 927.55 648.3Z" fill="#404366"/>
<path d="M946.34 686.57C948.411 686.57 950.09 684.891 950.09 682.82C950.09 680.749 948.411 679.07 946.34 679.07C944.269 679.07 942.59 680.749 942.59 682.82C942.59 684.891 944.269 686.57 946.34 686.57Z" fill="#404366"/>
<path d="M950.03 708.07C952.101 708.07 953.78 706.391 953.78 704.32C953.78 702.249 952.101 700.57 950.03 700.57C947.959 700.57 946.28 702.249 946.28 704.32C946.28 706.391 947.959 708.07 950.03 708.07Z" fill="#404366"/>
<path d="M971.14 800.76C973.211 800.76 974.89 799.081 974.89 797.01C974.89 794.939 973.211 793.26 971.14 793.26C969.069 793.26 967.39 794.939 967.39 797.01C967.39 799.081 969.069 800.76 971.14 800.76Z" fill="#404366"/>
<path d="M981.99 816.35C984.061 816.35 985.74 814.671 985.74 812.6C985.74 810.529 984.061 808.85 981.99 808.85C979.919 808.85 978.24 810.529 978.24 812.6C978.24 814.671 979.919 816.35 981.99 816.35Z" fill="#404366"/>
<path d="M992.87 828.33C994.941 828.33 996.62 826.651 996.62 824.58C996.62 822.509 994.941 820.83 992.87 820.83C990.799 820.83 989.12 822.509 989.12 824.58C989.12 826.651 990.799 828.33 992.87 828.33Z" fill="#404366"/>
<path d="M1005.8 837.99C1007.87 837.99 1009.55 836.311 1009.55 834.24C1009.55 832.169 1007.87 830.49 1005.8 830.49C1003.73 830.49 1002.05 832.169 1002.05 834.24C1002.05 836.311 1003.73 837.99 1005.8 837.99Z" fill="#404366"/>
<path d="M1024.84 843.59C1026.91 843.59 1028.59 841.911 1028.59 839.84C1028.59 837.769 1026.91 836.09 1024.84 836.09C1022.77 836.09 1021.09 837.769 1021.09 839.84C1021.09 841.911 1022.77 843.59 1024.84 843.59Z" fill="#404366"/>
<path d="M1041.1 857.65C1043.17 857.65 1044.85 855.971 1044.85 853.9C1044.85 851.829 1043.17 850.15 1041.1 850.15C1039.03 850.15 1037.35 851.829 1037.35 853.9C1037.35 855.971 1039.03 857.65 1041.1 857.65Z" fill="#404366"/>
<path d="M1666.58 1131.29C1668.65 1131.29 1670.33 1129.61 1670.33 1127.54C1670.33 1125.47 1668.65 1123.79 1666.58 1123.79C1664.51 1123.79 1662.83 1125.47 1662.83 1127.54C1662.83 1129.61 1664.51 1131.29 1666.58 1131.29Z" fill="white" stroke="#00B4CC" stroke-width="2" stroke-miterlimit="10" stroke-linecap="round" stroke-linejoin="round"/>
<path d="M1575.41 1185.44C1577.48 1185.44 1579.16 1183.76 1579.16 1181.69C1579.16 1179.62 1577.48 1177.94 1575.41 1177.94C1573.34 1177.94 1571.66 1179.62 1571.66 1181.69C1571.66 1183.76 1573.34 1185.44 1575.41 1185.44Z" fill="white" stroke="#00B4CC" stroke-width="2" stroke-miterlimit="10" stroke-linecap="round" stroke-linejoin="round"/>
<path d="M1048.6 874.48C1050.67 874.48 1052.35 872.801 1052.35 870.73C1052.35 868.659 1050.67 866.98 1048.6 866.98C1046.53 866.98 1044.85 868.659 1044.85 870.73C1044.85 872.801 1046.53 874.48 1048.6 874.48Z" fill="#404366"/>
<path d="M615.19 346.71C617.261 346.71 618.94 345.031 618.94 342.96C618.94 340.889 617.261 339.21 615.19 339.21C613.119 339.21 611.44 340.889 611.44 342.96C611.44 345.031 613.119 346.71 615.19 346.71Z" fill="#404366"/>
<path d="M605.77 330.05C607.841 330.05 609.52 328.371 609.52 326.3C609.52 324.229 607.841 322.55 605.77 322.55C603.699 322.55 602.02 324.229 602.02 326.3C602.02 328.371 603.699 330.05 605.77 330.05Z" fill="#404366"/>
<path d="M599.75 313.48C601.821 313.48 603.5 311.801 603.5 309.73C603.5 307.659 601.821 305.98 599.75 305.98C597.679 305.98 596 307.659 596 309.73C596 311.801 597.679 313.48 599.75 313.48Z" fill="#404366"/>
<path d="M627.44 251.76C629.511 251.76 631.19 250.081 631.19 248.01C631.19 245.939 629.511 244.26 627.44 244.26C625.369 244.26 623.69 245.939 623.69 248.01C623.69 250.081 625.369 251.76 627.44 251.76Z" fill="#404366"/>
<path d="M649 238.25C651.071 238.25 652.75 236.571 652.75 234.5C652.75 232.429 651.071 230.75 649 230.75C646.929 230.75 645.25 232.429 645.25 234.5C645.25 236.571 646.929 238.25 649 238.25Z" fill="#404366"/>
<path d="M689.21 227.12C691.281 227.12 692.96 225.441 692.96 223.37C692.96 221.299 691.281 219.62 689.21 219.62C687.139 219.62 685.46 221.299 685.46 223.37C685.46 225.441 687.139 227.12 689.21 227.12Z" fill="white" stroke="#00B4CC" stroke-width="2" stroke-miterlimit="10" stroke-linecap="round" stroke-linejoin="round"/>
<path d="M709 210.57C711.071 210.57 712.75 208.891 712.75 206.82C712.75 204.749 711.071 203.07 709 203.07C706.929 203.07 705.25 204.749 705.25 206.82C705.25 208.891 706.929 210.57 709 210.57Z" fill="#404366"/>
<path d="M725.64 191.83C727.711 191.83 729.39 190.151 729.39 188.08C729.39 186.009 727.711 184.33 725.64 184.33C723.569 184.33 721.89 186.009 721.89 188.08C721.89 190.151 723.569 191.83 725.64 191.83Z" fill="white" stroke="#00B4CC" stroke-width="2" stroke-miterlimit="10" stroke-linecap="round" stroke-linejoin="round"/>
<path d="M729.79 170.7C731.861 170.7 733.54 169.021 733.54 166.95C733.54 164.879 731.861 163.2 729.79 163.2C727.719 163.2 726.04 164.879 726.04 166.95C726.04 169.021 727.719 170.7 729.79 170.7Z" fill="#404366"/>
<path d="M727.45 144.4C729.521 144.4 731.2 142.721 731.2 140.65C731.2 138.579 729.521 136.9 727.45 136.9C725.379 136.9 723.7 138.579 723.7 140.65C723.7 142.721 725.379 144.4 727.45 144.4Z" fill="white" stroke="#00B4CC" stroke-width="2" stroke-miterlimit="10" stroke-linecap="round" stroke-linejoin="round"/>
<path d="M731.73 122.58C733.801 122.58 735.48 120.901 735.48 118.83C735.48 116.759 733.801 115.08 731.73 115.08C729.659 115.08 727.98 116.759 727.98 118.83C727.98 120.901 729.659 122.58 731.73 122.58Z" fill="white" stroke="#00B4CC" stroke-width="2" stroke-miterlimit="10" stroke-linecap="round" stroke-linejoin="round"/>
</svg>
