<svg width="2200" height="1546" viewBox="0 0 2200 1546" fill="none" xmlns="http://www.w3.org/2000/svg">
<path d="M1768.39 1196.35C1761.73 1189.3 1754.35 1184.65 1744.16 1184.18" stroke="#00B4CC" stroke-width="3.7519" stroke-miterlimit="10" stroke-linecap="round" stroke-linejoin="round"/>
<path d="M1871.65 1198.62C1870.99 1200.22 1867.83 1201.42 1866.5 1202.43C1864.65 1203.82 1863.59 1205.5 1862.38 1207.42C1856.82 1216.24 1847.55 1225 1836.89 1226.19C1832.15 1226.72 1827.44 1225.21 1822.69 1225C1819.36 1224.85 1815.97 1224.91 1812.67 1224.75C1810.2 1224.63 1807.91 1224.62 1805.68 1224.5C1802.16 1224.31 1798.8 1223.84 1795.19 1222.23C1789.68 1219.77 1784.32 1217.57 1780.26 1212.88C1776.33 1208.34 1774.05 1202.67 1770.02 1198.12C1769.49 1197.51 1768.95 1196.92 1768.4 1196.34" stroke="#00B4CC" stroke-width="3.7519" stroke-miterlimit="10" stroke-linejoin="round" stroke-dasharray="4.69 4.69"/>
<path d="M1671.89 1253.91C1683.93 1244.04 1694.95 1233.14 1698.95 1217.01C1699.17 1215.63 1698.67 1213.22 1699.09 1211.64C1699.53 1209.99 1700.67 1208.38 1701.15 1206.67C1702.35 1202.37 1702.97 1195.91 1705.63 1192.21C1708.8 1187.8 1714.57 1191.91 1718.82 1190.79C1721.25 1190.14 1723.29 1188.95 1725.94 1188.69C1728.01 1188.49 1730.26 1188.46 1732.15 1187.45C1734.44 1186.22 1735.65 1185 1738.18 1184.51C1740.14 1184.12 1742.71 1184.41 1744.65 1183.76" stroke="#00B4CC" stroke-width="3.7519" stroke-miterlimit="10" stroke-linejoin="round" stroke-dasharray="4.69 4.69"/>
<path d="M1649.57 1274.14C1651.1 1273.11 1652.58 1272.06 1653.85 1270.99C1655.13 1269.91 1654.97 1267.48 1656.27 1266.4C1661.36 1262.19 1666.72 1258.15 1671.89 1253.9" stroke="#00B4CC" stroke-width="3.7519" stroke-miterlimit="10" stroke-linecap="round" stroke-linejoin="round"/>
<path d="M1649.57 1274.14C1648.15 1275.08 1646.71 1276 1645.33 1276.88C1639.13 1280.86 1631.48 1286.99 1624.16 1288.12C1617.52 1289.15 1609.7 1286.73 1602.06 1288.08C1592.38 1289.78 1586.15 1291.05 1576.38 1291.05C1570.99 1291.05 1565.62 1290.97 1560.24 1291.17C1556.39 1291.32 1552.7 1290.2 1549.01 1291.55C1540.82 1294.57 1535.55 1303.23 1531.45 1310.43C1526.26 1319.56 1519.85 1329.82 1509.47 1331.41C1501.09 1332.69 1493.04 1327.68 1486.82 1321.93C1476.59 1312.46 1468.85 1300.31 1464.6 1287.03C1460.38 1273.83 1459.46 1259.42 1452.69 1247.34C1445.68 1234.84 1433.32 1226.43 1421.42 1218.47C1401.79 1205.34 1382.21 1192.13 1362.62 1178.93C1354.96 1173.76 1347.29 1168.6 1339.63 1163.43C1334 1159.63 1327.28 1156.99 1322.25 1152.5" stroke="#00B4CC" stroke-width="3.7519" stroke-miterlimit="10" stroke-linejoin="round" stroke-dasharray="4.69 4.69"/>
<path d="M1168.33 990.354C1170.4 993.274 1172.41 996.226 1174.37 999.092C1178.53 1005.16 1184.11 1011.11 1187.21 1017.77C1190.6 1025.04 1193.23 1032.83 1196.48 1040.22C1203.19 1055.44 1214.33 1068.46 1224.77 1081.36C1229.68 1087.41 1236.04 1091.93 1240.7 1098.57C1245.32 1105.14 1248.26 1112.08 1254.14 1117.74C1264.63 1127.82 1281.8 1133.01 1295.45 1137.42C1308.25 1141.55 1316.86 1146.71 1325.52 1154.44" stroke="#00B4CC" stroke-width="3.7519" stroke-miterlimit="10" stroke-linejoin="round" stroke-dasharray="4.69 4.69"/>
<path d="M1152.73 973.483C1157.28 977.932 1161.29 983.134 1165.06 988.443" stroke="#C8CEDB" stroke-width="3.7519" stroke-miterlimit="10" stroke-linecap="round" stroke-linejoin="round"/>
<path d="M1152.73 973.483C1151.24 972.028 1149.61 970.754 1147.83 969.682C1145.21 968.089 1142.21 967.07 1139.81 965.148C1134.63 960.975 1134.38 954.435 1132.54 948.585C1131.7 945.93 1130.54 943.414 1128.43 941.333C1124.76 937.712 1121.42 933.933 1117.99 930.174C1117.68 929.845 1117.39 929.505 1117.1 929.165C1115.62 927.445 1114.25 925.609 1113.02 923.697C1112.06 922.19 1111.18 920.64 1110.4 919.068C1109.17 916.573 1108.26 913.929 1107.36 911.275C1106.38 908.429 1105.4 905.584 1104.01 902.898C1098.65 892.514 1095.84 890.666 1090.6 890.581C1089.3 890.56 1087.87 890.645 1086.21 890.73" stroke="#C8CEDB" stroke-width="3.7519" stroke-miterlimit="10" stroke-linecap="round" stroke-linejoin="round"/>
<path d="M1041.68 861.999C1044.02 864.972 1046.47 867.807 1049.04 870.461C1052.81 874.358 1056.86 877.851 1061.19 880.792C1063.06 882.056 1065 883.532 1067.01 884.944C1071.48 888.076 1076.33 890.964 1081.58 890.9C1083.3 890.879 1084.81 890.804 1086.19 890.73" stroke="#00B4CC" stroke-width="3.7519" stroke-miterlimit="10" stroke-linecap="round" stroke-linejoin="round"/>
<path d="M1030.51 845.468C1031.96 847.92 1033.45 850.331 1035.01 852.698C1037.13 855.915 1039.35 859.026 1041.68 861.999" stroke="#00B4CC" stroke-width="3.7519" stroke-miterlimit="10" stroke-linecap="round" stroke-linejoin="round"/>
<path d="M1018.9 823.022C1022.34 830.476 1026.18 838.121 1030.51 845.468" stroke="#C8CEDB" stroke-width="3.7519" stroke-miterlimit="10" stroke-linecap="round" stroke-linejoin="round"/>
<path d="M1006.58 732.615C1006.02 730.311 1005.34 728.017 1004.54 725.745C1000.29 713.577 993.039 701.866 987.159 689.592C986.172 687.533 985.164 685.558 984.102 683.732C982.287 680.621 980.313 677.956 977.978 676.066C975.389 673.964 972.491 672.488 969.328 671.171C964.966 669.356 960.105 667.88 954.926 665.554C954.215 665.236 953.504 664.917 952.782 664.578C949.609 663.102 946.637 661.679 943.835 660.224C938.411 657.421 933.614 654.534 929.157 651.104C928.116 650.308 927.098 649.469 926.1 648.609C924.242 647.006 922.438 645.286 920.666 643.396" stroke="#C8CEDB" stroke-width="3.7519" stroke-miterlimit="10" stroke-linecap="round" stroke-linejoin="round"/>
<path d="M1007.8 750.696C1007.88 750.102 1007.93 749.518 1007.98 748.923C1008.04 748.275 1008.08 747.638 1008.1 746.991C1008.3 742.064 1007.71 737.286 1006.58 732.604" stroke="#00B4CC" stroke-width="3.7519" stroke-miterlimit="10" stroke-linecap="round" stroke-linejoin="round"/>
<path d="M1018.9 823.022C1017.11 819.126 1015.42 815.293 1013.84 811.577C1011.54 806.172 1009.57 801.617 1007.99 797.498C1004.52 788.431 1002.91 781.476 1003.69 772.366C1003.81 771.05 1003.97 769.68 1004.19 768.257C1004.69 764.945 1005.48 761.313 1006.56 757.204C1007.14 755.007 1007.55 752.841 1007.8 750.707" stroke="#C8CEDB" stroke-width="3.7519" stroke-miterlimit="10" stroke-linecap="round" stroke-linejoin="round"/>
<path d="M904.141 619.846C907.325 625.282 910.541 630.686 914.309 635.772C914.892 636.558 915.487 637.344 916.102 638.108C917.609 640.009 919.127 641.76 920.666 643.396" stroke="#00B4CC" stroke-width="3.7519" stroke-miterlimit="10" stroke-linecap="round" stroke-linejoin="round"/>
<path d="M895.565 605.916C896.191 606.829 896.807 607.753 897.401 608.687C899.46 611.904 901.402 615.185 903.323 618.466C903.589 618.922 903.865 619.379 904.13 619.835" stroke="#00B4CC" stroke-width="3.7519" stroke-miterlimit="10" stroke-linecap="round" stroke-linejoin="round"/>
<path d="M895.565 605.916C894.535 604.398 893.463 602.901 892.391 601.414C891.044 599.556 889.685 597.709 888.327 595.861C887 594.056 885.694 592.241 884.421 590.393C883.646 589.268 882.882 588.132 882.139 586.974C881.799 586.444 881.438 585.913 881.078 585.392C878.774 582.133 876.036 579.086 873.362 576.06C873.054 575.709 872.746 575.369 872.449 575.019C870.485 572.779 868.883 571.324 866.972 570.209C865.476 569.339 863.799 568.691 861.612 568.033C857.07 566.674 853.621 563.361 848.675 562.193" stroke="#C8CEDB" stroke-width="3.7519" stroke-miterlimit="10" stroke-linecap="round" stroke-linejoin="round"/>
<path d="M827.193 563.573C833.763 563.775 839.813 561.163 846.245 561.8C847.051 561.874 847.858 562.012 848.686 562.204" stroke="#00B4CC" stroke-width="3.7519" stroke-miterlimit="10" stroke-linecap="round" stroke-linejoin="round"/>
<path d="M806.709 555.207C810.095 556.003 812.854 557.627 815.55 559.241C819.074 561.343 822.513 563.425 827.182 563.573" stroke="#00B4CC" stroke-width="3.7519" stroke-miterlimit="10" stroke-linecap="round" stroke-linejoin="round"/>
<path d="M782.033 556.098C790.407 554.888 797.518 553.083 805.478 554.941" stroke="#C8CEDB" stroke-width="3.7519" stroke-miterlimit="10" stroke-linecap="round" stroke-linejoin="round"/>
<path d="M754.618 555.122C757.378 555.578 760.211 556.183 763.449 556.714C769.562 557.712 775.803 557.001 782.033 556.098" stroke="#C8CEDB" stroke-width="3.7519" stroke-miterlimit="10" stroke-linecap="round" stroke-linejoin="round"/>
<path d="M754.618 555.122C749.906 554.336 745.438 553.975 739.664 555.111C736.82 555.664 734.251 556.64 731.789 557.766C726.737 560.07 722.131 563.022 716.495 564.37C715.253 564.667 714.001 565.007 712.727 565.379C710.063 566.154 707.346 567.024 704.608 567.757C699.535 569.105 694.408 569.965 689.494 568.755C689.261 568.702 689.027 568.638 688.794 568.564C687.021 568.054 685.525 567.47 684.23 566.791C679.051 564.104 677.172 560.123 673.893 554.973C673.457 554.294 672.99 553.583 672.502 552.861C668.894 547.594 665.434 544.908 662.886 539.78" stroke="#C8CEDB" stroke-width="3.7519" stroke-miterlimit="10" stroke-linecap="round" stroke-linejoin="round"/>
<path d="M654.12 511.495C655.404 515.784 656.508 520.137 657.93 524.395C658.375 525.743 662.345 538.707 662.876 539.78" stroke="#00B4CC" stroke-width="3.7519" stroke-miterlimit="10" stroke-linecap="round" stroke-linejoin="round"/>
<path d="M657.208 489.293C655.638 493.402 654.417 497.416 653.971 500.558" stroke="#C8CEDB" stroke-width="3.7519" stroke-miterlimit="10" stroke-linecap="round" stroke-linejoin="round"/>
<path d="M664.192 474.047C661.984 478.124 659.288 483.793 657.197 489.283" stroke="#C8CEDB" stroke-width="3.7519" stroke-miterlimit="10" stroke-linecap="round" stroke-linejoin="round"/>
<path d="M671.006 457.6C670.379 462.208 669.116 466.561 666.972 470.468C665.306 473.494 665.211 473.558 663.65 476.414" stroke="#00B4CC" stroke-width="3.7519" stroke-miterlimit="10" stroke-linecap="round" stroke-linejoin="round"/>
<path d="M670.273 435.569C671.43 443.054 671.95 450.624 671.006 457.611" stroke="#C8CEDB" stroke-width="3.7519" stroke-miterlimit="10" stroke-linecap="round" stroke-linejoin="round"/>
<path d="M665.763 262.854C671.505 256.377 678.732 252.407 686.692 248.998" stroke="#C8CEDB" stroke-width="3.7519" stroke-miterlimit="10" stroke-linecap="round" stroke-linejoin="round"/>
<path d="M643.177 345.224C641.543 341.392 639.908 337.612 638.9 333.758C638.412 331.9 637.647 330.063 636.905 328.236C636.204 326.527 635.525 324.807 635.09 323.055C634.379 320.188 634.623 316.759 634.75 313.786C634.899 310.41 635.928 306.895 637.531 303.615" stroke="#C8CEDB" stroke-width="3.7519" stroke-miterlimit="10" stroke-linecap="round" stroke-linejoin="round"/>
<path d="M652.963 361.851C651.466 357.201 646.849 354.228 645.087 349.811C644.472 348.272 643.824 346.743 643.177 345.224" stroke="#00B4CC" stroke-width="3.7519" stroke-miterlimit="10" stroke-linecap="round" stroke-linejoin="round"/>
<path d="M670.273 435.569C668.851 426.363 666.453 417.286 664.616 409.588C662.993 402.771 660.923 396.22 659.915 389.33C658.577 380.103 655.797 370.696 652.963 361.852" stroke="#C8CEDB" stroke-width="3.7519" stroke-miterlimit="10" stroke-linecap="round" stroke-linejoin="round"/>
<path d="M665.763 262.854C664.362 264.436 663.046 266.166 661.825 268.078C656.593 276.296 651.445 284.524 645.555 292.243C644.377 293.783 643.167 295.311 641.925 296.809C640.237 298.847 638.73 301.162 637.531 303.614" stroke="#C8CEDB" stroke-width="3.7519" stroke-miterlimit="10" stroke-linecap="round" stroke-linejoin="round"/>
<path d="M731.311 236.353C728.69 237.733 725.697 239.463 723.012 240.154C721.526 240.536 720.21 240.185 718.745 240.398C717.195 240.621 716.378 241.438 715.094 241.736C713.502 242.118 711.836 241.651 710.201 241.821C708.259 242.033 707.749 242.957 706.041 243.36C704.714 243.668 703.377 243.222 702.008 243.594C701.35 243.774 701.328 244.549 700.341 244.783C699.641 244.942 698.792 244.496 698.091 244.666C695.448 245.282 692.424 246.63 689.707 247.735C688.688 248.149 687.679 248.563 686.682 248.998" stroke="#C8CEDB" stroke-width="3.7519" stroke-miterlimit="10" stroke-linecap="round" stroke-linejoin="round"/>
<path d="M750.659 220.278C746.626 223.367 742.551 227.243 739.07 230.821C737.318 232.626 735.27 234.42 733.02 235.492C732.479 235.758 731.906 236.045 731.311 236.363" stroke="#00B4CC" stroke-width="3.7519" stroke-miterlimit="10" stroke-linecap="round" stroke-linejoin="round"/>
<path d="M771.812 196.527C771.621 196.824 771.419 197.121 771.207 197.429C768.554 201.145 766.314 205.127 763.99 209.055C762.684 211.274 761.337 213.069 759.373 214.799C757.059 216.838 754.172 217.698 751.848 219.386C751.455 219.673 751.052 219.97 750.659 220.278" stroke="#C8CEDB" stroke-width="3.7519" stroke-miterlimit="10" stroke-linecap="round" stroke-linejoin="round"/>
<path d="M774.327 176.683C774.327 177.044 774.327 177.405 774.327 177.776C774.327 185.187 775.505 190.676 771.823 196.527" stroke="#00B4CC" stroke-width="3.7519" stroke-miterlimit="10" stroke-linecap="round" stroke-linejoin="round"/>
<path d="M771.579 148.535C771.292 150.224 771.186 151.498 771.345 152.23C772.279 156.658 774.147 158.495 774.359 163.495C774.413 164.812 774.434 166.139 774.444 167.466C774.455 170.535 774.359 173.635 774.338 176.704" stroke="#C8CEDB" stroke-width="3.7519" stroke-miterlimit="10" stroke-linecap="round" stroke-linejoin="round"/>
<path d="M775.76 97.9958C781.194 105.439 777.097 124.072 773.967 137.578C772.948 141.952 772.035 145.796 771.578 148.535" stroke="#00B4CC" stroke-width="3.7519" stroke-miterlimit="10" stroke-linecap="round" stroke-linejoin="round"/>
<path d="M1878.9 1203.89C1885.09 1203.89 1890.11 1198.87 1890.11 1192.68C1890.11 1186.49 1885.09 1181.47 1878.9 1181.47C1872.71 1181.47 1867.69 1186.49 1867.69 1192.68C1867.69 1198.87 1872.71 1203.89 1878.9 1203.89Z" fill="#00B4CC"/>
<path d="M1850.03 1229.11C1854.41 1229.11 1857.96 1225.56 1857.96 1221.18C1857.96 1216.8 1854.41 1213.25 1850.03 1213.25C1845.65 1213.25 1842.1 1216.8 1842.1 1221.18C1842.1 1225.56 1845.65 1229.11 1850.03 1229.11Z" fill="white" stroke="#00B4CC" stroke-width="3.7519" stroke-miterlimit="10" stroke-linecap="round" stroke-linejoin="round"/>
<path d="M637.923 311.291C642.302 311.291 645.852 307.74 645.852 303.36C645.852 298.979 642.302 295.428 637.923 295.428C633.545 295.428 629.995 298.979 629.995 303.36C629.995 307.74 633.545 311.291 637.923 311.291Z" fill="white" stroke="#00B4CC" stroke-width="3.7519" stroke-miterlimit="10" stroke-linecap="round" stroke-linejoin="round"/>
<path d="M653.568 518.555C657.947 518.555 661.496 515.004 661.496 510.624C661.496 506.244 657.947 502.693 653.568 502.693C649.189 502.693 645.64 506.244 645.64 510.624C645.64 515.004 649.189 518.555 653.568 518.555Z" fill="white" stroke="#00B4CC" stroke-width="3.7519" stroke-miterlimit="10" stroke-linecap="round" stroke-linejoin="round"/>
<path d="M760.424 564.38C764.802 564.38 768.352 560.829 768.352 556.449C768.352 552.069 764.802 548.518 760.424 548.518C756.045 548.518 752.495 552.069 752.495 556.449C752.495 560.829 756.045 564.38 760.424 564.38Z" fill="white" stroke="#00B4CC" stroke-width="3.7519" stroke-miterlimit="10" stroke-linecap="round" stroke-linejoin="round"/>
<path d="M1018.64 831.527C1023.02 831.527 1026.57 827.976 1026.57 823.596C1026.57 819.216 1023.02 815.665 1018.64 815.665C1014.26 815.665 1010.71 819.216 1010.71 823.596C1010.71 827.976 1014.26 831.527 1018.64 831.527Z" fill="white" stroke="#00B4CC" stroke-width="3.7519" stroke-miterlimit="10" stroke-linecap="round" stroke-linejoin="round"/>
<path d="M1171.4 1002.61C1175.78 1002.61 1179.33 999.056 1179.33 994.675C1179.33 990.295 1175.78 986.744 1171.4 986.744C1167.02 986.744 1163.47 990.295 1163.47 994.675C1163.47 999.056 1167.02 1002.61 1171.4 1002.61Z" fill="white" stroke="#00B4CC" stroke-width="3.7519" stroke-miterlimit="10" stroke-linecap="round" stroke-linejoin="round"/>
<path d="M1322.09 1160.95C1326.47 1160.95 1330.02 1157.39 1330.02 1153.01C1330.02 1148.63 1326.47 1145.08 1322.09 1145.08C1317.71 1145.08 1314.16 1148.63 1314.16 1153.01C1314.16 1157.39 1317.71 1160.95 1322.09 1160.95Z" fill="white" stroke="#00B4CC" stroke-width="3.7519" stroke-miterlimit="10" stroke-linecap="round" stroke-linejoin="round"/>
<path d="M1649.57 1282.07C1653.94 1282.07 1657.49 1278.52 1657.49 1274.14C1657.49 1269.76 1653.94 1266.21 1649.57 1266.21C1645.19 1266.21 1641.64 1269.76 1641.64 1274.14C1641.64 1278.52 1645.19 1282.07 1649.57 1282.07Z" fill="white" stroke="#00B4CC" stroke-width="3.7519" stroke-miterlimit="10" stroke-linecap="round" stroke-linejoin="round"/>
<path d="M1747.62 1192.38C1752 1192.38 1755.55 1188.83 1755.55 1184.45C1755.55 1180.07 1752 1176.52 1747.62 1176.52C1743.24 1176.52 1739.69 1180.07 1739.69 1184.45C1739.69 1188.83 1743.24 1192.38 1747.62 1192.38Z" fill="white" stroke="#00B4CC" stroke-width="3.7519" stroke-miterlimit="10" stroke-linecap="round" stroke-linejoin="round"/>
<path d="M663.343 411.255C665.541 411.255 667.323 409.472 667.323 407.273C667.323 405.074 665.541 403.292 663.343 403.292C661.144 403.292 659.363 405.074 659.363 407.273C659.363 409.472 661.144 411.255 663.343 411.255Z" fill="#404366"/>
<path d="M668.172 428.88C670.37 428.88 672.152 427.097 672.152 424.898C672.152 422.699 670.37 420.917 668.172 420.917C665.974 420.917 664.192 422.699 664.192 424.898C664.192 427.097 665.974 428.88 668.172 428.88Z" fill="#404366"/>
<path d="M670.889 444.678C673.087 444.678 674.869 442.896 674.869 440.697C674.869 438.498 673.087 436.715 670.889 436.715C668.691 436.715 666.909 438.498 666.909 440.697C666.909 442.896 668.691 444.678 670.889 444.678Z" fill="#404366"/>
<path d="M670.889 462.017C673.087 462.017 674.869 460.234 674.869 458.035C674.869 455.836 673.087 454.054 670.889 454.054C668.691 454.054 666.909 455.836 666.909 458.035C666.909 460.234 668.691 462.017 670.889 462.017Z" fill="#404366"/>
<path d="M664.192 478.028C666.39 478.028 668.172 476.245 668.172 474.047C668.172 471.848 666.39 470.065 664.192 470.065C661.994 470.065 660.212 471.848 660.212 474.047C660.212 476.245 661.994 478.028 664.192 478.028Z" fill="white" stroke="#00B4CC" stroke-width="2" stroke-miterlimit="10" stroke-linecap="round" stroke-linejoin="round"/>
<path d="M657.548 492.096C659.746 492.096 661.528 490.314 661.528 488.115C661.528 485.916 659.746 484.133 657.548 484.133C655.35 484.133 653.568 485.916 653.568 488.115C653.568 490.314 655.35 492.096 657.548 492.096Z" fill="#404366"/>
<path d="M662.568 542.954C664.766 542.954 666.548 541.171 666.548 538.973C666.548 536.774 664.766 534.991 662.568 534.991C660.37 534.991 658.588 536.774 658.588 538.973C658.588 541.171 660.37 542.954 662.568 542.954Z" fill="white" stroke="#00B4CC" stroke-width="2" stroke-miterlimit="10" stroke-linecap="round" stroke-linejoin="round"/>
<path d="M673.192 558.774C675.39 558.774 677.172 556.991 677.172 554.792C677.172 552.593 675.39 550.811 673.192 550.811C670.994 550.811 669.212 552.593 669.212 554.792C669.212 556.991 670.994 558.774 673.192 558.774Z" fill="#404366"/>
<path d="M684.007 570.931C686.205 570.931 687.987 569.149 687.987 566.95C687.987 564.751 686.205 562.968 684.007 562.968C681.809 562.968 680.027 564.751 680.027 566.95C680.027 569.149 681.809 570.931 684.007 570.931Z" fill="#404366"/>
<path d="M782.999 559.931C785.197 559.931 786.979 558.149 786.979 555.95C786.979 553.751 785.197 551.968 782.999 551.968C780.801 551.968 779.019 553.751 779.019 555.95C779.019 558.149 780.801 559.931 782.999 559.931Z" fill="#404366"/>
<path d="M803.854 558.71C806.052 558.71 807.834 556.928 807.834 554.729C807.834 552.53 806.052 550.747 803.854 550.747C801.656 550.747 799.874 552.53 799.874 554.729C799.874 556.928 801.656 558.71 803.854 558.71Z" fill="#404366"/>
<path d="M825.505 568.362C827.704 568.362 829.485 566.579 829.485 564.38C829.485 562.182 827.704 560.399 825.505 560.399C823.307 560.399 821.525 562.182 821.525 564.38C821.525 566.579 823.307 568.362 825.505 568.362Z" fill="white" stroke="#00B4CC" stroke-width="2" stroke-miterlimit="10" stroke-linecap="round" stroke-linejoin="round"/>
<path d="M850.278 566.737C852.476 566.737 854.258 564.954 854.258 562.755C854.258 560.557 852.476 558.774 850.278 558.774C848.079 558.774 846.297 560.557 846.297 562.755C846.297 564.954 848.079 566.737 850.278 566.737Z" fill="white" stroke="#00B4CC" stroke-width="2" stroke-miterlimit="10" stroke-linecap="round" stroke-linejoin="round"/>
<path d="M882.871 591.625C885.07 591.625 886.851 589.842 886.851 587.643C886.851 585.444 885.07 583.662 882.871 583.662C880.673 583.662 878.891 585.444 878.891 587.643C878.891 589.842 880.673 591.625 882.871 591.625Z" fill="#404366"/>
<path d="M894.111 608.177C896.309 608.177 898.091 606.395 898.091 604.196C898.091 601.997 896.309 600.214 894.111 600.214C891.913 600.214 890.131 601.997 890.131 604.196C890.131 606.395 891.913 608.177 894.111 608.177Z" fill="#404366"/>
<path d="M867.79 574.7C869.988 574.7 871.77 572.918 871.77 570.719C871.77 568.52 869.988 566.737 867.79 566.737C865.592 566.737 863.81 568.52 863.81 570.719C863.81 572.918 865.592 574.7 867.79 574.7Z" fill="#404366"/>
<path d="M906.645 628.627C908.844 628.627 910.625 626.844 910.625 624.645C910.625 622.446 908.844 620.664 906.645 620.664C904.447 620.664 902.665 622.446 902.665 624.645C902.665 626.844 904.447 628.627 906.645 628.627Z" fill="white" stroke="#00B4CC" stroke-width="2" stroke-miterlimit="10" stroke-linecap="round" stroke-linejoin="round"/>
<path d="M920.676 646.772C922.874 646.772 924.656 644.989 924.656 642.79C924.656 640.591 922.874 638.809 920.676 638.809C918.478 638.809 916.696 640.591 916.696 642.79C916.696 644.989 918.478 646.772 920.676 646.772Z" fill="white" stroke="#00B4CC" stroke-width="2" stroke-miterlimit="10" stroke-linecap="round" stroke-linejoin="round"/>
<path d="M937.669 660.235C939.867 660.235 941.649 658.452 941.649 656.253C941.649 654.054 939.867 652.272 937.669 652.272C935.47 652.272 933.688 654.054 933.688 656.253C933.688 658.452 935.47 660.235 937.669 660.235Z" fill="#404366"/>
<path d="M963.342 672.434C965.54 672.434 967.322 670.652 967.322 668.453C967.322 666.254 965.54 664.471 963.342 664.471C961.144 664.471 959.362 666.254 959.362 668.453C959.362 670.652 961.144 672.434 963.342 672.434Z" fill="#404366"/>
<path d="M998.77 717.092C1000.97 717.092 1002.75 715.309 1002.75 713.11C1002.75 710.911 1000.97 709.128 998.77 709.128C996.572 709.128 994.79 710.911 994.79 713.11C994.79 715.309 996.572 717.092 998.77 717.092Z" fill="#404366"/>
<path d="M1006.73 736.171C1008.93 736.171 1010.71 734.389 1010.71 732.19C1010.71 729.991 1008.93 728.208 1006.73 728.208C1004.53 728.208 1002.75 729.991 1002.75 732.19C1002.75 734.389 1004.53 736.171 1006.73 736.171Z" fill="#404366"/>
<path d="M1007.49 754.518C1009.69 754.518 1011.47 752.736 1011.47 750.537C1011.47 748.338 1009.69 746.555 1007.49 746.555C1005.3 746.555 1003.51 748.338 1003.51 750.537C1003.51 752.736 1005.3 754.518 1007.49 754.518Z" fill="white" stroke="#00B4CC" stroke-width="2" stroke-miterlimit="10" stroke-linecap="round" stroke-linejoin="round"/>
<path d="M1003.97 779.14C1006.17 779.14 1007.95 777.358 1007.95 775.159C1007.95 772.96 1006.17 771.177 1003.97 771.177C1001.77 771.177 999.991 772.96 999.991 775.159C999.991 777.358 1001.77 779.14 1003.97 779.14Z" fill="#404366"/>
<path d="M1006.73 799.091C1008.93 799.091 1010.71 797.308 1010.71 795.109C1010.71 792.91 1008.93 791.127 1006.73 791.127C1004.53 791.127 1002.75 792.91 1002.75 795.109C1002.75 797.308 1004.53 799.091 1006.73 799.091Z" fill="#404366"/>
<path d="M1030.55 849.407C1032.74 849.407 1034.53 847.624 1034.53 845.425C1034.53 843.226 1032.74 841.444 1030.55 841.444C1028.35 841.444 1026.57 843.226 1026.57 845.425C1026.57 847.624 1028.35 849.407 1030.55 849.407Z" fill="#404366"/>
<path d="M1042.06 865.949C1044.26 865.949 1046.04 864.166 1046.04 861.967C1046.04 859.768 1044.26 857.986 1042.06 857.986C1039.86 857.986 1038.08 859.768 1038.08 861.967C1038.08 864.166 1039.86 865.949 1042.06 865.949Z" fill="white" stroke="#00B4CC" stroke-width="2" stroke-miterlimit="10" stroke-linecap="round" stroke-linejoin="round"/>
<path d="M1053.61 878.669C1055.81 878.669 1057.59 876.886 1057.59 874.687C1057.59 872.488 1055.81 870.706 1053.61 870.706C1051.41 870.706 1049.63 872.488 1049.63 874.687C1049.63 876.886 1051.41 878.669 1053.61 878.669Z" fill="white" stroke="#00B4CC" stroke-width="2" stroke-miterlimit="10" stroke-linecap="round" stroke-linejoin="round"/>
<path d="M1067.32 888.925C1069.52 888.925 1071.3 887.143 1071.3 884.944C1071.3 882.745 1069.52 880.962 1067.32 880.962C1065.12 880.962 1063.34 882.745 1063.34 884.944C1063.34 887.143 1065.12 888.925 1067.32 888.925Z" fill="white" stroke="#00B4CC" stroke-width="2" stroke-miterlimit="10" stroke-linecap="round" stroke-linejoin="round"/>
<path d="M1087.53 894.882C1089.73 894.882 1091.51 893.099 1091.51 890.9C1091.51 888.701 1089.73 886.918 1087.53 886.918C1085.33 886.918 1083.55 888.701 1083.55 890.9C1083.55 893.099 1085.33 894.882 1087.53 894.882Z" fill="white" stroke="#00B4CC" stroke-width="2" stroke-miterlimit="10" stroke-linecap="round" stroke-linejoin="round"/>
<path d="M1104.8 909.81C1107 909.81 1108.78 908.027 1108.78 905.828C1108.78 903.629 1107 901.847 1104.8 901.847C1102.6 901.847 1100.82 903.629 1100.82 905.828C1100.82 908.027 1102.6 909.81 1104.8 909.81Z" fill="#404366"/>
<path d="M1768.64 1200.34C1770.84 1200.34 1772.62 1198.55 1772.62 1196.35C1772.62 1194.16 1770.84 1192.37 1768.64 1192.37C1766.44 1192.37 1764.66 1194.16 1764.66 1196.35C1764.66 1198.55 1766.44 1200.34 1768.64 1200.34Z" fill="white" stroke="#00B4CC" stroke-width="2" stroke-miterlimit="10" stroke-linecap="round" stroke-linejoin="round"/>
<path d="M1671.89 1257.83C1674.08 1257.83 1675.87 1256.05 1675.87 1253.85C1675.87 1251.65 1674.08 1249.87 1671.89 1249.87C1669.69 1249.87 1667.91 1251.65 1667.91 1253.85C1667.91 1256.05 1669.69 1257.83 1671.89 1257.83Z" fill="white" stroke="#00B4CC" stroke-width="2" stroke-miterlimit="10" stroke-linecap="round" stroke-linejoin="round"/>
<path d="M1110.04 922.975C1112.24 922.975 1114.02 921.193 1114.02 918.994C1114.02 916.795 1112.24 915.012 1110.04 915.012C1107.84 915.012 1106.06 916.795 1106.06 918.994C1106.06 921.193 1107.84 922.975 1110.04 922.975Z" fill="#404366"/>
<path d="M1119.54 936.226C1121.74 936.226 1123.52 934.443 1123.52 932.245C1123.52 930.046 1121.74 928.263 1119.54 928.263C1117.34 928.263 1115.56 930.046 1115.56 932.245C1115.56 934.443 1117.34 936.226 1119.54 936.226Z" fill="#404366"/>
<path d="M1131.7 949.902C1133.9 949.902 1135.68 948.119 1135.68 945.92C1135.68 943.721 1133.9 941.938 1131.7 941.938C1129.51 941.938 1127.72 943.721 1127.72 945.92C1127.72 948.119 1129.51 949.902 1131.7 949.902Z" fill="#404366"/>
<path d="M1135.06 963.789C1137.26 963.789 1139.04 962.007 1139.04 959.808C1139.04 957.609 1137.26 955.826 1135.06 955.826C1132.86 955.826 1131.08 957.609 1131.08 959.808C1131.08 962.007 1132.86 963.789 1135.06 963.789Z" fill="#404366"/>
<path d="M1152.3 977.241C1154.5 977.241 1156.28 975.459 1156.28 973.26C1156.28 971.061 1154.5 969.278 1152.3 969.278C1150.11 969.278 1148.32 971.061 1148.32 973.26C1148.32 975.459 1150.11 977.241 1152.3 977.241Z" fill="#404366"/>
<path d="M653.823 367.309C656.021 367.309 657.803 365.526 657.803 363.327C657.803 361.128 656.021 359.345 653.823 359.345C651.624 359.345 649.843 361.128 649.843 363.327C649.843 365.526 651.624 367.309 653.823 367.309Z" fill="white" stroke="#00B4CC" stroke-width="2" stroke-miterlimit="10" stroke-linecap="round" stroke-linejoin="round"/>
<path d="M642.763 349.62C644.962 349.62 646.744 347.838 646.744 345.639C646.744 343.44 644.962 341.657 642.763 341.657C640.565 341.657 638.783 343.44 638.783 345.639C638.783 347.838 640.565 349.62 642.763 349.62Z" fill="#404366"/>
<path d="M636.374 332.027C638.572 332.027 640.354 330.244 640.354 328.045C640.354 325.846 638.572 324.063 636.374 324.063C634.176 324.063 632.394 325.846 632.394 328.045C632.394 330.244 634.176 332.027 636.374 332.027Z" fill="#404366"/>
<path d="M665.763 266.506C667.961 266.506 669.743 264.723 669.743 262.525C669.743 260.326 667.961 258.543 665.763 258.543C663.565 258.543 661.783 260.326 661.783 262.525C661.783 264.723 663.565 266.506 665.763 266.506Z" fill="#404366"/>
<path d="M688.634 252.162C690.833 252.162 692.615 250.379 692.615 248.181C692.615 245.982 690.833 244.199 688.634 244.199C686.436 244.199 684.654 245.982 684.654 248.181C684.654 250.379 686.436 252.162 688.634 252.162Z" fill="#404366"/>
<path d="M731.311 240.334C733.509 240.334 735.291 238.552 735.291 236.353C735.291 234.154 733.509 232.371 731.311 232.371C729.113 232.371 727.331 234.154 727.331 236.353C727.331 238.552 729.113 240.334 731.311 240.334Z" fill="white" stroke="#00B4CC" stroke-width="2" stroke-miterlimit="10" stroke-linecap="round" stroke-linejoin="round"/>
<path d="M752.315 222.762C754.513 222.762 756.295 220.98 756.295 218.781C756.295 216.582 754.513 214.799 752.315 214.799C750.117 214.799 748.335 216.582 748.335 218.781C748.335 220.98 750.117 222.762 752.315 222.762Z" fill="#404366"/>
<path d="M769.986 202.865C772.185 202.865 773.966 201.082 773.966 198.883C773.966 196.684 772.185 194.902 769.986 194.902C767.788 194.902 766.006 196.684 766.006 198.883C766.006 201.082 767.788 202.865 769.986 202.865Z" fill="white" stroke="#00B4CC" stroke-width="2" stroke-miterlimit="10" stroke-linecap="round" stroke-linejoin="round"/>
<path d="M774.381 180.441C776.579 180.441 778.361 178.658 778.361 176.459C778.361 174.26 776.579 172.478 774.381 172.478C772.182 172.478 770.401 174.26 770.401 176.459C770.401 178.658 772.182 180.441 774.381 180.441Z" fill="#404366"/>
<path d="M771.897 152.517C774.095 152.517 775.877 150.734 775.877 148.535C775.877 146.336 774.095 144.554 771.897 144.554C769.699 144.554 767.917 146.336 767.917 148.535C767.917 150.734 769.699 152.517 771.897 152.517Z" fill="white" stroke="#00B4CC" stroke-width="2" stroke-miterlimit="10" stroke-linecap="round" stroke-linejoin="round"/>
<path d="M776.44 129.35C778.638 129.35 780.42 127.567 780.42 125.368C780.42 123.169 778.638 121.387 776.44 121.387C774.241 121.387 772.459 123.169 772.459 125.368C772.459 127.567 774.241 129.35 776.44 129.35Z" fill="white" stroke="#00B4CC" stroke-width="2" stroke-miterlimit="10" stroke-linecap="round" stroke-linejoin="round"/>
</svg>
