<svg width="2075" height="1458" viewBox="0 0 2075 1458" fill="none" xmlns="http://www.w3.org/2000/svg">
<path d="M271.09 961.29C270.27 963.18 269.49 965.05 269 966.87C267.3 973.21 261.89 976.41 260.92 983.18" stroke="#7937C4" stroke-width="3.752" stroke-miterlimit="10" stroke-linejoin="round"/>
<path d="M281.02 934.12C277.61 936.57 274.51 939.5 273.84 943.34C273.4 945.84 274.72 947.88 274.55 950.57C274.33 954.11 272.64 957.73 271.1 961.29" stroke="#C8CEDB" stroke-width="3.7519" stroke-miterlimit="10" stroke-linecap="round" stroke-linejoin="round"/>
<path d="M314.11 923.54C313.63 923.75 313.16 923.98 312.73 924.26C311.46 925.06 311.16 926.43 309.32 927.01C306.81 927.8 303.66 927.13 301.06 927.26C296.81 927.46 291.65 926.89 287.97 929.51C285.99 930.92 283.43 932.41 281.02 934.14" stroke="#C8CEDB" stroke-width="3.7519" stroke-miterlimit="10" stroke-linecap="round" stroke-linejoin="round"/>
<path d="M341.24 923.19C339.67 922.82 338.09 922.14 336.52 921.97C333.19 921.63 329.9 922.18 326.58 922.21C322.66 922.24 317.75 921.98 314.12 923.53" stroke="#C8CEDB" stroke-width="3.7519" stroke-miterlimit="10" stroke-linecap="round" stroke-linejoin="round"/>
<path d="M353.82 906.85C354.34 908.05 354.73 909.28 354.91 910.58C355.61 915.55 348.68 923 343.53 923.43C342.77 923.49 342.01 923.38 341.24 923.2" stroke="#C8CEDB" stroke-width="3.7519" stroke-miterlimit="10" stroke-linecap="round" stroke-linejoin="round"/>
<path d="M348.64 876C348.14 876.52 347.66 877.08 347.2 877.68C344.04 881.78 344.88 887.59 346.11 892.43C347.44 897.69 351.71 901.96 353.83 906.85" stroke="#C8CEDB" stroke-width="3.7519" stroke-miterlimit="10" stroke-linecap="round" stroke-linejoin="round"/>
<path d="M348.64 876C352.04 872.42 356.18 870.46 360.21 867.49C365.12 863.88 370.07 860.32 374.93 856.68C378.32 854.14 379.33 850.8 382.3 847.99C387 843.57 392.85 842.16 398.57 839.91C399.71 839.46 400.86 838.99 401.99 838.48C411.64 834.17 420.83 827.58 424 817.29C424.57 815.43 424.95 813.44 425.09 811.33C425.45 806.01 424.25 800.84 424.95 795.47C425.27 793.06 425.84 790.72 426.5 788.4C427.23 785.86 428.07 783.35 428.81 780.8C430.79 773.97 431.45 768.16 430.99 761.83C430.81 759.3 430.45 756.69 429.93 753.9C428.67 747.19 427.31 741.48 427.33 735.24C427.34 733.16 427.5 731.02 427.87 728.76C429.11 721.22 432.89 717.59 438.21 712.63C438.48 712.38 438.75 712.13 439.02 711.88C443.87 707.36 445.68 700.07 446.55 692.81C447.15 687.77 447.29 682.75 447.67 678.68C447.97 675.51 448.61 672.35 448.9 669.2C449.15 666.49 449.14 663.78 448.42 661.08C447.06 655.97 446.07 651.42 445.74 646.03C445.72 645.75 445.71 645.46 445.69 645.18C445.33 637.62 444.46 629.83 441.56 622.76C441.38 622.32 441.2 621.89 441.02 621.46C438.8 616.1 436.63 611.02 436.29 605.08C436.1 601.75 436.8 598.76 437.6 595.81C438.43 592.76 439.38 589.74 439.6 586.43" stroke="#C8CEDB" stroke-width="3.7519" stroke-miterlimit="10" stroke-linecap="round" stroke-linejoin="round"/>
<path d="M385.18 495.09C385.69 500.49 388.74 504.68 392.26 508.53C396.69 513.38 399.18 517.55 402.19 523.44C402.47 523.98 402.72 524.52 402.97 525.06C407.34 534.7 407.12 544.53 413.59 552.96C414.06 553.58 414.57 554.19 415.12 554.79C415.95 555.7 416.86 556.58 417.81 557.44C422.1 561.3 427.39 564.7 431.68 568.73C436.53 573.29 440.13 578.66 439.62 586.41" stroke="#7937C4" stroke-width="3.7519" stroke-miterlimit="10" stroke-linejoin="round" stroke-dasharray="4.69 4.69"/>
<path d="M497.07 404.63C495.26 406.01 493.51 407.47 491.89 408.9C487.61 412.64 485.42 416.99 482 421.09C478.8 424.93 473.4 427.12 469.49 430.27C465.73 433.3 462.99 437.69 459.04 440.4C449.71 446.82 437.62 449.34 427.43 454.02C418.69 458.03 413.08 465.65 405.25 470.55C396.6 475.97 384.03 482.7 385.2 495.08" stroke="#7937C4" stroke-width="3.7519" stroke-miterlimit="10" stroke-linejoin="round" stroke-dasharray="4.69 4.69"/>
<path d="M693.02 361.59C679.86 363.64 667 374.58 653.69 370.7C647.29 368.83 641.72 364.9 635.39 362.66C627.58 359.9 615.8 360.65 608.92 364.93C603.66 368.21 595.97 368.04 590.05 366.96C584.69 365.98 580.49 361.4 575.62 360.35C571.66 359.5 565.48 361.47 562.36 363.66C557.01 367.41 551.81 371.31 546.43 375.04C542.22 377.96 538.87 382.09 534.37 384.59C529.91 387.07 524.95 387.58 520.33 390.02C514.09 393.31 508.61 397.42 502.6 400.9C500.74 401.98 498.89 403.26 497.09 404.63" stroke="#7937C4" stroke-width="3.7519" stroke-miterlimit="10" stroke-linejoin="round" stroke-dasharray="4.69 4.69"/>
<path d="M811.28 357.92C796.03 355.1 781.58 349.08 766.26 346.9C761.58 346.24 759.54 344.97 755.47 346.3C750.29 348 745.46 351.48 740.34 353.53C733.9 356.1 727.88 356.45 721.06 357.54C712.16 358.97 703.26 360.43 694.3 361.41C693.87 361.46 693.45 361.51 693.02 361.58" stroke="#7937C4" stroke-width="3.7519" stroke-miterlimit="10" stroke-linejoin="round" stroke-dasharray="4.69 4.69"/>
<path d="M973.5 421.41C966.92 423.08 958.35 430.44 951.44 425.83C948.55 423.9 947.44 420.26 945.36 417.49C940.77 411.37 932.2 410.17 924.57 409.7C916.93 409.23 908.47 408.64 903.17 403.13C901.53 401.42 900.31 399.33 898.51 397.79C896.02 395.65 894.43 396.8 891.75 396.41C889.53 396.08 886.89 394.44 884.89 393.44C878.05 390.02 877.49 386.13 873.67 379.84C868.48 371.28 855.47 367.08 846.31 365.08C834.71 362.54 822.97 360.09 811.28 357.93" stroke="#7937C4" stroke-width="3.7519" stroke-miterlimit="10" stroke-linejoin="round" stroke-dasharray="4.69 4.69"/>
<path d="M1069.27 298.85C1067.12 301.53 1065.17 304.39 1063.45 307.73C1060.96 312.55 1061.87 317.4 1060.18 322.44C1059.03 325.86 1054.06 332.26 1054.41 335.5C1054.94 340.34 1059.7 338.47 1062.44 339.71C1066.12 341.38 1066.94 345.4 1066.65 349.14C1065.88 358.84 1057.64 364.44 1050.13 369.19C1040.27 375.43 1036.18 379.14 1029.91 389.1C1027.65 392.7 1026.03 397.69 1023.16 401.01C1018.5 406.39 1005.4 410.58 998.46 413.97C991.93 417.16 984.32 420.24 977.04 420.88C975.45 421.02 974.38 421.18 973.49 421.4" stroke="#7937C4" stroke-width="3.7519" stroke-miterlimit="10" stroke-linejoin="round" stroke-dasharray="4.69 4.69"/>
<path d="M1089.97 264.8C1088.74 266.66 1090.1 270.89 1089.75 273.48C1088.85 280.22 1081.98 285.32 1077.58 289.8C1074.56 292.87 1071.78 295.74 1069.27 298.86" stroke="#7937C4" stroke-width="3.7519" stroke-miterlimit="10" stroke-linejoin="round" stroke-dasharray="4.69 4.69"/>
<path d="M448.69 676.54C452.816 676.54 456.16 673.196 456.16 669.07C456.16 664.944 452.816 661.6 448.69 661.6C444.565 661.6 441.22 664.944 441.22 669.07C441.22 673.196 444.565 676.54 448.69 676.54Z" fill="white" stroke="#7937C4" stroke-width="3.7519" stroke-miterlimit="10" stroke-linecap="round" stroke-linejoin="round"/>
<path d="M385.39 503.15C389.515 503.15 392.86 499.806 392.86 495.68C392.86 491.554 389.515 488.21 385.39 488.21C381.264 488.21 377.92 491.554 377.92 495.68C377.92 499.806 381.264 503.15 385.39 503.15Z" fill="white" stroke="#7937C4" stroke-width="3.7519" stroke-miterlimit="10" stroke-linecap="round" stroke-linejoin="round"/>
<path d="M497.07 412.39C501.196 412.39 504.54 409.046 504.54 404.92C504.54 400.794 501.196 397.45 497.07 397.45C492.945 397.45 489.6 400.794 489.6 404.92C489.6 409.046 492.945 412.39 497.07 412.39Z" fill="white" stroke="#7937C4" stroke-width="3.7519" stroke-miterlimit="10" stroke-linecap="round" stroke-linejoin="round"/>
<path d="M693.02 368.91C697.145 368.91 700.49 365.566 700.49 361.44C700.49 357.314 697.145 353.97 693.02 353.97C688.894 353.97 685.55 357.314 685.55 361.44C685.55 365.566 688.894 368.91 693.02 368.91Z" fill="white" stroke="#7937C4" stroke-width="3.7519" stroke-miterlimit="10" stroke-linecap="round" stroke-linejoin="round"/>
<path d="M811.67 364.75C815.796 364.75 819.14 361.406 819.14 357.28C819.14 353.154 815.796 349.81 811.67 349.81C807.545 349.81 804.2 353.154 804.2 357.28C804.2 361.406 807.545 364.75 811.67 364.75Z" fill="white" stroke="#7937C4" stroke-width="3.7519" stroke-miterlimit="10" stroke-linecap="round" stroke-linejoin="round"/>
<path d="M974.02 428.89C978.145 428.89 981.49 425.546 981.49 421.42C981.49 417.294 978.145 413.95 974.02 413.95C969.894 413.95 966.55 417.294 966.55 421.42C966.55 425.546 969.894 428.89 974.02 428.89Z" fill="white" stroke="#7937C4" stroke-width="3.7519" stroke-miterlimit="10" stroke-linecap="round" stroke-linejoin="round"/>
<path d="M1068.59 306.32C1072.72 306.32 1076.06 302.976 1076.06 298.85C1076.06 294.724 1072.72 291.38 1068.59 291.38C1064.46 291.38 1061.12 294.724 1061.12 298.85C1061.12 302.976 1064.46 306.32 1068.59 306.32Z" fill="white" stroke="#7937C4" stroke-width="3.7519" stroke-miterlimit="10" stroke-linecap="round" stroke-linejoin="round"/>
<path d="M1090.5 272.01C1096.33 272.01 1101.06 267.282 1101.06 261.45C1101.06 255.618 1096.33 250.89 1090.5 250.89C1084.67 250.89 1079.94 255.618 1079.94 261.45C1079.94 267.282 1084.67 272.01 1090.5 272.01Z" fill="#7937C4"/>
<path d="M271.08 965.04C273.151 965.04 274.83 963.361 274.83 961.29C274.83 959.219 273.151 957.54 271.08 957.54C269.009 957.54 267.33 959.219 267.33 961.29C267.33 963.361 269.009 965.04 271.08 965.04Z" fill="white" stroke="#7937C4" stroke-width="2" stroke-miterlimit="10" stroke-linecap="round" stroke-linejoin="round"/>
<path d="M281.11 937.53C283.181 937.53 284.86 935.851 284.86 933.78C284.86 931.709 283.181 930.03 281.11 930.03C279.039 930.03 277.36 931.709 277.36 933.78C277.36 935.851 279.039 937.53 281.11 937.53Z" fill="#404366"/>
<path d="M314.25 927.78C316.321 927.78 318 926.101 318 924.03C318 921.959 316.321 920.28 314.25 920.28C312.179 920.28 310.5 921.959 310.5 924.03C310.5 926.101 312.179 927.78 314.25 927.78Z" fill="#404366"/>
<path d="M341.46 926.92C343.531 926.92 345.21 925.241 345.21 923.17C345.21 921.099 343.531 919.42 341.46 919.42C339.389 919.42 337.71 921.099 337.71 923.17C337.71 925.241 339.389 926.92 341.46 926.92Z" fill="#404366"/>
<path d="M353.7 910.7C355.771 910.7 357.45 909.021 357.45 906.95C357.45 904.879 355.771 903.2 353.7 903.2C351.629 903.2 349.95 904.879 349.95 906.95C349.95 909.021 351.629 910.7 353.7 910.7Z" fill="#404366"/>
<path d="M348.32 879.75C350.391 879.75 352.07 878.071 352.07 876C352.07 873.929 350.391 872.25 348.32 872.25C346.249 872.25 344.57 873.929 344.57 876C344.57 878.071 346.249 879.75 348.32 879.75Z" fill="#404366"/>
<path d="M419.4 830.15C421.471 830.15 423.15 828.471 423.15 826.4C423.15 824.329 421.471 822.65 419.4 822.65C417.329 822.65 415.65 824.329 415.65 826.4C415.65 828.471 417.329 830.15 419.4 830.15Z" fill="#404366"/>
<path d="M425.25 811.01C427.321 811.01 429 809.331 429 807.26C429 805.189 427.321 803.51 425.25 803.51C423.179 803.51 421.5 805.189 421.5 807.26C421.5 809.331 423.179 811.01 425.25 811.01Z" fill="#404366"/>
<path d="M426.07 791.88C428.141 791.88 429.82 790.201 429.82 788.13C429.82 786.059 428.141 784.38 426.07 784.38C423.999 784.38 422.32 786.059 422.32 788.13C422.32 790.201 423.999 791.88 426.07 791.88Z" fill="#404366"/>
<path d="M431 774.24C433.071 774.24 434.75 772.561 434.75 770.49C434.75 768.419 433.071 766.74 431 766.74C428.929 766.74 427.25 768.419 427.25 770.49C427.25 772.561 428.929 774.24 431 774.24Z" fill="#404366"/>
<path d="M429.17 753.53C431.241 753.53 432.92 751.851 432.92 749.78C432.92 747.709 431.241 746.03 429.17 746.03C427.099 746.03 425.42 747.709 425.42 749.78C425.42 751.851 427.099 753.53 429.17 753.53Z" fill="#404366"/>
<path d="M428.82 730.32C430.891 730.32 432.57 728.641 432.57 726.57C432.57 724.499 430.891 722.82 428.82 722.82C426.749 722.82 425.07 724.499 425.07 726.57C425.07 728.641 426.749 730.32 428.82 730.32Z" fill="#404366"/>
<path d="M442.6 711.39C444.671 711.39 446.35 709.711 446.35 707.64C446.35 705.569 444.671 703.89 442.6 703.89C440.529 703.89 438.85 705.569 438.85 707.64C438.85 709.711 440.529 711.39 442.6 711.39Z" fill="#404366"/>
<path d="M446.83 691.94C448.901 691.94 450.58 690.261 450.58 688.19C450.58 686.119 448.901 684.44 446.83 684.44C444.759 684.44 443.08 686.119 443.08 688.19C443.08 690.261 444.759 691.94 446.83 691.94Z" fill="#404366"/>
<path d="M445.94 648.83C448.011 648.83 449.69 647.151 449.69 645.08C449.69 643.009 448.011 641.33 445.94 641.33C443.869 641.33 442.19 643.009 442.19 645.08C442.19 647.151 443.869 648.83 445.94 648.83Z" fill="#404366"/>
<path d="M441 626.24C443.071 626.24 444.75 624.561 444.75 622.49C444.75 620.419 443.071 618.74 441 618.74C438.929 618.74 437.25 620.419 437.25 622.49C437.25 624.561 438.929 626.24 441 626.24Z" fill="#404366"/>
<path d="M436.62 608.03C438.691 608.03 440.37 606.351 440.37 604.28C440.37 602.209 438.691 600.53 436.62 600.53C434.549 600.53 432.87 602.209 432.87 604.28C432.87 606.351 434.549 608.03 436.62 608.03Z" fill="#404366"/>
<path d="M439.31 591.34C441.381 591.34 443.06 589.661 443.06 587.59C443.06 585.519 441.381 583.84 439.31 583.84C437.239 583.84 435.56 585.519 435.56 587.59C435.56 589.661 437.239 591.34 439.31 591.34Z" fill="#404366"/>
</svg>
