<svg width="2201" height="1556" viewBox="0 0 2201 1556" fill="none" xmlns="http://www.w3.org/2000/svg">
<g clip-path="url(#clip0)">
<path d="M789.664 1449.8C788.963 1450.91 788.273 1452.04 787.668 1453.22C786.214 1456.03 778.189 1473.53 780.45 1481.14" stroke="#F90000" stroke-width="3.752" stroke-miterlimit="10" stroke-linejoin="round"/>
<path d="M799.568 1397.07C798.347 1400.42 796.617 1403.72 795.757 1407.1C794.568 1411.71 794.271 1415.93 794.207 1420.39C794.186 1422.02 794.186 1423.67 794.197 1425.38C794.218 1429.92 794.823 1435.13 794.292 1439.63C793.847 1443.46 791.713 1446.57 789.675 1449.81" stroke="#C8CEDB" stroke-width="3.7519" stroke-miterlimit="10" stroke-linecap="round" stroke-linejoin="round"/>
<path d="M801.139 1378.47C801.521 1382.9 801.256 1388.43 800.821 1392.14C800.63 1393.81 800.152 1395.44 799.568 1397.07" stroke="#F90000" stroke-width="3.752" stroke-miterlimit="10" stroke-linejoin="round"/>
<path d="M802.859 1326.01C798.868 1337.15 785.078 1350.72 790.195 1362.47C790.567 1363.33 791.034 1364.06 791.564 1364.71C794.494 1368.31 799.292 1369.31 800.598 1374.78C800.853 1375.85 801.033 1377.11 801.15 1378.47" stroke="#C8CEDB" stroke-width="3.7519" stroke-miterlimit="10" stroke-linecap="round" stroke-linejoin="round"/>
<path d="M812.965 1296.38C812.455 1301.3 809.536 1306.3 807.37 1310.41C804.886 1315.11 804.759 1319.31 803.368 1324.4C803.22 1324.93 803.05 1325.46 802.859 1326" stroke="#C8CEDB" stroke-width="3.7519" stroke-miterlimit="10" stroke-linecap="round" stroke-linejoin="round"/>
<path d="M904.48 1198.47C904.363 1199.6 904.501 1200.73 904.268 1201.87C903.801 1204.22 902.527 1206.64 901.02 1208.64C899.597 1210.53 898.366 1212.29 897.145 1214.3C895.914 1216.32 894.289 1217.98 893.026 1219.95C892.708 1220.44 892.485 1221.14 892.156 1221.61C891.519 1222.51 890.808 1222.85 890.139 1223.7C889.332 1224.73 889.045 1225.76 888.058 1226.73C886.922 1227.84 885.755 1229.02 884.481 1229.97C883.207 1230.91 881.7 1231.41 880.362 1232.26C879.354 1232.91 878.313 1233.56 877.262 1234.19C875.713 1235.11 874.12 1236 872.454 1236.71C870.267 1237.65 867.772 1238.44 865.628 1239.2C863.399 1240.01 860.936 1240.91 858.834 1242.21C856.477 1243.66 853.951 1244.97 852.253 1247.06C851.594 1247.85 850.681 1248.48 849.949 1249.17C848.983 1250.08 848.102 1251.05 847.136 1252.03C846.382 1252.79 845.565 1253.16 844.694 1253.76C843.421 1254.64 842.932 1255.58 841.903 1256.72C840.289 1258.49 837.879 1259.26 836.308 1261.17C835.225 1262.48 834.015 1264.06 832.519 1265.03C829.96 1266.69 826.988 1268.21 824.621 1270.19C822.338 1272.1 821.553 1275.13 820.067 1277.59C818.305 1280.51 815.322 1281.16 812.901 1283.29C810.715 1285.22 810.927 1287.79 812.01 1290.15C812.933 1292.16 813.167 1294.26 812.944 1296.37" stroke="#C8CEDB" stroke-width="3.7519" stroke-miterlimit="10" stroke-linecap="round" stroke-linejoin="round"/>
<path d="M914.044 1171.63C912.824 1172.89 911.783 1174.31 911.03 1175.96C910.17 1177.83 909.788 1180.21 909.374 1182.26C909.13 1183.48 909.533 1184.56 909.076 1185.83C908.164 1188.37 906.794 1190.81 905.849 1193.35C905.329 1194.73 904.883 1196.31 904.586 1197.76C904.533 1197.99 904.501 1198.23 904.48 1198.47" stroke="#F90000" stroke-width="3.752" stroke-miterlimit="10" stroke-linejoin="round"/>
<path d="M955.636 1136.16C954.733 1139.87 953.067 1143.32 950.073 1145.81C948.555 1147.07 946.666 1147.7 944.851 1148.44C943.683 1148.92 942.536 1149.44 941.528 1150.21C937.154 1153.57 933.8 1157.59 929.49 1161.01C928.471 1161.82 927.409 1162.58 926.263 1163.31C922.229 1165.84 917.442 1168.11 914.045 1171.63" stroke="#C8CEDB" stroke-width="3.7519" stroke-miterlimit="10" stroke-linecap="round" stroke-linejoin="round"/>
<path d="M956.4 1138.2C957.164 1134.98 957.387 1131.56 957.419 1128.39C957.43 1126.91 957.398 1125.4 957.366 1123.87C957.228 1118.42 957.069 1112.75 958.948 1107.71C959.128 1107.23 959.362 1106.73 959.648 1106.24C960.062 1105.51 960.582 1104.78 961.177 1104.05" stroke="#C8CEDB" stroke-width="3.7519" stroke-miterlimit="10" stroke-linecap="round" stroke-linejoin="round"/>
<path d="M1063.09 1091.34C1064.84 1089.31 1068.57 1085.57 1073.02 1082.32C1075.01 1080.88 1077.13 1079.53 1079.28 1078.47C1085.5 1075.41 1090.8 1078.53 1094.63 1077.6C1095.41 1077.41 1098.77 1076.89 1099.85 1076.63C1101.02 1076.35 1106.43 1074.73 1110.64 1073.28" stroke="#C8CEDB" stroke-width="3.7519" stroke-miterlimit="10" stroke-linecap="round" stroke-linejoin="round"/>
<path d="M960.423 1103.08C964.701 1098.01 973.162 1092.95 978.363 1091.12C984.478 1088.98 990.571 1091.62 996.208 1095.14C999.902 1097.44 1003.4 1100.12 1006.59 1102.05C1007.84 1102.81 1009.28 1104.02 1010.74 1105.28C1012.99 1107.19 1015.33 1109.17 1017.25 1109.72C1019.57 1110.39 1022.32 1109.95 1025.13 1108.97C1030.41 1107.13 1035.92 1103.39 1039.24 1101.49C1045.77 1097.76 1055.27 1099.69 1060.91 1094.35C1061.85 1093.46 1062.27 1092.29 1063.11 1091.33" stroke="#C8CEDB" stroke-width="3.7519" stroke-miterlimit="10" stroke-linecap="round" stroke-linejoin="round"/>
<path d="M1405.69 801.04C1405.13 808.599 1401.55 814.417 1405.77 822.91C1409.9 831.202 1417.9 839.875 1413.31 849.419C1410.63 854.982 1403.81 858.836 1398.71 862.117C1393.08 865.737 1388.62 869.718 1383.45 873.88C1372.32 882.84 1359.67 890.834 1347.43 897.905C1332.9 906.292 1318.11 915.772 1315.91 933.374C1314.07 948.099 1310.18 954.65 1300.79 965.776C1297.82 969.3 1295.16 974.927 1291.94 977.889C1291.05 978.706 1290.13 979.428 1289.16 980.065C1279.64 986.361 1266.87 984.386 1256.94 989.917C1253.89 991.627 1251.18 993.93 1248.3 995.969C1247.4 996.616 1246.48 997.232 1245.52 997.795C1242.53 999.568 1239.61 1001.56 1236.55 1003.23C1230.79 1006.37 1224.7 1009.6 1219.79 1014.09C1219.51 1014.35 1219.24 1014.6 1218.97 1014.86C1214.53 1019.15 1209.93 1023.08 1204.9 1026.78C1200.49 1030.02 1196.84 1033.86 1192.53 1037.26C1188.55 1040.39 1185.52 1044.88 1181.21 1047.83C1180.83 1048.08 1180.45 1048.34 1180.04 1048.57C1176.1 1050.88 1172.05 1053.39 1167.7 1054.97C1166.73 1055.33 1165.47 1056.2 1164.61 1056.42C1163.41 1056.74 1162.25 1056.54 1161.02 1056.84C1158.89 1057.37 1156.97 1058.03 1154.94 1058.63C1153.97 1058.91 1149.91 1059.49 1148.68 1059.49C1148.16 1059.49 1147.6 1059.47 1147.05 1059.43C1145.42 1059.36 1143.71 1059.26 1142.24 1059.7C1140.52 1060.21 1139.77 1061.29 1137.76 1061.4C1134.22 1061.59 1127.92 1060.02 1124.89 1062.06C1122.77 1063.48 1121.59 1066.48 1119.62 1068.06" stroke="#F90000" stroke-width="3.7519" stroke-miterlimit="10" stroke-linejoin="round" stroke-dasharray="4.69 4.69"/>
<path d="M1732.55 654.714C1731.91 656.094 1731.38 657.039 1729.85 658.048C1728.09 659.226 1725.9 659.757 1724.05 660.659C1717.03 664.11 1709.71 667.889 1702.26 670.32C1694.8 672.751 1686.8 671.785 1679.25 673.548C1669.85 675.735 1661.3 675.586 1651.51 672.242C1639.85 668.261 1630.64 663.154 1617.96 662.23C1612.37 661.827 1606.76 662.252 1601.18 662.602C1596.2 662.921 1591.17 662.74 1586.3 663.547C1580.86 664.449 1575.18 664.29 1569.7 665.044C1564.22 665.798 1558.76 666.912 1553.5 668.717C1550.9 669.609 1548.36 670.681 1545.68 671.318C1538 673.155 1529.96 671.361 1522.28 669.471C1518.21 668.462 1513.92 667.316 1510.97 664.333C1508.9 662.241 1507.7 659.438 1505.86 657.135C1503.16 653.748 1499.23 651.614 1495.42 649.576C1492.24 647.877 1488.9 646.136 1485.3 646.157C1481.71 646.178 1478.41 647.962 1475.27 649.692C1468.16 652.856 1460.98 656.391 1454.6 658.133C1440.89 661.869 1426.19 658.844 1412.65 661.413C1394.99 664.768 1378.63 659.736 1363.03 670.161C1360.94 671.562 1359.24 673.494 1357.19 674.949C1354.54 676.839 1352.37 679.121 1350.42 681.712C1348.52 684.238 1347.36 686.436 1346.69 689.409C1345.94 692.668 1344.59 695.778 1344.51 699.197C1344.5 699.675 1344.6 700.322 1344.54 700.811C1344.45 701.533 1344.11 701.893 1343.97 702.52C1343.65 704.038 1343.83 705.63 1343.81 707.191C1343.79 708.741 1343.25 709.76 1343.07 711.289C1342.79 713.582 1343.24 715.557 1343.99 717.68C1344.51 719.145 1344.75 720.929 1345.36 722.33C1345.78 723.317 1346.67 723.869 1347.22 724.793C1354.2 736.535 1361.81 751.079 1370.72 761.484C1376.08 767.747 1383.48 769.372 1390.2 773.777C1397.62 778.65 1404.18 786.899 1405.5 795.849C1405.78 797.696 1405.8 799.416 1405.67 801.051" stroke="#F90000" stroke-width="3.7519" stroke-miterlimit="10" stroke-linejoin="round" stroke-dasharray="4.69 4.69"/>
<path d="M1657.72 453.83C1661.03 455.868 1664.33 457.822 1666.18 461.559C1666.76 462.737 1667.21 463.99 1667.51 465.264C1667.93 466.984 1667.9 468.778 1668.33 470.487C1669.67 475.625 1675.33 478.481 1677.83 483.089C1678.93 485.095 1685.74 493.971 1687.32 497.124C1688.21 498.897 1689.29 500.829 1690.17 502.74C1691.25 505.075 1694 515.787 1693.7 522.253C1693.48 527.115 1693.7 531.988 1693.7 536.861C1693.7 541.681 1691.15 567.521 1691.06 568.01C1690.55 570.6 1690.03 573.52 1689.88 576.152C1689.55 582.034 1691.05 586.493 1692.01 589.423C1694.59 597.279 1703.17 599.487 1710.32 600.878C1717.31 602.237 1724.2 605.401 1729.52 610.56C1730.66 611.664 1731.61 612.991 1732.4 614.382C1732.84 615.178 1733.46 615.964 1733.84 616.792C1734.15 617.45 1734.23 618.289 1734.51 618.926C1735.95 622.281 1735.48 626.241 1735.48 630.084C1735.48 634.267 1735.48 638.45 1735.48 642.643C1735.48 644.597 1736.04 647.474 1735.53 649.342C1735.11 650.871 1733.55 652.506 1732.84 654.066C1732.73 654.3 1732.63 654.523 1732.53 654.746" stroke="#F90000" stroke-width="3.7519" stroke-miterlimit="10" stroke-linejoin="round" stroke-dasharray="4.69 4.69"/>
<path d="M1640.18 417.129C1640.17 430.452 1642.82 440.995 1652.46 450.05C1654.05 451.547 1655.89 452.694 1657.73 453.83" stroke="#F90000" stroke-width="3.7519" stroke-miterlimit="10" stroke-linejoin="round" stroke-dasharray="4.69 4.69"/>
<path d="M1639.8 419.422C1645.99 419.422 1651.01 414.403 1651.01 408.211C1651.01 402.019 1645.99 397 1639.8 397C1633.61 397 1628.59 402.019 1628.59 408.211C1628.59 414.403 1633.61 419.422 1639.8 419.422Z" fill="#F90000"/>
<path d="M1114.45 1078.38C1118.83 1078.38 1122.38 1074.83 1122.38 1070.45C1122.38 1066.07 1118.83 1062.52 1114.45 1062.52C1110.07 1062.52 1106.52 1066.07 1106.52 1070.45C1106.52 1074.83 1110.07 1078.38 1114.45 1078.38Z" fill="white" stroke="#F90000" stroke-width="3.7519" stroke-miterlimit="10" stroke-linecap="round" stroke-linejoin="round"/>
<path d="M887.867 1235.18C892.247 1235.18 895.797 1231.63 895.797 1227.25C895.797 1222.87 892.247 1219.32 887.867 1219.32C883.488 1219.32 879.938 1222.87 879.938 1227.25C879.938 1231.63 883.488 1235.18 887.867 1235.18Z" fill="white" stroke="#F90000" stroke-width="3.7519" stroke-miterlimit="10" stroke-linecap="round" stroke-linejoin="round"/>
<path d="M1405.88 808.971C1410.26 808.971 1413.81 805.42 1413.81 801.04C1413.81 796.66 1410.26 793.11 1405.88 793.11C1401.5 793.11 1397.95 796.66 1397.95 801.04C1397.95 805.42 1401.5 808.971 1405.88 808.971Z" fill="white" stroke="#F90000" stroke-width="3.7519" stroke-miterlimit="10" stroke-linecap="round" stroke-linejoin="round"/>
<path d="M1489.89 655.744C1494.27 655.744 1497.82 652.193 1497.82 647.813C1497.82 643.433 1494.27 639.883 1489.89 639.883C1485.51 639.883 1481.96 643.433 1481.96 647.813C1481.96 652.193 1485.51 655.744 1489.89 655.744Z" fill="white" stroke="#F90000" stroke-width="3.7519" stroke-miterlimit="10" stroke-linecap="round" stroke-linejoin="round"/>
<path d="M1732.09 662.645C1736.47 662.645 1740.02 659.094 1740.02 654.714C1740.02 650.334 1736.47 646.784 1732.09 646.784C1727.71 646.784 1724.16 650.334 1724.16 654.714C1724.16 659.094 1727.71 662.645 1732.09 662.645Z" fill="white" stroke="#F90000" stroke-width="3.7519" stroke-miterlimit="10" stroke-linecap="round" stroke-linejoin="round"/>
<path d="M1658.46 460.911C1662.84 460.911 1666.39 457.36 1666.39 452.98C1666.39 448.601 1662.84 445.05 1658.46 445.05C1654.08 445.05 1650.53 448.601 1650.53 452.98C1650.53 457.36 1654.08 460.911 1658.46 460.911Z" fill="white" stroke="#F90000" stroke-width="3.7519" stroke-miterlimit="10" stroke-linecap="round" stroke-linejoin="round"/>
<path d="M788.953 1454.29C791.151 1454.29 792.933 1452.51 792.933 1450.31C792.933 1448.11 791.151 1446.33 788.953 1446.33C786.754 1446.33 784.972 1448.11 784.972 1450.31C784.972 1452.51 786.754 1454.29 788.953 1454.29Z" fill="white" stroke="#F90000" stroke-width="2" stroke-miterlimit="10" stroke-linecap="round" stroke-linejoin="round"/>
<path d="M794.282 1437.63C796.48 1437.63 798.262 1435.85 798.262 1433.65C798.262 1431.45 796.48 1429.67 794.282 1429.67C792.083 1429.67 790.301 1431.45 790.301 1433.65C790.301 1435.85 792.083 1437.63 794.282 1437.63Z" fill="#404366"/>
<path d="M794.812 1419.3C797.011 1419.3 798.793 1417.52 798.793 1415.32C798.793 1413.12 797.011 1411.34 794.812 1411.34C792.614 1411.34 790.832 1413.12 790.832 1415.32C790.832 1417.52 792.614 1419.3 794.812 1419.3Z" fill="#404366"/>
<path d="M801.224 1382.24C803.423 1382.24 805.205 1380.45 805.205 1378.26C805.205 1376.06 803.423 1374.27 801.224 1374.27C799.026 1374.27 797.243 1376.06 797.243 1378.26C797.243 1380.45 799.026 1382.24 801.224 1382.24Z" fill="white" stroke="#F90000" stroke-width="2" stroke-miterlimit="10" stroke-linecap="round" stroke-linejoin="round"/>
<path d="M788.953 1362.78C791.151 1362.78 792.933 1360.99 792.933 1358.8C792.933 1356.6 791.151 1354.81 788.953 1354.81C786.754 1354.81 784.972 1356.6 784.972 1358.8C784.972 1360.99 786.754 1362.78 788.953 1362.78Z" fill="#404366"/>
<path d="M811.235 1307.07C813.433 1307.07 815.215 1305.29 815.215 1303.09C815.215 1300.89 813.433 1299.11 811.235 1299.11C809.036 1299.11 807.254 1300.89 807.254 1303.09C807.254 1305.29 809.036 1307.07 811.235 1307.07Z" fill="#404366"/>
<path d="M804.567 1325.89C806.893 1325.89 808.779 1324 808.779 1321.67C808.779 1319.33 806.893 1317.45 804.567 1317.45C802.24 1317.45 800.354 1319.33 800.354 1321.67C800.354 1324 802.24 1325.89 804.567 1325.89Z" fill="#404366"/>
<path d="M795.397 1344.23C797.595 1344.23 799.377 1342.45 799.377 1340.25C799.377 1338.05 797.595 1336.27 795.397 1336.27C793.198 1336.27 791.416 1338.05 791.416 1340.25C791.416 1342.45 793.198 1344.23 795.397 1344.23Z" fill="#404366"/>
<path d="M816.542 1284.57C818.741 1284.57 820.523 1282.78 820.523 1280.58C820.523 1278.39 818.741 1276.6 816.542 1276.6C814.344 1276.6 812.562 1278.39 812.562 1280.58C812.562 1282.78 814.344 1284.57 816.542 1284.57Z" fill="#404366"/>
<path d="M858.866 1245.9C861.065 1245.9 862.847 1244.12 862.847 1241.92C862.847 1239.72 861.065 1237.94 858.866 1237.94C856.668 1237.94 854.885 1239.72 854.885 1241.92C854.885 1244.12 856.668 1245.9 858.866 1245.9Z" fill="#404366"/>
<path d="M904.289 1203.47C906.488 1203.47 908.27 1201.68 908.27 1199.49C908.27 1197.29 906.488 1195.5 904.289 1195.5C902.091 1195.5 900.308 1197.29 900.308 1199.49C900.308 1201.68 902.091 1203.47 904.289 1203.47Z" fill="#404366"/>
<path d="M913.652 1175.79C915.85 1175.79 917.633 1174.01 917.633 1171.81C917.633 1169.61 915.85 1167.83 913.652 1167.83C911.453 1167.83 909.671 1169.61 909.671 1171.81C909.671 1174.01 911.453 1175.79 913.652 1175.79Z" fill="white" stroke="#F90000" stroke-width="2" stroke-miterlimit="10" stroke-linecap="round" stroke-linejoin="round"/>
<path d="M934.363 1160.35C936.561 1160.35 938.343 1158.57 938.343 1156.37C938.343 1154.17 936.561 1152.39 934.363 1152.39C932.164 1152.39 930.382 1154.17 930.382 1156.37C930.382 1158.57 932.164 1160.35 934.363 1160.35Z" fill="#404366"/>
<path d="M955.774 1140.78C957.972 1140.78 959.755 1138.99 959.755 1136.8C959.755 1134.6 957.972 1132.81 955.774 1132.81C953.575 1132.81 951.793 1134.6 951.793 1136.8C951.793 1138.99 953.575 1140.78 955.774 1140.78Z" fill="#404366"/>
<path d="M956.442 1123.53C958.641 1123.53 960.423 1121.74 960.423 1119.54C960.423 1117.35 958.641 1115.56 956.442 1115.56C954.244 1115.56 952.462 1117.35 952.462 1119.54C952.462 1121.74 954.244 1123.53 956.442 1123.53Z" fill="#404366"/>
<path d="M960.423 1107.65C962.622 1107.65 964.404 1105.87 964.404 1103.67C964.404 1101.47 962.622 1099.69 960.423 1099.69C958.225 1099.69 956.443 1101.47 956.443 1103.67C956.443 1105.87 958.225 1107.65 960.423 1107.65Z" fill="#404366"/>
<path d="M984.159 1094.53C986.358 1094.53 988.14 1092.75 988.14 1090.55C988.14 1088.35 986.358 1086.57 984.159 1086.57C981.961 1086.57 980.178 1088.35 980.178 1090.55C980.178 1092.75 981.961 1094.53 984.159 1094.53Z" fill="#404366"/>
<path d="M1010.02 1107.77C1012.22 1107.77 1014 1105.99 1014 1103.79C1014 1101.59 1012.22 1099.81 1010.02 1099.81C1007.82 1099.81 1006.04 1101.59 1006.04 1103.79C1006.04 1105.99 1007.82 1107.77 1010.02 1107.77Z" fill="#404366"/>
<path d="M1040.96 1103.98C1043.16 1103.98 1044.94 1102.2 1044.94 1100C1044.94 1097.8 1043.16 1096.02 1040.96 1096.02C1038.76 1096.02 1036.98 1097.8 1036.98 1100C1036.98 1102.2 1038.76 1103.98 1040.96 1103.98Z" fill="#404366"/>
<path d="M1063.8 1094.83C1065.99 1094.83 1067.78 1093.05 1067.78 1090.85C1067.78 1088.65 1065.99 1086.87 1063.8 1086.87C1061.6 1086.87 1059.81 1088.65 1059.81 1090.85C1059.81 1093.05 1061.6 1094.83 1063.8 1094.83Z" fill="#404366"/>
</g>
<g opacity="0.6" clip-path="url(#clip1)">
<path fill-rule="evenodd" clip-rule="evenodd" d="M772.795 1491.84C766.201 1490.22 759.235 1491.29 753.429 1494.81C747.623 1498.33 743.453 1504.01 741.836 1510.6C740.219 1517.2 741.288 1524.16 744.808 1529.97C748.327 1535.78 754.009 1539.95 760.604 1541.56C767.198 1543.18 774.164 1542.11 779.97 1538.59C785.776 1535.07 789.946 1529.39 791.563 1522.8C793.18 1516.2 792.111 1509.23 788.591 1503.43C785.071 1497.62 779.39 1493.45 772.795 1491.84V1491.84ZM761.306 1525.26C761.103 1526.09 761.237 1526.96 761.677 1527.68C762.117 1528.41 762.827 1528.93 763.651 1529.13C764.476 1529.33 765.347 1529.2 766.072 1528.76C766.798 1528.32 767.319 1527.61 767.521 1526.79L770.254 1515.64L773.287 1520.64C773.735 1521.35 774.443 1521.86 775.26 1522.05C776.076 1522.25 776.936 1522.11 777.653 1521.67C778.371 1521.24 778.889 1520.54 779.096 1519.73C779.303 1518.91 779.182 1518.05 778.759 1517.33L771.721 1505.72C771.281 1504.99 770.571 1504.47 769.747 1504.27C768.923 1504.07 768.052 1504.2 767.327 1504.64L755.717 1511.68C755.007 1512.12 754.501 1512.83 754.309 1513.65C754.116 1514.47 754.252 1515.33 754.687 1516.04C755.122 1516.76 755.821 1517.28 756.634 1517.49C757.447 1517.69 758.309 1517.57 759.034 1517.15L764.038 1514.12L761.306 1525.26Z" fill="#F90000"/>
</g>
<defs>
<clipPath id="clip0">
<rect width="966" height="1085" fill="white" transform="translate(777 397)"/>
</clipPath>
<clipPath id="clip1">
<rect width="64" height="64" fill="white" transform="translate(790.159 1555.4) rotate(-166.224)"/>
</clipPath>
</defs>
</svg>
