<svg width="2075" height="1458" viewBox="0 0 2075 1458" fill="none" xmlns="http://www.w3.org/2000/svg">
<path d="M1281.07 288.97C1289.33 284.42 1298.24 283.96 1306.28 279.86C1308.28 278.84 1310.32 277.75 1312.29 276.59C1313.51 275.87 1314.7 275.12 1315.85 274.34C1317.37 273.3 1319.79 271.75 1320.98 270.4" stroke="#C8CEDB" stroke-width="3.7519" stroke-miterlimit="10" stroke-linecap="round" stroke-linejoin="round"/>
<path d="M765.15 935.66C761.56 934.16 757.47 934.44 753.65 935.21C749.83 935.99 746.1 937.24 742.23 937.64C736.35 938.25 729.86 936.57 728.69 930.08C728.33 928.1 728.28 926.08 727.82 924.12C726.55 918.82 722.44 914.75 718.51 910.98C714.55 907.19 710.59 903.4 706.63 899.6C703.74 895.96 701.39 891.7 700.09 887.44C696.8 876.66 694.93 864.41 686.44 855.83C676.53 845.82 661 848.11 651.57 838.27C646.61 833.09 647.77 828.02 645.04 821.96C641.97 815.14 636.31 810.12 631.36 804.74C627.94 801.02 621.19 796.86 619.55 792C617.48 785.87 621.29 776.02 625.6 771.72C634.23 763.11 646.03 757.5 658.04 757C675.55 756.27 686.26 743.14 699.11 733.45C701.67 731.52 704.61 730 706.36 727.14C708.22 724.09 708 720.29 710.37 717.62C714.74 712.68 720.04 712.72 725.62 710.62C731.68 708.34 735.23 705.33 742.27 706.05C747.92 706.63 754.86 708.53 760.2 710.45C763.78 711.73 765.78 714.47 768.47 716.33C772.3 718.97 775.46 717.9 780.43 717.27C782.1 717.06 783.76 716.94 785.39 716.89C792.2 716.69 798.79 717.63 805.76 717.28C816 716.76 820.7 711.93 828.96 706.5C834.83 702.64 841.3 700.99 846.99 696.78C855.35 690.6 855.34 679.49 862.63 672.71C869.94 665.91 878.78 668.71 887.38 666.49C897.34 663.93 907.39 667.56 917.44 664.62C927.38 661.71 936.14 656.38 945.02 651.1C947.09 649.87 950.22 649.61 952.13 648.19C954.63 646.33 956.33 644.59 959.06 643.15C968.05 638.42 976.77 632.97 986.6 630.12C990.4 629.02 993.54 628.1 996.97 626.17C1007.52 620.23 1019.76 618.46 1030.95 613.98C1037.71 611.27 1044.23 608.33 1051.22 606.82C1064.06 604.06 1076.83 598.85 1089.93 595.81C1093.95 594.88 1097.97 593.76 1101.97 592.66C1105.17 591.79 1108.35 590.93 1111.51 590.21C1114.36 589.56 1116.29 590.11 1119.12 588.41C1122.72 586.25 1126.38 583.03 1129.88 580.62C1134.2 577.65 1137.92 574.42 1142.75 572.15C1145.38 570.92 1147.46 571.02 1149.9 570.2C1152.07 569.48 1153.93 567.47 1155.83 566.12C1160.36 562.91 1164.9 558.07 1168.74 554.05C1173.13 549.47 1177.49 544.68 1181.94 539.97C1186.56 535.08 1191.35 533.22 1194.09 526.88C1196.01 522.44 1196.71 516.9 1199.03 512.72C1203.26 505.09 1215.68 500.15 1222.24 494.43C1230.6 487.15 1235.38 478.63 1240.36 468.52C1241.77 465.67 1243.24 462.96 1244.8 460.38C1251.14 449.95 1259.39 443.67 1268.08 435.73C1271.15 432.93 1274.62 432.4 1278.47 430.98C1292.47 425.85 1296.06 407.8 1287.6 395.73C1285.14 392.22 1281.95 389.83 1278.35 387.4C1269.33 381.3 1267.8 376.85 1265.68 366.08C1263.59 355.44 1257.43 346.25 1254.79 335.81C1253.3 329.92 1254.2 325 1254.32 319.12C1254.42 314.06 1253.1 309.34 1256.3 304.8C1260.99 298.16 1268.36 295.53 1275.38 291.96C1277.33 290.97 1279.23 289.98 1281.07 288.97" stroke="#FFA506" stroke-width="3.7519" stroke-miterlimit="10" stroke-linejoin="round" stroke-dasharray="4.69 4.69"/>
<path d="M1330.88 259.28C1328.02 260.56 1325.26 262.07 1323.81 264.19C1322.47 266.14 1322.68 268.47 1320.97 270.4" stroke="#C8CEDB" stroke-width="3.7519" stroke-miterlimit="10" stroke-linecap="round" stroke-linejoin="round"/>
<path d="M1362.72 246.02C1358.5 247.9 1354.14 249.44 1349.97 250.81C1349.59 250.93 1349.22 251.05 1348.85 251.18C1344.66 252.54 1341.55 254.11 1337.8 256.19C1335.92 257.23 1333.36 258.17 1330.88 259.28" stroke="#C8CEDB" stroke-width="3.7519" stroke-miterlimit="10" stroke-linecap="round" stroke-linejoin="round"/>
<path d="M1364.21 186.67C1368.64 188.78 1372.81 191.56 1376.21 195.76C1381.87 202.75 1385.53 211.63 1388.3 219.98C1388.81 221.53 1389.02 222.72 1388.93 223.74C1388.75 225.85 1387.34 227.24 1384.82 229.49C1381.79 232.2 1379.23 235.4 1376.06 238.04C1372.16 241.29 1367.54 243.87 1362.72 246.02" stroke="#FFA506" stroke-width="3.7519" stroke-miterlimit="10" stroke-linecap="round" stroke-linejoin="round"/>
<path d="M1290.38 130.36C1290.7 131.46 1290.88 132.5 1290.83 133.4C1290.49 139.37 1286.46 141.66 1291.18 147.03C1292.08 148.05 1293.01 148.99 1293.98 149.87C1299.2 154.59 1305.41 157.53 1311.35 161.07C1318.18 165.13 1324.42 171.04 1331.41 175.27C1339.24 180.01 1348.68 180.84 1357.12 183.83C1357.61 184 1358.1 184.18 1358.59 184.36C1360.48 185.06 1362.36 185.81 1364.19 186.69" stroke="#C8CEDB" stroke-width="3.7519" stroke-miterlimit="10" stroke-linecap="round" stroke-linejoin="round"/>
<path d="M1272.57 101.25C1276.16 108.47 1282.22 114.01 1286.15 121.33C1287.38 123.63 1289.46 127.24 1290.38 130.37" stroke="#FFA506" stroke-width="3.7519" stroke-miterlimit="10" stroke-linecap="round" stroke-linejoin="round"/>
<path d="M1362.57 253.49C1366.7 253.49 1370.04 250.146 1370.04 246.02C1370.04 241.894 1366.7 238.55 1362.57 238.55C1358.44 238.55 1355.1 241.894 1355.1 246.02C1355.1 250.146 1358.44 253.49 1362.57 253.49Z" fill="white" stroke="#FFA506" stroke-width="3.7519" stroke-miterlimit="10" stroke-linecap="round" stroke-linejoin="round"/>
<path d="M840.98 707.44C845.105 707.44 848.45 704.096 848.45 699.97C848.45 695.844 845.105 692.5 840.98 692.5C836.854 692.5 833.51 695.844 833.51 699.97C833.51 704.096 836.854 707.44 840.98 707.44Z" fill="white" stroke="#FFA506" stroke-width="3.7519" stroke-miterlimit="10" stroke-linecap="round" stroke-linejoin="round"/>
<path d="M638.63 769.3C642.756 769.3 646.1 765.956 646.1 761.83C646.1 757.704 642.756 754.36 638.63 754.36C634.505 754.36 631.16 757.704 631.16 761.83C631.16 765.956 634.505 769.3 638.63 769.3Z" fill="white" stroke="#FFA506" stroke-width="3.7519" stroke-miterlimit="10" stroke-linecap="round" stroke-linejoin="round"/>
<path d="M1254.43 316.39C1258.56 316.39 1261.9 313.046 1261.9 308.92C1261.9 304.794 1258.56 301.45 1254.43 301.45C1250.3 301.45 1246.96 304.794 1246.96 308.92C1246.96 313.046 1250.3 316.39 1254.43 316.39Z" fill="white" stroke="#FFA506" stroke-width="3.7519" stroke-miterlimit="10" stroke-linecap="round" stroke-linejoin="round"/>
<path d="M1200.4 518.39C1204.53 518.39 1207.87 515.046 1207.87 510.92C1207.87 506.794 1204.53 503.45 1200.4 503.45C1196.27 503.45 1192.93 506.794 1192.93 510.92C1192.93 515.046 1196.27 518.39 1200.4 518.39Z" fill="white" stroke="#FFA506" stroke-width="3.7519" stroke-miterlimit="10" stroke-linecap="round" stroke-linejoin="round"/>
<path d="M729.201 938.2C733.326 938.2 736.67 934.856 736.67 930.73C736.67 926.604 733.326 923.26 729.201 923.26C725.075 923.26 721.73 926.604 721.73 930.73C721.73 934.856 725.075 938.2 729.201 938.2Z" fill="white" stroke="#FFA506" stroke-width="3.7519" stroke-miterlimit="10" stroke-linecap="round" stroke-linejoin="round"/>
<path d="M765.98 945.71C771.812 945.71 776.54 940.982 776.54 935.15C776.54 929.318 771.812 924.59 765.98 924.59C760.148 924.59 755.42 929.318 755.42 935.15C755.42 940.982 760.148 945.71 765.98 945.71Z" fill="#FFA506"/>
<path d="M1331.26 262.62C1333.33 262.62 1335.01 260.941 1335.01 258.87C1335.01 256.799 1333.33 255.12 1331.26 255.12C1329.19 255.12 1327.51 256.799 1327.51 258.87C1327.51 260.941 1329.19 262.62 1331.26 262.62Z" fill="#404366"/>
<path d="M1342.83 256.88C1344.9 256.88 1346.58 255.201 1346.58 253.13C1346.58 251.059 1344.9 249.38 1342.83 249.38C1340.76 249.38 1339.08 251.059 1339.08 253.13C1339.08 255.201 1340.76 256.88 1342.83 256.88Z" fill="#404366"/>
<path d="M1321.02 273.99C1323.09 273.99 1324.77 272.311 1324.77 270.24C1324.77 268.169 1323.09 266.49 1321.02 266.49C1318.95 266.49 1317.27 268.169 1317.27 270.24C1317.27 272.311 1318.95 273.99 1321.02 273.99Z" fill="#404366"/>
<path d="M1310.77 280.89C1312.84 280.89 1314.52 279.211 1314.52 277.14C1314.52 275.069 1312.84 273.39 1310.77 273.39C1308.7 273.39 1307.02 275.069 1307.02 277.14C1307.02 279.211 1308.7 280.89 1310.77 280.89Z" fill="#404366"/>
<path d="M1297.91 286.31C1299.98 286.31 1301.66 284.631 1301.66 282.56C1301.66 280.489 1299.98 278.81 1297.91 278.81C1295.84 278.81 1294.16 280.489 1294.16 282.56C1294.16 284.631 1295.84 286.31 1297.91 286.31Z" fill="#404366"/>
<path d="M1279.75 292.65C1281.82 292.65 1283.5 290.971 1283.5 288.9C1283.5 286.829 1281.82 285.15 1279.75 285.15C1277.68 285.15 1276 286.829 1276 288.9C1276 290.971 1277.68 292.65 1279.75 292.65Z" fill="#404366"/>
<path d="M1388.95 229.13C1391.02 229.13 1392.7 227.451 1392.7 225.38C1392.7 223.309 1391.02 221.63 1388.95 221.63C1386.88 221.63 1385.2 223.309 1385.2 225.38C1385.2 227.451 1386.88 229.13 1388.95 229.13Z" fill="white" stroke="#FFA506" stroke-width="2" stroke-miterlimit="10" stroke-linecap="round" stroke-linejoin="round"/>
<path d="M1379.81 204.23C1381.88 204.23 1383.56 202.551 1383.56 200.48C1383.56 198.409 1381.88 196.73 1379.81 196.73C1377.74 196.73 1376.06 198.409 1376.06 200.48C1376.06 202.551 1377.74 204.23 1379.81 204.23Z" fill="white" stroke="#FFA506" stroke-width="2" stroke-miterlimit="10" stroke-linecap="round" stroke-linejoin="round"/>
<path d="M1364.03 190.18C1366.1 190.18 1367.78 188.501 1367.78 186.43C1367.78 184.359 1366.1 182.68 1364.03 182.68C1361.96 182.68 1360.28 184.359 1360.28 186.43C1360.28 188.501 1361.96 190.18 1364.03 190.18Z" fill="#404366"/>
<path d="M1334.98 181.25C1337.05 181.25 1338.73 179.571 1338.73 177.5C1338.73 175.429 1337.05 173.75 1334.98 173.75C1332.91 173.75 1331.23 175.429 1331.23 177.5C1331.23 179.571 1332.91 181.25 1334.98 181.25Z" fill="#404366"/>
<path d="M1314.52 167.11C1316.59 167.11 1318.27 165.431 1318.27 163.36C1318.27 161.289 1316.59 159.61 1314.52 159.61C1312.45 159.61 1310.77 161.289 1310.77 163.36C1310.77 165.431 1312.45 167.11 1314.52 167.11Z" fill="#404366"/>
<path d="M1294.16 154.35C1296.23 154.35 1297.91 152.671 1297.91 150.6C1297.91 148.529 1296.23 146.85 1294.16 146.85C1292.09 146.85 1290.41 148.529 1290.41 150.6C1290.41 152.671 1292.09 154.35 1294.16 154.35Z" fill="#404366"/>
<path d="M1289.77 134.11C1291.84 134.11 1293.52 132.431 1293.52 130.36C1293.52 128.289 1291.84 126.61 1289.77 126.61C1287.7 126.61 1286.02 128.289 1286.02 130.36C1286.02 132.431 1287.7 134.11 1289.77 134.11Z" fill="white" stroke="#FFA506" stroke-width="2" stroke-miterlimit="10" stroke-linecap="round" stroke-linejoin="round"/>
</svg>
