<svg width="2075" height="1458" viewBox="0 0 2075 1458" fill="none" xmlns="http://www.w3.org/2000/svg">
<path d="M1680.38 743.73C1681.62 743.43 1682.9 743.22 1684.24 743.12C1692.18 742.51 1696.56 742.24 1703.43 737.8C1707.29 735.31 1714.54 733.28 1717.13 729.93" stroke="#1B771B" stroke-width="3.7519" stroke-miterlimit="10" stroke-linecap="round" stroke-linejoin="round"/>
<path d="M1651.24 754.08C1653.72 753.89 1656.16 753.57 1658.52 752.95C1666.46 750.88 1672.53 745.62 1680.38 743.74" stroke="#1B771B" stroke-width="3.7519" stroke-miterlimit="10" stroke-linecap="round" stroke-linejoin="round"/>
<path d="M1613.86 762.52C1619.19 759.41 1624.59 756.55 1631.46 755.26C1637.86 754.06 1644.68 754.56 1651.23 754.07" stroke="#1B771B" stroke-width="3.7519" stroke-miterlimit="10" stroke-linecap="round" stroke-linejoin="round"/>
<path d="M1587.01 775.5C1590.84 773.58 1594.91 771.97 1598.85 770.43C1604.46 768.22 1609.14 765.28 1613.87 762.52" stroke="#1B771B" stroke-width="3.7519" stroke-miterlimit="10" stroke-linecap="round" stroke-linejoin="round"/>
<path d="M1569.5 794.67C1571.7 785.17 1578.79 779.62 1587.01 775.5" stroke="#1B771B" stroke-width="3.7519" stroke-miterlimit="10" stroke-linecap="round" stroke-linejoin="round"/>
<path d="M1567.17 817.71C1567.64 811.33 1568.33 804.65 1568.93 798.26C1569.05 797.01 1569.24 795.81 1569.5 794.67" stroke="#1B771B" stroke-width="3.7519" stroke-miterlimit="10" stroke-linecap="round" stroke-linejoin="round"/>
<path d="M1576.95 850.15C1573.29 847.09 1569.43 844.37 1567.73 839.19C1566.03 834.03 1566.67 825.26 1567.02 819.82C1567.07 819.12 1567.12 818.41 1567.17 817.7" stroke="#1B771B" stroke-width="3.7519" stroke-miterlimit="10" stroke-linecap="round" stroke-linejoin="round"/>
<path d="M1587.57 874.81C1586.21 872.72 1585.07 870.69 1584.42 868.75C1582.69 863.58 1584.83 859.19 1581.76 855.01C1580.37 853.12 1578.68 851.6 1576.95 850.15" stroke="#1B771B" stroke-width="3.7519" stroke-miterlimit="10" stroke-linecap="round" stroke-linejoin="round"/>
<path d="M1592.39 905.35C1593.86 904.53 1595.19 903.29 1596.3 901.44C1601.7 892.44 1592.96 883.11 1587.57 874.81" stroke="#1B771B" stroke-width="3.7519" stroke-miterlimit="10" stroke-linecap="round" stroke-linejoin="round"/>
<path d="M1490.57 983.29C1491.74 982.62 1492.88 981.9 1493.98 981.12C1498.45 977.95 1502.98 974.76 1507.56 971.66C1509.88 970.09 1512.21 968.55 1514.56 967.04C1518.39 964.58 1522.18 963.47 1526.23 961.6C1530.28 959.73 1530.72 957.16 1533.42 954.16C1534.86 952.56 1536.36 951.03 1537.86 949.52C1541.55 945.81 1545.28 942.19 1548.3 937.81C1551.9 932.58 1553.39 926.53 1556.19 920.96C1556.46 920.43 1556.73 919.91 1557.02 919.39C1560.83 912.63 1568.4 905.57 1576.42 905.96C1581.54 906.21 1587.68 907.95 1592.38 905.35" stroke="#C8CEDB" stroke-width="3.7519" stroke-miterlimit="10" stroke-linecap="round" stroke-linejoin="round"/>
<path d="M1490.57 983.29C1484.17 986.94 1476.91 988.81 1469.35 989.16C1468.13 989.22 1466.91 989.23 1465.68 989.21C1459.76 989.11 1455.14 991.29 1449.33 991.22C1441.77 991.13 1433.59 989.73 1425.43 988.94" stroke="#1B771B" stroke-width="3.7519" stroke-miterlimit="10" stroke-linecap="round" stroke-linejoin="round"/>
<path d="M1140.12 1296.34C1138.86 1298.85 1137.69 1301.39 1136.27 1303.74C1134.98 1305.88 1133.44 1307.94 1131.68 1309.86C1125.54 1316.56 1116.84 1321.44 1107.53 1321.29C1107.08 1321.28 1106.64 1321.28 1106.2 1321.29C1094 1321.58 1084.7 1328.65 1074.82 1334.41" stroke="#1B771B" stroke-width="3.7519" stroke-miterlimit="10" stroke-linejoin="round" stroke-dasharray="4.69 4.69"/>
<path d="M1162.96 1270.02C1161.96 1270.47 1160.94 1270.92 1159.87 1271.43C1156.42 1273.1 1156.98 1274.48 1154.89 1277.06C1152.7 1279.77 1150.36 1282.31 1148.09 1284.9C1146.78 1286.39 1145.49 1287.9 1144.27 1289.47C1143.15 1290.9 1142.21 1292.43 1141.34 1294C1140.92 1294.77 1140.52 1295.54 1140.13 1296.32" stroke="#1B771B" stroke-width="3.7519" stroke-miterlimit="10" stroke-linejoin="round" stroke-dasharray="4.69 4.69"/>
<path d="M1190.72 1256.55C1188.5 1257.74 1186.28 1258.92 1184.04 1259.91C1182.17 1260.73 1180.34 1261.5 1178.53 1262.26C1174.87 1263.82 1171.34 1265.38 1167.98 1267.46C1166.24 1268.53 1164.62 1269.28 1162.97 1270.02" stroke="#C8CEDB" stroke-width="3.7519" stroke-miterlimit="10" stroke-linecap="round" stroke-linejoin="round"/>
<path d="M1250.04 1225.98C1249.34 1226.9 1248.5 1227.8 1247.43 1228.71C1246.96 1229.11 1246.48 1229.49 1245.98 1229.84C1241.25 1233.15 1235.4 1234.18 1230.31 1236.76C1227.76 1238.05 1225.05 1239.05 1222.35 1240.07C1219.99 1240.96 1217.64 1241.88 1215.39 1243.03C1212.29 1244.62 1209.71 1247.62 1206.61 1249.44C1203.95 1251 1200.93 1251.57 1198.01 1252.86C1195.55 1253.95 1193.14 1255.25 1190.73 1256.55" stroke="#1B771B" stroke-width="3.7519" stroke-miterlimit="10" stroke-linejoin="round" stroke-dasharray="4.69 4.69"/>
<path d="M1274.65 1189.41C1271.34 1192.66 1267.81 1195.84 1264.57 1199.68C1261.03 1203.89 1257.77 1208.89 1255.53 1213.78C1255.33 1214.21 1255.14 1214.65 1254.96 1215.08C1253.12 1219.43 1252.49 1222.78 1250.04 1225.98" stroke="#C8CEDB" stroke-width="3.7519" stroke-miterlimit="10" stroke-linecap="round" stroke-linejoin="round"/>
<path d="M1425.42 988.95C1416.97 988.14 1408.53 987.98 1400.82 990.65C1393.86 993.05 1387.88 997.47 1382.84 1002.93C1375.5 1010.88 1370.14 1021.05 1366.62 1030.49C1364.34 1036.6 1365.77 1042.68 1365.48 1048.97C1365.44 1049.81 1365.37 1050.66 1365.26 1051.51C1364.41 1057.83 1361.48 1063.76 1359.62 1069.73C1358.58 1073.07 1357.55 1076.32 1356.61 1079.69C1355.97 1081.98 1355.83 1084.1 1355.66 1086.25C1355.56 1087.44 1355.46 1088.63 1355.24 1089.86C1353.48 1100.11 1342.36 1105.48 1336.26 1113.14C1334.23 1115.69 1332.62 1118.52 1330.77 1121.2C1330.13 1122.13 1329.49 1123.01 1328.84 1123.86C1322.83 1131.73 1316.54 1136.08 1306.89 1140.18C1299.69 1143.24 1295.99 1145.22 1292.19 1152.3C1289.85 1156.67 1288.95 1157.19 1288.72 1162.32C1288.56 1165.83 1287.18 1168.99 1286.15 1172.37C1284.16 1178.9 1280.48 1183.5 1276.28 1187.79C1275.74 1188.34 1275.2 1188.88 1274.65 1189.42" stroke="#C8CEDB" stroke-width="3.7519" stroke-miterlimit="10" stroke-linecap="round" stroke-linejoin="round"/>
<path d="M1048.74 1341.84C1050.26 1341.85 1051.77 1341.84 1053.28 1341.79C1055.08 1341.73 1056.81 1341.52 1058.5 1341.2C1064.42 1340.05 1069.71 1337.41 1074.83 1334.42" stroke="#1B771B" stroke-width="3.7519" stroke-miterlimit="10" stroke-linejoin="round" stroke-dasharray="4.69 4.69"/>
<path d="M1025.22 1338.47C1026.98 1339.89 1028.89 1341.13 1030.97 1341.59C1034.33 1342.33 1038.25 1341.77 1041.68 1341.77C1044.03 1341.77 1046.39 1341.83 1048.75 1341.84" stroke="#1B771B" stroke-width="3.7519" stroke-miterlimit="10" stroke-linejoin="round" stroke-dasharray="4.69 4.69"/>
<path d="M644.84 1105.05C646.13 1105.29 647.45 1105.55 648.8 1105.84C658.37 1107.89 664.01 1119.16 672.79 1122.55C678.79 1124.86 682.23 1127.2 686.53 1132.22C689.19 1135.33 692.07 1139.16 695.38 1141.68C704.13 1148.37 714.95 1150.44 725.17 1154.25C728.39 1155.45 731.65 1156.67 734.92 1157.9C741.93 1160.53 748.98 1163.19 755.81 1165.83C766.13 1169.81 775.24 1175.09 784.55 1180.92C792.67 1186.01 800.98 1192.43 809.55 1196.58C813.5 1198.49 817.36 1199.22 821.01 1201.97C824.63 1204.7 827.7 1208.17 830.15 1211.97C835.26 1219.89 837.95 1229.07 840.78 1238.05C843.6 1247.04 846.71 1256.15 852.45 1263.62C858.19 1271.09 867.11 1276.73 876.51 1276.21C884.6 1275.76 892.35 1270.88 900.34 1272.27C905.68 1273.2 910.09 1276.77 914.74 1279.55C922.8 1284.37 933.34 1287.68 942.81 1287.2C945.97 1287.04 949.19 1287.11 952.35 1287.16C958.67 1287.26 965.07 1287.83 971.04 1290.07C982.98 1294.55 989.67 1306.26 997.62 1315.38C998.15 1315.99 998.63 1316.65 999.1 1317.31C999.88 1318.4 1000.66 1319.49 1001.67 1320.36C1002.71 1321.26 1004.02 1321.86 1005.11 1322.63C1007.61 1324.4 1010.07 1326.24 1012.57 1328.1C1015.64 1330.38 1018.43 1332.6 1021.32 1335.08C1022.54 1336.13 1023.83 1337.35 1025.21 1338.46" stroke="#1B771B" stroke-width="3.7519" stroke-miterlimit="10" stroke-linejoin="round" stroke-dasharray="4.69 4.69"/>
<path d="M502.27 1035.95C504.65 1040.76 506.32 1045.7 506.22 1050.7C505.95 1064.45 501.31 1073.83 505.29 1088.01C510.48 1106.5 527.09 1111.55 544.09 1115.34C557.2 1118.26 568.98 1115.9 581.49 1112.48C582.82 1112.12 584.15 1111.74 585.5 1111.36C608.85 1104.75 621.7 1100.78 644.84 1105.05" stroke="#1B771B" stroke-width="3.7519" stroke-miterlimit="10" stroke-linejoin="round" stroke-dasharray="4.69 4.69"/>
<path d="M425.25 909.11C430.29 918.8 434.68 927.26 443.82 936.24C455.48 947.68 476.26 957.64 481.67 973.84C486.54 988.42 483.13 1002.34 490.83 1016.58C494.11 1022.64 498.9 1029.17 502.26 1035.96" stroke="#1B771B" stroke-width="3.7519" stroke-miterlimit="10" stroke-linejoin="round" stroke-dasharray="4.69 4.69"/>
<path d="M247.18 784.68C249.12 786.72 250.75 789.08 252 791.89C255.36 799.43 252.69 806.63 261.85 809.69C275.11 814.13 285.75 805.03 297.81 801.49C312.26 797.25 318.82 804.18 328.06 814.51C332.34 819.3 335.87 820.21 340.92 823.9C345.22 827.04 345.51 830.52 348.79 834.03C356.66 842.46 366.21 846.46 376.24 850.44C388.28 855.22 394.74 859.87 400.07 871.09C405.06 881.59 413.97 888.77 419.65 898.74C421.73 902.38 423.51 905.81 425.23 909.1" stroke="#1B771B" stroke-width="3.7519" stroke-miterlimit="10" stroke-linejoin="round" stroke-dasharray="4.69 4.69"/>
<path d="M207.93 761.83C212.54 768.95 227.09 772.97 234.65 776.37C239.43 778.52 243.77 781.09 247.18 784.68" stroke="#1B771B" stroke-width="3.7519" stroke-miterlimit="10" stroke-linejoin="round" stroke-dasharray="4.69 4.69"/>
<path d="M245.92 792.16C250.046 792.16 253.39 788.816 253.39 784.69C253.39 780.564 250.046 777.22 245.92 777.22C241.795 777.22 238.45 780.564 238.45 784.69C238.45 788.816 241.795 792.16 245.92 792.16Z" fill="white" stroke="#1B771B" stroke-width="3.7519" stroke-miterlimit="10" stroke-linecap="round" stroke-linejoin="round"/>
<path d="M1049.01 1349.44C1053.14 1349.44 1056.48 1346.1 1056.48 1341.97C1056.48 1337.84 1053.14 1334.5 1049.01 1334.5C1044.88 1334.5 1041.54 1337.84 1041.54 1341.97C1041.54 1346.1 1044.88 1349.44 1049.01 1349.44Z" fill="white" stroke="#1B771B" stroke-width="3.7519" stroke-miterlimit="10" stroke-linecap="round" stroke-linejoin="round"/>
<path d="M1190.72 1263.88C1194.85 1263.88 1198.19 1260.54 1198.19 1256.41C1198.19 1252.28 1194.85 1248.94 1190.72 1248.94C1186.59 1248.94 1183.25 1252.28 1183.25 1256.41C1183.25 1260.54 1186.59 1263.88 1190.72 1263.88Z" fill="white" stroke="#1B771B" stroke-width="3.7519" stroke-miterlimit="10" stroke-linecap="round" stroke-linejoin="round"/>
<path d="M851.21 1269.73C855.336 1269.73 858.68 1266.39 858.68 1262.26C858.68 1258.13 855.336 1254.79 851.21 1254.79C847.085 1254.79 843.74 1258.13 843.74 1262.26C843.74 1266.39 847.085 1269.73 851.21 1269.73Z" fill="white" stroke="#1B771B" stroke-width="3.7519" stroke-miterlimit="10" stroke-linecap="round" stroke-linejoin="round"/>
<path d="M645.37 1112.93C649.496 1112.93 652.84 1109.59 652.84 1105.46C652.84 1101.33 649.496 1097.99 645.37 1097.99C641.245 1097.99 637.9 1101.33 637.9 1105.46C637.9 1109.59 641.245 1112.93 645.37 1112.93Z" fill="white" stroke="#1B771B" stroke-width="3.7519" stroke-miterlimit="10" stroke-linecap="round" stroke-linejoin="round"/>
<path d="M502.45 1043.19C506.576 1043.19 509.92 1039.85 509.92 1035.72C509.92 1031.59 506.576 1028.25 502.45 1028.25C498.325 1028.25 494.98 1031.59 494.98 1035.72C494.98 1039.85 498.325 1043.19 502.45 1043.19Z" fill="white" stroke="#1B771B" stroke-width="3.7519" stroke-miterlimit="10" stroke-linecap="round" stroke-linejoin="round"/>
<path d="M424.19 916.45C428.315 916.45 431.66 913.106 431.66 908.98C431.66 904.854 428.315 901.51 424.19 901.51C420.064 901.51 416.72 904.854 416.72 908.98C416.72 913.106 420.064 916.45 424.19 916.45Z" fill="white" stroke="#1B771B" stroke-width="3.7519" stroke-miterlimit="10" stroke-linecap="round" stroke-linejoin="round"/>
<path d="M1489.92 989.17C1494.04 989.17 1497.39 985.826 1497.39 981.7C1497.39 977.574 1494.04 974.23 1489.92 974.23C1485.79 974.23 1482.45 977.574 1482.45 981.7C1482.45 985.826 1485.79 989.17 1489.92 989.17Z" fill="white" stroke="#1B771B" stroke-width="3.7519" stroke-miterlimit="10" stroke-linecap="round" stroke-linejoin="round"/>
<path d="M1288.65 1172.08C1292.78 1172.08 1296.12 1168.74 1296.12 1164.61C1296.12 1160.48 1292.78 1157.14 1288.65 1157.14C1284.52 1157.14 1281.18 1160.48 1281.18 1164.61C1281.18 1168.74 1284.52 1172.08 1288.65 1172.08Z" fill="white" stroke="#1B771B" stroke-width="3.7519" stroke-miterlimit="10" stroke-linecap="round" stroke-linejoin="round"/>
<path d="M207.93 772.39C213.762 772.39 218.49 767.662 218.49 761.83C218.49 755.998 213.762 751.27 207.93 751.27C202.098 751.27 197.37 755.998 197.37 761.83C197.37 767.662 202.098 772.39 207.93 772.39Z" fill="#1B771B"/>
<path d="M1162.67 1274.43C1164.74 1274.43 1166.42 1272.75 1166.42 1270.68C1166.42 1268.61 1164.74 1266.93 1162.67 1266.93C1160.6 1266.93 1158.92 1268.61 1158.92 1270.68C1158.92 1272.75 1160.6 1274.43 1162.67 1274.43Z" fill="#404366"/>
<path d="M1274.63 1193.16C1276.7 1193.16 1278.38 1191.48 1278.38 1189.41C1278.38 1187.34 1276.7 1185.66 1274.63 1185.66C1272.56 1185.66 1270.88 1187.34 1270.88 1189.41C1270.88 1191.48 1272.56 1193.16 1274.63 1193.16Z" fill="#404366"/>
<path d="M1258.48 1212.66C1260.55 1212.66 1262.23 1210.98 1262.23 1208.91C1262.23 1206.84 1260.55 1205.16 1258.48 1205.16C1256.41 1205.16 1254.73 1206.84 1254.73 1208.91C1254.73 1210.98 1256.41 1212.66 1258.48 1212.66Z" fill="#404366"/>
<path d="M1250.15 1229.57C1252.22 1229.57 1253.9 1227.89 1253.9 1225.82C1253.9 1223.75 1252.22 1222.07 1250.15 1222.07C1248.08 1222.07 1246.4 1223.75 1246.4 1225.82C1246.4 1227.89 1248.08 1229.57 1250.15 1229.57Z" fill="#404366"/>
<path d="M1347.92 1106.25C1349.99 1106.25 1351.67 1104.57 1351.67 1102.5C1351.67 1100.43 1349.99 1098.75 1347.92 1098.75C1345.85 1098.75 1344.17 1100.43 1344.17 1102.5C1344.17 1104.57 1345.85 1106.25 1347.92 1106.25Z" fill="#404366"/>
<path d="M1357.75 1080.57C1359.82 1080.57 1361.5 1078.89 1361.5 1076.82C1361.5 1074.75 1359.82 1073.07 1357.75 1073.07C1355.68 1073.07 1354 1074.75 1354 1076.82C1354 1078.89 1355.68 1080.57 1357.75 1080.57Z" fill="#404366"/>
<path d="M1364.29 1061.26C1366.36 1061.26 1368.04 1059.58 1368.04 1057.51C1368.04 1055.44 1366.36 1053.76 1364.29 1053.76C1362.22 1053.76 1360.54 1055.44 1360.54 1057.51C1360.54 1059.58 1362.22 1061.26 1364.29 1061.26Z" fill="#404366"/>
<path d="M1365.47 1041.96C1367.54 1041.96 1369.22 1040.28 1369.22 1038.21C1369.22 1036.14 1367.54 1034.46 1365.47 1034.46C1363.4 1034.46 1361.72 1036.14 1361.72 1038.21C1361.72 1040.28 1363.4 1041.96 1365.47 1041.96Z" fill="#404366"/>
<path d="M1375.31 1016.13C1377.38 1016.13 1379.06 1014.45 1379.06 1012.38C1379.06 1010.31 1377.38 1008.63 1375.31 1008.63C1373.24 1008.63 1371.56 1010.31 1371.56 1012.38C1371.56 1014.45 1373.24 1016.13 1375.31 1016.13Z" fill="#404366"/>
<path d="M1422.5 992.42C1424.57 992.42 1426.25 990.741 1426.25 988.67C1426.25 986.599 1424.57 984.92 1422.5 984.92C1420.43 984.92 1418.75 986.599 1418.75 988.67C1418.75 990.741 1420.43 992.42 1422.5 992.42Z" fill="white" stroke="#1B771B" stroke-width="2" stroke-miterlimit="10" stroke-linecap="round" stroke-linejoin="round"/>
<path d="M1457.71 993.92C1459.78 993.92 1461.46 992.241 1461.46 990.17C1461.46 988.099 1459.78 986.42 1457.71 986.42C1455.64 986.42 1453.96 988.099 1453.96 990.17C1453.96 992.241 1455.64 993.92 1457.71 993.92Z" fill="white" stroke="#1B771B" stroke-width="2" stroke-miterlimit="10" stroke-linecap="round" stroke-linejoin="round"/>
<path d="M1512.51 971.66C1514.58 971.66 1516.26 969.981 1516.26 967.91C1516.26 965.839 1514.58 964.16 1512.51 964.16C1510.44 964.16 1508.76 965.839 1508.76 967.91C1508.76 969.981 1510.44 971.66 1512.51 971.66Z" fill="#404366"/>
<path d="M1534.11 956.34C1536.18 956.34 1537.86 954.661 1537.86 952.59C1537.86 950.519 1536.18 948.84 1534.11 948.84C1532.04 948.84 1530.36 950.519 1530.36 952.59C1530.36 954.661 1532.04 956.34 1534.11 956.34Z" fill="#404366"/>
<path d="M1548.94 941.33C1551.01 941.33 1552.69 939.651 1552.69 937.58C1552.69 935.509 1551.01 933.83 1548.94 933.83C1546.87 933.83 1545.19 935.509 1545.19 937.58C1545.19 939.651 1546.87 941.33 1548.94 941.33Z" fill="#404366"/>
<path d="M1556.17 924.71C1558.24 924.71 1559.92 923.031 1559.92 920.96C1559.92 918.889 1558.24 917.21 1556.17 917.21C1554.1 917.21 1552.42 918.889 1552.42 920.96C1552.42 923.031 1554.1 924.71 1556.17 924.71Z" fill="#404366"/>
<path d="M1592.39 908.82C1594.46 908.82 1596.14 907.141 1596.14 905.07C1596.14 902.999 1594.46 901.32 1592.39 901.32C1590.32 901.32 1588.64 902.999 1588.64 905.07C1588.64 907.141 1590.32 908.82 1592.39 908.82Z" fill="white" stroke="#1B771B" stroke-width="2" stroke-miterlimit="10" stroke-linecap="round" stroke-linejoin="round"/>
<path d="M1587.09 878.76C1589.16 878.76 1590.84 877.081 1590.84 875.01C1590.84 872.939 1589.16 871.26 1587.09 871.26C1585.02 871.26 1583.34 872.939 1583.34 875.01C1583.34 877.081 1585.02 878.76 1587.09 878.76Z" fill="white" stroke="#1B771B" stroke-width="2" stroke-miterlimit="10" stroke-linecap="round" stroke-linejoin="round"/>
<path d="M1577.03 853.9C1579.1 853.9 1580.78 852.221 1580.78 850.15C1580.78 848.079 1579.1 846.4 1577.03 846.4C1574.96 846.4 1573.28 848.079 1573.28 850.15C1573.28 852.221 1574.96 853.9 1577.03 853.9Z" fill="white" stroke="#1B771B" stroke-width="2" stroke-miterlimit="10" stroke-linecap="round" stroke-linejoin="round"/>
<path d="M1566.78 822.08C1568.85 822.08 1570.53 820.401 1570.53 818.33C1570.53 816.259 1568.85 814.58 1566.78 814.58C1564.71 814.58 1563.03 816.259 1563.03 818.33C1563.03 820.401 1564.71 822.08 1566.78 822.08Z" fill="white" stroke="#1B771B" stroke-width="2" stroke-miterlimit="10" stroke-linecap="round" stroke-linejoin="round"/>
<path d="M1568.89 798.16C1570.96 798.16 1572.64 796.481 1572.64 794.41C1572.64 792.339 1570.96 790.66 1568.89 790.66C1566.82 790.66 1565.14 792.339 1565.14 794.41C1565.14 796.481 1566.82 798.16 1568.89 798.16Z" fill="white" stroke="#1B771B" stroke-width="2" stroke-miterlimit="10" stroke-linecap="round" stroke-linejoin="round"/>
<path d="M1587.09 779.4C1589.16 779.4 1590.84 777.721 1590.84 775.65C1590.84 773.579 1589.16 771.9 1587.09 771.9C1585.02 771.9 1583.34 773.579 1583.34 775.65C1583.34 777.721 1585.02 779.4 1587.09 779.4Z" fill="white" stroke="#1B771B" stroke-width="2" stroke-miterlimit="10" stroke-linecap="round" stroke-linejoin="round"/>
<path d="M1613.35 766.27C1615.42 766.27 1617.1 764.591 1617.1 762.52C1617.1 760.449 1615.42 758.77 1613.35 758.77C1611.28 758.77 1609.6 760.449 1609.6 762.52C1609.6 764.591 1611.28 766.27 1613.35 766.27Z" fill="white" stroke="#1B771B" stroke-width="2" stroke-miterlimit="10" stroke-linecap="round" stroke-linejoin="round"/>
<path d="M1651.54 756.89C1653.61 756.89 1655.29 755.211 1655.29 753.14C1655.29 751.069 1653.61 749.39 1651.54 749.39C1649.47 749.39 1647.79 751.069 1647.79 753.14C1647.79 755.211 1649.47 756.89 1651.54 756.89Z" fill="white" stroke="#1B771B" stroke-width="2" stroke-miterlimit="10" stroke-linecap="round" stroke-linejoin="round"/>
<path d="M1680.38 747.51C1682.45 747.51 1684.13 745.831 1684.13 743.76C1684.13 741.689 1682.45 740.01 1680.38 740.01C1678.31 740.01 1676.63 741.689 1676.63 743.76C1676.63 745.831 1678.31 747.51 1680.38 747.51Z" fill="white" stroke="#1B771B" stroke-width="2" stroke-miterlimit="10" stroke-linecap="round" stroke-linejoin="round"/>
</svg>
