<svg width="2075" height="1458" viewBox="0 0 2075 1458" fill="none" xmlns="http://www.w3.org/2000/svg">
<path d="M743.05 1365.45C742.39 1366.5 741.74 1367.56 741.17 1368.67C739.8 1371.32 732.24 1387.8 734.37 1394.97" stroke="#F90000" stroke-width="3.752" stroke-miterlimit="10" stroke-linejoin="round"/>
<path d="M752.37 1315.77C751.22 1318.93 749.59 1322.04 748.78 1325.22C747.66 1329.56 747.38 1333.54 747.32 1337.74C747.3 1339.27 747.3 1340.83 747.31 1342.44C747.33 1346.71 747.9 1351.62 747.4 1355.86C746.98 1359.47 744.97 1362.4 743.05 1365.45" stroke="#C8CEDB" stroke-width="3.7519" stroke-miterlimit="10" stroke-linecap="round" stroke-linejoin="round"/>
<path d="M753.86 1298.25C754.22 1302.42 753.97 1307.63 753.56 1311.13C753.38 1312.7 752.93 1314.24 752.38 1315.77" stroke="#F90000" stroke-width="3.752" stroke-miterlimit="10" stroke-linejoin="round"/>
<path d="M755.47 1248.84C751.71 1259.33 738.72 1272.11 743.54 1283.18C743.89 1283.99 744.33 1284.68 744.83 1285.29C747.59 1288.68 752.11 1289.62 753.34 1294.78C753.58 1295.78 753.75 1296.97 753.86 1298.25" stroke="#C8CEDB" stroke-width="3.7519" stroke-miterlimit="10" stroke-linecap="round" stroke-linejoin="round"/>
<path d="M764.99 1220.94C764.51 1225.57 761.76 1230.28 759.72 1234.15C757.38 1238.58 757.26 1242.54 755.95 1247.33C755.81 1247.83 755.65 1248.33 755.47 1248.84" stroke="#C8CEDB" stroke-width="3.7519" stroke-miterlimit="10" stroke-linecap="round" stroke-linejoin="round"/>
<path d="M851.21 1128.7C851.1 1129.77 851.23 1130.83 851.01 1131.91C850.57 1134.12 849.37 1136.4 847.95 1138.28C846.61 1140.06 845.45 1141.72 844.3 1143.61C843.14 1145.52 841.61 1147.08 840.42 1148.94C840.12 1149.4 839.91 1150.06 839.6 1150.5C839 1151.35 838.33 1151.67 837.7 1152.47C836.94 1153.44 836.67 1154.41 835.74 1155.32C834.67 1156.37 833.57 1157.48 832.37 1158.37C831.17 1159.26 829.75 1159.73 828.49 1160.53C827.54 1161.14 826.56 1161.76 825.57 1162.35C824.11 1163.22 822.61 1164.05 821.04 1164.72C818.98 1165.61 816.63 1166.35 814.61 1167.07C812.51 1167.83 810.19 1168.68 808.21 1169.9C805.99 1171.27 803.61 1172.5 802.01 1174.47C801.39 1175.22 800.53 1175.81 799.84 1176.46C798.93 1177.32 798.1 1178.23 797.19 1179.15C796.48 1179.87 795.71 1180.21 794.89 1180.78C793.69 1181.61 793.23 1182.5 792.26 1183.57C790.74 1185.24 788.47 1185.96 786.99 1187.76C785.97 1189 784.83 1190.48 783.42 1191.4C781.01 1192.96 778.21 1194.39 775.98 1196.26C773.83 1198.06 773.09 1200.91 771.69 1203.23C770.03 1205.98 767.22 1206.59 764.94 1208.6C762.88 1210.42 763.08 1212.84 764.1 1215.06C764.97 1216.95 765.19 1218.93 764.98 1220.92" stroke="#C8CEDB" stroke-width="3.7519" stroke-miterlimit="10" stroke-linecap="round" stroke-linejoin="round"/>
<path d="M860.22 1103.42C859.07 1104.61 858.09 1105.95 857.38 1107.5C856.57 1109.26 856.21 1111.5 855.82 1113.43C855.59 1114.58 855.97 1115.6 855.54 1116.8C854.68 1119.19 853.39 1121.49 852.5 1123.88C852.01 1125.18 851.59 1126.67 851.31 1128.03C851.26 1128.25 851.23 1128.48 851.21 1128.7" stroke="#C8CEDB" stroke-width="3.7519" stroke-miterlimit="10" stroke-linecap="round" stroke-linejoin="round"/>
<path d="M899.39 1070.02C898.54 1073.52 896.97 1076.77 894.15 1079.11C892.72 1080.3 890.94 1080.89 889.23 1081.59C888.13 1082.04 887.05 1082.53 886.1 1083.26C881.98 1086.42 878.82 1090.21 874.76 1093.43C873.8 1094.19 872.8 1094.91 871.72 1095.59C867.92 1097.98 863.41 1100.12 860.21 1103.43" stroke="#C8CEDB" stroke-width="3.7519" stroke-miterlimit="10" stroke-linecap="round" stroke-linejoin="round"/>
<path d="M899.39 1070.02C900.11 1067.08 900.32 1063.96 900.35 1061.07C900.36 1059.72 900.33 1058.34 900.3 1056.94C900.18 1051.98 900.03 1046.8 901.8 1042.2C901.97 1041.76 902.19 1041.3 902.46 1040.85C905.64 1035.48 915.22 1029.56 920.8 1027.6C926.56 1025.58 932.3 1028.07 937.61 1031.38C941.09 1033.55 944.39 1036.07 947.39 1037.89C948.57 1038.61 949.92 1039.75 951.3 1040.93C953.42 1042.73 955.62 1044.6 957.43 1045.12C959.62 1045.75 962.21 1045.33 964.86 1044.41C969.83 1042.68 975.02 1039.15 978.15 1037.36C984.3 1033.85 993.25 1035.67 998.56 1030.64C999.45 1029.8 999.84 1028.7 1000.63 1027.79C1002.27 1025.88 1005.79 1022.36 1009.98 1019.3C1011.85 1017.94 1013.85 1016.67 1015.88 1015.67C1021.74 1012.79 1026.73 1015.73 1030.34 1014.85C1031.07 1014.67 1034.24 1014.18 1035.25 1013.94C1036.36 1013.67 1041.45 1012.15 1045.42 1010.78" stroke="#F90000" stroke-width="3.7519" stroke-miterlimit="10" stroke-linejoin="round" stroke-dasharray="4.69 4.69"/>
<path d="M1323.36 754.36C1322.84 761.48 1319.46 766.96 1323.44 774.96C1327.33 782.77 1334.87 790.94 1330.54 799.93C1328.02 805.17 1321.59 808.8 1316.79 811.89C1311.49 815.3 1307.28 819.05 1302.41 822.97C1291.93 831.41 1280.01 838.94 1268.48 845.6C1254.79 853.5 1240.86 862.43 1238.79 879.01C1237.06 892.88 1233.39 899.05 1224.55 909.53C1221.75 912.85 1219.24 918.15 1216.21 920.94C1215.37 921.71 1214.5 922.39 1213.59 922.99C1204.62 928.92 1192.59 927.06 1183.24 932.27C1180.36 933.88 1177.81 936.05 1175.1 937.97C1174.25 938.58 1173.38 939.16 1172.48 939.69C1169.66 941.36 1166.91 943.24 1164.03 944.81C1158.6 947.77 1152.87 950.81 1148.24 955.04C1147.98 955.28 1147.72 955.52 1147.47 955.76C1143.29 959.81 1138.95 963.51 1134.21 966.99C1130.06 970.04 1126.62 973.66 1122.56 976.86C1118.81 979.81 1115.96 984.04 1111.9 986.82C1111.54 987.06 1111.18 987.3 1110.8 987.52C1107.08 989.69 1103.27 992.06 1099.17 993.55C1098.26 993.88 1097.07 994.7 1096.26 994.91C1095.13 995.21 1094.04 995.02 1092.88 995.31C1090.87 995.81 1089.06 996.43 1087.15 996.99C1086.24 997.26 1082.41 997.8 1081.25 997.8C1080.76 997.8 1080.24 997.78 1079.72 997.75C1078.18 997.68 1076.57 997.59 1075.19 998C1073.57 998.48 1072.86 999.5 1070.97 999.6C1067.63 999.78 1061.7 998.3 1058.84 1000.22C1056.85 1001.56 1055.73 1004.39 1053.88 1005.88" stroke="#F90000" stroke-width="3.7519" stroke-miterlimit="10" stroke-linejoin="round" stroke-dasharray="4.69 4.69"/>
<path d="M1631.28 616.52C1630.67 617.82 1630.17 618.71 1628.73 619.66C1627.07 620.77 1625.01 621.27 1623.27 622.12C1616.66 625.37 1609.76 628.93 1602.74 631.22C1595.71 633.51 1588.18 632.6 1581.07 634.26C1572.21 636.32 1564.16 636.18 1554.93 633.03C1543.95 629.28 1535.27 624.47 1523.33 623.6C1518.06 623.22 1512.78 623.62 1507.52 623.95C1502.83 624.25 1498.09 624.08 1493.5 624.84C1488.38 625.69 1483.03 625.54 1477.87 626.25C1472.7 626.96 1467.56 628.01 1462.61 629.71C1460.16 630.55 1457.76 631.56 1455.24 632.16C1448 633.89 1440.43 632.2 1433.2 630.42C1429.36 629.47 1425.32 628.39 1422.54 625.58C1420.59 623.61 1419.46 620.97 1417.73 618.8C1415.18 615.61 1411.48 613.6 1407.89 611.68C1404.9 610.08 1401.75 608.44 1398.36 608.46C1394.98 608.48 1391.87 610.16 1388.91 611.79C1382.21 614.77 1375.45 618.1 1369.44 619.74C1356.52 623.26 1342.68 620.41 1329.92 622.83C1313.28 625.99 1297.87 621.25 1283.18 631.07C1281.21 632.39 1279.61 634.21 1277.68 635.58C1275.18 637.36 1273.14 639.51 1271.3 641.95C1269.51 644.33 1268.42 646.4 1267.78 649.2C1267.08 652.27 1265.81 655.2 1265.73 658.42C1265.72 658.87 1265.82 659.48 1265.76 659.94C1265.67 660.62 1265.35 660.96 1265.22 661.55C1264.92 662.98 1265.09 664.48 1265.07 665.95C1265.05 667.41 1264.54 668.37 1264.37 669.81C1264.11 671.97 1264.53 673.83 1265.24 675.83C1265.73 677.21 1265.96 678.89 1266.53 680.21C1266.93 681.14 1267.77 681.66 1268.28 682.53C1274.86 693.59 1282.03 707.29 1290.42 717.09C1295.47 722.99 1302.44 724.52 1308.77 728.67C1315.76 733.26 1321.94 741.03 1323.19 749.46C1323.45 751.2 1323.47 752.82 1323.35 754.36" stroke="#F90000" stroke-width="3.7519" stroke-miterlimit="10" stroke-linejoin="round" stroke-dasharray="4.69 4.69"/>
<path d="M1560.78 427.3C1563.9 429.22 1567.01 431.06 1568.75 434.58C1569.3 435.69 1569.72 436.87 1570.01 438.07C1570.4 439.69 1570.37 441.38 1570.78 442.99C1572.04 447.83 1577.37 450.52 1579.73 454.86C1580.76 456.75 1587.18 465.11 1588.67 468.08C1589.51 469.75 1590.52 471.57 1591.35 473.37C1592.37 475.57 1594.96 485.66 1594.68 491.75C1594.47 496.33 1594.68 500.92 1594.68 505.51C1594.68 510.05 1592.28 534.39 1592.19 534.85C1591.71 537.29 1591.22 540.04 1591.08 542.52C1590.77 548.06 1592.18 552.26 1593.09 555.02C1595.52 562.42 1603.6 564.5 1610.33 565.81C1616.92 567.09 1623.41 570.07 1628.42 574.93C1629.5 575.97 1630.39 577.22 1631.13 578.53C1631.55 579.28 1632.13 580.02 1632.49 580.8C1632.78 581.42 1632.86 582.21 1633.12 582.81C1634.48 585.97 1634.04 589.7 1634.04 593.32C1634.04 597.26 1634.04 601.2 1634.04 605.15C1634.04 606.99 1634.56 609.7 1634.08 611.46C1633.69 612.9 1632.22 614.44 1631.55 615.91C1631.45 616.13 1631.35 616.34 1631.26 616.55" stroke="#F90000" stroke-width="3.7519" stroke-miterlimit="10" stroke-linejoin="round" stroke-dasharray="4.69 4.69"/>
<path d="M1544.25 392.73C1544.24 405.28 1546.74 415.21 1555.82 423.74C1557.32 425.15 1559.05 426.23 1560.78 427.3" stroke="#F90000" stroke-width="3.7519" stroke-miterlimit="10" stroke-linejoin="round" stroke-dasharray="4.69 4.69"/>
<path d="M1543.9 394.9C1549.73 394.9 1554.46 390.172 1554.46 384.34C1554.46 378.508 1549.73 373.78 1543.9 373.78C1538.07 373.78 1533.34 378.508 1533.34 384.34C1533.34 390.172 1538.07 394.9 1543.9 394.9Z" fill="#F90000"/>
<path d="M1049.01 1015.59C1053.14 1015.59 1056.48 1012.25 1056.48 1008.12C1056.48 1003.99 1053.14 1000.65 1049.01 1000.65C1044.88 1000.65 1041.54 1003.99 1041.54 1008.12C1041.54 1012.25 1044.88 1015.59 1049.01 1015.59Z" fill="white" stroke="#F90000" stroke-width="3.7519" stroke-miterlimit="10" stroke-linecap="round" stroke-linejoin="round"/>
<path d="M835.56 1163.29C839.685 1163.29 843.03 1159.95 843.03 1155.82C843.03 1151.69 839.685 1148.35 835.56 1148.35C831.434 1148.35 828.09 1151.69 828.09 1155.82C828.09 1159.95 831.434 1163.29 835.56 1163.29Z" fill="white" stroke="#F90000" stroke-width="3.7519" stroke-miterlimit="10" stroke-linecap="round" stroke-linejoin="round"/>
<path d="M1323.53 761.83C1327.66 761.83 1331 758.486 1331 754.36C1331 750.234 1327.66 746.89 1323.53 746.89C1319.4 746.89 1316.06 750.234 1316.06 754.36C1316.06 758.486 1319.4 761.83 1323.53 761.83Z" fill="white" stroke="#F90000" stroke-width="3.7519" stroke-miterlimit="10" stroke-linecap="round" stroke-linejoin="round"/>
<path d="M1402.68 617.49C1406.81 617.49 1410.15 614.146 1410.15 610.02C1410.15 605.894 1406.81 602.55 1402.68 602.55C1398.55 602.55 1395.21 605.894 1395.21 610.02C1395.21 614.146 1398.55 617.49 1402.68 617.49Z" fill="white" stroke="#F90000" stroke-width="3.7519" stroke-miterlimit="10" stroke-linecap="round" stroke-linejoin="round"/>
<path d="M1630.83 623.99C1634.96 623.99 1638.3 620.646 1638.3 616.52C1638.3 612.394 1634.96 609.05 1630.83 609.05C1626.7 609.05 1623.36 612.394 1623.36 616.52C1623.36 620.646 1626.7 623.99 1630.83 623.99Z" fill="white" stroke="#F90000" stroke-width="3.7519" stroke-miterlimit="10" stroke-linecap="round" stroke-linejoin="round"/>
<path d="M1561.48 433.97C1565.61 433.97 1568.95 430.626 1568.95 426.5C1568.95 422.374 1565.61 419.03 1561.48 419.03C1557.35 419.03 1554.01 422.374 1554.01 426.5C1554.01 430.626 1557.35 433.97 1561.48 433.97Z" fill="white" stroke="#F90000" stroke-width="3.7519" stroke-miterlimit="10" stroke-linecap="round" stroke-linejoin="round"/>
<path d="M742.38 1369.68C744.451 1369.68 746.13 1368 746.13 1365.93C746.13 1363.86 744.451 1362.18 742.38 1362.18C740.309 1362.18 738.63 1363.86 738.63 1365.93C738.63 1368 740.309 1369.68 742.38 1369.68Z" fill="white" stroke="#F90000" stroke-width="2" stroke-miterlimit="10" stroke-linecap="round" stroke-linejoin="round"/>
<path d="M747.39 1353.98C749.461 1353.98 751.14 1352.3 751.14 1350.23C751.14 1348.16 749.461 1346.48 747.39 1346.48C745.319 1346.48 743.64 1348.16 743.64 1350.23C743.64 1352.3 745.319 1353.98 747.39 1353.98Z" fill="#404366"/>
<path d="M747.89 1336.71C749.961 1336.71 751.64 1335.03 751.64 1332.96C751.64 1330.89 749.961 1329.21 747.89 1329.21C745.819 1329.21 744.14 1330.89 744.14 1332.96C744.14 1335.03 745.819 1336.71 747.89 1336.71Z" fill="#404366"/>
<path d="M751.81 1319.24C753.881 1319.24 755.56 1317.56 755.56 1315.49C755.56 1313.42 753.881 1311.74 751.81 1311.74C749.739 1311.74 748.06 1313.42 748.06 1315.49C748.06 1317.56 749.739 1319.24 751.81 1319.24Z" fill="#404366"/>
<path d="M753.94 1301.8C756.011 1301.8 757.69 1300.12 757.69 1298.05C757.69 1295.98 756.011 1294.3 753.94 1294.3C751.869 1294.3 750.19 1295.98 750.19 1298.05C750.19 1300.12 751.869 1301.8 753.94 1301.8Z" fill="white" stroke="#F90000" stroke-width="2" stroke-miterlimit="10" stroke-linecap="round" stroke-linejoin="round"/>
<path d="M742.38 1283.47C744.451 1283.47 746.13 1281.79 746.13 1279.72C746.13 1277.65 744.451 1275.97 742.38 1275.97C740.309 1275.97 738.63 1277.65 738.63 1279.72C738.63 1281.79 740.309 1283.47 742.38 1283.47Z" fill="#404366"/>
<path d="M763.36 1231.01C765.431 1231.01 767.11 1229.33 767.11 1227.26C767.11 1225.19 765.431 1223.51 763.36 1223.51C761.289 1223.51 759.61 1225.19 759.61 1227.26C759.61 1229.33 761.289 1231.01 763.36 1231.01Z" fill="#404366"/>
<path d="M757.1 1248.84C759.171 1248.84 760.85 1247.16 760.85 1245.09C760.85 1243.02 759.171 1241.34 757.1 1241.34C755.029 1241.34 753.35 1243.02 753.35 1245.09C753.35 1247.16 755.029 1248.84 757.1 1248.84Z" fill="#404366"/>
<path d="M748.44 1266.01C750.511 1266.01 752.19 1264.33 752.19 1262.26C752.19 1260.19 750.511 1258.51 748.44 1258.51C746.369 1258.51 744.69 1260.19 744.69 1262.26C744.69 1264.33 746.369 1266.01 748.44 1266.01Z" fill="#404366"/>
<path d="M768.37 1209.8C770.441 1209.8 772.12 1208.12 772.12 1206.05C772.12 1203.98 770.441 1202.3 768.37 1202.3C766.299 1202.3 764.62 1203.98 764.62 1206.05C764.62 1208.12 766.299 1209.8 768.37 1209.8Z" fill="#404366"/>
<path d="M808.23 1173.39C810.302 1173.39 811.98 1171.71 811.98 1169.64C811.98 1167.57 810.302 1165.89 808.23 1165.89C806.159 1165.89 804.48 1167.57 804.48 1169.64C804.48 1171.71 806.159 1173.39 808.23 1173.39Z" fill="#404366"/>
<path d="M851.03 1133.42C853.101 1133.42 854.78 1131.74 854.78 1129.67C854.78 1127.6 853.101 1125.92 851.03 1125.92C848.959 1125.92 847.28 1127.6 847.28 1129.67C847.28 1131.74 848.959 1133.42 851.03 1133.42Z" fill="#404366"/>
<path d="M859.84 1107.35C861.911 1107.35 863.59 1105.67 863.59 1103.6C863.59 1101.53 861.911 1099.85 859.84 1099.85C857.769 1099.85 856.09 1101.53 856.09 1103.6C856.09 1105.67 857.769 1107.35 859.84 1107.35Z" fill="#404366"/>
<path d="M879.36 1092.8C881.431 1092.8 883.11 1091.12 883.11 1089.05C883.11 1086.98 881.431 1085.3 879.36 1085.3C877.289 1085.3 875.61 1086.98 875.61 1089.05C875.61 1091.12 877.289 1092.8 879.36 1092.8Z" fill="#404366"/>
<path d="M899.52 1074.37C901.591 1074.37 903.27 1072.69 903.27 1070.62C903.27 1068.55 901.591 1066.87 899.52 1066.87C897.448 1066.87 895.77 1068.55 895.77 1070.62C895.77 1072.69 897.448 1074.37 899.52 1074.37Z" fill="#404366"/>
<path d="M900.16 1058.11C902.231 1058.11 903.91 1056.43 903.91 1054.36C903.91 1052.29 902.231 1050.61 900.16 1050.61C898.089 1050.61 896.41 1052.29 896.41 1054.36C896.41 1056.43 898.089 1058.11 900.16 1058.11Z" fill="#404366"/>
<path d="M903.9 1043.17C905.971 1043.17 907.65 1041.49 907.65 1039.42C907.65 1037.35 905.971 1035.67 903.9 1035.67C901.829 1035.67 900.15 1037.35 900.15 1039.42C900.15 1041.49 901.829 1043.17 903.9 1043.17Z" fill="#404366"/>
</svg>
