<svg width="383" height="242" viewBox="0 0 383 242" fill="none" xmlns="http://www.w3.org/2000/svg">
<path d="M377.712 4.70056C372.161 7.67605 366.611 10.6265 361.01 13.1019C356.334 15.1523 351.758 17.0776 347.232 18.9779C338.081 22.8786 329.254 26.7792 320.853 31.9801C316.502 34.6555 312.452 36.5308 308.326 38.3811" stroke="#C8CEDB" stroke-width="9.3813" stroke-miterlimit="10" stroke-linecap="round" stroke-linejoin="round"/>
<path d="M306.5 41C303.224 44.7256 264.619 83.0891 261.568 87.0148C258.768 90.5904 256.418 94.416 254.242 98.3416C249.791 106.443 246.216 114.944 241.59 122.646C238.365 127.997 234.514 133.147 230.113 137.948C214.761 154.701 193.007 166.903 169.728 166.528C168.603 166.503 167.503 166.503 166.403 166.528C145.949 167.028 131.697 174.279 87.9398 199.333C74.8876 206.81 62.8607 213.786 47.1081 216.286C45.3078 216.586 40.3819 217.286 34.0559 217.761" stroke="#1B771B" stroke-width="9.3813" stroke-miterlimit="10" stroke-linejoin="round" stroke-dasharray="11.73 11.73"/>
<path d="M23.3785 236.939C33.6941 236.939 42.0566 228.577 42.0566 218.261C42.0566 207.945 33.6941 199.583 23.3785 199.583C13.0629 199.583 4.70044 207.945 4.70044 218.261C4.70044 228.577 13.0629 236.939 23.3785 236.939Z" fill="white" stroke="#1B771B" stroke-width="9.3813" stroke-miterlimit="10" stroke-linecap="round" stroke-linejoin="round"/>
<path d="M307.575 49.4076C312.754 49.4076 316.952 45.2096 316.952 40.0311C316.952 34.8526 312.754 30.6545 307.575 30.6545C302.397 30.6545 298.199 34.8526 298.199 40.0311C298.199 45.2096 302.397 49.4076 307.575 49.4076Z" fill="#404366"/>
</svg>
