<svg width="365" height="649" viewBox="0 0 365 649" fill="none" xmlns="http://www.w3.org/2000/svg">
<path d="M173.924 423.925C170.873 419.848 155.683 378.636 151.876 375.046C140.267 364.138 126.011 354.958 114.428 344.564L113.753 343.943C111.189 341.621 108.732 339.245 106.491 336.788C105.006 335.168 103.629 333.521 102.36 331.847C84.8914 309.06 85.4584 282.547 73.6867 256.519C73.0388 255.061 72.3368 253.604 71.5808 252.146C63.4541 236.216 56.7313 224.984 44.7707 211.89C35.267 201.495 27.0322 190.156 25.6553 175.603" stroke="#7937C4" stroke-width="10.1298" stroke-miterlimit="10" stroke-linejoin="round" stroke-dasharray="12.66 12.66"/>
<path d="M26.1683 197.337C37.307 197.337 46.3367 188.307 46.3367 177.168C46.3367 166.03 37.307 157 26.1683 157C15.0297 157 6 166.03 6 177.168C6 188.307 15.0297 197.337 26.1683 197.337Z" fill="white" stroke="#7937C4" stroke-width="10.1298" stroke-miterlimit="10" stroke-linecap="round" stroke-linejoin="round"/>
<path d="M163.621 467.545C163.864 460.498 165.43 453.964 167.212 447.484C169.183 440.222 171.424 433.04 172.315 425.291" stroke="#C8CEDB" stroke-width="10.1298" stroke-miterlimit="10" stroke-linecap="round" stroke-linejoin="round"/>
<path d="M171.72 435.442C177.312 435.442 181.845 430.909 181.845 425.318C181.845 419.726 177.312 415.193 171.72 415.193C166.129 415.193 161.596 419.726 161.596 425.318C161.596 430.909 166.129 435.442 171.72 435.442Z" fill="#404366"/>
<path d="M177.228 518.655C176.958 518.034 176.715 517.386 176.445 516.765C170.451 502.293 164.592 488.578 163.674 472.54C163.566 470.839 163.566 469.192 163.62 467.572" stroke="#C8CEDB" stroke-width="10.1298" stroke-miterlimit="10" stroke-linecap="round" stroke-linejoin="round"/>
<path d="M164.484 480.477C170.076 480.477 174.609 475.944 174.609 470.353C174.609 464.761 170.076 460.228 164.484 460.228C158.892 460.228 154.359 464.761 154.359 470.353C154.359 475.944 158.892 480.477 164.484 480.477Z" fill="#404366"/>
<path d="M188.919 578.7C187.893 558.937 185.436 538.715 177.876 520.274C177.66 519.734 177.444 519.194 177.201 518.654" stroke="#C8CEDB" stroke-width="10.1298" stroke-miterlimit="10" stroke-linecap="round" stroke-linejoin="round"/>
<path d="M176.283 529.67C181.875 529.67 186.408 525.137 186.408 519.546C186.408 513.954 181.875 509.421 176.283 509.421C170.691 509.421 166.158 513.954 166.158 519.546C166.158 525.137 170.691 529.67 176.283 529.67Z" fill="#404366"/>
<path d="M197.829 643.876C198.342 637.153 198.18 630.43 196.398 623.734C192.726 609.938 190.053 597.653 189.162 583.101C189.108 582.345 189.081 581.562 189.027 580.806C189 580.104 188.946 579.402 188.919 578.7" stroke="#C8CEDB" stroke-width="10.1298" stroke-miterlimit="10" stroke-linecap="round" stroke-linejoin="round"/>
<path d="M189.648 590.66C195.24 590.66 199.773 586.128 199.773 580.536C199.773 574.944 195.24 570.411 189.648 570.411C184.056 570.411 179.523 574.944 179.523 580.536C179.523 586.128 184.056 590.66 189.648 590.66Z" fill="#404366"/>
<text fill="#404366" xml:space="preserve" style="white-space: pre" font-family="Titillium Web" font-size="20" font-weight="600" letter-spacing="0px"><tspan x="45" y="589.95">Diaspora Hub&#13;</tspan></text>
<text fill="#404366" xml:space="preserve" style="white-space: pre" font-family="Titillium Web" font-size="20" font-weight="600" letter-spacing="0px"><tspan x="33" y="529.95">Info Diaspora&#13;</tspan></text>
<text fill="#404366" xml:space="preserve" style="white-space: pre" font-family="Titillium Web" font-size="20" font-weight="600" letter-spacing="0px"><tspan x="194" y="474.95">Inapoi acasa&#13;</tspan></text>
<text fill="#404366" xml:space="preserve" style="white-space: pre" font-family="Titillium Web" font-size="20" font-weight="600" letter-spacing="0px"><tspan x="58" y="430.95">Brain Gain</tspan></text>
<text fill="#1E1E1E" xml:space="preserve" style="white-space: pre" font-family="Titillium Web" font-size="40" font-weight="600" letter-spacing="0px"><tspan x="88" y="155.9">Diaspora mai&#x2028;</tspan><tspan x="88" y="197.9">aproape&#13;de cas&#x103;</tspan></text>
<path d="M104.814 107.062C108.493 107.062 111.476 104.079 111.476 100.399C111.476 96.7197 108.493 93.7366 104.814 93.7366C101.134 93.7366 98.1514 96.7197 98.1514 100.399C98.1514 104.079 101.134 107.062 104.814 107.062Z" stroke="#7937C4" stroke-width="2.7775" stroke-linecap="round" stroke-linejoin="round"/>
<path d="M104.837 104.931C103.931 104.931 103.046 104.662 102.293 104.159C101.54 103.656 100.953 102.94 100.606 102.104C100.26 101.267 100.169 100.346 100.346 99.4584C100.522 98.57 100.959 97.7539 101.599 97.1136C102.239 96.4733 103.055 96.0374 103.944 95.8604C104.832 95.6839 105.752 95.7743 106.589 96.121C107.426 96.4676 108.141 97.0546 108.644 97.8077C109.147 98.5607 109.416 99.4459 109.416 100.352C109.416 101.566 108.934 102.731 108.075 103.589C107.216 104.448 106.051 104.931 104.837 104.931Z" stroke="#7937C4" stroke-width="2.7775" stroke-linecap="round" stroke-linejoin="round"/>
<path d="M106.483 23.1038H169.125C171.773 23.1038 174.311 24.1555 176.183 26.0275C178.056 27.8996 179.107 30.4386 179.107 33.0861V97.0784C179.107 99.7258 178.056 102.265 176.183 104.137C174.311 106.009 171.773 107.061 169.125 107.061H106.483V23.1038Z" fill="white" stroke="#7937C4" stroke-width="2.7775" stroke-linecap="round" stroke-linejoin="round"/>
<path d="M106.483 23.1038H116.42C117.316 23.1005 118.205 23.2769 119.032 23.6227C119.859 23.9684 120.608 24.4764 121.236 25.1167C121.863 25.7571 122.356 26.5166 122.685 27.3507C123.014 28.1847 123.173 29.0761 123.151 29.9724V100.33C123.151 102.109 122.444 103.815 121.186 105.073C119.928 106.331 118.222 107.038 116.443 107.038H106.483V23.1038Z" stroke="#7937C4" stroke-width="2.7775" stroke-linecap="round" stroke-linejoin="round"/>
<path d="M89.6807 107.06H187.581" stroke="#7937C4" stroke-width="2.7775" stroke-linecap="round" stroke-linejoin="round"/>
<path d="M151.123 77.4089L130.049 83.0633L132.487 92.1517L153.561 86.4973L151.123 77.4089Z" stroke="#7937C4" stroke-width="2.7775" stroke-linecap="round" stroke-linejoin="round"/>
<path d="M117.247 33.979V93.1863" stroke="#7937C4" stroke-width="2.7775" stroke-linecap="round" stroke-linejoin="round"/>
<path d="M112.023 33.979V93.1863" stroke="#7937C4" stroke-width="2.7775" stroke-linecap="round" stroke-linejoin="round"/>
<path d="M155.023 65.1163C163.369 65.1163 170.134 58.3509 170.134 50.0051C170.134 41.6596 163.369 34.8943 155.023 34.8943C146.677 34.8943 139.912 41.6596 139.912 50.0051C139.912 58.3509 146.677 65.1163 155.023 65.1163Z" stroke="#7937C4" stroke-width="2.7775" stroke-linecap="round" stroke-linejoin="round"/>
<path d="M146.485 46.6627C146.737 45.8159 146.851 44.9227 147.103 44.0529C147.324 43.1798 147.863 42.4203 148.614 41.9234C149.873 41.1909 151.568 41.7634 152.895 41.1679C153.506 40.77 154.14 40.4108 154.796 40.0919C155.138 40.0034 155.495 39.9841 155.844 40.0352C156.195 40.0863 156.531 40.2068 156.833 40.3896C157.449 40.7433 158.012 41.1828 158.505 41.6947C160.354 43.2578 161.906 45.1429 163.084 47.2582C163.301 47.7862 163.594 48.2795 163.954 48.7235C164.134 48.9453 164.376 49.1077 164.65 49.1893C164.924 49.2709 165.216 49.2681 165.488 49.1812L165.854 49.0213C166.335 48.8839 166.816 49.3873 166.816 49.8911C166.788 50.392 166.575 50.8647 166.22 51.219C165.885 51.5782 165.606 51.9878 165.396 52.4326C165.292 52.6617 165.272 52.9203 165.339 53.1627C165.406 53.4055 165.556 53.6168 165.763 53.7606C164.795 53.4976 163.776 53.4976 162.809 53.7606C161.986 54.167 161.217 54.6744 160.519 55.2715C159.424 55.9648 158.215 56.4605 156.948 56.7368C154.83 57.4038 152.62 57.7359 150.4 57.7214C150.063 57.7279 149.733 57.6232 149.461 57.4236C148.934 56.9429 149.232 56.0727 149.576 55.4319C149.023 55.6194 148.436 55.68 147.857 55.6085C147.278 55.537 146.723 55.3358 146.233 55.0198C145.245 54.4025 144.364 53.6293 143.623 52.73C143.234 52.3179 142.455 51.7685 142.661 51.1273C142.867 50.4866 143.692 50.2575 144.104 49.9367C145.198 49.1 146.026 47.9624 146.485 46.6627Z" stroke="#7937C4" stroke-width="2.7775" stroke-linecap="round" stroke-linejoin="round"/>
<path d="M121.46 23.1032V3.36743H159.787V23.1032" stroke="#7937C4" stroke-width="2.7775" stroke-linecap="round" stroke-linejoin="round"/>
<path d="M125.007 9.93823H154.358" stroke="#7937C4" stroke-width="2.7775" stroke-linecap="round" stroke-linejoin="round"/>
</svg>
