<svg viewBox="0 0 1200 1000" fill="none" xmlns="http://www.w3.org/2000/svg">
<g id="segment-environment-05-reciclarea-si-managementul-deseurilor">
<g id="Group 1173">
<g id="Group 1122">
<path id="Vector" d="M545.143 389.547C545.962 390.689 546.781 391.806 547.65 392.924C561.901 411.47 584.048 425.473 607.386 424.182C627.471 423.064 646.713 410.949 666.55 414.4C679.808 416.709 690.757 425.572 702.302 432.474C722.313 444.441 748.482 452.659 771.994 451.467C779.839 451.07 787.834 451.244 795.679 451.368C811.37 451.616 827.26 453.032 842.082 458.593C871.727 469.716 888.336 498.789 908.074 521.432C909.39 522.946 910.582 524.585 911.749 526.224C913.685 528.93 915.622 531.636 918.13 533.796C920.712 536.031 923.964 537.52 926.67 539.432C932.877 543.827 938.985 548.395 945.192 553.013C952.814 558.674 959.741 564.185 966.916 570.343C973.793 576.252 981.664 584.47 990.85 586.481C999.192 588.318 1008.92 586.927 1017.44 586.927C1023.35 586.927 1029.28 587.076 1035.22 587.101" stroke="#1B771B" stroke-width="9.31512" stroke-miterlimit="10" stroke-linejoin="round" stroke-dasharray="11.64 11.64"/>
<path id="Vector_2" d="M544.546 408.093C554.789 408.093 563.093 399.789 563.093 389.546C563.093 379.303 554.789 371 544.546 371C534.303 371 526 379.303 526 389.546C526 399.789 534.303 408.093 544.546 408.093Z" fill="white" stroke="#1B771B" stroke-width="9.31512" stroke-miterlimit="10" stroke-linecap="round" stroke-linejoin="round"/>
</g>
<g id="icon-reciclarea-si-managementul-deseurilor 1">
<path id="Vector_3" d="M530.423 471.629V517.91C530.421 518.329 530.502 518.744 530.66 519.132C530.819 519.52 531.053 519.873 531.349 520.17C531.645 520.467 531.996 520.703 532.383 520.864C532.77 521.025 533.185 521.108 533.604 521.108H573.853C574.273 521.108 574.688 521.025 575.075 520.864C575.462 520.703 575.814 520.467 576.109 520.17C576.405 519.873 576.639 519.52 576.798 519.132C576.957 518.744 577.037 518.329 577.035 517.91V471.629H530.423Z" stroke="#1B771B" stroke-width="2.12838" stroke-linecap="round" stroke-linejoin="round"/>
<path id="Vector_4" d="M525.816 504.338C521.345 502.384 517.478 499.268 514.62 495.314C511.761 491.359 510.014 486.711 509.561 481.852C514.489 482.983 518.857 485.825 521.889 489.872C524.844 494.089 526.233 499.206 525.816 504.338Z" stroke="#1B771B" stroke-width="2.12838" stroke-linecap="round" stroke-linejoin="round"/>
<path id="Vector_5" d="M523.132 514.53C521.305 511.229 518.464 508.603 515.029 507.04C511.588 505.498 507.742 505.103 504.06 505.914C504.614 507.717 505.527 509.391 506.742 510.834C507.958 512.278 509.452 513.461 511.135 514.315C514.967 515.883 519.246 515.96 523.132 514.53Z" stroke="#1B771B" stroke-width="2.12838" stroke-linecap="round" stroke-linejoin="round"/>
<path id="Vector_6" d="M582.702 504.338C587.174 502.382 591.04 499.266 593.902 495.312C596.763 491.358 598.514 486.711 598.974 481.852C594.042 482.975 589.671 485.818 586.646 489.872C583.686 494.088 582.291 499.204 582.702 504.338Z" stroke="#1B771B" stroke-width="2.12838" stroke-linecap="round" stroke-linejoin="round"/>
<path id="Vector_7" d="M585.387 514.529C587.209 511.214 590.06 508.581 593.509 507.026C596.957 505.472 600.818 505.081 604.509 505.912C603.951 507.717 603.036 509.391 601.818 510.834C600.599 512.278 599.102 513.461 597.417 514.313C593.575 515.89 589.282 515.967 585.387 514.529Z" stroke="#1B771B" stroke-width="2.12838" stroke-linecap="round" stroke-linejoin="round"/>
<path id="Vector_8" d="M579.521 465.679V469.491C579.525 469.904 579.407 470.309 579.183 470.656C578.959 471.004 578.639 471.278 578.262 471.446C577.985 471.567 577.686 471.629 577.383 471.628H529.131C528.84 471.624 528.553 471.562 528.286 471.446C527.908 471.278 527.588 471.004 527.364 470.656C527.14 470.309 527.023 469.904 527.026 469.491V465.679C527.018 465.397 527.065 465.115 527.167 464.851C527.269 464.587 527.422 464.346 527.618 464.143C527.814 463.939 528.049 463.776 528.309 463.665C528.569 463.553 528.848 463.494 529.131 463.492H577.383C577.668 463.492 577.95 463.549 578.213 463.66C578.476 463.77 578.714 463.932 578.913 464.136C579.112 464.34 579.268 464.581 579.373 464.846C579.477 465.111 579.528 465.395 579.521 465.679Z" stroke="#1B771B" stroke-width="2.12838" stroke-linecap="round" stroke-linejoin="round"/>
<path id="Vector_9" d="M569.711 463.493H536.819C541.753 460.416 547.451 458.784 553.265 458.784C559.08 458.784 564.778 460.416 569.711 463.493Z" stroke="#1B771B" stroke-width="2.12838" stroke-linecap="round" stroke-linejoin="round"/>
<path id="Vector_10" d="M553.804 455.838H551.799V458.854H553.804V455.838Z" stroke="#1B771B" stroke-width="2.12838" stroke-linecap="round" stroke-linejoin="round"/>
<path id="Vector_11" d="M558.99 510.735C558.725 510.739 558.466 510.664 558.244 510.519C558.023 510.374 557.85 510.167 557.747 509.923L556.256 506.609C556.169 506.402 556.135 506.177 556.155 505.953C556.176 505.73 556.25 505.515 556.373 505.327C556.495 505.139 556.662 504.984 556.858 504.875C557.054 504.767 557.274 504.707 557.499 504.703H562.47C562.783 504.716 563.095 504.645 563.373 504.5C563.651 504.354 563.885 504.137 564.053 503.872C564.221 503.607 564.316 503.302 564.329 502.988C564.342 502.675 564.272 502.363 564.127 502.085L561.426 497.131C561.342 496.973 561.29 496.8 561.273 496.622C561.256 496.444 561.274 496.265 561.327 496.094C561.379 495.923 561.464 495.765 561.578 495.627C561.692 495.489 561.831 495.375 561.989 495.291C562.147 495.207 562.32 495.156 562.497 495.139C562.675 495.122 562.855 495.14 563.026 495.192C563.196 495.244 563.355 495.33 563.493 495.443C563.631 495.557 563.745 495.697 563.828 495.855L566.43 500.826C566.801 501.512 566.988 502.283 566.97 503.063C566.953 503.843 566.733 504.605 566.332 505.274C565.93 505.943 565.361 506.496 564.681 506.878C564.001 507.26 563.233 507.459 562.453 507.454H559.586L560.233 508.912C560.373 509.242 560.379 509.614 560.249 509.948C560.119 510.283 559.863 510.553 559.537 510.702C559.359 510.752 559.173 510.763 558.99 510.735Z" fill="#1B771B"/>
<path id="Vector_12" d="M557.499 507.372C557.293 507.368 557.09 507.323 556.902 507.24C556.582 507.076 556.339 506.794 556.224 506.453C556.109 506.112 556.133 505.741 556.289 505.417L558.112 501.606C558.283 501.305 558.562 501.081 558.893 500.979C559.223 500.877 559.58 500.905 559.891 501.058C560.201 501.21 560.442 501.474 560.564 501.798C560.686 502.122 560.68 502.479 560.548 502.799L558.725 506.577C558.614 506.81 558.441 507.008 558.225 507.148C558.008 507.289 557.757 507.366 557.499 507.372Z" fill="#1B771B"/>
<path id="Vector_13" d="M548.452 492.973C548.209 492.976 547.97 492.913 547.76 492.791C547.55 492.669 547.377 492.492 547.26 492.28C547.143 492.067 547.085 491.827 547.094 491.584C547.102 491.341 547.176 491.105 547.308 490.902L550.241 486.179C550.64 485.528 551.201 484.99 551.868 484.618C552.536 484.247 553.288 484.054 554.052 484.058C554.83 484.066 555.592 484.277 556.263 484.669C556.934 485.061 557.491 485.622 557.88 486.295L559.355 488.814L560.283 487.538C560.502 487.248 560.828 487.057 561.189 487.007C561.549 486.957 561.915 487.053 562.205 487.273C562.495 487.493 562.686 487.818 562.735 488.179C562.785 488.54 562.689 488.905 562.47 489.195L560.316 492.161C560.19 492.35 560.016 492.501 559.812 492.6C559.608 492.699 559.382 492.742 559.156 492.724C558.929 492.71 558.71 492.641 558.516 492.522C558.323 492.404 558.161 492.24 558.046 492.045L555.527 487.72C555.377 487.451 555.159 487.226 554.894 487.069C554.629 486.912 554.327 486.828 554.019 486.825C553.711 486.82 553.407 486.895 553.136 487.044C552.866 487.192 552.639 487.408 552.478 487.671L549.545 492.409C549.419 492.582 549.255 492.722 549.065 492.82C548.875 492.918 548.665 492.971 548.452 492.973Z" fill="#1B771B"/>
<path id="Vector_14" d="M555.031 492.956C554.696 492.931 554.383 492.783 554.151 492.54C553.919 492.298 553.785 491.978 553.775 491.643C553.765 491.307 553.879 490.98 554.095 490.724C554.312 490.468 554.615 490.301 554.948 490.255L559.19 490.006C559.368 489.993 559.548 490.016 559.717 490.072C559.887 490.128 560.044 490.217 560.18 490.334C560.315 490.451 560.426 490.593 560.506 490.753C560.587 490.913 560.635 491.087 560.648 491.266C560.661 491.444 560.639 491.624 560.582 491.793C560.526 491.963 560.437 492.12 560.32 492.256C560.203 492.391 560.061 492.502 559.901 492.582C559.741 492.663 559.567 492.711 559.389 492.724L555.13 493.022L555.031 492.956Z" fill="#1B771B"/>
<path id="Vector_15" d="M550.487 507.373H544.853C544.077 507.37 543.313 507.166 542.639 506.782C541.964 506.397 541.399 505.845 541.001 505.178C540.602 504.511 540.383 503.752 540.364 502.975C540.345 502.199 540.528 501.43 540.893 500.745L542.268 498.16L540.611 498.044C540.433 498.031 540.26 497.983 540.1 497.903C539.941 497.823 539.8 497.711 539.684 497.576C539.568 497.44 539.481 497.282 539.427 497.112C539.373 496.942 539.353 496.763 539.369 496.586C539.379 496.408 539.425 496.235 539.504 496.076C539.582 495.917 539.692 495.775 539.826 495.659C539.961 495.543 540.117 495.455 540.286 495.401C540.455 495.347 540.633 495.327 540.81 495.343L544.472 495.608C544.698 495.622 544.917 495.692 545.109 495.814C545.3 495.935 545.458 496.103 545.567 496.301C545.676 496.499 545.733 496.722 545.733 496.949C545.733 497.175 545.675 497.398 545.566 497.596L543.213 502.021C543.064 502.298 542.991 502.61 543.001 502.924C543.011 503.239 543.104 503.546 543.271 503.813C543.437 504.08 543.671 504.299 543.949 504.447C544.227 504.594 544.539 504.667 544.853 504.655H550.487C550.846 504.66 551.189 504.804 551.443 505.058C551.697 505.312 551.842 505.655 551.846 506.014C551.846 506.374 551.703 506.72 551.448 506.975C551.193 507.23 550.848 507.373 550.487 507.373Z" fill="#1B771B"/>
<path id="Vector_16" d="M547.009 501.789C546.793 501.79 546.579 501.74 546.386 501.642C546.193 501.544 546.025 501.401 545.899 501.226L543.413 497.763C543.194 497.473 543.098 497.107 543.148 496.747C543.198 496.386 543.388 496.06 543.678 495.84C543.968 495.621 544.334 495.525 544.695 495.575C545.055 495.625 545.381 495.816 545.601 496.106L548.169 499.635C548.315 499.837 548.403 500.076 548.422 500.325C548.441 500.573 548.392 500.823 548.279 501.045C548.166 501.268 547.994 501.455 547.782 501.586C547.569 501.717 547.325 501.788 547.075 501.789H547.009Z" fill="#1B771B"/>
<path id="Vector_17" d="M516.553 521.108H590.903" stroke="#1B771B" stroke-width="2.12838" stroke-linecap="round" stroke-linejoin="round"/>
<path id="Vector_18" d="M541.259 476.102V488.612" stroke="#1B771B" stroke-width="2.12838" stroke-linecap="round" stroke-linejoin="round"/>
<path id="Vector_19" d="M567.01 476.102V488.612" stroke="#1B771B" stroke-width="2.12838" stroke-linecap="round" stroke-linejoin="round"/>
<path id="Vector_20" d="M553.686 476.102V480.311" stroke="#1B771B" stroke-width="2.12838" stroke-linecap="round" stroke-linejoin="round"/>
<path id="Vector_21" d="M541.259 517.315V508.715" stroke="#1B771B" stroke-width="2.12838" stroke-linecap="round" stroke-linejoin="round"/>
<path id="Vector_22" d="M567.01 517.315V508.715" stroke="#1B771B" stroke-width="2.12838" stroke-linecap="round" stroke-linejoin="round"/>
<path id="Vector_23" d="M553.686 517.313V513.121" stroke="#1B771B" stroke-width="2.12838" stroke-linecap="round" stroke-linejoin="round"/>
</g>
<text id="Reciclarea &#200;&#153;i &#226;&#128;&#168;managementul de&#200;&#153;eurilor" fill="#1E1E1E" xml:space="preserve" style="white-space: pre" font-family="Titillium Web" font-size="40" font-weight="600" letter-spacing="0px"><tspan x="384.984" y="580.9">Reciclarea &#x219;i </tspan><tspan x="165.57" y="622.9">managementul de&#x219;eurilor</tspan></text>
</g>
</g>
</svg>
