<svg width="554" height="679" viewBox="0 0 554 679" fill="none" xmlns="http://www.w3.org/2000/svg">
<path d="M94.1553 415.776C108.468 399.638 126.484 389.743 146.326 381.251" stroke="#C8CEDB" stroke-width="9.92585" stroke-miterlimit="10" stroke-linecap="round" stroke-linejoin="round"/>
<path d="M94.1549 415.776C90.6628 419.717 87.3823 424.03 84.3399 428.792C71.2973 449.268 58.4664 469.771 43.7836 489.004C40.847 492.841 37.8311 496.65 34.7358 500.38C30.5294 505.46 26.7727 511.227 23.7832 517.338" stroke="#C8CEDB" stroke-width="9.92585" stroke-miterlimit="10" stroke-linecap="round" stroke-linejoin="round"/>
<path d="M257.544 349.742C251.01 353.182 243.549 357.494 236.856 359.213C233.152 360.166 229.872 359.293 226.221 359.822C222.358 360.377 220.321 362.414 217.12 363.155C213.152 364.108 208.998 362.944 204.924 363.367C200.083 363.896 198.813 366.198 194.554 367.203C191.247 367.97 187.913 366.859 184.501 367.785C182.86 368.235 182.807 370.166 180.347 370.748C178.601 371.145 176.485 370.034 174.739 370.457C168.151 371.991 160.611 375.351 153.839 378.103C151.299 379.134 148.786 380.166 146.299 381.251" stroke="#C8CEDB" stroke-width="9.92585" stroke-miterlimit="10" stroke-linecap="round" stroke-linejoin="round"/>
<path d="M305.773 309.689C295.72 317.388 285.561 327.044 276.884 335.959C272.519 340.457 267.413 344.928 261.804 347.6C260.455 348.261 259.026 348.975 257.545 349.769" stroke="#00B4CC" stroke-width="9.92585" stroke-miterlimit="10" stroke-linecap="round" stroke-linejoin="round"/>
<path d="M358.499 250.508C358.023 251.248 357.52 251.989 356.991 252.756C350.377 262.016 344.795 271.937 339.002 281.725C335.748 287.254 332.388 291.725 327.493 296.038C321.726 301.117 314.53 303.26 308.736 307.466C307.758 308.181 306.752 308.922 305.773 309.689" stroke="#C8CEDB" stroke-width="9.92585" stroke-miterlimit="10" stroke-linecap="round" stroke-linejoin="round"/>
<path d="M364.769 201.062C364.769 201.962 364.769 202.861 364.769 203.787C364.769 222.253 367.705 235.931 358.525 250.508" stroke="#00B4CC" stroke-width="9.92585" stroke-miterlimit="10" stroke-linecap="round" stroke-linejoin="round"/>
<path d="M357.917 130.929C357.203 135.135 356.938 138.31 357.335 140.135C359.663 151.167 364.319 155.744 364.848 168.205C364.981 171.485 365.034 174.792 365.06 178.099C365.087 185.745 364.849 193.47 364.796 201.115" stroke="#C8CEDB" stroke-width="9.92585" stroke-miterlimit="10" stroke-linecap="round" stroke-linejoin="round"/>
<path d="M368.34 5C381.886 23.5453 371.674 69.9748 363.869 103.626C361.33 114.526 359.055 124.103 357.917 130.928" stroke="#00B4CC" stroke-width="9.92585" stroke-miterlimit="10" stroke-linecap="round" stroke-linejoin="round"/>
<path d="M24.7623 536.466C35.6767 536.466 44.5246 527.618 44.5246 516.704C44.5246 505.789 35.6767 496.941 24.7623 496.941C13.8479 496.941 5 505.789 5 516.704C5 527.618 13.8479 536.466 24.7623 536.466Z" fill="white" stroke="#00B4CC" stroke-width="9.92585" stroke-miterlimit="10" stroke-linecap="round" stroke-linejoin="round"/>
<path d="M94.1552 424.877C99.6343 424.877 104.076 420.435 104.076 414.956C104.076 409.477 99.6343 405.035 94.1552 405.035C88.6761 405.035 84.2344 409.477 84.2344 414.956C84.2344 420.435 88.6761 424.877 94.1552 424.877Z" fill="#404366"/>
<path d="M151.167 389.135C156.646 389.135 161.088 384.693 161.088 379.214C161.088 373.735 156.646 369.293 151.167 369.293C145.688 369.293 141.246 373.735 141.246 379.214C141.246 384.693 145.688 389.135 151.167 389.135Z" fill="#404366"/>
<path d="M257.545 359.663C263.024 359.663 267.466 355.222 267.466 349.742C267.466 344.263 263.024 339.822 257.545 339.822C252.066 339.822 247.624 344.263 247.624 349.742C247.624 355.222 252.066 359.663 257.545 359.663Z" fill="white" stroke="#00B4CC" stroke-width="5.29111" stroke-miterlimit="10" stroke-linecap="round" stroke-linejoin="round"/>
<path d="M309.9 315.879C315.379 315.879 319.821 311.437 319.821 305.958C319.821 300.479 315.379 296.037 309.9 296.037C304.421 296.037 299.979 300.479 299.979 305.958C299.979 311.437 304.421 315.879 309.9 315.879Z" fill="#404366"/>
<path d="M353.949 266.301C359.428 266.301 363.87 261.86 363.87 256.381C363.87 250.902 359.428 246.46 353.949 246.46C348.47 246.46 344.028 250.902 344.028 256.381C344.028 261.86 348.47 266.301 353.949 266.301Z" fill="white" stroke="#00B4CC" stroke-width="5.29111" stroke-miterlimit="10" stroke-linecap="round" stroke-linejoin="round"/>
<path d="M364.901 210.428C370.38 210.428 374.822 205.986 374.822 200.507C374.822 195.028 370.38 190.586 364.901 190.586C359.422 190.586 354.98 195.028 354.98 200.507C354.98 205.986 359.422 210.428 364.901 210.428Z" fill="#404366"/>
<path d="M358.711 140.85C364.19 140.85 368.632 136.408 368.632 130.929C368.632 125.45 364.19 121.008 358.711 121.008C353.232 121.008 348.79 125.45 348.79 130.929C348.79 136.408 353.232 140.85 358.711 140.85Z" fill="white" stroke="#00B4CC" stroke-width="5.29111" stroke-miterlimit="10" stroke-linecap="round" stroke-linejoin="round"/>
<path d="M370.034 83.1234C375.513 83.1234 379.955 78.6817 379.955 73.2026C379.955 67.7234 375.513 63.2817 370.034 63.2817C364.555 63.2817 360.113 67.7234 360.113 73.2026C360.113 78.6817 364.555 83.1234 370.034 83.1234Z" fill="white" stroke="#00B4CC" stroke-width="5.29111" stroke-miterlimit="10" stroke-linecap="round" stroke-linejoin="round"/>
<text fill="#1E1E1E" xml:space="preserve" style="white-space: pre" font-family="Titillium Web" font-size="20" font-weight="600" letter-spacing="0px"><tspan x="121" y="459.45">Swipe Politics</tspan></text>
<g clip-path="url(#clip0)">
<path d="M96.1841 611.487L94.9433 609.514C93.4746 607.467 92.5207 605.097 92.1623 602.603C91.804 600.109 92.0518 597.566 92.8848 595.188L95.8739 586.729C96.7153 584.327 97.1443 581.801 97.1428 579.256V565.157C97.2761 558.647 99.9886 552.457 104.684 547.947C109.379 543.436 115.674 540.975 122.183 541.103C125.413 541.021 128.626 541.575 131.642 542.735C134.657 543.896 137.413 545.638 139.754 547.864C142.096 550.09 143.975 552.756 145.286 555.708C146.596 558.661 147.313 561.843 147.393 565.072V577.311C147.392 581.057 148.363 584.74 150.213 587.998C152.156 591.505 153.129 595.467 153.033 599.475C152.866 603.939 150.94 608.156 147.675 611.205" stroke="#00B4CC" stroke-width="3.82143" stroke-linecap="round" stroke-linejoin="round"/>
<path d="M141.531 560.477V576.917C141.531 579.453 141.031 581.965 140.06 584.309C139.089 586.652 137.667 588.782 135.873 590.575C134.079 592.369 131.95 593.792 129.606 594.762C127.263 595.733 124.751 596.233 122.214 596.233C117.089 596.233 112.173 594.199 108.546 590.577C104.919 586.955 102.878 582.042 102.87 576.917V563.325C109.188 562.773 115.445 561.659 121.566 559.998C127.298 558.389 132.635 555.615 137.244 551.848C138.568 552.865 139.643 554.171 140.386 555.667C141.129 557.162 141.52 558.807 141.531 560.477Z" stroke="#00B4CC" stroke-width="3.82143" stroke-linecap="round" stroke-linejoin="round"/>
<path d="M140.063 549.196C139.189 550.127 138.286 551.001 137.243 551.847C132.6 555.627 127.223 558.402 121.452 559.996C115.368 561.651 109.149 562.765 102.869 563.324L100.049 563.606" stroke="#00B4CC" stroke-width="3.82143" stroke-linecap="round" stroke-linejoin="round"/>
<path d="M79.0957 669.348L81.9156 634.157C82.3312 628.77 84.3229 623.625 87.6425 619.363C90.962 615.1 95.4626 611.909 100.583 610.188C104.418 608.947 107.689 607.847 108.874 607.367C109.603 607.088 110.279 606.688 110.876 606.183C111.776 605.398 112.494 604.426 112.981 603.335C113.468 602.245 113.712 601.061 113.696 599.867V594.227" stroke="#00B4CC" stroke-width="3.82143" stroke-linecap="round" stroke-linejoin="round"/>
<path d="M162.818 634.157C162.393 628.757 160.385 623.602 157.044 619.338C153.703 615.074 149.179 611.891 144.037 610.188C140.202 608.947 136.931 607.847 135.719 607.367C135.001 607.081 134.335 606.681 133.745 606.183C132.844 605.398 132.126 604.426 131.639 603.335C131.152 602.245 130.908 601.061 130.925 599.867V594.227" stroke="#00B4CC" stroke-width="3.82143" stroke-linecap="round" stroke-linejoin="round"/>
<path d="M113.638 600.407H130.98" stroke="#00B4CC" stroke-width="3.82143" stroke-linecap="round" stroke-linejoin="round"/>
<path d="M115.077 575.225C115.949 575.225 116.656 574.051 116.656 572.602C116.656 571.154 115.949 569.98 115.077 569.98C114.205 569.98 113.498 571.154 113.498 572.602C113.498 574.051 114.205 575.225 115.077 575.225Z" fill="#00B4CC"/>
<path d="M130.333 575.225C131.205 575.225 131.912 574.051 131.912 572.602C131.912 571.154 131.205 569.98 130.333 569.98C129.461 569.98 128.754 571.154 128.754 572.602C128.754 574.051 129.461 575.225 130.333 575.225Z" fill="#00B4CC"/>
<path d="M119.136 584.161C120.265 584.638 121.478 584.884 122.703 584.884C123.928 584.884 125.141 584.638 126.27 584.161" stroke="#00B4CC" stroke-width="3.82143" stroke-linecap="round" stroke-linejoin="round"/>
<path d="M112.598 566.172C113.59 565.615 114.682 565.261 115.812 565.128" stroke="#00B4CC" stroke-width="3.82143" stroke-linecap="round" stroke-linejoin="round"/>
<path d="M128.784 564.34C130.209 564.263 131.632 564.534 132.929 565.13" stroke="#00B4CC" stroke-width="3.82143" stroke-linecap="round" stroke-linejoin="round"/>
<path d="M163.24 615.379H113.667V669.352H163.24V615.379Z" fill="white" stroke="#00B4CC" stroke-width="3.82143" stroke-linecap="round" stroke-linejoin="round"/>
<path d="M128.783 632.043H131.603L128.332 646.143H123.143L119.872 632.043H122.889L125.314 643.605H126.245L128.783 632.043Z" fill="#00B4CC"/>
<path d="M144.43 644.591C143.871 645.219 143.17 645.705 142.386 646.01C141.601 646.314 140.755 646.426 139.919 646.339C139.082 646.426 138.236 646.314 137.451 646.01C136.667 645.705 135.966 645.219 135.407 644.591C134.41 642.949 133.956 641.035 134.109 639.12C133.936 637.151 134.39 635.176 135.407 633.48C135.951 632.829 136.647 632.321 137.434 632.002C138.221 631.682 139.074 631.561 139.919 631.648C140.763 631.561 141.616 631.682 142.403 632.002C143.19 632.321 143.886 632.829 144.43 633.48C145.459 635.172 145.923 637.148 145.756 639.12C145.9 641.038 145.437 642.952 144.43 644.591ZM137.634 642.786C137.883 643.155 138.226 643.449 138.628 643.638C139.03 643.827 139.476 643.903 139.919 643.857C140.361 643.909 140.81 643.836 141.213 643.646C141.616 643.457 141.959 643.159 142.203 642.786C142.706 641.642 142.937 640.397 142.879 639.148C142.948 637.877 142.736 636.606 142.259 635.426C142.026 635.037 141.689 634.722 141.284 634.517C140.88 634.313 140.426 634.227 139.975 634.27C139.527 634.222 139.075 634.306 138.674 634.511C138.274 634.717 137.942 635.035 137.719 635.426C137.229 636.603 137.016 637.877 137.099 639.148C136.999 640.386 137.182 641.63 137.634 642.786Z" fill="#00B4CC"/>
<path d="M148.185 634.581V632.043H158.505V634.581H154.783V646.086H151.963V634.581H148.185Z" fill="#00B4CC"/>
<path d="M169.189 659.99L160.729 655.76C160.306 655.551 159.928 655.26 159.618 654.903C159.308 654.547 159.071 654.132 158.922 653.684C158.772 653.236 158.713 652.762 158.748 652.292C158.782 651.82 158.909 651.361 159.122 650.939C159.329 650.516 159.618 650.139 159.971 649.829C160.324 649.518 160.735 649.28 161.18 649.128C161.625 648.976 162.096 648.913 162.565 648.943C163.035 648.974 163.494 649.096 163.916 649.303L172.376 653.533C172.804 653.753 173.183 654.056 173.493 654.424C173.802 654.793 174.034 655.22 174.176 655.679C174.318 656.139 174.366 656.623 174.319 657.101C174.271 657.58 174.128 658.045 173.898 658.467L169.866 668.337" fill="white"/>
<path d="M169.189 659.99L160.729 655.76C160.306 655.551 159.928 655.26 159.618 654.903C159.308 654.547 159.071 654.132 158.922 653.684C158.772 653.236 158.713 652.762 158.748 652.292C158.782 651.82 158.909 651.361 159.122 650.939C159.329 650.516 159.618 650.139 159.971 649.829C160.324 649.518 160.735 649.28 161.18 649.128C161.625 648.976 162.096 648.913 162.565 648.943C163.035 648.974 163.494 649.096 163.916 649.303L172.376 653.533C172.804 653.753 173.183 654.056 173.493 654.424C173.802 654.793 174.034 655.22 174.176 655.679C174.318 656.139 174.366 656.623 174.319 657.101C174.271 657.58 174.128 658.045 173.898 658.467L169.866 668.337" stroke="#00B4CC" stroke-width="3.82143" stroke-linecap="round" stroke-linejoin="round"/>
<path d="M166.003 666.421L157.543 662.191C157.121 661.984 156.744 661.695 156.434 661.341C156.124 660.988 155.887 660.576 155.738 660.13C155.588 659.684 155.529 659.213 155.563 658.744C155.597 658.274 155.724 657.817 155.936 657.397C156.335 656.546 157.052 655.886 157.933 655.559C158.814 655.232 159.788 655.264 160.645 655.649L169.105 659.878" fill="white"/>
<path d="M166.003 666.421L157.543 662.191C157.121 661.984 156.744 661.695 156.434 661.341C156.124 660.988 155.887 660.576 155.738 660.13C155.588 659.684 155.529 659.213 155.563 658.744C155.597 658.274 155.724 657.817 155.936 657.397C156.335 656.546 157.052 655.886 157.933 655.559C158.814 655.232 159.788 655.264 160.645 655.649L169.105 659.878" stroke="#00B4CC" stroke-width="3.82143" stroke-linecap="round" stroke-linejoin="round"/>
<path d="M164.228 673.329L154.161 668.648C153.738 668.438 153.36 668.147 153.05 667.79C152.74 667.434 152.503 667.02 152.354 666.571C152.204 666.123 152.145 665.65 152.179 665.179C152.214 664.708 152.341 664.247 152.554 663.826C152.761 663.404 153.05 663.027 153.403 662.716C153.756 662.405 154.167 662.167 154.612 662.015C155.057 661.863 155.528 661.801 155.997 661.831C156.466 661.861 156.926 661.983 157.347 662.191L165.807 666.42" fill="white"/>
<path d="M164.228 673.329L154.161 668.648C153.738 668.438 153.36 668.147 153.05 667.79C152.74 667.434 152.503 667.02 152.354 666.571C152.204 666.123 152.145 665.65 152.179 665.179C152.214 664.708 152.341 664.247 152.554 663.826C152.761 663.404 153.05 663.027 153.403 662.716C153.756 662.405 154.167 662.167 154.612 662.015C155.057 661.863 155.528 661.801 155.997 661.831C156.466 661.861 156.926 661.983 157.347 662.191L165.807 666.42" stroke="#00B4CC" stroke-width="3.82143" stroke-linecap="round" stroke-linejoin="round"/>
<path d="M164.229 673.327C166.815 674.096 169.59 673.913 172.053 672.812C174.516 671.709 176.502 669.761 177.651 667.32C178.354 665.436 178.661 663.427 178.554 661.419C178.448 659.41 177.929 657.445 177.03 655.646C175.048 651.98 172.716 648.514 170.066 645.297C167.246 641.292 163.241 633.143 163.241 627.898" stroke="#00B4CC" stroke-width="3.82143" stroke-linecap="round" stroke-linejoin="round"/>
<path d="M169.979 652.348L171.36 650.882" stroke="#00B4CC" stroke-width="3.82143" stroke-linecap="round" stroke-linejoin="round"/>
<path d="M104.757 676.117C113.166 676.117 119.984 669.299 119.984 660.889C119.984 652.48 113.166 645.662 104.757 645.662C96.3468 645.662 89.5293 652.48 89.5293 660.889C89.5293 669.299 96.3468 676.117 104.757 676.117Z" fill="white" stroke="#00B4CC" stroke-width="3.82143" stroke-linecap="round" stroke-linejoin="round"/>
<path d="M96.4355 661.458C99.193 663.049 101.525 665.285 103.231 667.972C103.231 667.972 111.691 654.155 120.546 650.066" fill="white"/>
<path d="M96.4355 661.458C99.193 663.049 101.525 665.285 103.231 667.972C103.231 667.972 111.691 654.155 120.546 650.066" stroke="#00B4CC" stroke-width="3.82143" stroke-linecap="round" stroke-linejoin="round"/>
</g>
<text fill="#1E1E1E" xml:space="preserve" style="white-space: pre" font-family="Titillium Web" font-size="40" font-weight="600" letter-spacing="0px"><tspan x="213" y="593.9">Alegeri corecte. &#x2028;</tspan><tspan x="213" y="635.9">Aleg&#x103;tori informa&#x21b;i</tspan></text>
<text fill="#1E1E1E" xml:space="preserve" style="white-space: pre" font-family="Titillium Web" font-size="20" font-weight="600" letter-spacing="0px"><tspan x="14" y="354.45">Catalog Politic&#13;</tspan></text>
<text fill="#1E1E1E" xml:space="preserve" style="white-space: pre" font-family="Titillium Web" font-size="20" font-weight="600" letter-spacing="0px"><tspan x="277" y="396.45">Rezultate Vot&#13;</tspan></text>
<text fill="#1E1E1E" xml:space="preserve" style="white-space: pre" font-family="Titillium Web" font-size="20" font-weight="600" letter-spacing="0px"><tspan x="393" y="264.45">Ochii pe Vot&#13;</tspan></text>
<text fill="#1E1E1E" xml:space="preserve" style="white-space: pre" font-family="Titillium Web" font-size="20" font-weight="600" letter-spacing="0px"><tspan x="406" y="204.45">Monitorizare Vot&#13;</tspan></text>
<text fill="#1E1E1E" xml:space="preserve" style="white-space: pre" font-family="Titillium Web" font-size="20" font-weight="600" letter-spacing="0px"><tspan x="188" y="286.45">Count Us In&#13;</tspan></text>
<text fill="#1E1E1E" xml:space="preserve" style="white-space: pre" font-family="Titillium Web" font-size="20" font-weight="600" letter-spacing="0px"><tspan x="205" y="132.45">Vot Diaspora&#13;</tspan></text>
<text fill="#1E1E1E" xml:space="preserve" style="white-space: pre" font-family="Titillium Web" font-size="20" font-weight="600" letter-spacing="0px"><tspan x="224" y="75.45">Vot Romania&#13;</tspan></text>
<defs>
<clipPath id="clip0">
<rect width="107" height="142.667" fill="white" transform="translate(74 536)"/>
</clipPath>
</defs>
</svg>
