<svg width="552" height="425" viewBox="0 0 552 425" fill="none" xmlns="http://www.w3.org/2000/svg">
<path d="M22.626 22.9307C25.9023 23.5402 29.2547 24.2005 32.6834 24.9371C56.9889 30.1436 71.3131 58.7666 93.6122 67.3764C108.851 73.2432 117.587 79.1863 128.508 91.9358C135.264 99.8345 142.579 109.562 150.985 115.962C173.208 132.953 200.688 138.21 226.645 147.887C234.823 150.934 243.102 154.033 251.407 157.157C269.211 163.836 287.116 170.592 304.463 177.297C330.673 187.405 353.81 200.815 377.455 215.622C398.078 228.549 419.183 244.855 440.949 255.395C450.981 260.245 460.785 262.099 470.055 269.084C479.249 276.017 487.046 284.83 493.268 294.481C506.246 314.596 513.078 337.911 520.266 360.718C526.996 382.179 534.387 403.919 547.365 422.18" stroke="#1B771B" stroke-width="9.52891" stroke-miterlimit="10" stroke-linejoin="round" stroke-dasharray="11.91 11.91"/>
<path d="M23.972 42.9439C34.4499 42.9439 42.9439 34.4499 42.9439 23.972C42.9439 13.494 34.4499 5 23.972 5C13.494 5 5 13.494 5 23.972C5 34.4499 13.494 42.9439 23.972 42.9439Z" fill="white" stroke="#1B771B" stroke-width="9.52891" stroke-miterlimit="10" stroke-linecap="round" stroke-linejoin="round"/>
</svg>
