<svg width="329" height="267" viewBox="0 0 329 267" fill="none" xmlns="http://www.w3.org/2000/svg">
<g clip-path="url(#clip0)">
<path d="M304.056 24.1963C299.222 27.8818 294.548 31.781 290.222 35.6001C278.791 45.5884 272.942 57.2058 263.809 68.1555C255.263 78.4109 240.841 84.2597 230.399 92.6723C220.357 100.764 213.039 112.489 202.49 119.726C177.573 136.872 145.284 143.602 118.07 156.101C94.7285 166.81 79.746 187.161 58.8347 200.247C35.6532 214.749 2.10962 232.722 5.2076 265.785" stroke="#7937C4" stroke-width="10.0201" stroke-miterlimit="10" stroke-linejoin="round" stroke-dasharray="12.53 12.53"/>
<path d="M304.056 44.9203C315.074 44.9203 324.006 35.9885 324.006 24.9704C324.006 13.9524 315.074 5.02051 304.056 5.02051C293.038 5.02051 284.106 13.9524 284.106 24.9704C284.106 35.9885 293.038 44.9203 304.056 44.9203Z" fill="white" stroke="#7937C4" stroke-width="10.0201" stroke-miterlimit="10" stroke-linecap="round" stroke-linejoin="round"/>
</g>
<defs>
<clipPath id="clip0">
<rect width="329" height="266.239" fill="white"/>
</clipPath>
</defs>
</svg>
