<svg width="583" height="199" viewBox="0 0 583 199" fill="none" xmlns="http://www.w3.org/2000/svg">
<g clip-path="url(#clip0)">
<path d="M580.695 4.6084C569.695 10.0947 558.339 14.4563 547.695 21.4513C525.037 36.3466 512.144 49.5959 484.055 51.0224C464.962 52.0099 446.885 49.4313 428.177 49.9525C423.678 50.0897 419.152 50.3914 414.571 50.9949C400.937 52.7231 392.269 55.6583 381.763 48.4164C374.384 43.3141 368.897 35.7979 359.077 32.2867C344.429 27.0473 325.391 21.8079 309.892 20.2169C290.581 18.2418 280.843 26.4987 264.219 32.753C248.912 38.5136 234.374 38.4039 222.386 51.955C215.885 59.2792 216.488 69.7032 211.386 78.0697C206.613 85.9151 198.521 90.0847 191.498 95.379C156.249 121.96 126.87 157.95 78.8376 159.98C60.4311 160.748 42.244 165.878 25.6206 174.381" stroke="#FFA506" stroke-width="10.292" stroke-miterlimit="10" stroke-linejoin="round" stroke-dasharray="12.87 12.87"/>
<path d="M25.648 193.666C36.965 193.666 46.1393 184.491 46.1393 173.174C46.1393 161.857 36.965 152.683 25.648 152.683C14.331 152.683 5.15674 161.857 5.15674 173.174C5.15674 184.491 14.331 193.666 25.648 193.666Z" fill="white" stroke="#FFA506" stroke-width="10.292" stroke-miterlimit="10" stroke-linecap="round" stroke-linejoin="round"/>
</g>
<defs>
<clipPath id="clip0">
<rect width="583" height="198.823" fill="white"/>
</clipPath>
</defs>
</svg>
