<svg width="618" height="682" viewBox="0 0 618 682" fill="none" xmlns="http://www.w3.org/2000/svg">
<path d="M517.151 41.5596C520.36 40.7831 523.673 40.2395 527.142 39.9807C547.693 38.4018 559.03 37.703 576.812 26.2107C586.803 19.7657 605.568 14.5114 612.272 5.84045" stroke="#1B771B" stroke-width="9.71121" stroke-miterlimit="10" stroke-linecap="round" stroke-linejoin="round"/>
<path d="M441.727 68.3492C448.146 67.8574 454.462 67.0291 460.57 65.4243C481.122 60.0665 496.833 46.4518 517.152 41.5857" stroke="#1B771B" stroke-width="9.71121" stroke-miterlimit="10" stroke-linecap="round" stroke-linejoin="round"/>
<path d="M345 90.1939C358.796 82.1441 372.773 74.7415 390.555 71.4025C407.121 68.2965 424.773 69.5907 441.727 68.3224" stroke="#1B771B" stroke-width="9.71121" stroke-miterlimit="10" stroke-linecap="round" stroke-linejoin="round"/>
<path d="M275.478 123.791C285.391 118.821 295.926 114.654 306.124 110.668C320.644 104.948 332.758 97.3378 345.001 90.194" stroke="#1B771B" stroke-width="9.71121" stroke-miterlimit="10" stroke-linecap="round" stroke-linejoin="round"/>
<path d="M230.182 173.409C235.876 148.82 254.227 134.455 275.504 123.791" stroke="#1B771B" stroke-width="9.71121" stroke-miterlimit="10" stroke-linecap="round" stroke-linejoin="round"/>
<path d="M224.124 233.045C225.341 216.531 227.127 199.241 228.68 182.702C228.99 179.466 229.482 176.36 230.155 173.409" stroke="#1B771B" stroke-width="9.71121" stroke-miterlimit="10" stroke-linecap="round" stroke-linejoin="round"/>
<path d="M249.438 317.011C239.965 309.091 229.974 302.051 225.574 288.643C221.174 275.287 222.83 252.587 223.736 238.507C223.866 236.695 223.995 234.857 224.124 233.02" stroke="#1B771B" stroke-width="9.71121" stroke-miterlimit="10" stroke-linecap="round" stroke-linejoin="round"/>
<path d="M276.952 380.839C273.432 375.429 270.481 370.175 268.799 365.154C264.321 351.772 269.86 340.409 261.914 329.59C258.316 324.698 253.942 320.764 249.464 317.01" stroke="#1B771B" stroke-width="9.71121" stroke-miterlimit="10" stroke-linecap="round" stroke-linejoin="round"/>
<path d="M289.403 459.888C293.208 457.765 296.65 454.556 299.523 449.767C313.5 426.472 290.878 402.323 276.927 380.84" stroke="#1B771B" stroke-width="9.71121" stroke-miterlimit="10" stroke-linecap="round" stroke-linejoin="round"/>
<path d="M25.8583 661.623C28.8866 659.889 31.8373 658.025 34.6845 656.006C46.2544 647.801 57.9796 639.545 69.8342 631.521C75.8392 627.457 81.87 623.471 87.9526 619.562C97.866 613.195 107.676 610.322 118.159 605.482C128.641 600.642 129.78 593.99 136.769 586.225C140.496 582.083 144.379 578.123 148.261 574.215C157.812 564.612 167.467 555.242 175.283 543.905C184.601 530.368 188.458 514.709 195.705 500.292C196.404 498.92 197.103 497.574 197.854 496.228C207.715 478.731 227.309 460.457 248.068 461.466C261.32 462.114 277.212 466.617 289.378 459.888" stroke="#C8CEDB" stroke-width="9.71121" stroke-miterlimit="10" stroke-linecap="round" stroke-linejoin="round"/>
<path d="M24.2008 676.842C34.8792 676.842 43.5358 668.186 43.5358 657.508C43.5358 646.829 34.8792 638.173 24.2008 638.173C13.5224 638.173 4.86591 646.829 4.86591 657.508C4.86591 668.186 13.5224 676.842 24.2008 676.842Z" fill="white" stroke="#1B771B" stroke-width="9.71121" stroke-miterlimit="10" stroke-linecap="round" stroke-linejoin="round"/>
<path d="M82.6714 631.521C88.032 631.521 92.3777 627.175 92.3777 621.814C92.3777 616.454 88.032 612.108 82.6714 612.108C77.3107 612.108 72.9651 616.454 72.9651 621.814C72.9651 627.175 77.3107 631.521 82.6714 631.521Z" fill="#404366"/>
<path d="M138.58 591.841C143.941 591.841 148.286 587.495 148.286 582.135C148.286 576.774 143.941 572.429 138.58 572.429C133.219 572.429 128.874 576.774 128.874 582.135C128.874 587.495 133.219 591.841 138.58 591.841Z" fill="#404366"/>
<path d="M176.938 553.016C182.299 553.016 186.645 548.67 186.645 543.309C186.645 537.949 182.299 533.603 176.938 533.603C171.578 533.603 167.232 537.949 167.232 543.309C167.232 548.67 171.578 553.016 176.938 553.016Z" fill="#404366"/>
<path d="M195.679 509.998C201.04 509.998 205.385 505.652 205.385 500.291C205.385 494.931 201.04 490.585 195.679 490.585C190.318 490.585 185.973 494.931 185.973 500.291C185.973 505.652 190.318 509.998 195.679 509.998Z" fill="#404366"/>
<path d="M289.403 468.869C294.763 468.869 299.109 464.523 299.109 459.162C299.109 453.802 294.763 449.456 289.403 449.456C284.042 449.456 279.696 453.802 279.696 459.162C279.696 464.523 284.042 468.869 289.403 468.869Z" fill="white" stroke="#1B771B" stroke-width="5.17669" stroke-miterlimit="10" stroke-linecap="round" stroke-linejoin="round"/>
<path d="M275.684 391.064C281.045 391.064 285.39 386.718 285.39 381.358C285.39 375.997 281.045 371.651 275.684 371.651C270.323 371.651 265.978 375.997 265.978 381.358C265.978 386.718 270.323 391.064 275.684 391.064Z" fill="white" stroke="#1B771B" stroke-width="5.17669" stroke-miterlimit="10" stroke-linecap="round" stroke-linejoin="round"/>
<path d="M249.646 326.717C255.007 326.717 259.352 322.371 259.352 317.011C259.352 311.65 255.007 307.304 249.646 307.304C244.285 307.304 239.94 311.65 239.94 317.011C239.94 322.371 244.285 326.717 249.646 326.717Z" fill="white" stroke="#1B771B" stroke-width="5.17669" stroke-miterlimit="10" stroke-linecap="round" stroke-linejoin="round"/>
<path d="M223.141 244.356C228.502 244.356 232.847 240.01 232.847 234.65C232.847 229.289 228.502 224.943 223.141 224.943C217.78 224.943 213.435 229.289 213.435 234.65C213.435 240.01 217.78 244.356 223.141 244.356Z" fill="white" stroke="#1B771B" stroke-width="5.17669" stroke-miterlimit="10" stroke-linecap="round" stroke-linejoin="round"/>
<path d="M228.602 182.443C233.963 182.443 238.308 178.098 238.308 172.737C238.308 167.376 233.963 163.031 228.602 163.031C223.241 163.031 218.896 167.376 218.896 172.737C218.896 178.098 223.241 182.443 228.602 182.443Z" fill="white" stroke="#1B771B" stroke-width="5.17669" stroke-miterlimit="10" stroke-linecap="round" stroke-linejoin="round"/>
<path d="M275.684 133.885C281.045 133.885 285.39 129.54 285.39 124.179C285.39 118.818 281.045 114.473 275.684 114.473C270.323 114.473 265.978 118.818 265.978 124.179C265.978 129.54 270.323 133.885 275.684 133.885Z" fill="white" stroke="#1B771B" stroke-width="5.17669" stroke-miterlimit="10" stroke-linecap="round" stroke-linejoin="round"/>
<path d="M343.654 99.9006C349.015 99.9006 353.361 95.555 353.361 90.1943C353.361 84.8337 349.015 80.488 343.654 80.488C338.294 80.488 333.948 84.8337 333.948 90.1943C333.948 95.555 338.294 99.9006 343.654 99.9006Z" fill="white" stroke="#1B771B" stroke-width="5.17669" stroke-miterlimit="10" stroke-linecap="round" stroke-linejoin="round"/>
<path d="M442.53 75.6223C447.89 75.6223 452.236 71.2766 452.236 65.916C452.236 60.5554 447.89 56.2097 442.53 56.2097C437.169 56.2097 432.823 60.5554 432.823 65.916C432.823 71.2766 437.169 75.6223 442.53 75.6223Z" fill="white" stroke="#1B771B" stroke-width="5.17669" stroke-miterlimit="10" stroke-linecap="round" stroke-linejoin="round"/>
<path d="M517.177 51.3435C522.538 51.3435 526.884 46.9978 526.884 41.6372C526.884 36.2766 522.538 31.9309 517.177 31.9309C511.817 31.9309 507.471 36.2766 507.471 41.6372C507.471 46.9978 511.817 51.3435 517.177 51.3435Z" fill="white" stroke="#1B771B" stroke-width="5.17669" stroke-miterlimit="10" stroke-linecap="round" stroke-linejoin="round"/>
</svg>
