<svg width="310" height="759" viewBox="0 0 310 759" fill="none" xmlns="http://www.w3.org/2000/svg">
<path d="M231.056 5C211.939 14.7494 191.84 21.9318 179.059 40.0105C170.292 52.409 173.925 65.2989 173.652 79.1175C173.324 95.1753 170.866 108.612 174.935 124.697C182.145 153.235 198.94 178.305 204.675 207.362C210.464 236.801 214.615 248.954 239.248 265.613C249.08 272.249 257.791 278.776 264.51 288.361C287.613 321.351 277.809 370.617 239.576 384.627C229.062 388.477 219.558 389.952 211.202 397.599C187.443 419.282 164.913 436.432 147.626 464.916C143.338 471.962 139.324 479.363 135.5 487.146C121.9 514.783 108.847 538.023 86.016 557.904C69.5484 572.242 39.5901 584.804 25.8809 602.883" stroke="#FFA506" stroke-width="10.2462" stroke-miterlimit="10" stroke-linejoin="round" stroke-dasharray="12.81 12.81"/>
<path d="M26.4001 623.31C37.6667 623.31 46.8001 614.177 46.8001 602.91C46.8001 591.644 37.6667 582.51 26.4001 582.51C15.1334 582.51 6 591.644 6 602.91C6 614.177 15.1334 623.31 26.4001 623.31Z" fill="white" stroke="#FFA506" stroke-width="10.2462" stroke-miterlimit="10" stroke-linecap="round" stroke-linejoin="round"/>
<path d="M53.2586 681.756V737.423C53.2586 737.423 52.3029 737.004 50.4425 736.367C45.4138 734.691 33.5462 731.539 15.7783 731.539V675.889C40.1003 675.889 53.2586 681.756 53.2586 681.756Z" stroke="#FFA506" stroke-width="2.16667" stroke-linecap="round" stroke-linejoin="round"/>
<path d="M22.0146 688.545C30.1885 688.864 38.3038 690.067 46.219 692.132" stroke="#FFA506" stroke-width="2.16667" stroke-linecap="round" stroke-linejoin="round"/>
<path d="M22.0146 697.395C30.1901 697.709 38.3067 698.918 46.219 700.999" stroke="#FFA506" stroke-width="2.16667" stroke-linecap="round" stroke-linejoin="round"/>
<path d="M22.0146 706.262C30.1894 706.572 38.3058 707.775 46.219 709.849" stroke="#FFA506" stroke-width="2.16667" stroke-linecap="round" stroke-linejoin="round"/>
<path d="M22.0146 715.112C30.1885 715.431 38.3038 716.634 46.219 718.699" stroke="#FFA506" stroke-width="2.16667" stroke-linecap="round" stroke-linejoin="round"/>
<path d="M84.1176 688.545C75.9438 688.864 67.8284 690.067 59.9131 692.132" stroke="#FFA506" stroke-width="2.16667" stroke-linecap="round" stroke-linejoin="round"/>
<path d="M84.1176 697.395C75.9421 697.709 67.8258 698.918 59.9131 700.999" stroke="#FFA506" stroke-width="2.16667" stroke-linecap="round" stroke-linejoin="round"/>
<path d="M84.1176 706.262C75.943 706.572 67.8266 707.775 59.9131 709.849" stroke="#FFA506" stroke-width="2.16667" stroke-linecap="round" stroke-linejoin="round"/>
<path d="M84.1176 715.112C75.9438 715.431 67.8284 716.634 59.9131 718.699" stroke="#FFA506" stroke-width="2.16667" stroke-linecap="round" stroke-linejoin="round"/>
<path d="M50.4419 739.4V743.372C50.4419 743.372 35.8591 737.506 8.88867 737.506V681.839C9.84411 681.839 10.7828 681.839 11.7047 681.839V734.489C31.7187 734.489 44.9775 737.741 50.4419 739.4Z" stroke="#FFA506" stroke-width="2.16667" stroke-linecap="round" stroke-linejoin="round"/>
<path d="M53.2593 737.424V740.374C53.2593 740.374 52.3207 739.989 50.4435 739.402C44.9788 737.726 31.7871 734.491 11.7061 734.491V678.606C13.0973 678.606 14.455 678.606 15.7792 678.606V731.54C33.5471 731.54 45.3477 734.675 50.4435 736.368C52.3039 737.005 53.2593 737.424 53.2593 737.424Z" stroke="#FFA506" stroke-width="2.16667" stroke-linecap="round" stroke-linejoin="round"/>
<path d="M90.7557 675.889V731.539C72.9879 731.539 61.1873 734.674 56.0916 736.367C54.2309 737.004 53.2588 737.423 53.2588 737.423V681.756C53.2588 681.756 66.4171 675.889 90.7557 675.889Z" stroke="#FFA506" stroke-width="2.16667" stroke-linecap="round" stroke-linejoin="round"/>
<path d="M97.645 681.839V737.506C70.6746 737.506 56.0918 743.372 56.0918 743.372V739.4C61.5561 737.724 74.748 734.489 94.8289 734.489V681.956C95.7508 681.839 96.6896 681.839 97.645 681.839Z" stroke="#FFA506" stroke-width="2.16667" stroke-linecap="round" stroke-linejoin="round"/>
<path d="M94.8287 678.606V734.491C74.7143 734.491 61.556 737.743 56.0916 739.402C54.2141 739.989 53.2588 740.374 53.2588 740.374V737.424C53.2588 737.424 54.2309 737.005 56.0916 736.368C61.1203 734.692 72.9879 731.54 90.7557 731.54V678.606C92.0632 678.606 93.4375 678.606 94.8287 678.606Z" stroke="#FFA506" stroke-width="2.16667" stroke-linecap="round" stroke-linejoin="round"/>
<path d="M56.0913 739.402V743.375C56.0913 743.375 55.89 745.051 53.359 745.051C50.8278 745.051 50.4424 743.375 50.4424 743.375V739.402C52.3196 739.989 53.2585 740.374 53.2585 740.374C53.2585 740.374 54.2138 739.989 56.0913 739.402Z" stroke="#FFA506" stroke-width="2.16667" stroke-linecap="round" stroke-linejoin="round"/>
<path d="M76.7598 710.135L108.407 727.601L99.0198 733.971L106.764 745.369L102.607 748.185L98.4498 751.001L90.7226 739.603L81.3358 745.973L76.7598 710.135Z" fill="white" stroke="#FFA506" stroke-width="2.16667" stroke-linecap="round" stroke-linejoin="round"/>
<text fill="#1E1E1E" xml:space="preserve" style="white-space: pre" font-family="Titillium Web" font-size="40" font-weight="600" letter-spacing="0px"><tspan x="131" y="701.9">Acces la </tspan><tspan x="131" y="743.9">educa&#x21b;ie</tspan></text>
</svg>
