<svg width="577" height="407" viewBox="0 0 577 407" fill="none" xmlns="http://www.w3.org/2000/svg">
<g clip-path="url(#clip0)">
<path d="M168.344 183.013C170.194 175.46 170.733 167.445 170.81 160.02C170.836 156.552 170.759 153.007 170.682 149.411C170.373 136.669 169.988 123.361 174.535 111.544C174.972 110.414 175.537 109.232 176.231 108.076C184.4 94.2808 209.011 79.0725 223.345 74.0374C238.143 68.8481 252.888 75.2448 266.53 83.748C275.47 89.3227 283.947 95.7965 291.654 100.472C294.685 102.322 298.153 105.25 301.699 108.282C307.145 112.906 312.797 117.71 317.446 119.046C323.072 120.664 329.726 119.585 336.534 117.222C349.301 112.777 362.634 103.709 370.675 99.1104C386.474 90.0934 409.466 94.7689 423.108 81.847C425.394 79.6891 426.396 76.8632 428.425 74.5255C432.638 69.6188 441.681 60.576 452.445 52.715C457.249 49.2213 462.387 45.9587 467.602 43.3897C482.656 35.9911 495.475 43.5439 504.749 41.2832C506.624 40.8208 514.768 39.562 517.363 38.9454C520.214 38.2518 533.29 34.347 543.489 30.8275" stroke="#F90000" stroke-width="9.63847" stroke-miterlimit="10" stroke-linejoin="round" stroke-dasharray="12.05 12.05"/>
<path d="M552.685 43.2099C563.284 43.2099 571.876 34.6182 571.876 24.0198C571.876 13.4214 563.284 4.82965 552.685 4.82965C542.087 4.82965 533.495 13.4214 533.495 24.0198C533.495 34.6182 542.087 43.2099 552.685 43.2099Z" fill="white" stroke="#F90000" stroke-width="9.63847" stroke-miterlimit="10" stroke-linecap="round" stroke-linejoin="round"/>
<path d="M168.344 183.013C166.16 192.004 162.127 200.353 154.882 206.364C151.209 209.421 146.636 210.937 142.243 212.735C139.417 213.891 136.643 215.15 134.202 217.026C128.011 221.752 122.668 227.07 117.222 232.285" stroke="#C8CEDB" stroke-width="9.63847" stroke-miterlimit="10" stroke-linecap="round" stroke-linejoin="round"/>
<path d="M168.652 194.187C173.973 194.187 178.286 189.874 178.286 184.554C178.286 179.233 173.973 174.92 168.652 174.92C163.332 174.92 159.019 179.233 159.019 184.554C159.019 189.874 163.332 194.187 168.652 194.187Z" fill="#404366"/>
<path d="M117.222 232.285C113.342 236.01 109.412 239.709 105.07 243.152C102.604 245.104 100.035 246.954 97.2607 248.701C87.4987 254.841 75.9127 260.338 67.692 268.841" stroke="#C8CEDB" stroke-width="9.63847" stroke-miterlimit="10" stroke-linecap="round" stroke-linejoin="round"/>
<path d="M116.862 241.533C122.182 241.533 126.496 237.22 126.496 231.9C126.496 226.579 122.182 222.266 116.862 222.266C111.542 222.266 107.228 226.579 107.228 231.9C107.228 237.22 111.542 241.533 116.862 241.533Z" fill="#404366"/>
<path d="M67.6921 268.816C64.7378 271.873 62.2202 275.315 60.3962 279.297C58.3154 283.819 57.3906 289.573 56.3887 294.531C55.7978 297.485 56.774 300.106 55.6694 303.188C53.4601 309.328 50.1461 315.237 47.8597 321.377C46.6009 324.716 45.522 328.544 44.8027 332.038C44.6742 332.603 44.5972 333.194 44.5458 333.759" stroke="#F90000" stroke-width="9.63847" stroke-miterlimit="10" stroke-linecap="round" stroke-linejoin="round"/>
<path d="M66.7159 278.912C72.0364 278.912 76.3495 274.599 76.3495 269.278C76.3495 263.958 72.0364 259.645 66.7159 259.645C61.3954 259.645 57.0823 263.958 57.0823 269.278C57.0823 274.599 61.3954 278.912 66.7159 278.912Z" fill="white" stroke="#F90000" stroke-width="5.13792" stroke-miterlimit="10" stroke-linecap="round" stroke-linejoin="round"/>
<path d="M44.5457 333.759C44.2631 336.508 44.5971 339.231 44.0319 342.005C42.9016 347.683 39.8188 353.54 36.1709 358.37C32.7285 362.942 29.7485 367.207 26.7942 372.062C23.8142 376.969 19.8837 380.976 16.8267 385.755C16.056 386.936 15.5165 388.632 14.7201 389.762C13.1788 391.946 11.4576 392.768 9.83911 394.823C7.8867 397.315 7.19309 399.807 4.80396 402.145" stroke="#C8CEDB" stroke-width="9.63847" stroke-miterlimit="10" stroke-linecap="round" stroke-linejoin="round"/>
<path d="M44.0835 345.884C49.404 345.884 53.7171 341.571 53.7171 336.251C53.7171 330.93 49.404 326.617 44.0835 326.617C38.7631 326.617 34.45 330.93 34.45 336.251C34.45 341.571 38.7631 345.884 44.0835 345.884Z" fill="#404366"/>
</g>
<defs>
<clipPath id="clip0">
<rect width="576.705" height="407" fill="white"/>
</clipPath>
</defs>
</svg>
