<svg width="716" height="669" viewBox="0 0 716 669" fill="none" xmlns="http://www.w3.org/2000/svg">
<g clip-path="url(#clip0)">
<path d="M689.602 23.8436C688.277 42.0005 679.665 55.9752 689.806 76.3762C699.718 96.2927 718.93 117.127 707.897 140.053C701.476 153.416 685.092 162.672 672.862 170.552C659.357 179.248 648.63 188.811 636.221 198.808C609.517 220.331 579.144 239.533 549.766 256.517C514.883 276.663 479.389 299.436 474.114 341.717C469.706 377.087 460.355 392.821 437.83 419.547C430.696 428.013 424.3 441.529 416.579 448.644C414.439 450.607 412.222 452.341 409.903 453.871C387.048 468.994 356.395 464.25 332.57 477.537C325.232 481.642 318.734 487.176 311.829 492.072C309.663 493.628 307.447 495.107 305.153 496.458C297.968 500.717 290.961 505.511 283.622 509.515C269.787 517.064 255.186 524.816 243.389 535.603C242.726 536.215 242.064 536.827 241.427 537.439C230.776 547.767 219.718 557.202 207.64 566.077C197.065 573.855 188.3 583.086 177.955 591.247C168.4 598.77 161.138 609.557 150.793 616.646C149.876 617.258 148.958 617.87 147.99 618.431C138.511 623.965 128.803 630.009 118.356 633.808C116.038 634.65 113.006 636.741 110.942 637.276C108.062 638.041 105.285 637.557 102.329 638.296C97.2077 639.572 92.5957 641.153 87.729 642.581C85.4102 643.269 75.6512 644.646 72.6955 644.646C71.447 644.646 70.122 644.595 68.797 644.519C64.873 644.34 60.7452 644.111 57.2544 645.156C53.1265 646.38 51.3174 648.982 46.5016 649.237C37.9912 649.696 22.8813 645.921 15.5939 650.818C10.5233 654.235 7.66945 661.452 2.95557 665.251" stroke="#F90000" stroke-width="10.4594" stroke-miterlimit="10" stroke-linejoin="round" stroke-dasharray="13.07 13.07"/>
<path d="M690.061 42.8931C700.573 42.8931 709.095 34.3644 709.095 23.8437C709.095 13.323 700.573 4.79425 690.061 4.79425C679.549 4.79425 671.027 13.323 671.027 23.8437C671.027 34.3644 679.549 42.8931 690.061 42.8931Z" fill="white" stroke="#F90000" stroke-width="10.4594" stroke-miterlimit="10" stroke-linecap="round" stroke-linejoin="round"/>
</g>
<defs>
<clipPath id="clip0">
<rect width="716" height="669" fill="white"/>
</clipPath>
</defs>
</svg>
