<svg width="403" height="245" viewBox="0 0 403 245" fill="none" xmlns="http://www.w3.org/2000/svg">
<path d="M24.2778 25.3639C30.579 38.0987 35.0005 51.1777 34.7357 64.4155C34.0209 100.82 21.7362 125.654 32.2735 163.196C46.0144 212.15 89.9905 225.52 134.999 235.554C169.709 243.285 200.897 237.037 234.018 227.982C243.303 225.444 235.5 227.603 244.635 225.017C306.456 207.517 340.477 197.006 401.742 208.311" stroke="#1B771B" stroke-width="9.93342" stroke-miterlimit="10" stroke-linejoin="round" stroke-dasharray="12.42 12.42"/>
<path d="M24.7544 44.532C35.6771 44.532 44.5317 35.6774 44.5317 24.7546C44.5317 13.8319 35.6771 4.97729 24.7544 4.97729C13.8317 4.97729 4.97705 13.8319 4.97705 24.7546C4.97705 35.6774 13.8317 44.532 24.7544 44.532Z" fill="white" stroke="#1B771B" stroke-width="9.93342" stroke-miterlimit="10" stroke-linecap="round" stroke-linejoin="round"/>
</svg>
