<svg width="320" height="199" viewBox="0 0 320 199" fill="none" xmlns="http://www.w3.org/2000/svg">
<g clip-path="url(#clip0)">
<path d="M96.3667 120.01C118.484 107.827 142.341 106.595 163.869 95.617C169.224 92.8858 174.687 89.9672 179.961 86.8612C183.228 84.9333 186.414 82.9251 189.494 80.8366C193.564 78.0519 200.043 73.9016 203.23 70.2869" stroke="#C8CEDB" stroke-width="10.0461" stroke-miterlimit="10" stroke-linecap="round" stroke-linejoin="round"/>
<path d="M30.0425 162.423C42.6004 144.644 62.3343 137.602 81.1311 128.043C86.3524 125.392 91.4399 122.741 96.3666 120.037" stroke="#FFA506" stroke-width="10.0461" stroke-miterlimit="10" stroke-linejoin="round" stroke-dasharray="12.56 12.56"/>
<path d="M229.738 40.512C222.08 43.9393 214.69 47.9825 210.808 53.659C207.22 58.8803 207.782 65.1191 203.203 70.2869" stroke="#C8CEDB" stroke-width="10.0461" stroke-miterlimit="10" stroke-linecap="round" stroke-linejoin="round"/>
<path d="M314.993 5.03369C303.694 10.0676 292.019 14.1911 280.854 17.8594C279.836 18.1807 278.845 18.502 277.855 18.8501C266.636 22.4916 258.308 26.6955 248.267 32.2649C243.233 35.0496 236.379 37.5665 229.738 40.5387" stroke="#C8CEDB" stroke-width="10.0461" stroke-miterlimit="10" stroke-linecap="round" stroke-linejoin="round"/>
<path d="M25.0355 193.456C36.0821 193.456 45.0372 184.501 45.0372 173.455C45.0372 162.408 36.0821 153.453 25.0355 153.453C13.9889 153.453 5.03381 162.408 5.03381 173.455C5.03381 184.501 13.9889 193.456 25.0355 193.456Z" fill="white" stroke="#FFA506" stroke-width="10.0461" stroke-miterlimit="10" stroke-linecap="round" stroke-linejoin="round"/>
<path d="M230.729 49.4553C236.274 49.4553 240.77 44.9598 240.77 39.4143C240.77 33.8688 236.274 29.3733 230.729 29.3733C225.183 29.3733 220.688 33.8688 220.688 39.4143C220.688 44.9598 225.183 49.4553 230.729 49.4553Z" fill="#404366"/>
<path d="M261.709 34.1128C267.254 34.1128 271.75 29.6173 271.75 24.0718C271.75 18.5263 267.254 14.0308 261.709 14.0308C256.163 14.0308 251.668 18.5263 251.668 24.0718C251.668 29.6173 256.163 34.1128 261.709 34.1128Z" fill="#404366"/>
<path d="M203.337 79.8999C208.882 79.8999 213.378 75.4044 213.378 69.8589C213.378 64.3134 208.882 59.8179 203.337 59.8179C197.791 59.8179 193.296 64.3134 193.296 69.8589C193.296 75.4044 197.791 79.8999 203.337 79.8999Z" fill="#404366"/>
<path d="M175.865 98.4016C181.411 98.4016 185.906 93.9061 185.906 88.3606C185.906 82.8151 181.411 78.3196 175.865 78.3196C170.32 78.3196 165.824 82.8151 165.824 88.3606C165.824 93.9061 170.32 98.4016 175.865 98.4016Z" fill="#404366"/>
<path d="M141.431 112.887C146.976 112.887 151.472 108.392 151.472 102.846C151.472 97.3009 146.976 92.8054 141.431 92.8054C135.885 92.8054 131.39 97.3009 131.39 102.846C131.39 108.392 135.885 112.887 141.431 112.887Z" fill="#404366"/>
<path d="M92.8325 129.89C98.378 129.89 102.874 125.395 102.874 119.849C102.874 114.304 98.378 109.808 92.8325 109.808C87.287 109.808 82.7915 114.304 82.7915 119.849C82.7915 125.395 87.287 129.89 92.8325 129.89Z" fill="#404366"/>
</g>
<defs>
<clipPath id="clip0">
<rect width="320" height="198.464" fill="white"/>
</clipPath>
</defs>
</svg>
