<svg viewBox="0 0 1200 1000" fill="none" xmlns="http://www.w3.org/2000/svg">
<g id="segment-environment-02-pregatiti-pentru-urmatorul-cutremur">
<g id="Group 1171">
<g id="Group 1119">
<path id="Vector" d="M862.188 232C846.105 241.172 827.861 245.872 808.863 246.751C805.797 246.902 802.731 246.927 799.641 246.877C784.764 246.625 773.154 252.104 758.554 251.928C739.556 251.702 719 248.183 698.494 246.198" stroke="#1B771B" stroke-width="9.42835" stroke-miterlimit="10" stroke-linecap="round" stroke-linejoin="round"/>
<path id="Vector_2" d="M698.468 246.199C677.234 244.163 656.024 243.761 636.65 250.471C619.159 256.502 604.132 267.609 591.467 281.33C573.022 301.308 559.552 326.864 550.707 350.587C544.977 365.941 548.571 381.22 547.842 397.026C547.741 399.137 547.565 401.273 547.289 403.409C545.153 419.291 537.79 434.193 533.116 449.195C530.502 457.588 527.914 465.755 525.552 474.224C523.944 479.979 523.592 485.306 523.165 490.709C522.913 493.699 522.662 496.69 522.109 499.781C517.686 525.539 489.742 539.033 474.413 558.282C469.312 564.69 465.266 571.802 460.617 578.537C459.009 580.874 457.401 583.085 455.767 585.221C440.664 604.998 424.858 615.929 400.608 626.233C382.515 633.922 373.217 638.898 363.668 656.69C357.787 667.671 355.149 691.217 352.561 699.711" stroke="#C8CEDB" stroke-width="9.42835" stroke-miterlimit="10" stroke-linecap="round" stroke-linejoin="round"/>
<path id="Vector 2" d="M546 365.5C549 353 560.5 321 574.319 305.066" stroke="#1B771B" stroke-width="9.43"/>
<path id="Vector_3" d="M354.772 706.421C365.139 706.421 373.544 698.016 373.544 687.649C373.544 677.282 365.139 668.877 354.772 668.877C344.404 668.877 336 677.282 336 687.649C336 698.016 344.404 706.421 354.772 706.421Z" fill="white" stroke="#1B771B" stroke-width="9.42835" stroke-miterlimit="10" stroke-linecap="round" stroke-linejoin="round"/>
<path id="Vector_4" d="M503.715 540.968C508.919 540.968 513.138 536.749 513.138 531.545C513.138 526.34 508.919 522.121 503.715 522.121C498.51 522.121 494.291 526.34 494.291 531.545C494.291 536.749 498.51 540.968 503.715 540.968Z" fill="#404366"/>
<path id="Vector_5" d="M528.417 476.435C533.621 476.435 537.84 472.216 537.84 467.011C537.84 461.807 533.621 457.588 528.417 457.588C523.212 457.588 518.993 461.807 518.993 467.011C518.993 472.216 523.212 476.435 528.417 476.435Z" fill="#404366"/>
<path id="Vector_6" d="M544.851 427.911C550.056 427.911 554.275 423.691 554.275 418.487C554.275 413.282 550.056 409.063 544.851 409.063C539.647 409.063 535.428 413.282 535.428 418.487C535.428 423.691 539.647 427.911 544.851 427.911Z" fill="#404366"/>
<path id="Vector_7" d="M547.818 379.411C553.023 379.411 557.242 375.192 557.242 369.988C557.242 364.783 553.023 360.564 547.818 360.564C542.614 360.564 538.395 364.783 538.395 369.988C538.395 375.192 542.614 379.411 547.818 379.411Z" fill="white" stroke="#1B771B" stroke-width="5.02591" stroke-miterlimit="10" stroke-linecap="round" stroke-linejoin="round"/>
<path id="Vector_8" d="M572.545 314.5C577.749 314.5 581.968 310.281 581.968 305.077C581.968 299.872 577.749 295.653 572.545 295.653C567.34 295.653 563.121 299.872 563.121 305.077C563.121 310.281 567.34 314.5 572.545 314.5Z" fill="#404366"/>
<path id="Vector_9" d="M691.131 254.919C696.335 254.919 700.554 250.699 700.554 245.495C700.554 240.29 696.335 236.071 691.131 236.071C685.926 236.071 681.707 240.29 681.707 245.495C681.707 250.699 685.926 254.919 691.131 254.919Z" fill="white" stroke="#1B771B" stroke-width="5.02591" stroke-miterlimit="10" stroke-linecap="round" stroke-linejoin="round"/>
<path id="Vector_10" d="M779.611 258.687C784.816 258.687 789.035 254.468 789.035 249.264C789.035 244.059 784.816 239.84 779.611 239.84C774.407 239.84 770.188 244.059 770.188 249.264C770.188 254.468 774.407 258.687 779.611 258.687Z" fill="white" stroke="#1B771B" stroke-width="5.02591" stroke-miterlimit="10" stroke-linecap="round" stroke-linejoin="round"/>
</g>
<text class="btn-project" text-decoration="underline" cursor="pointer" data-projectid="1" id="ECutremur" fill="#1E1E1E" xml:space="preserve" style="white-space: pre" font-family="Titillium Web" font-size="20" font-weight="600" letter-spacing="0px"><tspan x="780" y="288.45">ECutremur  </tspan></text>
<text class="btn-project" text-decoration="underline" cursor="pointer" data-projectid="2" id="Seismic risc" fill="#1E1E1E" xml:space="preserve" style="white-space: pre" font-family="Titillium Web" font-size="20" font-weight="600" letter-spacing="0px"><tspan x="582" y="219.45">Seismic risc</tspan></text>
<text class="btn-project" text-decoration="underline" cursor="pointer" data-projectid="3" id="Expertizare Digital&#196;&#131;" fill="#1E1E1E" xml:space="preserve" style="white-space: pre" font-family="Titillium Web" font-size="20" font-weight="600" letter-spacing="0px"><tspan x="603" y="322.45">Expertizare Digital&#x103; </tspan></text>
<text class="btn-project" text-decoration="underline" cursor="pointer" data-projectid="4" id="De Urgen&#200;&#155;&#196;&#131;" fill="#1E1E1E" xml:space="preserve" style="white-space: pre" font-family="Titillium Web" font-size="20" font-weight="600" letter-spacing="0px"><tspan x="576" y="371.45">De Urgen&#x21b;&#x103;</tspan></text>
<text class="btn-project" text-decoration="underline" cursor="pointer" data-projectid="5" id="Shelter People&#226;&#128;&#168;Database" fill="#1E1E1E" xml:space="preserve" style="white-space: pre" font-family="Titillium Web" font-size="20" font-weight="600" letter-spacing="0px"><tspan x="573" y="418.45">Shelter People&#x2028;</tspan><tspan x="573" y="440.45">Database</tspan></text>
<text class="btn-project" text-decoration="underline" cursor="pointer" data-projectid="6" id="Brigada de evaluare" fill="#1E1E1E" xml:space="preserve" style="white-space: pre" font-family="Titillium Web" font-size="20" font-weight="600" letter-spacing="0px"><tspan x="557" y="483.45">Brigada de evaluare</tspan></text>
<text class="btn-project" text-decoration="underline" cursor="pointer" data-projectid="7" id="Seismic Watchdog" fill="#1E1E1E" xml:space="preserve" style="white-space: pre" font-family="Titillium Web" font-size="20" font-weight="600" letter-spacing="0px"><tspan x="533" y="548.45">Seismic&#13;Watchdog</tspan></text>
<text id="Preg&#196;&#131;ti&#200;&#155;i pentru &#226;&#128;&#168;urm&#196;&#131;torul cutremur" fill="#1E1E1E" xml:space="preserve" style="white-space: pre" font-family="Titillium Web" font-size="40" font-weight="600" letter-spacing="0px"><tspan x="449" y="755.9">Preg&#x103;ti&#x21b;i pentru &#x2028;</tspan><tspan x="449" y="797.9">urm&#x103;torul cutremur</tspan></text>
<g id="icon-pregatiti-pentru-urmatorul-cutremur 1">
<path id="Vector_11" d="M416.999 785.269C416.999 785.43 416.886 785.591 416.87 785.768C415.807 785.188 416.628 788.007 416.677 788.248C415.823 787.942 416.677 790.246 416.677 790.648C416.464 791.487 416.195 792.31 415.871 793.112C415.71 793.966 415.871 794.224 414.937 794.256C413.612 794.307 412.296 794.03 411.104 793.451C410.57 793.296 410.08 793.02 409.67 792.645C409.364 792.227 409.525 791.035 408.978 790.68C408.43 790.326 407.979 791.083 407.625 791.164C406.562 791.389 407.094 790.616 406.417 790.246C406.095 790.085 405.386 790.358 405 790.374C404.61 790.431 404.214 790.431 403.824 790.374C403.599 790.278 403.599 790.181 403.405 790.052C403.248 789.949 403.098 789.836 402.954 789.714C402.809 789.585 402.697 789.601 402.552 789.456C402.407 789.311 402.552 789.118 402.552 789.102C402.149 788.78 401.537 788.812 400.941 788.587C400.683 788.587 400.458 788.232 400.2 788.168C399.942 788.104 399.846 788.297 399.636 788.313C398.968 788.415 398.324 788.639 397.736 788.973C396.871 789.247 395.981 789.43 395.079 789.521C393.773 789.624 392.491 789.928 391.278 790.423C390.73 790.68 390.666 791.115 390.295 791.502C389.925 791.888 389.345 792.13 388.975 792.565C388.266 793.402 387.831 794.175 386.8 794.514C386.412 794.664 386.036 794.842 385.673 795.045C385.258 795.158 384.831 795.223 384.401 795.238C383.756 795.367 383.643 795.593 382.983 795.238C382.59 794.955 382.148 794.747 381.679 794.626C380.385 794.327 379.06 794.187 377.733 794.208C376.525 794.208 375.414 793.241 374.302 793.354C373.851 793.354 373.577 793.821 373.159 793.95C372.507 794.079 371.839 794.111 371.178 794.047C369.854 793.803 368.556 793.442 367.296 792.967C366.7 792.774 366.411 792.967 365.814 792.967C365.219 792.967 364.751 792.436 364.204 792.307C363.006 792.219 361.803 792.389 360.677 792.806C359.259 793.048 357.697 793.306 358.148 791.454C358.325 790.713 358.422 790.713 359.082 790.487C359.743 790.262 360.194 790.133 359.855 789.489C359.678 789.118 358.97 789.15 358.583 788.957C357.94 788.622 357.34 788.212 356.795 787.733C356.248 787.266 356.618 787.266 356.377 786.702C356.135 786.139 356.022 786.38 355.539 786.155C355.113 785.968 354.777 785.621 354.605 785.188C354.605 785.043 354.251 784.27 354.251 784.19C354.251 783.594 354.396 783.836 354.653 783.562C354.911 783.288 354.895 783.562 354.975 783.433C355.056 783.304 354.975 783.159 354.975 783.095C355.281 782.805 355.201 782.644 355.732 782.724C356.264 782.805 356.264 783.224 356.715 782.982C357.166 782.74 357.037 782.595 356.86 782.273C356.538 781.694 356.087 781.903 355.555 781.709C355.024 781.516 354.379 780.099 353.59 780.389C353.397 780.389 353.252 780.776 353.075 780.888C352.898 781.001 352.672 780.888 352.559 781.049C352.228 781.442 351.966 781.888 351.786 782.37C351.19 783.433 350.804 784.158 350.047 782.918C349.882 782.683 349.737 782.435 349.612 782.177C349.322 781.468 349.258 781.5 348.581 781.21C347.905 780.92 348.066 780.92 347.583 780.969C347.1 781.017 346.439 781.42 345.827 780.969C345.215 780.518 345.505 780.083 345.151 779.777C344.797 779.471 344.152 779.777 343.669 779.632C343.186 779.487 342.365 778.955 342.88 778.504C343.395 778.053 345.715 778.36 344.184 777.345C343.862 777.152 342.703 776.894 342.783 776.54C342.864 776.185 343.17 776.379 343.331 776.185C343.486 775.993 343.606 775.775 343.685 775.541C343.766 775.38 343.685 775.235 343.766 775.074C343.857 775.016 343.954 774.967 344.056 774.929C344.201 774.51 344.313 774.43 343.798 773.995C343.283 773.56 342.026 773.576 341.334 773.061C341.06 772.851 340.931 772.336 340.593 772.207C340.255 772.078 340.384 772.465 340.287 772.433L339.981 772.304C339.047 772.127 338.274 771.031 337.662 770.371C337.662 770.371 336.889 769.791 336.872 769.727C336.728 769.389 337.146 769.26 337.13 768.873C337.114 768.487 336.744 768.261 336.711 767.891C336.769 767.541 336.855 767.196 336.969 766.86C337.009 766.502 337.009 766.139 336.969 765.781C336.728 765.362 336.679 765.781 336.518 765.781C336.357 765.781 336.405 766.087 335.954 765.781C335.503 765.475 335.665 765.04 335.471 764.67C335.02 763.848 334.36 763.687 333.651 763.22C333.289 763.028 332.948 762.795 332.637 762.528C332.331 762.205 332.315 761.69 332.089 761.32C331.864 760.949 331.155 760.466 331.912 760.063C332.221 760.007 332.537 760.007 332.846 760.063C333.055 760.08 333.265 760.08 333.474 760.063C333.587 760.063 333.619 759.79 333.716 759.774C334.489 759.645 335.149 760.772 336.003 760.047C336.003 760.047 336.438 759.403 336.405 759.484C336.441 759.207 336.511 758.937 336.615 758.678C336.985 758.066 337.887 758.372 338.37 758.437C338.853 758.501 339.079 758.566 339.304 758.566C339.53 758.566 339.449 758.759 339.739 758.678C340.029 758.598 340.11 758.211 340.255 758.082C340.4 757.954 340.545 758.082 340.722 757.841C340.899 757.599 340.802 757.245 340.867 756.955C341.124 756.037 341.447 756.665 341.897 756.166C342.348 755.667 341.64 755.248 341.753 754.781C341.753 754.571 342.059 754.41 342.139 754.185C342.22 753.959 342.139 753.476 342.316 753.251C342.493 753.025 342.735 753.251 342.977 753.138C343.218 753.025 343.25 752.784 343.428 752.623C343.605 752.462 344.265 752.139 344.297 751.608C344.297 751.608 343.975 751.415 343.959 751.237C344.018 751.013 344.105 750.797 344.217 750.593C344.474 750.094 344.909 750.078 345.119 749.707C345.328 749.337 345.038 749.144 345.119 748.854C345.199 748.564 346.004 748.435 345.908 747.71C345.908 747.517 345.57 747.308 345.57 747.227C345.57 746.712 346.375 746.47 346.665 746.148C347.067 745.64 347.343 745.044 347.47 744.409C347.558 744.01 347.671 743.617 347.808 743.233C348.114 742.524 348.501 742.54 348.952 742.106C349.773 741.332 348.726 740.157 349.87 739.319C350.224 739.045 350.675 738.981 350.949 738.675C351.08 738.409 351.193 738.135 351.287 737.854C351.593 737.274 351.803 736.694 352.576 736.565C353.349 736.436 352.914 736.662 353.461 736.163C353.703 735.937 353.461 735.824 353.928 735.824C354.396 735.824 354.573 736.211 354.943 736.227C355.314 736.243 355.7 735.953 356.054 735.679C356.374 735.494 356.671 735.272 356.94 735.019C357.021 734.922 356.94 734.584 357.15 734.359C357.359 734.133 357.568 734.198 357.713 734.053C357.903 733.836 358.075 733.604 358.229 733.36C358.358 733.183 358.631 732.539 358.712 732.507C358.792 732.474 359.227 732.941 359.678 732.748C360.129 732.555 360.065 731.572 360.564 731.234C361.063 730.896 361.595 731.363 361.949 731.621C362.69 732.184 363.238 733.231 364.301 732.99C364.413 732.99 364.526 732.651 364.687 732.603C365.17 732.41 365.718 732.7 366.201 732.764C366.684 732.829 367.167 732.764 367.683 733.119C367.86 733.263 367.956 733.537 368.118 733.586C368.279 733.634 368.842 733.231 369.165 733.199C370.163 733.102 370.775 734.262 371.806 734.149C372.308 734.001 372.794 733.801 373.255 733.553C373.693 733.367 374.181 733.333 374.64 733.457C374.895 733.469 375.144 733.538 375.37 733.658C375.595 733.777 375.792 733.945 375.945 734.149C376.235 734.632 375.945 734.842 376.589 735.212C377.233 735.583 377.395 735.502 377.765 735.969C378.135 736.436 378.103 736.952 378.957 736.887C380.648 736.775 380.712 735.663 381.647 734.584C382.581 733.505 384.255 733.924 385.319 733.811C386.382 733.698 387.606 733.296 388.781 733.102C389.297 733.102 389.876 733.102 390.392 732.957C390.624 732.954 390.852 732.896 391.056 732.787C391.261 732.677 391.436 732.52 391.568 732.329C392.215 731.544 392.618 730.587 392.727 729.575C392.738 729.541 392.759 729.512 392.789 729.491C392.818 729.471 392.853 729.461 392.888 729.463C393.553 729.417 394.208 729.281 394.837 729.06C395.288 728.963 395.836 728.625 396.27 728.577C396.705 728.528 396.866 728.834 397.076 728.577C397.188 728.85 397.253 728.754 397.494 728.818C397.728 728.856 397.952 728.938 398.155 729.06C398.397 729.189 398.847 729.382 398.864 729.865C399.234 729.285 400.039 730.316 399.443 730.413C399.669 730.848 400.055 730.413 400.265 730.815C400.265 730.815 400.152 731.234 400.265 731.395C400.377 731.556 400.732 731.814 400.893 732.104C401.054 732.394 400.7 732.329 400.78 732.442C400.86 732.555 400.99 732.442 401.183 732.587C401.376 732.732 401.746 732.925 401.392 733.28C401.924 733.505 401.392 733.618 401.489 733.811C401.585 734.004 401.891 734.069 401.891 734.407C401.891 734.745 401.891 734.987 402.31 735.277C402.181 735.277 402.085 735.438 401.956 735.486C402.23 735.744 403.067 736.855 402.503 736.968C402.713 738.127 404.001 738.739 404.323 739.657C404.517 740.205 404.581 740.205 405.016 740.479C405.451 740.753 405.419 740.64 405.531 741.026C405.531 741.026 405.628 741.494 405.628 741.542C405.645 741.745 405.688 741.945 405.757 742.138C405.982 742.766 406.224 742.846 406.691 743.201C407.158 743.555 408.301 744.811 407.77 745.246C407.915 745.439 408.221 745.778 408.301 745.858L408.656 746.229C408.978 746.583 409.59 747.388 410.105 747.114C410.266 747.614 410.701 747.936 410.846 748.467C410.991 748.999 410.846 749.112 410.975 749.498C411.234 750.488 411.607 751.445 412.086 752.349C412.424 753.202 412.086 753.621 412.086 754.346C412.086 755.071 412.376 755.586 412.086 756.295C411.943 756.879 411.765 757.454 411.555 758.018C411.555 758.163 411.249 758.308 411.168 758.437C410.927 758.872 411.168 758.646 411.168 759.194C411.101 759.94 410.966 760.678 410.766 761.4C410.769 762.106 410.856 762.808 411.023 763.494C411.044 763.724 411.044 763.956 411.023 764.186C411.09 764.674 411.219 765.15 411.41 765.604C411.561 766.214 411.61 766.846 411.555 767.472C411.329 767.746 410.798 767.585 410.492 768.036C410.703 768.098 410.899 768.203 411.068 768.345C411.237 768.486 411.375 768.66 411.474 768.857C411.635 769.244 411.474 769.485 411.797 769.84C412.118 770.194 412.489 770.033 412.747 770.484C413.004 770.935 412.747 771.434 413.133 771.805C413.52 772.175 414.824 772.61 415.533 772.9C416.241 773.19 417.45 773.592 417.949 773.029C417.289 772.9 417.643 772.497 417.836 772.255C418.029 772.014 417.723 771.949 418.174 771.901C418.41 771.985 418.637 772.093 418.851 772.223C419.092 772.336 419.092 772.61 419.414 772.481C419.737 772.352 419.414 772.078 419.608 771.949C420.07 771.662 420.561 771.425 421.073 771.241C421.647 770.857 422.286 770.579 422.958 770.419C423.148 770.364 423.342 770.321 423.537 770.291C424.281 770.306 425.01 770.499 425.663 770.854C425.968 771.003 426.228 771.231 426.415 771.515C426.602 771.798 426.709 772.126 426.726 772.465C426.726 772.835 426.726 773.528 426.259 773.415C426.388 773.769 426.565 774.236 427.032 774.204C426.388 774.687 426.469 776.362 426.388 777.135C426.308 777.909 426.388 778.746 425.696 779.036C425.003 779.326 423.666 779.31 422.845 779.519C421.476 779.857 420.123 779.632 419.108 780.791C418.193 782.174 417.482 783.682 416.999 785.269Z" stroke="#1B771B" stroke-width="1.92857" stroke-linecap="round" stroke-linejoin="round"/>
<path id="Vector_12" d="M353.785 777.023C351.123 770.791 349.969 764.02 350.416 757.259C350.864 750.497 352.901 743.937 356.362 738.111" stroke="#1B771B" stroke-width="1.92857" stroke-linecap="round" stroke-linejoin="round"/>
<path id="Vector_13" d="M385.078 792.226C379.331 790.725 374.093 787.709 369.909 783.493C365.725 779.276 362.749 774.015 361.291 768.257C359.834 762.499 359.948 756.455 361.622 750.756C363.296 745.057 366.468 739.911 370.808 735.856" stroke="#1B771B" stroke-width="1.92857" stroke-linecap="round" stroke-linejoin="round"/>
<path id="Vector_14" d="M413.296 775.749C410.643 779.11 407.18 781.742 403.232 783.398C399.284 785.054 394.979 785.679 390.723 785.216C386.466 784.752 382.398 783.215 378.898 780.748C375.399 778.28 372.584 774.965 370.717 771.112C368.85 767.258 367.993 762.994 368.226 758.719C368.459 754.444 369.775 750.298 372.049 746.67C374.324 743.043 377.483 740.053 381.229 737.981C384.976 735.909 389.188 734.823 393.469 734.824C395.345 734.819 397.215 735.03 399.042 735.452" stroke="#1B771B" stroke-width="1.92857" stroke-linecap="round" stroke-linejoin="round"/>
<path id="Vector_15" d="M408.59 772.079C406.265 775.021 403.135 777.223 399.581 778.416C396.027 779.61 392.202 779.744 388.573 778.802C384.944 777.861 381.667 775.884 379.142 773.112C376.617 770.341 374.952 766.895 374.351 763.194C373.75 759.494 374.238 755.698 375.756 752.27C377.274 748.842 379.756 745.929 382.9 743.887C386.045 741.845 389.715 740.761 393.464 740.768C397.213 740.775 400.879 741.873 404.016 743.927" stroke="#1B771B" stroke-width="1.92857" stroke-linecap="round" stroke-linejoin="round"/>
<path id="Vector_16" d="M393.466 773.448C390.822 773.448 388.238 772.663 386.04 771.192C383.843 769.721 382.131 767.631 381.123 765.187C380.115 762.743 379.856 760.054 380.377 757.462C380.899 754.87 382.179 752.491 384.054 750.627C385.929 748.763 388.316 747.498 390.911 746.992C393.506 746.485 396.193 746.761 398.632 747.784C401.07 748.807 403.15 750.531 404.607 752.737C406.064 754.943 406.834 757.533 406.818 760.177C406.792 763.703 405.375 767.076 402.874 769.561C400.373 772.047 396.992 773.444 393.466 773.448Z" stroke="#1B771B" stroke-width="1.92857" stroke-linecap="round" stroke-linejoin="round"/>
<path id="Vector_17" d="M393.468 767.489C392.003 767.489 390.57 767.053 389.353 766.237C388.136 765.421 387.188 764.262 386.631 762.906C386.074 761.551 385.932 760.06 386.224 758.624C386.516 757.188 387.228 755.871 388.27 754.84C389.312 753.81 390.637 753.112 392.076 752.836C393.515 752.56 395.004 752.718 396.353 753.29C397.703 753.862 398.852 754.822 399.654 756.048C400.457 757.274 400.877 758.711 400.861 760.177C400.835 762.122 400.046 763.979 398.663 765.347C397.28 766.715 395.414 767.485 393.468 767.489Z" stroke="#1B771B" stroke-width="1.92857" stroke-linecap="round" stroke-linejoin="round"/>
<path id="Vector_18" d="M393.468 761.53C394.26 761.53 394.902 760.888 394.902 760.096C394.902 759.304 394.26 758.663 393.468 758.663C392.677 758.663 392.035 759.304 392.035 760.096C392.035 760.888 392.677 761.53 393.468 761.53Z" fill="#1B771B"/>
</g>
</g>
</g>
</svg>
