<svg width="1200" height="1000" viewBox="0 0 1200 1000" fill="none" xmlns="http://www.w3.org/2000/svg">
<g id="segment-environment-06-orase-prietenoase">
<g id="Group 1174">
<g id="Group 1123">
<path id="Vector" d="M396.626 308.931C399.902 309.54 403.255 310.201 406.683 310.937C430.989 316.144 445.313 344.767 467.612 353.376C482.851 359.243 491.587 365.186 502.508 377.936C509.264 385.834 516.579 395.562 524.985 401.962C547.208 418.953 574.688 424.21 600.645 433.887C608.823 436.934 617.102 440.033 625.407 443.157C643.211 449.836 661.116 456.592 678.463 463.297C704.673 473.405 727.81 486.815 751.455 501.622C772.078 514.549 793.183 530.855 814.949 541.395C824.981 546.245 834.785 548.099 844.055 555.084C853.249 562.017 861.046 570.83 867.268 580.481C880.246 600.596 887.078 623.911 894.266 646.718C900.996 668.179 908.387 689.919 921.365 708.18" stroke="#1B771B" stroke-width="9.52891" stroke-miterlimit="10" stroke-linejoin="round" stroke-dasharray="11.91 11.91"/>
<path id="Vector_2" d="M397.972 328.944C408.45 328.944 416.944 320.45 416.944 309.972C416.944 299.494 408.45 291 397.972 291C387.494 291 379 299.494 379 309.972C379 320.45 387.494 328.944 397.972 328.944Z" fill="white" stroke="#1B771B" stroke-width="9.52891" stroke-miterlimit="10" stroke-linecap="round" stroke-linejoin="round"/>
</g>
<g id="icon-orase-prietenoase 1">
<path id="Vector_3" d="M293.863 445.208H414.136" stroke="#1B771B" stroke-width="2.14773" stroke-linecap="round" stroke-linejoin="round"/>
<path id="Vector_4" d="M394.898 445.209V406.25H375.402V396.984H359.622V369.864H330.909V445.209C330.909 445.209 327.177 438.903 316.544 434.753C309.26 432.155 301.596 430.786 293.863 430.7" stroke="#1B771B" stroke-width="2.14773" stroke-linecap="round" stroke-linejoin="round"/>
<path id="Vector_5" d="M362.904 377.792H386.486V406.183" stroke="#1B771B" stroke-width="2.14773" stroke-linecap="round" stroke-linejoin="round"/>
<path id="Vector_6" d="M304.672 431.647V424.393H315.739V387.348H326.114" stroke="#1B771B" stroke-width="2.14773" stroke-linecap="round" stroke-linejoin="round"/>
<path id="Vector_7" d="M336.136 377.792H352.881" stroke="#1B771B" stroke-width="2.14773" stroke-linecap="round" stroke-linejoin="round"/>
<path id="Vector_8" d="M336.136 386.62H352.881" stroke="#1B771B" stroke-width="2.14773" stroke-linecap="round" stroke-linejoin="round"/>
<path id="Vector_9" d="M336.136 395.455H352.881" stroke="#1B771B" stroke-width="2.14773" stroke-linecap="round" stroke-linejoin="round"/>
<path id="Vector_10" d="M395.106 413.342C396.34 412.178 397.889 411.404 399.561 411.118C401.232 410.832 402.95 411.046 404.501 411.733C406.064 412.467 407.374 413.649 408.263 415.129C409.153 416.61 409.581 418.321 409.495 420.046C409.409 421.771 408.812 423.431 407.779 424.815C406.746 426.199 405.325 427.245 403.696 427.819C405.017 427.729 406.32 428.156 407.332 429.009C407.859 429.435 408.278 429.978 408.558 430.596C408.837 431.213 408.968 431.887 408.94 432.564C408.917 432.934 408.836 433.298 408.699 433.642C408.44 434.241 408.011 434.752 407.465 435.109C406.919 435.467 406.279 435.656 405.627 435.652H395.122" stroke="#1B771B" stroke-width="2.14773" stroke-linecap="round" stroke-linejoin="round"/>
<path id="Vector_11" d="M398.984 420.514L399.419 444.755" stroke="#1B771B" stroke-width="2.14773" stroke-linecap="round" stroke-linejoin="round"/>
<path id="Vector_12" d="M315.402 404.303C315.006 403.803 314.502 403.399 313.929 403.121C313.355 402.842 312.726 402.697 312.088 402.694C310.913 402.622 309.736 402.791 308.629 403.192C307.522 403.594 306.509 404.218 305.654 405.027C304.79 405.86 304.104 406.86 303.637 407.966C303.17 409.072 302.931 410.261 302.935 411.461C302.039 411.237 301.1 411.255 300.212 411.512C299.325 411.769 298.522 412.257 297.884 412.925C297.247 413.594 296.798 414.42 296.583 415.318C296.369 416.217 296.396 417.156 296.662 418.04C296.943 418.912 297.453 419.692 298.137 420.3C298.822 420.908 299.656 421.322 300.555 421.499C299.596 421.717 298.707 422.171 297.968 422.82C297.229 423.469 296.664 424.292 296.324 425.215C296.017 426.15 295.948 427.146 296.122 428.115C296.296 429.084 296.708 429.994 297.322 430.764" stroke="#1B771B" stroke-width="2.14773" stroke-linecap="round" stroke-linejoin="round"/>
<path id="Vector_13" d="M346.013 445.212C351.743 445.212 356.388 440.488 356.388 434.66C356.388 428.832 351.743 424.108 346.013 424.108C340.283 424.108 335.638 428.832 335.638 434.66C335.638 440.488 340.283 445.212 346.013 445.212Z" stroke="#1B771B" stroke-width="2.14773" stroke-linecap="round" stroke-linejoin="round"/>
<path id="Vector_14" d="M379.792 445.212C385.522 445.212 390.168 440.488 390.168 434.66C390.168 428.832 385.522 424.108 379.792 424.108C374.062 424.108 369.417 428.832 369.417 434.66C369.417 440.488 374.062 445.212 379.792 445.212Z" stroke="#1B771B" stroke-width="2.14773" stroke-linecap="round" stroke-linejoin="round"/>
<path id="Vector_15" d="M346.013 434.658C347.795 433.397 349.416 431.922 350.838 430.267C351.685 429.161 352.423 427.976 353.042 426.728C353.924 424.971 354.381 423.031 354.377 421.066V417.189H349.696C349.186 417.197 348.698 417.403 348.335 417.762C347.972 418.122 347.762 418.609 347.75 419.119C347.748 419.377 347.797 419.633 347.893 419.871C347.99 420.11 348.133 420.328 348.313 420.512C348.494 420.695 348.709 420.842 348.947 420.942C349.184 421.043 349.439 421.096 349.696 421.098H351.305" stroke="#1B771B" stroke-width="2.14773" stroke-linecap="round" stroke-linejoin="round"/>
<path id="Vector_16" d="M354.33 419.877H371.719L364.191 434.66L354.33 419.877Z" stroke="#1B771B" stroke-width="2.14773" stroke-linecap="round" stroke-linejoin="round"/>
<path id="Vector_17" d="M371.721 419.877L379.796 434.66H364.193" stroke="#1B771B" stroke-width="2.14773" stroke-linecap="round" stroke-linejoin="round"/>
<path id="Vector_18" d="M368.452 416.224H374.516" stroke="#1B771B" stroke-width="2.14773" stroke-linecap="round" stroke-linejoin="round"/>
</g>
<text id="Ora&#200;&#153;e prietenoase" fill="#1E1E1E" xml:space="preserve" style="white-space: pre" font-family="Titillium Web" font-size="40" font-weight="600" letter-spacing="0px"><tspan x="278.242" y="508.9">Ora&#x219;e prietenoase</tspan></text>
</g>
</g>
</svg>
