<svg viewBox="0 0 1200 1000" fill="none" xmlns="http://www.w3.org/2000/svg">
<g id="segment-education-02-abilitati-pentru-viata-reala">
<g id="Group 1192">
<g id="Group 1191">
<path id="Vector" d="M804.603 198.357C826.596 186.243 850.319 185.018 871.726 174.102C877.051 171.386 882.482 168.484 887.728 165.395C890.976 163.478 894.144 161.481 897.206 159.404C901.253 156.635 907.697 152.508 910.865 148.914" stroke="#C8CEDB" stroke-width="9.98958" stroke-miterlimit="10" stroke-linecap="round" stroke-linejoin="round"/>
<path id="Vector_2" d="M578.874 813.75C580.844 806.854 582.894 800.011 586.142 794.154C597.405 773.838 630.474 760.685 647.94 745.456C670.199 726.072 682.926 703.388 696.185 676.469C699.939 668.881 703.853 661.666 708.007 654.796C724.887 627.026 746.853 610.305 769.991 589.165C778.165 581.71 787.404 580.298 797.654 576.518C834.93 562.859 844.489 514.8 821.963 482.663C815.414 473.317 806.92 466.954 797.335 460.484C773.319 444.242 769.245 432.394 763.601 403.719C758.036 375.389 741.635 350.921 734.605 323.124C730.638 307.441 733.035 294.342 733.354 278.686C733.62 265.213 730.106 252.646 738.626 240.558C751.113 222.879 770.736 215.876 789.427 206.371C794.619 203.735 799.678 201.099 804.577 198.41" stroke="#C8CEDB" stroke-width="9.98958" stroke-miterlimit="10" stroke-linecap="round" stroke-linejoin="round"/>
<path id="Vector_3" d="M550.331 857.707C559.251 850.225 567.584 844.261 572.963 831.827C575.386 826.209 577.09 819.952 578.847 813.722" stroke="#C8CEDB" stroke-width="9.98958" stroke-miterlimit="10" stroke-linecap="round" stroke-linejoin="round"/>
<path id="Vector_4" d="M937.224 119.306C929.609 122.714 922.261 126.735 918.4 132.379C914.832 137.571 915.391 143.775 910.838 148.914" stroke="#C8CEDB" stroke-width="9.98958" stroke-miterlimit="10" stroke-linecap="round" stroke-linejoin="round"/>
<path id="Vector_5" d="M1022 84C1010.76 89.0056 999.155 93.1059 988.053 96.7536C987.041 97.0731 986.056 97.3926 985.071 97.7387C973.915 101.36 965.634 105.54 955.65 111.078C950.644 113.847 943.828 116.35 937.225 119.305" stroke="#C8CEDB" stroke-width="9.98958" stroke-miterlimit="10" stroke-linecap="round" stroke-linejoin="round"/>
<path id="Vector_6" d="M550.889 881.299C561.874 881.299 570.778 872.394 570.778 861.41C570.778 850.425 561.874 841.521 550.889 841.521C539.905 841.521 531 850.425 531 861.41C531 872.394 539.905 881.299 550.889 881.299Z" fill="white" stroke="#FFA506" stroke-width="9.98958" stroke-miterlimit="10" stroke-linecap="round" stroke-linejoin="round"/>
<path id="Vector_7" d="M938.21 128.199C943.724 128.199 948.195 123.728 948.195 118.214C948.195 112.7 943.724 108.229 938.21 108.229C932.696 108.229 928.226 112.7 928.226 118.214C928.226 123.728 932.696 128.199 938.21 128.199Z" fill="#404366"/>
<path id="Vector_8" d="M969.015 112.915C974.53 112.915 979 108.445 979 102.93C979 97.416 974.53 92.9458 969.015 92.9458C963.501 92.9458 959.031 97.416 959.031 102.93C959.031 108.445 963.501 112.915 969.015 112.915Z" fill="#404366"/>
<path id="Vector_9" d="M910.972 158.472C916.487 158.472 920.957 154.002 920.957 148.487C920.957 142.973 916.487 138.503 910.972 138.503C905.458 138.503 900.988 142.973 900.988 148.487C900.988 154.002 905.458 158.472 910.972 158.472Z" fill="#404366"/>
<path id="Vector_10" d="M883.654 176.843C889.168 176.843 893.638 172.373 893.638 166.859C893.638 161.344 889.168 156.874 883.654 156.874C878.14 156.874 873.669 161.344 873.669 166.859C873.669 172.373 878.14 176.843 883.654 176.843Z" fill="#404366"/>
<path id="Vector_11" d="M849.44 191.274C854.954 191.274 859.425 186.804 859.425 181.29C859.425 175.775 854.954 171.305 849.44 171.305C843.926 171.305 839.456 175.775 839.456 181.29C839.456 186.804 843.926 191.274 849.44 191.274Z" fill="#404366"/>
<path id="Vector_12" d="M801.089 208.156C806.603 208.156 811.074 203.685 811.074 198.171C811.074 192.657 806.603 188.187 801.089 188.187C795.575 188.187 791.104 192.657 791.104 198.171C791.104 203.685 795.575 208.156 801.089 208.156Z" fill="#404366"/>
<path id="Vector_13" d="M756.385 231.585C761.899 231.585 766.369 227.115 766.369 221.601C766.369 216.086 761.899 211.616 756.385 211.616C750.871 211.616 746.4 216.086 746.4 221.601C746.4 227.115 750.871 231.585 756.385 231.585Z" fill="#404366"/>
<path id="Vector_14" d="M737.747 263.029C743.262 263.029 747.732 258.558 747.732 253.044C747.732 247.53 743.262 243.06 737.747 243.06C732.233 243.06 727.763 247.53 727.763 253.044C727.763 258.558 732.233 263.029 737.747 263.029Z" fill="#404366"/>
<path id="Vector_15" d="M733.673 299.293C739.187 299.293 743.658 294.823 743.658 289.308C743.658 283.794 739.187 279.324 733.673 279.324C728.159 279.324 723.688 283.794 723.688 289.308C723.688 294.823 728.159 299.293 733.673 299.293Z" fill="#404366"/>
<path id="Vector_16" d="M736.07 336.942C741.585 336.942 746.055 332.471 746.055 326.957C746.055 321.443 741.585 316.973 736.07 316.973C730.556 316.973 726.086 321.443 726.086 326.957C726.086 332.471 730.556 336.942 736.07 336.942Z" fill="#404366"/>
<path id="Vector_17" d="M749.383 374.59C754.897 374.59 759.367 370.12 759.367 364.606C759.367 359.091 754.897 354.621 749.383 354.621C743.869 354.621 739.398 359.091 739.398 364.606C739.398 370.12 743.869 374.59 749.383 374.59Z" fill="#404366"/>
<path id="Vector_18" d="M763.548 407.259C769.062 407.259 773.532 402.789 773.532 397.275C773.532 391.76 769.062 387.29 763.548 387.29C758.033 387.29 753.563 391.76 753.563 397.275C753.563 402.789 758.033 407.259 763.548 407.259Z" fill="#404366"/>
<path id="Vector_19" d="M770.869 442.298C776.384 442.298 780.854 437.827 780.854 432.313C780.854 426.799 776.384 422.329 770.869 422.329C765.355 422.329 760.885 426.799 760.885 432.313C760.885 437.827 765.355 442.298 770.869 442.298Z" fill="#404366"/>
<path id="Vector_20" d="M794.619 467.832C800.133 467.832 804.603 463.362 804.603 457.848C804.603 452.334 800.133 447.863 794.619 447.863C789.105 447.863 784.634 452.334 784.634 457.848C784.634 463.362 789.105 467.832 794.619 467.832Z" fill="#404366"/>
<path id="Vector_21" d="M820.233 488.892C825.747 488.892 830.217 484.422 830.217 478.908C830.217 473.394 825.747 468.923 820.233 468.923C814.718 468.923 810.248 473.394 810.248 478.908C810.248 484.422 814.718 488.892 820.233 488.892Z" fill="#404366"/>
<path id="Vector_22" d="M834.051 517.463C839.566 517.463 844.036 512.992 844.036 507.478C844.036 501.964 839.566 497.494 834.051 497.494C828.537 497.494 824.067 501.964 824.067 507.478C824.067 512.992 828.537 517.463 834.051 517.463Z" fill="#404366"/>
<path id="Vector_23" d="M830.217 554.657C835.732 554.657 840.202 550.187 840.202 544.673C840.202 539.158 835.732 534.688 830.217 534.688C824.703 534.688 820.233 539.158 820.233 544.673C820.233 550.187 824.703 554.657 830.217 554.657Z" fill="#404366"/>
<path id="Vector_24" d="M807.932 584.184C813.446 584.184 817.916 579.714 817.916 574.2C817.916 568.686 813.446 564.215 807.932 564.215C802.417 564.215 797.947 568.686 797.947 574.2C797.947 579.714 802.417 584.184 807.932 584.184Z" fill="#404366"/>
<path id="Vector_25" d="M773.532 597.817C779.046 597.817 783.516 593.347 783.516 587.833C783.516 582.318 779.046 577.848 773.532 577.848C768.018 577.848 763.547 582.318 763.547 587.833C763.547 593.347 768.018 597.817 773.532 597.817Z" fill="#404366"/>
<path id="Vector_26" d="M746.241 622.339C751.755 622.339 756.225 617.869 756.225 612.355C756.225 606.84 751.755 602.37 746.241 602.37C740.727 602.37 736.256 606.84 736.256 612.355C736.256 617.869 740.727 622.339 746.241 622.339Z" fill="#404366"/>
<path id="Vector_27" d="M720.041 648.192C725.555 648.192 730.025 643.721 730.025 638.207C730.025 632.693 725.555 628.223 720.041 628.223C714.526 628.223 710.056 632.693 710.056 638.207C710.056 643.721 714.526 648.192 720.041 648.192Z" fill="#404366"/>
<path id="Vector_28" d="M700.071 677.932C705.586 677.932 710.056 673.462 710.056 667.948C710.056 662.434 705.586 657.963 700.071 657.963C694.557 657.963 690.087 662.434 690.087 667.948C690.087 673.462 694.557 677.932 700.071 677.932Z" fill="#404366"/>
<path id="Vector_29" d="M682.765 712.041C688.279 712.041 692.749 707.571 692.749 702.057C692.749 696.542 688.279 692.072 682.765 692.072C677.25 692.072 672.78 696.542 672.78 702.057C672.78 707.571 677.25 712.041 682.765 712.041Z" fill="#404366"/>
<path id="Vector_30" d="M661.731 741.754C667.245 741.754 671.716 737.284 671.716 731.77C671.716 726.255 667.245 721.785 661.731 721.785C656.217 721.785 651.747 726.255 651.747 731.77C651.747 737.284 656.217 741.754 661.731 741.754Z" fill="#404366"/>
<path id="Vector_31" d="M632.897 767.847C638.411 767.847 642.881 763.377 642.881 757.863C642.881 752.349 638.411 747.878 632.897 747.878C627.382 747.878 622.912 752.349 622.912 757.863C622.912 763.377 627.382 767.847 632.897 767.847Z" fill="#404366"/>
<path id="Vector_32" d="M599.641 789.84C605.155 789.84 609.625 785.369 609.625 779.855C609.625 774.341 605.155 769.871 599.641 769.871C594.126 769.871 589.656 774.341 589.656 779.855C589.656 785.369 594.126 789.84 599.641 789.84Z" fill="#404366"/>
<path id="Vector_33" d="M580.418 823.734C585.932 823.734 590.403 819.264 590.403 813.75C590.403 808.235 585.932 803.765 580.418 803.765C574.904 803.765 570.434 808.235 570.434 813.75C570.434 819.264 574.904 823.734 580.418 823.734Z" fill="#404366"/>
</g>
<text id="Abilit&#196;&#131;&#200;&#155;i pentru via&#200;&#155;a real&#196;&#131;" fill="#1E1E1E" xml:space="preserve" style="white-space: pre" font-family="Titillium Web" font-size="40" font-weight="600" letter-spacing="0px"><tspan x="100.633" y="852.9">Abilit&#x103;&#x21b;i pentru </tspan><tspan x="178.719" y="894.9">via&#x21b;a real&#x103;</tspan></text>
<g id="icon-abilitati-pentru-viata-reala 1">
<path id="Vector_34" d="M438.025 842.421C438.029 843.196 437.801 843.954 437.37 844.599C436.939 845.243 436.325 845.743 435.607 846.035C434.889 846.327 434.1 846.397 433.342 846.236C432.584 846.075 431.891 845.69 431.354 845.132V860.496H415.743C416.199 860.139 416.568 859.683 416.821 859.161C417.075 858.64 417.206 858.068 417.205 857.489C417.24 856.96 417.165 856.429 416.987 855.929C416.808 855.43 416.528 854.972 416.166 854.585C415.803 854.198 415.365 853.89 414.878 853.678C414.391 853.468 413.866 853.359 413.336 853.359C412.805 853.359 412.28 853.468 411.793 853.678C411.307 853.89 410.868 854.198 410.506 854.585C410.143 854.972 409.863 855.43 409.685 855.929C409.506 856.429 409.431 856.96 409.466 857.489C409.445 858.06 409.556 858.628 409.789 859.149C410.023 859.671 410.373 860.132 410.813 860.496H395.203V845.329C395.756 845.834 396.443 846.168 397.182 846.289C397.921 846.41 398.68 846.314 399.365 846.012C400.05 845.709 400.633 845.215 401.042 844.587C401.451 843.96 401.669 843.227 401.669 842.478C401.669 841.729 401.451 840.997 401.042 840.369C400.633 839.742 400.05 839.247 399.365 838.945C398.68 838.643 397.921 838.546 397.182 838.668C396.443 838.789 395.756 839.122 395.203 839.627V824.345H411.208C410.643 824.004 410.178 823.521 409.858 822.945C409.538 822.368 409.375 821.718 409.384 821.059C409.448 820.076 409.883 819.155 410.602 818.481C411.321 817.808 412.269 817.433 413.253 817.433C414.238 817.433 415.186 817.808 415.905 818.481C416.624 819.155 417.059 820.076 417.123 821.059C417.136 821.717 416.975 822.367 416.658 822.943C416.341 823.52 415.878 824.003 415.316 824.345H431.354V839.775C431.712 839.394 432.145 839.091 432.626 838.885C433.106 838.678 433.624 838.573 434.147 838.576C435.17 838.576 436.151 838.98 436.878 839.7C437.604 840.42 438.016 841.398 438.025 842.421Z" stroke="#FFA506" stroke-width="2.575" stroke-linecap="round" stroke-linejoin="round"/>
<path id="Vector_35" d="M388.433 888.48C388.429 888.991 388.526 889.498 388.719 889.972C388.912 890.445 389.198 890.875 389.558 891.238C389.919 891.6 390.348 891.887 390.821 892.082C391.293 892.277 391.8 892.377 392.311 892.374C392.832 892.372 393.347 892.267 393.827 892.064C394.306 891.86 394.741 891.564 395.105 891.191V906.556H410.814C410.352 906.199 409.978 905.741 409.721 905.217C409.465 904.692 409.332 904.116 409.335 903.532C409.335 902.503 409.744 901.517 410.471 900.79C411.198 900.063 412.185 899.654 413.213 899.654C414.242 899.654 415.228 900.063 415.955 900.79C416.682 901.517 417.091 902.503 417.091 903.532C417.098 904.12 416.964 904.701 416.701 905.227C416.438 905.752 416.054 906.208 415.579 906.556H431.272V891.389C430.714 891.887 430.023 892.214 429.284 892.328C428.544 892.443 427.787 892.342 427.104 892.036C426.421 891.73 425.841 891.234 425.434 890.606C425.027 889.977 424.811 889.245 424.811 888.497C424.811 887.748 425.027 887.016 425.434 886.388C425.841 885.759 426.421 885.263 427.104 884.957C427.787 884.651 428.544 884.55 429.284 884.665C430.023 884.78 430.714 885.106 431.272 885.605V870.405H415.251C415.815 870.064 416.28 869.581 416.6 869.004C416.92 868.428 417.084 867.777 417.075 867.118C417.075 866.09 416.666 865.103 415.939 864.376C415.212 863.649 414.225 863.24 413.197 863.24C412.168 863.24 411.182 863.649 410.454 864.376C409.727 865.103 409.319 866.09 409.319 867.118C409.31 867.777 409.473 868.428 409.793 869.004C410.113 869.581 410.578 870.064 411.143 870.405H395.105V885.835C394.75 885.448 394.318 885.14 393.837 884.931C393.355 884.722 392.836 884.615 392.311 884.619C391.286 884.619 390.302 885.025 389.575 885.748C388.848 886.472 388.438 887.455 388.433 888.48Z" stroke="#FFA506" stroke-width="2.575" stroke-linecap="round" stroke-linejoin="round"/>
<path id="Vector_36" d="M421.134 834.681C423.276 834.681 425.013 832.945 425.013 830.803C425.013 828.662 423.276 826.925 421.134 826.925C418.993 826.925 417.256 828.662 417.256 830.803C417.256 832.945 418.993 834.681 421.134 834.681Z" stroke="#FFA506" stroke-width="2.575" stroke-linecap="round" stroke-linejoin="round"/>
<path id="Vector_37" d="M426.654 840.629C426.622 841.869 426.282 843.081 425.666 844.156C425.049 845.232 424.174 846.138 423.121 846.791V850.817H420.672V847.991C419.61 848.332 418.502 848.51 417.386 848.516C416.035 848.542 414.692 848.314 413.426 847.843V850.866H410.944V846.364C409.685 845.409 408.759 844.08 408.299 842.568H405.456V838.969H408.233C408.536 837.853 409.08 836.817 409.826 835.934C410.573 835.051 411.504 834.343 412.555 833.859L413.459 831.213L414.97 833.054C415.762 832.862 416.572 832.757 417.386 832.742C422.496 832.742 426.654 836.34 426.654 840.629Z" fill="white" stroke="#FFA506" stroke-width="2.575" stroke-linecap="round" stroke-linejoin="round"/>
<path id="Vector_38" d="M413.838 840.384C414.519 840.384 415.071 839.832 415.071 839.152C415.071 838.471 414.519 837.919 413.838 837.919C413.158 837.919 412.606 838.471 412.606 839.152C412.606 839.832 413.158 840.384 413.838 840.384Z" fill="#FFA506"/>
<path id="Vector_39" d="M485.697 842.914C485.771 842.407 485.745 841.892 485.62 841.396C485.495 840.9 485.274 840.433 484.969 840.023C484.664 839.612 484.281 839.266 483.842 839.003C483.403 838.741 482.916 838.568 482.41 838.493C481.369 838.35 480.312 838.621 479.469 839.249L481.737 824.049L466.241 821.798C466.71 822.27 467.049 822.855 467.227 823.496C467.404 824.137 467.413 824.814 467.254 825.459C467.095 826.105 466.772 826.7 466.316 827.185C465.861 827.67 465.289 828.03 464.654 828.229C464.02 828.429 463.344 828.463 462.693 828.326C462.042 828.189 461.437 827.888 460.936 827.45C460.435 827.012 460.055 826.452 459.834 825.825C459.612 825.198 459.555 824.524 459.668 823.869C459.749 823.29 459.965 822.738 460.299 822.258C460.633 821.778 461.076 821.384 461.591 821.108L445.996 818.791L443.762 833.794C444.387 833.383 445.118 833.162 445.867 833.157C446.616 833.152 447.349 833.364 447.98 833.768C448.611 834.171 449.111 834.748 449.421 835.43C449.731 836.111 449.837 836.868 449.726 837.608C449.616 838.348 449.293 839.041 448.798 839.602C448.302 840.163 447.655 840.569 446.934 840.77C446.213 840.971 445.449 840.96 444.735 840.736C444.02 840.513 443.385 840.088 442.907 839.512L440.656 854.547L456.496 856.914C455.895 857.166 455.369 857.57 454.969 858.085C454.569 858.6 454.308 859.21 454.213 859.855C454.06 860.873 454.318 861.909 454.93 862.737C455.541 863.564 456.457 864.115 457.474 864.267C458.492 864.42 459.528 864.162 460.356 863.55C461.183 862.939 461.734 862.023 461.886 861.006C461.983 860.361 461.914 859.702 461.683 859.092C461.453 858.482 461.07 857.942 460.572 857.522L476.429 859.872L478.696 844.557C478.987 844.997 479.367 845.37 479.811 845.654C480.256 845.937 480.755 846.123 481.277 846.2C481.783 846.277 482.299 846.252 482.796 846.128C483.293 846.005 483.761 845.783 484.172 845.478C484.582 845.172 484.929 844.788 485.191 844.348C485.452 843.908 485.624 843.42 485.697 842.914Z" stroke="#FFA506" stroke-width="2.575" stroke-linecap="round" stroke-linejoin="round"/>
<path id="Vector_40" d="M461.048 849.124C454.639 845.673 450.251 835.534 455.181 832.543C460.111 829.553 463.151 835.025 463.151 835.025C463.151 835.025 467.571 830.621 471.498 835.025C475.426 839.428 468.228 847.694 461.048 849.124Z" stroke="#FFA506" stroke-width="2.575" stroke-linecap="round" stroke-linejoin="round"/>
<path id="Vector_41" d="M470.364 842.958L462.27 839.443C460.98 838.883 459.479 839.475 458.919 840.765L458.912 840.78C458.352 842.071 458.944 843.571 460.235 844.131L468.328 847.645C469.619 848.206 471.119 847.614 471.679 846.323L471.686 846.308C472.246 845.018 471.654 843.518 470.364 842.958Z" fill="white" stroke="#FFA506" stroke-width="2.575" stroke-linecap="round" stroke-linejoin="round"/>
<path id="Vector_42" d="M464.318 840.662L463.02 843.308" stroke="#FFA506" stroke-width="2.575" stroke-linecap="round" stroke-linejoin="round"/>
<path id="Vector_43" d="M468.328 842.225L467.194 844.788" stroke="#FFA506" stroke-width="2.575" stroke-linecap="round" stroke-linejoin="round"/>
<path id="Vector_44" d="M404.373 892.95C404.373 889.216 405.857 885.634 408.498 882.993C411.139 880.352 414.721 878.868 418.455 878.868" stroke="#FFA506" stroke-width="2.575" stroke-linecap="round" stroke-linejoin="round"/>
<path id="Vector_45" d="M407.907 892.95C407.902 890.147 409.011 887.456 410.989 885.468C412.967 883.481 415.652 882.36 418.456 882.352" stroke="#FFA506" stroke-width="2.575" stroke-linecap="round" stroke-linejoin="round"/>
<path id="Vector_46" d="M411.424 892.952C411.424 891.085 412.164 889.294 413.483 887.973C414.801 886.651 416.59 885.907 418.457 885.902" stroke="#FFA506" stroke-width="2.575" stroke-linecap="round" stroke-linejoin="round"/>
<path id="Vector_47" d="M417.419 893.721C418.418 893.721 419.227 892.912 419.227 891.914C419.227 890.916 418.418 890.106 417.419 890.106C416.421 890.106 415.612 890.916 415.612 891.914C415.612 892.912 416.421 893.721 417.419 893.721Z" fill="#FFA506"/>
<path id="Vector_48" d="M434.576 888.565C434.575 887.791 434.805 887.035 435.237 886.393C435.67 885.751 436.284 885.254 437.001 884.964C437.719 884.674 438.506 884.606 439.263 884.767C440.019 884.928 440.71 885.313 441.247 885.87V870.489H456.94C456.423 870.896 456.018 871.429 455.763 872.036C455.508 872.642 455.412 873.304 455.484 873.958C455.556 874.613 455.793 875.238 456.173 875.775C456.552 876.313 457.063 876.744 457.656 877.03C458.249 877.315 458.905 877.446 459.562 877.408C460.219 877.37 460.856 877.165 461.412 876.813C461.968 876.462 462.426 875.974 462.741 875.397C463.057 874.819 463.221 874.171 463.217 873.513C463.224 872.93 463.095 872.354 462.842 871.829C462.588 871.304 462.216 870.846 461.754 870.489H477.431V885.64C476.959 885.233 476.396 884.947 475.79 884.805C475.184 884.663 474.553 884.67 473.949 884.824C473.347 884.979 472.79 885.278 472.327 885.694C471.864 886.11 471.509 886.632 471.291 887.216C471.074 887.799 471.001 888.426 471.078 889.044C471.155 889.662 471.381 890.252 471.735 890.763C472.09 891.275 472.562 891.694 473.113 891.983C473.665 892.273 474.278 892.425 474.9 892.427C475.838 892.419 476.742 892.075 477.447 891.457V906.657H461.393C461.96 906.995 462.427 907.478 462.747 908.055C463.067 908.632 463.229 909.283 463.217 909.943C463.153 910.926 462.717 911.848 461.999 912.521C461.28 913.194 460.332 913.569 459.347 913.569C458.362 913.569 457.414 913.194 456.696 912.521C455.977 911.848 455.541 910.926 455.477 909.943C455.463 909.285 455.623 908.634 455.94 908.057C456.258 907.48 456.721 906.997 457.285 906.657H441.247V891.227C440.889 891.608 440.456 891.911 439.975 892.117C439.494 892.324 438.977 892.429 438.454 892.427C437.428 892.427 436.444 892.02 435.717 891.296C434.99 890.573 434.58 889.591 434.576 888.565Z" stroke="#FFA506" stroke-width="2.575" stroke-linecap="round" stroke-linejoin="round"/>
<path id="Vector_49" d="M466.338 886.706V892.917H462.657V896.598H456.445V892.917H452.748V886.706H456.445V883.009H462.657V886.706H466.338Z" stroke="#FFA506" stroke-width="2.575" stroke-linecap="round" stroke-linejoin="round"/>
<path id="Vector_50" d="M454.326 884.798C452.931 881.365 450.387 878.525 447.129 876.762C445.956 880.439 445.99 884.395 447.227 888.051C447.851 889.856 448.899 891.484 450.283 892.799C451.667 894.114 453.347 895.078 455.181 895.61" stroke="#FFA506" stroke-width="2.575" stroke-linecap="round" stroke-linejoin="round"/>
<path id="Vector_51" d="M471.73 876.075C469.999 876.28 468.399 877.102 467.226 878.391C466.051 879.679 465.381 881.348 465.338 883.091C467.04 883.04 468.66 882.347 469.873 881.152C471.06 879.725 471.716 877.931 471.73 876.075Z" stroke="#FFA506" stroke-width="2.575" stroke-linecap="round" stroke-linejoin="round"/>
<path id="Vector_52" d="M452.765 888.137C451.407 886.575 450.298 884.813 449.479 882.912" stroke="#FFA506" stroke-width="2.575" stroke-linecap="round" stroke-linejoin="round"/>
</g>
<text class="btn-project" text-decoration="underline" cursor="pointer" data-projectid="1" id="Budget simulator for schools" fill="#404366" xml:space="preserve" style="white-space: pre" font-family="Titillium Web" font-size="20" font-weight="600" letter-spacing="0em"><tspan x="766" y="639.45">Budget simulator for schools</tspan></text>
<text class="btn-project" text-decoration="underline" cursor="pointer" data-projectid="1" id="Bani de buzunar" fill="#404366" xml:space="preserve" style="white-space: pre" font-family="Titillium Web" font-size="20" font-weight="600" letter-spacing="0em"><tspan x="825" y="604.45">Bani de buzunar</tspan></text>
<text class="btn-project" text-decoration="underline" cursor="pointer" data-projectid="1" id="O &#200;&#155;ar&#196;&#131;" fill="#404366" xml:space="preserve" style="white-space: pre" font-family="Titillium Web" font-size="20" font-weight="600" letter-spacing="0em"><tspan x="689" y="439.45">O &#x21b;ar&#x103;</tspan></text>
<text class="btn-project" text-decoration="underline" cursor="pointer" data-projectid="1" id="Ce m&#196;&#131; fac" fill="#404366" xml:space="preserve" style="white-space: pre" font-family="Titillium Web" font-size="20" font-weight="600" letter-spacing="0em"><tspan x="771" y="148.45">Ce m&#x103; fac</tspan></text>
<text class="btn-project" text-decoration="underline" cursor="pointer" data-projectid="1" id="RomaniaOS" fill="#404366" xml:space="preserve" style="white-space: pre" font-family="Titillium Web" font-size="20" font-weight="600" letter-spacing="0em"><tspan x="681" y="491.45">RomaniaOS</tspan></text>
<text class="btn-project" text-decoration="underline" cursor="pointer" data-projectid="1" id="Nutritie ro" fill="#404366" xml:space="preserve" style="white-space: pre" font-family="Titillium Web" font-size="20" font-weight="600" letter-spacing="0em"><tspan x="732" y="690.45">Nutritie ro</tspan></text>
<text class="btn-project" text-decoration="underline" cursor="pointer" data-projectid="1" id="Preg&#196;&#131;ti&#200;&#155;i" fill="#404366" xml:space="preserve" style="white-space: pre" font-family="Titillium Web" font-size="20" font-weight="600" letter-spacing="0em"><tspan x="652" y="377.45">Preg&#x103;ti&#x21b;i</tspan></text>
<text class="btn-project" text-decoration="underline" cursor="pointer" data-projectid="1" id="&#200;&#152;coala de cet&#196;&#131;&#200;&#155;eni" fill="#404366" xml:space="preserve" style="white-space: pre" font-family="Titillium Web" font-size="20" font-weight="600" letter-spacing="0em"><tspan x="786" y="397.45">&#x218;coala de cet&#x103;&#x21b;eni</tspan></text>
<text class="btn-project" text-decoration="underline" cursor="pointer" data-projectid="1" id="Micii cet&#196;&#131;&#200;&#155;eni" fill="#404366" xml:space="preserve" style="white-space: pre" font-family="Titillium Web" font-size="20" font-weight="600" letter-spacing="0em"><tspan x="799" y="109.45">Micii cet&#x103;&#x21b;eni&#13;</tspan></text>
<text class="btn-project" text-decoration="underline" cursor="pointer" data-projectid="1" id="Public Budget simulator" fill="#404366" xml:space="preserve" style="white-space: pre" font-family="Titillium Web" font-size="20" font-weight="600" letter-spacing="0em"><tspan x="495" y="626.45">Public Budget simulator</tspan></text>
<text class="btn-project" text-decoration="underline" cursor="pointer" data-projectid="1" id="Responsabil financiar" fill="#404366" xml:space="preserve" style="white-space: pre" font-family="Titillium Web" font-size="20" font-weight="600" letter-spacing="0em"><tspan x="580" y="567.45">Responsabil financiar</tspan></text>
<text class="btn-project" text-decoration="underline" cursor="pointer" data-projectid="1" id="Simulatorul civic" fill="#404366" xml:space="preserve" style="white-space: pre" font-family="Titillium Web" font-size="20" font-weight="600" letter-spacing="0em"><tspan x="859" y="504.45">Simulatorul civic</tspan></text>
<text class="btn-project" text-decoration="underline" cursor="pointer" data-projectid="1" id="Civic Fitness" fill="#404366" xml:space="preserve" style="white-space: pre" font-family="Titillium Web" font-size="20" font-weight="600" letter-spacing="0em"><tspan x="934" y="177.45">Civic Fitness</tspan></text>
<text class="btn-project" text-decoration="underline" cursor="pointer" data-projectid="1" id="Ora de date" fill="#404366" xml:space="preserve" style="white-space: pre" font-family="Titillium Web" font-size="20" font-weight="600" letter-spacing="0em"><tspan x="476" y="772.45">Ora de date</tspan></text>
<text class="btn-project" text-decoration="underline" cursor="pointer" data-projectid="1" id="sanatatemintala.ro" fill="#404366" xml:space="preserve" style="white-space: pre" font-family="Titillium Web" font-size="20" font-weight="600" letter-spacing="0em"><tspan x="693" y="744.45">sanatatemintala.ro</tspan></text>
<text class="btn-project" text-decoration="underline" cursor="pointer" data-projectid="1" id="Context" fill="#404366" xml:space="preserve" style="white-space: pre" font-family="Titillium Web" font-size="20" font-weight="600" letter-spacing="0em"><tspan x="656" y="790.45">Context</tspan></text>
<text class="btn-project" text-decoration="underline" cursor="pointer" data-projectid="1" id="Aoleo" fill="#404366" xml:space="preserve" style="white-space: pre" font-family="Titillium Web" font-size="20" font-weight="600" letter-spacing="0em"><tspan x="660" y="333.45">Aoleo</tspan></text>
<text class="btn-project" text-decoration="underline" cursor="pointer" data-projectid="1" id="Descurc&#196;&#131;-tech" fill="#404366" xml:space="preserve" style="white-space: pre" font-family="Titillium Web" font-size="20" font-weight="600" letter-spacing="0em"><tspan x="604" y="215.45">Descurc&#x103;-tech</tspan></text>
<text class="btn-project" text-decoration="underline" cursor="pointer" data-projectid="1" id="Designated buddy" fill="#404366" xml:space="preserve" style="white-space: pre" font-family="Titillium Web" font-size="20" font-weight="600" letter-spacing="0em"><tspan x="868" y="212.45">Designated buddy</tspan></text>
<text class="btn-project" text-decoration="underline" cursor="pointer" data-projectid="1" id="18 ani de-acas&#196;&#131;" fill="#404366" xml:space="preserve" style="white-space: pre" font-family="Titillium Web" font-size="20" font-weight="600" letter-spacing="0em"><tspan x="970" y="141.45">18 ani de-acas&#x103;</tspan></text>
<text class="btn-project" text-decoration="underline" cursor="pointer" data-projectid="1" id="Doctorii vs barza" fill="#404366" xml:space="preserve" style="white-space: pre" font-family="Titillium Web" font-size="20" font-weight="600" letter-spacing="0em"><tspan x="495" y="709.45">Doctorii vs barza</tspan></text>
<text class="btn-project" text-decoration="underline" cursor="pointer" data-projectid="1" id="Nutritie pentru studenti" fill="#404366" xml:space="preserve" style="white-space: pre" font-family="Titillium Web" font-size="20" font-weight="600" letter-spacing="0em"><tspan x="464" y="675.45">Nutritie pentru studenti</tspan></text>
<text class="btn-project" text-decoration="underline" cursor="pointer" data-projectid="1" id="Evalueaz&#196;&#131;-tech" fill="#404366" xml:space="preserve" style="white-space: pre" font-family="Titillium Web" font-size="20" font-weight="600" letter-spacing="0em"><tspan x="765" y="265.45">Evalueaz&#x103;-tech</tspan></text>
<text class="btn-project" text-decoration="underline" cursor="pointer" data-projectid="1" id="Votul elevilor" fill="#404366" xml:space="preserve" style="white-space: pre" font-family="Titillium Web" font-size="20" font-weight="600" letter-spacing="0em"><tspan x="855" y="552.45">Votul elevilor</tspan></text>
<text class="btn-project" text-decoration="underline" cursor="pointer" data-projectid="1" id="UpdateEdu" fill="#404366" xml:space="preserve" style="white-space: pre" font-family="Titillium Web" font-size="20" font-weight="600" letter-spacing="0em"><tspan x="605" y="836.45">UpdateEdu</tspan></text>
<text class="btn-project" text-decoration="underline" cursor="pointer" data-projectid="1" id="&#195;&#142;nva&#200;&#155;&#196;&#131;-tech" fill="#404366" xml:space="preserve" style="white-space: pre" font-family="Titillium Web" font-size="20" font-weight="600" letter-spacing="0em"><tspan x="610" y="290.45">&#xce;nva&#x21b;&#x103;-tech</tspan></text>
<text class="btn-project" text-decoration="underline" cursor="pointer" data-projectid="1" id="Career Center" fill="#404366" xml:space="preserve" style="white-space: pre" font-family="Titillium Web" font-size="20" font-weight="600" letter-spacing="0em"><tspan x="669" y="180.45">Career Center</tspan></text>
</g>
</g>
</svg>
