<svg width="1200" height="1000" viewBox="0 0 1200 1000" fill="none" xmlns="http://www.w3.org/2000/svg">
<g id="segment-education-02-abilitati-pentru-viata-reala">
<g id="Group 1153">
<g id="Group 1133">
<path id="Vector" d="M677.333 462.976C699.45 450.793 723.307 449.562 744.835 438.584C750.191 435.852 755.653 432.934 760.928 429.828C764.194 427.9 767.381 425.892 770.46 423.803C774.53 421.018 781.01 416.868 784.196 413.253" stroke="#C8CEDB" stroke-width="10.0461" stroke-miterlimit="10" stroke-linecap="round" stroke-linejoin="round"/>
<path id="Vector_2" d="M611.009 505.389C623.567 487.61 643.301 480.568 662.097 471.009C667.319 468.358 672.406 465.707 677.333 463.003" stroke="#FFA506" stroke-width="10.0461" stroke-miterlimit="10" stroke-linejoin="round" stroke-dasharray="12.56 12.56"/>
<path id="Vector_3" d="M810.704 383.478C803.046 386.905 795.656 390.949 791.773 396.625C788.185 401.846 788.748 408.085 784.169 413.253" stroke="#C8CEDB" stroke-width="10.0461" stroke-miterlimit="10" stroke-linecap="round" stroke-linejoin="round"/>
<path id="Vector_4" d="M895.959 348C884.659 353.034 872.985 357.157 861.819 360.826C860.802 361.147 859.811 361.468 858.821 361.816C847.601 365.458 839.274 369.662 829.233 375.231C824.199 378.016 817.345 380.533 810.704 383.505" stroke="#C8CEDB" stroke-width="10.0461" stroke-miterlimit="10" stroke-linecap="round" stroke-linejoin="round"/>
<path id="Vector_5" d="M606.002 536.423C617.048 536.423 626.003 527.468 626.003 516.421C626.003 505.374 617.048 496.419 606.002 496.419C594.955 496.419 586 505.374 586 516.421C586 527.468 594.955 536.423 606.002 536.423Z" fill="white" stroke="#FFA506" stroke-width="10.0461" stroke-miterlimit="10" stroke-linecap="round" stroke-linejoin="round"/>
<path id="Vector_6" d="M811.695 392.422C817.241 392.422 821.736 387.926 821.736 382.381C821.736 376.835 817.241 372.34 811.695 372.34C806.15 372.34 801.654 376.835 801.654 382.381C801.654 387.926 806.15 392.422 811.695 392.422Z" fill="#404366"/>
<path id="Vector_7" d="M842.675 377.079C848.22 377.079 852.716 372.584 852.716 367.038C852.716 361.493 848.22 356.997 842.675 356.997C837.129 356.997 832.634 361.493 832.634 367.038C832.634 372.584 837.129 377.079 842.675 377.079Z" fill="#404366"/>
<path id="Vector_8" d="M784.303 422.866C789.848 422.866 794.344 418.371 794.344 412.825C794.344 407.28 789.848 402.784 784.303 402.784C778.757 402.784 774.262 407.28 774.262 412.825C774.262 418.371 778.757 422.866 784.303 422.866Z" fill="#404366"/>
<path id="Vector_9" d="M756.831 441.368C762.377 441.368 766.872 436.873 766.872 431.327C766.872 425.782 762.377 421.286 756.831 421.286C751.286 421.286 746.79 425.782 746.79 431.327C746.79 436.873 751.286 441.368 756.831 441.368Z" fill="#404366"/>
<path id="Vector_10" d="M722.396 455.854C727.942 455.854 732.437 451.358 732.437 445.813C732.437 440.267 727.942 435.772 722.396 435.772C716.851 435.772 712.355 440.267 712.355 445.813C712.355 451.358 716.851 455.854 722.396 455.854Z" fill="#404366"/>
<path id="Vector_11" d="M673.799 472.857C679.344 472.857 683.84 468.361 683.84 462.816C683.84 457.27 679.344 452.775 673.799 452.775C668.253 452.775 663.758 457.27 663.758 462.816C663.758 468.361 668.253 472.857 673.799 472.857Z" fill="#404366"/>
</g>
<text id="Ce m&#196;&#131; fac" fill="#404366" xml:space="preserve" style="white-space: pre" font-family="Titillium Web" font-size="20" font-weight="600" letter-spacing="0em"><tspan x="747" y="352.45">Ce m&#x103; fac</tspan></text>
<g id="icon-abilitati-pentru-viata-reala 1">
<path id="Vector_12" d="M594.025 595.421C594.03 596.196 593.802 596.954 593.371 597.599C592.94 598.243 592.326 598.743 591.608 599.035C590.889 599.327 590.1 599.397 589.342 599.236C588.584 599.075 587.892 598.69 587.354 598.132V613.496H571.743C572.2 613.139 572.569 612.683 572.822 612.161C573.075 611.64 573.207 611.068 573.206 610.489C573.24 609.96 573.166 609.429 572.987 608.929C572.808 608.43 572.529 607.972 572.166 607.585C571.803 607.198 571.365 606.89 570.878 606.678C570.391 606.468 569.867 606.359 569.336 606.359C568.806 606.359 568.281 606.468 567.794 606.678C567.307 606.89 566.869 607.198 566.506 607.585C566.143 607.972 565.864 608.43 565.685 608.929C565.506 609.429 565.432 609.96 565.466 610.489C565.446 611.06 565.556 611.628 565.79 612.149C566.024 612.671 566.374 613.132 566.814 613.496H551.203V598.329C551.756 598.834 552.444 599.168 553.183 599.289C553.922 599.41 554.68 599.314 555.366 599.012C556.051 598.709 556.633 598.215 557.042 597.587C557.451 596.96 557.669 596.227 557.669 595.478C557.669 594.729 557.451 593.997 557.042 593.369C556.633 592.742 556.051 592.247 555.366 591.945C554.68 591.643 553.922 591.546 553.183 591.668C552.444 591.789 551.756 592.122 551.203 592.627V577.345H567.208C566.644 577.004 566.179 576.521 565.859 575.945C565.539 575.368 565.375 574.718 565.384 574.059C565.448 573.076 565.884 572.155 566.602 571.481C567.321 570.808 568.269 570.433 569.254 570.433C570.239 570.433 571.187 570.808 571.905 571.481C572.624 572.155 573.06 573.076 573.124 574.059C573.136 574.717 572.976 575.367 572.659 575.943C572.341 576.52 571.879 577.003 571.316 577.345H587.354V592.775C587.713 592.394 588.146 592.091 588.626 591.885C589.107 591.678 589.625 591.573 590.147 591.576C591.17 591.576 592.152 591.98 592.878 592.7C593.605 593.42 594.017 594.398 594.025 595.421Z" stroke="#FFA506" stroke-width="2.575" stroke-linecap="round" stroke-linejoin="round"/>
<path id="Vector_13" d="M544.434 641.48C544.429 641.991 544.527 642.498 544.72 642.972C544.913 643.445 545.198 643.875 545.559 644.238C545.92 644.6 546.349 644.887 546.821 645.082C547.294 645.277 547.8 645.377 548.312 645.374C548.833 645.372 549.348 645.267 549.827 645.064C550.307 644.86 550.741 644.564 551.105 644.191V659.556H566.814C566.352 659.199 565.978 658.741 565.722 658.217C565.465 657.692 565.333 657.116 565.336 656.532C565.336 655.503 565.744 654.517 566.471 653.79C567.199 653.063 568.185 652.654 569.214 652.654C570.242 652.654 571.228 653.063 571.956 653.79C572.683 654.517 573.092 655.503 573.092 656.532C573.098 657.12 572.964 657.701 572.701 658.227C572.439 658.752 572.054 659.208 571.58 659.556H587.273V644.389C586.714 644.887 586.024 645.214 585.284 645.328C584.545 645.443 583.788 645.342 583.105 645.036C582.422 644.73 581.841 644.234 581.435 643.606C581.027 642.977 580.811 642.245 580.811 641.497C580.811 640.748 581.027 640.016 581.435 639.388C581.841 638.759 582.422 638.263 583.105 637.957C583.788 637.651 584.545 637.55 585.284 637.665C586.024 637.78 586.714 638.106 587.273 638.605V623.405H571.251C571.815 623.064 572.281 622.581 572.601 622.004C572.921 621.428 573.084 620.777 573.075 620.118C573.075 619.09 572.667 618.103 571.939 617.376C571.212 616.649 570.226 616.24 569.197 616.24C568.169 616.24 567.182 616.649 566.455 617.376C565.728 618.103 565.319 619.09 565.319 620.118C565.31 620.777 565.474 621.428 565.794 622.004C566.114 622.581 566.579 623.064 567.143 623.405H551.105V638.835C550.75 638.448 550.318 638.14 549.837 637.931C549.356 637.722 548.836 637.615 548.312 637.619C547.286 637.619 546.302 638.025 545.575 638.748C544.849 639.472 544.438 640.455 544.434 641.48Z" stroke="#FFA506" stroke-width="2.575" stroke-linecap="round" stroke-linejoin="round"/>
<path id="Vector_14" d="M577.134 587.681C579.276 587.681 581.012 585.945 581.012 583.803C581.012 581.662 579.276 579.925 577.134 579.925C574.992 579.925 573.256 581.662 573.256 583.803C573.256 585.945 574.992 587.681 577.134 587.681Z" stroke="#FFA506" stroke-width="2.575" stroke-linecap="round" stroke-linejoin="round"/>
<path id="Vector_15" d="M582.654 593.629C582.622 594.869 582.282 596.081 581.666 597.156C581.049 598.232 580.174 599.138 579.121 599.791V603.817H576.672V600.991C575.61 601.332 574.502 601.51 573.386 601.516C572.035 601.542 570.692 601.314 569.426 600.843V603.866H566.944V599.364C565.685 598.409 564.759 597.08 564.299 595.568H561.456V591.969H564.233C564.536 590.853 565.08 589.817 565.826 588.934C566.573 588.051 567.504 587.343 568.555 586.859L569.459 584.213L570.97 586.054C571.762 585.862 572.572 585.757 573.386 585.742C578.496 585.742 582.654 589.34 582.654 593.629Z" fill="white" stroke="#FFA506" stroke-width="2.575" stroke-linecap="round" stroke-linejoin="round"/>
<path id="Vector_16" d="M569.838 593.384C570.519 593.384 571.07 592.832 571.07 592.152C571.07 591.471 570.519 590.919 569.838 590.919C569.157 590.919 568.605 591.471 568.605 592.152C568.605 592.832 569.157 593.384 569.838 593.384Z" fill="#FFA506"/>
<path id="Vector_17" d="M641.697 595.914C641.772 595.407 641.746 594.892 641.621 594.396C641.496 593.9 641.275 593.433 640.97 593.023C640.664 592.612 640.281 592.266 639.842 592.003C639.403 591.741 638.917 591.568 638.411 591.493C637.369 591.35 636.313 591.621 635.469 592.249L637.737 577.049L622.241 574.798C622.71 575.27 623.05 575.855 623.227 576.496C623.405 577.137 623.414 577.814 623.255 578.459C623.095 579.105 622.773 579.7 622.317 580.185C621.862 580.67 621.289 581.03 620.655 581.229C620.02 581.429 619.345 581.463 618.694 581.326C618.042 581.189 617.438 580.888 616.937 580.45C616.436 580.012 616.056 579.452 615.834 578.825C615.612 578.198 615.555 577.524 615.669 576.869C615.749 576.29 615.965 575.738 616.299 575.258C616.633 574.778 617.076 574.384 617.591 574.108L601.997 571.791L599.762 586.794C600.388 586.383 601.119 586.162 601.867 586.157C602.616 586.152 603.35 586.364 603.981 586.768C604.611 587.171 605.112 587.748 605.422 588.43C605.731 589.111 605.837 589.868 605.727 590.608C605.616 591.348 605.293 592.041 604.798 592.602C604.303 593.163 603.655 593.569 602.934 593.77C602.213 593.971 601.45 593.96 600.735 593.736C600.021 593.513 599.386 593.088 598.907 592.512L596.656 607.547L612.497 609.914C611.896 610.166 611.369 610.57 610.969 611.085C610.569 611.6 610.309 612.21 610.213 612.855C610.06 613.873 610.319 614.909 610.93 615.737C611.542 616.564 612.457 617.115 613.475 617.267C614.492 617.42 615.529 617.162 616.356 616.55C617.184 615.939 617.734 615.023 617.887 614.006C617.984 613.361 617.914 612.702 617.684 612.092C617.454 611.482 617.071 610.942 616.572 610.522L632.43 612.872L634.697 597.557C634.987 597.997 635.367 598.37 635.812 598.654C636.256 598.937 636.756 599.123 637.277 599.2C637.783 599.277 638.3 599.252 638.797 599.128C639.293 599.005 639.761 598.783 640.172 598.478C640.583 598.172 640.929 597.788 641.191 597.348C641.453 596.908 641.625 596.42 641.697 595.914Z" stroke="#FFA506" stroke-width="2.575" stroke-linecap="round" stroke-linejoin="round"/>
<path id="Vector_18" d="M617.048 602.124C610.639 598.673 606.252 588.534 611.181 585.543C616.111 582.553 619.151 588.025 619.151 588.025C619.151 588.025 623.571 583.621 627.499 588.025C631.426 592.428 624.229 600.694 617.048 602.124Z" stroke="#FFA506" stroke-width="2.575" stroke-linecap="round" stroke-linejoin="round"/>
<path id="Vector_19" d="M626.364 595.958L618.27 592.443C616.98 591.883 615.479 592.475 614.919 593.765L614.912 593.78C614.352 595.071 614.944 596.571 616.235 597.131L624.328 600.645C625.619 601.206 627.119 600.614 627.679 599.323L627.686 599.308C628.246 598.018 627.654 596.518 626.364 595.958Z" fill="white" stroke="#FFA506" stroke-width="2.575" stroke-linecap="round" stroke-linejoin="round"/>
<path id="Vector_20" d="M620.318 593.662L619.02 596.308" stroke="#FFA506" stroke-width="2.575" stroke-linecap="round" stroke-linejoin="round"/>
<path id="Vector_21" d="M624.327 595.225L623.193 597.788" stroke="#FFA506" stroke-width="2.575" stroke-linecap="round" stroke-linejoin="round"/>
<path id="Vector_22" d="M560.373 645.95C560.373 642.216 561.857 638.634 564.498 635.993C567.139 633.352 570.721 631.868 574.455 631.868" stroke="#FFA506" stroke-width="2.575" stroke-linecap="round" stroke-linejoin="round"/>
<path id="Vector_23" d="M563.907 645.95C563.903 643.147 565.011 640.456 566.989 638.468C568.967 636.481 571.653 635.36 574.457 635.352" stroke="#FFA506" stroke-width="2.575" stroke-linecap="round" stroke-linejoin="round"/>
<path id="Vector_24" d="M567.424 645.952C567.424 644.085 568.164 642.294 569.483 640.973C570.801 639.651 572.59 638.907 574.457 638.902" stroke="#FFA506" stroke-width="2.575" stroke-linecap="round" stroke-linejoin="round"/>
<path id="Vector_25" d="M573.419 646.721C574.417 646.721 575.226 645.912 575.226 644.914C575.226 643.916 574.417 643.106 573.419 643.106C572.421 643.106 571.611 643.916 571.611 644.914C571.611 645.912 572.421 646.721 573.419 646.721Z" fill="#FFA506"/>
<path id="Vector_26" d="M590.575 641.565C590.574 640.791 590.805 640.035 591.237 639.393C591.669 638.751 592.283 638.254 593.001 637.964C593.718 637.674 594.506 637.606 595.262 637.767C596.019 637.928 596.71 638.313 597.247 638.87V623.489H612.939C612.422 623.896 612.017 624.429 611.763 625.036C611.508 625.642 611.412 626.304 611.484 626.958C611.555 627.613 611.792 628.238 612.172 628.775C612.552 629.313 613.063 629.744 613.655 630.03C614.248 630.315 614.904 630.446 615.562 630.408C616.218 630.37 616.855 630.165 617.412 629.813C617.968 629.462 618.425 628.974 618.741 628.397C619.057 627.819 619.221 627.171 619.216 626.513C619.224 625.93 619.095 625.354 618.841 624.829C618.587 624.304 618.215 623.846 617.754 623.489H633.43V638.64C632.959 638.233 632.396 637.947 631.79 637.805C631.184 637.663 630.552 637.67 629.949 637.824C629.346 637.979 628.79 638.278 628.326 638.694C627.864 639.11 627.508 639.632 627.291 640.216C627.073 640.799 627 641.426 627.077 642.044C627.155 642.662 627.38 643.252 627.735 643.763C628.089 644.275 628.562 644.694 629.113 644.983C629.664 645.273 630.277 645.425 630.9 645.427C631.837 645.419 632.741 645.075 633.447 644.457V659.657H617.392C617.959 659.995 618.426 660.478 618.746 661.055C619.067 661.632 619.229 662.283 619.216 662.943C619.152 663.926 618.717 664.848 617.998 665.521C617.279 666.194 616.331 666.569 615.347 666.569C614.362 666.569 613.414 666.194 612.695 665.521C611.977 664.848 611.541 663.926 611.477 662.943C611.463 662.285 611.623 661.634 611.94 661.057C612.257 660.48 612.721 659.997 613.284 659.657H597.247V644.227C596.888 644.608 596.455 644.911 595.974 645.117C595.494 645.324 594.976 645.429 594.453 645.427C593.427 645.427 592.444 645.02 591.717 644.296C590.99 643.573 590.579 642.591 590.575 641.565Z" stroke="#FFA506" stroke-width="2.575" stroke-linecap="round" stroke-linejoin="round"/>
<path id="Vector_27" d="M622.338 639.706V645.917H618.657V649.598H612.445V645.917H608.748V639.706H612.445V636.009H618.657V639.706H622.338Z" stroke="#FFA506" stroke-width="2.575" stroke-linecap="round" stroke-linejoin="round"/>
<path id="Vector_28" d="M610.326 637.798C608.931 634.365 606.387 631.525 603.129 629.762C601.956 633.439 601.99 637.395 603.227 641.051C603.851 642.856 604.899 644.484 606.283 645.799C607.667 647.114 609.347 648.078 611.181 648.61" stroke="#FFA506" stroke-width="2.575" stroke-linecap="round" stroke-linejoin="round"/>
<path id="Vector_29" d="M627.73 629.075C625.999 629.28 624.399 630.102 623.226 631.391C622.051 632.679 621.381 634.348 621.338 636.091C623.04 636.04 624.66 635.347 625.873 634.152C627.06 632.725 627.716 630.931 627.73 629.075Z" stroke="#FFA506" stroke-width="2.575" stroke-linecap="round" stroke-linejoin="round"/>
<path id="Vector_30" d="M608.765 641.137C607.406 639.575 606.298 637.813 605.479 635.912" stroke="#FFA506" stroke-width="2.575" stroke-linecap="round" stroke-linejoin="round"/>
</g>
<text id="Micii cet&#196;&#131;&#200;&#155;eni" fill="#404366" xml:space="preserve" style="white-space: pre" font-family="Titillium Web" font-size="20" font-weight="600" letter-spacing="0em"><tspan x="830" y="421.45">Micii cet&#x103;&#x21b;eni&#13;</tspan></text>
<text id="Civic Fitness" fill="#404366" xml:space="preserve" style="white-space: pre" font-family="Titillium Web" font-size="20" font-weight="600" letter-spacing="0em"><tspan x="653" y="395.45">Civic Fitness</tspan></text>
<text id="Descurc&#196;&#131;-tech" fill="#404366" xml:space="preserve" style="white-space: pre" font-family="Titillium Web" font-size="20" font-weight="600" letter-spacing="0em"><tspan x="768" y="465.45">Descurc&#x103;-tech</tspan></text>
<text id="Evalueaz&#196;&#131;-tech" fill="#404366" xml:space="preserve" style="white-space: pre" font-family="Titillium Web" font-size="20" font-weight="600" letter-spacing="0em"><tspan x="576" y="431.45">Evalueaz&#x103;-tech</tspan></text>
<text id="&#195;&#142;nva&#200;&#155;&#196;&#131;-tech" fill="#404366" xml:space="preserve" style="white-space: pre" font-family="Titillium Web" font-size="20" font-weight="600" letter-spacing="0em"><tspan x="690" y="505.45">&#xce;nva&#x21b;&#x103;-tech</tspan></text>
<text id="Abilit&#196;&#131;&#200;&#155;i pentru via&#200;&#155;a real&#196;&#131;" fill="#1E1E1E" xml:space="preserve" style="white-space: pre" font-family="Titillium Web" font-size="40" font-weight="600" letter-spacing="0px"><tspan x="256.633" y="605.9">Abilit&#x103;&#x21b;i pentru </tspan><tspan x="334.719" y="647.9">via&#x21b;a real&#x103;</tspan></text>
</g>
</g>
</svg>
