<svg width="523" height="571" viewBox="0 0 523 571" fill="none" xmlns="http://www.w3.org/2000/svg">
<path d="M258.962 5C246.306 11.4737 234.6 19.982 224.507 30.0228C213.145 41.4112 203.077 67.4381 208.521 83.6091C212.854 96.4243 230.69 107.443 239.726 117.272C252.806 131.488 267.761 144.779 275.873 162.773C283.087 178.785 280.022 192.182 293.128 205.869C318.018 231.87 359.08 225.819 385.265 252.268C407.699 274.94 412.64 307.282 421.333 335.792C424.768 347.049 430.978 358.305 438.614 367.923C449.077 377.937 459.541 387.952 470.005 397.992C480.389 407.954 491.275 418.708 494.605 432.713C495.847 437.865 495.979 443.229 496.904 448.461" stroke="#FFA506" stroke-width="9.91373" stroke-miterlimit="10" stroke-linejoin="round" stroke-dasharray="12.39 12.39"/>
<path d="M498.278 469.89C509.179 469.89 518.016 461.053 518.016 450.152C518.016 439.251 509.179 430.414 498.278 430.414C487.377 430.414 478.54 439.251 478.54 450.152C478.54 461.053 487.377 469.89 498.278 469.89Z" fill="white" stroke="#FFA506" stroke-width="9.91373" stroke-miterlimit="10" stroke-linecap="round" stroke-linejoin="round"/>
<path d="M400.146 494.389L381.882 512.718V525.577" stroke="#FFA506" stroke-width="2.10577" stroke-linecap="round" stroke-linejoin="round"/>
<path d="M400.146 494.389L418.41 512.395V525.577" stroke="#FFA506" stroke-width="2.10577" stroke-linecap="round" stroke-linejoin="round"/>
<path d="M386.094 512.799L400.308 498.584L414.587 512.863" stroke="#FFA506" stroke-width="2.10577" stroke-linecap="round" stroke-linejoin="round"/>
<path d="M389.53 504.99H362.069V556.683" stroke="#FFA506" stroke-width="2.10577" stroke-linecap="round" stroke-linejoin="round"/>
<path d="M439.144 556.684V520.786" stroke="#FFA506" stroke-width="2.10577" stroke-linecap="round" stroke-linejoin="round"/>
<path d="M410.746 504.99H439.142V520.785" stroke="#FFA506" stroke-width="2.10577" stroke-linecap="round" stroke-linejoin="round"/>
<path d="M350.472 556.685H449.229" stroke="#FFA506" stroke-width="2.10577" stroke-linecap="round" stroke-linejoin="round"/>
<path d="M418.412 516.495H439.144" stroke="#FFA506" stroke-width="2.10577" stroke-linecap="round" stroke-linejoin="round"/>
<path d="M381.882 516.495H362.069" stroke="#FFA506" stroke-width="2.10577" stroke-linecap="round" stroke-linejoin="round"/>
<path d="M418.412 519.203H438.87" stroke="#FFA506" stroke-width="2.10577" stroke-linecap="round" stroke-linejoin="round"/>
<path d="M381.624 519.203H362.069" stroke="#FFA506" stroke-width="2.10577" stroke-linecap="round" stroke-linejoin="round"/>
<path d="M400.34 538.857C400.094 538.846 399.856 538.772 399.649 538.64C399.442 538.509 399.273 538.326 399.159 538.109C399.044 537.891 398.989 537.648 398.998 537.403C399.007 537.158 399.08 536.919 399.21 536.711L404.857 527.918C404.948 527.749 405.072 527.6 405.223 527.482C405.374 527.363 405.548 527.277 405.733 527.229C405.919 527.181 406.112 527.172 406.302 527.203C406.491 527.233 406.672 527.303 406.833 527.407C406.994 527.511 407.132 527.648 407.238 527.808C407.344 527.967 407.415 528.148 407.448 528.337C407.48 528.526 407.473 528.72 407.427 528.906C407.382 529.092 407.297 529.267 407.18 529.418L401.517 538.212C401.391 538.409 401.216 538.572 401.011 538.684C400.805 538.797 400.574 538.857 400.34 538.857Z" stroke="#FFA506" stroke-width="2.10577" stroke-linecap="round" stroke-linejoin="round"/>
<path d="M390.337 524.802C392.85 524.802 394.887 522.765 394.887 520.252C394.887 517.739 392.85 515.702 390.337 515.702C387.824 515.702 385.787 517.739 385.787 520.252C385.787 522.765 387.824 524.802 390.337 524.802Z" stroke="#FFA506" stroke-width="2.10577" stroke-linecap="round" stroke-linejoin="round"/>
<path d="M385.788 534.128L382.771 542.824H390.338" stroke="#FFA506" stroke-width="2.10577" stroke-linecap="round" stroke-linejoin="round"/>
<path d="M394.871 534.128L397.889 542.824H390.338" stroke="#FFA506" stroke-width="2.10577" stroke-linecap="round" stroke-linejoin="round"/>
<path d="M389.513 542.825H386.738V552.683H389.513V542.825Z" stroke="#FFA506" stroke-width="2.10577" stroke-linecap="round" stroke-linejoin="round"/>
<path d="M394.191 542.825H391.416V552.683H394.191V542.825Z" stroke="#FFA506" stroke-width="2.10577" stroke-linecap="round" stroke-linejoin="round"/>
<path d="M380.108 538.857C379.839 538.851 379.577 538.773 379.349 538.631C379.041 538.43 378.826 538.114 378.75 537.754C378.675 537.394 378.745 537.019 378.946 536.711L384.69 527.918C384.789 527.764 384.916 527.632 385.066 527.527C385.216 527.423 385.385 527.349 385.563 527.31C385.741 527.271 385.926 527.268 386.105 527.3C386.285 527.333 386.456 527.4 386.61 527.498C386.763 527.597 386.896 527.724 387 527.874C387.105 528.024 387.178 528.193 387.217 528.371C387.256 528.55 387.26 528.734 387.228 528.914C387.195 529.093 387.128 529.265 387.029 529.418L381.366 538.211C381.233 538.421 381.045 538.591 380.824 538.704C380.603 538.817 380.356 538.87 380.108 538.857Z" fill="white" stroke="#FFA506" stroke-width="2.10577" stroke-linecap="round" stroke-linejoin="round"/>
<path d="M400.339 538.856C400.107 538.855 399.878 538.796 399.675 538.683C399.472 538.57 399.3 538.407 399.177 538.21L393.498 529.417C393.399 529.264 393.332 529.092 393.299 528.912C393.267 528.733 393.27 528.549 393.309 528.37C393.348 528.192 393.422 528.023 393.526 527.873C393.631 527.723 393.764 527.596 393.918 527.497C394.071 527.396 394.242 527.327 394.422 527.293C394.602 527.26 394.787 527.263 394.966 527.302C395.145 527.341 395.314 527.415 395.464 527.521C395.614 527.626 395.741 527.761 395.838 527.917L401.517 536.71C401.712 537.021 401.778 537.396 401.699 537.755C401.621 538.114 401.405 538.428 401.097 538.63C400.87 538.772 400.608 538.85 400.339 538.856Z" fill="white" stroke="#FFA506" stroke-width="2.10577" stroke-linecap="round" stroke-linejoin="round"/>
<path d="M410.569 524.802C413.082 524.802 415.119 522.765 415.119 520.252C415.119 517.739 413.082 515.702 410.569 515.702C408.057 515.702 406.02 517.739 406.02 520.252C406.02 522.765 408.057 524.802 410.569 524.802Z" stroke="#FFA506" stroke-width="2.10577" stroke-linecap="round" stroke-linejoin="round"/>
<path d="M420.574 538.856C420.342 538.855 420.113 538.796 419.91 538.683C419.707 538.57 419.536 538.407 419.413 538.21L413.733 529.417C413.635 529.264 413.567 529.092 413.535 528.912C413.502 528.733 413.506 528.549 413.545 528.37C413.583 528.192 413.657 528.023 413.762 527.873C413.866 527.723 413.999 527.596 414.153 527.497C414.306 527.396 414.477 527.327 414.657 527.293C414.837 527.26 415.022 527.263 415.201 527.302C415.38 527.341 415.55 527.415 415.699 527.521C415.849 527.626 415.976 527.761 416.073 527.917L421.8 536.71C421.899 536.863 421.967 537.035 421.999 537.214C422.032 537.394 422.028 537.578 421.989 537.757C421.95 537.935 421.877 538.104 421.772 538.254C421.668 538.404 421.535 538.531 421.381 538.63C421.14 538.783 420.86 538.862 420.574 538.856Z" fill="white" stroke="#FFA506" stroke-width="2.10577" stroke-linecap="round" stroke-linejoin="round"/>
<path d="M415.103 537.645H406.02V542.824H415.103V537.645Z" stroke="#FFA506" stroke-width="2.10577" stroke-linejoin="round"/>
<path d="M410.568 542.825V539.905" stroke="#FFA506" stroke-width="2.10577" stroke-linejoin="round"/>
<path d="M389.532 552.685V556.476H383.788C383.783 555.958 383.95 555.452 384.262 555.038C384.575 554.623 385.015 554.324 385.514 554.185C385.724 554.121 385.941 554.088 386.16 554.089V552.685H389.532Z" stroke="#FFA506" stroke-width="2.10577" stroke-linecap="round" stroke-linejoin="round"/>
<path d="M391.32 552.685V556.476H397.064C397.068 555.956 396.899 555.448 396.584 555.034C396.268 554.619 395.825 554.321 395.322 554.185C395.118 554.12 394.906 554.088 394.692 554.089V552.685H391.32Z" stroke="#FFA506" stroke-width="2.10577" stroke-linecap="round" stroke-linejoin="round"/>
<path d="M409.665 542.825H406.891V552.683H409.665V542.825Z" stroke="#FFA506" stroke-width="2.10577" stroke-linecap="round" stroke-linejoin="round"/>
<path d="M414.33 542.825H411.555V552.683H414.33V542.825Z" stroke="#FFA506" stroke-width="2.10577" stroke-linecap="round" stroke-linejoin="round"/>
<path d="M409.666 552.685V556.476H403.922C403.918 555.956 404.087 555.448 404.402 555.034C404.718 554.619 405.162 554.321 405.664 554.185C405.868 554.12 406.08 554.088 406.294 554.089V552.685H409.666Z" stroke="#FFA506" stroke-width="2.10577" stroke-linecap="round" stroke-linejoin="round"/>
<path d="M411.456 552.685V556.476H417.2C417.205 555.958 417.038 555.452 416.726 555.038C416.414 554.623 415.973 554.324 415.474 554.185C415.265 554.121 415.047 554.088 414.828 554.089V552.685H411.456Z" stroke="#FFA506" stroke-width="2.10577" stroke-linecap="round" stroke-linejoin="round"/>
<path d="M394.871 527.303H385.787V534.128H394.871V527.303Z" fill="white" stroke="#FFA506" stroke-width="2.10577" stroke-linecap="round" stroke-linejoin="round"/>
<path d="M415.103 527.303H406.02V537.645H415.103V527.303Z" fill="white" stroke="#FFA506" stroke-width="2.10577" stroke-linecap="round" stroke-linejoin="round"/>
<path d="M361.682 513.557C368.241 513.557 373.557 508.241 373.557 501.682C373.557 495.124 368.241 489.808 361.682 489.808C355.124 489.808 349.808 495.124 349.808 501.682C349.808 508.241 355.124 513.557 361.682 513.557Z" fill="white" stroke="#FFA506" stroke-width="2.10577" stroke-linecap="round" stroke-linejoin="round"/>
<path d="M355.65 500.763C357.955 502.437 359.972 504.475 361.62 506.798C361.62 506.798 368.074 496.762 374.285 492.632" stroke="#FFA506" stroke-width="2.10577" stroke-linecap="round" stroke-linejoin="round"/>
<path d="M453.18 530.577C453.18 532.055 452.594 533.473 451.551 534.519C450.507 535.566 449.092 536.156 447.614 536.16H447.339C447.09 537.04 446.559 537.815 445.828 538.365C445.096 538.916 444.205 539.212 443.29 539.209H439.144V512.894C440.523 513.023 441.805 513.661 442.739 514.685C443.673 515.708 444.192 517.043 444.193 518.428C444.193 518.59 444.193 518.751 444.193 518.896C444.49 518.831 444.793 518.799 445.097 518.799C446.194 518.804 447.244 519.242 448.019 520.02C448.793 520.797 449.227 521.849 449.227 522.946C449.233 523.703 449.026 524.446 448.63 525.092C449.908 525.335 451.061 526.016 451.891 527.017C452.721 528.018 453.177 529.277 453.18 530.577Z" stroke="#FFA506" stroke-width="2.10577" stroke-linecap="round" stroke-linejoin="round"/>
<text fill="#1E1E1E" xml:space="preserve" style="white-space: pre" font-family="Titillium Web" font-size="40" font-weight="600" letter-spacing="0px"><tspan x="72.4609" y="522.9">&#x218;coli sigure&#13;&#x219;i </tspan><tspan x="3.98438" y="564.9">bine administrate</tspan></text>
</svg>
