<svg width="208" height="495" viewBox="0 0 208 495" fill="none" xmlns="http://www.w3.org/2000/svg">
<g clip-path="url(#clip0)">
<path d="M21.3438 25.0202C29.0423 29.7578 36.7161 34.2979 41.0095 42.9834C42.3666 45.7223 43.403 48.634 44.1185 51.5949C45.0809 55.5922 45.0068 59.7623 46.0185 63.7349C49.1275 75.6775 62.2792 82.315 68.1024 93.0238C70.6439 97.6874 86.4851 118.315 90.1616 125.644C92.2343 129.765 94.7264 134.255 96.7744 138.697C99.2913 144.125 105.682 169.022 104.991 184.049C104.473 195.35 104.991 206.676 104.991 218.001C104.991 229.204 99.0692 289.262 98.8471 290.397C97.6627 296.418 96.4537 303.203 96.1082 309.323C95.3433 322.992 98.8224 333.356 101.068 340.166C107.064 358.425 127.001 363.558 143.607 366.79C159.868 369.948 175.882 377.302 188.244 389.293C190.909 391.86 193.105 394.944 194.931 398.176C195.967 400.027 197.398 401.853 198.286 403.778C199.002 405.307 199.199 407.257 199.841 408.737C203.197 416.534 202.111 425.738 202.111 434.67C202.111 444.392 202.111 454.114 202.111 463.861C202.111 468.401 203.394 475.088 202.21 479.43C201.247 482.983 197.62 486.783 195.967 490.411C195.72 490.953 195.473 491.472 195.251 491.99" stroke="#F90000" stroke-width="9.25772" stroke-miterlimit="10" stroke-linejoin="round" stroke-dasharray="11.57 11.57"/>
<path d="M23.0707 41.5029C33.2504 41.5029 41.5027 33.2506 41.5027 23.0709C41.5027 12.8912 33.2504 4.63885 23.0707 4.63885C12.891 4.63885 4.63867 12.8912 4.63867 23.0709C4.63867 33.2506 12.891 41.5029 23.0707 41.5029Z" fill="white" stroke="#F90000" stroke-width="9.25772" stroke-miterlimit="10" stroke-linecap="round" stroke-linejoin="round"/>
</g>
<defs>
<clipPath id="clip0">
<rect width="207.367" height="495" fill="white"/>
</clipPath>
</defs>
</svg>
