<svg width="392" height="412" viewBox="0 0 392 412" fill="none" xmlns="http://www.w3.org/2000/svg">
<g clip-path="url(#clip0)">
<path d="M-9 -10.8086C-3.9298 -3.65831 0.984391 3.56997 5.79458 10.5902C15.987 25.4368 29.6635 40.0234 37.2558 56.326C45.5501 74.1367 51.9984 93.2215 59.9547 111.318C76.3874 148.578 103.688 180.455 129.273 212.046C141.286 226.867 156.887 237.943 168.301 254.194C179.611 270.288 186.814 287.293 201.218 301.152C226.907 325.827 268.977 338.541 302.414 349.332C333.771 359.446 354.858 372.082 376.075 391.011" stroke="#00B4CC" stroke-width="9.75532" stroke-miterlimit="10" stroke-linejoin="round" stroke-dasharray="12.19 12.19"/>
<path d="M367.677 406.924C378.404 406.924 387.099 398.228 387.099 387.501C387.099 376.774 378.404 368.078 367.677 368.078C356.95 368.078 348.254 376.774 348.254 387.501C348.254 398.228 356.95 406.924 367.677 406.924Z" fill="white" stroke="#00B4CC" stroke-width="9.75532" stroke-miterlimit="10" stroke-linecap="round" stroke-linejoin="round"/>
</g>
<defs>
<clipPath id="clip0">
<rect width="391.829" height="411.628" fill="white"/>
</clipPath>
</defs>
</svg>
