<svg width="702" height="282" viewBox="0 0 702 282" fill="none" xmlns="http://www.w3.org/2000/svg">
<path d="M323.301 62.3865C329.602 75.1213 334.023 88.2003 333.759 101.438C333.044 137.842 320.759 162.676 331.296 200.219C345.037 249.172 389.013 262.543 434.022 272.577C468.732 280.308 499.92 274.06 533.041 265.005C542.326 262.467 534.523 264.626 543.658 262.04C605.479 244.539 639.5 234.028 700.765 245.334" stroke="#1B771B" stroke-width="9.93342" stroke-miterlimit="10" stroke-linejoin="round" stroke-dasharray="12.42 12.42"/>
<path d="M323.777 81.5547C334.7 81.5547 343.555 72.7001 343.555 61.7773C343.555 50.8546 334.7 42 323.777 42C312.855 42 304 50.8546 304 61.7773C304 72.7001 312.855 81.5547 323.777 81.5547Z" fill="white" stroke="#1B771B" stroke-width="9.93342" stroke-miterlimit="10" stroke-linecap="round" stroke-linejoin="round"/>
<path d="M234.422 25.943C233.779 25.9791 233.135 25.8834 232.53 25.6619C231.925 25.4405 231.371 25.0979 230.903 24.6551C230.434 24.2123 230.061 23.6786 229.806 23.0867C229.551 22.4947 229.42 21.857 229.42 21.2125C229.42 20.5681 229.551 19.9303 229.806 19.3384C230.061 18.7465 230.434 18.2128 230.903 17.77C231.371 17.3272 231.925 16.9846 232.53 16.7631C233.135 16.5417 233.779 16.446 234.422 16.482" fill="white"/>
<path d="M234.422 25.943C233.779 25.9791 233.135 25.8834 232.53 25.6619C231.925 25.4405 231.371 25.0979 230.903 24.6551C230.434 24.2123 230.061 23.6786 229.806 23.0867C229.551 22.4947 229.42 21.857 229.42 21.2125C229.42 20.5681 229.551 19.9303 229.806 19.3384C230.061 18.7465 230.434 18.2128 230.903 17.77C231.371 17.3272 231.925 16.9846 232.53 16.7631C233.135 16.5417 233.779 16.446 234.422 16.482" stroke="#1B771B" stroke-width="1.4" stroke-linecap="round" stroke-linejoin="round"/>
<path d="M239.973 22.4049C240.118 22.1581 240.349 21.9725 240.621 21.8827C240.893 21.7928 241.189 21.8048 241.453 21.9163L252.765 28.4015C252.977 28.5558 253.156 28.7518 253.29 28.9774C253.424 29.2031 253.512 29.4534 253.546 29.7138C253.581 29.974 253.562 30.2386 253.491 30.4914C253.421 30.7442 253.3 30.9803 253.135 31.185C253.008 31.4115 252.836 31.6103 252.631 31.7696C252.425 31.9286 252.189 32.0448 251.938 32.1109C251.687 32.1773 251.425 32.1924 251.167 32.1554C250.91 32.1185 250.663 32.03 250.44 31.8956L240.076 23.9891C239.863 23.7865 239.734 23.5109 239.714 23.2173C239.695 22.9237 239.787 22.6336 239.973 22.4049Z" fill="white" stroke="#1B771B" stroke-width="1.4" stroke-linecap="round" stroke-linejoin="round"/>
<path d="M241.885 18.8662L237.295 16.897C237.295 16.897 233.401 16.2308 233.401 22.0495C233.401 27.8682 238.376 26.3284 238.554 26.2396C238.731 26.1508 242.152 22.9823 242.152 22.9823L241.885 18.8662Z" fill="white" stroke="#1B771B" stroke-width="1.4" stroke-linecap="round" stroke-linejoin="round"/>
<path d="M228.974 54.5044H177.938V81.1996H228.974V54.5044Z" stroke="#1B771B" stroke-width="1.4" stroke-linecap="round" stroke-linejoin="round"/>
<path d="M211.532 57.8949V78.9638" stroke="#1B771B" stroke-width="1.4" stroke-linecap="round" stroke-linejoin="round"/>
<path d="M173.852 54.1942L185.519 43.5341H194.861" stroke="#1B771B" stroke-width="1.4" stroke-linecap="round" stroke-linejoin="round"/>
<path d="M210.184 54.5046L221.865 43.8293" stroke="#1B771B" stroke-width="1.4" stroke-linecap="round" stroke-linejoin="round"/>
<path d="M233.694 54.1942L222.027 43.5341H204.689" stroke="#1B771B" stroke-width="1.4" stroke-linecap="round" stroke-linejoin="round"/>
<path d="M264.062 66.1719C234.021 67.0603 197.302 81.2 197.302 81.2H264.062" fill="white"/>
<path d="M264.062 66.1719C234.021 67.0603 197.302 81.2 197.302 81.2H264.062" stroke="#1B771B" stroke-width="1.4" stroke-linecap="round" stroke-linejoin="round"/>
<path d="M177.449 81.2001H159.801" stroke="#1B771B" stroke-width="1.4" stroke-linecap="round" stroke-linejoin="round"/>
<path d="M177.449 71.6788H159.801" stroke="#1B771B" stroke-width="1.4" stroke-linecap="round" stroke-linejoin="round"/>
<path d="M168.697 69.2944V79.3182" stroke="#1B771B" stroke-width="1.4" stroke-linecap="round" stroke-linejoin="round"/>
<path d="M174.281 69.2944V79.3182" stroke="#1B771B" stroke-width="1.4" stroke-linecap="round" stroke-linejoin="round"/>
<path d="M163.026 69.2944V79.3182" stroke="#1B771B" stroke-width="1.4" stroke-linecap="round" stroke-linejoin="round"/>
<path d="M160.585 63.4486C165.72 60.0374 171.791 58.314 177.952 58.5184" stroke="#1B771B" stroke-width="1.4" stroke-linecap="round" stroke-linejoin="round"/>
<path d="M241.335 24.0039C242.528 24.0039 243.496 22.7046 243.496 21.1019C243.496 19.4992 242.528 18.2 241.335 18.2C240.141 18.2 239.173 19.4992 239.173 21.1019C239.173 22.7046 240.141 24.0039 241.335 24.0039Z" fill="#1B771B"/>
<path d="M239.056 25.9601L241.543 68.4087" stroke="#1B771B" stroke-width="1.4" stroke-linecap="round" stroke-linejoin="round"/>
<path d="M234.423 25.9601L233.579 48.865" stroke="#1B771B" stroke-width="1.4" stroke-linecap="round" stroke-linejoin="round"/>
<path d="M239.056 25.9436C239.204 25.7363 241.884 22.9824 241.884 22.9824" stroke="#1B771B" stroke-width="1.4" stroke-linecap="round" stroke-linejoin="round"/>
<path d="M237.25 22.405C237.105 22.1578 236.875 21.9711 236.604 21.8788C236.332 21.7864 236.036 21.7945 235.77 21.9016L224.651 28.2681C224.441 28.4235 224.265 28.62 224.134 28.8454C224.002 29.0708 223.918 29.3206 223.887 29.5796C223.855 29.8383 223.876 30.1012 223.948 30.3518C224.021 30.6021 224.144 30.8354 224.31 31.037C224.433 31.2638 224.601 31.4634 224.803 31.6239C225.006 31.784 225.238 31.9016 225.488 31.9694C225.737 32.0374 225.997 32.0539 226.253 32.0184C226.508 31.9828 226.754 31.8957 226.975 31.7625L237.162 23.9892C237.373 23.7847 237.499 23.5081 237.516 23.2145C237.532 22.9209 237.437 22.6319 237.25 22.405Z" fill="white" stroke="#1B771B" stroke-width="1.4" stroke-linecap="round" stroke-linejoin="round"/>
<path d="M238.479 18.1856C238.191 18.209 237.905 18.1251 237.676 17.9502C237.446 17.7752 237.289 17.5216 237.235 17.238L236.229 4.62336C236.239 4.35934 236.304 4.10034 236.42 3.86299C236.536 3.62563 236.7 3.41516 236.902 3.24506C237.104 3.07498 237.34 2.94904 237.594 2.87532C237.847 2.80159 238.113 2.78175 238.375 2.81702C238.63 2.79058 238.888 2.8161 239.133 2.89203C239.377 2.96797 239.604 3.09276 239.799 3.25883C239.995 3.4249 240.154 3.62882 240.268 3.85828C240.382 4.08772 240.448 4.33792 240.463 4.59373L239.737 17.2232C239.687 17.5123 239.529 17.7717 239.296 17.9499C239.063 18.1282 238.771 18.2123 238.479 18.1856Z" fill="white" stroke="#1B771B" stroke-width="1.4" stroke-linecap="round" stroke-linejoin="round"/>
<path d="M190.197 63.0027H181.565V69.6653H190.197V63.0027Z" stroke="#1B771B" stroke-width="1.4" stroke-linecap="round" stroke-linejoin="round"/>
<path d="M204.676 63.0027H196.044V69.6653H204.676V63.0027Z" stroke="#1B771B" stroke-width="1.4" stroke-linecap="round" stroke-linejoin="round"/>
<path d="M222.031 52.4173C223.053 52.4173 223.882 51.5888 223.882 50.5665C223.882 49.5445 223.053 48.7157 222.031 48.7157C221.009 48.7157 220.181 49.5445 220.181 50.5665C220.181 51.5888 221.009 52.4173 222.031 52.4173Z" stroke="#1B771B" stroke-width="1.4" stroke-linecap="round" stroke-linejoin="round"/>
<text fill="#1E1E1E" xml:space="preserve" style="white-space: pre" font-family="Titillium Web" font-size="40" font-weight="600" letter-spacing="0px"><tspan x="0.570312" y="140.9">Sate dezvoltate</tspan></text>
</svg>
