<svg width="546" height="477" viewBox="0 0 546 477" fill="none" xmlns="http://www.w3.org/2000/svg">
<path d="M495.265 152.415C489.67 159.39 484.595 166.833 480.119 175.525C473.639 188.069 476.007 200.691 471.609 213.807C468.616 222.733 455.656 239.389 456.593 247.821C457.972 260.417 470.36 255.55 477.49 258.777C487.068 263.123 489.202 273.585 488.447 283.318C486.443 308.562 464.999 323.136 445.454 335.498C419.794 351.737 409.149 361.392 392.832 387.312C386.95 396.681 382.734 409.668 375.265 418.308C363.138 432.309 329.045 443.213 310.984 452.035C293.99 460.337 274.185 468.353 255.239 470.018C251.101 470.383 248.316 470.799 246 471.372" stroke="#7937C4" stroke-width="10.2292" stroke-miterlimit="10" stroke-linejoin="round" stroke-dasharray="12.79 12.79"/>
<path d="M493.47 171.881C504.206 171.881 512.91 163.177 512.91 152.44C512.91 141.704 504.206 133 493.47 133C482.733 133 474.029 141.704 474.029 152.44C474.029 163.177 482.733 171.881 493.47 171.881Z" fill="white" stroke="#7937C4" stroke-width="10.2292" stroke-miterlimit="10" stroke-linecap="round" stroke-linejoin="round"/>
<path d="M493.709 78.8276V84.5632C493.716 85.9047 493.291 87.2124 492.496 88.2934C491.701 89.3743 490.58 90.1702 489.297 90.5637L474.318 94.9755" stroke="#7937C4" stroke-width="2.49537" stroke-linecap="round" stroke-linejoin="round"/>
<path d="M532.16 33.2955C532.39 34.8365 532.508 36.392 532.513 37.9502V49.5099C532.519 53.5163 531.736 57.4845 530.208 61.1886C528.68 64.8922 526.438 68.2587 523.609 71.096C520.779 73.9329 517.419 76.1851 513.72 77.7237C510.021 79.2623 506.055 80.0572 502.048 80.063C498.033 80.0688 494.056 79.2826 490.346 77.7495C486.635 76.2163 483.263 73.9667 480.423 71.1287C477.583 68.2907 475.33 64.9202 473.795 61.2107C472.259 57.5009 471.47 53.5246 471.473 49.5099V37.9502C471.466 31.3348 473.62 24.898 477.605 19.6182" stroke="#7937C4" stroke-width="2.49537" stroke-linecap="round" stroke-linejoin="round"/>
<path d="M466.751 61.2454V32.0156C466.751 28.0478 467.533 24.1189 469.052 20.4533C470.571 16.7878 472.798 13.4576 475.604 10.6529C478.411 7.84826 481.743 5.62417 485.409 4.10778C489.076 2.59135 493.005 1.81233 496.973 1.81523H507.011C510.988 1.7978 514.929 2.56609 518.609 4.07598C522.288 5.58591 525.633 7.80768 528.451 10.6138C531.27 13.4199 533.506 16.755 535.032 20.4278C536.558 24.1005 537.344 28.0385 537.344 32.0156V86.328" stroke="#7937C4" stroke-width="2.49537" stroke-linecap="round" stroke-linejoin="round"/>
<path d="M476.793 18.9565C476.793 18.9565 495.39 32.8545 533.554 32.8545" stroke="#7937C4" stroke-width="2.49537" stroke-linecap="round" stroke-linejoin="round"/>
<path d="M495.696 40.1562C495.696 41.3733 495.212 42.5402 494.352 43.4008C493.491 44.2614 492.324 44.7448 491.107 44.7448C489.89 44.7448 488.723 44.2614 487.863 43.4008C487.002 42.5402 486.519 41.3733 486.519 40.1562" stroke="#7937C4" stroke-width="2.49537" stroke-linecap="round" stroke-linejoin="round"/>
<path d="M515.595 40.1562C515.595 41.3733 515.112 42.5402 514.251 43.4008C513.39 44.2614 512.224 44.7448 511.007 44.7448C509.79 44.7448 508.623 44.2614 507.762 43.4008C506.901 42.5402 506.418 41.3733 506.418 40.1562" stroke="#7937C4" stroke-width="2.49537" stroke-linecap="round" stroke-linejoin="round"/>
<path d="M525.587 60.0531C525.775 60.4846 525.873 60.95 525.874 61.4207C525.876 62.0777 525.684 62.7205 525.323 63.2697C524.963 63.8188 524.448 64.2497 523.845 64.5092C523.183 64.7959 522.411 65.1266 521.639 65.4355C522.126 65.5712 522.577 65.8137 522.959 66.1458C523.34 66.4779 523.643 66.8909 523.845 67.3548C524.044 67.7838 524.149 68.2499 524.154 68.7224C524.15 69.3812 523.954 70.0248 523.59 70.5736C523.225 71.1224 522.708 71.5525 522.102 71.8109L520.8 72.3626V72.5829C520.802 73.2402 520.61 73.8831 520.249 74.4322C519.889 74.981 519.374 75.4122 518.771 75.6714C514.535 77.5025 506.726 80.8117 499.865 80.4364L487.931 80.3924C487.247 80.4168 486.57 80.5434 485.923 80.7674L468.076 87.1871C468.076 87.1871 458.921 62.9208 458.899 62.9208L481.136 58.8615L484.07 54.6261C485.02 53.2316 486.449 52.2349 488.085 51.8243L505.512 47.4125C505.968 47.2949 506.444 47.283 506.905 47.3773C507.366 47.4717 507.799 47.6702 508.171 47.9573C508.544 48.2448 508.846 48.6132 509.054 49.035C509.262 49.4564 509.371 49.9202 509.373 50.3906C509.377 50.9776 509.208 51.5528 508.888 52.045L507.564 54.4275C511.672 54.0457 515.739 53.3078 519.719 52.2214L521.925 51.5155C522.723 51.24 523.596 51.2755 524.368 51.6149C525.141 51.9543 525.758 52.5728 526.095 53.3466C526.284 53.7698 526.382 54.2286 526.381 54.6921C526.382 55.3516 526.19 55.997 525.829 56.5494C525.469 57.1018 524.956 57.5374 524.352 57.8027L523.271 58.2658C523.771 58.3599 524.241 58.5707 524.644 58.8814C525.046 59.1918 525.37 59.5932 525.587 60.0531Z" fill="white" stroke="#7937C4" stroke-width="2.49537" stroke-linecap="round" stroke-linejoin="round"/>
<path d="M505.294 62.04C511.468 61.9641 517.561 60.6357 523.207 58.1353" stroke="#7937C4" stroke-width="2.49537" stroke-linecap="round" stroke-linejoin="round"/>
<path d="M507.565 54.4072C505.359 54.65 503.263 54.7825 501.102 54.8264" stroke="#7937C4" stroke-width="2.49537" stroke-linecap="round" stroke-linejoin="round"/>
<path d="M521.573 65.437C516.292 67.6892 510.614 68.8594 504.873 68.8783" stroke="#7937C4" stroke-width="2.49537" stroke-linecap="round" stroke-linejoin="round"/>
<path d="M521.574 65.437H521.55" stroke="#7937C4" stroke-width="2.49537" stroke-linecap="round" stroke-linejoin="round"/>
<path d="M503.129 76.1577C509.209 76.108 515.214 74.8169 520.777 72.3633" stroke="#7937C4" stroke-width="2.49537" stroke-linecap="round" stroke-linejoin="round"/>
<path d="M507.566 54.4072L507.542 54.4318" stroke="#7937C4" stroke-width="2.49537" stroke-linecap="round" stroke-linejoin="round"/>
<path d="M458.9 62.9224L443.325 65.7901L453.076 92.6153L468.077 87.1886" stroke="#7937C4" stroke-width="2.49537" stroke-linecap="round" stroke-linejoin="round"/>
<path d="M457.956 5.28662L454.306 8.93611L481.256 35.8958L484.907 32.2462L457.956 5.28662Z" fill="#7937C4"/>
<path d="M516.614 63.8623L512.965 67.5137L538.213 92.744L541.862 89.0926L516.614 63.8623Z" fill="#7937C4"/>
<path d="M512.529 78.8276V84.5632C512.523 85.9047 512.948 87.2124 513.743 88.2934C514.537 89.3743 515.659 90.1702 516.942 90.5637L531.92 94.9755" stroke="#7937C4" stroke-width="2.49537" stroke-linecap="round" stroke-linejoin="round"/>
<text fill="#1E1E1E" xml:space="preserve" style="white-space: pre" font-family="Titillium Web" font-size="40" font-weight="600" letter-spacing="0px"><tspan x="0.578125" y="63.9">F&#x103;r&#x103; trafic de persoane</tspan></text>
</svg>
