<svg width="336" height="426" viewBox="0 0 336 426" fill="none" xmlns="http://www.w3.org/2000/svg">
<g clip-path="url(#clip0)">
<path d="M321.903 343.64C320.292 347.436 316.824 350.713 311.663 355.328C303.388 362.728 296.398 371.467 287.741 378.676C277.091 387.551 264.475 394.596 251.313 400.467" stroke="#FFA506" stroke-width="10.2456" stroke-miterlimit="10" stroke-linecap="round" stroke-linejoin="round"/>
<path d="M250.903 420.866C262.169 420.866 271.302 411.733 271.302 400.467C271.302 389.201 262.169 380.068 250.903 380.068C239.637 380.068 230.504 389.201 230.504 400.467C230.504 411.733 239.637 420.866 250.903 420.866Z" fill="white" stroke="#FFA506" stroke-width="10.2456" stroke-miterlimit="10" stroke-linecap="round" stroke-linejoin="round"/>
<path d="M297.981 277.118C308.085 293.366 315.349 311.799 321.166 329.358C322.558 333.591 323.132 336.84 322.886 339.626C322.777 341.073 322.422 342.384 321.903 343.64" stroke="#FFA506" stroke-width="10.2456" stroke-miterlimit="10" stroke-linecap="round" stroke-linejoin="round"/>
<path d="M322.941 354.345C328.596 354.345 333.181 349.76 333.181 344.104C333.181 338.449 328.596 333.864 322.941 333.864C317.285 333.864 312.7 338.449 312.7 344.104C312.7 349.76 317.285 354.345 322.941 354.345Z" fill="white" stroke="#FFA506" stroke-width="5.46154" stroke-miterlimit="10" stroke-linecap="round" stroke-linejoin="round"/>
<path d="M255.382 238.396C267.479 244.158 278.866 251.75 288.151 263.219C291.701 267.616 294.978 272.258 297.982 277.119" stroke="#FFA506" stroke-width="10.2456" stroke-miterlimit="10" stroke-linecap="round" stroke-linejoin="round"/>
<path d="M297.981 286.349C303.637 286.349 308.222 281.764 308.222 276.109C308.222 270.453 303.637 265.868 297.981 265.868C292.326 265.868 287.741 270.453 287.741 276.109C287.741 281.764 292.326 286.349 297.981 286.349Z" fill="white" stroke="#FFA506" stroke-width="5.46154" stroke-miterlimit="10" stroke-linecap="round" stroke-linejoin="round"/>
<path d="M175.561 212.317C194.759 220.974 216.386 223.65 236.075 230.614C237.413 231.078 238.751 231.569 240.117 232.061C245.278 233.972 250.412 236.02 255.409 238.424" stroke="#C8CEDB" stroke-width="10.2456" stroke-miterlimit="10" stroke-linecap="round" stroke-linejoin="round"/>
<path d="M254.89 247.981C260.545 247.981 265.13 243.396 265.13 237.741C265.13 232.085 260.545 227.5 254.89 227.5C249.234 227.5 244.649 232.085 244.649 237.741C244.649 243.396 249.234 247.981 254.89 247.981Z" fill="#404366"/>
<path d="M120.782 174.714C135.774 185.064 150.138 197.707 165.867 207.238C169.007 209.149 172.257 210.815 175.588 212.317" stroke="#C8CEDB" stroke-width="10.2456" stroke-miterlimit="10" stroke-linecap="round" stroke-linejoin="round"/>
<path d="M175.561 223.595C181.217 223.595 185.802 219.01 185.802 213.355C185.802 207.699 181.217 203.114 175.561 203.114C169.906 203.114 165.321 207.699 165.321 213.355C165.321 219.01 169.906 223.595 175.561 223.595Z" fill="#404366"/>
<path d="M63.627 137.876C77.8816 150.766 94.8396 158.794 111.06 168.461C114.337 170.4 117.56 172.503 120.755 174.715" stroke="#C8CEDB" stroke-width="10.2456" stroke-miterlimit="10" stroke-linecap="round" stroke-linejoin="round"/>
<path d="M119.689 184.982C125.345 184.982 129.93 180.397 129.93 174.742C129.93 169.086 125.345 164.501 119.689 164.501C114.034 164.501 109.449 169.086 109.449 174.742C109.449 180.397 114.034 184.982 119.689 184.982Z" fill="#404366"/>
<path d="M53.7689 84.6265C54.6428 87.6303 55.1343 90.4703 54.9978 92.928C54.0693 109.231 43.0643 115.484 55.9535 130.148C58.4112 132.934 60.9508 135.501 63.5997 137.904" stroke="#C8CEDB" stroke-width="10.2456" stroke-miterlimit="10" stroke-linecap="round" stroke-linejoin="round"/>
<path d="M64.091 150.138C69.7466 150.138 74.3314 145.553 74.3314 139.897C74.3314 134.242 69.7466 129.657 64.091 129.657C58.4354 129.657 53.8506 134.242 53.8506 139.897C53.8506 145.553 58.4354 150.138 64.091 150.138Z" fill="#404366"/>
<path d="M5.13379 5.13354C14.9373 24.8497 31.4857 39.9782 42.2176 59.9674C45.5765 66.2482 51.2565 76.1062 53.7688 84.6536" stroke="#FFA506" stroke-width="10.2456" stroke-miterlimit="10" stroke-linecap="round" stroke-linejoin="round"/>
<path d="M52.1029 94.8668C57.7585 94.8668 62.3433 90.282 62.3433 84.6264C62.3433 78.9708 57.7585 74.386 52.1029 74.386C46.4473 74.386 41.8625 78.9708 41.8625 84.6264C41.8625 90.282 46.4473 94.8668 52.1029 94.8668Z" fill="white" stroke="#FFA506" stroke-width="5.46154" stroke-miterlimit="10" stroke-linecap="round" stroke-linejoin="round"/>
</g>
<defs>
<clipPath id="clip0">
<rect width="335.912" height="426" fill="white"/>
</clipPath>
</defs>
</svg>
