<svg width="560" height="648" viewBox="0 0 560 648" fill="none" xmlns="http://www.w3.org/2000/svg">
<path d="M242.294 384.869C240.749 396.237 237.632 406.977 232.34 416.616C228.228 424.082 224.142 431.285 220.291 438.357" stroke="#C8CEDB" stroke-width="9.82781" stroke-miterlimit="10" stroke-linecap="round" stroke-linejoin="round"/>
<path d="M240.514 330.516C243.369 348.983 244.652 367.659 242.321 384.895" stroke="#C8CEDB" stroke-width="9.82781" stroke-miterlimit="10" stroke-linecap="round" stroke-linejoin="round"/>
<path d="M158.158 65.7449C159.992 70.2503 161.878 74.7557 163.083 79.3659C166.567 92.6464 173.01 105.482 178.354 118.945C182.676 129.842 194.097 137.15 197.79 148.65C204.81 170.496 211.647 193.704 214.947 216.44C217.41 233.44 222.544 249.602 226.551 266.419C231.083 285.41 237.003 307.806 240.513 330.516" stroke="#C8CEDB" stroke-width="9.82781" stroke-miterlimit="10" stroke-linecap="round" stroke-linejoin="round"/>
<path d="M159.704 5C155.749 13.094 153.208 21.7643 152.841 30.0941C152.527 37.4547 151.898 45.8892 153.68 52.9616C154.754 57.2837 156.456 61.501 158.159 65.7444" stroke="#00B4CC" stroke-width="9.82781" stroke-miterlimit="10" stroke-linecap="round" stroke-linejoin="round"/>
<path d="M217.436 460.177C228.243 460.177 237.003 451.417 237.003 440.61C237.003 429.804 228.243 421.043 217.436 421.043C206.63 421.043 197.869 429.804 197.869 440.61C197.869 451.417 206.63 460.177 217.436 460.177Z" fill="white" stroke="#00B4CC" stroke-width="9.82781" stroke-miterlimit="10" stroke-linecap="round" stroke-linejoin="round"/>
<path d="M243.526 376.565C248.951 376.565 253.349 372.168 253.349 366.743C253.349 361.318 248.951 356.92 243.526 356.92C238.101 356.92 233.703 361.318 233.703 366.743C233.703 372.168 238.101 376.565 243.526 376.565Z" fill="#404366"/>
<path d="M197.267 162.14C202.692 162.14 207.09 157.742 207.09 152.317C207.09 146.892 202.692 142.494 197.267 142.494C191.842 142.494 187.444 146.892 187.444 152.317C187.444 157.742 191.842 162.14 197.267 162.14Z" fill="#404366"/>
<path d="M172.591 118.5C178.016 118.5 182.414 114.102 182.414 108.677C182.414 103.252 178.016 98.854 172.591 98.854C167.166 98.854 162.769 103.252 162.769 108.677C162.769 114.102 167.166 118.5 172.591 118.5Z" fill="#404366"/>
<path d="M156.823 75.0956C162.248 75.0956 166.646 70.6978 166.646 65.2728C166.646 59.8478 162.248 55.45 156.823 55.45C151.398 55.45 147 59.8478 147 65.2728C147 70.6978 151.398 75.0956 156.823 75.0956Z" fill="#404366"/>
<text fill="#1E1E1E" xml:space="preserve" style="white-space: pre" font-family="Titillium Web" font-size="20" font-weight="600" letter-spacing="0px"><tspan x="76" y="374.45">Banii din politica</tspan></text>
<text fill="#1E1E1E" xml:space="preserve" style="white-space: pre" font-family="Titillium Web" font-size="20" font-weight="600" letter-spacing="0px"><tspan x="0" y="164.45">Declaratii de avere&#13;</tspan></text>
<text fill="#1E1E1E" xml:space="preserve" style="white-space: pre" font-family="Titillium Web" font-size="20" font-weight="600" letter-spacing="0px"><tspan x="207" y="101.45">Data Scientists Hub&#13;</tspan></text>
<text fill="#1E1E1E" xml:space="preserve" style="white-space: pre" font-family="Titillium Web" font-size="20" font-weight="600" letter-spacing="0px"><tspan x="25" y="75.45">Data Portal&#13;</tspan></text>
<path d="M229.08 643.574L206.421 620.914V528.927L228.927 506.421L229.08 643.574Z" stroke="#00B4CC" stroke-width="4.06579" stroke-linecap="round" stroke-linejoin="round"/>
<path d="M234.331 506.421V643.574" stroke="#00B4CC" stroke-width="4.06579" stroke-linecap="round" stroke-linejoin="round"/>
<path d="M234.331 526.565H293.896V629.606H234.331" stroke="#00B4CC" stroke-width="4.06579" stroke-linecap="round" stroke-linejoin="round"/>
<path d="M299.421 533.071V635.406H253.305" stroke="#00B4CC" stroke-width="4.06579" stroke-linecap="round" stroke-linejoin="round"/>
<path d="M281.645 576.884H234.331" stroke="#00B4CC" stroke-width="4.06579" stroke-linecap="round" stroke-linejoin="round"/>
<path d="M281.645 587.694H234.331" stroke="#00B4CC" stroke-width="4.06579" stroke-linecap="round" stroke-linejoin="round"/>
<path d="M281.645 598.5H234.331" stroke="#00B4CC" stroke-width="4.06579" stroke-linecap="round" stroke-linejoin="round"/>
<path d="M281.645 609.31H234.331" stroke="#00B4CC" stroke-width="4.06579" stroke-linecap="round" stroke-linejoin="round"/>
<path d="M234.484 567.154C235.558 565.473 236.473 563.694 237.217 561.843C238.194 559.097 239.767 556.601 241.823 554.535C245.353 552.017 247.288 559.386 250.788 555.61C251.74 554.535 252.477 552.877 254.257 553.307C256.038 553.737 256.836 555.886 258.004 556.869C259.876 558.465 262.363 559.417 264.328 557.483C266.293 555.548 266.692 551.342 267.552 548.487C268.105 546.583 268.473 544.526 270.315 543.513C271.627 542.902 272.97 542.359 274.338 541.885C276.18 541.087 277.654 539.92 279.404 538.969" stroke="#00B4CC" stroke-width="4.06579" stroke-linecap="round" stroke-linejoin="round"/>
<path d="M275.751 537.094L280.664 538.538L279.282 543.297" stroke="#00B4CC" stroke-width="4.06579" stroke-linecap="round" stroke-linejoin="round"/>
<text fill="#1E1E1E" xml:space="preserve" style="white-space: pre" font-family="Titillium Web" font-size="40" font-weight="600" letter-spacing="0px"><tspan x="321" y="587.9">Date deschise</tspan></text>
</svg>
