<svg width="379" height="248" viewBox="0 0 379 248" fill="none" xmlns="http://www.w3.org/2000/svg">
<g clip-path="url(#clip0)">
<path d="M93.5073 232.733C80.0348 225.748 75.1482 215.395 66.6174 202.005" stroke="#C8CEDB" stroke-width="10.3581" stroke-miterlimit="10" stroke-linecap="round" stroke-linejoin="round"/>
<path d="M146.514 235.218C133.318 238.724 119.983 240.96 107.201 237.813C106.593 237.675 105.986 237.509 105.379 237.316C100.768 235.991 96.8755 234.472 93.5073 232.706" stroke="#00B4CC" stroke-width="10.3581" stroke-miterlimit="10" stroke-linecap="round" stroke-linejoin="round"/>
<path d="M146.514 235.218C153.637 233.313 160.732 231.049 167.634 229.033C170.947 228.067 174.232 227.184 177.435 226.411C192.094 222.904 204.076 215.23 217.217 209.239C223.622 206.312 230.303 203.8 237.702 202.337C252.721 199.41 264.344 200.349 276.601 202.364C283.779 203.551 291.151 205.125 299.571 206.506C315.473 209.101 331.706 207.251 347.912 204.904" stroke="#C8CEDB" stroke-width="10.3581" stroke-miterlimit="10" stroke-linecap="round" stroke-linejoin="round"/>
<path d="M37.9882 162.499C44.614 175.834 53.6141 182.819 63.0007 196.512C64.2983 198.389 65.4854 200.239 66.6173 202.006" stroke="#00B4CC" stroke-width="10.3581" stroke-miterlimit="10" stroke-linecap="round" stroke-linejoin="round"/>
<path d="M24.212 119.542C27.5526 130.695 30.4238 142.014 34.1232 153.085C35.2827 156.591 36.5803 159.683 37.9883 162.471" stroke="#C8CEDB" stroke-width="10.3581" stroke-miterlimit="10" stroke-linecap="round" stroke-linejoin="round"/>
<path d="M14.7977 60.4883C12.8099 74.651 13.9694 89.5868 19.9051 106.262C21.4787 110.651 22.8867 115.069 24.2119 119.541" stroke="#00B4CC" stroke-width="10.3581" stroke-miterlimit="10" stroke-linecap="round" stroke-linejoin="round"/>
<path d="M35.9452 5.18994C25.8684 23.7147 17.4757 41.3836 14.7977 60.4882" stroke="#00B4CC" stroke-width="10.3581" stroke-miterlimit="10" stroke-linecap="round" stroke-linejoin="round"/>
<path d="M352.826 225.472C364.216 225.472 373.449 216.239 373.449 204.849C373.449 193.459 364.216 184.226 352.826 184.226C341.437 184.226 332.203 193.459 332.203 204.849C332.203 216.239 341.437 225.472 352.826 225.472Z" fill="white" stroke="#00B4CC" stroke-width="10.3581" stroke-miterlimit="10" stroke-linecap="round" stroke-linejoin="round"/>
<path d="M13.1136 82.9614C18.8314 82.9614 23.4665 78.3262 23.4665 72.6085C23.4665 66.8908 18.8314 62.2556 13.1136 62.2556C7.39589 62.2556 2.76074 66.8908 2.76074 72.6085C2.76074 78.3262 7.39589 82.9614 13.1136 82.9614Z" fill="white" stroke="#00B4CC" stroke-width="5.52154" stroke-miterlimit="10" stroke-linecap="round" stroke-linejoin="round"/>
<path d="M24.1014 129.894C29.8192 129.894 34.4543 125.259 34.4543 119.542C34.4543 113.824 29.8192 109.189 24.1014 109.189C18.3837 109.189 13.7485 113.824 13.7485 119.542C13.7485 125.259 18.3837 129.894 24.1014 129.894Z" fill="white" stroke="#00B4CC" stroke-width="5.52154" stroke-miterlimit="10" stroke-linecap="round" stroke-linejoin="round"/>
<path d="M37.1599 170.754C42.8776 170.754 47.5128 166.119 47.5128 160.401C47.5128 154.683 42.8776 150.048 37.1599 150.048C31.4422 150.048 26.807 154.683 26.807 160.401C26.807 166.119 31.4422 170.754 37.1599 170.754Z" fill="#404366"/>
<path d="M64.7951 211.889C70.5129 211.889 75.148 207.254 75.148 201.536C75.148 195.818 70.5129 191.183 64.7951 191.183C59.0774 191.183 54.4423 195.818 54.4423 201.536C54.4423 207.254 59.0774 211.889 64.7951 211.889Z" fill="white" stroke="#00B4CC" stroke-width="5.52154" stroke-miterlimit="10" stroke-linecap="round" stroke-linejoin="round"/>
<path d="M92.9276 243.5C98.6453 243.5 103.28 238.865 103.28 233.147C103.28 227.429 98.6453 222.794 92.9276 222.794C87.2099 222.794 82.5747 227.429 82.5747 233.147C82.5747 238.865 87.2099 243.5 92.9276 243.5Z" fill="#404366"/>
<path d="M146.431 245.239C152.149 245.239 156.784 240.604 156.784 234.887C156.784 229.169 152.149 224.534 146.431 224.534C140.714 224.534 136.078 229.169 136.078 234.887C136.078 240.604 140.714 245.239 146.431 245.239Z" fill="white" stroke="#00B4CC" stroke-width="5.52154" stroke-miterlimit="10" stroke-linecap="round" stroke-linejoin="round"/>
<path d="M234.914 214.512C240.632 214.512 245.267 209.877 245.267 204.159C245.267 198.441 240.632 193.806 234.914 193.806C229.196 193.806 224.561 198.441 224.561 204.159C224.561 209.877 229.196 214.512 234.914 214.512Z" fill="#404366"/>
<path d="M189.692 232.595C195.41 232.595 200.045 227.96 200.045 222.242C200.045 216.524 195.41 211.889 189.692 211.889C183.975 211.889 179.339 216.524 179.339 222.242C179.339 227.96 183.975 232.595 189.692 232.595Z" fill="#404366"/>
<path d="M290.516 214.512C296.234 214.512 300.869 209.877 300.869 204.159C300.869 198.441 296.234 193.806 290.516 193.806C284.798 193.806 280.163 198.441 280.163 204.159C280.163 209.877 284.798 214.512 290.516 214.512Z" fill="#404366"/>
</g>
<defs>
<clipPath id="clip0">
<rect width="378.612" height="248" fill="white"/>
</clipPath>
</defs>
</svg>
