<svg width="1010" height="686" viewBox="0 0 1010 686" fill="none" xmlns="http://www.w3.org/2000/svg">
<path d="M421.606 58.2195C418.813 60.9602 415.942 63.8576 412.809 66.1807C409.677 68.5038 405.97 69.7306 402.682 71.8188C400.202 73.411 397.644 75.0294 395.06 76.5694C391.249 78.8403 387.333 81.0068 383.235 82.7557C377.858 85.0788 371.724 87.0103 366.452 88.8897C360.97 90.8735 354.914 93.0922 349.746 96.2767" stroke="#C8CEDB" stroke-width="9.79333" stroke-miterlimit="10" stroke-linecap="round" stroke-linejoin="round"/>
<path d="M421.11 78.9969C431.878 78.9969 440.608 70.2671 440.608 59.4984C440.608 48.7297 431.878 40 421.11 40C410.341 40 401.611 48.7297 401.611 59.4984C401.611 70.2671 410.341 78.9969 421.11 78.9969Z" fill="white" stroke="#F90000" stroke-width="9.79333" stroke-miterlimit="10" stroke-linecap="round" stroke-linejoin="round"/>
<path d="M349.773 96.3289C343.978 99.9049 337.766 103.115 333.589 108.258C331.971 110.215 329.726 111.755 327.925 113.452C325.55 115.697 323.383 118.072 321.008 120.474C319.155 122.353 317.145 123.266 315.004 124.728C311.872 126.895 310.671 129.218 308.139 132.011C304.172 136.37 298.247 138.249 294.384 142.948C291.721 146.184 288.745 150.047 285.065 152.449C278.774 156.521 271.466 160.253 265.645 165.135C260.033 169.833 258.101 177.272 254.447 183.328C252.176 187.113 249.044 189.331 245.755 191.367" stroke="#C8CEDB" stroke-width="9.79333" stroke-miterlimit="10" stroke-linecap="round" stroke-linejoin="round"/>
<path d="M349.798 105.334C355.204 105.334 359.587 100.952 359.587 95.5457C359.587 90.1397 355.204 85.7573 349.798 85.7573C344.392 85.7573 340.01 90.1397 340.01 95.5457C340.01 100.952 344.392 105.334 349.798 105.334Z" fill="#404366"/>
<path d="M232.677 245.008C234.766 239.944 236.41 234.723 236.932 229.555V229.477C237.48 224.282 236.906 219.114 234.635 214.181C231.946 208.386 231.424 202.069 236.828 197.319C239.647 194.839 242.779 193.168 245.755 191.341" stroke="#C8CEDB" stroke-width="9.79333" stroke-miterlimit="10" stroke-linecap="round" stroke-linejoin="round"/>
<path d="M245.729 200.399C251.135 200.399 255.517 196.016 255.517 190.61C255.517 185.204 251.135 180.822 245.729 180.822C240.323 180.822 235.94 185.204 235.94 190.61C235.94 196.016 240.323 200.399 245.729 200.399Z" fill="#404366"/>
<path d="M232.677 244.929C229.884 251.69 226.23 258.189 223.176 263.958C218.19 273.381 217.068 281.969 214.979 291.574" stroke="#C8CEDB" stroke-width="9.79333" stroke-miterlimit="10" stroke-linecap="round" stroke-linejoin="round"/>
<path d="M232.677 255.762C238.083 255.762 242.465 251.379 242.465 245.973C242.465 240.567 238.083 236.185 232.677 236.185C227.271 236.185 222.889 240.567 222.889 245.973C222.889 251.379 227.271 255.762 232.677 255.762Z" fill="#404366"/>
<path d="M193.706 336.575C200.675 324.672 208.193 313.056 212.03 302.354C212.056 302.302 212.056 302.302 212.056 302.302C212.526 300.971 212.943 299.666 213.309 298.361C213.935 296.038 214.484 293.767 214.953 291.574" stroke="#C8CEDB" stroke-width="9.79333" stroke-miterlimit="10" stroke-linecap="round" stroke-linejoin="round"/>
<path d="M216.311 302.302C221.717 302.302 226.099 297.92 226.099 292.514C226.099 287.108 221.717 282.726 216.311 282.726C210.905 282.726 206.522 287.108 206.522 292.514C206.522 297.92 210.905 302.302 216.311 302.302Z" fill="#404366"/>
<path d="M193.707 336.575C184.884 351.636 176.923 367.141 178.333 381.862" stroke="#C8CEDB" stroke-width="9.79333" stroke-miterlimit="10" stroke-linecap="round" stroke-linejoin="round"/>
<path d="M193.733 347.12C199.139 347.12 203.521 342.737 203.521 337.331C203.521 331.925 199.139 327.543 193.733 327.543C188.327 327.543 183.944 331.925 183.944 337.331C183.944 342.737 188.327 347.12 193.733 347.12Z" fill="#404366"/>
<path d="M178.332 381.862C178.671 385.281 179.481 388.649 180.942 391.938C181.856 394.052 183.004 395.853 184.309 397.445C191.514 406.294 203.312 408.747 206.523 422.216C207.149 424.826 207.593 427.933 207.88 431.274" stroke="#C8CEDB" stroke-width="9.79333" stroke-miterlimit="10" stroke-linecap="round" stroke-linejoin="round"/>
<path d="M177.888 392.695C183.294 392.695 187.676 388.312 187.676 382.906C187.676 377.5 183.294 373.118 177.888 373.118C172.482 373.118 168.1 377.5 168.1 382.906C168.1 388.312 172.482 392.695 177.888 392.695Z" fill="#404366"/>
<path d="M207.854 431.274C208.794 442.159 208.141 455.758 207.071 464.894C206.601 468.992 205.427 473.012 203.991 477.005" stroke="#F90000" stroke-width="9.79359" stroke-miterlimit="10" stroke-linejoin="round"/>
<path d="M208.063 440.54C213.469 440.54 217.851 436.158 217.851 430.752C217.851 425.346 213.469 420.963 208.063 420.963C202.657 420.963 198.274 425.346 198.274 430.752C198.274 436.158 202.657 440.54 208.063 440.54Z" fill="white" stroke="#F90000" stroke-width="5.22046" stroke-miterlimit="10" stroke-linecap="round" stroke-linejoin="round"/>
<path d="M203.991 477.005C200.989 485.253 196.735 493.371 194.62 501.672C192.872 508.432 191.906 514.88 191.384 521.301" stroke="#C8CEDB" stroke-width="9.79333" stroke-miterlimit="10" stroke-linecap="round" stroke-linejoin="round"/>
<path d="M202.529 486.063C207.935 486.063 212.317 481.68 212.317 476.274C212.317 470.868 207.935 466.486 202.529 466.486C197.123 466.486 192.74 470.868 192.74 476.274C192.74 481.68 197.123 486.063 202.529 486.063Z" fill="#404366"/>
<path d="M191.383 521.301C191.018 525.634 190.861 529.941 190.809 534.352C190.757 538.346 190.757 542.418 190.783 546.62C190.809 553.041 191.305 560.037 191.488 566.954" stroke="#C8CEDB" stroke-width="9.79333" stroke-miterlimit="10" stroke-linecap="round" stroke-linejoin="round"/>
<path d="M192.297 531.663C197.703 531.663 202.086 527.281 202.086 521.875C202.086 516.469 197.703 512.087 192.297 512.087C186.891 512.087 182.509 516.469 182.509 521.875C182.509 527.281 186.891 531.663 192.297 531.663Z" fill="#404366"/>
<path d="M191.487 566.954C191.618 571.991 191.566 576.977 191.018 581.649C189.921 591.072 184.675 598.72 179.663 606.681" stroke="#C8CEDB" stroke-width="9.79333" stroke-miterlimit="10" stroke-linecap="round" stroke-linejoin="round"/>
<path d="M190.991 576.742C196.397 576.742 200.78 572.36 200.78 566.954C200.78 561.548 196.397 557.165 190.991 557.165C185.586 557.165 181.203 561.548 181.203 566.954C181.203 572.36 185.586 576.742 190.991 576.742Z" fill="#404366"/>
<path d="M179.638 606.681C177.915 609.422 176.218 612.189 174.73 615.086C171.154 622.003 151.421 665.02 156.981 683.735" stroke="#F90000" stroke-width="9.79359" stroke-miterlimit="10" stroke-linejoin="round"/>
<path d="M177.888 617.723C183.294 617.723 187.676 613.34 187.676 607.934C187.676 602.528 183.294 598.146 177.888 598.146C172.482 598.146 168.1 602.528 168.1 607.934C168.1 613.34 172.482 617.723 177.888 617.723Z" fill="white" stroke="#F90000" stroke-width="5.22046" stroke-miterlimit="10" stroke-linecap="round" stroke-linejoin="round"/>
<text fill="#1E1E1E" xml:space="preserve" style="white-space: pre" font-family="Titillium Web" font-size="20" font-weight="600" letter-spacing="0px"><tspan x="204" y="629.45">Dosarul Digital</tspan></text>
<text fill="#1E1E1E" xml:space="preserve" style="white-space: pre" font-family="Titillium Web" font-size="20" font-weight="600" letter-spacing="0px"><tspan x="0" y="570.45">Asistent de sarcina&#13;</tspan></text>
<text fill="#1E1E1E" xml:space="preserve" style="white-space: pre" font-family="Titillium Web" font-size="20" font-weight="600" letter-spacing="0px"><tspan x="224" y="524.45">Pregnancy Fact Checker&#13;</tspan></text>
<text fill="#1E1E1E" xml:space="preserve" style="white-space: pre" font-family="Titillium Web" font-size="20" font-weight="600" letter-spacing="0px"><tspan x="80" y="479.45">Doctor Call&#13;</tspan></text>
<text fill="#1E1E1E" xml:space="preserve" style="white-space: pre" font-family="Titillium Web" font-size="20" font-weight="600" letter-spacing="0px"><tspan x="239" y="433.45">&#xce;mpreun&#x103; pentru s&#x103;n&#x103;tate</tspan></text>
<text fill="#1E1E1E" xml:space="preserve" style="white-space: pre" font-family="Titillium Web" font-size="20" font-weight="600" letter-spacing="0px"><tspan x="57" y="388.45">MediRide&#13;</tspan></text>
<text fill="#1E1E1E" xml:space="preserve" style="white-space: pre" font-family="Titillium Web" font-size="20" font-weight="600" letter-spacing="0px"><tspan x="1" y="328.45">Preven&#x21b;ie Abandon&#13;</tspan></text>
<text fill="#1E1E1E" xml:space="preserve" style="white-space: pre" font-family="Titillium Web" font-size="20" font-weight="600" letter-spacing="0px"><tspan x="250" y="300.45">Re&#x21b;ea pentru boli rare&#13;</tspan></text>
<path d="M551.012 28.817L549.136 34.8869C548.551 36.7868 547.599 38.5533 546.332 40.0851C545.065 41.6169 543.509 42.8842 541.753 43.8145C539.996 44.7449 538.074 45.3203 536.095 45.5077C534.116 45.6952 532.12 45.4909 530.22 44.9067C528.32 44.3225 526.553 43.3699 525.021 42.1033C523.49 40.8364 522.222 39.2805 521.292 37.5238C520.362 35.7673 519.786 33.8447 519.599 31.8658C519.411 29.887 519.616 27.8905 520.2 25.9906L521.59 21.4729C525.337 20.1287 528.977 18.5023 532.478 16.6078C535.356 15.2375 537.937 13.317 540.077 10.9549C540.176 10.8287 540.309 10.7329 540.46 10.6785C540.611 10.624 540.774 10.6131 540.932 10.6469C541.088 10.6807 541.233 10.7579 541.348 10.8697C541.463 10.9815 541.545 11.1234 541.583 11.2792C542.981 17.9078 546.254 23.9952 551.012 28.817Z" stroke="#F90000" stroke-width="2.875" stroke-linecap="round" stroke-linejoin="round"/>
<path d="M495.643 70.4018C495.643 70.4018 490.268 63.4515 496.014 51.8676C501.759 40.284 513.204 33.7739 515.706 25.1788L518.162 17.1861C518.889 14.8111 520.078 12.603 521.66 10.6882C523.242 8.77346 525.186 7.18964 527.381 6.02749C529.576 4.86537 531.979 4.14778 534.452 3.91578C536.925 3.6838 539.419 3.94204 541.793 4.67563C546.586 6.15031 550.599 9.46718 552.948 13.8979C555.299 18.3285 555.794 23.5107 554.326 28.3064L551.871 36.2992C551.251 38.6997 551.171 41.2082 551.639 43.6432" stroke="#F90000" stroke-width="2.875" stroke-miterlimit="10"/>
<path d="M518.206 22.6088C519.341 22.2613 520.523 21.8906 521.589 21.4736C525.336 20.1294 528.976 18.503 532.477 16.6084C535.895 15.074 538.857 12.6793 541.072 9.6582" stroke="#F90000" stroke-width="2.875" stroke-linecap="round" stroke-linejoin="round"/>
<path d="M541.281 9.6582C542.451 16.902 545.853 23.6 551.012 28.8177C551.842 29.6367 552.716 30.4101 553.63 31.1344" stroke="#F90000" stroke-width="2.875" stroke-linecap="round" stroke-linejoin="round"/>
<path d="M533.522 26.4045C533.131 26.8459 532.613 27.1553 532.04 27.2903C531.466 27.4252 530.865 27.3789 530.319 27.1578C529.772 26.9368 529.308 26.5518 528.99 26.056C528.671 25.5601 528.515 24.9776 528.541 24.3889" stroke="#F90000" stroke-width="2.875" stroke-miterlimit="10"/>
<path d="M543.924 30.6496C543.526 31.0993 542.996 31.4127 542.41 31.5456C541.824 31.6786 541.211 31.6245 540.658 31.3909C540.129 31.1553 539.683 30.7667 539.378 30.2753C539.072 29.7839 538.921 29.2123 538.944 28.634" stroke="#F90000" stroke-width="2.875" stroke-miterlimit="10"/>
<path d="M529.56 35.4397C530.389 36.3208 531.402 37.0081 532.527 37.4526C533.653 37.8971 534.862 38.0879 536.07 38.0113" stroke="#F90000" stroke-width="2.875" stroke-miterlimit="10" stroke-linecap="round"/>
<path d="M557.243 70.6584C563.82 70.6584 569.151 65.327 569.151 58.7505C569.151 52.1737 563.82 46.8423 557.243 46.8423C550.666 46.8423 545.335 52.1737 545.335 58.7505C545.335 65.327 550.666 70.6584 557.243 70.6584Z" stroke="#F90000" stroke-width="2.875" stroke-miterlimit="10"/>
<path d="M553.587 54.8563C554.29 54.8563 554.861 54.2859 554.861 53.5821C554.861 52.8783 554.29 52.3079 553.587 52.3079C552.883 52.3079 552.312 52.8783 552.312 53.5821C552.312 54.2859 552.883 54.8563 553.587 54.8563Z" fill="#F90000"/>
<path d="M559.629 60.2056C560.332 60.2056 560.903 59.6352 560.903 58.9314C560.903 58.2276 560.332 57.6572 559.629 57.6572C558.925 57.6572 558.354 58.2276 558.354 58.9314C558.354 59.6352 558.925 60.2056 559.629 60.2056Z" fill="#F90000"/>
<path d="M551.242 58.9338C551.257 59.6196 551.502 60.2805 551.937 60.8106C552.38 61.3385 552.996 61.6919 553.675 61.8065" stroke="#F90000" stroke-width="2.875" stroke-miterlimit="10" stroke-linecap="round"/>
<path d="M520.082 91.3001C518.044 88.7713 517.009 85.5796 517.176 82.3355C517.342 79.0917 518.699 76.0227 520.986 73.7162L545.821 47.699C548.596 44.6875 552.407 42.8368 556.489 42.519C560.571 42.2009 564.623 43.439 567.83 45.9847C570.912 48.7298 572.831 52.5463 573.197 56.6571C573.563 60.768 572.348 64.8635 569.8 68.1096L553.976 88.9602" stroke="#F90000" stroke-width="2.875" stroke-miterlimit="10" stroke-linecap="round"/>
<path d="M537.021 45.5881V50.3373C537.021 50.9291 537.182 51.5099 537.489 52.0163C537.795 52.5226 538.234 52.9355 538.758 53.21L539.824 53.7432" stroke="#F90000" stroke-width="2.875" stroke-miterlimit="10" stroke-linecap="round"/>
<path d="M524.233 41.6951V49.1781C524.25 50.1334 523.999 51.0741 523.507 51.8933C523.016 52.7128 522.304 53.3772 521.453 53.8115L519.947 54.5758L509.892 59.2096C503.187 62.3299 497.511 67.2987 493.53 73.5321C489.55 79.7654 487.43 87.0051 487.42 94.4007V101.699" stroke="#F90000" stroke-width="2.875" stroke-miterlimit="10" stroke-linecap="round"/>
<path d="M563.869 76.5918C567.055 80.3584 569.627 84.6038 571.491 89.1716C572.403 91.4659 572.803 93.9319 572.662 96.3967C572.522 98.8615 571.846 101.267 570.68 103.443C568.55 106.693 565.302 109.05 561.552 110.069C557.825 111.067 553.948 111.389 550.107 111.019C540.487 110.52 531.131 107.698 522.839 102.794C521.793 102.129 520.822 101.352 519.943 100.477C519.642 100.176 519.318 99.8053 519.388 99.3883C519.433 99.1732 519.549 98.9792 519.716 98.8366C519.884 98.6944 520.094 98.6112 520.314 98.6009C520.75 98.5875 521.185 98.6664 521.588 98.8324C523.269 99.2939 525.022 99.4354 526.754 99.2495" stroke="#F90000" stroke-width="2.875" stroke-miterlimit="10"/>
<path d="M522.908 99.1525C521.853 98.7251 520.926 98.0305 520.221 97.1369C520.058 96.9866 519.928 96.8042 519.84 96.6003C519.752 96.3967 519.708 96.177 519.711 95.9551C519.754 95.7531 519.846 95.5649 519.98 95.4073C520.113 95.2498 520.283 95.1275 520.476 95.0516C520.871 94.9243 521.289 94.8768 521.704 94.9128C523.838 95.3379 526.019 95.4782 528.19 95.3295" stroke="#F90000" stroke-width="2.875" stroke-miterlimit="10"/>
<path d="M523.557 95.1197C522.438 94.7371 521.451 94.0463 520.707 93.1275C520.537 92.9638 520.405 92.7648 520.321 92.5448C520.237 92.3244 520.202 92.0883 520.22 91.8533C520.286 91.6187 520.417 91.4071 520.597 91.2434C520.777 91.0793 521 90.9697 521.24 90.9264C521.715 90.8455 522.201 90.8455 522.676 90.9264C525.976 91.3435 529.315 91.3435 532.615 90.9264" stroke="#F90000" stroke-width="2.875" stroke-miterlimit="10"/>
<path d="M529.695 91.2735C529.366 90.4439 529.095 89.5922 528.884 88.7251C528.748 88.3774 528.698 88.0021 528.738 87.631C528.778 87.26 528.908 86.9043 529.115 86.5938C529.27 86.4508 529.453 86.3419 529.653 86.274C529.852 86.2062 530.064 86.1809 530.274 86.2001C530.687 86.2426 531.093 86.3438 531.479 86.501C533.795 87.3815 536.112 88.5629 538.614 89.6056C541.061 90.8472 543.796 91.4099 546.534 91.2348C549.273 91.0596 551.914 90.153 554.183 88.6093C553.997 88.6093 554.183 88.7948 553.974 88.8872" stroke="#F90000" stroke-width="2.875" stroke-miterlimit="10"/>
<path d="M543.6 91.2812C543.93 93.7656 543.733 96.2918 543.02 98.6949C542.315 101.134 540.904 103.31 538.966 104.95C537.027 106.575 534.543 107.403 532.016 107.267" stroke="#F90000" stroke-width="2.875" stroke-miterlimit="10"/>
<path d="M497.471 87.4751H508.082V98.5259H497.471V109.114H486.421V98.5259H475.833V87.4751H486.421V76.8875H497.471V87.4751Z" fill="white" stroke="#F90000" stroke-width="2.875" stroke-linecap="round" stroke-linejoin="round"/>
<text fill="#1E1E1E" xml:space="preserve" style="white-space: pre" font-family="Titillium Web" font-size="20" font-weight="600" letter-spacing="0px"><tspan x="22" y="237.45">Programare la doctor </tspan></text>
<text fill="#1E1E1E" xml:space="preserve" style="white-space: pre" font-family="Titillium Web" font-size="20" font-weight="600" letter-spacing="0px"><tspan x="272" y="203.45">Sistem securizat de &#x2028;</tspan><tspan x="272" y="225.45">comunicare&#13;pentru medici&#13;</tspan></text>
<text fill="#1E1E1E" xml:space="preserve" style="white-space: pre" font-family="Titillium Web" font-size="20" font-weight="600" letter-spacing="0px"><tspan x="110" y="90.45">Comunit&#x103;&#x21b;i pentru p&#x103;rin&#x21b;i</tspan></text>
<text fill="#1E1E1E" xml:space="preserve" style="white-space: pre" font-family="Titillium Web" font-size="40" font-weight="600" letter-spacing="0px"><tspan x="619" y="51.9">Grij&#x103; pentru s&#x103;n&#x103;tatea&#13;&#x2028;</tspan><tspan x="619" y="93.9">mamei &#x219;i a copilului </tspan></text>
</svg>
