<svg width="107" height="465" viewBox="0 0 107 465" fill="none" xmlns="http://www.w3.org/2000/svg">
<g clip-path="url(#clip0)">
<path d="M95.2944 384.793C93.749 396.161 90.6318 406.901 85.3406 416.54C81.2281 424.006 77.1418 431.209 73.2913 438.282" stroke="#C8CEDB" stroke-width="9.82781" stroke-miterlimit="10" stroke-linecap="round" stroke-linejoin="round"/>
<path d="M93.5134 330.44C96.3686 348.907 97.6521 367.583 95.3208 384.819" stroke="#C8CEDB" stroke-width="9.82781" stroke-miterlimit="10" stroke-linecap="round" stroke-linejoin="round"/>
<path d="M11.1582 65.6692C12.9918 70.1746 14.8778 74.68 16.0827 79.2902C19.5665 92.5707 26.0103 105.406 31.354 118.87C35.676 129.766 47.0967 137.075 50.7901 148.574C57.8101 170.42 64.6468 193.628 67.9473 216.365C70.4096 233.365 75.5436 249.527 79.5513 266.343C84.0829 285.334 90.0028 307.73 93.5129 330.44" stroke="#C8CEDB" stroke-width="9.82781" stroke-miterlimit="10" stroke-linecap="round" stroke-linejoin="round"/>
<path d="M12.7043 4.92432C8.74894 13.0183 6.2081 21.6886 5.84138 30.0184C5.52705 37.379 4.89839 45.8135 6.6796 52.886C7.75356 57.208 9.45619 61.4253 11.1588 65.6687" stroke="#00B4CC" stroke-width="9.82781" stroke-miterlimit="10" stroke-linecap="round" stroke-linejoin="round"/>
<path d="M70.4361 460.101C81.2427 460.101 90.0032 451.341 90.0032 440.534C90.0032 429.728 81.2427 420.967 70.4361 420.967C59.6295 420.967 50.869 429.728 50.869 440.534C50.869 451.341 59.6295 460.101 70.4361 460.101Z" fill="white" stroke="#00B4CC" stroke-width="9.82781" stroke-miterlimit="10" stroke-linecap="round" stroke-linejoin="round"/>
<path d="M96.5258 376.49C101.951 376.49 106.349 372.092 106.349 366.667C106.349 361.242 101.951 356.844 96.5258 356.844C91.1008 356.844 86.703 361.242 86.703 366.667C86.703 372.092 91.1008 376.49 96.5258 376.49Z" fill="#404366"/>
<path d="M50.2667 162.064C55.6917 162.064 60.0895 157.666 60.0895 152.241C60.0895 146.816 55.6917 142.418 50.2667 142.418C44.8417 142.418 40.4438 146.816 40.4438 152.241C40.4438 157.666 44.8417 162.064 50.2667 162.064Z" fill="#404366"/>
<path d="M25.5915 118.424C31.0165 118.424 35.4144 114.026 35.4144 108.601C35.4144 103.176 31.0165 98.7783 25.5915 98.7783C20.1665 98.7783 15.7687 103.176 15.7687 108.601C15.7687 114.026 20.1665 118.424 25.5915 118.424Z" fill="#404366"/>
<path d="M9.82284 75.0199C15.2478 75.0199 19.6457 70.6221 19.6457 65.1971C19.6457 59.7721 15.2478 55.3743 9.82284 55.3743C4.39783 55.3743 0 59.7721 0 65.1971C0 70.6221 4.39783 75.0199 9.82284 75.0199Z" fill="#404366"/>
</g>
<defs>
<clipPath id="clip0">
<rect width="106.349" height="465" fill="white"/>
</clipPath>
</defs>
</svg>
