<svg width="1200" height="1000" viewBox="0 0 1200 1000" fill="none" xmlns="http://www.w3.org/2000/svg">
<g id="segment-care-05-sanse-pentru-persoane-cu-disabilitati">
<g id="Group 1150">
<g id="Group 1142">
<path id="Vector" d="M817.952 580.571C778.499 573.276 741.115 557.701 701.48 552.061C689.372 550.354 684.095 547.068 673.565 550.509C660.164 554.907 647.668 563.91 634.422 569.214C617.761 575.863 602.187 576.768 584.543 579.588C561.517 583.288 538.492 587.065 515.312 589.6C514.199 589.73 513.112 589.859 512 590.04" stroke="#7937C4" stroke-width="9.70659" stroke-miterlimit="10" stroke-linejoin="round" stroke-dasharray="12.13 12.13"/>
<path id="Vector_2" d="M818.961 598.241C829.634 598.241 838.286 589.589 838.286 578.916C838.286 568.242 829.634 559.59 818.961 559.59C808.287 559.59 799.635 568.242 799.635 578.916C799.635 589.589 808.287 598.241 818.961 598.241Z" fill="white" stroke="#7937C4" stroke-width="9.70659" stroke-miterlimit="10" stroke-linecap="round" stroke-linejoin="round"/>
</g>
<text id="&#200;&#152;anse pentru&#226;&#128;&#168;persoanele cu dizabilit&#196;&#131;&#200;&#155;i" fill="#1E1E1E" xml:space="preserve" style="white-space: pre" font-family="Titillium Web" font-size="40" font-weight="600" letter-spacing="0px"><tspan x="506.18" y="458.9">&#x218;anse pentru&#x2028;</tspan><tspan x="306.766" y="500.9">persoanele cu dizabilit&#x103;&#x21b;i</tspan></text>
<g id="icon-sanse-pentru-persoanele-cu-dizabilitati 1">
<path id="Vector_3" d="M819.682 450.347C819.28 450.343 818.896 450.179 818.614 449.892L812.634 443.912C812.241 443.522 811.71 443.301 811.156 443.298H802.197C801.999 443.301 801.803 443.265 801.619 443.19C801.436 443.116 801.269 443.006 801.129 442.866C800.989 442.726 800.879 442.559 800.804 442.376C800.73 442.192 800.693 441.996 800.696 441.798V431.225C800.693 431.026 800.73 430.828 800.804 430.643C800.878 430.459 800.988 430.29 801.128 430.149C801.268 430.007 801.434 429.894 801.618 429.818C801.801 429.741 801.998 429.701 802.197 429.701C802.648 429.725 803.079 429.896 803.424 430.187C803.768 430.479 804.009 430.875 804.107 431.316L805.653 436.295C805.829 436.987 806.191 437.618 806.7 438.119C807.209 438.62 807.846 438.972 808.541 439.137L812.679 440.115C813.101 440.116 813.51 440.261 813.839 440.524L819.728 446.618L820.456 445.89C820.595 445.749 820.762 445.636 820.945 445.559C821.128 445.483 821.325 445.443 821.524 445.443C821.723 445.443 821.92 445.483 822.104 445.559C822.287 445.636 822.453 445.749 822.593 445.89C822.868 446.178 823.022 446.561 823.022 446.959C823.022 447.357 822.868 447.74 822.593 448.028L820.796 449.801C820.66 449.965 820.49 450.099 820.298 450.193C820.106 450.287 819.896 450.339 819.682 450.347Z" stroke="#7937C4" stroke-width="2.89224" stroke-miterlimit="10"/>
<path id="Vector_4" d="M810.085 438.25H802.945C802.547 438.25 802.165 438.092 801.884 437.811C801.602 437.529 801.444 437.148 801.444 436.75C801.444 436.352 801.602 435.97 801.884 435.689C802.165 435.407 802.547 435.249 802.945 435.249H810.085C810.483 435.249 810.864 435.407 811.146 435.689C811.427 435.97 811.585 436.352 811.585 436.75C811.585 437.148 811.427 437.529 811.146 437.811C810.864 438.092 810.483 438.25 810.085 438.25Z" fill="white" stroke="#7937C4" stroke-width="2.89224" stroke-miterlimit="10"/>
<path id="Vector_5" d="M814.113 447.347C814.115 449.353 813.573 451.323 812.544 453.046C811.516 454.768 810.04 456.18 808.273 457.131C806.506 458.081 804.514 458.534 802.509 458.443C800.505 458.351 798.563 457.717 796.89 456.609C795.217 455.502 793.876 453.961 793.01 452.151C792.143 450.342 791.783 448.331 791.968 446.333C792.154 444.335 792.877 442.425 794.062 440.806C795.247 439.187 796.849 437.919 798.697 437.138" stroke="#7937C4" stroke-width="2.89224" stroke-linecap="round" stroke-linejoin="round"/>
<path id="Vector_6" d="M811.134 447.344C811.126 448.805 810.724 450.238 809.97 451.49C809.216 452.741 808.138 453.766 806.85 454.456C805.561 455.146 804.111 455.476 802.651 455.41C801.191 455.344 799.776 454.886 798.555 454.082C797.334 453.279 796.353 452.161 795.714 450.846C795.076 449.531 794.805 448.069 794.929 446.613C795.053 445.156 795.567 443.761 796.419 442.573C797.27 441.385 798.426 440.449 799.765 439.863" stroke="#7937C4" stroke-width="2.89224" stroke-linecap="round" stroke-linejoin="round"/>
<path id="Vector_7" d="M802.787 428.564C804.005 428.564 804.992 427.577 804.992 426.359C804.992 425.141 804.005 424.153 802.787 424.153C801.568 424.153 800.581 425.141 800.581 426.359C800.581 427.577 801.568 428.564 802.787 428.564Z" stroke="#7937C4" stroke-width="2.89224" stroke-miterlimit="10"/>
<path id="Vector_8" d="M845.539 440.524C845.931 440.66 846.306 440.843 846.653 441.07C847.118 439.393 848.067 437.89 849.382 436.75C850.565 435.651 852.073 434.965 853.679 434.794C854.914 434.639 856.167 434.763 857.348 435.157C858.528 435.55 859.606 436.203 860.5 437.068C861.416 438.101 861.978 439.398 862.105 440.773C862.232 442.147 861.917 443.525 861.205 444.708C860.5 445.799 859.477 446.663 858.75 447.755C857.975 449.176 857.43 450.711 857.135 452.302C856.825 453.937 856.033 455.442 854.862 456.622C854.207 457.198 853.409 457.585 852.552 457.741C851.694 457.898 850.811 457.817 849.995 457.509" stroke="#7937C4" stroke-width="2.89224" stroke-linecap="round" stroke-linejoin="round"/>
<path id="Vector_9" d="M850.428 440.525C851.018 439.45 851.993 438.638 853.156 438.251C853.742 438.067 854.363 438.02 854.971 438.115C855.578 438.21 856.155 438.443 856.658 438.797C857.16 439.162 857.55 439.659 857.787 440.233C858.024 440.807 858.097 441.435 857.999 442.048" stroke="#7937C4" stroke-width="2.89224" stroke-linecap="round" stroke-linejoin="round"/>
<path id="Vector_10" d="M847.948 444.548C847.855 444.898 847.889 445.27 848.042 445.599C848.196 445.927 848.461 446.191 848.789 446.344C849.407 446.493 850.041 446.562 850.676 446.549C851.187 446.633 851.659 446.873 852.03 447.234C852.4 447.597 852.65 448.064 852.745 448.572C852.802 449.193 852.802 449.817 852.745 450.437C852.707 450.745 852.739 451.058 852.837 451.354C852.935 451.649 853.098 451.918 853.314 452.142" stroke="#7937C4" stroke-width="2.89224" stroke-linecap="round" stroke-linejoin="round"/>
<path id="Vector_11" d="M867.545 426.352L860.069 433.828L862.674 436.432L870.15 428.956L867.545 426.352Z" fill="#7937C4" stroke="#7937C4" stroke-width="2.89224" stroke-miterlimit="10"/>
<path id="Vector_12" d="M846.737 447.159L839.261 454.635L841.865 457.24L849.342 449.764L846.737 447.159Z" fill="#7937C4" stroke="#7937C4" stroke-width="2.89224" stroke-miterlimit="10"/>
<path id="Vector_13" d="M783.233 503.144C787.515 503.144 790.987 498.339 790.987 492.412C790.987 486.485 787.515 481.68 783.233 481.68C778.951 481.68 775.479 486.485 775.479 492.412C775.479 498.339 778.951 503.144 783.233 503.144Z" fill="#7937C4" stroke="#7937C4" stroke-width="2.89224" stroke-miterlimit="10"/>
<path id="Vector_14" d="M803.2 503.144C807.482 503.144 810.953 498.339 810.953 492.412C810.953 486.485 807.482 481.68 803.2 481.68C798.918 481.68 795.446 486.485 795.446 492.412C795.446 498.339 798.918 503.144 803.2 503.144Z" fill="#7937C4" stroke="#7937C4" stroke-width="2.89224" stroke-miterlimit="10"/>
<path id="Vector_15" d="M810.334 489.41L822.362 477.359C822.362 477.359 825.75 475.336 825.75 481.27" stroke="#7937C4" stroke-width="2.89224" stroke-linecap="round" stroke-linejoin="round"/>
<path id="Vector_16" d="M777.028 489.41L789.057 477.359C789.057 477.359 792.445 475.336 792.445 481.27" stroke="#7937C4" stroke-width="2.89224" stroke-linecap="round" stroke-linejoin="round"/>
<path id="Vector_17" d="M790.191 492.479H797.604" stroke="#7937C4" stroke-width="2.89224" stroke-linecap="round" stroke-linejoin="round"/>
<path id="Vector_18" d="M863.022 506.032C863.022 506.032 855.269 475.45 855.291 475.427C855.314 475.404 853.745 470.88 849.721 471.994C848.567 472.304 847.534 472.957 846.759 473.867C845.984 474.776 845.502 475.899 845.378 477.087" stroke="#7937C4" stroke-width="2.89224" stroke-linecap="round" stroke-linejoin="round"/>
<path id="Vector_19" d="M831.599 522.948C863.546 522.948 889.444 497.05 889.444 465.104C889.444 433.157 863.546 407.259 831.599 407.259C799.652 407.259 773.754 433.157 773.754 465.104C773.754 497.05 799.652 522.948 831.599 522.948Z" stroke="#7937C4" stroke-width="2.89224" stroke-linecap="round" stroke-linejoin="round"/>
<path id="Vector_20" d="M831.6 407.281V522.948" stroke="#7937C4" stroke-width="2.89224" stroke-linecap="round" stroke-linejoin="round"/>
<path id="Vector_21" d="M773.774 465.104H889.441" stroke="#7937C4" stroke-width="2.89224" stroke-linecap="round" stroke-linejoin="round"/>
</g>
</g>
</g>
</svg>
