<svg width="536" height="484" viewBox="0 0 536 484" fill="none" xmlns="http://www.w3.org/2000/svg">
<path d="M531.243 4.72388C515.16 13.8962 496.916 18.5954 477.918 19.4749C474.852 19.6257 471.787 19.6508 468.696 19.6006C453.819 19.3493 442.209 24.8275 427.609 24.6516C408.611 24.4254 388.055 20.9073 367.549 18.9221" stroke="#1B771B" stroke-width="9.42835" stroke-miterlimit="10" stroke-linecap="round" stroke-linejoin="round"/>
<path d="M367.524 18.9225C346.289 16.887 325.08 16.4849 305.705 23.1945C288.215 29.2256 273.188 40.3329 260.522 54.0536C242.077 74.0316 228.608 99.5883 219.762 123.311C214.033 138.665 217.626 153.943 216.897 169.75C216.797 171.861 216.621 173.997 216.345 176.133C214.209 192.015 206.846 206.917 202.172 221.919C199.558 230.312 196.97 238.479 194.608 246.948C192.999 252.703 192.647 258.03 192.22 263.433C191.969 266.423 191.718 269.414 191.165 272.505C186.742 298.262 158.798 311.757 143.469 331.006C138.368 337.414 134.322 344.526 129.673 351.261C128.065 353.598 126.456 355.809 124.823 357.945C109.72 377.722 93.9136 388.653 69.6636 398.956C51.5703 406.646 42.2724 411.622 32.7232 429.413C26.8429 440.395 24.2046 463.941 21.6162 472.435" stroke="#C8CEDB" stroke-width="9.42835" stroke-miterlimit="10" stroke-linecap="round" stroke-linejoin="round"/>
<path d="M23.8277 479.145C34.195 479.145 42.5994 470.74 42.5994 460.373C42.5994 450.006 34.195 441.601 23.8277 441.601C13.4603 441.601 5.05591 450.006 5.05591 460.373C5.05591 470.74 13.4603 479.145 23.8277 479.145Z" fill="white" stroke="#1B771B" stroke-width="9.42835" stroke-miterlimit="10" stroke-linecap="round" stroke-linejoin="round"/>
<path d="M172.771 313.692C177.975 313.692 182.194 309.473 182.194 304.269C182.194 299.064 177.975 294.845 172.771 294.845C167.566 294.845 163.347 299.064 163.347 304.269C163.347 309.473 167.566 313.692 172.771 313.692Z" fill="#404366"/>
<path d="M197.473 249.159C202.677 249.159 206.896 244.94 206.896 239.735C206.896 234.531 202.677 230.312 197.473 230.312C192.268 230.312 188.049 234.531 188.049 239.735C188.049 244.94 192.268 249.159 197.473 249.159Z" fill="#404366"/>
<path d="M213.907 200.634C219.112 200.634 223.331 196.415 223.331 191.211C223.331 186.006 219.112 181.787 213.907 181.787C208.703 181.787 204.484 186.006 204.484 191.211C204.484 196.415 208.703 200.634 213.907 200.634Z" fill="#404366"/>
<path d="M216.874 152.135C222.078 152.135 226.297 147.916 226.297 142.711C226.297 137.507 222.078 133.288 216.874 133.288C211.669 133.288 207.45 137.507 207.45 142.711C207.45 147.916 211.669 152.135 216.874 152.135Z" fill="#404366"/>
<path d="M241.6 87.2243C246.805 87.2243 251.024 83.0053 251.024 77.8008C251.024 72.5963 246.805 68.3772 241.6 68.3772C236.396 68.3772 232.177 72.5963 232.177 77.8008C232.177 83.0053 236.396 87.2243 241.6 87.2243Z" fill="#404366"/>
<path d="M360.186 27.6424C365.391 27.6424 369.61 23.4234 369.61 18.2189C369.61 13.0144 365.391 8.79529 360.186 8.79529C354.982 8.79529 350.763 13.0144 350.763 18.2189C350.763 23.4234 354.982 27.6424 360.186 27.6424Z" fill="white" stroke="#1B771B" stroke-width="5.02591" stroke-miterlimit="10" stroke-linecap="round" stroke-linejoin="round"/>
<path d="M448.667 31.4114C453.871 31.4114 458.091 27.1923 458.091 21.9878C458.091 16.7833 453.871 12.5642 448.667 12.5642C443.462 12.5642 439.243 16.7833 439.243 21.9878C439.243 27.1923 443.462 31.4114 448.667 31.4114Z" fill="white" stroke="#1B771B" stroke-width="5.02591" stroke-miterlimit="10" stroke-linecap="round" stroke-linejoin="round"/>
</svg>
