<svg width="529" height="381" viewBox="0 0 529 381" fill="none" xmlns="http://www.w3.org/2000/svg">
<path d="M213.674 141.237C211.896 143.574 209.762 145.861 207.043 148.173C205.849 149.189 204.629 150.155 203.359 151.044C191.341 159.454 176.477 162.071 163.545 168.626C157.066 171.904 150.18 174.445 143.32 177.036C137.324 179.298 131.353 181.635 125.636 184.557C117.76 188.597 111.205 196.219 103.328 200.843C96.5696 204.807 88.8965 206.255 81.4774 209.533C75.227 212.302 69.1038 215.605 62.9805 218.908" stroke="#1B771B" stroke-width="9.53277" stroke-miterlimit="10" stroke-linejoin="round" stroke-dasharray="11.92 11.92"/>
<path d="M276.202 48.3202C267.793 56.5778 258.824 64.6575 250.591 74.4141C241.597 85.1108 233.314 97.8147 227.623 110.239C227.115 111.332 226.632 112.45 226.174 113.542C221.499 124.595 219.899 133.106 213.674 141.237" stroke="#C8CEDB" stroke-width="9.53277" stroke-miterlimit="10" stroke-linecap="round" stroke-linejoin="round"/>
<path d="M305.448 5C300.391 21.5913 291.041 33.2789 280.37 44.1789C278.998 45.5763 277.626 46.9483 276.229 48.3204" stroke="#C8CEDB" stroke-width="9.53277" stroke-miterlimit="10" stroke-linecap="round" stroke-linejoin="round"/>
<path d="M62.9797 237.532C73.4618 237.532 81.9593 229.035 81.9593 218.553C81.9593 208.071 73.4618 199.573 62.9797 199.573C52.4975 199.573 44 208.071 44 218.553C44 229.035 52.4975 237.532 62.9797 237.532Z" fill="white" stroke="#1B771B" stroke-width="9.53277" stroke-miterlimit="10" stroke-linecap="round" stroke-linejoin="round"/>
<path d="M276.152 57.8482C281.414 57.8482 285.68 53.5824 285.68 48.3202C285.68 43.0581 281.414 38.7923 276.152 38.7923C270.89 38.7923 266.624 43.0581 266.624 48.3202C266.624 53.5824 270.89 57.8482 276.152 57.8482Z" fill="#404366"/>
<path d="M235.143 107.393C240.405 107.393 244.671 103.128 244.671 97.8655C244.671 92.6033 240.405 88.3375 235.143 88.3375C229.881 88.3375 225.615 92.6033 225.615 97.8655C225.615 103.128 229.881 107.393 235.143 107.393Z" fill="#404366"/>
<path d="M213.954 150.358C219.216 150.358 223.482 146.093 223.482 140.83C223.482 135.568 219.216 131.302 213.954 131.302C208.692 131.302 204.426 135.568 204.426 140.83C204.426 146.093 208.692 150.358 213.954 150.358Z" fill="#404366"/>
<text fill="#1E1E1E" xml:space="preserve" style="white-space: pre" font-family="Titillium Web" font-size="20" font-weight="600" letter-spacing="0px"><tspan x="310" y="61.45">Reteaua&#13;anti-poluare: aer</tspan></text>
<text fill="#1E1E1E" xml:space="preserve" style="white-space: pre" font-family="Titillium Web" font-size="20" font-weight="600" letter-spacing="0px"><tspan x="267" y="110.45">Reteaua&#13;anti-poluare: zgomot</tspan></text>
<text fill="#1E1E1E" xml:space="preserve" style="white-space: pre" font-family="Titillium Web" font-size="40" font-weight="600" letter-spacing="0px"><tspan x="124" y="340.9">M&#x103;surarea polu&#x103;rii</tspan></text>
<g clip-path="url(#clip0)">
<path d="M16.9834 377.56V306.714C16.9834 306.714 32.7204 306.235 32.2417 306.714C31.763 307.193 41.5561 348.44 41.5561 348.44L53.9424 338.467V348.719L68.682 338.747V348.719L82.8036 338.926V377.56" stroke="#1B771B" stroke-width="2.55" stroke-linecap="round" stroke-linejoin="round"/>
<path d="M3.40039 377.563H98.7799" stroke="#1B771B" stroke-width="2.55" stroke-linecap="round" stroke-linejoin="round"/>
<path d="M50.6709 373.133V368.925C50.6706 368.517 50.7794 368.117 50.9864 367.766C51.1935 367.415 51.491 367.126 51.8476 366.93L57.5321 363.699L59.6663 359.71C60.1372 358.841 60.8304 358.114 61.6753 357.602C62.5199 357.091 63.4858 356.813 64.4732 356.797H72.8505C74.1839 356.8 75.4719 357.281 76.4806 358.154L84.4587 364.975H87.0516C89.1198 364.975 91.1037 365.797 92.566 367.259C94.0287 368.722 94.8502 370.705 94.8502 372.774V373.133H50.6709Z" fill="white" stroke="#1B771B" stroke-width="2.55" stroke-linecap="round" stroke-linejoin="round"/>
<path d="M61.9217 377.562C63.9927 377.562 65.6716 375.883 65.6716 373.812C65.6716 371.741 63.9927 370.062 61.9217 370.062C59.8508 370.062 58.1719 371.741 58.1719 373.812C58.1719 375.883 59.8508 377.562 61.9217 377.562Z" fill="white" stroke="#1B771B" stroke-width="2.55" stroke-linecap="round" stroke-linejoin="round"/>
<path d="M83.3212 377.562C85.3921 377.562 87.0707 375.883 87.0707 373.812C87.0707 371.741 85.3921 370.062 83.3212 370.062C81.2502 370.062 79.5713 371.741 79.5713 373.812C79.5713 375.883 81.2502 377.562 83.3212 377.562Z" fill="white" stroke="#1B771B" stroke-width="2.55" stroke-linecap="round" stroke-linejoin="round"/>
<path d="M46.8822 369.361H38.9238" stroke="#1B771B" stroke-width="2.55" stroke-linecap="round" stroke-linejoin="round"/>
<path d="M44.4874 373.133H34.2354" stroke="#1B771B" stroke-width="2.55" stroke-linecap="round" stroke-linejoin="round"/>
<path d="M18.4971 301.785V288.741" stroke="#1B771B" stroke-width="2.55" stroke-linecap="round" stroke-linejoin="round"/>
<path d="M29.79 301.785V288.741" stroke="#1B771B" stroke-width="2.55" stroke-linecap="round" stroke-linejoin="round"/>
<path d="M22.5879 301.788V280.805" stroke="#1B771B" stroke-width="2.55" stroke-linecap="round" stroke-linejoin="round"/>
<path d="M26.2002 296.383V275.4" stroke="#1B771B" stroke-width="2.55" stroke-linecap="round" stroke-linejoin="round"/>
<path d="M96.945 299.873C96.9528 304.724 95.5214 309.468 92.8317 313.505C90.1423 317.542 86.3153 320.69 81.8358 322.551C77.3563 324.412 72.4252 324.902 67.6669 323.958C62.9086 323.016 58.5373 320.682 55.1056 317.254C51.6744 313.825 49.3372 309.455 48.3903 304.698C47.4437 299.94 47.9296 295.009 49.7867 290.528C51.6441 286.047 54.7891 282.217 58.8235 279.524C62.8583 276.831 67.601 275.396 72.4518 275.4C75.6695 275.39 78.8577 276.015 81.8327 277.241C84.808 278.467 87.5114 280.269 89.7877 282.543C92.0636 284.818 93.868 287.52 95.0961 290.494C96.3245 293.468 96.9528 296.655 96.945 299.873Z" stroke="#1B771B" stroke-width="2.55" stroke-linecap="round" stroke-linejoin="round"/>
<path d="M72.4538 320.695C83.954 320.695 93.2771 311.372 93.2771 299.872C93.2771 288.372 83.954 279.049 72.4538 279.049C60.9537 279.049 51.6309 288.372 51.6309 299.872C51.6309 311.372 60.9537 320.695 72.4538 320.695Z" stroke="#1B771B" stroke-width="2.55" stroke-linecap="round" stroke-linejoin="round"/>
<path d="M100.615 344.949C100.295 345.159 99.9367 345.303 99.5604 345.37C99.1836 345.438 98.7974 345.428 98.4248 345.343C98.0518 345.257 97.7002 345.097 97.3912 344.871C97.0821 344.646 96.822 344.36 96.6262 344.032L84.2998 323.967V323.867C85.9971 323.001 87.6185 321.993 89.1465 320.855V320.975L101.533 340.92C101.744 341.243 101.888 341.605 101.956 341.984C102.024 342.364 102.015 342.754 101.929 343.129C101.843 343.505 101.683 343.86 101.457 344.173C101.231 344.486 100.945 344.75 100.615 344.949Z" fill="#1B771B"/>
</g>
<defs>
<clipPath id="clip0">
<rect width="102" height="108.8" fill="white" transform="translate(0 272)"/>
</clipPath>
</defs>
</svg>
