<svg width="1200" height="1000" viewBox="0 0 1200 1000" fill="none" xmlns="http://www.w3.org/2000/svg">
<g id="segment-education-01-profesori-bine-pregatiti">
<g id="Group 1155">
<path id="Vector" d="M811.903 569.507C810.292 573.303 806.824 576.58 801.662 581.195C793.388 588.595 786.398 597.333 777.741 604.543C767.091 613.418 754.475 620.463 741.312 626.334" stroke="#FFA506" stroke-width="10.2456" stroke-miterlimit="10" stroke-linecap="round" stroke-linejoin="round"/>
<path id="Vector_2" d="M740.903 646.732C752.169 646.732 761.302 637.599 761.302 626.333C761.302 615.067 752.169 605.935 740.903 605.935C729.637 605.935 720.504 615.067 720.504 626.333C720.504 637.599 729.637 646.732 740.903 646.732Z" fill="white" stroke="#FFA506" stroke-width="10.2456" stroke-miterlimit="10" stroke-linecap="round" stroke-linejoin="round"/>
<path id="Vector_3" d="M787.981 502.984C798.085 519.232 805.349 537.665 811.166 555.224C812.558 559.457 813.132 562.706 812.886 565.492C812.777 566.939 812.422 568.25 811.903 569.506" stroke="#FFA506" stroke-width="10.2456" stroke-miterlimit="10" stroke-linecap="round" stroke-linejoin="round"/>
<path id="Vector_4" d="M812.941 580.211C818.596 580.211 823.181 575.626 823.181 569.971C823.181 564.315 818.596 559.73 812.941 559.73C807.285 559.73 802.7 564.315 802.7 569.971C802.7 575.626 807.285 580.211 812.941 580.211Z" fill="white" stroke="#FFA506" stroke-width="5.46154" stroke-miterlimit="10" stroke-linecap="round" stroke-linejoin="round"/>
<path id="Vector_5" d="M745.381 464.263C757.479 470.025 768.866 477.616 778.151 489.085C781.701 493.482 784.978 498.124 787.981 502.985" stroke="#FFA506" stroke-width="10.2456" stroke-miterlimit="10" stroke-linecap="round" stroke-linejoin="round"/>
<path id="Vector_6" d="M787.982 512.215C793.637 512.215 798.222 507.63 798.222 501.975C798.222 496.319 793.637 491.734 787.982 491.734C782.326 491.734 777.741 496.319 777.741 501.975C777.741 507.63 782.326 512.215 787.982 512.215Z" fill="white" stroke="#FFA506" stroke-width="5.46154" stroke-miterlimit="10" stroke-linecap="round" stroke-linejoin="round"/>
<path id="Vector_7" d="M665.562 438.184C684.759 446.84 706.387 449.516 726.075 456.48C727.413 456.944 728.752 457.436 730.117 457.927C735.278 459.839 740.412 461.887 745.409 464.29" stroke="#C8CEDB" stroke-width="10.2456" stroke-miterlimit="10" stroke-linecap="round" stroke-linejoin="round"/>
<path id="Vector_8" d="M744.89 473.848C750.545 473.848 755.13 469.263 755.13 463.608C755.13 457.952 750.545 453.367 744.89 453.367C739.234 453.367 734.649 457.952 734.649 463.608C734.649 469.263 739.234 473.848 744.89 473.848Z" fill="#404366"/>
<path id="Vector_9" d="M610.782 400.581C625.774 410.931 640.138 423.574 655.867 433.105C659.007 435.016 662.257 436.682 665.588 438.184" stroke="#C8CEDB" stroke-width="10.2456" stroke-miterlimit="10" stroke-linecap="round" stroke-linejoin="round"/>
<path id="Vector_10" d="M665.561 449.461C671.217 449.461 675.802 444.876 675.802 439.221C675.802 433.565 671.217 428.98 665.561 428.98C659.906 428.98 655.321 433.565 655.321 439.221C655.321 444.876 659.906 449.461 665.561 449.461Z" fill="#404366"/>
<path id="Vector_11" d="M553.627 363.743C567.882 376.632 584.84 384.661 601.06 394.328C604.337 396.267 607.56 398.369 610.755 400.581" stroke="#C8CEDB" stroke-width="10.2456" stroke-miterlimit="10" stroke-linecap="round" stroke-linejoin="round"/>
<path id="Vector_12" d="M609.69 410.849C615.345 410.849 619.93 406.264 619.93 400.609C619.93 394.953 615.345 390.368 609.69 390.368C604.034 390.368 599.449 394.953 599.449 400.609C599.449 406.264 604.034 410.849 609.69 410.849Z" fill="#404366"/>
<path id="Vector_13" d="M543.769 310.493C544.643 313.497 545.134 316.337 544.998 318.795C544.069 335.097 533.064 341.351 545.954 356.015C548.411 358.8 550.951 361.367 553.6 363.77" stroke="#C8CEDB" stroke-width="10.2456" stroke-miterlimit="10" stroke-linecap="round" stroke-linejoin="round"/>
<path id="Vector_14" d="M554.091 376.004C559.747 376.004 564.331 371.419 564.331 365.764C564.331 360.108 559.747 355.523 554.091 355.523C548.435 355.523 543.851 360.108 543.851 365.764C543.851 371.419 548.435 376.004 554.091 376.004Z" fill="#404366"/>
<path id="Vector_15" d="M495.134 231C504.937 250.716 521.486 265.845 532.218 285.834C535.576 292.115 541.256 301.973 543.769 310.52" stroke="#FFA506" stroke-width="10.2456" stroke-miterlimit="10" stroke-linecap="round" stroke-linejoin="round"/>
<path id="Vector_16" d="M542.103 320.734C547.758 320.734 552.343 316.149 552.343 310.493C552.343 304.838 547.758 300.253 542.103 300.253C536.447 300.253 531.862 304.838 531.862 310.493C531.862 316.149 536.447 320.734 542.103 320.734Z" fill="white" stroke="#FFA506" stroke-width="5.46154" stroke-miterlimit="10" stroke-linecap="round" stroke-linejoin="round"/>
<text class="btn-project" cursor="pointer" projectid="1" id="&#200;&#152;coala profesorilor" fill="#404366" xml:space="preserve" style="white-space: pre" font-family="Titillium Web" font-size="20" font-weight="600" letter-spacing="0px"><tspan x="579" y="310.816">&#x218;coala profesorilor&#13;</tspan></text>
<text class="btn-project" cursor="pointer" projectid="2" id="Resurse Profesori" fill="#404366" xml:space="preserve" style="white-space: pre" font-family="Titillium Web" font-size="20" font-weight="600" letter-spacing="0px"><tspan x="593" y="360.816">Resurse Profesori</tspan></text>
<text class="btn-project" cursor="pointer" projectid="3" id="Classroom Demo" fill="#404366" xml:space="preserve" style="white-space: pre" font-family="Titillium Web" font-size="20" font-weight="600" letter-spacing="0px"><tspan x="638" y="396.95">Classroom Demo</tspan></text>
<text class="btn-project" cursor="pointer" projectid="4" id="Teacher Workout" fill="#404366" xml:space="preserve" style="white-space: pre" font-family="Titillium Web" font-size="20" font-weight="600" letter-spacing="0px"><tspan x="479" y="457.816">Teacher Workout</tspan></text>
<text class="btn-project" cursor="pointer" projectid="5" id="Acces" fill="#404366" xml:space="preserve" style="white-space: pre" font-family="Titillium Web" font-size="20" font-weight="600" letter-spacing="0px"><tspan x="823" y="501.816">Acces</tspan></text>
<text class="btn-project" cursor="pointer" projectid="6" id="Profesor in Spital" fill="#404366" xml:space="preserve" style="white-space: pre" font-family="Titillium Web" font-size="20" font-weight="600" letter-spacing="0px"><tspan x="765" y="445.816">Profesor in Spital&#13;</tspan></text>
<text class="btn-project" cursor="pointer" projectid="7" id="eSense" fill="#404366" xml:space="preserve" style="white-space: pre" font-family="Titillium Web" font-size="20" font-weight="600" letter-spacing="0px"><tspan x="710" y="564.816">eSense</tspan></text>
<g id="icon-profesori-bine-pregatiti 1">
<path id="Vector_17" d="M656.001 641.438H571.942V733.592H610.544" stroke="#FFA506" stroke-width="2.97794" stroke-linecap="round" stroke-linejoin="round"/>
<path id="Vector_18" d="M666.716 679.291V688.649C664.833 690.205 662.467 691.056 660.025 691.056C657.582 691.056 655.216 690.205 653.333 688.649V681.958" stroke="#FFA506" stroke-width="2.97794" stroke-linecap="round" stroke-linejoin="round"/>
<path id="Vector_19" d="M653.731 675.458C654.464 675.757 655.256 675.879 656.045 675.814C656.834 675.749 657.596 675.499 658.27 675.084" stroke="#FFA506" stroke-width="2.97794" stroke-linecap="round" stroke-linejoin="round"/>
<path id="Vector_20" d="M658.504 662.259C659.936 662.164 661.375 662.306 662.762 662.68" stroke="#FFA506" stroke-width="2.97794" stroke-linecap="round" stroke-linejoin="round"/>
<path id="Vector_21" d="M648.774 662.987L651.979 661.443" stroke="#FFA506" stroke-width="2.97794" stroke-linecap="round" stroke-linejoin="round"/>
<path id="Vector_22" d="M649.685 668.951C649.654 668.667 649.683 668.379 649.771 668.107C649.859 667.836 650.003 667.585 650.194 667.373C650.385 667.16 650.618 666.99 650.879 666.874C651.14 666.757 651.422 666.697 651.708 666.697C651.994 666.697 652.276 666.757 652.537 666.874C652.798 666.99 653.032 667.16 653.222 667.373C653.413 667.585 653.557 667.836 653.645 668.107C653.733 668.379 653.762 668.667 653.732 668.951" stroke="#FFA506" stroke-width="2.97794" stroke-linecap="round" stroke-linejoin="round"/>
<path id="Vector_23" d="M658.692 668.953C658.692 668.42 658.904 667.908 659.281 667.531C659.659 667.153 660.171 666.941 660.704 666.941C661.237 666.941 661.749 667.153 662.127 667.531C662.504 667.908 662.716 668.42 662.716 668.953" stroke="#FFA506" stroke-width="2.97794" stroke-linecap="round" stroke-linejoin="round"/>
<path id="Vector_24" d="M653.287 688.698C653.287 688.698 639.25 689.868 632.582 698.641C628.441 704.139 625.704 722.153 625.704 722.153" stroke="#FFA506" stroke-width="2.97794" stroke-linecap="round" stroke-linejoin="round"/>
<path id="Vector_25" d="M666.714 688.582C666.714 688.582 680.751 689.869 687.419 698.642C691.957 704.631 695.513 718.528 696.169 729.055C696.412 734.328 694.834 739.524 691.7 743.771C688.546 747.786 684.308 750.814 679.488 752.497C674.594 754.215 669.55 755.468 664.421 756.24" stroke="#FFA506" stroke-width="2.97794" stroke-linecap="round" stroke-linejoin="round"/>
<path id="Vector_26" d="M679.746 730.715C674.678 734.762 669.243 738.326 663.51 741.36C664.602 742.193 665.504 743.25 666.154 744.461C666.804 745.671 667.187 747.007 667.276 748.378C667.407 749.818 667.218 751.268 666.725 752.627C666.232 753.985 665.445 755.218 664.422 756.239" stroke="#FFA506" stroke-width="2.97794" stroke-linecap="round" stroke-linejoin="round"/>
<path id="Vector_27" d="M637.401 743.092C635.465 744.148 633.335 744.802 631.141 745.015C628.946 745.228 626.73 744.995 624.627 744.332C620.463 742.905 616.72 738.202 614.333 734.716C610.193 728.633 608.11 721.708 604.625 715.251C604.611 715.206 604.611 715.157 604.625 715.111C608.489 712.89 612.481 710.898 616.579 709.145L616.907 709.005C620.194 714.65 623.893 720.046 627.973 725.148" stroke="#FFA506" stroke-width="2.97794" stroke-linecap="round" stroke-linejoin="round"/>
<path id="Vector_28" d="M663.488 741.358C661.945 740.095 660.05 738.457 658.505 737.194C658.356 737.095 658.181 737.043 658.002 737.043C657.824 737.043 657.649 737.095 657.5 737.194C657.325 737.28 657.178 737.414 657.075 737.579C656.971 737.744 656.916 737.935 656.915 738.13C656.798 739.636 657.03 741.149 657.593 742.551" stroke="#FFA506" stroke-width="2.97794" stroke-linecap="round" stroke-linejoin="round"/>
<path id="Vector_29" d="M659.136 742.88C656.338 742.482 653.501 742.436 650.691 742.74C649.995 742.776 649.315 742.968 648.702 743.301C648.4 743.471 648.158 743.732 648.011 744.047C647.864 744.362 647.819 744.714 647.883 745.056C648.117 746.015 649.31 746.319 650.223 746.459L656.353 747.348C654.292 747.486 652.265 747.936 650.34 748.682C649.521 749.033 648.913 749.501 648.936 750.25C648.936 750.481 648.999 750.708 649.118 750.906C649.238 751.104 649.41 751.265 649.615 751.373C650.045 751.556 650.504 751.659 650.972 751.677L657.195 752.121" stroke="#FFA506" stroke-width="2.97794" stroke-linecap="round" stroke-linejoin="round"/>
<path id="Vector_30" d="M653.054 755.604C656.719 756.839 660.655 757.034 664.424 756.166" stroke="#FFA506" stroke-width="2.97794" stroke-linecap="round" stroke-linejoin="round"/>
<path id="Vector_31" d="M638.101 710.362C636.188 719.586 636.951 729.164 640.301 737.969C635.186 746.122 631.986 755.328 630.943 764.896" stroke="#FFA506" stroke-width="2.97794" stroke-linecap="round" stroke-linejoin="round"/>
<path id="Vector_32" d="M667.699 718.152C666.553 718.293 646.643 720.141 645.403 720.281C644.617 720.496 643.777 720.395 643.064 720.001C642.792 719.791 642.586 719.507 642.47 719.184C642.354 718.861 642.332 718.511 642.409 718.176C642.476 717.841 642.615 717.526 642.818 717.251C643.02 716.976 643.279 716.749 643.578 716.585C644.806 716.076 646.137 715.868 647.462 715.977L651.182 715.696L667.207 714.526" stroke="#FFA506" stroke-width="2.97794" stroke-linecap="round" stroke-linejoin="round"/>
<path id="Vector_33" d="M642.55 720.467C642.55 720.748 644.609 754.46 644.609 754.46L651.791 753.899" stroke="#FFA506" stroke-width="2.97794" stroke-linecap="round" stroke-linejoin="round"/>
<path id="Vector_34" d="M648.423 715.577V712.536L677.152 710.664" stroke="#FFA506" stroke-width="2.97794" stroke-linecap="round" stroke-linejoin="round"/>
<path id="Vector_35" d="M669.15 714.13L677.572 713.615C677.572 713.989 678.134 731.045 678.134 731.045" stroke="#FFA506" stroke-width="2.97794" stroke-linecap="round" stroke-linejoin="round"/>
<path id="Vector_36" d="M667.698 714.833C667.325 714.922 666.992 715.135 666.754 715.436C666.517 715.738 666.387 716.11 666.387 716.494C666.387 716.878 666.517 717.251 666.754 717.552C666.992 717.853 667.325 718.066 667.698 718.155L669.499 736.988" stroke="#FFA506" stroke-width="2.97794" stroke-linecap="round" stroke-linejoin="round"/>
<path id="Vector_37" d="M648.423 689.47L653.944 697.331L659.208 693.4L665.267 697.331L670.391 689.47" stroke="#FFA506" stroke-width="2.97794" stroke-linecap="round" stroke-linejoin="round"/>
<path id="Vector_38" d="M663.237 725.236L647.649 726.636L648.107 731.739L663.696 730.339L663.237 725.236Z" stroke="#FFA506" stroke-width="2.97794" stroke-linecap="round" stroke-linejoin="round"/>
<path id="Vector_39" d="M616.579 709.144C612.433 710.892 608.394 712.884 604.484 715.11C603.22 713.091 602.176 710.942 601.373 708.7C601.083 708.677 600.801 708.592 600.547 708.45C600.293 708.309 600.072 708.115 599.899 707.881C599.342 707.316 598.833 706.706 598.378 706.056C597.818 705.286 597.442 704.397 597.279 703.459C597.045 702.149 598.589 700.254 600.109 701.12C599.806 700.503 599.669 699.817 599.712 699.131C599.712 698.078 602.051 697.306 603.081 698.102C602.893 697.353 602.73 696.573 602.589 695.762C602.402 695.057 602.402 694.315 602.589 693.61C602.693 693.259 602.905 692.951 603.195 692.728C603.485 692.505 603.838 692.38 604.203 692.37C604.999 692.37 605.56 693.165 606.005 693.844C607.409 696.183 609.14 698.78 610.684 701.026C610.919 700.185 611.2 699.357 611.526 698.546C611.657 698.282 611.841 698.048 612.066 697.859C612.292 697.67 612.554 697.53 612.836 697.447C613.112 697.418 613.389 697.479 613.626 697.623C613.862 697.767 614.045 697.985 614.146 698.242C614.332 698.775 614.404 699.341 614.357 699.903C614.403 703.11 615.162 706.267 616.579 709.144Z" stroke="#FFA506" stroke-width="2.97794" stroke-linecap="round" stroke-linejoin="round"/>
<path id="Vector_40" d="M610.732 701.002C610.385 701.953 610.119 702.931 609.936 703.926" stroke="#FFA506" stroke-width="2.97794" stroke-linecap="round" stroke-linejoin="round"/>
<path id="Vector_41" d="M604.344 701.353C603.856 700.289 603.457 699.185 603.15 698.055" stroke="#FFA506" stroke-width="2.97794" stroke-linecap="round" stroke-linejoin="round"/>
<path id="Vector_42" d="M604.579 701.796C605.024 702.581 605.332 703.435 605.491 704.323C605.527 704.726 605.409 705.128 605.162 705.449C604.915 705.769 604.557 705.986 604.158 706.054C603.819 705.999 603.497 705.869 603.214 705.675C602.931 705.481 602.694 705.227 602.52 704.931C601.558 703.85 600.769 702.627 600.181 701.305C600.16 701.229 600.16 701.148 600.181 701.071" stroke="#FFA506" stroke-width="2.97794" stroke-linecap="round" stroke-linejoin="round"/>
<path id="Vector_43" d="M601.444 708.7C601.646 708.678 601.84 708.609 602.01 708.5C602.18 708.39 602.323 708.243 602.427 708.068C602.616 707.725 602.773 707.365 602.895 706.992" stroke="#FFA506" stroke-width="2.97794" stroke-linecap="round" stroke-linejoin="round"/>
<path id="Vector_44" d="M604.625 715.253C604.611 715.207 604.611 715.158 604.625 715.112" stroke="#FFA506" stroke-width="2.97794" stroke-linecap="round" stroke-linejoin="round"/>
<path id="Vector_45" d="M601.443 708.703C601.429 708.665 601.429 708.623 601.443 708.586" stroke="#FFA506" stroke-width="2.97794" stroke-linecap="round" stroke-linejoin="round"/>
<path id="Vector_46" d="M671.139 667.339V669.421C671.154 672.226 670.259 674.96 668.589 677.212C667.368 678.942 665.748 680.351 663.867 681.32C661.985 682.29 659.897 682.791 657.78 682.78C655.252 682.784 652.775 682.069 650.638 680.718C648.5 679.368 646.79 677.438 645.708 675.153C644.821 673.374 644.364 671.41 644.375 669.421V667.339C644.393 664.699 645.191 662.123 646.671 659.935C648.15 657.748 650.242 656.047 652.686 655.047C655.13 654.046 657.815 653.791 660.403 654.313C662.991 654.835 665.367 656.112 667.232 657.981C668.466 659.208 669.446 660.666 670.116 662.271C670.787 663.877 671.134 665.599 671.139 667.339Z" stroke="#FFA506" stroke-width="2.97794" stroke-linecap="round" stroke-linejoin="round"/>
<path id="Vector_47" d="M674.742 662.287V665.141C674.725 667.486 674.16 669.795 673.091 671.883C672.023 673.971 670.481 675.78 668.589 677.166C670.26 674.913 671.154 672.18 671.139 669.375V667.34C671.139 663.795 669.732 660.395 667.228 657.886C664.724 655.377 661.326 653.964 657.781 653.958C654.229 653.958 650.823 655.367 648.31 657.876C645.797 660.385 644.381 663.789 644.375 667.34V669.422C644.364 671.411 644.821 673.374 645.709 675.154C643.224 672.428 641.839 668.876 641.825 665.188V662.287C641.953 658.065 643.749 654.066 646.817 651.163C649.886 648.261 653.979 646.692 658.201 646.799H658.833H660.307C663.554 647.174 666.621 648.491 669.127 650.589C669.197 650.614 669.255 650.664 669.291 650.729C669.493 650.857 669.682 651.006 669.852 651.174C671.385 652.593 672.61 654.311 673.451 656.223C674.292 658.134 674.731 660.198 674.742 662.287Z" stroke="#FFA506" stroke-width="2.97794" stroke-linecap="round" stroke-linejoin="round"/>
<path id="Vector_48" d="M672.727 644.855C672.747 646.079 672.446 647.285 671.855 648.357C671.264 649.428 670.403 650.326 669.359 650.962C669.323 650.896 669.265 650.846 669.195 650.821C666.688 648.723 663.622 647.406 660.375 647.031H658.901C658.715 646.322 658.644 645.587 658.691 644.855C658.691 642.994 659.43 641.209 660.746 639.893C662.062 638.576 663.848 637.837 665.709 637.837C667.57 637.837 669.356 638.576 670.672 639.893C671.988 641.209 672.727 642.994 672.727 644.855Z" stroke="#FFA506" stroke-width="2.97794" stroke-linecap="round" stroke-linejoin="round"/>
<path id="Vector_49" d="M601.655 671.36C601.655 667.652 598.649 664.646 594.94 664.646C591.232 664.646 588.226 667.652 588.226 671.36V674.939C588.226 678.648 591.232 681.654 594.94 681.654C598.649 681.654 601.655 678.648 601.655 674.939V671.36Z" stroke="#FFA506" stroke-width="2.97794" stroke-linecap="round" stroke-linejoin="round"/>
<path id="Vector_50" d="M627.084 671.36C627.084 667.652 624.078 664.646 620.37 664.646C616.661 664.646 613.655 667.652 613.655 671.36V674.939C613.655 678.648 616.661 681.654 620.37 681.654C624.078 681.654 627.084 678.648 627.084 674.939V671.36Z" stroke="#FFA506" stroke-width="2.97794" stroke-linecap="round" stroke-linejoin="round"/>
<path id="Vector_51" d="M601.679 674.871C601.532 675.664 601.556 676.479 601.75 677.262C601.943 678.045 602.302 678.777 602.802 679.41C603.335 680.017 604.073 680.407 604.875 680.507C605.677 680.606 606.488 680.407 607.153 679.948" stroke="#FFA506" stroke-width="2.97794" stroke-linecap="round" stroke-linejoin="round"/>
<path id="Vector_52" d="M583.29 681.962C585.178 680.769 586.776 679.171 587.969 677.283" stroke="#FFA506" stroke-width="2.97794" stroke-linecap="round" stroke-linejoin="round"/>
<path id="Vector_53" d="M580.366 683.855H638.41" stroke="#FFA506" stroke-width="2.97794" stroke-linecap="round" stroke-linejoin="round"/>
<path id="Vector_54" d="M580.366 662.684H638.41" stroke="#FFA506" stroke-width="2.97794" stroke-linecap="round" stroke-linejoin="round"/>
<path id="Vector_55" d="M566 737.641H616.393" stroke="#FFA506" stroke-width="2.97794" stroke-linecap="round" stroke-linejoin="round"/>
<path id="Vector_56" d="M613.655 653.091V675.456" stroke="#FFA506" stroke-width="2.97794" stroke-linecap="round" stroke-linejoin="round"/>
</g>
<text id="Profesori bine preg&#196;&#131;ti&#200;&#155;i" fill="#1E1E1E" xml:space="preserve" style="white-space: pre" font-family="Titillium Web" font-size="40" font-weight="600" letter-spacing="0px"><tspan x="305.859" y="682.766">Profesori bine </tspan><tspan x="399.609" y="724.766">preg&#x103;ti&#x21b;i</tspan></text>
</g>
</g>
</svg>
