<svg width="1200" height="1000" viewBox="0 0 1200 1000" fill="none" xmlns="http://www.w3.org/2000/svg">
<g id="segment-care-02-diaspora-mai-aproape-de-casa">
<g id="Group 1148">
<g id="Group 1139">
<path id="Vector" d="M588.924 601.925C585.873 597.848 570.683 556.637 566.876 553.046C555.267 542.138 541.011 532.959 529.428 522.564L528.753 521.943C526.189 519.621 523.732 517.245 521.491 514.788C520.006 513.168 518.629 511.521 517.36 509.847C499.891 487.06 500.458 460.547 488.687 434.52C488.039 433.062 487.337 431.604 486.581 430.146C478.454 414.217 471.731 402.985 459.771 389.89C450.267 379.496 442.032 368.156 440.655 353.604" stroke="#7937C4" stroke-width="10.1298" stroke-miterlimit="10" stroke-linejoin="round" stroke-dasharray="12.66 12.66"/>
<path id="Vector_2" d="M441.168 375.337C452.307 375.337 461.337 366.307 461.337 355.168C461.337 344.03 452.307 335 441.168 335C430.03 335 421 344.03 421 355.168C421 366.307 430.03 375.337 441.168 375.337Z" fill="white" stroke="#7937C4" stroke-width="10.1298" stroke-miterlimit="10" stroke-linecap="round" stroke-linejoin="round"/>
<path id="Vector_3" d="M578.621 645.545C578.864 638.498 580.43 631.964 582.212 625.484C584.183 618.222 586.424 611.04 587.315 603.291" stroke="#C8CEDB" stroke-width="10.1298" stroke-miterlimit="10" stroke-linecap="round" stroke-linejoin="round"/>
<path id="Vector_4" d="M586.72 613.443C592.312 613.443 596.845 608.91 596.845 603.318C596.845 597.726 592.312 593.193 586.72 593.193C581.129 593.193 576.596 597.726 576.596 603.318C576.596 608.91 581.129 613.443 586.72 613.443Z" fill="#404366"/>
<path id="Vector_5" d="M592.228 696.655C591.958 696.034 591.715 695.386 591.445 694.765C585.451 680.293 579.592 666.578 578.674 650.54C578.566 648.839 578.566 647.192 578.62 645.572" stroke="#C8CEDB" stroke-width="10.1298" stroke-miterlimit="10" stroke-linecap="round" stroke-linejoin="round"/>
<path id="Vector_6" d="M579.484 658.477C585.076 658.477 589.609 653.944 589.609 648.352C589.609 642.761 585.076 638.228 579.484 638.228C573.892 638.228 569.359 642.761 569.359 648.352C569.359 653.944 573.892 658.477 579.484 658.477Z" fill="#404366"/>
<path id="Vector_7" d="M603.919 756.7C602.893 736.937 600.436 716.715 592.876 698.274C592.66 697.734 592.444 697.194 592.201 696.654" stroke="#C8CEDB" stroke-width="10.1298" stroke-miterlimit="10" stroke-linecap="round" stroke-linejoin="round"/>
<path id="Vector_8" d="M591.283 707.67C596.875 707.67 601.408 703.137 601.408 697.546C601.408 691.954 596.875 687.421 591.283 687.421C585.691 687.421 581.158 691.954 581.158 697.546C581.158 703.137 585.691 707.67 591.283 707.67Z" fill="#404366"/>
<path id="Vector_9" d="M612.829 821.876C613.342 815.153 613.18 808.431 611.398 801.735C607.726 787.938 605.053 775.654 604.162 761.101C604.108 760.345 604.081 759.562 604.027 758.806C604 758.104 603.946 757.402 603.919 756.7" stroke="#C8CEDB" stroke-width="10.1298" stroke-miterlimit="10" stroke-linecap="round" stroke-linejoin="round"/>
<path id="Vector_10" d="M604.648 768.66C610.24 768.66 614.773 764.128 614.773 758.536C614.773 752.944 610.24 748.411 604.648 748.411C599.056 748.411 594.523 752.944 594.523 758.536C594.523 764.128 599.056 768.66 604.648 768.66Z" fill="#404366"/>
</g>
<text class="btn-project" text-decoration="underline" cursor="pointer" projectid="1" id="Diaspora Hub" fill="#404366" xml:space="preserve" style="white-space: pre" font-family="Titillium Web" font-size="28" font-weight="600" letter-spacing="0px"><tspan x="410" y="767.95">Diaspora Hub</tspan></text>
<text class="btn-project" text-decoration="underline" cursor="pointer" projectid="2" id="Info Diaspora" fill="#404366" xml:space="preserve" style="white-space: pre" font-family="Titillium Web" font-size="28" font-weight="600" letter-spacing="0px"><tspan x="400" y="707.95">Info Diaspora</tspan></text>
<text class="btn-project" text-decoration="underline" cursor="pointer" projectid="3" id="Inapoi acasa" fill="#404366" xml:space="preserve" style="white-space: pre" font-family="Titillium Web" font-size="28" font-weight="600" letter-spacing="0px"><tspan x="609" y="652.95">Inapoi acasa </tspan></text>
<text class="btn-project" text-decoration="underline" cursor="pointer" projectid="4" id="Brain Gain" fill="#404366" xml:space="preserve" style="white-space: pre" font-family="Titillium Web" font-size="28" font-weight="600" letter-spacing="0px"><tspan x="433" y="608.95">Brain Gain</tspan></text>
<text id="Diaspora mai&#226;&#128;&#168;aproape de cas&#196;&#131;" fill="#1E1E1E" xml:space="preserve" style="white-space: pre" font-family="Titillium Web" font-size="40" font-weight="600" letter-spacing="0px"><tspan x="503" y="333.9">Diaspora mai&#x2028;</tspan><tspan x="503" y="375.9">aproape de cas&#x103;</tspan></text>
<g id="icon-diaspora-mai-aproape-de-casa 1">
<path id="Vector_11" d="M519.814 285.061C523.493 285.061 526.476 282.079 526.476 278.399C526.476 274.719 523.493 271.736 519.814 271.736C516.134 271.736 513.151 274.719 513.151 278.399C513.151 282.079 516.134 285.061 519.814 285.061Z" stroke="#7937C4" stroke-width="2.7775" stroke-linecap="round" stroke-linejoin="round"/>
<path id="Vector_12" d="M519.837 282.931C518.931 282.931 518.046 282.662 517.293 282.159C516.54 281.656 515.953 280.94 515.606 280.104C515.26 279.267 515.169 278.346 515.346 277.458C515.522 276.57 515.959 275.754 516.599 275.114C517.239 274.473 518.055 274.037 518.944 273.86C519.832 273.684 520.752 273.774 521.589 274.121C522.426 274.468 523.141 275.055 523.644 275.808C524.147 276.561 524.416 277.446 524.416 278.352C524.416 279.566 523.934 280.731 523.075 281.589C522.216 282.448 521.051 282.931 519.837 282.931Z" stroke="#7937C4" stroke-width="2.7775" stroke-linecap="round" stroke-linejoin="round"/>
<path id="Vector_13" d="M521.483 201.104H584.125C586.773 201.104 589.311 202.155 591.183 204.027C593.056 205.899 594.107 208.438 594.107 211.086V275.078C594.107 277.726 593.056 280.265 591.183 282.137C589.311 284.009 586.773 285.061 584.125 285.061H521.483V201.104Z" fill="white" stroke="#7937C4" stroke-width="2.7775" stroke-linecap="round" stroke-linejoin="round"/>
<path id="Vector_14" d="M521.483 201.104H531.42C532.316 201.1 533.205 201.277 534.032 201.622C534.859 201.968 535.608 202.476 536.236 203.116C536.863 203.757 537.356 204.516 537.685 205.35C538.014 206.184 538.173 207.076 538.151 207.972V278.33C538.151 280.109 537.444 281.815 536.186 283.073C534.928 284.331 533.222 285.038 531.443 285.038H521.483V201.104Z" stroke="#7937C4" stroke-width="2.7775" stroke-linecap="round" stroke-linejoin="round"/>
<path id="Vector_15" d="M504.681 285.06H602.581" stroke="#7937C4" stroke-width="2.7775" stroke-linecap="round" stroke-linejoin="round"/>
<path id="Vector_16" d="M566.123 255.409L545.049 261.064L547.487 270.152L568.561 264.498L566.123 255.409Z" stroke="#7937C4" stroke-width="2.7775" stroke-linecap="round" stroke-linejoin="round"/>
<path id="Vector_17" d="M532.247 211.979V271.186" stroke="#7937C4" stroke-width="2.7775" stroke-linecap="round" stroke-linejoin="round"/>
<path id="Vector_18" d="M527.023 211.979V271.186" stroke="#7937C4" stroke-width="2.7775" stroke-linecap="round" stroke-linejoin="round"/>
<path id="Vector_19" d="M570.023 243.117C578.369 243.117 585.134 236.351 585.134 228.005C585.134 219.66 578.369 212.895 570.023 212.895C561.677 212.895 554.912 219.66 554.912 228.005C554.912 236.351 561.677 243.117 570.023 243.117Z" stroke="#7937C4" stroke-width="2.7775" stroke-linecap="round" stroke-linejoin="round"/>
<path id="Vector_20" d="M561.485 224.663C561.737 223.816 561.851 222.923 562.103 222.053C562.324 221.18 562.863 220.421 563.614 219.924C564.873 219.191 566.568 219.764 567.895 219.168C568.506 218.77 569.14 218.411 569.796 218.092C570.138 218.004 570.495 217.985 570.844 218.036C571.195 218.087 571.531 218.207 571.833 218.39C572.449 218.744 573.012 219.183 573.505 219.695C575.354 221.258 576.906 223.143 578.084 225.259C578.301 225.787 578.594 226.28 578.954 226.724C579.134 226.946 579.376 227.108 579.65 227.19C579.924 227.271 580.216 227.269 580.488 227.182L580.854 227.022C581.335 226.884 581.816 227.388 581.816 227.892C581.788 228.393 581.575 228.865 581.22 229.22C580.885 229.579 580.606 229.988 580.396 230.433C580.292 230.662 580.272 230.921 580.339 231.163C580.406 231.406 580.556 231.617 580.763 231.761C579.795 231.498 578.776 231.498 577.809 231.761C576.986 232.167 576.217 232.675 575.519 233.272C574.424 233.965 573.215 234.461 571.948 234.737C569.83 235.404 567.62 235.736 565.4 235.722C565.063 235.728 564.733 235.624 564.461 235.424C563.934 234.943 564.232 234.073 564.576 233.432C564.023 233.62 563.436 233.68 562.857 233.609C562.278 233.537 561.723 233.336 561.233 233.02C560.245 232.403 559.364 231.63 558.623 230.73C558.234 230.318 557.455 229.769 557.661 229.128C557.867 228.487 558.692 228.258 559.104 227.937C560.198 227.101 561.026 225.963 561.485 224.663Z" stroke="#7937C4" stroke-width="2.7775" stroke-linecap="round" stroke-linejoin="round"/>
<path id="Vector_21" d="M536.46 201.103V181.367H574.787V201.103" stroke="#7937C4" stroke-width="2.7775" stroke-linecap="round" stroke-linejoin="round"/>
<path id="Vector_22" d="M540.007 187.938H569.358" stroke="#7937C4" stroke-width="2.7775" stroke-linecap="round" stroke-linejoin="round"/>
</g>
</g>
</g>
</svg>
