<svg width="626" height="796" viewBox="0 0 626 796" fill="none" xmlns="http://www.w3.org/2000/svg">
<path d="M525.284 47.7191C528.494 46.9426 531.807 46.3991 535.275 46.1403C555.827 44.5614 567.164 43.8625 584.946 32.3703C594.937 25.9253 613.702 20.671 620.406 12" stroke="#1B771B" stroke-width="9.71121" stroke-miterlimit="10" stroke-linecap="round" stroke-linejoin="round"/>
<path d="M449.861 74.5086C456.28 74.0168 462.596 73.1885 468.704 71.5838C489.256 66.2259 504.967 52.6112 525.286 47.7451" stroke="#1B771B" stroke-width="9.71121" stroke-miterlimit="10" stroke-linecap="round" stroke-linejoin="round"/>
<path d="M353.135 96.3533C366.931 88.3036 380.908 80.9009 398.69 77.562C415.255 74.456 432.908 75.7501 449.861 74.4818" stroke="#1B771B" stroke-width="9.71121" stroke-miterlimit="10" stroke-linecap="round" stroke-linejoin="round"/>
<path d="M283.611 129.95C293.525 124.981 304.059 120.813 314.257 116.827C328.778 111.107 340.891 103.497 353.134 96.3535" stroke="#1B771B" stroke-width="9.71121" stroke-miterlimit="10" stroke-linecap="round" stroke-linejoin="round"/>
<path d="M238.315 179.569C244.01 154.98 262.361 140.614 283.637 129.95" stroke="#1B771B" stroke-width="9.71121" stroke-miterlimit="10" stroke-linecap="round" stroke-linejoin="round"/>
<path d="M232.258 239.204C233.474 222.691 235.26 205.401 236.813 188.861C237.124 185.626 237.616 182.52 238.289 179.569" stroke="#1B771B" stroke-width="9.71121" stroke-miterlimit="10" stroke-linecap="round" stroke-linejoin="round"/>
<path d="M257.573 323.171C248.099 315.25 238.108 308.21 233.708 294.802C229.308 281.447 230.964 258.747 231.87 244.666C232 242.854 232.129 241.017 232.259 239.179" stroke="#1B771B" stroke-width="9.71121" stroke-miterlimit="10" stroke-linecap="round" stroke-linejoin="round"/>
<path d="M285.086 386.998C281.566 381.589 278.615 376.335 276.933 371.313C272.455 357.931 277.994 346.569 270.048 335.749C266.45 330.857 262.075 326.923 257.598 323.17" stroke="#1B771B" stroke-width="9.71121" stroke-miterlimit="10" stroke-linecap="round" stroke-linejoin="round"/>
<path d="M297.536 466.047C301.341 463.925 304.784 460.715 307.657 455.927C321.634 432.632 299.012 408.482 285.061 386.999" stroke="#1B771B" stroke-width="9.71121" stroke-miterlimit="10" stroke-linecap="round" stroke-linejoin="round"/>
<path d="M33.9922 667.783C37.0205 666.048 39.9713 664.185 42.8184 662.166C54.3883 653.961 66.1135 645.704 77.9681 637.68C83.9731 633.616 90.0039 629.63 96.0865 625.722C106 619.355 115.81 616.482 126.293 611.641C136.775 606.801 137.914 600.149 144.903 592.384C148.63 588.243 152.512 584.283 156.395 580.374C165.946 570.771 175.6 561.402 183.417 550.065C192.735 536.528 196.592 520.868 203.839 506.451C204.538 505.079 205.237 503.733 205.988 502.387C215.849 484.89 235.443 466.616 256.201 467.626C269.454 468.273 285.346 472.777 297.511 466.047" stroke="#C8CEDB" stroke-width="9.71121" stroke-miterlimit="10" stroke-linecap="round" stroke-linejoin="round"/>
<path d="M32.3349 683.002C43.0133 683.002 51.6698 674.345 51.6698 663.667C51.6698 652.989 43.0133 644.332 32.3349 644.332C21.6565 644.332 13 652.989 13 663.667C13 674.345 21.6565 683.002 32.3349 683.002Z" fill="white" stroke="#1B771B" stroke-width="9.71121" stroke-miterlimit="10" stroke-linecap="round" stroke-linejoin="round"/>
<path d="M90.8049 637.68C96.1656 637.68 100.511 633.335 100.511 627.974C100.511 622.613 96.1656 618.268 90.8049 618.268C85.4443 618.268 81.0986 622.613 81.0986 627.974C81.0986 633.335 85.4443 637.68 90.8049 637.68Z" fill="#404366"/>
<path d="M146.714 598.001C152.075 598.001 156.42 593.655 156.42 588.294C156.42 582.934 152.075 578.588 146.714 578.588C141.353 578.588 137.008 582.934 137.008 588.294C137.008 593.655 141.353 598.001 146.714 598.001Z" fill="#404366"/>
<path d="M185.072 559.175C190.433 559.175 194.779 554.83 194.779 549.469C194.779 544.108 190.433 539.763 185.072 539.763C179.712 539.763 175.366 544.108 175.366 549.469C175.366 554.83 179.712 559.175 185.072 559.175Z" fill="#404366"/>
<path d="M203.813 516.157C209.173 516.157 213.519 511.811 213.519 506.451C213.519 501.09 209.173 496.745 203.813 496.745C198.452 496.745 194.106 501.09 194.106 506.451C194.106 511.811 198.452 516.157 203.813 516.157Z" fill="#404366"/>
<path d="M297.536 475.028C302.897 475.028 307.243 470.682 307.243 465.322C307.243 459.961 302.897 455.615 297.536 455.615C292.176 455.615 287.83 459.961 287.83 465.322C287.83 470.682 292.176 475.028 297.536 475.028Z" fill="white" stroke="#1B771B" stroke-width="5.17669" stroke-miterlimit="10" stroke-linecap="round" stroke-linejoin="round"/>
<path d="M283.818 397.223C289.178 397.223 293.524 392.878 293.524 387.517C293.524 382.156 289.178 377.811 283.818 377.811C278.457 377.811 274.111 382.156 274.111 387.517C274.111 392.878 278.457 397.223 283.818 397.223Z" fill="white" stroke="#1B771B" stroke-width="5.17669" stroke-miterlimit="10" stroke-linecap="round" stroke-linejoin="round"/>
<path d="M257.78 332.876C263.14 332.876 267.486 328.531 267.486 323.17C267.486 317.81 263.14 313.464 257.78 313.464C252.419 313.464 248.073 317.81 248.073 323.17C248.073 328.531 252.419 332.876 257.78 332.876Z" fill="white" stroke="#1B771B" stroke-width="5.17669" stroke-miterlimit="10" stroke-linecap="round" stroke-linejoin="round"/>
<path d="M231.275 250.515C236.635 250.515 240.981 246.17 240.981 240.809C240.981 235.448 236.635 231.103 231.275 231.103C225.914 231.103 221.568 235.448 221.568 240.809C221.568 246.17 225.914 250.515 231.275 250.515Z" fill="white" stroke="#1B771B" stroke-width="5.17669" stroke-miterlimit="10" stroke-linecap="round" stroke-linejoin="round"/>
<path d="M236.736 188.603C242.096 188.603 246.442 184.257 246.442 178.897C246.442 173.536 242.096 169.19 236.736 169.19C231.375 169.19 227.029 173.536 227.029 178.897C227.029 184.257 231.375 188.603 236.736 188.603Z" fill="white" stroke="#1B771B" stroke-width="5.17669" stroke-miterlimit="10" stroke-linecap="round" stroke-linejoin="round"/>
<path d="M283.818 140.045C289.178 140.045 293.524 135.699 293.524 130.339C293.524 124.978 289.178 120.632 283.818 120.632C278.457 120.632 274.111 124.978 274.111 130.339C274.111 135.699 278.457 140.045 283.818 140.045Z" fill="white" stroke="#1B771B" stroke-width="5.17669" stroke-miterlimit="10" stroke-linecap="round" stroke-linejoin="round"/>
<path d="M351.788 106.06C357.149 106.06 361.495 101.714 361.495 96.3538C361.495 90.9931 357.149 86.6475 351.788 86.6475C346.428 86.6475 342.082 90.9931 342.082 96.3538C342.082 101.714 346.428 106.06 351.788 106.06Z" fill="white" stroke="#1B771B" stroke-width="5.17669" stroke-miterlimit="10" stroke-linecap="round" stroke-linejoin="round"/>
<path d="M450.663 81.7817C456.024 81.7817 460.37 77.4361 460.37 72.0754C460.37 66.7148 456.024 62.3691 450.663 62.3691C445.303 62.3691 440.957 66.7148 440.957 72.0754C440.957 77.4361 445.303 81.7817 450.663 81.7817Z" fill="white" stroke="#1B771B" stroke-width="5.17669" stroke-miterlimit="10" stroke-linecap="round" stroke-linejoin="round"/>
<path d="M525.311 57.5029C530.671 57.5029 535.017 53.1573 535.017 47.7966C535.017 42.436 530.671 38.0904 525.311 38.0904C519.95 38.0904 515.604 42.436 515.604 47.7966C515.604 53.1573 519.95 57.5029 525.311 57.5029Z" fill="white" stroke="#1B771B" stroke-width="5.17669" stroke-miterlimit="10" stroke-linecap="round" stroke-linejoin="round"/>
<text fill="#1E1E1E" xml:space="preserve" style="white-space: pre" font-family="Titillium Web" font-size="40" font-weight="600" letter-spacing="0px"><tspan x="141" y="747.9">Preg&#x103;ti&#x21b;i pentru &#x2028;</tspan><tspan x="141" y="789.9">urm&#x103;torul dezastru natural</tspan></text>
<path d="M49.9978 781.481L32.5934 793.207L15.1721 781.481C11.3618 778.924 8.23952 775.469 6.08065 771.42C3.92175 767.371 2.79264 762.853 2.79297 758.264V723.555L32.5934 717.793L62.4606 723.555V758.264C62.4503 762.86 61.3076 767.382 59.1341 771.432C56.9605 775.481 53.8224 778.933 49.9978 781.481Z" stroke="#1B771B" stroke-width="2.09483" stroke-linecap="round" stroke-linejoin="round"/>
<path d="M32.5928 734.058V779.571" stroke="#1B771B" stroke-width="2.09483" stroke-linecap="round" stroke-linejoin="round"/>
<path d="M32.5939 786.609L18.2047 776.96C15.0546 774.85 12.4729 771.996 10.6878 768.651C8.90273 765.305 7.9692 761.572 7.96973 757.78V729.102L32.5939 724.345" stroke="#1B771B" stroke-width="2.09483" stroke-linecap="round" stroke-linejoin="round"/>
<path d="M48.6401 727.443L57.2167 729.119V757.78C57.2139 761.573 56.2771 765.307 54.4892 768.652C52.7013 771.997 50.1171 774.85 46.9648 776.96" stroke="#1B771B" stroke-width="2.09483" stroke-linecap="round" stroke-linejoin="round"/>
<path d="M106.465 780.978C97.855 780.978 97.855 789.605 89.2447 789.605C80.6346 789.605 80.6346 780.978 72.0246 780.978C63.4143 780.978 63.4143 789.605 54.8043 789.605C46.1943 789.605 46.1943 780.978 37.584 780.978V748.984C46.1943 748.984 46.1943 757.61 54.8043 757.61C63.4143 757.61 63.4143 748.984 72.0246 748.984C80.6346 748.984 80.6346 757.527 89.2614 757.527C97.8882 757.527 97.855 748.984 106.465 748.984V780.978Z" fill="white"/>
<path d="M106.465 748.984C97.855 748.984 97.855 757.527 89.2614 757.527C80.6682 757.527 80.6346 748.984 72.0246 748.984C63.4143 748.984 63.4143 757.527 54.8043 757.527C46.1943 757.527 46.1943 748.984 37.584 748.984" stroke="#1B771B" stroke-width="2.09483" stroke-linecap="round" stroke-linejoin="round"/>
<path d="M37.584 764.932C46.1943 764.932 46.1943 773.576 54.8043 773.576C63.4143 773.576 63.4143 764.932 72.0246 764.932C80.6346 764.932 80.6346 773.576 89.2614 773.576C97.8882 773.576 97.8714 764.932 106.482 764.932" stroke="#1B771B" stroke-width="2.09483" stroke-linecap="round" stroke-linejoin="round"/>
<path d="M37.584 780.979C46.1943 780.979 46.1943 789.606 54.8043 789.606C63.4143 789.606 63.4143 780.979 72.0246 780.979C80.6346 780.979 80.6346 789.606 89.2614 789.606C97.8882 789.606 97.8714 780.979 106.482 780.979" stroke="#1B771B" stroke-width="2.09483" stroke-linecap="round" stroke-linejoin="round"/>
<text fill="#1E1E1E" xml:space="preserve" style="white-space: pre" font-family="Titillium Web" font-size="20" font-weight="600" letter-spacing="0px"><tspan x="469" y="22.45">RVM&#13;</tspan></text>
<text fill="#1E1E1E" xml:space="preserve" style="white-space: pre" font-family="Titillium Web" font-size="20" font-weight="600" letter-spacing="0px"><tspan x="455" y="112.45">Voluntar DRM</tspan></text>
<text fill="#1E1E1E" xml:space="preserve" style="white-space: pre" font-family="Titillium Web" font-size="20" font-weight="600" letter-spacing="0px"><tspan x="222" y="75.45">Stiri Oficiale&#13;</tspan></text>
<text fill="#1E1E1E" xml:space="preserve" style="white-space: pre" font-family="Titillium Web" font-size="20" font-weight="600" letter-spacing="0px"><tspan x="302" y="158.45">HelpRo (Covid19 RoHelp)</tspan></text>
<text fill="#1E1E1E" xml:space="preserve" style="white-space: pre" font-family="Titillium Web" font-size="20" font-weight="600" letter-spacing="0px"><tspan x="69.5078" y="162.45">Sprijin Diaspora&#x2028;</tspan><tspan x="4.3125" y="192.45">(Covid19 Diaspora Hub)</tspan></text>
<text fill="#1E1E1E" xml:space="preserve" style="white-space: pre" font-family="Titillium Web" font-size="20" font-weight="600" letter-spacing="0px"><tspan x="259" y="244.45">Jurnal Medical&#13;</tspan></text>
<text fill="#1E1E1E" xml:space="preserve" style="white-space: pre" font-family="Titillium Web" font-size="20" font-weight="600" letter-spacing="0px"><tspan x="76" y="335.45">Ce Trebuie S&#x103; Fac&#13;</tspan></text>
<text fill="#1E1E1E" xml:space="preserve" style="white-space: pre" font-family="Titillium Web" font-size="20" font-weight="600" letter-spacing="0px"><tspan x="314" y="377.45">Data la zi&#13;</tspan></text>
<text fill="#1E1E1E" xml:space="preserve" style="white-space: pre" font-family="Titillium Web" font-size="20" font-weight="600" letter-spacing="0px"><tspan x="322" y="476.45">Cine ce face&#13;</tspan></text>
<text fill="#1E1E1E" xml:space="preserve" style="white-space: pre" font-family="Titillium Web" font-size="20" font-weight="600" letter-spacing="0px"><tspan x="228" y="527.45">Widget Hub&#13;</tspan></text>
<text fill="#1E1E1E" xml:space="preserve" style="white-space: pre" font-family="Titillium Web" font-size="20" font-weight="600" letter-spacing="0px"><tspan x="27" y="540.45">House to Home&#13;</tspan></text>
<text fill="#1E1E1E" xml:space="preserve" style="white-space: pre" font-family="Titillium Web" font-size="20" font-weight="600" letter-spacing="0px"><tspan x="169" y="604.45">ABC Accesibilizare&#13;</tspan></text>
<text fill="#1E1E1E" xml:space="preserve" style="white-space: pre" font-family="Titillium Web" font-size="20" font-weight="600" letter-spacing="0px"><tspan x="115" y="660.45">Alert&#x103; Patrimoniu</tspan></text>
</svg>
