<svg width="1200" height="1000" viewBox="0 0 1200 1000" fill="none" xmlns="http://www.w3.org/2000/svg">
<g id="segment-participation-01-alegeri-corecte-alegatori-informati">
<g id="Group 1168">
<g id="Group 1118">
<path id="Vector" d="M415.155 573.776C429.468 557.638 447.484 547.743 467.326 539.251" stroke="#C8CEDB" stroke-width="9.92585" stroke-miterlimit="10" stroke-linecap="round" stroke-linejoin="round"/>
<path id="Vector_2" d="M415.155 573.775C411.663 577.717 408.382 582.03 405.34 586.792C392.297 607.268 379.466 627.771 364.784 647.004C361.847 650.84 358.831 654.65 355.736 658.38C351.529 663.46 347.773 669.227 344.783 675.338" stroke="#C8CEDB" stroke-width="9.92585" stroke-miterlimit="10" stroke-linecap="round" stroke-linejoin="round"/>
<path id="Vector_3" d="M578.544 507.742C572.01 511.181 564.549 515.494 557.856 517.213C554.152 518.166 550.872 517.293 547.221 517.822C543.358 518.377 541.321 520.414 538.12 521.155C534.152 522.108 529.998 520.943 525.924 521.367C521.083 521.896 519.813 524.198 515.554 525.203C512.247 525.97 508.913 524.859 505.501 525.785C503.86 526.235 503.807 528.166 501.347 528.748C499.601 529.145 497.485 528.034 495.739 528.457C489.151 529.991 481.611 533.351 474.839 536.103C472.299 537.134 469.786 538.166 467.299 539.251" stroke="#C8CEDB" stroke-width="9.92585" stroke-miterlimit="10" stroke-linecap="round" stroke-linejoin="round"/>
<path id="Vector_4" d="M626.773 467.689C616.72 475.388 606.561 485.044 597.884 493.959C593.519 498.457 588.413 502.928 582.804 505.6C581.455 506.261 580.026 506.975 578.545 507.769" stroke="#00B4CC" stroke-width="9.92585" stroke-miterlimit="10" stroke-linecap="round" stroke-linejoin="round"/>
<path id="Vector_5" d="M679.499 408.508C679.023 409.249 678.52 409.989 677.991 410.757C671.377 420.016 665.795 429.937 660.002 439.725C656.748 445.255 653.388 449.726 648.493 454.038C642.726 459.117 635.53 461.26 629.736 465.467C628.758 466.181 627.752 466.922 626.773 467.689" stroke="#C8CEDB" stroke-width="9.92585" stroke-miterlimit="10" stroke-linecap="round" stroke-linejoin="round"/>
<path id="Vector_6" d="M685.769 359.062C685.769 359.962 685.769 360.861 685.769 361.787C685.769 380.253 688.705 393.931 679.525 408.508" stroke="#00B4CC" stroke-width="9.92585" stroke-miterlimit="10" stroke-linecap="round" stroke-linejoin="round"/>
<path id="Vector_7" d="M678.917 288.929C678.203 293.135 677.938 296.31 678.335 298.135C680.663 309.167 685.319 313.744 685.848 326.205C685.981 329.485 686.034 332.792 686.06 336.099C686.087 343.745 685.849 351.47 685.796 359.115" stroke="#C8CEDB" stroke-width="9.92585" stroke-miterlimit="10" stroke-linecap="round" stroke-linejoin="round"/>
<path id="Vector_8" d="M689.34 163C702.886 181.545 692.674 227.975 684.869 261.626C682.33 272.526 680.055 282.103 678.917 288.928" stroke="#00B4CC" stroke-width="9.92585" stroke-miterlimit="10" stroke-linecap="round" stroke-linejoin="round"/>
<path id="Vector_9" d="M345.762 694.466C356.677 694.466 365.525 685.618 365.525 674.704C365.525 663.789 356.677 654.941 345.762 654.941C334.848 654.941 326 663.789 326 674.704C326 685.618 334.848 694.466 345.762 694.466Z" fill="white" stroke="#00B4CC" stroke-width="9.92585" stroke-miterlimit="10" stroke-linecap="round" stroke-linejoin="round"/>
<path id="Vector_10" d="M415.155 582.877C420.634 582.877 425.076 578.435 425.076 572.956C425.076 567.477 420.634 563.035 415.155 563.035C409.676 563.035 405.234 567.477 405.234 572.956C405.234 578.435 409.676 582.877 415.155 582.877Z" fill="#404366"/>
<path id="Vector_11" d="M472.167 547.135C477.646 547.135 482.088 542.693 482.088 537.214C482.088 531.735 477.646 527.293 472.167 527.293C466.688 527.293 462.246 531.735 462.246 537.214C462.246 542.693 466.688 547.135 472.167 547.135Z" fill="#404366"/>
<path id="Vector_12" d="M578.545 517.663C584.024 517.663 588.466 513.222 588.466 507.743C588.466 502.263 584.024 497.822 578.545 497.822C573.066 497.822 568.624 502.263 568.624 507.743C568.624 513.222 573.066 517.663 578.545 517.663Z" fill="white" stroke="#00B4CC" stroke-width="5.29111" stroke-miterlimit="10" stroke-linecap="round" stroke-linejoin="round"/>
<path id="Vector_13" d="M630.9 473.879C636.379 473.879 640.821 469.438 640.821 463.958C640.821 458.479 636.379 454.038 630.9 454.038C625.421 454.038 620.979 458.479 620.979 463.958C620.979 469.438 625.421 473.879 630.9 473.879Z" fill="#404366"/>
<path id="Vector_14" d="M674.949 424.302C680.428 424.302 684.87 419.86 684.87 414.381C684.87 408.902 680.428 404.46 674.949 404.46C669.47 404.46 665.028 408.902 665.028 414.381C665.028 419.86 669.47 424.302 674.949 424.302Z" fill="white" stroke="#00B4CC" stroke-width="5.29111" stroke-miterlimit="10" stroke-linecap="round" stroke-linejoin="round"/>
<path id="Vector_15" d="M685.901 368.428C691.38 368.428 695.822 363.986 695.822 358.507C695.822 353.028 691.38 348.586 685.901 348.586C680.422 348.586 675.98 353.028 675.98 358.507C675.98 363.986 680.422 368.428 685.901 368.428Z" fill="#404366"/>
<path id="Vector_16" d="M679.711 298.85C685.19 298.85 689.632 294.408 689.632 288.929C689.632 283.45 685.19 279.008 679.711 279.008C674.232 279.008 669.79 283.45 669.79 288.929C669.79 294.408 674.232 298.85 679.711 298.85Z" fill="white" stroke="#00B4CC" stroke-width="5.29111" stroke-miterlimit="10" stroke-linecap="round" stroke-linejoin="round"/>
<path id="Vector_17" d="M691.034 241.123C696.513 241.123 700.955 236.682 700.955 231.203C700.955 225.723 696.513 221.282 691.034 221.282C685.555 221.282 681.113 225.723 681.113 231.203C681.113 236.682 685.555 241.123 691.034 241.123Z" fill="white" stroke="#00B4CC" stroke-width="5.29111" stroke-miterlimit="10" stroke-linecap="round" stroke-linejoin="round"/>
</g>
<text class="btn-project" text-decoration="underline" cursor="pointer" projectid="8" id="Swipe Politics" fill="#1E1E1E" xml:space="preserve" style="white-space: pre" font-family="Titillium Web" font-size="20" font-weight="600" letter-spacing="0px"><tspan x="442" y="617.45">Swipe Politics</tspan></text>
<g id="icon-alegeri-corecte-alegatori-informati 1" clip-path="url(#clip0)">
<path id="Vector_18" d="M417.184 769.487L415.943 767.514C414.475 765.467 413.521 763.097 413.162 760.603C412.804 758.109 413.052 755.566 413.885 753.188L416.874 744.729C417.715 742.327 418.144 739.801 418.143 737.256V723.157C418.276 716.647 420.989 710.457 425.684 705.947C430.379 701.436 436.674 698.975 443.183 699.103C446.413 699.021 449.626 699.575 452.642 700.735C455.657 701.896 458.413 703.638 460.754 705.864C463.096 708.09 464.975 710.756 466.286 713.708C467.596 716.661 468.313 719.843 468.393 723.072V735.311C468.392 739.057 469.363 742.74 471.213 745.998C473.156 749.505 474.129 753.467 474.033 757.475C473.866 761.939 471.94 766.156 468.675 769.205" stroke="#00B4CC" stroke-width="3.82143" stroke-linecap="round" stroke-linejoin="round"/>
<path id="Vector_19" d="M462.531 718.477V734.917C462.531 737.453 462.031 739.965 461.06 742.309C460.089 744.652 458.667 746.781 456.873 748.575C455.079 750.369 452.95 751.792 450.606 752.762C448.263 753.733 445.751 754.233 443.214 754.233C438.089 754.233 433.173 752.199 429.546 748.577C425.919 744.955 423.878 740.042 423.87 734.917V721.325C430.188 720.773 436.445 719.659 442.566 717.997C448.298 716.389 453.635 713.615 458.244 709.848C459.568 710.865 460.643 712.171 461.386 713.667C462.129 715.162 462.52 716.807 462.531 718.477Z" stroke="#00B4CC" stroke-width="3.82143" stroke-linecap="round" stroke-linejoin="round"/>
<path id="Vector_20" d="M461.063 707.196C460.189 708.126 459.286 709.001 458.243 709.846C453.6 713.627 448.223 716.402 442.452 717.996C436.368 719.651 430.149 720.765 423.869 721.323L421.049 721.605" stroke="#00B4CC" stroke-width="3.82143" stroke-linecap="round" stroke-linejoin="round"/>
<path id="Vector_21" d="M400.096 827.348L402.916 792.157C403.331 786.77 405.323 781.625 408.642 777.363C411.962 773.1 416.463 769.909 421.583 768.188C425.418 766.947 428.689 765.847 429.874 765.367C430.603 765.088 431.279 764.688 431.876 764.183C432.776 763.398 433.494 762.426 433.981 761.336C434.468 760.245 434.712 759.061 434.696 757.867V752.227" stroke="#00B4CC" stroke-width="3.82143" stroke-linecap="round" stroke-linejoin="round"/>
<path id="Vector_22" d="M483.818 792.157C483.393 786.757 481.385 781.602 478.044 777.338C474.703 773.074 470.179 769.891 465.037 768.188C461.202 766.947 457.931 765.847 456.719 765.367C456.001 765.082 455.335 764.682 454.745 764.183C453.844 763.398 453.126 762.426 452.639 761.336C452.152 760.245 451.908 759.061 451.925 757.867V752.227" stroke="#00B4CC" stroke-width="3.82143" stroke-linecap="round" stroke-linejoin="round"/>
<path id="Vector_23" d="M434.638 758.407H451.98" stroke="#00B4CC" stroke-width="3.82143" stroke-linecap="round" stroke-linejoin="round"/>
<path id="Vector_24" d="M436.077 733.225C436.949 733.225 437.656 732.051 437.656 730.602C437.656 729.154 436.949 727.98 436.077 727.98C435.205 727.98 434.498 729.154 434.498 730.602C434.498 732.051 435.205 733.225 436.077 733.225Z" fill="#00B4CC"/>
<path id="Vector_25" d="M451.333 733.225C452.205 733.225 452.912 732.051 452.912 730.602C452.912 729.154 452.205 727.98 451.333 727.98C450.461 727.98 449.754 729.154 449.754 730.602C449.754 732.051 450.461 733.225 451.333 733.225Z" fill="#00B4CC"/>
<path id="Vector_26" d="M440.136 742.161C441.265 742.638 442.478 742.884 443.703 742.884C444.928 742.884 446.141 742.638 447.27 742.161" stroke="#00B4CC" stroke-width="3.82143" stroke-linecap="round" stroke-linejoin="round"/>
<path id="Vector_27" d="M433.598 724.172C434.59 723.615 435.682 723.261 436.812 723.128" stroke="#00B4CC" stroke-width="3.82143" stroke-linecap="round" stroke-linejoin="round"/>
<path id="Vector_28" d="M449.784 722.34C451.209 722.263 452.632 722.534 453.929 723.13" stroke="#00B4CC" stroke-width="3.82143" stroke-linecap="round" stroke-linejoin="round"/>
<path id="Vector_29" d="M484.24 773.379H434.667V827.351H484.24V773.379Z" fill="white" stroke="#00B4CC" stroke-width="3.82143" stroke-linecap="round" stroke-linejoin="round"/>
<path id="Vector_30" d="M449.783 790.043H452.603L449.332 804.143H444.143L440.872 790.043H443.889L446.314 801.605H447.245L449.783 790.043Z" fill="#00B4CC"/>
<path id="Vector_31" d="M465.43 802.591C464.871 803.219 464.17 803.705 463.386 804.01C462.601 804.314 461.755 804.426 460.919 804.339C460.082 804.426 459.236 804.314 458.451 804.01C457.667 803.705 456.966 803.219 456.407 802.591C455.41 800.949 454.956 799.035 455.109 797.12C454.936 795.151 455.39 793.176 456.407 791.48C456.951 790.829 457.647 790.321 458.434 790.002C459.221 789.682 460.074 789.561 460.919 789.648C461.763 789.561 462.616 789.682 463.403 790.002C464.19 790.321 464.886 790.829 465.43 791.48C466.459 793.172 466.923 795.148 466.756 797.12C466.9 799.038 466.437 800.952 465.43 802.591ZM458.634 800.786C458.883 801.155 459.226 801.449 459.628 801.638C460.03 801.827 460.476 801.903 460.919 801.857C461.361 801.909 461.81 801.836 462.213 801.646C462.616 801.457 462.959 801.159 463.203 800.786C463.706 799.642 463.937 798.397 463.879 797.148C463.948 795.877 463.736 794.606 463.259 793.426C463.026 793.037 462.689 792.722 462.284 792.517C461.88 792.313 461.426 792.227 460.975 792.27C460.527 792.222 460.075 792.306 459.674 792.511C459.274 792.717 458.942 793.035 458.719 793.426C458.229 794.603 458.016 795.877 458.099 797.148C457.999 798.386 458.182 799.63 458.634 800.786Z" fill="#00B4CC"/>
<path id="Vector_32" d="M469.185 792.581V790.043H479.505V792.581H475.783V804.086H472.963V792.581H469.185Z" fill="#00B4CC"/>
<path id="Vector_33" d="M490.189 817.99L481.729 813.76C481.306 813.551 480.928 813.259 480.618 812.903C480.308 812.547 480.071 812.132 479.922 811.684C479.772 811.236 479.713 810.762 479.748 810.291C479.782 809.82 479.909 809.361 480.122 808.939C480.329 808.516 480.618 808.139 480.971 807.828C481.324 807.518 481.735 807.28 482.18 807.128C482.625 806.976 483.096 806.913 483.565 806.943C484.035 806.973 484.494 807.096 484.916 807.303L493.376 811.533C493.804 811.753 494.183 812.055 494.493 812.424C494.802 812.793 495.034 813.22 495.176 813.679C495.318 814.139 495.366 814.623 495.319 815.101C495.271 815.58 495.128 816.045 494.898 816.467L490.866 826.337" fill="white"/>
<path id="Vector_34" d="M490.189 817.99L481.729 813.76C481.306 813.551 480.928 813.259 480.618 812.903C480.308 812.547 480.071 812.132 479.922 811.684C479.772 811.236 479.713 810.762 479.748 810.291C479.782 809.82 479.909 809.361 480.122 808.939C480.329 808.516 480.618 808.139 480.971 807.828C481.324 807.518 481.735 807.28 482.18 807.128C482.625 806.976 483.096 806.913 483.565 806.943C484.035 806.973 484.494 807.096 484.916 807.303L493.376 811.533C493.804 811.753 494.183 812.055 494.493 812.424C494.802 812.793 495.034 813.22 495.176 813.679C495.318 814.139 495.366 814.623 495.319 815.101C495.271 815.58 495.128 816.045 494.898 816.467L490.866 826.337" stroke="#00B4CC" stroke-width="3.82143" stroke-linecap="round" stroke-linejoin="round"/>
<path id="Vector_35" d="M487.003 824.421L478.543 820.191C478.121 819.984 477.744 819.695 477.434 819.341C477.124 818.988 476.887 818.576 476.738 818.13C476.588 817.684 476.529 817.213 476.563 816.744C476.597 816.274 476.724 815.817 476.936 815.397C477.335 814.546 478.052 813.886 478.933 813.559C479.814 813.232 480.788 813.264 481.645 813.649L490.105 817.878" fill="white"/>
<path id="Vector_36" d="M487.003 824.421L478.543 820.191C478.121 819.984 477.744 819.695 477.434 819.341C477.124 818.988 476.887 818.576 476.738 818.13C476.588 817.684 476.529 817.213 476.563 816.744C476.597 816.274 476.724 815.817 476.936 815.397C477.335 814.546 478.052 813.886 478.933 813.559C479.814 813.232 480.788 813.264 481.645 813.649L490.105 817.878" stroke="#00B4CC" stroke-width="3.82143" stroke-linecap="round" stroke-linejoin="round"/>
<path id="Vector_37" d="M485.228 831.329L475.161 826.648C474.738 826.438 474.36 826.147 474.05 825.79C473.74 825.434 473.503 825.02 473.354 824.571C473.204 824.123 473.145 823.65 473.179 823.179C473.214 822.708 473.341 822.247 473.554 821.826C473.761 821.404 474.05 821.027 474.403 820.716C474.756 820.405 475.167 820.167 475.612 820.015C476.057 819.863 476.528 819.801 476.997 819.831C477.466 819.861 477.926 819.983 478.347 820.191L486.807 824.42" fill="white"/>
<path id="Vector_38" d="M485.228 831.329L475.161 826.648C474.738 826.438 474.36 826.147 474.05 825.79C473.74 825.434 473.503 825.02 473.354 824.571C473.204 824.123 473.145 823.65 473.179 823.179C473.214 822.708 473.341 822.247 473.554 821.826C473.761 821.404 474.05 821.027 474.403 820.716C474.756 820.405 475.167 820.167 475.612 820.015C476.057 819.863 476.528 819.801 476.997 819.831C477.466 819.861 477.926 819.983 478.347 820.191L486.807 824.42" stroke="#00B4CC" stroke-width="3.82143" stroke-linecap="round" stroke-linejoin="round"/>
<path id="Vector_39" d="M485.229 831.327C487.815 832.096 490.59 831.913 493.053 830.812C495.516 829.71 497.502 827.761 498.651 825.32C499.354 823.436 499.661 821.427 499.554 819.419C499.448 817.41 498.929 815.445 498.03 813.646C496.048 809.98 493.716 806.514 491.066 803.297C488.246 799.293 484.241 791.143 484.241 785.898" stroke="#00B4CC" stroke-width="3.82143" stroke-linecap="round" stroke-linejoin="round"/>
<path id="Vector_40" d="M490.979 810.348L492.36 808.882" stroke="#00B4CC" stroke-width="3.82143" stroke-linecap="round" stroke-linejoin="round"/>
<path id="Vector_41" d="M425.757 834.117C434.166 834.117 440.984 827.299 440.984 818.889C440.984 810.48 434.166 803.662 425.757 803.662C417.347 803.662 410.529 810.48 410.529 818.889C410.529 827.299 417.347 834.117 425.757 834.117Z" fill="white" stroke="#00B4CC" stroke-width="3.82143" stroke-linecap="round" stroke-linejoin="round"/>
<path id="Vector_42" d="M417.436 819.458C420.193 821.049 422.525 823.285 424.231 825.972C424.231 825.972 432.691 812.155 441.546 808.066" fill="white"/>
<path id="Vector_43" d="M417.436 819.458C420.193 821.049 422.525 823.285 424.231 825.972C424.231 825.972 432.691 812.155 441.546 808.066" stroke="#00B4CC" stroke-width="3.82143" stroke-linecap="round" stroke-linejoin="round"/>
</g>
<text id="Alegeri corecte. &#226;&#128;&#168;Aleg&#196;&#131;tori informa&#200;&#155;i" fill="#1E1E1E" xml:space="preserve" style="white-space: pre" font-family="Titillium Web" font-size="40" font-weight="600" letter-spacing="0px"><tspan x="534" y="751.9">Alegeri corecte. &#x2028;</tspan><tspan x="534" y="793.9">Aleg&#x103;tori informa&#x21b;i</tspan></text>
<text class="btn-project" text-decoration="underline" cursor="pointer" projectid="7" id="Catalog Politic" fill="#1E1E1E" xml:space="preserve" style="white-space: pre" font-family="Titillium Web" font-size="20" font-weight="600" letter-spacing="0px"><tspan x="335" y="512.45">Catalog Politic&#13;</tspan></text>
<text class="btn-project" text-decoration="underline" cursor="pointer" projectid="6" id="Rezultate Vot" fill="#1E1E1E" xml:space="preserve" style="white-space: pre" font-family="Titillium Web" font-size="20" font-weight="600" letter-spacing="0px"><tspan x="598" y="554.45">Rezultate Vot&#13;</tspan></text>
<text class="btn-project" text-decoration="underline" cursor="pointer" projectid="5" id="Ochii pe Vot" fill="#1E1E1E" xml:space="preserve" style="white-space: pre" font-family="Titillium Web" font-size="20" font-weight="600" letter-spacing="0px"><tspan x="714" y="422.45">Ochii pe Vot&#13;</tspan></text>
<text class="btn-project" text-decoration="underline" cursor="pointer" projectid="4" id="Monitorizare Vot" fill="#1E1E1E" xml:space="preserve" style="white-space: pre" font-family="Titillium Web" font-size="20" font-weight="600" letter-spacing="0px"><tspan x="727" y="362.45">Monitorizare Vot&#13;</tspan></text>
<text class="btn-project" text-decoration="underline" cursor="pointer" projectid="3" id="Count Us In" fill="#1E1E1E" xml:space="preserve" style="white-space: pre" font-family="Titillium Web" font-size="20" font-weight="600" letter-spacing="0px"><tspan x="509" y="444.45">Count Us In&#13;</tspan></text>
<text class="btn-project" text-decoration="underline" cursor="pointer" projectid="2" id="Vot Diaspora" fill="#1E1E1E" xml:space="preserve" style="white-space: pre" font-family="Titillium Web" font-size="20" font-weight="600" letter-spacing="0px"><tspan x="526" y="290.45">Vot Diaspora&#13;</tspan></text>
<text class="btn-project" text-decoration="underline" cursor="pointer" projectid="1" id="Vot Romania" fill="#1E1E1E" xml:space="preserve" style="white-space: pre" font-family="Titillium Web" font-size="20" font-weight="600" letter-spacing="0px"><tspan x="545" y="233.45">Vot Romania&#13;</tspan></text>
</g>
</g>
<defs>
<clipPath id="clip0">
<rect width="107" height="142.667" fill="white" transform="translate(395 694)"/>
</clipPath>
</defs>
</svg>
