<svg width="1200" height="1000" viewBox="0 0 1200 1000" fill="none" xmlns="http://www.w3.org/2000/svg">
<g id="segment-health-03-servicii-de-sanatate-eficiente">
<g id="Group 1181">
<g id="Group 1129">
<path id="Vector" d="M932.647 196.049C931.322 214.206 922.709 228.181 932.85 248.582C942.762 268.498 961.975 289.333 950.942 312.259C944.52 325.621 928.137 334.878 915.906 342.758C902.401 351.454 891.674 361.017 879.265 371.013C852.562 392.537 822.189 411.739 792.81 428.723C757.927 448.869 722.433 471.641 717.159 513.923C712.75 549.293 703.399 565.027 680.874 591.752C673.74 600.219 667.344 613.734 659.624 620.849C657.483 622.813 655.267 624.547 652.948 626.077C630.092 641.199 599.439 636.456 575.615 649.742C568.276 653.848 561.779 659.382 554.874 664.278C552.708 665.834 550.491 667.313 548.198 668.664C541.012 672.923 534.005 677.717 526.667 681.721C512.831 689.269 498.231 697.022 486.433 707.809C485.771 708.421 485.108 709.033 484.471 709.645C473.82 719.973 462.762 729.408 450.684 738.283C440.11 746.06 431.345 755.292 421 763.452C411.444 770.975 404.182 781.762 393.837 788.852C392.92 789.464 392.003 790.076 391.035 790.637C381.556 796.17 371.848 802.214 361.401 806.014C359.082 806.855 356.05 808.947 353.986 809.482C351.107 810.247 348.329 809.763 345.374 810.502C340.252 811.777 335.64 813.358 330.773 814.786C328.455 815.475 318.696 816.852 315.74 816.852C314.491 816.852 313.166 816.801 311.841 816.725C307.917 816.546 303.79 816.316 300.299 817.362C296.171 818.586 294.362 821.187 289.546 821.442C281.036 821.901 265.926 818.127 258.638 823.023C253.568 826.44 250.714 833.657 246 837.457" stroke="#F90000" stroke-width="10.4594" stroke-miterlimit="10" stroke-linejoin="round" stroke-dasharray="13.07 13.07"/>
<path id="Vector_2" d="M933.106 215.099C943.618 215.099 952.14 206.57 952.14 196.049C952.14 185.529 943.618 177 933.106 177C922.594 177 914.072 185.529 914.072 196.049C914.072 206.57 922.594 215.099 933.106 215.099Z" fill="white" stroke="#F90000" stroke-width="10.4594" stroke-miterlimit="10" stroke-linecap="round" stroke-linejoin="round"/>
</g>
<g id="Group 1145">
<g id="icon-servicii-de-sanatate-eficiente 1">
<path id="Vector_3" d="M836.66 209.092H844.681V217.481H836.66V225.502H828.288V217.481H820.268V209.092H828.288V201.071H836.66V209.092Z" fill="white" stroke="#F90000" stroke-width="2.1" stroke-linecap="round" stroke-linejoin="round"/>
<path id="Vector_4" d="M857.424 199.983V243.194H796.749V199.983C796.749 198.654 797.011 197.338 797.52 196.11C798.029 194.883 798.776 193.768 799.716 192.829C800.657 191.89 801.773 191.145 803.002 190.638C804.23 190.131 805.547 189.871 806.876 189.874H847.244C848.577 189.865 849.9 190.119 851.134 190.623C852.369 191.127 853.492 191.87 854.438 192.81C855.384 193.75 856.135 194.867 856.648 196.098C857.16 197.329 857.424 198.65 857.424 199.983Z" stroke="#F90000" stroke-width="2.1" stroke-linecap="round" stroke-linejoin="round"/>
<path id="Vector_5" d="M857.424 199.983V243.194H809.105V199.983C809.105 197.302 810.171 194.73 812.066 192.835C813.962 190.939 816.534 189.874 819.215 189.874H847.297C848.626 189.871 849.942 190.131 851.171 190.638C852.4 191.145 853.516 191.889 854.457 192.828C855.397 193.767 856.144 194.883 856.653 196.11C857.162 197.338 857.424 198.654 857.424 199.983Z" stroke="#F90000" stroke-width="2.1" stroke-linecap="round" stroke-linejoin="round"/>
<path id="Vector_6" d="M817.722 189.944C817.831 187.329 818.946 184.857 820.835 183.045C822.724 181.233 825.24 180.221 827.857 180.221C830.475 180.221 832.991 181.233 834.88 183.045C836.769 184.857 837.884 187.329 837.993 189.944" stroke="#F90000" stroke-width="2.1" stroke-linecap="round" stroke-linejoin="round"/>
<path id="Vector_7" d="M789.432 243.265H872.695" stroke="#F90000" stroke-width="2.1" stroke-linecap="round" stroke-linejoin="round"/>
<path id="Vector_8" d="M866.708 226.084V243.266H849.684V226.084C849.681 225.589 849.777 225.099 849.964 224.641C850.152 224.183 850.428 223.767 850.777 223.416C851.126 223.066 851.541 222.787 851.998 222.598C852.455 222.408 852.945 222.31 853.44 222.31C853.809 222.31 854.163 222.164 854.426 221.905C854.689 221.646 854.839 221.293 854.844 220.923V213.148H861.074V220.923C861.079 221.29 861.226 221.64 861.485 221.899C861.745 222.158 862.095 222.306 862.461 222.31H862.952C863.447 222.31 863.937 222.408 864.394 222.598C864.851 222.787 865.265 223.066 865.615 223.416C865.963 223.767 866.24 224.183 866.427 224.641C866.615 225.099 866.711 225.589 866.708 226.084Z" fill="white" stroke="#F90000" stroke-width="2.1" stroke-linecap="round" stroke-linejoin="round"/>
<path id="Vector_9" d="M861.952 212.128H853.756V218.78H861.952V212.128Z" fill="white" stroke="#F90000" stroke-width="2.1" stroke-linecap="round" stroke-linejoin="round"/>
<path id="Vector_10" d="M866.709 229.645H853.756V237.719H866.709V229.645Z" fill="white" stroke="#F90000" stroke-width="2.1" stroke-linecap="round" stroke-linejoin="round"/>
<path id="Vector_11" d="M790.044 202.229C790.039 202.659 789.865 203.07 789.56 203.372C789.254 203.674 788.842 203.844 788.412 203.844H785.621V206.634C785.645 206.862 785.621 207.092 785.55 207.309C785.479 207.526 785.363 207.726 785.21 207.896C785.057 208.066 784.87 208.202 784.661 208.295C784.452 208.388 784.226 208.436 783.998 208.436C783.769 208.436 783.543 208.388 783.334 208.295C783.125 208.202 782.938 208.066 782.785 207.896C782.632 207.726 782.516 207.526 782.446 207.309C782.375 207.092 782.351 206.862 782.374 206.634V203.844H779.601C779.374 203.868 779.144 203.843 778.927 203.772C778.709 203.702 778.509 203.586 778.339 203.433C778.169 203.28 778.034 203.093 777.941 202.884C777.848 202.675 777.8 202.449 777.8 202.22C777.8 201.992 777.848 201.766 777.941 201.557C778.034 201.348 778.169 201.161 778.339 201.008C778.509 200.855 778.709 200.739 778.927 200.668C779.144 200.598 779.374 200.573 779.601 200.597H782.374V197.806C782.416 197.405 782.605 197.033 782.905 196.763C783.205 196.493 783.594 196.343 783.998 196.343C784.401 196.343 784.791 196.493 785.09 196.763C785.39 197.033 785.579 197.405 785.621 197.806V200.597H788.412C788.845 200.597 789.26 200.769 789.566 201.075C789.872 201.381 790.044 201.796 790.044 202.229Z" stroke="#F90000" stroke-width="2.1" stroke-linecap="round" stroke-linejoin="round"/>
<path id="Vector_12" d="M796.959 185.838C796.961 186.053 796.921 186.266 796.84 186.465C796.758 186.664 796.638 186.845 796.486 186.997C796.334 187.149 796.153 187.269 795.954 187.35C795.755 187.432 795.542 187.472 795.327 187.47H792.554V190.261C792.554 190.694 792.382 191.109 792.076 191.415C791.77 191.721 791.354 191.893 790.921 191.893C790.489 191.893 790.073 191.721 789.767 191.415C789.461 191.109 789.289 190.694 789.289 190.261V187.47H786.516C786.289 187.494 786.059 187.469 785.842 187.398C785.624 187.328 785.424 187.212 785.254 187.059C785.085 186.906 784.949 186.719 784.856 186.51C784.763 186.301 784.715 186.075 784.715 185.846C784.715 185.618 784.763 185.392 784.856 185.183C784.949 184.974 785.085 184.787 785.254 184.634C785.424 184.481 785.624 184.365 785.842 184.294C786.059 184.224 786.289 184.199 786.516 184.223H789.289V181.432C789.289 180.999 789.461 180.584 789.767 180.278C790.073 179.972 790.489 179.8 790.921 179.8C791.354 179.8 791.77 179.972 792.076 180.278C792.382 180.584 792.554 180.999 792.554 181.432V184.223H795.327C795.54 184.221 795.752 184.261 795.95 184.341C796.148 184.421 796.328 184.539 796.48 184.69C796.632 184.84 796.752 185.019 796.835 185.216C796.917 185.413 796.959 185.624 796.959 185.838Z" stroke="#F90000" stroke-width="2.1" stroke-linecap="round" stroke-linejoin="round"/>
<path id="Vector_13" d="M875.801 205.233C875.803 205.447 875.763 205.659 875.683 205.856C875.603 206.054 875.484 206.235 875.334 206.386C875.184 206.538 875.005 206.659 874.808 206.741C874.611 206.823 874.4 206.865 874.186 206.865H871.395V209.656C871.419 209.884 871.395 210.113 871.324 210.331C871.253 210.548 871.137 210.748 870.984 210.918C870.831 211.088 870.644 211.223 870.435 211.316C870.226 211.409 870 211.457 869.772 211.457C869.543 211.457 869.317 211.409 869.108 211.316C868.899 211.223 868.712 211.088 868.559 210.918C868.406 210.748 868.291 210.548 868.22 210.331C868.149 210.113 868.124 209.884 868.148 209.656V206.865H865.358C864.956 206.824 864.584 206.634 864.314 206.335C864.044 206.035 863.895 205.645 863.895 205.242C863.895 204.838 864.044 204.449 864.314 204.149C864.584 203.849 864.956 203.66 865.358 203.618H868.148V200.828C868.19 200.426 868.379 200.055 868.679 199.784C868.979 199.514 869.368 199.365 869.772 199.365C870.175 199.365 870.565 199.514 870.865 199.784C871.164 200.055 871.353 200.426 871.395 200.828V203.618H874.186C874.614 203.618 875.025 203.789 875.328 204.091C875.63 204.394 875.801 204.805 875.801 205.233Z" stroke="#F90000" stroke-width="2.1" stroke-linecap="round" stroke-linejoin="round"/>
</g>
<text id="Servicii de &#226;&#128;&#168;s&#196;&#131;n&#196;&#131;tate eficiente" fill="#1E1E1E" xml:space="preserve" style="white-space: pre" font-family="Titillium Web" font-size="40" font-weight="600" letter-spacing="0px"><tspan x="561.734" y="198.9">Servicii de &#x2028;</tspan><tspan x="436.188" y="240.9">s&#x103;n&#x103;tate&#13;eficiente</tspan></text>
</g>
</g>
</g>
</svg>
