<svg width="273" height="348" viewBox="0 0 273 348" fill="none" xmlns="http://www.w3.org/2000/svg">
<g clip-path="url(#clip0)">
<path d="M250.463 24.3071C244.867 31.2817 239.792 38.7247 235.316 47.4169C228.836 59.9607 231.204 72.5826 226.806 85.699C223.813 94.6254 210.853 111.281 211.79 119.713C213.169 132.309 225.557 127.442 232.688 130.669C242.265 135.015 244.399 145.477 243.644 155.211C241.64 180.454 220.196 195.028 200.651 207.39C174.991 223.629 164.347 233.284 148.029 259.205C142.148 268.573 137.931 281.56 130.462 290.2C118.335 304.201 84.2424 315.105 66.1812 323.928C49.187 332.229 29.3821 340.245 10.4361 341.911C6.29812 342.275 3.51347 342.691 1.19727 343.264" stroke="#7937C4" stroke-width="10.2292" stroke-miterlimit="10" stroke-linejoin="round" stroke-dasharray="12.79 12.79"/>
<path d="M248.667 43.7727C259.404 43.7727 268.108 35.069 268.108 24.3324C268.108 13.5958 259.404 4.89209 248.667 4.89209C237.93 4.89209 229.227 13.5958 229.227 24.3324C229.227 35.069 237.93 43.7727 248.667 43.7727Z" fill="white" stroke="#7937C4" stroke-width="10.2292" stroke-miterlimit="10" stroke-linecap="round" stroke-linejoin="round"/>
</g>
<defs>
<clipPath id="clip0">
<rect width="273" height="348" fill="white"/>
</clipPath>
</defs>
</svg>
