<svg width="203" height="497" viewBox="0 0 203 497" fill="none" xmlns="http://www.w3.org/2000/svg">
<g clip-path="url(#clip0)">
<path d="M161.374 234.595C158.323 230.519 154.759 226.712 150.952 223.121C139.343 212.213 125.087 203.033 113.504 192.639L112.829 192.018C110.264 189.696 107.808 187.32 105.567 184.863C104.082 183.243 102.705 181.596 101.436 179.922C83.9673 157.135 84.5343 130.622 72.7627 104.595C72.1147 103.137 71.4127 101.679 70.6567 100.221C62.53 84.2913 55.8072 73.0596 43.8466 59.9651C34.3429 49.5704 26.1082 38.2308 24.7312 23.6782" stroke="#7937C4" stroke-width="10.1298" stroke-miterlimit="10" stroke-linejoin="round" stroke-dasharray="12.66 12.66"/>
<path d="M25.2443 45.4119C36.3829 45.4119 45.4126 36.3822 45.4126 25.2435C45.4126 14.1049 36.3829 5.0752 25.2443 5.0752C14.1056 5.0752 5.07593 14.1049 5.07593 25.2435C5.07593 36.3822 14.1056 45.4119 25.2443 45.4119Z" fill="white" stroke="#7937C4" stroke-width="10.1298" stroke-miterlimit="10" stroke-linecap="round" stroke-linejoin="round"/>
<path d="M171.391 273.393C171.499 272.367 171.607 271.314 171.688 270.261C172.66 255.439 168.097 243.856 160.699 234.001" stroke="#C8CEDB" stroke-width="10.1298" stroke-miterlimit="10" stroke-linecap="round" stroke-linejoin="round"/>
<path d="M160.537 244.909C166.128 244.909 170.661 240.376 170.661 234.784C170.661 229.192 166.128 224.659 160.537 224.659C154.945 224.659 150.412 229.192 150.412 234.784C150.412 240.376 154.945 244.909 160.537 244.909Z" fill="#404366"/>
<path d="M162.697 315.62C162.94 308.573 164.506 302.039 166.288 295.559C168.259 288.297 170.5 281.115 171.391 273.366" stroke="#C8CEDB" stroke-width="10.1298" stroke-miterlimit="10" stroke-linecap="round" stroke-linejoin="round"/>
<path d="M170.797 283.517C176.388 283.517 180.921 278.984 180.921 273.393C180.921 267.801 176.388 263.268 170.797 263.268C165.205 263.268 160.672 267.801 160.672 273.393C160.672 278.984 165.205 283.517 170.797 283.517Z" fill="#404366"/>
<path d="M176.304 366.73C176.034 366.109 175.791 365.461 175.521 364.84C169.528 350.368 163.669 336.653 162.751 320.615C162.643 318.914 162.643 317.267 162.697 315.647" stroke="#C8CEDB" stroke-width="10.1298" stroke-miterlimit="10" stroke-linecap="round" stroke-linejoin="round"/>
<path d="M163.561 328.552C169.152 328.552 173.685 324.019 173.685 318.427C173.685 312.836 169.152 308.303 163.561 308.303C157.969 308.303 153.436 312.836 153.436 318.427C153.436 324.019 157.969 328.552 163.561 328.552Z" fill="#404366"/>
<path d="M187.995 426.776C186.969 407.012 184.512 386.79 176.952 368.349C176.736 367.809 176.52 367.269 176.277 366.729" stroke="#C8CEDB" stroke-width="10.1298" stroke-miterlimit="10" stroke-linecap="round" stroke-linejoin="round"/>
<path d="M175.359 377.745C180.951 377.745 185.484 373.212 185.484 367.62C185.484 362.029 180.951 357.496 175.359 357.496C169.768 357.496 165.235 362.029 165.235 367.62C165.235 373.212 169.768 377.745 175.359 377.745Z" fill="#404366"/>
<path d="M196.905 491.951C197.418 485.228 197.256 478.505 195.474 471.809C191.802 458.013 189.129 445.728 188.238 431.176C188.184 430.42 188.157 429.637 188.103 428.881C188.076 428.179 188.022 427.477 187.995 426.775" stroke="#C8CEDB" stroke-width="10.1298" stroke-miterlimit="10" stroke-linecap="round" stroke-linejoin="round"/>
<path d="M188.724 438.736C194.316 438.736 198.849 434.203 198.849 428.611C198.849 423.019 194.316 418.486 188.724 418.486C183.132 418.486 178.599 423.019 178.599 428.611C178.599 434.203 183.132 438.736 188.724 438.736Z" fill="#404366"/>
</g>
<defs>
<clipPath id="clip0">
<rect width="202.223" height="497" fill="white"/>
</clipPath>
</defs>
</svg>
