<svg viewBox="0 0 1200 1000" fill="none" xmlns="http://www.w3.org/2000/svg">
<g id="segment-health-02-sprijin-pentru-cei-grav-bolnavi">
<g id="Group 1190">
<text id="Sprijin pentru cei grav bolnavi" fill="#1E1E1E" xml:space="preserve" style="white-space: pre" font-family="Titillium Web" font-size="40" font-weight="600" letter-spacing="0px"><tspan x="804" y="550.9">Sprijin pentru &#10;</tspan><tspan x="804" y="592.9">cei&#13;grav bolnavi</tspan></text>
<g id="icon-sprijin-pentru-cei-grav-bolnavi 1">
<path id="Vector" d="M864.455 431.473V443.519C864.455 447.278 862.962 450.883 860.304 453.541C857.646 456.199 854.041 457.692 850.282 457.692H822.243C818.484 457.692 814.879 456.199 812.221 453.541C809.564 450.883 808.07 447.278 808.07 443.519V431.473H864.455Z" stroke="#F90000" stroke-width="3" stroke-linecap="round" stroke-linejoin="round"/>
<path id="Vector_2" d="M864.455 396.371V431.472H808V396.371C808 394.654 808.682 393.008 809.896 391.794C811.109 390.58 812.756 389.898 814.472 389.898H858.007C859.719 389.905 861.359 390.589 862.568 391.802C863.777 393.016 864.455 394.658 864.455 396.371Z" stroke="#F90000" stroke-width="3" stroke-linecap="round" stroke-linejoin="round"/>
<path id="Vector_3" d="M841.875 420.154H852.67V431.446H841.875V442.24H830.584V431.446H819.789V420.154H830.584V409.359H841.875V420.154Z" fill="white" stroke="#F90000" stroke-width="3" stroke-linecap="round" stroke-linejoin="round"/>
<path id="Vector_4" d="M836.605 380C837.253 380 837.895 380.128 838.494 380.376C839.093 380.624 839.637 380.988 840.096 381.446C840.554 381.904 840.918 382.449 841.166 383.048C841.414 383.647 841.542 384.289 841.542 384.937V389.897H831.668V384.961C831.665 384.31 831.79 383.666 832.037 383.064C832.284 382.462 832.647 381.915 833.106 381.454C833.564 380.993 834.11 380.628 834.71 380.378C835.311 380.128 835.955 380 836.605 380Z" fill="white" stroke="#F90000" stroke-width="3" stroke-linecap="round" stroke-linejoin="round"/>
<path id="Vector_5" d="M831.926 457.738V480.155" stroke="#F90000" stroke-width="3" stroke-linecap="round" stroke-linejoin="round"/>
<path id="Vector_6" d="M825.195 457.738V480.155" stroke="#F90000" stroke-width="3" stroke-linecap="round" stroke-linejoin="round"/>
<path id="Vector_7" d="M844 457.74V469.882C843.997 471.412 844.296 472.928 844.88 474.342C845.464 475.756 846.322 477.041 847.404 478.123C848.486 479.205 849.771 480.063 851.185 480.647C852.6 481.231 854.115 481.53 855.646 481.527H871.07C874.142 481.502 877.08 480.264 879.244 478.083C881.407 475.902 882.621 472.954 882.621 469.882V427.363C882.621 425.387 883.404 423.492 884.799 422.093C886.194 420.694 888.086 419.905 890.062 419.898C892.038 419.905 893.93 420.694 895.325 422.093C896.72 423.492 897.503 425.387 897.503 427.363V444.536" stroke="#F90000" stroke-width="3" stroke-linecap="round" stroke-linejoin="round"/>
<path id="Vector_8" d="M886.256 446.777H878.957V458.612H886.256V446.777Z" fill="white" stroke="#F90000" stroke-width="3" stroke-linecap="round" stroke-linejoin="round"/>
<path id="Vector_9" d="M904.002 475.149C903.903 476.776 903.187 478.304 901.999 479.422C900.812 480.539 899.243 481.161 897.612 481.161C895.982 481.161 894.413 480.539 893.225 479.422C892.038 478.304 891.321 476.776 891.223 475.149C891.223 471.606 897.6 462.086 897.6 462.086C897.6 462.086 904.002 471.606 904.002 475.149Z" fill="#F90000" stroke="#F90000" stroke-width="3" stroke-linecap="round" stroke-linejoin="round"/>
</g>
<g id="Group 1189">
<text class="btn-project" text-decoration="underline" cursor="pointer" data-projectid="1" id="Prim ajutor" fill="#1E1E1E" xml:space="preserve" style="white-space: pre" font-family="Titillium Web" font-size="20" font-weight="600" letter-spacing="0px"><tspan x="170" y="642.45">Prim ajutor&#13;</tspan></text>
<text class="btn-project" text-decoration="underline" cursor="pointer" data-projectid="2" id="Asistent comunitar" fill="#1E1E1E" xml:space="preserve" style="white-space: pre" font-family="Titillium Web" font-size="20" font-weight="600" letter-spacing="0px"><tspan x="132" y="562.45">Asistent comunitar</tspan></text>
<text class="btn-project" text-decoration="underline" cursor="pointer" data-projectid="3" id="MSmove" fill="#1E1E1E" xml:space="preserve" style="white-space: pre" font-family="Titillium Web" font-size="20" font-weight="600" letter-spacing="0px"><tspan x="384" y="564.45">MSmove&#13;</tspan></text>
<text class="btn-project" text-decoration="underline" cursor="pointer" data-projectid="4" id="RecuperApp" fill="#1E1E1E" xml:space="preserve" style="white-space: pre" font-family="Titillium Web" font-size="20" font-weight="600" letter-spacing="0px"><tspan x="288" y="486.45">RecuperApp</tspan></text>
<text class="btn-project" text-decoration="underline" cursor="pointer" data-projectid="5" id="Ac&#200;&#155;iuni prioritare" fill="#1E1E1E" xml:space="preserve" style="white-space: pre" font-family="Titillium Web" font-size="20" font-weight="600" letter-spacing="0px"><tspan x="252" y="439.45">Ac&#x21b;iuni prioritare</tspan></text>
<text class="btn-project" text-decoration="underline" cursor="pointer" data-projectid="6" id="Centrul de s&#196;&#131;n&#196;&#131;tate" fill="#1E1E1E" xml:space="preserve" style="white-space: pre" font-family="Titillium Web" font-size="20" font-weight="600" letter-spacing="0px"><tspan x="243" y="393.45">Centrul de s&#x103;n&#x103;tate</tspan></text>
<text class="btn-project" text-decoration="underline" cursor="pointer" data-projectid="7" id="MalpraxisAlert" fill="#1E1E1E" xml:space="preserve" style="white-space: pre" font-family="Titillium Web" font-size="20" font-weight="600" letter-spacing="0px"><tspan x="488" y="450.45">MalpraxisAlert</tspan></text>
<text class="btn-project" text-decoration="underline" cursor="pointer" data-projectid="8" id="S&#196;&#131;n&#196;&#131;tos" fill="#1E1E1E" xml:space="preserve" style="white-space: pre" font-family="Titillium Web" font-size="20" font-weight="600" letter-spacing="0px"><tspan x="409" y="350.45">S&#x103;n&#x103;tos</tspan></text>
<text class="btn-project" text-decoration="underline" cursor="pointer" data-projectid="9" id="Donare Organe" fill="#1E1E1E" xml:space="preserve" style="white-space: pre" font-family="Titillium Web" font-size="20" font-weight="600" letter-spacing="0px"><tspan x="635" y="435.45">Donare Organe</tspan></text>
<text class="btn-project" text-decoration="underline" cursor="pointer" data-projectid="10" id="RoTransplant" fill="#1E1E1E" xml:space="preserve" style="white-space: pre" font-family="Titillium Web" font-size="20" font-weight="600" letter-spacing="0px"><tspan x="555" y="360.45">RoTransplant</tspan></text>
<g id="Group 1188">
<path id="Vector_10" d="M318.265 569.192C315.308 572.251 312.789 575.696 310.964 579.68C308.882 584.205 307.956 589.963 306.954 594.925C306.362 597.881 307.339 600.503 306.234 603.588C304.023 609.732 300.707 615.645 298.419 621.789C297.159 625.131 296.079 628.961 295.36 632.457C295.231 633.023 295.154 633.614 295.103 634.179" stroke="#F90000" stroke-width="9.64532" stroke-miterlimit="10" stroke-linejoin="round"/>
<path id="Vector_11" d="M418.986 483.305C416.801 492.302 412.765 500.657 405.515 506.673C401.839 509.732 397.263 511.249 392.867 513.048C390.039 514.205 387.263 515.465 384.821 517.341C374.23 525.465 366.106 535.208 355.669 543.485C353.201 545.439 350.63 547.29 347.854 549.038C338.085 555.182 326.491 560.683 318.265 569.193" stroke="#C8CEDB" stroke-width="9.64506" stroke-miterlimit="10" stroke-linecap="round" stroke-linejoin="round"/>
<path id="Vector_12" d="M420.836 488.241C422.687 480.44 423.227 472.162 423.304 464.494C423.33 460.912 423.252 457.251 423.175 453.537C422.841 440.35 422.455 426.633 427.006 414.428C427.443 413.261 428.008 412.04 428.702 410.846C429.705 409.095 430.965 407.318 432.404 405.566" stroke="#C8CEDB" stroke-width="9.64506" stroke-miterlimit="10" stroke-linecap="round" stroke-linejoin="round"/>
<path id="Vector_13" d="M679.218 374.77C683.434 369.86 692.483 360.811 703.254 352.944C708.062 349.448 713.203 346.183 718.422 343.613C733.486 336.209 746.314 343.767 755.594 341.505C757.471 341.042 765.62 339.782 768.216 339.165C771.07 338.471 784.155 334.564 794.36 331.042" stroke="#C8CEDB" stroke-width="9.64506" stroke-miterlimit="10" stroke-linecap="round" stroke-linejoin="round"/>
<path id="Vector_14" d="M430.579 403.202C440.939 390.939 461.428 378.677 474.024 374.255C488.831 369.063 503.587 375.464 517.238 383.973C526.184 389.551 534.667 396.029 542.379 400.708C545.413 402.559 548.883 405.49 552.431 408.523C557.881 413.15 563.536 417.958 568.189 419.294C573.819 420.914 580.477 419.834 587.29 417.469C600.066 413.022 613.408 403.947 621.455 399.346C637.264 390.322 660.272 395.001 673.923 382.07C676.211 379.911 677.213 377.083 679.244 374.744" stroke="#C8CEDB" stroke-width="9.64506" stroke-miterlimit="10" stroke-linecap="round" stroke-linejoin="round"/>
<path id="Vector_15" d="M803.589 343.406C814.195 343.406 822.792 334.809 822.792 324.203C822.792 313.598 814.195 305 803.589 305C792.983 305 784.386 313.598 784.386 324.203C784.386 334.809 792.983 343.406 803.589 343.406Z" fill="white" stroke="#F90000" stroke-width="9.64506" stroke-miterlimit="10" stroke-linecap="round" stroke-linejoin="round"/>
<path id="Vector_16" d="M294.717 634C294.435 636.75 294.769 639.474 294.203 642.249C293.073 647.928 289.989 653.787 286.34 658.618C282.896 663.192 279.916 667.458 276.96 672.315C273.979 677.223 270.048 681.232 266.99 686.012C266.219 687.194 265.679 688.89 264.883 690.02C263.341 692.205 261.619 693.027 260 695.083" stroke="#C8CEDB" stroke-width="9.64142" stroke-miterlimit="10" stroke-linecap="round" stroke-linejoin="round"/>
<path id="Vector_17" d="M294.64 646.288C299.964 646.288 304.28 641.972 304.28 636.648C304.28 631.324 299.964 627.008 294.64 627.008C289.316 627.008 285 631.324 285 636.648C285 641.972 289.316 646.288 294.64 646.288Z" fill="#404366"/>
<path id="Vector_18" d="M317.314 579.27C322.638 579.27 326.954 574.954 326.954 569.63C326.954 564.306 322.638 559.99 317.314 559.99C311.989 559.99 307.673 564.306 307.673 569.63C307.673 574.954 311.989 579.27 317.314 579.27Z" fill="white" stroke="#F90000" stroke-width="5.14143" stroke-miterlimit="10" stroke-linecap="round" stroke-linejoin="round"/>
<path id="Vector_19" d="M367.469 541.891C372.793 541.891 377.109 537.575 377.109 532.251C377.109 526.927 372.793 522.611 367.469 522.611C362.145 522.611 357.829 526.927 357.829 532.251C357.829 537.575 362.145 541.891 367.469 541.891Z" fill="#404366"/>
<path id="Vector_20" d="M419.32 494.488C424.644 494.488 428.96 490.172 428.96 484.847C428.96 479.523 424.644 475.207 419.32 475.207C413.996 475.207 409.68 479.523 409.68 484.847C409.68 490.172 413.996 494.488 419.32 494.488Z" fill="#404366"/>
<path id="Vector_21" d="M420.939 452.714C426.263 452.714 430.579 448.398 430.579 443.074C430.579 437.749 426.263 433.433 420.939 433.433C415.615 433.433 411.299 437.749 411.299 443.074C411.299 448.398 415.615 452.714 420.939 452.714Z" fill="#404366"/>
<path id="Vector_22" d="M430.579 414.282C435.903 414.282 440.219 409.966 440.219 404.641C440.219 399.317 435.903 395.001 430.579 395.001C425.255 395.001 420.939 399.317 420.939 404.641C420.939 409.966 425.255 414.282 430.579 414.282Z" fill="#404366"/>
<path id="Vector_23" d="M488.06 382.507C493.384 382.507 497.7 378.191 497.7 372.867C497.7 367.543 493.384 363.227 488.06 363.227C482.736 363.227 478.42 367.543 478.42 372.867C478.42 378.191 482.736 382.507 488.06 382.507Z" fill="#404366"/>
<path id="Vector_24" d="M550.682 414.564C556.006 414.564 560.322 410.248 560.322 404.924C560.322 399.6 556.006 395.284 550.682 395.284C545.358 395.284 541.042 399.6 541.042 404.924C541.042 410.248 545.358 414.564 550.682 414.564Z" fill="#404366"/>
<path id="Vector_25" d="M625.62 405.386C630.944 405.386 635.26 401.07 635.26 395.746C635.26 390.422 630.944 386.106 625.62 386.106C620.296 386.106 615.979 390.422 615.979 395.746C615.979 401.07 620.296 405.386 625.62 405.386Z" fill="#404366"/>
<path id="Vector_26" d="M680.915 383.227C686.239 383.227 690.555 378.911 690.555 373.587C690.555 368.263 686.239 363.947 680.915 363.947C675.591 363.947 671.275 368.263 671.275 373.587C671.275 378.911 675.591 383.227 680.915 383.227Z" fill="#404366"/>
</g>
</g>
</g>
</g>
</svg>
