<svg width="716" height="400" viewBox="0 0 716 400" fill="none" xmlns="http://www.w3.org/2000/svg">
<path d="M350.946 36.724C347.446 35.4991 343.846 34.7241 340.121 34.7491C331.672 34.7991 323.898 38.9988 316.498 43.0736C299.749 50.5231 282.85 58.8475 267.826 62.9472C235.528 71.7467 200.931 64.6221 169.033 70.6717C127.436 78.5712 88.9132 66.722 52.1907 91.2704C47.266 94.5701 43.2663 99.1198 38.4416 102.545C32.192 106.994 27.0924 112.369 22.4927 118.469C18.043 124.443 15.3182 129.618 13.7183 136.617C11.9684 144.292 8.79359 151.616 8.5936 159.666C8.5686 160.791 8.81858 162.316 8.66859 163.466C8.44361 165.165 7.64366 166.015 7.31869 167.49C6.56874 171.065 6.99371 174.815 6.94371 178.49C6.89371 182.139 5.6188 184.539 5.19383 188.139C4.54387 193.539 5.5938 198.188 7.36868 203.188C8.5936 206.638 9.16856 210.837 10.5935 214.137C11.5934 216.462 13.6933 217.762 14.9682 219.937C31.4171 247.585 49.3409 281.833 70.3145 306.331C82.9386 321.08 100.362 324.905 116.186 335.279C133.66 346.753 149.109 366.177 152.234 387.251C152.884 391.6 152.934 395.65 152.634 399.5" stroke="#F90000" stroke-width="9.37912" stroke-miterlimit="10" stroke-linejoin="round" stroke-dasharray="11.72 11.72"/>
<path d="M350.946 57.3475C361.259 57.3475 369.62 48.987 369.62 38.6738C369.62 28.3605 361.259 20 350.946 20C340.633 20 332.272 28.3605 332.272 38.6738C332.272 48.987 340.633 57.3475 350.946 57.3475Z" fill="white" stroke="#F90000" stroke-width="9.37912" stroke-miterlimit="10" stroke-linecap="round" stroke-linejoin="round"/>
<path d="M463.692 7.35815H416.196V67.4116H463.692V7.35815Z" stroke="#F90000" stroke-width="2.07" stroke-linecap="round" stroke-linejoin="round"/>
<path d="M442.387 15.5436H447.082V20.4475H442.387V25.1264H437.483V20.4475H432.805V15.5436H437.483V10.8486H442.387V15.5436Z" stroke="#F90000" stroke-width="2.07" stroke-linecap="round" stroke-linejoin="round"/>
<path d="M451.939 2.76001H427.886V7.35847H451.939V2.76001Z" stroke="#F90000" stroke-width="2.07" stroke-linecap="round" stroke-linejoin="round"/>
<path d="M416.198 36.3167H406.245V67.3965H416.198V36.3167Z" stroke="#F90000" stroke-width="2.07" stroke-linecap="round" stroke-linejoin="round"/>
<path d="M423.287 30.1094H456.715" stroke="#F90000" stroke-width="2.07" stroke-linecap="round" stroke-linejoin="round"/>
<path d="M423.287 37.2168H456.715" stroke="#F90000" stroke-width="2.07" stroke-linecap="round" stroke-linejoin="round"/>
<path d="M423.287 44.3245H456.715" stroke="#F90000" stroke-width="2.07" stroke-linecap="round" stroke-linejoin="round"/>
<path d="M423.287 51.4453H456.715" stroke="#F90000" stroke-width="2.07" stroke-linecap="round" stroke-linejoin="round"/>
<path d="M423.287 58.553H456.715" stroke="#F90000" stroke-width="2.07" stroke-linecap="round" stroke-linejoin="round"/>
<path d="M442.323 63.3912H489.947C490.587 63.3912 491.2 63.137 491.653 62.6846C492.105 62.2322 492.359 61.619 492.359 60.9792V59.5481C492.363 59.1753 492.281 58.8065 492.118 58.4709L482.182 38.5498C481.979 38.1479 481.668 37.8104 481.285 37.5747C480.902 37.3393 480.461 37.2148 480.011 37.215H446.246C445.681 37.1993 445.129 37.382 444.685 37.7317C444.241 38.0814 443.935 38.5757 443.818 39.1286L439.959 57.6189C439.943 57.7793 439.943 57.9407 439.959 58.1011V60.9792C439.959 61.6107 440.207 62.2168 440.649 62.6678C441.09 63.1188 441.692 63.3785 442.323 63.3912Z" fill="white" stroke="#F90000" stroke-width="2.07" stroke-linecap="round" stroke-linejoin="round"/>
<path d="M466.314 48.8093H471.009V53.7133H466.314V58.408H461.41V53.7133H456.715V48.8093H461.41V44.1143H466.314V48.8093Z" stroke="#F90000" stroke-width="2.07" stroke-linecap="round" stroke-linejoin="round"/>
<path d="M483.275 40.7532H477.423L480.124 52.5389H489.16" stroke="#F90000" stroke-width="2.07" stroke-linecap="round" stroke-linejoin="round"/>
<path d="M477.424 67.0573C479.581 67.0573 481.331 65.308 481.331 63.1503C481.331 60.9922 479.581 59.2429 477.424 59.2429C475.266 59.2429 473.517 60.9922 473.517 63.1503C473.517 65.308 475.266 67.0573 477.424 67.0573Z" fill="white" stroke="#F90000" stroke-width="2.07" stroke-linecap="round" stroke-linejoin="round"/>
<path d="M451.055 67.0573C453.213 67.0573 454.963 65.308 454.963 63.1503C454.963 60.9922 453.213 59.2429 451.055 59.2429C448.897 59.2429 447.148 60.9922 447.148 63.1503C447.148 65.308 448.897 67.0573 451.055 67.0573Z" fill="white" stroke="#F90000" stroke-width="2.07" stroke-linecap="round" stroke-linejoin="round"/>
<path d="M411.725 21.8121C408.453 20.3805 405.621 18.1012 403.524 15.2097C401.427 12.3181 400.14 8.91917 399.795 5.36377C403.422 6.16422 406.644 8.23412 408.879 11.2003C411.031 14.3 412.037 18.0517 411.725 21.8121Z" stroke="#F90000" stroke-width="2.07" stroke-linecap="round" stroke-linejoin="round"/>
<path d="M409.764 29.2727C408.406 26.8705 406.312 24.9688 403.79 23.8483C401.268 22.7278 398.453 22.4481 395.76 23.0503C396.17 24.3716 396.841 25.5974 397.733 26.6551C398.625 27.7128 399.72 28.5811 400.953 29.2084C403.78 30.3232 406.921 30.3461 409.764 29.2727Z" stroke="#F90000" stroke-width="2.07" stroke-linecap="round" stroke-linejoin="round"/>
<path d="M468.934 32.2329C468.491 30.6255 468.376 28.9455 468.596 27.2929C468.816 25.6403 469.366 24.0488 470.213 22.6131C471.061 21.1775 472.189 19.927 473.53 18.9362C474.87 17.9454 476.397 17.2344 478.018 16.8457C478.521 18.4078 478.7 20.0559 478.545 21.6895C478.39 23.3231 477.905 24.9082 477.118 26.3481C475.273 29.3126 472.331 31.4278 468.934 32.2329Z" stroke="#F90000" stroke-width="2.07" stroke-linecap="round" stroke-linejoin="round"/>
<text fill="#1E1E1E" xml:space="preserve" style="white-space: pre" font-family="Titillium Web" font-size="40" font-weight="600" letter-spacing="0px"><tspan x="396" y="119.9">Spitale func&#x21b;ionale</tspan></text>
</svg>
