<svg width="383" height="542" viewBox="0 0 383 542" fill="none" xmlns="http://www.w3.org/2000/svg">
<g clip-path="url(#clip0)">
<path d="M94.1287 415.749C108.441 399.611 126.457 389.717 146.299 381.224" stroke="#C8CEDB" stroke-width="9.92585" stroke-miterlimit="10" stroke-linecap="round" stroke-linejoin="round"/>
<path d="M94.1288 415.749C90.6367 419.69 87.3562 424.003 84.3138 428.765C71.2712 449.241 58.4403 469.744 43.7575 488.977C40.8209 492.814 37.805 496.623 34.7097 500.353C30.5032 505.433 26.7466 511.2 23.7571 517.311" stroke="#C8CEDB" stroke-width="9.92585" stroke-miterlimit="10" stroke-linecap="round" stroke-linejoin="round"/>
<path d="M257.518 349.716C250.984 353.155 243.523 357.467 236.83 359.187C233.126 360.139 229.846 359.266 226.195 359.795C222.332 360.351 220.295 362.388 217.094 363.129C213.126 364.081 208.972 362.917 204.898 363.34C200.057 363.869 198.787 366.171 194.528 367.176C191.221 367.943 187.887 366.832 184.475 367.758C182.834 368.208 182.781 370.139 180.321 370.721C178.575 371.118 176.459 370.007 174.713 370.43C168.125 371.965 160.585 375.325 153.813 378.076C151.273 379.108 148.76 380.139 146.273 381.224" stroke="#C8CEDB" stroke-width="9.92585" stroke-miterlimit="10" stroke-linecap="round" stroke-linejoin="round"/>
<path d="M305.747 309.662C295.694 317.361 285.535 327.017 276.858 335.932C272.492 340.43 267.386 344.901 261.778 347.573C260.429 348.234 259 348.949 257.519 349.742" stroke="#00B4CC" stroke-width="9.92585" stroke-miterlimit="10" stroke-linecap="round" stroke-linejoin="round"/>
<path d="M358.473 250.481C357.997 251.222 357.494 251.962 356.965 252.73C350.351 261.989 344.769 271.91 338.975 281.699C335.721 287.228 332.361 291.699 327.467 296.011C321.7 301.09 314.504 303.233 308.71 307.44C307.731 308.154 306.726 308.895 305.747 309.662" stroke="#C8CEDB" stroke-width="9.92585" stroke-miterlimit="10" stroke-linecap="round" stroke-linejoin="round"/>
<path d="M364.743 201.035C364.743 201.935 364.743 202.834 364.743 203.76C364.743 222.226 367.679 235.904 358.499 250.481" stroke="#00B4CC" stroke-width="9.92585" stroke-miterlimit="10" stroke-linecap="round" stroke-linejoin="round"/>
<path d="M357.891 130.902C357.176 135.108 356.912 138.283 357.309 140.108C359.637 151.14 364.293 155.717 364.822 168.178C364.954 171.458 365.007 174.765 365.034 178.072C365.06 185.718 364.822 193.443 364.769 201.088" stroke="#C8CEDB" stroke-width="9.92585" stroke-miterlimit="10" stroke-linecap="round" stroke-linejoin="round"/>
<path d="M368.314 4.97314C381.859 23.5185 371.648 69.9479 363.843 103.599C361.303 114.499 359.028 124.076 357.891 130.901" stroke="#00B4CC" stroke-width="9.92585" stroke-miterlimit="10" stroke-linecap="round" stroke-linejoin="round"/>
<path d="M24.7359 536.439C35.6503 536.439 44.4982 527.591 44.4982 516.677C44.4982 505.762 35.6503 496.915 24.7359 496.915C13.8215 496.915 4.97363 505.762 4.97363 516.677C4.97363 527.591 13.8215 536.439 24.7359 536.439Z" fill="white" stroke="#00B4CC" stroke-width="9.92585" stroke-miterlimit="10" stroke-linecap="round" stroke-linejoin="round"/>
<path d="M94.1287 424.85C99.6078 424.85 104.049 420.408 104.049 414.929C104.049 409.45 99.6078 405.008 94.1287 405.008C88.6495 405.008 84.2078 409.45 84.2078 414.929C84.2078 420.408 88.6495 424.85 94.1287 424.85Z" fill="#404366"/>
<path d="M151.14 389.108C156.619 389.108 161.061 384.667 161.061 379.187C161.061 373.708 156.619 369.267 151.14 369.267C145.661 369.267 141.219 373.708 141.219 379.187C141.219 384.667 145.661 389.108 151.14 389.108Z" fill="#404366"/>
<path d="M257.518 359.637C262.998 359.637 267.439 355.195 267.439 349.716C267.439 344.237 262.998 339.795 257.518 339.795C252.039 339.795 247.598 344.237 247.598 349.716C247.598 355.195 252.039 359.637 257.518 359.637Z" fill="white" stroke="#00B4CC" stroke-width="5.29111" stroke-miterlimit="10" stroke-linecap="round" stroke-linejoin="round"/>
<path d="M309.873 315.852C315.353 315.852 319.794 311.411 319.794 305.932C319.794 300.452 315.353 296.011 309.873 296.011C304.394 296.011 299.953 300.452 299.953 305.932C299.953 311.411 304.394 315.852 309.873 315.852Z" fill="#404366"/>
<path d="M353.922 266.275C359.401 266.275 363.843 261.833 363.843 256.354C363.843 250.875 359.401 246.433 353.922 246.433C348.443 246.433 344.001 250.875 344.001 256.354C344.001 261.833 348.443 266.275 353.922 266.275Z" fill="white" stroke="#00B4CC" stroke-width="5.29111" stroke-miterlimit="10" stroke-linecap="round" stroke-linejoin="round"/>
<path d="M364.875 210.401C370.354 210.401 374.795 205.959 374.795 200.48C374.795 195.001 370.354 190.559 364.875 190.559C359.395 190.559 354.954 195.001 354.954 200.48C354.954 205.959 359.395 210.401 364.875 210.401Z" fill="#404366"/>
<path d="M358.684 140.823C364.163 140.823 368.605 136.381 368.605 130.902C368.605 125.423 364.163 120.981 358.684 120.981C353.205 120.981 348.764 125.423 348.764 130.902C348.764 136.381 353.205 140.823 358.684 140.823Z" fill="white" stroke="#00B4CC" stroke-width="5.29111" stroke-miterlimit="10" stroke-linecap="round" stroke-linejoin="round"/>
<path d="M370.007 83.0965C375.487 83.0965 379.928 78.6548 379.928 73.1757C379.928 67.6966 375.487 63.2549 370.007 63.2549C364.528 63.2549 360.087 67.6966 360.087 73.1757C360.087 78.6548 364.528 83.0965 370.007 83.0965Z" fill="white" stroke="#00B4CC" stroke-width="5.29111" stroke-miterlimit="10" stroke-linecap="round" stroke-linejoin="round"/>
</g>
<defs>
<clipPath id="clip0">
<rect width="382.574" height="541.386" fill="white"/>
</clipPath>
</defs>
</svg>
