<svg width="751" height="718" viewBox="0 0 751 718" fill="none" xmlns="http://www.w3.org/2000/svg">
<g clip-path="url(#clip0)">
<path d="M566.407 503.225C566.355 504.806 566.249 506.414 566.117 508.022C565.564 514.744 564.43 521.571 562.585 528.556C559.896 538.757 557.946 547.772 556.707 555.996C556.18 559.528 555.758 562.929 555.468 566.197C553.518 588.813 557.498 606.052 566.144 628.59C570.071 638.817 574.948 650.151 580.668 663.542C584.595 672.768 588.786 682.283 593.241 691.957" stroke="#00B4CC" stroke-width="9.88973" stroke-miterlimit="10" stroke-linejoin="round" stroke-dasharray="12.36 12.36"/>
<path d="M557.577 450.454C563.56 467.535 567.145 484.958 566.407 503.225" stroke="#C8CEDB" stroke-width="9.88973" stroke-miterlimit="10" stroke-linecap="round" stroke-linejoin="round"/>
<path d="M506.782 346.176C509.418 350.684 511.923 355.587 514.374 360.727C528.977 391.198 546.98 420.272 557.55 450.48" stroke="#00B4CC" stroke-width="9.88973" stroke-miterlimit="10" stroke-linecap="round" stroke-linejoin="round"/>
<path d="M406.775 287.816C413.734 291.401 421.115 294.96 428.996 298.624C430.789 299.467 432.555 300.258 434.321 301.049C456.515 310.986 476.285 314.729 491.573 327.118C497.372 331.81 502.275 338.426 506.782 346.149" stroke="#C8CEDB" stroke-width="9.88973" stroke-miterlimit="10" stroke-linecap="round" stroke-linejoin="round"/>
<path d="M362.729 258.952C365.234 261.114 367.764 263.17 370.321 265.147C381.392 273.687 393.306 280.83 406.776 287.789" stroke="#00B4CC" stroke-width="9.88973" stroke-miterlimit="10" stroke-linecap="round" stroke-linejoin="round"/>
<path d="M308.218 187.546C316.126 201.042 324.113 214.458 333.47 227.085C334.92 229.035 336.396 230.986 337.925 232.884C345.991 243.058 354.136 251.546 362.756 258.953" stroke="#C8CEDB" stroke-width="9.88973" stroke-miterlimit="10" stroke-linecap="round" stroke-linejoin="round"/>
<path d="M286.921 152.962C288.476 155.229 290.005 157.522 291.481 159.842C296.595 167.829 301.419 175.974 306.19 184.119C306.849 185.252 307.534 186.385 308.193 187.519" stroke="#00B4CC" stroke-width="9.88973" stroke-miterlimit="10" stroke-linecap="round" stroke-linejoin="round"/>
<path d="M259.244 114.426C265.649 123.678 272.45 132.667 279.039 141.787C281.702 145.477 284.364 149.194 286.921 152.963" stroke="#C8CEDB" stroke-width="9.88973" stroke-miterlimit="10" stroke-linecap="round" stroke-linejoin="round"/>
<path d="M231.776 78.8665C238.393 86.3788 245.22 93.944 250.94 102.036C251.862 103.328 252.732 104.619 253.575 105.964C255.421 108.837 257.318 111.657 259.243 114.451" stroke="#00B4CC" stroke-width="9.88973" stroke-miterlimit="10" stroke-linecap="round" stroke-linejoin="round"/>
<path d="M4.95532 29.2844C25.7528 26.2794 46.4975 22.4573 66.267 27.0702C74.6756 29.0471 81.529 33.0801 88.2242 37.0867C96.9755 42.3059 105.516 47.4723 117.114 47.8413C133.43 48.3421 148.455 41.8577 164.429 43.4393C166.432 43.6238 168.435 43.9665 170.492 44.441C182.801 47.3405 191.342 55.5646 202.623 58.9385C208.053 60.5465 212.218 62.1807 215.935 64.3422C220.68 67.0836 224.66 70.7211 229.536 76.2829C230.301 77.1528 231.039 77.9963 231.803 78.8662" stroke="#C8CEDB" stroke-width="9.88973" stroke-miterlimit="10" stroke-linecap="round" stroke-linejoin="round"/>
<path d="M592.582 713.07C603.457 713.07 612.273 704.254 612.273 693.38C612.273 682.505 603.457 673.689 592.582 673.689C581.708 673.689 572.892 682.505 572.892 693.38C572.892 704.254 581.708 713.07 592.582 713.07Z" fill="white" stroke="#00B4CC" stroke-width="9.88973" stroke-miterlimit="10" stroke-linecap="round" stroke-linejoin="round"/>
<path d="M100.508 52.2702C105.967 52.2702 110.392 47.8446 110.392 42.3855C110.392 36.9263 105.967 32.5007 100.508 32.5007C95.0486 32.5007 90.623 36.9263 90.623 42.3855C90.623 47.8446 95.0486 52.2702 100.508 52.2702Z" fill="#404366"/>
<path d="M192.476 66.1086C197.935 66.1086 202.36 61.683 202.36 56.2238C202.36 50.7647 197.935 46.3391 192.476 46.3391C187.016 46.3391 182.591 50.7647 182.591 56.2238C182.591 61.683 187.016 66.1086 192.476 66.1086Z" fill="#404366"/>
<path d="M232.12 87.3803C237.58 87.3803 242.005 82.9547 242.005 77.4956C242.005 72.0364 237.58 67.6108 232.12 67.6108C226.661 67.6108 222.236 72.0364 222.236 77.4956C222.236 82.9547 226.661 87.3803 232.12 87.3803Z" fill="#404366"/>
<path d="M258.9 123.994C264.359 123.994 268.785 119.569 268.785 114.109C268.785 108.65 264.359 104.225 258.9 104.225C253.441 104.225 249.015 108.65 249.015 114.109C249.015 119.569 253.441 123.994 258.9 123.994Z" fill="white" stroke="#00B4CC" stroke-width="5.27185" stroke-miterlimit="10" stroke-linecap="round" stroke-linejoin="round"/>
<path d="M286.921 161.556C292.38 161.556 296.806 157.13 296.806 151.671C296.806 146.212 292.38 141.786 286.921 141.786C281.462 141.786 277.036 146.212 277.036 151.671C277.036 157.13 281.462 161.556 286.921 161.556Z" fill="#404366"/>
<path d="M308.376 195.453C313.836 195.453 318.261 191.028 318.261 185.569C318.261 180.109 313.836 175.684 308.376 175.684C302.917 175.684 298.492 180.109 298.492 185.569C298.492 191.028 302.917 195.453 308.376 195.453Z" fill="white" stroke="#00B4CC" stroke-width="5.27185" stroke-miterlimit="10" stroke-linecap="round" stroke-linejoin="round"/>
<path d="M333.445 236.046C338.904 236.046 343.33 231.621 343.33 226.161C343.33 220.702 338.904 216.277 333.445 216.277C327.986 216.277 323.56 220.702 323.56 226.161C323.56 231.621 327.986 236.046 333.445 236.046Z" fill="#404366"/>
<path d="M362.73 268.522C368.189 268.522 372.614 264.096 372.614 258.637C372.614 253.178 368.189 248.752 362.73 248.752C357.271 248.752 352.845 253.178 352.845 258.637C352.845 264.096 357.271 268.522 362.73 268.522Z" fill="#404366"/>
<path d="M406.407 297.464C411.866 297.464 416.291 293.038 416.291 287.579C416.291 282.12 411.866 277.695 406.407 277.695C400.948 277.695 396.522 282.12 396.522 287.579C396.522 293.038 400.948 297.464 406.407 297.464Z" fill="white" stroke="#00B4CC" stroke-width="5.27185" stroke-miterlimit="10" stroke-linecap="round" stroke-linejoin="round"/>
<path d="M470.118 324.851C475.577 324.851 480.003 320.425 480.003 314.966C480.003 309.507 475.577 305.081 470.118 305.081C464.659 305.081 460.233 309.507 460.233 314.966C460.233 320.425 464.659 324.851 470.118 324.851Z" fill="#404366"/>
<path d="M507.23 355.586C512.69 355.586 517.115 351.16 517.115 345.701C517.115 340.242 512.69 335.816 507.23 335.816C501.771 335.816 497.346 340.242 497.346 345.701C497.346 351.16 501.771 355.586 507.23 355.586Z" fill="#404366"/>
<path d="M556.76 456.463C562.219 456.463 566.644 452.037 566.644 446.578C566.644 441.119 562.219 436.693 556.76 436.693C551.301 436.693 546.875 441.119 546.875 446.578C546.875 452.037 551.301 456.463 556.76 456.463Z" fill="white" stroke="#00B4CC" stroke-width="5.27185" stroke-miterlimit="10" stroke-linecap="round" stroke-linejoin="round"/>
<path d="M566.513 513.109C571.972 513.109 576.398 508.684 576.398 503.225C576.398 497.765 571.972 493.34 566.513 493.34C561.054 493.34 556.628 497.765 556.628 503.225C556.628 508.684 561.054 513.109 566.513 513.109Z" fill="#404366"/>
<path d="M566.407 503.225C566.355 504.806 566.249 506.414 566.117 508.022C565.564 514.744 564.43 521.571 562.585 528.556C559.896 538.757 557.946 547.772 556.707 555.996C556.18 559.528 555.758 562.929 555.468 566.197C553.518 588.813 557.498 606.052 566.144 628.59C570.071 638.817 574.948 650.151 580.668 663.542C584.595 672.768 588.786 682.283 593.241 691.957" stroke="#00B4CC" stroke-width="9.88973" stroke-miterlimit="10" stroke-linejoin="round" stroke-dasharray="12.36 12.36"/>
<path d="M557.577 450.454C563.56 467.535 567.145 484.958 566.407 503.225" stroke="#C8CEDB" stroke-width="9.88973" stroke-miterlimit="10" stroke-linecap="round" stroke-linejoin="round"/>
<path d="M506.782 346.176C509.418 350.684 511.923 355.587 514.374 360.727C528.977 391.198 546.98 420.272 557.55 450.48" stroke="#00B4CC" stroke-width="9.88973" stroke-miterlimit="10" stroke-linecap="round" stroke-linejoin="round"/>
<path d="M406.775 287.816C413.734 291.401 421.115 294.96 428.996 298.624C430.789 299.467 432.555 300.258 434.321 301.049C456.515 310.986 476.285 314.729 491.573 327.118C497.372 331.81 502.275 338.426 506.782 346.149" stroke="#C8CEDB" stroke-width="9.88973" stroke-miterlimit="10" stroke-linecap="round" stroke-linejoin="round"/>
<path d="M362.729 258.952C365.234 261.114 367.764 263.17 370.321 265.147C381.392 273.687 393.306 280.83 406.776 287.789" stroke="#00B4CC" stroke-width="9.88973" stroke-miterlimit="10" stroke-linecap="round" stroke-linejoin="round"/>
<path d="M308.218 187.546C316.126 201.042 324.113 214.458 333.47 227.085C334.92 229.035 336.396 230.986 337.925 232.884C345.991 243.058 354.136 251.546 362.756 258.953" stroke="#C8CEDB" stroke-width="9.88973" stroke-miterlimit="10" stroke-linecap="round" stroke-linejoin="round"/>
<path d="M286.921 152.962C288.476 155.229 290.005 157.522 291.481 159.842C296.595 167.829 301.419 175.974 306.19 184.119C306.849 185.252 307.534 186.385 308.193 187.519" stroke="#00B4CC" stroke-width="9.88973" stroke-miterlimit="10" stroke-linecap="round" stroke-linejoin="round"/>
<path d="M259.244 114.426C265.649 123.678 272.45 132.667 279.039 141.787C281.702 145.477 284.364 149.194 286.921 152.963" stroke="#C8CEDB" stroke-width="9.88973" stroke-miterlimit="10" stroke-linecap="round" stroke-linejoin="round"/>
<path d="M231.776 78.8665C238.393 86.3788 245.22 93.944 250.94 102.036C251.862 103.328 252.732 104.619 253.575 105.964C255.421 108.837 257.318 111.657 259.243 114.451" stroke="#00B4CC" stroke-width="9.88973" stroke-miterlimit="10" stroke-linecap="round" stroke-linejoin="round"/>
<path d="M4.95532 29.2844C25.7528 26.2794 46.4975 22.4573 66.267 27.0702C74.6756 29.0471 81.529 33.0801 88.2242 37.0867C96.9755 42.3059 105.516 47.4723 117.114 47.8413C133.43 48.3421 148.455 41.8577 164.429 43.4393C166.432 43.6238 168.435 43.9665 170.492 44.441C182.801 47.3405 191.342 55.5646 202.623 58.9385C208.053 60.5465 212.218 62.1807 215.935 64.3422C220.68 67.0836 224.66 70.7211 229.536 76.2829C230.301 77.1528 231.039 77.9963 231.803 78.8662" stroke="#C8CEDB" stroke-width="9.88973" stroke-miterlimit="10" stroke-linecap="round" stroke-linejoin="round"/>
<path d="M592.582 713.07C603.457 713.07 612.273 704.254 612.273 693.38C612.273 682.505 603.457 673.689 592.582 673.689C581.708 673.689 572.892 682.505 572.892 693.38C572.892 704.254 581.708 713.07 592.582 713.07Z" fill="white" stroke="#00B4CC" stroke-width="9.88973" stroke-miterlimit="10" stroke-linecap="round" stroke-linejoin="round"/>
<path d="M100.508 52.2702C105.967 52.2702 110.392 47.8446 110.392 42.3855C110.392 36.9263 105.967 32.5007 100.508 32.5007C95.0486 32.5007 90.623 36.9263 90.623 42.3855C90.623 47.8446 95.0486 52.2702 100.508 52.2702Z" fill="#404366"/>
<path d="M192.476 66.1086C197.935 66.1086 202.36 61.683 202.36 56.2238C202.36 50.7647 197.935 46.3391 192.476 46.3391C187.016 46.3391 182.591 50.7647 182.591 56.2238C182.591 61.683 187.016 66.1086 192.476 66.1086Z" fill="#404366"/>
<path d="M232.12 87.3803C237.58 87.3803 242.005 82.9547 242.005 77.4956C242.005 72.0364 237.58 67.6108 232.12 67.6108C226.661 67.6108 222.236 72.0364 222.236 77.4956C222.236 82.9547 226.661 87.3803 232.12 87.3803Z" fill="#404366"/>
<path d="M258.9 123.994C264.359 123.994 268.785 119.569 268.785 114.109C268.785 108.65 264.359 104.225 258.9 104.225C253.441 104.225 249.015 108.65 249.015 114.109C249.015 119.569 253.441 123.994 258.9 123.994Z" fill="white" stroke="#00B4CC" stroke-width="5.27185" stroke-miterlimit="10" stroke-linecap="round" stroke-linejoin="round"/>
<path d="M286.921 161.556C292.38 161.556 296.806 157.13 296.806 151.671C296.806 146.212 292.38 141.786 286.921 141.786C281.462 141.786 277.036 146.212 277.036 151.671C277.036 157.13 281.462 161.556 286.921 161.556Z" fill="#404366"/>
<path d="M308.376 195.453C313.836 195.453 318.261 191.028 318.261 185.569C318.261 180.109 313.836 175.684 308.376 175.684C302.917 175.684 298.492 180.109 298.492 185.569C298.492 191.028 302.917 195.453 308.376 195.453Z" fill="white" stroke="#00B4CC" stroke-width="5.27185" stroke-miterlimit="10" stroke-linecap="round" stroke-linejoin="round"/>
<path d="M333.445 236.046C338.904 236.046 343.33 231.621 343.33 226.161C343.33 220.702 338.904 216.277 333.445 216.277C327.986 216.277 323.56 220.702 323.56 226.161C323.56 231.621 327.986 236.046 333.445 236.046Z" fill="#404366"/>
<path d="M362.73 268.522C368.189 268.522 372.614 264.096 372.614 258.637C372.614 253.178 368.189 248.752 362.73 248.752C357.271 248.752 352.845 253.178 352.845 258.637C352.845 264.096 357.271 268.522 362.73 268.522Z" fill="#404366"/>
<path d="M406.407 297.464C411.866 297.464 416.291 293.038 416.291 287.579C416.291 282.12 411.866 277.695 406.407 277.695C400.948 277.695 396.522 282.12 396.522 287.579C396.522 293.038 400.948 297.464 406.407 297.464Z" fill="white" stroke="#00B4CC" stroke-width="5.27185" stroke-miterlimit="10" stroke-linecap="round" stroke-linejoin="round"/>
<path d="M470.118 324.851C475.577 324.851 480.003 320.425 480.003 314.966C480.003 309.507 475.577 305.081 470.118 305.081C464.659 305.081 460.233 309.507 460.233 314.966C460.233 320.425 464.659 324.851 470.118 324.851Z" fill="#404366"/>
<path d="M507.23 355.586C512.69 355.586 517.115 351.16 517.115 345.701C517.115 340.242 512.69 335.816 507.23 335.816C501.771 335.816 497.346 340.242 497.346 345.701C497.346 351.16 501.771 355.586 507.23 355.586Z" fill="#404366"/>
<path d="M556.76 456.463C562.219 456.463 566.644 452.037 566.644 446.578C566.644 441.119 562.219 436.693 556.76 436.693C551.301 436.693 546.875 441.119 546.875 446.578C546.875 452.037 551.301 456.463 556.76 456.463Z" fill="white" stroke="#00B4CC" stroke-width="5.27185" stroke-miterlimit="10" stroke-linecap="round" stroke-linejoin="round"/>
<path d="M566.513 513.109C571.972 513.109 576.398 508.684 576.398 503.225C576.398 497.765 571.972 493.34 566.513 493.34C561.054 493.34 556.628 497.765 556.628 503.225C556.628 508.684 561.054 513.109 566.513 513.109Z" fill="#404366"/>
</g>
<defs>
<clipPath id="clip0">
<rect width="750.87" height="718" fill="white"/>
</clipPath>
</defs>
</svg>
