<svg width="353" height="231" viewBox="0 0 353 231" fill="none" xmlns="http://www.w3.org/2000/svg">
<g clip-path="url(#clip0)">
<path d="M87.0977 216.779C74.5486 210.273 69.997 200.63 62.051 188.158" stroke="#C8CEDB" stroke-width="9.6481" stroke-miterlimit="10" stroke-linecap="round" stroke-linejoin="round"/>
<path d="M136.472 219.094C124.18 222.36 111.759 224.443 99.853 221.511C99.2873 221.383 98.7216 221.228 98.1558 221.048C93.8614 219.814 90.2355 218.4 87.0983 216.754" stroke="#00B4CC" stroke-width="9.6481" stroke-miterlimit="10" stroke-linecap="round" stroke-linejoin="round"/>
<path d="M136.472 219.094C143.107 217.319 149.716 215.211 156.145 213.333C159.23 212.433 162.291 211.611 165.273 210.89C178.928 207.625 190.089 200.476 202.329 194.896C208.295 192.17 214.518 189.83 221.41 188.467C235.399 185.741 246.225 186.615 257.643 188.493C264.329 189.598 271.195 191.064 279.038 192.35C293.85 194.767 308.97 193.044 324.065 190.858" stroke="#C8CEDB" stroke-width="9.6481" stroke-miterlimit="10" stroke-linecap="round" stroke-linejoin="round"/>
<path d="M35.3834 151.36C41.5551 163.781 49.9382 170.287 58.6814 183.041C59.89 184.79 60.9958 186.513 62.0501 188.159" stroke="#00B4CC" stroke-width="9.6481" stroke-miterlimit="10" stroke-linecap="round" stroke-linejoin="round"/>
<path d="M22.5516 111.347C25.6632 121.736 28.3376 132.279 31.7834 142.591C32.8634 145.857 34.0721 148.737 35.3835 151.334" stroke="#C8CEDB" stroke-width="9.6481" stroke-miterlimit="10" stroke-linecap="round" stroke-linejoin="round"/>
<path d="M13.783 56.3418C11.9315 69.5337 13.0116 83.4457 18.5403 98.9777C20.0061 103.066 21.3176 107.181 22.5519 111.347" stroke="#00B4CC" stroke-width="9.6481" stroke-miterlimit="10" stroke-linecap="round" stroke-linejoin="round"/>
<path d="M33.4825 4.83423C24.0965 22.0892 16.279 38.5469 13.7847 56.3419" stroke="#00B4CC" stroke-width="9.6481" stroke-miterlimit="10" stroke-linecap="round" stroke-linejoin="round"/>
<path d="M328.641 210.016C339.25 210.016 347.851 201.416 347.851 190.807C347.851 180.198 339.25 171.598 328.641 171.598C318.032 171.598 309.432 180.198 309.432 190.807C309.432 201.416 318.032 210.016 328.641 210.016Z" fill="white" stroke="#00B4CC" stroke-width="9.6481" stroke-miterlimit="10" stroke-linecap="round" stroke-linejoin="round"/>
<path d="M12.2152 77.2742C17.541 77.2742 21.8585 72.9568 21.8585 67.631C21.8585 62.3052 17.541 57.9878 12.2152 57.9878C6.88944 57.9878 2.57202 62.3052 2.57202 67.631C2.57202 72.9568 6.88944 77.2742 12.2152 77.2742Z" fill="white" stroke="#00B4CC" stroke-width="5.14305" stroke-miterlimit="10" stroke-linecap="round" stroke-linejoin="round"/>
<path d="M22.4513 120.991C27.7771 120.991 32.0945 116.673 32.0945 111.347C32.0945 106.022 27.7771 101.704 22.4513 101.704C17.1255 101.704 12.8081 106.022 12.8081 111.347C12.8081 116.673 17.1255 120.991 22.4513 120.991Z" fill="white" stroke="#00B4CC" stroke-width="5.14305" stroke-miterlimit="10" stroke-linecap="round" stroke-linejoin="round"/>
<path d="M34.6132 159.049C39.939 159.049 44.2564 154.732 44.2564 149.406C44.2564 144.08 39.939 139.763 34.6132 139.763C29.2874 139.763 24.97 144.08 24.97 149.406C24.97 154.732 29.2874 159.049 34.6132 159.049Z" fill="#404366"/>
<path d="M60.3534 197.365C65.6792 197.365 69.9966 193.047 69.9966 187.721C69.9966 182.396 65.6792 178.078 60.3534 178.078C55.0276 178.078 50.7102 182.396 50.7102 187.721C50.7102 193.047 55.0276 197.365 60.3534 197.365Z" fill="white" stroke="#00B4CC" stroke-width="5.14305" stroke-miterlimit="10" stroke-linecap="round" stroke-linejoin="round"/>
<path d="M86.5579 226.808C91.8837 226.808 96.2011 222.491 96.2011 217.165C96.2011 211.839 91.8837 207.522 86.5579 207.522C81.2321 207.522 76.9147 211.839 76.9147 217.165C76.9147 222.491 81.2321 226.808 86.5579 226.808Z" fill="#404366"/>
<path d="M136.394 228.429C141.72 228.429 146.037 224.111 146.037 218.785C146.037 213.46 141.72 209.142 136.394 209.142C131.068 209.142 126.751 213.46 126.751 218.785C126.751 224.111 131.068 228.429 136.394 228.429Z" fill="white" stroke="#00B4CC" stroke-width="5.14305" stroke-miterlimit="10" stroke-linecap="round" stroke-linejoin="round"/>
<path d="M189.728 211.842C195.054 211.842 199.371 207.525 199.371 202.199C199.371 196.873 195.054 192.556 189.728 192.556C184.402 192.556 180.085 196.873 180.085 202.199C180.085 207.525 184.402 211.842 189.728 211.842Z" fill="#404366"/>
<path d="M247.254 197.081C252.58 197.081 256.897 192.764 256.897 187.438C256.897 182.112 252.58 177.795 247.254 177.795C241.928 177.795 237.611 182.112 237.611 187.438C237.611 192.764 241.928 197.081 247.254 197.081Z" fill="#404366"/>
</g>
<defs>
<clipPath id="clip0">
<rect width="352.659" height="231" fill="white"/>
</clipPath>
</defs>
</svg>
