<svg viewBox="0 0 1200 1000" fill="none" xmlns="http://www.w3.org/2000/svg">
<g id="segment-participation-01-alegeri-corecte-alegatori-informati">
<g id="Group 1168">
<g id="Group 1118">
<path id="Vector" d="M424.155 573.776C438.468 557.638 456.484 547.743 476.326 539.251" stroke="#C8CEDB" stroke-width="9.92585" stroke-miterlimit="10" stroke-linecap="round" stroke-linejoin="round"/>
<path id="Vector_2" d="M424.155 573.775C420.663 577.717 417.382 582.03 414.34 586.792C401.297 607.268 388.466 627.771 373.784 647.004C370.847 650.84 367.831 654.65 364.736 658.38C360.529 663.46 356.773 669.227 353.783 675.338" stroke="#C8CEDB" stroke-width="9.92585" stroke-miterlimit="10" stroke-linecap="round" stroke-linejoin="round"/>
<path id="Vector_3" d="M587.544 507.742C581.01 511.181 573.549 515.494 566.856 517.213C563.152 518.166 559.872 517.293 556.221 517.822C552.358 518.377 550.321 520.414 547.12 521.155C543.152 522.108 538.998 520.943 534.924 521.367C530.083 521.896 528.813 524.198 524.554 525.203C521.247 525.97 517.913 524.859 514.501 525.785C512.86 526.235 512.807 528.166 510.347 528.748C508.601 529.145 506.485 528.034 504.739 528.457C498.151 529.991 490.611 533.351 483.839 536.103C481.299 537.134 478.786 538.166 476.299 539.251" stroke="#C8CEDB" stroke-width="9.92585" stroke-miterlimit="10" stroke-linecap="round" stroke-linejoin="round"/>
<path id="Vector_4" d="M635.773 467.689C625.72 475.388 615.561 485.044 606.884 493.959C602.519 498.457 597.413 502.928 591.804 505.6C590.455 506.261 589.026 506.975 587.545 507.769" stroke="#00B4CC" stroke-width="9.92585" stroke-miterlimit="10" stroke-linecap="round" stroke-linejoin="round"/>
<path id="Vector_5" d="M688.499 408.508C688.023 409.249 687.52 409.989 686.991 410.757C680.377 420.016 674.795 429.937 669.002 439.725C665.748 445.255 662.388 449.726 657.493 454.038C651.726 459.117 644.53 461.26 638.736 465.467C637.758 466.181 636.752 466.922 635.773 467.689" stroke="#C8CEDB" stroke-width="9.92585" stroke-miterlimit="10" stroke-linecap="round" stroke-linejoin="round"/>
<path id="Vector_6" d="M694.769 359.062C694.769 359.962 694.769 360.861 694.769 361.787C694.769 380.253 697.705 393.931 688.525 408.508" stroke="#00B4CC" stroke-width="9.92585" stroke-miterlimit="10" stroke-linecap="round" stroke-linejoin="round"/>
<path id="Vector_7" d="M687.917 288.929C687.203 293.135 686.938 296.31 687.335 298.135C689.663 309.167 694.319 313.744 694.848 326.205C694.981 329.485 695.034 332.792 695.06 336.099C695.087 343.745 694.849 351.47 694.796 359.115" stroke="#C8CEDB" stroke-width="9.92585" stroke-miterlimit="10" stroke-linecap="round" stroke-linejoin="round"/>
<path id="Vector_8" d="M698.34 163C711.886 181.545 701.674 227.975 693.869 261.626C691.33 272.526 689.055 282.103 687.917 288.928" stroke="#00B4CC" stroke-width="9.92585" stroke-miterlimit="10" stroke-linecap="round" stroke-linejoin="round"/>
<path id="Vector_9" d="M354.762 694.466C365.677 694.466 374.525 685.618 374.525 674.704C374.525 663.789 365.677 654.941 354.762 654.941C343.848 654.941 335 663.789 335 674.704C335 685.618 343.848 694.466 354.762 694.466Z" fill="white" stroke="#00B4CC" stroke-width="9.92585" stroke-miterlimit="10" stroke-linecap="round" stroke-linejoin="round"/>
<path id="Vector_10" d="M424.155 582.877C429.634 582.877 434.076 578.435 434.076 572.956C434.076 567.477 429.634 563.035 424.155 563.035C418.676 563.035 414.234 567.477 414.234 572.956C414.234 578.435 418.676 582.877 424.155 582.877Z" fill="#404366"/>
<path id="Vector_11" d="M481.167 547.135C486.646 547.135 491.088 542.693 491.088 537.214C491.088 531.735 486.646 527.293 481.167 527.293C475.688 527.293 471.246 531.735 471.246 537.214C471.246 542.693 475.688 547.135 481.167 547.135Z" fill="#404366"/>
<path id="Vector_12" d="M587.545 517.663C593.024 517.663 597.466 513.222 597.466 507.743C597.466 502.263 593.024 497.822 587.545 497.822C582.066 497.822 577.624 502.263 577.624 507.743C577.624 513.222 582.066 517.663 587.545 517.663Z" fill="white" stroke="#00B4CC" stroke-width="5.29111" stroke-miterlimit="10" stroke-linecap="round" stroke-linejoin="round"/>
<path id="Vector_13" d="M639.9 473.879C645.379 473.879 649.821 469.438 649.821 463.958C649.821 458.479 645.379 454.038 639.9 454.038C634.421 454.038 629.979 458.479 629.979 463.958C629.979 469.438 634.421 473.879 639.9 473.879Z" fill="#404366"/>
<path id="Vector_14" d="M683.949 424.302C689.428 424.302 693.87 419.86 693.87 414.381C693.87 408.902 689.428 404.46 683.949 404.46C678.47 404.46 674.028 408.902 674.028 414.381C674.028 419.86 678.47 424.302 683.949 424.302Z" fill="white" stroke="#00B4CC" stroke-width="5.29111" stroke-miterlimit="10" stroke-linecap="round" stroke-linejoin="round"/>
<path id="Vector_15" d="M694.901 368.428C700.38 368.428 704.822 363.986 704.822 358.507C704.822 353.028 700.38 348.586 694.901 348.586C689.422 348.586 684.98 353.028 684.98 358.507C684.98 363.986 689.422 368.428 694.901 368.428Z" fill="#404366"/>
<path id="Vector_16" d="M688.711 298.85C694.19 298.85 698.632 294.408 698.632 288.929C698.632 283.45 694.19 279.008 688.711 279.008C683.232 279.008 678.79 283.45 678.79 288.929C678.79 294.408 683.232 298.85 688.711 298.85Z" fill="white" stroke="#00B4CC" stroke-width="5.29111" stroke-miterlimit="10" stroke-linecap="round" stroke-linejoin="round"/>
<path id="Vector_17" d="M700.034 241.123C705.513 241.123 709.955 236.682 709.955 231.203C709.955 225.723 705.513 221.282 700.034 221.282C694.555 221.282 690.113 225.723 690.113 231.203C690.113 236.682 694.555 241.123 700.034 241.123Z" fill="white" stroke="#00B4CC" stroke-width="5.29111" stroke-miterlimit="10" stroke-linecap="round" stroke-linejoin="round"/>
</g>
<text id="Alegeri corecte. &#226;&#128;&#168;Aleg&#196;&#131;tori informa&#200;&#155;i" fill="#1E1E1E" xml:space="preserve" style="white-space: pre" font-family="Titillium Web" font-size="40" font-weight="600" letter-spacing="0px"><tspan x="543" y="751.9">Alegeri corecte. &#x2028;</tspan><tspan x="543" y="793.9">Aleg&#x103;tori informa&#x21b;i</tspan></text>
<g id="icon-alegeri-corecte-alegatori-informati 1" clip-path="url(#clip0)">
<path id="Vector_18" d="M426.184 769.487L424.943 767.514C423.474 765.467 422.52 763.097 422.162 760.603C421.804 758.109 422.051 755.566 422.884 753.188L425.873 744.729C426.715 742.327 427.144 739.801 427.142 737.256V723.157C427.276 716.647 429.988 710.457 434.684 705.947C439.379 701.436 445.673 698.975 452.183 699.103C455.412 699.021 458.626 699.575 461.641 700.735C464.656 701.896 467.413 703.638 469.754 705.864C472.095 708.09 473.975 710.756 475.285 713.708C476.596 716.661 477.312 719.843 477.393 723.072V735.311C477.391 739.057 478.363 742.74 480.212 745.998C482.156 749.505 483.129 753.467 483.032 757.475C482.865 761.939 480.939 766.156 477.675 769.205" stroke="#00B4CC" stroke-width="3.82143" stroke-linecap="round" stroke-linejoin="round"/>
<path id="Vector_19" d="M471.53 718.477V734.917C471.53 737.453 471.031 739.965 470.06 742.309C469.089 744.652 467.666 746.781 465.872 748.575C464.079 750.369 461.95 751.792 459.606 752.762C457.262 753.733 454.751 754.233 452.214 754.233C447.088 754.233 442.172 752.199 438.545 748.577C434.918 744.955 432.877 740.042 432.87 734.917V721.325C439.188 720.773 445.445 719.659 451.565 717.997C457.297 716.389 462.635 713.615 467.244 709.848C468.568 710.865 469.642 712.171 470.385 713.667C471.128 715.162 471.519 716.807 471.53 718.477Z" stroke="#00B4CC" stroke-width="3.82143" stroke-linecap="round" stroke-linejoin="round"/>
<path id="Vector_20" d="M470.062 707.196C469.188 708.126 468.286 709.001 467.243 709.846C462.6 713.627 457.222 716.402 451.451 717.996C445.367 719.651 439.149 720.765 432.868 721.323L430.048 721.605" stroke="#00B4CC" stroke-width="3.82143" stroke-linecap="round" stroke-linejoin="round"/>
<path id="Vector_21" d="M409.095 827.348L411.915 792.157C412.331 786.77 414.322 781.625 417.642 777.363C420.962 773.1 425.462 769.909 430.583 768.188C434.418 766.947 437.689 765.847 438.873 765.367C439.602 765.088 440.279 764.688 440.875 764.183C441.775 763.398 442.494 762.426 442.981 761.336C443.468 760.245 443.711 759.061 443.695 757.867V752.227" stroke="#00B4CC" stroke-width="3.82143" stroke-linecap="round" stroke-linejoin="round"/>
<path id="Vector_22" d="M492.817 792.157C492.393 786.757 490.384 781.602 487.044 777.338C483.703 773.074 479.178 769.891 474.037 768.188C470.202 766.947 466.93 765.847 465.718 765.367C465.001 765.082 464.334 764.682 463.744 764.183C462.844 763.398 462.126 762.426 461.638 761.336C461.152 760.245 460.908 759.061 460.924 757.867V752.227" stroke="#00B4CC" stroke-width="3.82143" stroke-linecap="round" stroke-linejoin="round"/>
<path id="Vector_23" d="M443.637 758.407H460.98" stroke="#00B4CC" stroke-width="3.82143" stroke-linecap="round" stroke-linejoin="round"/>
<path id="Vector_24" d="M445.077 733.225C445.949 733.225 446.656 732.051 446.656 730.602C446.656 729.154 445.949 727.98 445.077 727.98C444.205 727.98 443.498 729.154 443.498 730.602C443.498 732.051 444.205 733.225 445.077 733.225Z" fill="#00B4CC"/>
<path id="Vector_25" d="M460.333 733.225C461.205 733.225 461.912 732.051 461.912 730.602C461.912 729.154 461.205 727.98 460.333 727.98C459.461 727.98 458.754 729.154 458.754 730.602C458.754 732.051 459.461 733.225 460.333 733.225Z" fill="#00B4CC"/>
<path id="Vector_26" d="M449.136 742.161C450.265 742.638 451.478 742.884 452.703 742.884C453.928 742.884 455.141 742.638 456.27 742.161" stroke="#00B4CC" stroke-width="3.82143" stroke-linecap="round" stroke-linejoin="round"/>
<path id="Vector_27" d="M442.598 724.172C443.59 723.615 444.682 723.261 445.812 723.128" stroke="#00B4CC" stroke-width="3.82143" stroke-linecap="round" stroke-linejoin="round"/>
<path id="Vector_28" d="M458.784 722.34C460.209 722.263 461.631 722.534 462.929 723.13" stroke="#00B4CC" stroke-width="3.82143" stroke-linecap="round" stroke-linejoin="round"/>
<path id="Vector_29" d="M493.24 773.379H443.667V827.351H493.24V773.379Z" fill="white" stroke="#00B4CC" stroke-width="3.82143" stroke-linecap="round" stroke-linejoin="round"/>
<path id="Vector_30" d="M458.783 790.043H461.603L458.332 804.143H453.143L449.872 790.043H452.889L455.314 801.605H456.245L458.783 790.043Z" fill="#00B4CC"/>
<path id="Vector_31" d="M474.43 802.591C473.871 803.219 473.17 803.705 472.386 804.01C471.601 804.314 470.755 804.426 469.919 804.339C469.082 804.426 468.236 804.314 467.451 804.01C466.667 803.705 465.966 803.219 465.407 802.591C464.41 800.949 463.956 799.035 464.109 797.12C463.936 795.151 464.39 793.176 465.407 791.48C465.951 790.829 466.647 790.321 467.434 790.002C468.221 789.682 469.074 789.561 469.919 789.648C470.763 789.561 471.616 789.682 472.403 790.002C473.19 790.321 473.886 790.829 474.43 791.48C475.459 793.172 475.923 795.148 475.756 797.12C475.9 799.038 475.437 800.952 474.43 802.591ZM467.634 800.786C467.883 801.155 468.226 801.449 468.628 801.638C469.03 801.827 469.476 801.903 469.919 801.857C470.361 801.909 470.81 801.836 471.213 801.646C471.616 801.457 471.959 801.159 472.203 800.786C472.706 799.642 472.937 798.397 472.879 797.148C472.948 795.877 472.736 794.606 472.259 793.426C472.026 793.037 471.689 792.722 471.284 792.517C470.88 792.313 470.426 792.227 469.975 792.27C469.527 792.222 469.075 792.306 468.674 792.511C468.274 792.717 467.942 793.035 467.719 793.426C467.229 794.603 467.016 795.877 467.099 797.148C466.999 798.386 467.182 799.63 467.634 800.786Z" fill="#00B4CC"/>
<path id="Vector_32" d="M478.185 792.581V790.043H488.505V792.581H484.783V804.086H481.963V792.581H478.185Z" fill="#00B4CC"/>
<path id="Vector_33" d="M499.189 817.99L490.729 813.76C490.306 813.551 489.928 813.259 489.618 812.903C489.308 812.547 489.071 812.132 488.922 811.684C488.772 811.236 488.713 810.762 488.748 810.291C488.782 809.82 488.909 809.361 489.122 808.939C489.329 808.516 489.618 808.139 489.971 807.828C490.324 807.518 490.735 807.28 491.18 807.128C491.625 806.976 492.096 806.913 492.565 806.943C493.035 806.973 493.494 807.096 493.916 807.303L502.376 811.533C502.804 811.753 503.183 812.055 503.493 812.424C503.802 812.793 504.034 813.22 504.176 813.679C504.318 814.139 504.366 814.623 504.319 815.101C504.271 815.58 504.128 816.045 503.898 816.467L499.866 826.337" fill="white"/>
<path id="Vector_34" d="M499.189 817.99L490.729 813.76C490.306 813.551 489.928 813.259 489.618 812.903C489.308 812.547 489.071 812.132 488.922 811.684C488.772 811.236 488.713 810.762 488.748 810.291C488.782 809.82 488.909 809.361 489.122 808.939C489.329 808.516 489.618 808.139 489.971 807.828C490.324 807.518 490.735 807.28 491.18 807.128C491.625 806.976 492.096 806.913 492.565 806.943C493.035 806.973 493.494 807.096 493.916 807.303L502.376 811.533C502.804 811.753 503.183 812.055 503.493 812.424C503.802 812.793 504.034 813.22 504.176 813.679C504.318 814.139 504.366 814.623 504.319 815.101C504.271 815.58 504.128 816.045 503.898 816.467L499.866 826.337" stroke="#00B4CC" stroke-width="3.82143" stroke-linecap="round" stroke-linejoin="round"/>
<path id="Vector_35" d="M496.003 824.421L487.543 820.191C487.121 819.984 486.744 819.695 486.434 819.341C486.124 818.988 485.887 818.576 485.738 818.13C485.588 817.684 485.529 817.213 485.563 816.744C485.597 816.274 485.724 815.817 485.936 815.397C486.335 814.546 487.052 813.886 487.933 813.559C488.814 813.232 489.788 813.264 490.645 813.649L499.105 817.878" fill="white"/>
<path id="Vector_36" d="M496.003 824.421L487.543 820.191C487.121 819.984 486.744 819.695 486.434 819.341C486.124 818.988 485.887 818.576 485.738 818.13C485.588 817.684 485.529 817.213 485.563 816.744C485.597 816.274 485.724 815.817 485.936 815.397C486.335 814.546 487.052 813.886 487.933 813.559C488.814 813.232 489.788 813.264 490.645 813.649L499.105 817.878" stroke="#00B4CC" stroke-width="3.82143" stroke-linecap="round" stroke-linejoin="round"/>
<path id="Vector_37" d="M494.228 831.329L484.161 826.648C483.738 826.438 483.36 826.147 483.05 825.79C482.74 825.434 482.503 825.02 482.354 824.571C482.204 824.123 482.145 823.65 482.179 823.179C482.214 822.708 482.341 822.247 482.554 821.826C482.761 821.404 483.05 821.027 483.403 820.716C483.756 820.405 484.167 820.167 484.612 820.015C485.057 819.863 485.528 819.801 485.997 819.831C486.466 819.861 486.926 819.983 487.347 820.191L495.807 824.42" fill="white"/>
<path id="Vector_38" d="M494.228 831.329L484.161 826.648C483.738 826.438 483.36 826.147 483.05 825.79C482.74 825.434 482.503 825.02 482.354 824.571C482.204 824.123 482.145 823.65 482.179 823.179C482.214 822.708 482.341 822.247 482.554 821.826C482.761 821.404 483.05 821.027 483.403 820.716C483.756 820.405 484.167 820.167 484.612 820.015C485.057 819.863 485.528 819.801 485.997 819.831C486.466 819.861 486.926 819.983 487.347 820.191L495.807 824.42" stroke="#00B4CC" stroke-width="3.82143" stroke-linecap="round" stroke-linejoin="round"/>
<path id="Vector_39" d="M494.229 831.327C496.815 832.096 499.59 831.913 502.053 830.812C504.516 829.71 506.502 827.761 507.651 825.32C508.354 823.436 508.661 821.427 508.554 819.419C508.448 817.41 507.929 815.445 507.03 813.646C505.048 809.98 502.716 806.514 500.066 803.297C497.246 799.293 493.241 791.143 493.241 785.898" stroke="#00B4CC" stroke-width="3.82143" stroke-linecap="round" stroke-linejoin="round"/>
<path id="Vector_40" d="M499.979 810.348L501.36 808.882" stroke="#00B4CC" stroke-width="3.82143" stroke-linecap="round" stroke-linejoin="round"/>
<path id="Vector_41" d="M434.757 834.117C443.166 834.117 449.984 827.299 449.984 818.889C449.984 810.48 443.166 803.662 434.757 803.662C426.347 803.662 419.529 810.48 419.529 818.889C419.529 827.299 426.347 834.117 434.757 834.117Z" fill="white" stroke="#00B4CC" stroke-width="3.82143" stroke-linecap="round" stroke-linejoin="round"/>
<path id="Vector_42" d="M426.436 819.458C429.194 821.049 431.525 823.285 433.232 825.972C433.232 825.972 441.692 812.155 450.546 808.066" fill="white"/>
<path id="Vector_43" d="M426.436 819.458C429.194 821.049 431.525 823.285 433.232 825.972C433.232 825.972 441.692 812.155 450.546 808.066" stroke="#00B4CC" stroke-width="3.82143" stroke-linecap="round" stroke-linejoin="round"/>
</g>
<text class="btn-project" text-decoration="underline" cursor="pointer" data-projectid="1" id="Swipe Politics" fill="#1E1E1E" xml:space="preserve" style="white-space: pre" font-family="Titillium Web" font-size="20" font-weight="600" letter-spacing="0px"><tspan x="451" y="617.45">Swipe Politics</tspan></text>
<text class="btn-project" text-decoration="underline" cursor="pointer" data-projectid="1" id="Catalog Politic" fill="#1E1E1E" xml:space="preserve" style="white-space: pre" font-family="Titillium Web" font-size="20" font-weight="600" letter-spacing="0px"><tspan x="344" y="512.45">Catalog Politic&#13;</tspan></text>
<text class="btn-project" text-decoration="underline" cursor="pointer" data-projectid="1" id="Rezultate Vot" fill="#1E1E1E" xml:space="preserve" style="white-space: pre" font-family="Titillium Web" font-size="20" font-weight="600" letter-spacing="0px"><tspan x="607" y="554.45">Rezultate Vot&#13;</tspan></text>
<text class="btn-project" text-decoration="underline" cursor="pointer" data-projectid="1" id="Ochii pe Vot" fill="#1E1E1E" xml:space="preserve" style="white-space: pre" font-family="Titillium Web" font-size="20" font-weight="600" letter-spacing="0px"><tspan x="517" y="446.45">Ochii pe Vot&#13;</tspan></text>
<text class="btn-project" text-decoration="underline" cursor="pointer" data-projectid="1" id="Monitorizare Vot" fill="#1E1E1E" xml:space="preserve" style="white-space: pre" font-family="Titillium Web" font-size="20" font-weight="600" letter-spacing="0px"><tspan x="718" y="436.45">Monitorizare Vot&#13;</tspan></text>
<text class="btn-project" text-decoration="underline" cursor="pointer" data-projectid="1" id="Count Us In" fill="#1E1E1E" xml:space="preserve" style="white-space: pre" font-family="Titillium Web" font-size="20" font-weight="600" letter-spacing="0px"><tspan x="726" y="362.45">Count Us In&#13;</tspan></text>
<text class="btn-project" text-decoration="underline" cursor="pointer" data-projectid="1" id="Vot Diaspora" fill="#1E1E1E" xml:space="preserve" style="white-space: pre" font-family="Titillium Web" font-size="20" font-weight="600" letter-spacing="0px"><tspan x="535" y="290.45">Vot Diaspora&#13;</tspan></text>
<text class="btn-project" text-decoration="underline" cursor="pointer" data-projectid="1" id="Vot Romania" fill="#1E1E1E" xml:space="preserve" style="white-space: pre" font-family="Titillium Web" font-size="20" font-weight="600" letter-spacing="0px"><tspan x="554" y="233.45">Vot Romania&#13;</tspan></text>
</g>
</g>
<defs>
<clipPath id="clip0">
<rect width="107" height="142.667" fill="white" transform="translate(404 694)"/>
</clipPath>
</defs>
</svg>
