<svg width="374" height="385" viewBox="0 0 374 385" fill="none" xmlns="http://www.w3.org/2000/svg">
<g clip-path="url(#clip0)">
<path d="M350.627 21.4237C347.127 20.1987 343.527 19.4238 339.803 19.4488C331.353 19.4988 323.579 23.6985 316.179 27.7732C299.43 35.2227 282.531 43.5472 267.507 47.6469C235.21 56.4463 200.612 49.3218 168.714 55.3714C127.117 63.2709 88.5944 51.4217 51.8718 75.97C46.9472 79.2698 42.9474 83.8195 38.1228 87.2443C31.8732 91.694 26.7735 97.0686 22.1738 103.168C17.7241 109.143 14.9993 114.317 13.3994 121.317C11.6495 128.991 8.47474 136.316 8.27475 144.365C8.24975 145.49 8.49974 147.015 8.34975 148.165C8.12476 149.865 7.32482 150.715 6.99984 152.19C6.24989 155.765 6.67486 159.514 6.62486 163.189C6.57487 166.839 5.29995 169.239 4.87498 172.839C4.22502 178.238 5.27495 182.888 7.04983 187.888C8.27475 191.337 8.84971 195.537 10.2746 198.837C11.2746 201.162 13.3744 202.462 14.6493 204.636C31.0982 232.285 49.022 266.532 69.9956 291.031C82.6198 305.78 100.044 309.604 115.868 319.979C133.341 331.453 148.79 350.877 151.915 371.95C152.565 376.3 152.615 380.35 152.315 384.199" stroke="#F90000" stroke-width="9.37912" stroke-miterlimit="10" stroke-linejoin="round" stroke-dasharray="11.72 11.72"/>
<path d="M350.627 42.0472C360.94 42.0472 369.301 33.6867 369.301 23.3735C369.301 13.0602 360.94 4.69971 350.627 4.69971C340.314 4.69971 331.953 13.0602 331.953 23.3735C331.953 33.6867 340.314 42.0472 350.627 42.0472Z" fill="white" stroke="#F90000" stroke-width="9.37912" stroke-miterlimit="10" stroke-linecap="round" stroke-linejoin="round"/>
</g>
<defs>
<clipPath id="clip0">
<rect width="374" height="384.524" fill="white"/>
</clipPath>
</defs>
</svg>
