<svg viewBox="0 0 1200 1000" fill="none" xmlns="http://www.w3.org/2000/svg">
<g id="segment-participation-04-societate-civila-puternica">
<g id="Group 1200">
<text class="btn-project" text-decoration="underline" cursor="pointer" data-projectid="1" id="Registrul Na&#200;&#155;ional ONG" fill="#1E1E1E" xml:space="preserve" style="white-space: pre" font-family="Titillium Web" font-size="20" font-weight="600" letter-spacing="0px"><tspan x="118" y="95.45">Registrul Na&#x21b;ional ONG</tspan></text>
<text class="btn-project" text-decoration="underline" cursor="pointer" data-projectid="1" id="ONG Hub" fill="#1E1E1E" xml:space="preserve" style="white-space: pre" font-family="Titillium Web" font-size="20" font-weight="600" letter-spacing="0px"><tspan x="367" y="95.45">ONG Hub</tspan></text>
<text class="btn-project" text-decoration="underline" cursor="pointer" data-projectid="1" id="Website Factory: ONG" fill="#1E1E1E" xml:space="preserve" style="white-space: pre" font-family="Titillium Web" font-size="20" font-weight="600" letter-spacing="0px"><tspan x="224" y="190.45">Website Factory: ONG</tspan></text>
<text class="btn-project" text-decoration="underline" cursor="pointer" data-projectid="1" id="Redirectioneaz&#196;&#131;" fill="#1E1E1E" xml:space="preserve" style="white-space: pre" font-family="Titillium Web" font-size="20" font-weight="600" letter-spacing="0px"><tspan x="637" y="268.45">Redirectioneaz&#x103;</tspan></text>
<text class="btn-project" text-decoration="underline" cursor="pointer" data-projectid="1" id="Practice4Good" fill="#1E1E1E" xml:space="preserve" style="white-space: pre" font-family="Titillium Web" font-size="20" font-weight="600" letter-spacing="0px"><tspan x="717" y="355.45">Practice4Good</tspan></text>
<text class="btn-project" text-decoration="underline" cursor="pointer" data-projectid="1" id="Paul" fill="#1E1E1E" xml:space="preserve" style="white-space: pre" font-family="Titillium Web" font-size="20" font-weight="600" letter-spacing="0px"><tspan x="481" y="113.45">Paul</tspan></text>
<text class="btn-project" text-decoration="underline" cursor="pointer" data-projectid="1" id="Alex (BugetONG)" fill="#1E1E1E" xml:space="preserve" style="white-space: pre" font-family="Titillium Web" font-size="20" font-weight="600" letter-spacing="0px"><tspan x="545" y="146.45">Alex (BugetONG)</tspan></text>
<text class="btn-project" text-decoration="underline" cursor="pointer" data-projectid="1" id="Teo (Voluntari Management)" fill="#1E1E1E" xml:space="preserve" style="white-space: pre" font-family="Titillium Web" font-size="20" font-weight="600" letter-spacing="0px"><tspan x="585" y="193.45">Teo (Voluntari Management)</tspan></text>
<text class="btn-project" text-decoration="underline" cursor="pointer" data-projectid="1" id="Funding Call" fill="#1E1E1E" xml:space="preserve" style="white-space: pre" font-family="Titillium Web" font-size="20" font-weight="600" letter-spacing="0px"><tspan x="727" y="663.45">Funding Call</tspan></text>
<text class="btn-project" text-decoration="underline" cursor="pointer" data-projectid="1" id="Societatea Civil&#196;&#131; 30+" fill="#1E1E1E" xml:space="preserve" style="white-space: pre" font-family="Titillium Web" font-size="20" font-weight="600" letter-spacing="0px"><tspan x="637" y="519.45">Societatea&#13;Civil&#x103; 30+</tspan></text>
<text class="btn-project" text-decoration="underline" cursor="pointer" data-projectid="1" id="VotONG" fill="#1E1E1E" xml:space="preserve" style="white-space: pre" font-family="Titillium Web" font-size="20" font-weight="600" letter-spacing="0px"><tspan x="671" y="321.45">VotONG</tspan></text>
<text class="btn-project" text-decoration="underline" cursor="pointer" data-projectid="1" id="Centru Civic" fill="#1E1E1E" xml:space="preserve" style="white-space: pre" font-family="Titillium Web" font-size="20" font-weight="600" letter-spacing="0px"><tspan x="653" y="431.45">Centru Civic&#13;</tspan></text>
<text class="btn-project" text-decoration="underline" cursor="pointer" data-projectid="1" id="DateONG" fill="#1E1E1E" xml:space="preserve" style="white-space: pre" font-family="Titillium Web" font-size="20" font-weight="600" letter-spacing="0px"><tspan x="891" y="554.45">DateONG</tspan></text>
<text class="btn-project" text-decoration="underline" cursor="pointer" data-projectid="1" id="How to NGO" fill="#1E1E1E" xml:space="preserve" style="white-space: pre" font-family="Titillium Web" font-size="20" font-weight="600" letter-spacing="0px"><tspan x="462" y="263.45">How to NGO</tspan></text>
<text class="btn-project" text-decoration="underline" cursor="pointer" data-projectid="1" id="Finantari publice" fill="#1E1E1E" xml:space="preserve" style="white-space: pre" font-family="Titillium Web" font-size="20" font-weight="600" letter-spacing="0px"><tspan x="891" y="714.45">Finantari publice </tspan></text>
<text class="btn-project" text-decoration="underline" cursor="pointer" data-projectid="1" id="Platforma donatorilor" fill="#1E1E1E" xml:space="preserve" style="white-space: pre" font-family="Titillium Web" font-size="20" font-weight="600" letter-spacing="0px"><tspan x="896" y="610.45">Platforma&#13;donatorilor</tspan></text>
<g id="icon-o-societate-civila-puternica 1">
<path id="Vector" d="M794.313 795.011H757.963V819.126H794.313V795.011Z" fill="white" stroke="#00B4CC" stroke-width="2.025" stroke-miterlimit="10"/>
<path id="Vector_2" d="M757.963 801.715H794.327" stroke="#00B4CC" stroke-width="2.025" stroke-miterlimit="10"/>
<path id="Vector_3" d="M770.484 813.979C770.143 814.357 769.717 814.65 769.242 814.833C768.766 815.016 768.254 815.084 767.747 815.033C767.24 815.084 766.728 815.016 766.253 814.833C765.777 814.65 765.351 814.357 765.01 813.979C764.409 812.984 764.131 811.826 764.216 810.667C764.136 809.494 764.413 808.325 765.01 807.314C765.344 806.924 765.768 806.621 766.244 806.431C766.721 806.24 767.236 806.167 767.747 806.219C768.258 806.167 768.773 806.24 769.25 806.431C769.726 806.621 770.15 806.924 770.484 807.314C771.087 808.323 771.365 809.494 771.278 810.667C771.372 811.827 771.094 812.987 770.484 813.979ZM766.379 812.87C766.524 813.095 766.729 813.276 766.97 813.392C767.212 813.508 767.481 813.555 767.747 813.527C768.014 813.555 768.283 813.508 768.524 813.392C768.766 813.276 768.971 813.095 769.116 812.87C769.412 812.175 769.539 811.42 769.485 810.667C769.533 809.9 769.407 809.133 769.116 808.422C768.955 808.212 768.748 808.042 768.51 807.925C768.273 807.808 768.012 807.747 767.747 807.747C767.483 807.747 767.221 807.808 766.984 807.925C766.747 808.042 766.54 808.212 766.379 808.422C766.087 809.133 765.961 809.9 766.009 810.667C765.951 811.419 766.073 812.174 766.365 812.87H766.379Z" fill="#00B4CC"/>
<path id="Vector_4" d="M773.07 814.882V806.315H775.986L778.038 813.322H778.162V806.315H779.886V814.828H777.039L774.891 807.875H774.767V814.882H773.07Z" fill="#00B4CC"/>
<path id="Vector_5" d="M785.593 811.789V810.284H788.07V814.705C787.111 814.874 786.141 814.97 785.168 814.992C784.659 815.054 784.143 814.989 783.666 814.802C783.188 814.616 782.764 814.314 782.431 813.925C781.881 812.902 781.638 811.742 781.733 810.585C781.634 809.419 781.902 808.252 782.5 807.246C782.827 806.877 783.237 806.592 783.696 806.414C784.156 806.235 784.651 806.169 785.141 806.219C785.987 806.229 786.831 806.32 787.659 806.493L788.111 806.575V807.944C787.298 807.846 786.48 807.791 785.661 807.779C785.194 807.742 784.725 807.817 784.292 807.998C784.006 808.195 783.806 808.494 783.731 808.833C783.577 809.515 783.512 810.215 783.54 810.914C783.484 811.618 783.611 812.325 783.909 812.966C784.087 813.187 784.32 813.357 784.584 813.461C784.848 813.564 785.134 813.596 785.415 813.555H786.441V811.789H785.593Z" fill="#00B4CC"/>
<path id="Vector_6" d="M833.112 795.011H796.762V819.126H833.112V795.011Z" fill="white" stroke="#00B4CC" stroke-width="2.025" stroke-miterlimit="10"/>
<path id="Vector_7" d="M796.762 801.715H833.112" stroke="#00B4CC" stroke-width="2.025" stroke-miterlimit="10"/>
<path id="Vector_8" d="M809.283 813.98C808.531 814.653 807.556 815.025 806.546 815.025C805.536 815.025 804.562 814.653 803.809 813.98C803.199 812.988 802.921 811.828 803.015 810.668C802.929 809.495 803.206 808.324 803.809 807.314C804.547 806.612 805.527 806.22 806.546 806.22C807.565 806.22 808.545 806.612 809.283 807.314C809.881 808.326 810.157 809.495 810.077 810.668C810.162 811.827 809.885 812.985 809.283 813.98ZM805.178 812.871C805.345 813.072 805.554 813.234 805.79 813.345C806.027 813.456 806.285 813.513 806.546 813.513C806.807 813.513 807.066 813.456 807.302 813.345C807.539 813.234 807.748 813.072 807.915 812.871C808.211 812.176 808.338 811.421 808.284 810.668C808.332 809.901 808.206 809.134 807.915 808.423C807.754 808.213 807.547 808.043 807.309 807.926C807.072 807.809 806.811 807.748 806.546 807.748C806.282 807.748 806.02 807.809 805.783 807.926C805.546 808.043 805.339 808.213 805.178 808.423C804.886 809.134 804.76 809.901 804.808 810.668C804.75 811.42 804.872 812.175 805.164 812.871H805.178Z" fill="#00B4CC"/>
<path id="Vector_9" d="M811.845 814.882V806.315H814.76L816.799 813.322H816.936V806.315H818.688V814.828H815.841L813.72 807.82H813.597V814.828L811.845 814.882Z" fill="#00B4CC"/>
<path id="Vector_10" d="M824.395 811.789V810.284H826.9V814.704C825.942 814.874 824.972 814.97 823.999 814.992C823.49 815.053 822.973 814.988 822.496 814.802C822.018 814.616 821.594 814.314 821.261 813.924C820.683 812.896 820.421 811.72 820.509 810.544C820.414 809.376 820.687 808.209 821.289 807.204C821.616 806.836 822.026 806.551 822.486 806.372C822.945 806.194 823.44 806.127 823.93 806.178C824.776 806.187 825.62 806.279 826.448 806.451L826.9 806.534V807.902C826.082 807.804 825.26 807.749 824.436 807.738C823.969 807.699 823.5 807.774 823.068 807.957C822.782 808.154 822.581 808.452 822.507 808.792C822.352 809.474 822.288 810.173 822.315 810.872C822.26 811.577 822.387 812.284 822.685 812.925C822.917 813.322 823.424 813.513 824.19 813.513H825.217V811.789H824.395Z" fill="#00B4CC"/>
<path id="Vector_11" d="M747.355 796.405H752.652" stroke="#00B4CC" stroke-width="2.025" stroke-linecap="round" stroke-linejoin="round"/>
<path id="Vector_12" d="M751.981 798.131H754.637" stroke="#00B4CC" stroke-width="2.025" stroke-linecap="round" stroke-linejoin="round"/>
<path id="Vector_13" d="M742.592 798.131H747.888" stroke="#00B4CC" stroke-width="2.025" stroke-linecap="round" stroke-linejoin="round"/>
<path id="Vector_14" d="M766.981 796.405H772.278" stroke="#00B4CC" stroke-width="2.025" stroke-linecap="round" stroke-linejoin="round"/>
<path id="Vector_15" d="M786.305 796.405H791.601" stroke="#00B4CC" stroke-width="2.025" stroke-linecap="round" stroke-linejoin="round"/>
<path id="Vector_16" d="M764.859 798.131H767.501" stroke="#00B4CC" stroke-width="2.025" stroke-linecap="round" stroke-linejoin="round"/>
<path id="Vector_17" d="M790.932 798.131H793.587" stroke="#00B4CC" stroke-width="2.025" stroke-linecap="round" stroke-linejoin="round"/>
<path id="Vector_18" d="M781.542 798.131H786.839" stroke="#00B4CC" stroke-width="2.025" stroke-linecap="round" stroke-linejoin="round"/>
<path id="Vector_19" d="M774.85 774.015H738.5V798.13H774.85V774.015Z" fill="white" stroke="#00B4CC" stroke-width="2.025" stroke-miterlimit="10"/>
<path id="Vector_20" d="M738.5 780.722H774.85" stroke="#00B4CC" stroke-width="2.025" stroke-miterlimit="10"/>
<path id="Vector_21" d="M751.009 792.985C750.668 793.365 750.242 793.658 749.767 793.841C749.291 794.024 748.779 794.092 748.271 794.039C747.765 794.091 747.252 794.023 746.777 793.839C746.301 793.656 745.876 793.364 745.534 792.985C744.947 791.986 744.684 790.829 744.782 789.673C744.701 788.501 744.978 787.332 745.575 786.32C745.91 785.931 746.333 785.628 746.81 785.438C747.286 785.247 747.802 785.174 748.313 785.225C748.823 785.173 749.339 785.245 749.816 785.436C750.293 785.627 750.716 785.93 751.05 786.32C751.653 787.33 751.93 788.501 751.844 789.673C751.926 790.838 751.633 791.999 751.009 792.985ZM746.903 791.877C747.048 792.102 747.253 792.283 747.494 792.399C747.736 792.515 748.005 792.561 748.271 792.534C748.538 792.561 748.807 792.515 749.049 792.399C749.29 792.283 749.495 792.102 749.64 791.877C749.936 791.182 750.063 790.427 750.01 789.673C750.058 788.907 749.931 788.14 749.64 787.429C749.501 787.195 749.299 787.005 749.057 786.882C748.815 786.758 748.542 786.706 748.271 786.731C748.001 786.706 747.728 786.758 747.486 786.882C747.244 787.005 747.042 787.195 746.903 787.429C746.612 788.14 746.485 788.907 746.533 789.673C746.476 790.426 746.598 791.181 746.889 791.877H746.903Z" fill="#00B4CC"/>
<path id="Vector_22" d="M753.596 793.888V785.375H756.511L758.564 792.382H758.687V785.375H760.411V793.888H757.565L755.443 786.88H755.32V793.888H753.596Z" fill="#00B4CC"/>
<path id="Vector_23" d="M766.12 790.837V789.331H768.597V793.752C767.639 793.921 766.669 794.017 765.696 794.039C765.187 794.101 764.67 794.036 764.193 793.849C763.715 793.663 763.291 793.362 762.958 792.972C762.387 791.941 762.13 790.766 762.219 789.591C762.12 788.425 762.388 787.258 762.986 786.252C763.313 785.883 763.723 785.598 764.183 785.42C764.642 785.241 765.137 785.175 765.627 785.225C766.473 785.237 767.315 785.324 768.145 785.485L768.597 785.581V786.95C767.784 786.852 766.966 786.797 766.147 786.786C765.68 786.748 765.211 786.823 764.779 787.005C764.634 787.099 764.51 787.221 764.413 787.365C764.317 787.508 764.25 787.67 764.218 787.839C764.038 788.509 763.946 789.199 763.944 789.892C763.888 790.597 764.015 791.304 764.313 791.945C764.491 792.166 764.724 792.336 764.988 792.439C765.252 792.543 765.538 792.575 765.819 792.534H766.845V790.837H766.12Z" fill="#00B4CC"/>
<path id="Vector_24" d="M806.057 796.405H811.353" stroke="#00B4CC" stroke-width="2.025" stroke-linecap="round" stroke-linejoin="round"/>
<path id="Vector_25" d="M813.786 774.015H777.436V798.13H813.786V774.015Z" fill="white" stroke="#00B4CC" stroke-width="2.025" stroke-miterlimit="10"/>
<path id="Vector_26" d="M777.436 780.722H813.8" stroke="#00B4CC" stroke-width="2.025" stroke-miterlimit="10"/>
<path id="Vector_27" d="M789.947 792.985C789.602 793.356 789.174 793.641 788.699 793.816C788.224 793.992 787.714 794.054 787.21 793.998C786.703 794.049 786.191 793.981 785.716 793.798C785.24 793.615 784.814 793.322 784.473 792.944C783.872 791.949 783.594 790.791 783.679 789.632C783.607 788.473 783.884 787.32 784.473 786.32C784.807 785.93 785.231 785.628 785.707 785.437C786.184 785.246 786.699 785.174 787.21 785.225C787.721 785.174 788.236 785.246 788.713 785.437C789.189 785.628 789.613 785.93 789.947 786.32C790.545 787.332 790.821 788.501 790.741 789.673C790.826 790.832 790.549 791.99 789.947 792.985ZM785.841 791.876C786.008 792.077 786.218 792.239 786.454 792.35C786.691 792.461 786.949 792.519 787.21 792.519C787.471 792.519 787.729 792.461 787.966 792.35C788.203 792.239 788.412 792.077 788.579 791.876C788.875 791.181 789.002 790.426 788.948 789.673C788.996 788.906 788.87 788.139 788.579 787.428C788.418 787.218 788.211 787.048 787.973 786.931C787.736 786.814 787.475 786.753 787.21 786.753C786.945 786.753 786.684 786.814 786.447 786.931C786.21 787.048 786.003 787.218 785.841 787.428C785.55 788.139 785.424 788.906 785.472 789.673C785.419 790.426 785.545 791.181 785.841 791.876Z" fill="#00B4CC"/>
<path id="Vector_28" d="M792.548 793.888V785.375H795.422L797.475 792.382H797.598V785.375H799.322V793.888H796.517L794.395 786.88H794.272V793.888H792.548Z" fill="#00B4CC"/>
<path id="Vector_29" d="M805.069 790.837V789.331H807.546V793.752C806.588 793.921 805.618 794.017 804.645 794.039C804.136 794.101 803.62 794.036 803.142 793.849C802.665 793.663 802.24 793.362 801.908 792.972C801.337 791.941 801.08 790.766 801.169 789.591C801.07 788.425 801.338 787.258 801.935 786.252C802.262 785.883 802.673 785.598 803.132 785.42C803.591 785.241 804.086 785.175 804.576 785.225C805.422 785.237 806.265 785.324 807.095 785.485L807.546 785.581V786.95C806.729 786.852 805.906 786.797 805.083 786.786C804.616 786.747 804.146 786.822 803.714 787.005C803.569 787.099 803.445 787.221 803.349 787.365C803.252 787.508 803.186 787.67 803.153 787.839C802.992 788.511 802.918 789.201 802.934 789.892C802.879 790.597 803.006 791.304 803.304 791.945C803.482 792.166 803.714 792.336 803.978 792.439C804.242 792.543 804.529 792.575 804.809 792.534H805.836V790.837H805.069Z" fill="#00B4CC"/>
<path id="Vector_30" d="M794.313 753.5H757.963V777.615H794.313V753.5Z" fill="white" stroke="#00B4CC" stroke-width="2.025" stroke-miterlimit="10"/>
<path id="Vector_31" d="M757.963 760.207H794.327" stroke="#00B4CC" stroke-width="2.025" stroke-miterlimit="10"/>
<path id="Vector_32" d="M770.484 772.47C770.143 772.848 769.717 773.141 769.242 773.324C768.766 773.507 768.254 773.575 767.747 773.524C767.24 773.575 766.728 773.507 766.253 773.324C765.777 773.141 765.351 772.848 765.01 772.47C764.409 771.475 764.131 770.317 764.216 769.158C764.136 767.986 764.413 766.817 765.01 765.805C765.344 765.415 765.768 765.113 766.244 764.922C766.721 764.731 767.236 764.659 767.747 764.71C768.258 764.659 768.773 764.731 769.25 764.922C769.726 765.113 770.15 765.415 770.484 765.805C771.087 766.814 771.365 767.985 771.278 769.158C771.372 770.318 771.094 771.478 770.484 772.47ZM766.379 771.361C766.524 771.586 766.729 771.767 766.97 771.883C767.212 771.999 767.481 772.046 767.747 772.018C768.014 772.046 768.283 771.999 768.524 771.883C768.766 771.767 768.971 771.586 769.116 771.361C769.412 770.666 769.539 769.911 769.485 769.158C769.533 768.391 769.407 767.624 769.116 766.913C768.955 766.703 768.748 766.533 768.51 766.416C768.273 766.299 768.012 766.238 767.747 766.238C767.483 766.238 767.221 766.299 766.984 766.416C766.747 766.533 766.54 766.703 766.379 766.913C766.087 767.624 765.961 768.391 766.009 769.158C765.951 769.91 766.073 770.665 766.365 771.361H766.379Z" fill="#00B4CC"/>
<path id="Vector_33" d="M773.07 773.373V764.86H775.986L778.038 771.867H778.162V764.86H779.886V773.373H777.039L774.891 766.365H774.767V773.373H773.07Z" fill="#00B4CC"/>
<path id="Vector_34" d="M785.595 770.319V768.814H788.072V773.234C787.114 773.404 786.144 773.5 785.171 773.522C784.662 773.583 784.145 773.518 783.668 773.332C783.19 773.146 782.766 772.844 782.433 772.454C781.877 771.419 781.634 770.244 781.735 769.074C781.636 767.908 781.904 766.74 782.502 765.734C782.829 765.366 783.239 765.081 783.699 764.902C784.158 764.724 784.653 764.657 785.143 764.708C785.989 764.719 786.831 764.806 787.661 764.968L788.113 765.064V766.432C787.3 766.335 786.482 766.28 785.663 766.268C785.196 766.231 784.727 766.306 784.295 766.487C784.15 766.581 784.025 766.704 783.929 766.847C783.833 766.991 783.766 767.152 783.733 767.322C783.555 767.987 783.463 768.672 783.46 769.361C783.404 770.066 783.531 770.773 783.829 771.414C784.007 771.635 784.24 771.805 784.504 771.908C784.768 772.011 785.054 772.044 785.335 772.003H786.361V770.319H785.595Z" fill="#00B4CC"/>
</g>
<text id="O societate civil&#196;&#131; puternic&#196;&#131;" fill="#1E1E1E" xml:space="preserve" style="white-space: pre" font-family="Titillium Web" font-size="40" font-weight="600" letter-spacing="0px"><tspan x="548.227" y="871.9">O societate civil&#x103; </tspan><tspan x="674.203" y="913.9">puternic&#x103;</tspan></text>
<g id="Group 1199">
<path id="Vector_35" d="M865.848 557.127C864.464 551.462 862.794 545.824 860.836 540.238C850.368 510.323 832.54 481.531 818.078 451.355C815.651 446.291 813.171 441.436 810.561 436.946C806.097 429.298 801.242 422.746 795.499 418.1C789.13 412.931 782.003 409.303 774.225 406.066C763.496 401.602 751.541 397.974 738.802 392.257C737.053 391.474 735.304 390.691 733.529 389.856C725.724 386.227 718.415 382.729 711.524 379.153C698.185 372.262 686.386 365.162 675.423 356.73C672.865 354.772 670.359 352.71 667.905 350.596C663.337 346.654 658.899 342.425 654.54 337.779" stroke="#C8CEDB" stroke-width="9.79377" stroke-miterlimit="10" stroke-linecap="round" stroke-linejoin="round"/>
<path id="Vector_36" d="M868.851 601.581C869.033 600.119 869.164 598.683 869.294 597.222C869.425 595.629 869.529 594.063 869.581 592.471C870.077 580.359 868.616 568.612 865.849 557.101" stroke="#00B4CC" stroke-width="9.79377" stroke-miterlimit="10" stroke-linecap="round" stroke-linejoin="round"/>
<path id="Vector_37" d="M896.154 779.398C891.743 769.818 887.592 760.394 883.703 751.258C878.038 737.971 873.209 726.773 869.32 716.645C860.784 694.352 856.816 677.255 858.748 654.858C859.035 651.621 859.427 648.254 859.975 644.756C861.202 636.611 863.133 627.684 865.796 617.582C867.232 612.179 868.224 606.853 868.85 601.607" stroke="#C8CEDB" stroke-width="9.79377" stroke-miterlimit="10" stroke-linecap="round" stroke-linejoin="round"/>
<path id="Vector_38" d="M613.897 279.881C621.729 293.246 629.638 306.533 638.905 319.036C640.34 320.968 641.802 322.9 643.316 324.779C647.023 329.452 650.756 333.759 654.541 337.779" stroke="#00B4CC" stroke-width="9.79377" stroke-miterlimit="10" stroke-linecap="round" stroke-linejoin="round"/>
<path id="Vector_39" d="M592.806 245.634C594.346 247.878 595.86 250.149 597.322 252.447C602.386 260.356 607.163 268.422 611.887 276.488C612.54 277.61 613.219 278.733 613.871 279.855" stroke="#00B4CC" stroke-width="9.79377" stroke-miterlimit="10" stroke-linecap="round" stroke-linejoin="round"/>
<path id="Vector_40" d="M592.806 245.634C590.274 241.901 587.637 238.22 585.001 234.566C581.686 229.998 578.344 225.456 575.003 220.914C571.74 216.476 568.529 212.013 565.397 207.471C563.491 204.704 561.612 201.911 559.785 199.065C558.949 197.76 558.062 196.455 557.174 195.176C551.51 187.162 544.775 179.67 538.197 172.231C537.44 171.369 536.683 170.534 535.952 169.673C531.123 164.165 527.182 160.589 522.483 157.848C518.802 155.707 514.678 154.115 509.301 152.497C498.128 149.155 489.645 141.011 477.48 138.14" stroke="#C8CEDB" stroke-width="9.79377" stroke-miterlimit="10" stroke-linecap="round" stroke-linejoin="round"/>
<path id="Vector_41" d="M424.646 141.533C440.805 142.029 455.684 135.607 471.502 137.174C473.486 137.356 475.47 137.696 477.506 138.165" stroke="#00B4CC" stroke-width="9.79377" stroke-miterlimit="10" stroke-linecap="round" stroke-linejoin="round"/>
<path id="Vector_42" d="M374.266 120.963C382.593 122.921 389.38 126.915 396.01 130.883C404.677 136.051 413.134 141.167 424.62 141.533" stroke="#00B4CC" stroke-width="9.79377" stroke-miterlimit="10" stroke-linecap="round" stroke-linejoin="round"/>
<path id="Vector_43" d="M313.576 123.156C334.171 120.18 351.661 115.742 371.238 120.31" stroke="#C8CEDB" stroke-width="9.79377" stroke-miterlimit="10" stroke-linecap="round" stroke-linejoin="round"/>
<path id="Vector_44" d="M246.15 120.754C252.937 121.877 259.907 123.365 267.868 124.67C282.904 127.124 298.253 125.375 313.576 123.156" stroke="#C8CEDB" stroke-width="9.79377" stroke-miterlimit="10" stroke-linecap="round" stroke-linejoin="round"/>
<path id="Vector_45" d="M895.501 800.307C906.27 800.307 915.001 791.577 915.001 780.808C915.001 770.039 906.27 761.308 895.501 761.308C884.732 761.308 876.002 770.039 876.002 780.808C876.002 791.577 884.732 800.307 895.501 800.307Z" fill="white" stroke="#00B4CC" stroke-width="9.79377" stroke-miterlimit="10" stroke-linecap="round" stroke-linejoin="round"/>
<path id="Vector_46" d="M315.952 132.579C321.358 132.579 325.741 128.196 325.741 122.79C325.741 117.384 321.358 113.001 315.952 113.001C310.546 113.001 306.163 117.384 306.163 122.79C306.163 128.196 310.546 132.579 315.952 132.579Z" fill="#404366"/>
<path id="Vector_47" d="M367.245 129.578C372.651 129.578 377.034 125.195 377.034 119.789C377.034 114.383 372.651 110 367.245 110C361.839 110 357.456 114.383 357.456 119.789C357.456 125.195 361.839 129.578 367.245 129.578Z" fill="#404366"/>
<path id="Vector_48" d="M420.496 153.306C425.902 153.306 430.285 148.923 430.285 143.517C430.285 138.111 425.902 133.728 420.496 133.728C415.09 133.728 410.707 138.111 410.707 143.517C410.707 148.923 415.09 153.306 420.496 153.306Z" fill="white" stroke="#00B4CC" stroke-width="5.2207" stroke-miterlimit="10" stroke-linecap="round" stroke-linejoin="round"/>
<path id="Vector_49" d="M481.423 149.311C486.829 149.311 491.211 144.929 491.211 139.522C491.211 134.116 486.829 129.734 481.423 129.734C476.016 129.734 471.634 134.116 471.634 139.522C471.634 144.929 476.016 149.311 481.423 149.311Z" fill="white" stroke="#00B4CC" stroke-width="5.2207" stroke-miterlimit="10" stroke-linecap="round" stroke-linejoin="round"/>
<path id="Vector_50" d="M561.586 210.499C566.992 210.499 571.374 206.116 571.374 200.71C571.374 195.303 566.992 190.921 561.586 190.921C556.179 190.921 551.797 195.303 551.797 200.71C551.797 206.116 556.179 210.499 561.586 210.499Z" fill="#404366"/>
<path id="Vector_51" d="M589.229 251.194C594.635 251.194 599.018 246.811 599.018 241.405C599.018 235.999 594.635 231.616 589.229 231.616C583.823 231.616 579.44 235.999 579.44 241.405C579.44 246.811 583.823 251.194 589.229 251.194Z" fill="#404366"/>
<path id="Vector_52" d="M524.493 168.889C529.899 168.889 534.282 164.507 534.282 159.1C534.282 153.694 529.899 149.312 524.493 149.312C519.087 149.312 514.704 153.694 514.704 159.1C514.704 164.507 519.087 168.889 524.493 168.889Z" fill="#404366"/>
<path id="Vector_53" d="M620.057 301.468C625.464 301.468 629.846 297.086 629.846 291.68C629.846 286.273 625.464 281.891 620.057 281.891C614.651 281.891 610.269 286.273 610.269 291.68C610.269 297.086 614.651 301.468 620.057 301.468Z" fill="white" stroke="#00B4CC" stroke-width="5.2207" stroke-miterlimit="10" stroke-linecap="round" stroke-linejoin="round"/>
<path id="Vector_54" d="M654.566 346.08C659.972 346.08 664.355 341.697 664.355 336.291C664.355 330.885 659.972 326.502 654.566 326.502C649.16 326.502 644.777 330.885 644.777 336.291C644.777 341.697 649.16 346.08 654.566 346.08Z" fill="white" stroke="#00B4CC" stroke-width="5.2207" stroke-miterlimit="10" stroke-linecap="round" stroke-linejoin="round"/>
<path id="Vector_55" d="M696.358 379.179C701.764 379.179 706.147 374.796 706.147 369.39C706.147 363.984 701.764 359.601 696.358 359.601C690.952 359.601 686.569 363.984 686.569 369.39C686.569 374.796 690.952 379.179 696.358 379.179Z" fill="#404366"/>
<path id="Vector_56" d="M759.502 409.172C764.908 409.172 769.291 404.789 769.291 399.383C769.291 393.977 764.908 389.594 759.502 389.594C754.095 389.594 749.713 393.977 749.713 399.383C749.713 404.789 754.095 409.172 759.502 409.172Z" fill="#404366"/>
<path id="Vector_57" d="M846.635 518.963C852.042 518.963 856.424 514.581 856.424 509.175C856.424 503.768 852.042 499.386 846.635 499.386C841.229 499.386 836.847 503.768 836.847 509.175C836.847 514.581 841.229 518.963 846.635 518.963Z" fill="#404366"/>
<path id="Vector_58" d="M866.213 565.871C871.619 565.871 876.001 561.488 876.001 556.082C876.001 550.676 871.619 546.293 866.213 546.293C860.806 546.293 856.424 550.676 856.424 556.082C856.424 561.488 860.806 565.871 866.213 565.871Z" fill="#404366"/>
<path id="Vector_59" d="M868.093 610.978C873.499 610.978 877.881 606.595 877.881 601.189C877.881 595.783 873.499 591.4 868.093 591.4C862.686 591.4 858.304 595.783 858.304 601.189C858.304 606.595 862.686 610.978 868.093 610.978Z" fill="white" stroke="#00B4CC" stroke-width="5.2207" stroke-miterlimit="10" stroke-linecap="round" stroke-linejoin="round"/>
<path id="Vector_60" d="M859.427 671.512C864.834 671.512 869.216 667.13 869.216 661.723C869.216 656.317 864.834 651.935 859.427 651.935C854.021 651.935 849.639 656.317 849.639 661.723C849.639 667.13 854.021 671.512 859.427 671.512Z" fill="#404366"/>
<path id="Vector_61" d="M866.213 720.561C871.619 720.561 876.001 716.178 876.001 710.772C876.001 705.366 871.619 700.983 866.213 700.983C860.806 700.983 856.424 705.366 856.424 710.772C856.424 716.178 860.806 720.561 866.213 720.561Z" fill="#404366"/>
</g>
</g>
</g>
</svg>
