<svg width="794" height="376" viewBox="0 0 794 376" fill="none" xmlns="http://www.w3.org/2000/svg">
<path d="M324.748 49.4387C329.803 54.7544 334.05 60.9039 337.308 68.226C346.063 87.8732 339.106 106.634 362.974 114.608C397.526 126.177 425.251 102.465 456.676 93.241C494.329 82.1927 511.422 100.25 535.499 127.168C546.652 139.649 555.85 142.02 569.009 151.635C580.213 159.817 580.969 168.885 589.516 178.031C610.023 199.998 634.908 210.42 661.043 220.791C692.416 233.247 709.249 245.363 723.137 274.6C736.14 301.96 759.357 320.669 774.158 346.648C779.578 356.133 784.216 365.07 788.698 373.643" stroke="#1B771B" stroke-width="9.77642" stroke-miterlimit="10" stroke-linejoin="round" stroke-dasharray="12.22 12.22"/>
<path d="M321.465 68.9296C332.215 68.9296 340.93 60.2149 340.93 49.4648C340.93 38.7147 332.215 30 321.465 30C310.715 30 302 38.7147 302 49.4648C302 60.2149 310.715 68.9296 321.465 68.9296Z" fill="white" stroke="#1B771B" stroke-width="9.77642" stroke-miterlimit="10" stroke-linecap="round" stroke-linejoin="round"/>
<path d="M174.145 66.8892C175.671 67.6384 177.345 68.0345 179.045 68.0474H183.481H237.166C237.814 68.0639 238.459 67.9527 239.065 67.7199C239.67 67.4871 240.223 67.1372 240.693 66.6907C241.163 66.2439 241.54 65.7088 241.803 65.1161C242.066 64.5237 242.21 63.8848 242.226 63.2369C242.226 63.0584 242.226 62.8625 242.226 62.6843C242.102 61.6393 241.673 60.6541 240.991 59.8522C240.31 59.0504 239.407 58.4674 238.395 58.1764C239.336 56.3732 239.728 54.3339 239.522 52.3101C239.316 50.2867 238.522 48.3681 237.237 46.7912C235.977 45.2233 234.382 43.9572 232.569 43.0848C230.757 42.2124 228.772 41.7559 226.76 41.7488C227.976 39.6141 228.485 37.15 228.216 34.7085C227.948 32.2671 226.914 29.973 225.264 28.1539C223.59 26.4093 221.402 25.2466 219.02 24.8361C216.637 24.4257 214.186 24.7891 212.025 25.8732C211.217 23.0568 209.55 20.5629 207.257 18.7391C204.964 16.9154 202.158 15.8527 199.232 15.6993C196.321 15.7129 193.488 16.6378 191.129 18.3443C188.771 20.0508 187.006 22.4531 186.083 25.2139C184.206 25.1975 182.355 25.6522 180.699 26.5362C179.043 27.4202 177.635 28.7054 176.604 30.2741C175.611 31.894 175.036 33.735 174.93 35.632C174.824 37.529 175.191 39.4227 175.998 41.1429C173.335 41.9667 170.982 43.5743 169.246 45.7559C167.511 47.9374 166.474 50.5916 166.27 53.3717C166.066 56.152 166.705 58.9291 168.103 61.3405C169.502 63.7519 171.595 65.6858 174.109 66.8892H174.145Z" stroke="#1B771B" stroke-width="2.425" stroke-linecap="round" stroke-linejoin="round"/>
<path d="M242.226 64.4859H255.054C255.844 64.4403 256.606 64.1826 257.261 63.7406C257.916 63.2986 258.44 62.6882 258.778 61.9736C259.125 61.2791 259.305 60.5138 259.305 59.7375C259.305 58.9615 259.125 58.1958 258.778 57.5016C259.877 56.7114 260.789 55.6884 261.448 54.5059C262.107 53.3235 262.497 52.0101 262.591 50.6595C262.732 49.2592 262.566 47.8453 262.105 46.5157C261.643 45.1865 260.897 43.9737 259.918 42.9623C260.641 40.2644 260.706 37.4323 260.108 34.704C259.509 31.9757 258.265 29.4307 256.48 27.2828C254.66 25.156 252.364 23.488 249.78 22.4138C247.195 21.3396 244.393 20.8896 241.602 21.1001C241.857 20.0698 241.896 18.9977 241.715 17.9518C241.534 16.9058 241.137 15.9089 240.551 15.0243C239.916 14.1966 239.11 13.5164 238.187 13.0304C237.264 12.5444 236.247 12.2642 235.205 12.2091C234.758 10.0672 233.706 8.0984 232.175 6.53544C230.643 4.97248 228.696 3.88075 226.564 3.38938C224.417 3.02756 222.21 3.29813 220.214 4.16813C218.218 5.03812 216.518 6.46997 215.321 8.2892C212.839 8.54124 210.495 9.54875 208.604 11.1757C206.745 12.6963 205.416 14.7674 204.809 17.0911" stroke="#1B771B" stroke-width="2.425" stroke-linecap="round" stroke-linejoin="round"/>
<path d="M198.484 93.7236V68.1021" stroke="#1B771B" stroke-width="2.425" stroke-linecap="round" stroke-linejoin="round"/>
<path d="M208.109 93.7236V76.4586L216.466 68.1021" stroke="#1B771B" stroke-width="2.425" stroke-linecap="round" stroke-linejoin="round"/>
<path d="M210.745 68.1021L207.787 71.0418V68.1021" stroke="#1B771B" stroke-width="2.425" stroke-linecap="round" stroke-linejoin="round"/>
<path d="M230.539 77.0109V68.1021" stroke="#1B771B" stroke-width="2.425" stroke-linecap="round" stroke-linejoin="round"/>
<path d="M221.916 83.354L222.023 68.1021" stroke="#1B771B" stroke-width="2.425" stroke-linecap="round" stroke-linejoin="round"/>
<path d="M177.316 93.672C177.726 93.672 251.919 93.8857 252.151 93.672" stroke="#1B771B" stroke-width="2.425" stroke-linecap="round" stroke-linejoin="round"/>
<path d="M212.292 93.7249C212.188 92.256 212.421 90.7826 212.972 89.4168C213.523 88.0511 214.378 86.8289 215.472 85.843C216.566 84.8572 217.87 84.1336 219.286 83.7271C220.701 83.3207 222.191 83.2421 223.642 83.4976C223.806 82.3995 224.211 81.3513 224.827 80.4275C225.442 79.5034 226.255 78.7268 227.205 78.1526C229.12 76.9879 231.391 76.5517 233.601 76.9229C235.806 77.3086 237.85 78.3304 239.481 79.863C239.823 77.4377 241.103 75.2435 243.045 73.7513C243.974 73.009 245.042 72.458 246.186 72.1308C247.33 71.8036 248.527 71.7066 249.709 71.845" stroke="#1B771B" stroke-width="2.425" stroke-linecap="round" stroke-linejoin="round"/>
<path d="M173.7 92.5486C173.376 91.3665 173.415 90.1139 173.812 88.9541C174.209 87.7943 174.946 86.781 175.927 86.0454C176.938 85.348 178.137 84.9745 179.366 84.9745C180.594 84.9745 181.793 85.348 182.804 86.0454C182.747 85.4637 182.812 84.8763 182.997 84.3221C183.182 83.7675 183.482 83.2583 183.877 82.8276C184.272 82.3969 184.754 82.0548 185.291 81.8233C185.828 81.5918 186.407 81.4761 186.991 81.4838C186.569 80.1582 186.521 78.742 186.851 77.3904C187.181 76.0389 187.877 74.8044 188.862 73.8225C189.873 72.8896 191.129 72.2637 192.482 72.0176C193.836 71.7716 195.231 71.9154 196.506 72.4328" stroke="#1B771B" stroke-width="2.425" stroke-linecap="round" stroke-linejoin="round"/>
<path d="M168.82 12.2986H195.921V38.4728L182.575 46.7934L168.82 37.172V12.2986Z" fill="white" stroke="#1B771B" stroke-width="2.425" stroke-linecap="round" stroke-linejoin="round"/>
<path d="M173.754 29.2782C176.74 30.6905 179.225 32.9774 180.881 35.835C184.086 31.1863 187.904 26.991 192.231 23.3627" stroke="#1B771B" stroke-width="2.425" stroke-linecap="round" stroke-linejoin="round"/>
<path d="M172.792 25.0024L172.596 15.2383H192.355L192.498 19.7818" stroke="#1B771B" stroke-width="2.425" stroke-linecap="round" stroke-linejoin="round"/>
<path d="M172.596 31.755V35.4431L182.36 42.1963L192.498 35.7461V28.4053" stroke="#1B771B" stroke-width="2.425" stroke-linecap="round" stroke-linejoin="round"/>
<text fill="#1E1E1E" xml:space="preserve" style="white-space: pre" font-family="Titillium Web" font-size="40" font-weight="600" letter-spacing="0px"><tspan x="0.375" y="155.9">P&#x103;duri protejate&#13;&#x2028;</tspan><tspan x="72.7188" y="197.9">&#x219;i s&#x103;n&#x103;toase</tspan></text>
</svg>
