<svg width="581" height="74" viewBox="0 0 581 74" fill="none" xmlns="http://www.w3.org/2000/svg">
<g clip-path="url(#clip0)">
<path d="M558.427 22.7795C556.941 25.9467 555.723 28.115 552.214 30.4295C548.17 33.1338 543.151 34.352 538.912 36.4228C522.808 44.3408 505.998 53.0141 488.895 58.5932C471.767 64.1724 453.422 61.9554 436.1 65.9996C414.514 71.0184 394.902 70.6773 372.415 63.003C345.664 53.8668 324.517 42.1481 295.427 40.0286C282.588 39.1028 269.724 40.0773 256.909 40.8813C245.483 41.6122 233.935 41.198 222.752 43.0496C210.278 45.1204 197.244 44.755 184.673 46.4848C172.077 48.2146 159.554 50.7727 147.494 54.9144C141.525 56.9609 135.678 59.4216 129.539 60.8834C111.9 65.0982 93.4571 60.9808 75.8426 56.6442C66.4871 54.3297 56.6444 51.6985 49.8715 44.8525C45.1207 40.0529 42.3677 33.6211 38.1528 28.3343C31.9403 20.5624 22.9259 15.6655 14.1796 10.9877C10.0866 8.79506 5.87174 6.57802 1.51074 5.0675" stroke="#F90000" stroke-width="9.14079" stroke-miterlimit="10" stroke-linejoin="round" stroke-dasharray="11.43 11.43"/>
<path d="M557.355 40.9788C567.406 40.9788 575.554 32.8307 575.554 22.7795C575.554 12.7284 567.406 4.58029 557.355 4.58029C547.304 4.58029 539.156 12.7284 539.156 22.7795C539.156 32.8307 547.304 40.9788 557.355 40.9788Z" fill="white" stroke="#F90000" stroke-width="9.14079" stroke-miterlimit="10" stroke-linecap="round" stroke-linejoin="round"/>
</g>
<defs>
<clipPath id="clip0">
<rect width="580.11" height="73.8933" fill="white"/>
</clipPath>
</defs>
</svg>
