<svg width="321" height="475" viewBox="0 0 321 475" fill="none" xmlns="http://www.w3.org/2000/svg">
<g clip-path="url(#clip0)">
<path d="M56.9156 4.4126C44.2589 10.8863 32.5534 19.3946 22.4597 29.4354C11.0978 40.8238 1.03051 66.8507 6.47369 83.0217C10.8071 95.8369 28.6428 106.855 37.6795 116.685C50.759 130.901 65.7145 144.191 73.8265 162.186C81.04 178.198 77.9749 191.595 91.0808 205.282C115.971 231.282 157.033 225.231 183.219 251.681C205.652 274.352 210.593 306.694 219.286 335.205C222.721 346.461 228.931 357.717 236.567 367.335C247.031 377.35 257.494 387.364 267.958 397.405C278.342 407.367 289.229 418.121 292.558 432.125C293.8 437.278 293.932 442.642 294.857 447.873" stroke="#FFA506" stroke-width="9.91373" stroke-miterlimit="10" stroke-linejoin="round" stroke-dasharray="12.39 12.39"/>
<path d="M296.231 469.303C307.132 469.303 315.969 460.466 315.969 449.565C315.969 438.663 307.132 429.826 296.231 429.826C285.33 429.826 276.493 438.663 276.493 449.565C276.493 460.466 285.33 469.303 296.231 469.303Z" fill="white" stroke="#FFA506" stroke-width="9.91373" stroke-miterlimit="10" stroke-linecap="round" stroke-linejoin="round"/>
</g>
<defs>
<clipPath id="clip0">
<rect width="320.91" height="474.244" fill="white"/>
</clipPath>
</defs>
</svg>
