<svg width="1087" height="94" viewBox="0 0 1087 94" fill="none" xmlns="http://www.w3.org/2000/svg">
<path d="M558.916 42.1993C557.43 45.3665 556.212 47.5348 552.704 49.8493C548.659 52.5536 543.641 53.7718 539.401 55.8426C523.297 63.7606 506.487 72.4339 489.384 78.013C472.257 83.5922 453.911 81.3752 436.589 85.4194C415.003 90.4382 395.391 90.0971 372.904 82.4228C346.153 73.2866 325.006 61.5679 295.916 59.4484C283.077 58.5226 270.213 59.4971 257.398 60.3011C245.972 61.032 234.424 60.6178 223.241 62.4694C210.767 64.5402 197.733 64.1748 185.162 65.9046C172.566 67.6344 160.043 70.1925 147.984 74.3342C142.015 76.3807 136.168 78.8414 130.028 80.3032C112.389 84.518 93.9463 80.4006 76.3318 76.064C66.9764 73.7495 57.1337 71.1183 50.3608 64.2723C45.61 59.4727 42.8569 53.0409 38.6421 47.7541C32.4295 39.9822 23.4152 35.0853 14.6688 30.4075C10.5758 28.2149 6.361 25.9978 2 24.4873" stroke="#F90000" stroke-width="9.14079" stroke-miterlimit="10" stroke-linejoin="round" stroke-dasharray="11.43 11.43"/>
<path d="M557.844 60.3985C567.895 60.3985 576.043 52.2504 576.043 42.1992C576.043 32.1481 567.895 24 557.844 24C547.793 24 539.645 32.1481 539.645 42.1992C539.645 52.2504 547.793 60.3985 557.844 60.3985Z" fill="white" stroke="#F90000" stroke-width="9.14079" stroke-miterlimit="10" stroke-linecap="round" stroke-linejoin="round"/>
<text fill="#1E1E1E" xml:space="preserve" style="white-space: pre" font-family="Titillium Web" font-size="40" font-weight="600" letter-spacing="0px"><tspan x="743" y="35.9">Sprijin, nu pedeaps&#x103;&#x2028;</tspan><tspan x="743" y="77.9">pentru dependen&#x21b;i</tspan></text>
<path d="M612.917 15.2839H628.409V63.9209C628.409 66.9353 629.606 69.8266 631.738 71.9581C633.87 74.0898 636.761 75.2874 639.775 75.2874H685.278C686.78 75.2994 688.269 75.0136 689.659 74.4466C691.05 73.8793 692.314 73.0425 693.38 71.9837C694.445 70.9253 695.29 69.6661 695.866 68.279C696.442 66.8918 696.737 65.4046 696.734 63.9028V15.2659H715" stroke="#404366" stroke-width="2.1875" stroke-linecap="round" stroke-linejoin="round"/>
<path d="M636.21 15.2856H688.846" stroke="#404366" stroke-width="2.1875" stroke-linecap="round" stroke-linejoin="round"/>
<path d="M687.131 38.7937V50.4123H684.501L684.123 47.6563L673.549 47.5122V50.4123H670.162V38.7937C670.162 37.1691 670.808 35.6114 671.956 34.4628C673.105 33.3142 674.663 32.6689 676.287 32.6689H681.007C681.811 32.6689 682.607 32.8274 683.35 33.1351C684.093 33.4429 684.768 33.8941 685.337 34.4628C685.906 35.0315 686.357 35.7067 686.665 36.4499C686.973 37.1928 687.131 37.9893 687.131 38.7937Z" stroke="#404366" stroke-width="2.1875" stroke-linecap="round" stroke-linejoin="round"/>
<path d="M673.531 40.217L673.874 72.5334" stroke="#404366" stroke-width="2.1875" stroke-linecap="round" stroke-linejoin="round"/>
<path d="M683.223 39.5305L687.131 72.5314H682.88L679.025 51.8158H678.719L678.467 72.5314H673.873L672.486 74.9995" stroke="#404366" stroke-width="2.1875" stroke-linecap="round" stroke-linejoin="round"/>
<path d="M670.163 50.4651C670.148 51.2858 670.321 52.099 670.668 52.843C670.914 53.2237 671.25 53.5387 671.645 53.7615C672.04 53.984 672.484 54.108 672.937 54.122" stroke="#404366" stroke-width="2.1875" stroke-linecap="round" stroke-linejoin="round"/>
<path d="M687.133 50.6816C687.159 51.4995 686.999 52.3123 686.665 53.0593C686.478 53.3422 686.234 53.5828 685.949 53.766C685.663 53.9489 685.343 54.0702 685.008 54.1221" stroke="#404366" stroke-width="2.1875" stroke-linecap="round" stroke-linejoin="round"/>
<path d="M678.413 72.531V74.9988" stroke="#404366" stroke-width="2.1875" stroke-linecap="round" stroke-linejoin="round"/>
<path d="M682.883 72.531L683.261 74.8728" stroke="#404366" stroke-width="2.1875" stroke-linecap="round" stroke-linejoin="round"/>
<path d="M687.132 72.531C687.24 72.531 688.933 74.5304 688.933 74.5304" stroke="#404366" stroke-width="2.1875" stroke-linecap="round" stroke-linejoin="round"/>
<path d="M678.649 29.2803C680.509 29.2803 682.017 27.7722 682.017 25.9118C682.017 24.0514 680.509 22.5432 678.649 22.5432C676.788 22.5432 675.28 24.0514 675.28 25.9118C675.28 27.7722 676.788 29.2803 678.649 29.2803Z" fill="white" stroke="#404366" stroke-width="2.1875" stroke-linecap="round" stroke-linejoin="round"/>
<path d="M635.145 9.91675L645.845 75.2702" stroke="#404366" stroke-width="2.1875" stroke-linecap="round" stroke-linejoin="round"/>
<path d="M648.617 9.91675L659.317 75.2702" stroke="#404366" stroke-width="2.1875" stroke-linecap="round" stroke-linejoin="round"/>
<path d="M657.591 64.8235H644.117" stroke="#404366" stroke-width="2.1875" stroke-linecap="round" stroke-linejoin="round"/>
<path d="M655.954 54.9683H642.479" stroke="#404366" stroke-width="2.1875" stroke-linecap="round" stroke-linejoin="round"/>
<path d="M654.313 45.0962H640.839" stroke="#404366" stroke-width="2.1875" stroke-linecap="round" stroke-linejoin="round"/>
<path d="M652.673 35.2439H639.198" stroke="#404366" stroke-width="2.1875" stroke-linecap="round" stroke-linejoin="round"/>
<path d="M651.014 25.3916H637.54" stroke="#404366" stroke-width="2.1875" stroke-linecap="round" stroke-linejoin="round"/>
</svg>
