<svg width="515" height="227" viewBox="0 0 515 227" fill="none" xmlns="http://www.w3.org/2000/svg">
<path d="M24.7104 24.1154C25.5298 25.2574 26.3491 26.3747 27.2181 27.4919C41.4692 46.0382 63.6155 60.0411 86.9536 58.75C107.039 57.6328 126.281 45.5169 146.118 48.9679C159.376 51.2769 170.325 60.1404 181.87 67.0425C201.881 79.0095 228.05 87.2275 251.561 86.0357C259.407 85.6385 267.402 85.8123 275.247 85.9364C290.938 86.1847 306.828 87.5999 321.65 93.1613C351.294 104.284 367.904 133.357 387.642 156C388.958 157.515 390.15 159.153 391.317 160.792C393.253 163.498 395.19 166.204 397.698 168.364C400.28 170.599 403.532 172.089 406.238 174C412.445 178.395 418.553 182.963 424.76 187.581C432.382 193.242 439.309 198.754 446.484 204.911C453.361 210.82 461.232 219.038 470.418 221.049C478.76 222.886 488.493 221.496 497.008 221.496C502.917 221.496 508.851 221.645 514.785 221.67" stroke="#1B771B" stroke-width="9.31512" stroke-miterlimit="10" stroke-linejoin="round" stroke-dasharray="11.64 11.64"/>
<path d="M24.1147 42.661C34.3575 42.661 42.661 34.3575 42.661 24.1147C42.661 13.8718 34.3575 5.56836 24.1147 5.56836C13.8718 5.56836 5.56836 13.8718 5.56836 24.1147C5.56836 34.3575 13.8718 42.661 24.1147 42.661Z" fill="white" stroke="#1B771B" stroke-width="9.31512" stroke-miterlimit="10" stroke-linecap="round" stroke-linejoin="round"/>
</svg>
