<svg width="543" height="607" viewBox="0 0 543 607" fill="none" xmlns="http://www.w3.org/2000/svg">
<path d="M533.188 35C517.105 44.1723 498.861 48.8715 479.863 49.751C476.797 49.9018 473.731 49.9269 470.641 49.8767C455.764 49.6254 444.154 55.1036 429.554 54.9277C410.556 54.7016 390 51.1834 369.494 49.1982" stroke="#1B771B" stroke-width="9.42835" stroke-miterlimit="10" stroke-linecap="round" stroke-linejoin="round"/>
<path d="M369.468 49.1986C348.234 47.1631 327.024 46.7611 307.65 53.4707C290.159 59.5017 275.132 70.609 262.467 84.3297C244.022 104.308 230.552 129.864 221.707 153.587C215.977 168.941 219.571 184.22 218.842 200.026C218.741 202.137 218.565 204.273 218.289 206.409C216.153 222.291 208.79 237.193 204.116 252.195C201.502 260.588 198.914 268.755 196.552 277.224C194.944 282.979 194.592 288.306 194.165 293.709C193.913 296.699 193.662 299.69 193.109 302.781C188.686 328.539 160.742 342.033 145.413 361.282C140.312 367.69 136.266 374.802 131.617 381.537C130.009 383.874 128.401 386.085 126.767 388.221C111.664 407.998 95.8579 418.929 71.6079 429.233C53.5146 436.922 44.2167 441.898 34.6675 459.69C28.7872 470.671 26.1489 494.217 23.5605 502.711" stroke="#C8CEDB" stroke-width="9.42835" stroke-miterlimit="10" stroke-linecap="round" stroke-linejoin="round"/>
<path d="M25.7718 509.421C36.1391 509.421 44.5435 501.016 44.5435 490.649C44.5435 480.282 36.1391 471.877 25.7718 471.877C15.4044 471.877 7 480.282 7 490.649C7 501.016 15.4044 509.421 25.7718 509.421Z" fill="white" stroke="#1B771B" stroke-width="9.42835" stroke-miterlimit="10" stroke-linecap="round" stroke-linejoin="round"/>
<path d="M174.715 343.968C179.919 343.968 184.138 339.749 184.138 334.545C184.138 329.34 179.919 325.121 174.715 325.121C169.51 325.121 165.291 329.34 165.291 334.545C165.291 339.749 169.51 343.968 174.715 343.968Z" fill="#404366"/>
<path d="M199.417 279.435C204.621 279.435 208.84 275.216 208.84 270.011C208.84 264.807 204.621 260.588 199.417 260.588C194.212 260.588 189.993 264.807 189.993 270.011C189.993 275.216 194.212 279.435 199.417 279.435Z" fill="#404366"/>
<path d="M215.851 230.911C221.056 230.911 225.275 226.692 225.275 221.487C225.275 216.283 221.056 212.063 215.851 212.063C210.647 212.063 206.428 216.283 206.428 221.487C206.428 226.692 210.647 230.911 215.851 230.911Z" fill="#404366"/>
<path d="M218.818 182.411C224.023 182.411 228.242 178.192 228.242 172.988C228.242 167.783 224.023 163.564 218.818 163.564C213.614 163.564 209.395 167.783 209.395 172.988C209.395 178.192 213.614 182.411 218.818 182.411Z" fill="#404366"/>
<path d="M243.545 117.5C248.749 117.5 252.968 113.281 252.968 108.077C252.968 102.872 248.749 98.6533 243.545 98.6533C238.34 98.6533 234.121 102.872 234.121 108.077C234.121 113.281 238.34 117.5 243.545 117.5Z" fill="#404366"/>
<path d="M362.131 57.9186C367.335 57.9186 371.554 53.6995 371.554 48.495C371.554 43.2905 367.335 39.0714 362.131 39.0714C356.926 39.0714 352.707 43.2905 352.707 48.495C352.707 53.6995 356.926 57.9186 362.131 57.9186Z" fill="white" stroke="#1B771B" stroke-width="5.02591" stroke-miterlimit="10" stroke-linecap="round" stroke-linejoin="round"/>
<path d="M450.611 61.6875C455.816 61.6875 460.035 57.4684 460.035 52.2639C460.035 47.0594 455.816 42.8403 450.611 42.8403C445.407 42.8403 441.188 47.0594 441.188 52.2639C441.188 57.4684 445.407 61.6875 450.611 61.6875Z" fill="white" stroke="#1B771B" stroke-width="5.02591" stroke-miterlimit="10" stroke-linecap="round" stroke-linejoin="round"/>
<text fill="#1E1E1E" xml:space="preserve" style="white-space: pre" font-family="Titillium Web" font-size="20" font-weight="600" letter-spacing="0px"><tspan x="451" y="91.45">ECutremur  </tspan></text>
<text fill="#1E1E1E" xml:space="preserve" style="white-space: pre" font-family="Titillium Web" font-size="20" font-weight="600" letter-spacing="0px"><tspan x="253" y="22.45">Seismic Risk&#13;</tspan></text>
<text fill="#1E1E1E" xml:space="preserve" style="white-space: pre" font-family="Titillium Web" font-size="20" font-weight="600" letter-spacing="0px"><tspan x="274" y="125.45">Expertizare Digital&#x103; </tspan></text>
<text fill="#1E1E1E" xml:space="preserve" style="white-space: pre" font-family="Titillium Web" font-size="20" font-weight="600" letter-spacing="0px"><tspan x="247" y="174.45">Stay Together&#13;</tspan></text>
<text fill="#1E1E1E" xml:space="preserve" style="white-space: pre" font-family="Titillium Web" font-size="20" font-weight="600" letter-spacing="0px"><tspan x="244" y="221.45">Shelter People&#x2028;</tspan><tspan x="244" y="243.45">Database</tspan></text>
<text fill="#1E1E1E" xml:space="preserve" style="white-space: pre" font-family="Titillium Web" font-size="20" font-weight="600" letter-spacing="0px"><tspan x="228" y="286.45">Brigada de evaluare</tspan></text>
<text fill="#1E1E1E" xml:space="preserve" style="white-space: pre" font-family="Titillium Web" font-size="20" font-weight="600" letter-spacing="0px"><tspan x="204" y="351.45">Seismic&#13;Watchdog</tspan></text>
<text fill="#1E1E1E" xml:space="preserve" style="white-space: pre" font-family="Titillium Web" font-size="40" font-weight="600" letter-spacing="0px"><tspan x="120" y="558.9">Preg&#x103;ti&#x21b;i pentru &#x2028;</tspan><tspan x="120" y="600.9">urm&#x103;torul cutremur</tspan></text>
<path d="M87.9985 588.269C87.9985 588.43 87.8859 588.591 87.8697 588.768C86.8067 588.188 87.6282 591.007 87.6766 591.248C86.8229 590.942 87.6766 593.246 87.6766 593.648C87.4642 594.487 87.1952 595.31 86.8712 596.112C86.7102 596.966 86.8712 597.224 85.937 597.256C84.6125 597.307 83.2959 597.03 82.1038 596.451C81.5705 596.296 81.0798 596.02 80.6705 595.645C80.3645 595.227 80.5254 594.035 79.978 593.68C79.4303 593.326 78.9792 594.083 78.6251 594.164C77.5621 594.389 78.0936 593.616 77.4171 593.246C77.0949 593.085 76.3862 593.358 75.9997 593.374C75.6099 593.431 75.2139 593.431 74.8241 593.374C74.5986 593.278 74.5985 593.181 74.4054 593.052C74.2483 592.949 74.0979 592.836 73.9544 592.714C73.8094 592.585 73.6968 592.601 73.5517 592.456C73.4067 592.311 73.5517 592.118 73.5517 592.102C73.149 591.78 72.537 591.812 71.9412 591.587C71.6833 591.587 71.4581 591.232 71.2001 591.168C70.9425 591.104 70.8461 591.297 70.6365 591.313C69.9682 591.415 69.324 591.639 68.7362 591.973C67.8714 592.247 66.981 592.43 66.0786 592.521C64.7729 592.624 63.4908 592.928 62.2778 593.423C61.7301 593.68 61.6655 594.115 61.2953 594.502C60.9247 594.888 60.3451 595.13 59.9746 595.565C59.2659 596.402 58.8311 597.175 57.8002 597.514C57.4124 597.664 57.0357 597.842 56.6729 598.045C56.2576 598.158 55.8307 598.223 55.4005 598.238C54.7564 598.367 54.6435 598.593 53.9831 598.238C53.5905 597.955 53.148 597.747 52.6787 597.626C51.3852 597.327 50.0602 597.187 48.7328 597.208C47.5248 597.208 46.4136 596.241 45.3023 596.354C44.8512 596.354 44.5774 596.821 44.1587 596.95C43.5066 597.079 42.8394 597.111 42.1777 597.047C40.8545 596.803 39.5556 596.442 38.2961 595.967C37.7003 595.774 37.4106 595.967 36.8145 595.967C36.2187 595.967 35.7515 595.436 35.204 595.307C34.006 595.219 32.8033 595.389 31.6768 595.806C30.2594 596.048 28.6973 596.306 29.1483 594.454C29.3255 593.713 29.4219 593.713 30.0822 593.487C30.7426 593.262 31.1936 593.133 30.8555 592.489C30.6783 592.118 29.9696 592.15 29.5831 591.957C28.94 591.622 28.3398 591.212 27.7952 590.733C27.2478 590.266 27.618 590.266 27.3766 589.702C27.1349 589.139 27.0222 589.38 26.5391 589.155C26.1127 588.968 25.7771 588.621 25.6049 588.188C25.6049 588.043 25.2506 587.27 25.2506 587.19C25.2506 586.594 25.3955 586.836 25.6532 586.562C25.9109 586.288 25.8949 586.562 25.9754 586.433C26.0559 586.304 25.9754 586.159 25.9754 586.095C26.2814 585.805 26.2009 585.644 26.7324 585.724C27.2637 585.805 27.2637 586.224 27.7147 585.982C28.1658 585.74 28.0369 585.595 27.8598 585.273C27.5376 584.694 27.0865 584.903 26.5553 584.709C26.0238 584.516 25.3794 583.099 24.5903 583.389C24.397 583.389 24.252 583.776 24.0749 583.888C23.8977 584.001 23.6722 583.888 23.5595 584.049C23.2277 584.442 22.9661 584.888 22.7864 585.37C22.1905 586.433 21.804 587.158 21.047 585.918C20.8822 585.683 20.7367 585.435 20.6121 585.177C20.3222 584.468 20.2578 584.5 19.5814 584.21C18.9049 583.92 19.066 583.92 18.5828 583.969C18.0996 584.017 17.4393 584.42 16.8273 583.969C16.2153 583.518 16.5052 583.083 16.1508 582.777C15.7965 582.471 15.1523 582.777 14.6691 582.632C14.1859 582.487 13.3645 581.955 13.8799 581.504C14.3953 581.053 16.7145 581.36 15.1845 580.345C14.8624 580.152 13.7027 579.894 13.7833 579.54C13.8638 579.185 14.1698 579.379 14.3309 579.185C14.4863 578.993 14.6063 578.775 14.6852 578.541C14.7658 578.38 14.6852 578.235 14.7658 578.074C14.8572 578.016 14.9544 577.967 15.0557 577.929C15.2006 577.51 15.3133 577.43 14.7979 576.995C14.2826 576.56 13.0263 576.576 12.3338 576.061C12.06 575.851 11.9311 575.336 11.5929 575.207C11.2547 575.078 11.3835 575.465 11.2869 575.433L10.9809 575.304C10.0467 575.127 9.27367 574.031 8.66167 573.371C8.66167 573.371 7.8886 572.791 7.87247 572.727C7.72752 572.389 8.14628 572.26 8.13018 571.873C8.11406 571.487 7.74364 571.261 7.71142 570.891C7.76879 570.541 7.85499 570.196 7.96911 569.86C8.0094 569.502 8.0094 569.139 7.96911 568.781C7.72752 568.362 7.6792 568.781 7.51816 568.781C7.35711 568.781 7.40542 569.087 6.95445 568.781C6.5035 568.475 6.66454 568.04 6.47128 567.67C6.02032 566.848 5.35998 566.687 4.65132 566.22C4.28862 566.028 3.94834 565.795 3.63666 565.528C3.33066 565.205 3.31456 564.69 3.08908 564.32C2.86359 563.949 2.15494 563.466 2.9119 563.063C3.22073 563.007 3.53722 563.007 3.84605 563.063C4.05508 563.08 4.26512 563.08 4.47418 563.063C4.58691 563.063 4.61913 562.79 4.71576 562.774C5.48884 562.645 6.14918 563.772 7.00276 563.047C7.00276 563.047 7.43762 562.403 7.40542 562.484C7.44114 562.207 7.51147 561.937 7.61479 561.678C7.98523 561.066 8.88713 561.372 9.3703 561.437C9.85348 561.501 10.079 561.566 10.3045 561.566C10.5299 561.566 10.4494 561.759 10.7393 561.678C11.0292 561.598 11.1097 561.211 11.2547 561.082C11.3997 560.954 11.5446 561.082 11.7217 560.841C11.8989 560.599 11.8023 560.245 11.8667 559.955C12.1244 559.037 12.4465 559.665 12.8975 559.166C13.3484 558.667 12.6398 558.248 12.7525 557.781C12.7525 557.571 13.0585 557.41 13.1391 557.185C13.2196 556.959 13.1391 556.476 13.3162 556.251C13.4934 556.025 13.735 556.251 13.9766 556.138C14.2181 556.025 14.2504 555.784 14.4275 555.623C14.6047 555.462 15.265 555.139 15.2972 554.608C15.2972 554.608 14.9751 554.415 14.959 554.237C15.0182 554.013 15.1047 553.797 15.2167 553.593C15.4744 553.094 15.9092 553.078 16.1186 552.707C16.328 552.337 16.0381 552.144 16.1186 551.854C16.1991 551.564 17.0044 551.435 16.9078 550.71C16.9078 550.517 16.5696 550.308 16.5696 550.227C16.5696 549.712 17.3749 549.47 17.6648 549.148C18.0672 548.64 18.3432 548.044 18.47 547.409C18.5582 547.01 18.6712 546.617 18.8083 546.233C19.1143 545.524 19.5008 545.54 19.9518 545.106C20.7732 544.332 19.7263 543.157 20.8698 542.319C21.2242 542.045 21.6751 541.981 21.9489 541.675C22.0798 541.409 22.1928 541.135 22.2871 540.854C22.5931 540.274 22.8025 539.694 23.5756 539.565C24.3487 539.436 23.9138 539.662 24.4614 539.163C24.703 538.937 24.4614 538.824 24.9285 538.824C25.3955 538.824 25.5727 539.211 25.943 539.227C26.3136 539.243 26.7 538.953 27.0544 538.679C27.374 538.494 27.6713 538.272 27.9402 538.019C28.0207 537.922 27.9402 537.584 28.1495 537.359C28.3589 537.133 28.5684 537.198 28.7132 537.053C28.903 536.836 29.0753 536.604 29.2288 536.36C29.3576 536.183 29.6315 535.539 29.712 535.507C29.7924 535.474 30.2273 535.941 30.6783 535.748C31.1291 535.555 31.0648 534.572 31.5641 534.234C32.0633 533.896 32.5948 534.363 32.9491 534.621C33.6899 535.184 34.2377 536.231 35.3007 535.99C35.4133 535.99 35.526 535.651 35.6872 535.603C36.1704 535.41 36.7178 535.7 37.201 535.764C37.6842 535.829 38.1673 535.764 38.6829 536.119C38.8601 536.263 38.9565 536.537 39.1177 536.586C39.2787 536.634 39.8424 536.231 40.1646 536.199C41.163 536.102 41.775 537.262 42.8059 537.149C43.3081 537.001 43.7939 536.801 44.2554 536.553C44.6934 536.367 45.1809 536.333 45.6404 536.457C45.8955 536.469 46.1444 536.538 46.3699 536.658C46.5954 536.777 46.7916 536.945 46.9452 537.149C47.235 537.632 46.9452 537.842 47.5893 538.212C48.2334 538.583 48.3947 538.502 48.7649 538.969C49.1355 539.436 49.1031 539.952 49.9568 539.887C51.6478 539.775 51.7123 538.663 52.6465 537.584C53.5807 536.505 55.2555 536.924 56.3185 536.811C57.3815 536.698 58.6056 536.296 59.7812 536.102C60.2968 536.102 60.8764 536.102 61.392 535.957C61.6239 535.954 61.8517 535.896 62.0561 535.787C62.2608 535.677 62.4362 535.52 62.5676 535.329C63.2151 534.544 63.6183 533.587 63.7273 532.575C63.7379 532.541 63.7595 532.512 63.7885 532.491C63.8176 532.471 63.8528 532.461 63.8883 532.463C64.553 532.417 65.2085 532.281 65.8372 532.06C66.2879 531.963 66.8357 531.625 67.2705 531.577C67.7053 531.528 67.8663 531.834 68.0759 531.577C68.1885 531.85 68.253 531.754 68.4945 531.818C68.7282 531.856 68.9525 531.938 69.1548 532.06C69.3966 532.189 69.8473 532.382 69.8635 532.865C70.2338 532.285 71.0392 533.316 70.4434 533.413C70.6689 533.848 71.0554 533.413 71.2647 533.815C71.2647 533.815 71.1521 534.234 71.2647 534.395C71.3773 534.556 71.7317 534.814 71.8929 535.104C72.0539 535.394 71.6995 535.329 71.78 535.442C71.8605 535.555 71.9896 535.442 72.1827 535.587C72.3761 535.732 72.7464 535.925 72.392 536.28C72.9235 536.505 72.392 536.618 72.4887 536.811C72.5854 537.004 72.8914 537.069 72.8914 537.407C72.8914 537.745 72.8914 537.987 73.31 538.277C73.1812 538.277 73.0847 538.438 72.9559 538.486C73.2295 538.744 74.067 539.855 73.5034 539.968C73.7127 541.127 75.0012 541.739 75.3234 542.657C75.5165 543.205 75.5811 543.205 76.0159 543.479C76.4508 543.753 76.4186 543.64 76.5312 544.026C76.5312 544.026 76.6279 544.494 76.6279 544.542C76.6449 544.745 76.6883 544.945 76.7567 545.138C76.9823 545.766 77.2237 545.846 77.6909 546.201C78.1579 546.555 79.3014 547.811 78.7699 548.246C78.9149 548.439 79.221 548.778 79.3014 548.858L79.6558 549.229C79.978 549.583 80.59 550.388 81.1053 550.114C81.2663 550.614 81.7013 550.936 81.8461 551.467C81.9911 551.999 81.8461 552.112 81.975 552.498C82.2339 553.488 82.6068 554.445 83.0863 555.349C83.4245 556.202 83.0863 556.621 83.0863 557.346C83.0863 558.071 83.3761 558.586 83.0863 559.295C82.9428 559.879 82.7654 560.454 82.5548 561.018C82.5548 561.163 82.2488 561.308 82.1683 561.437C81.9266 561.872 82.1683 561.646 82.1683 562.194C82.1009 562.94 81.9662 563.678 81.7656 564.4C81.769 565.106 81.8556 565.808 82.0233 566.494C82.0439 566.724 82.0439 566.956 82.0233 567.186C82.0896 567.674 82.2195 568.15 82.4098 568.604C82.5607 569.214 82.6096 569.846 82.5548 570.472C82.3293 570.746 81.7978 570.585 81.4918 571.036C81.7031 571.098 81.8994 571.203 82.0683 571.345C82.2372 571.486 82.3753 571.66 82.4743 571.857C82.6353 572.244 82.4743 572.485 82.7965 572.84C83.1185 573.194 83.489 573.033 83.7467 573.484C84.0043 573.935 83.7467 574.434 84.1331 574.805C84.5196 575.175 85.8244 575.61 86.5331 575.9C87.2415 576.19 88.4495 576.592 88.9489 576.029C88.2886 575.9 88.6429 575.497 88.836 575.255C89.0294 575.014 88.7234 574.949 89.1742 574.901C89.4102 574.985 89.6368 575.093 89.8507 575.223C90.0924 575.336 90.0924 575.61 90.4144 575.481C90.7366 575.352 90.4144 575.078 90.6077 574.949C91.0698 574.662 91.5612 574.425 92.0732 574.241C92.6474 573.857 93.2856 573.579 93.9578 573.419C94.1478 573.364 94.3417 573.321 94.5374 573.291C95.2811 573.306 96.0101 573.499 96.6635 573.854C96.9682 574.003 97.2276 574.231 97.4146 574.515C97.6015 574.798 97.7093 575.126 97.7265 575.465C97.7265 575.835 97.7265 576.528 97.2593 576.415C97.3883 576.769 97.5653 577.236 98.0325 577.204C97.3883 577.687 97.4688 579.362 97.3881 580.135C97.3076 580.909 97.3881 581.746 96.6956 582.036C96.0031 582.326 94.6662 582.31 93.8449 582.519C92.4759 582.857 91.1231 582.632 90.1084 583.791C89.1927 585.174 88.4819 586.682 87.9985 588.269Z" stroke="#1B771B" stroke-width="1.92857" stroke-linecap="round" stroke-linejoin="round"/>
<path d="M24.7845 580.023C22.1226 573.791 20.9686 567.02 21.4164 560.259C21.8642 553.497 23.901 546.937 27.3615 541.111" stroke="#1B771B" stroke-width="1.92857" stroke-linecap="round" stroke-linejoin="round"/>
<path d="M56.0784 595.226C50.3315 593.725 45.093 590.709 40.909 586.493C36.725 582.276 33.7491 577.015 32.2914 571.257C30.8339 565.499 30.9478 559.455 32.6218 553.756C34.2958 548.057 37.4684 542.911 41.8085 538.856" stroke="#1B771B" stroke-width="1.92857" stroke-linecap="round" stroke-linejoin="round"/>
<path d="M84.2961 578.749C81.6436 582.11 78.1807 584.742 74.2323 586.398C70.2841 588.054 65.9795 588.679 61.7233 588.216C57.4668 587.752 53.398 586.215 49.8988 583.748C46.3994 581.28 43.5844 577.965 41.7176 574.112C39.851 570.258 38.9939 565.994 39.2269 561.719C39.4599 557.444 40.7754 553.298 43.0498 549.67C45.3243 546.043 48.483 543.053 52.2298 540.981C55.9767 538.909 60.1884 537.823 64.4698 537.824C66.3454 537.819 68.2151 538.03 70.0426 538.452" stroke="#1B771B" stroke-width="1.92857" stroke-linecap="round" stroke-linejoin="round"/>
<path d="M79.5901 575.079C77.2652 578.021 74.1348 580.223 70.5808 581.416C67.0266 582.61 63.2021 582.744 59.573 581.802C55.944 580.861 52.6672 578.884 50.142 576.112C47.6166 573.341 45.9522 569.895 45.3507 566.194C44.7495 562.494 45.2376 558.698 46.7557 555.27C48.2737 551.842 50.7561 548.929 53.9002 546.887C57.0445 544.845 60.7147 543.761 64.4641 543.768C68.2133 543.775 71.8794 544.873 75.016 546.927" stroke="#1B771B" stroke-width="1.92857" stroke-linecap="round" stroke-linejoin="round"/>
<path d="M64.4656 576.448C61.8217 576.448 59.2371 575.663 57.0396 574.192C54.8423 572.721 53.131 570.631 52.1227 568.187C51.1147 565.743 50.855 563.054 51.3768 560.462C51.8985 557.87 53.178 555.491 55.0534 553.627C56.9287 551.763 59.3153 550.498 61.9106 549.992C64.506 549.485 67.1928 549.761 69.6311 550.784C72.0696 551.807 74.1491 553.531 75.6066 555.737C77.0638 557.943 77.8334 560.533 77.8175 563.177C77.7918 566.703 76.3744 570.076 73.8737 572.561C71.373 575.047 67.9915 576.444 64.4656 576.448Z" stroke="#1B771B" stroke-width="1.92857" stroke-linecap="round" stroke-linejoin="round"/>
<path d="M64.4683 570.489C63.0028 570.489 61.5703 570.053 60.3529 569.237C59.1356 568.421 58.1881 567.262 57.6311 565.906C57.0739 564.551 56.9324 563.06 57.2243 561.624C57.5161 560.188 58.2282 558.871 59.2701 557.84C60.3121 556.81 61.6369 556.112 63.0761 555.836C64.5153 555.56 66.0042 555.718 67.3534 556.29C68.7029 556.862 69.8518 557.822 70.6543 559.048C71.4569 560.274 71.8768 561.711 71.8609 563.177C71.8354 565.122 71.046 566.979 69.6628 568.347C68.2796 569.715 66.4138 570.485 64.4683 570.489Z" stroke="#1B771B" stroke-width="1.92857" stroke-linecap="round" stroke-linejoin="round"/>
<path d="M64.4685 564.53C65.2602 564.53 65.9018 563.888 65.9018 563.096C65.9018 562.304 65.2602 561.663 64.4685 561.663C63.6767 561.663 63.0352 562.304 63.0352 563.096C63.0352 563.888 63.6767 564.53 64.4685 564.53Z" fill="#1B771B"/>
</svg>
