<svg width="266" height="158" viewBox="0 0 266 158" fill="none" xmlns="http://www.w3.org/2000/svg">
<g clip-path="url(#clip0)">
<path d="M174.908 40.7944C167.196 44.2457 159.755 48.3171 155.845 54.0332C152.232 59.2909 152.798 65.5733 148.188 70.7771C144.979 74.4171 138.454 78.6233 134.356 81.4005C131.282 83.5036 128.046 85.5258 124.757 87.4671C119.445 90.5948 113.972 93.5337 108.552 96.2839C86.8742 107.339 62.8503 108.579 40.579 120.847C35.6178 123.597 30.441 126.267 25.1832 128.936" stroke="#FFA506" stroke-width="10.1162" stroke-miterlimit="10" stroke-linejoin="round" stroke-dasharray="12.65 12.65"/>
<path d="M25.2102 152.421C36.3339 152.421 45.3514 143.404 45.3514 132.28C45.3514 121.156 36.3339 112.139 25.2102 112.139C14.0865 112.139 5.06897 121.156 5.06897 132.28C5.06897 143.404 14.0865 152.421 25.2102 152.421Z" fill="white" stroke="#FFA506" stroke-width="10.1162" stroke-miterlimit="10" stroke-linecap="round" stroke-linejoin="round"/>
<path d="M204.297 26.7739C200.792 28.5265 197.287 30.3869 193.539 32.4631C188.47 35.2672 181.568 37.8017 174.881 40.7946" stroke="#C8CEDB" stroke-width="10.1162" stroke-miterlimit="10" stroke-linecap="round" stroke-linejoin="round"/>
<path d="M175.906 49.8003C181.49 49.8003 186.017 45.2734 186.017 39.6892C186.017 34.105 181.49 29.5781 175.906 29.5781C170.321 29.5781 165.795 34.105 165.795 39.6892C165.795 45.2734 170.321 49.8003 175.906 49.8003Z" fill="#404366"/>
<path d="M260.758 5.06885C249.379 10.1379 237.624 14.2901 226.38 17.984C225.355 18.3076 224.358 18.6312 223.36 18.9817C216.242 21.2735 210.283 23.835 204.324 26.8009" stroke="#C8CEDB" stroke-width="10.1162" stroke-miterlimit="10" stroke-linecap="round" stroke-linejoin="round"/>
<path d="M204.297 33.7844C209.882 33.7844 214.409 29.2575 214.409 23.6733C214.409 18.0891 209.882 13.5623 204.297 13.5623C198.713 13.5623 194.186 18.0891 194.186 23.6733C194.186 29.2575 198.713 33.7844 204.297 33.7844Z" fill="#404366"/>
</g>
<defs>
<clipPath id="clip0">
<rect width="265.8" height="157.463" fill="white"/>
</clipPath>
</defs>
</svg>
