<svg width="1200" height="1000" viewBox="0 0 1200 1000" fill="none" xmlns="http://www.w3.org/2000/svg">
<g id="segment-care-03-incluziune-pentru-persoanele-lgbtq">
<g id="Group 1147">
<g id="Group 1140">
<path id="Vector" d="M592.048 389.176C587.214 392.861 582.541 396.76 578.214 400.58C566.784 410.568 560.935 422.185 551.801 433.135C543.255 443.39 528.833 449.239 518.391 457.652C508.349 465.744 501.032 477.468 490.483 484.706C465.565 501.851 433.277 508.581 406.063 521.08C382.721 531.79 367.739 552.14 346.827 565.226C323.646 579.728 290.102 597.702 293.2 630.765" stroke="#7937C4" stroke-width="10.0201" stroke-miterlimit="10" stroke-linejoin="round" stroke-dasharray="12.53 12.53"/>
<path id="Vector_2" d="M592.048 409.9C603.066 409.9 611.997 400.968 611.997 389.95C611.997 378.932 603.066 370 592.048 370C581.03 370 572.098 378.932 572.098 389.95C572.098 400.968 581.03 409.9 592.048 409.9Z" fill="white" stroke="#7937C4" stroke-width="10.0201" stroke-miterlimit="10" stroke-linecap="round" stroke-linejoin="round"/>
</g>
<text id="Incluziune pentru &#226;&#128;&#168;persoanele LGBTQ+" fill="#1E1E1E" xml:space="preserve" style="white-space: pre" font-family="Titillium Web" font-size="40" font-weight="600" letter-spacing="0px"><tspan x="572" y="546.9">Incluziune pentru </tspan><tspan x="572" y="588.9">persoanele LGBTQ+</tspan></text>
<g id="icon-incluziune-pentru-persoanele-lgbtq 1">
<path id="Vector_3" d="M607.779 462.036H598.104C598.01 453.448 601.169 445.143 606.946 438.788C612.723 432.433 620.69 428.498 629.248 427.775C637.806 427.052 646.321 429.593 653.083 434.889C659.844 440.184 664.352 447.842 665.701 456.324L656.105 457.98C655.083 451.969 651.841 446.561 647.021 442.826C642.201 439.091 636.155 437.301 630.079 437.811C624.003 438.321 618.34 441.093 614.21 445.58C610.081 450.066 607.786 455.939 607.779 462.036Z" stroke="#7937C4" stroke-width="1.82452" stroke-linecap="round" stroke-linejoin="round"/>
<path id="Vector_4" d="M602.941 462.036C602.914 454.709 605.646 447.642 610.593 442.238C615.54 436.835 622.34 433.492 629.64 432.874C636.94 432.255 644.205 434.408 649.99 438.903C655.776 443.397 659.657 449.905 660.863 457.131" stroke="#7937C4" stroke-width="1.82452" stroke-linecap="round" stroke-linejoin="round"/>
<path id="Vector_5" d="M607.776 462.036C607.782 456.012 610.021 450.204 614.061 445.736C618.1 441.268 623.654 438.457 629.646 437.847C635.639 437.237 641.645 438.871 646.503 442.433C651.36 445.995 654.724 451.233 655.943 457.131" stroke="#7937C4" stroke-width="1.82452" stroke-linecap="round" stroke-linejoin="round"/>
<path id="Vector_6" d="M612.615 462.036C612.615 456.865 614.67 451.906 618.326 448.25C621.983 444.593 626.941 442.539 632.113 442.539C637.284 442.539 642.243 444.593 645.899 448.25C649.556 451.906 651.61 456.865 651.61 462.036" stroke="#7937C4" stroke-width="1.82452" stroke-linecap="round" stroke-linejoin="round"/>
<path id="Vector_7" d="M577.213 490.903H579.585H586.08H625.287" stroke="#7937C4" stroke-width="1.82452" stroke-linecap="round" stroke-linejoin="round"/>
<path id="Vector_8" d="M625.659 490.903H647.065H660.333H679.525" stroke="#7937C4" stroke-width="1.82452" stroke-linecap="round" stroke-linejoin="round"/>
<path id="Vector_9" d="M625.658 464.554V490.904H625.286C622.797 488.171 619.773 485.979 616.4 484.465C613.027 482.951 609.38 482.147 605.683 482.103C602.459 482.102 599.265 482.719 596.272 483.919L595.901 456.734H610.68V464.554H625.658Z" fill="white" stroke="#7937C4" stroke-width="1.82452" stroke-linecap="round" stroke-linejoin="round"/>
<path id="Vector_10" d="M640.092 460.498H647.064" stroke="#7937C4" stroke-width="1.82452" stroke-linecap="round" stroke-linejoin="round"/>
<path id="Vector_11" d="M647.063 490.904V469.736" stroke="#7937C4" stroke-width="1.82452" stroke-linecap="round" stroke-linejoin="round"/>
<path id="Vector_12" d="M660.333 490.904V480.208" stroke="#7937C4" stroke-width="1.82452" stroke-linecap="round" stroke-linejoin="round"/>
<path id="Vector_13" d="M647.069 460.512H647.053" stroke="#7937C4" stroke-width="1.82452" stroke-linecap="round" stroke-linejoin="round"/>
<path id="Vector_14" d="M667.448 455.303V481.626C665.187 480.707 662.772 480.226 660.331 480.208V469.737H647.076V460.459H654.101V455.303H667.448Z" fill="white" stroke="#7937C4" stroke-width="1.82452" stroke-linecap="round" stroke-linejoin="round"/>
<path id="Vector_15" d="M667.449 481.626C668.406 482.022 669.325 482.506 670.193 483.071C673.025 484.949 675.239 487.624 676.555 490.758" fill="white"/>
<path id="Vector_16" d="M667.449 481.626C668.406 482.022 669.325 482.506 670.193 483.071C673.025 484.949 675.239 487.624 676.555 490.758" stroke="#7937C4" stroke-width="1.82452" stroke-linecap="round" stroke-linejoin="round"/>
<path id="Vector_17" d="M625.289 490.904H586.082C588.935 487.867 592.413 485.485 596.275 483.919C599.267 482.719 602.461 482.102 605.685 482.104C609.382 482.147 613.03 482.951 616.402 484.465C619.775 485.979 622.8 488.171 625.289 490.904Z" stroke="#7937C4" stroke-width="1.82452" stroke-linecap="round" stroke-linejoin="round"/>
<path id="Vector_18" d="M640.093 456.733V460.497H634.274C634.194 460.497 634.274 473.818 634.274 473.818H625.659V464.54H610.681V456.733H608.521V449.403H628.018V456.733H640.093Z" fill="white" stroke="#7937C4" stroke-width="1.82452" stroke-linecap="round" stroke-linejoin="round"/>
<path id="Vector_19" d="M601.23 470.584H617.719" stroke="#7937C4" stroke-width="1.82452" stroke-linecap="round" stroke-linejoin="round"/>
<path id="Vector_20" d="M601.23 475.847H617.719" stroke="#7937C4" stroke-width="1.82452" stroke-linecap="round" stroke-linejoin="round"/>
<path id="Vector_21" d="M596.087 464.541C595.63 464.16 595.071 463.921 594.479 463.856C593.888 463.79 593.29 463.899 592.76 464.17C592.234 464.442 591.775 464.829 591.417 465.301C591.059 465.774 590.812 466.32 590.692 466.901C590.454 468.068 590.56 469.279 590.997 470.387C589.511 470.279 588.025 470.601 586.716 471.314C586.182 471.709 585.756 472.231 585.476 472.833C585.196 473.435 585.071 474.098 585.112 474.761C585.158 475.414 585.356 476.047 585.69 476.611C586.023 477.175 586.484 477.653 587.034 478.008C586.218 478.077 585.442 478.391 584.808 478.909C584.174 479.427 583.712 480.125 583.482 480.911C583.264 481.691 583.213 482.509 583.332 483.31C583.451 484.111 583.737 484.879 584.171 485.563C585.048 486.93 586.227 488.077 587.617 488.916L587.313 488.784" stroke="#7937C4" stroke-width="1.82452" stroke-linecap="round" stroke-linejoin="round"/>
<path id="Vector_22" d="M667.568 470.929C668.121 470.03 668.969 469.351 669.967 469.007C670.544 468.876 671.145 468.906 671.706 469.093C672.267 469.28 672.766 469.617 673.148 470.067C673.517 470.529 673.775 471.069 673.901 471.646C674.028 472.223 674.02 472.821 673.877 473.394C673.583 474.547 672.869 475.549 671.876 476.204C672.941 475.93 674.062 475.962 675.11 476.297C675.769 476.514 676.35 476.92 676.781 477.464C677.212 478.009 677.475 478.667 677.536 479.359C677.581 480.052 677.457 480.745 677.176 481.38C676.894 482.015 676.463 482.572 675.918 483.004C676.542 482.766 677.229 482.75 677.863 482.957C678.498 483.164 679.042 483.583 679.405 484.144C679.789 484.71 679.972 485.389 679.924 486.072C679.876 486.755 679.6 487.401 679.139 487.908C678.379 488.562 677.468 489.017 676.488 489.233" stroke="#7937C4" stroke-width="1.82452" stroke-linecap="round" stroke-linejoin="round"/>
</g>
</g>
</g>
</svg>
