<svg width="282" height="629" viewBox="0 0 282 629" fill="none" xmlns="http://www.w3.org/2000/svg">
<g clip-path="url(#clip0)">
<path d="M230.19 4.56006C211.074 14.3095 190.974 21.4918 178.193 39.5706C169.427 51.969 173.059 64.859 172.786 78.6775C172.458 94.7354 170 108.172 174.069 124.257C181.279 152.795 198.074 177.865 203.809 206.922C209.599 236.361 213.75 248.514 238.383 265.173C248.214 271.809 256.926 278.336 263.644 287.921C286.748 320.911 276.944 370.177 238.711 384.187C228.196 388.037 218.693 389.512 210.336 397.159C186.577 418.842 164.047 435.992 146.76 464.476C142.473 471.522 138.458 478.923 134.635 486.706C121.035 514.343 107.981 537.583 85.1504 557.464C68.6828 571.802 38.7245 584.364 25.0153 602.443" stroke="#FFA506" stroke-width="10.2462" stroke-miterlimit="10" stroke-linejoin="round" stroke-dasharray="12.81 12.81"/>
<path d="M25.534 622.87C36.8006 622.87 45.934 613.737 45.934 602.47C45.934 591.204 36.8006 582.07 25.534 582.07C14.2673 582.07 5.13391 591.204 5.13391 602.47C5.13391 613.737 14.2673 622.87 25.534 622.87Z" fill="white" stroke="#FFA506" stroke-width="10.2462" stroke-miterlimit="10" stroke-linecap="round" stroke-linejoin="round"/>
</g>
<defs>
<clipPath id="clip0">
<rect width="281.149" height="628.005" fill="white"/>
</clipPath>
</defs>
</svg>
