<svg width="536" height="877" viewBox="0 0 536 877" fill="none" xmlns="http://www.w3.org/2000/svg">
<g clip-path="url(#clip0)">
<path d="M506.236 77.3874C506.99 67.9329 507.394 58.8555 508.121 51.0709C508.929 42.5322 510.653 34.0204 511.434 25.5356C511.488 24.943 511.542 24.3504 511.596 23.7578" stroke="#C8CEDB" stroke-width="10.1061" stroke-miterlimit="10" stroke-linecap="round" stroke-linejoin="round"/>
<path d="M510.815 45.3059C521.927 45.3059 530.936 36.2973 530.936 25.1847C530.936 14.0721 521.927 5.06348 510.815 5.06348C499.702 5.06348 490.694 14.0721 490.694 25.1847C490.694 36.2973 499.702 45.3059 510.815 45.3059Z" fill="white" stroke="#7937C4" stroke-width="10.1061" stroke-miterlimit="10" stroke-linecap="round" stroke-linejoin="round"/>
<path d="M494.438 127.865C500.552 116.66 503.461 102.869 505.105 89.1313C505.562 85.1987 505.94 81.266 506.236 77.3872" stroke="#C8CEDB" stroke-width="10.1061" stroke-miterlimit="10" stroke-linecap="round" stroke-linejoin="round"/>
<path d="M505.805 86.7606C511.383 86.7606 515.906 82.2382 515.906 76.6596C515.906 71.081 511.383 66.5586 505.805 66.5586C500.226 66.5586 495.704 71.081 495.704 76.6596C495.704 82.2382 500.226 86.7606 505.805 86.7606Z" fill="#404366"/>
<path d="M456.458 178.397C460.875 162.99 470.195 154.101 482.64 142.518C483.367 141.845 484.094 141.172 484.821 140.498C488.7 136.889 491.852 132.606 494.438 127.865" stroke="#C8CEDB" stroke-width="10.1061" stroke-miterlimit="10" stroke-linecap="round" stroke-linejoin="round"/>
<path d="M494.438 139.178C500.016 139.178 504.539 134.656 504.539 129.077C504.539 123.498 500.016 118.976 494.438 118.976C488.859 118.976 484.337 123.498 484.337 129.077C484.337 134.656 488.859 139.178 494.438 139.178Z" fill="#404366"/>
<path d="M458.182 242.586C455.542 229.064 453.28 216.673 453.333 203.394C453.36 197.791 453.791 192.027 454.788 185.939C455.219 183.245 455.785 180.74 456.458 178.397" stroke="#C8CEDB" stroke-width="10.1061" stroke-miterlimit="10" stroke-linecap="round" stroke-linejoin="round"/>
<path d="M457.32 190.168C462.899 190.168 467.421 185.646 467.421 180.067C467.421 174.489 462.899 169.966 457.32 169.966C451.741 169.966 447.219 174.489 447.219 180.067C447.219 185.646 451.741 190.168 457.32 190.168Z" fill="#404366"/>
<path d="M462.896 298.344C463.677 290.586 463.758 282.963 463.192 275.017C462.707 268.202 461.737 261.172 460.337 253.657C459.636 249.859 458.909 246.169 458.209 242.559" stroke="#C8CEDB" stroke-width="10.1061" stroke-miterlimit="10" stroke-linecap="round" stroke-linejoin="round"/>
<path d="M458.263 252.687C463.841 252.687 468.364 248.165 468.364 242.586C468.364 237.008 463.841 232.485 458.263 232.485C452.684 232.485 448.161 237.008 448.161 242.586C448.161 248.165 452.684 252.687 458.263 252.687Z" fill="#404366"/>
<path d="M451.071 346.586C453.037 339.744 455.3 332.983 457.293 326.114C460.148 316.283 461.98 307.232 462.895 298.343" stroke="#C8CEDB" stroke-width="10.1061" stroke-miterlimit="10" stroke-linecap="round" stroke-linejoin="round"/>
<path d="M463.192 308.472C468.77 308.472 473.293 303.949 473.293 298.371C473.293 292.792 468.77 288.27 463.192 288.27C457.613 288.27 453.091 292.792 453.091 298.371C453.091 303.949 457.613 308.472 463.192 308.472Z" fill="#404366"/>
<path d="M447.354 397.683C446.949 387.043 445.468 376.484 446.896 365.656C447.758 359.165 449.293 352.861 451.071 346.612" stroke="#C8CEDB" stroke-width="10.1061" stroke-miterlimit="10" stroke-linecap="round" stroke-linejoin="round"/>
<path d="M449.885 355.959C455.464 355.959 459.986 351.437 459.986 345.858C459.986 340.28 455.464 335.757 449.885 335.757C444.307 335.757 439.784 340.28 439.784 345.858C439.784 351.437 444.307 355.959 449.885 355.959Z" fill="#404366"/>
<path d="M431.919 447.73C437.36 440.862 441.643 433.131 444.31 424.404C445.845 419.394 446.869 414.033 447.246 408.35C447.488 404.767 447.461 401.212 447.326 397.656" stroke="#C8CEDB" stroke-width="10.1061" stroke-miterlimit="10" stroke-linecap="round" stroke-linejoin="round"/>
<path d="M447.704 407.515C453.282 407.515 457.805 402.993 457.805 397.414C457.805 391.835 453.282 387.313 447.704 387.313C442.125 387.313 437.603 391.835 437.603 397.414C437.603 402.993 442.125 407.515 447.704 407.515Z" fill="#404366"/>
<path d="M241.32 582.545C250.478 572.902 261.629 567.623 272.485 559.623C285.71 549.899 299.044 540.31 312.135 530.505C321.266 523.663 323.986 514.666 331.986 507.097C344.646 495.192 360.404 491.394 375.811 485.333C378.882 484.121 381.98 482.855 385.023 481.481C402.828 473.508 420.067 462.68 431.919 447.73" stroke="#C8CEDB" stroke-width="10.1061" stroke-miterlimit="10" stroke-linecap="round" stroke-linejoin="round"/>
<path d="M431.919 459.043C437.498 459.043 442.02 454.521 442.02 448.942C442.02 443.364 437.498 438.841 431.919 438.841C426.34 438.841 421.818 443.364 421.818 448.942C421.818 454.521 426.34 459.043 431.919 459.043Z" fill="#404366"/>
<path d="M241.32 582.545C239.973 583.946 238.68 585.454 237.441 587.071C228.929 598.114 231.192 613.764 234.505 626.801C238.088 640.97 249.589 652.471 255.3 665.643" stroke="#C8CEDB" stroke-width="10.1061" stroke-miterlimit="10" stroke-linecap="round" stroke-linejoin="round"/>
<path d="M240.485 592.646C246.064 592.646 250.586 588.124 250.586 582.545C250.586 576.967 246.064 572.444 240.485 572.444C234.906 572.444 230.384 576.967 230.384 582.545C230.384 588.124 234.906 592.646 240.485 592.646Z" fill="#404366"/>
<path d="M255.299 665.644C256.7 668.876 257.751 672.189 258.236 675.691C260.121 689.078 241.454 709.145 227.582 710.304C225.535 710.465 223.488 710.169 221.414 709.684" stroke="#C8CEDB" stroke-width="10.1061" stroke-miterlimit="10" stroke-linecap="round" stroke-linejoin="round"/>
<path d="M254.976 676.014C260.555 676.014 265.078 671.491 265.078 665.913C265.078 660.334 260.555 655.812 254.976 655.812C249.398 655.812 244.875 660.334 244.875 665.913C244.875 671.491 249.398 676.014 254.976 676.014Z" fill="#404366"/>
<path d="M221.414 709.684C217.185 708.687 212.929 706.855 208.7 706.397C199.731 705.482 190.869 706.963 181.926 707.044C171.367 707.125 158.141 706.424 148.364 710.599" stroke="#C8CEDB" stroke-width="10.1061" stroke-miterlimit="10" stroke-linecap="round" stroke-linejoin="round"/>
<path d="M221.98 719.73C227.558 719.73 232.081 715.208 232.081 709.629C232.081 704.051 227.558 699.528 221.98 699.528C216.401 699.528 211.879 704.051 211.879 709.629C211.879 715.208 216.401 719.73 221.98 719.73Z" fill="#404366"/>
<path d="M148.337 710.6C147.044 711.165 145.778 711.785 144.619 712.539C141.199 714.694 140.391 718.384 135.434 719.946C128.673 722.074 120.188 720.27 113.185 720.62C101.737 721.159 87.8383 719.623 77.9259 726.68C72.5925 730.478 65.6969 734.492 59.2053 739.152" stroke="#C8CEDB" stroke-width="10.1061" stroke-miterlimit="10" stroke-linecap="round" stroke-linejoin="round"/>
<path d="M148.714 722.047C154.292 722.047 158.815 717.525 158.815 711.946C158.815 706.368 154.292 701.845 148.714 701.845C143.135 701.845 138.613 706.368 138.613 711.946C138.613 717.525 143.135 722.047 148.714 722.047Z" fill="#404366"/>
<path d="M59.2055 739.124C50.0203 745.723 41.6701 753.616 39.8654 763.959C38.6802 770.693 42.2358 776.188 41.7779 783.434C41.1853 792.969 36.6331 802.72 32.4849 812.309" stroke="#C8CEDB" stroke-width="10.1061" stroke-miterlimit="10" stroke-linecap="round" stroke-linejoin="round"/>
<path d="M59.4476 748.283C65.0263 748.283 69.5486 743.761 69.5486 738.182C69.5486 732.603 65.0263 728.081 59.4476 728.081C53.869 728.081 49.3466 732.603 49.3466 738.182C49.3466 743.761 53.869 748.283 59.4476 748.283Z" fill="#404366"/>
<path d="M32.4309 812.31C30.2221 817.401 28.1211 822.438 26.8012 827.34C22.2221 844.418 7.64972 853.037 5.03693 871.273" stroke="#7937C4" stroke-width="10.1061" stroke-miterlimit="10" stroke-linecap="round" stroke-linejoin="round"/>
<path d="M32.4311 822.411C38.0097 822.411 42.5321 817.889 42.5321 812.31C42.5321 806.731 38.0097 802.209 32.4311 802.209C26.8525 802.209 22.3301 806.731 22.3301 812.31C22.3301 817.889 26.8525 822.411 32.4311 822.411Z" fill="white" stroke="#7937C4" stroke-width="5.38721" stroke-miterlimit="10" stroke-linecap="round" stroke-linejoin="round"/>
</g>
<defs>
<clipPath id="clip0">
<rect width="536" height="876.337" fill="white"/>
</clipPath>
</defs>
</svg>
