<svg width="1005" height="542" viewBox="0 0 1005 542" fill="none" xmlns="http://www.w3.org/2000/svg">
<g clip-path="url(#clip0)">
<path d="M1000.23 3.06616C999.005 4.66726 997.919 6.2955 996.997 7.97801C990.701 19.3214 988.801 34.3554 983.591 46.4044C976.155 63.6094 963.156 68.657 950.619 81.9271C938.543 94.7087 926.711 107.707 914.798 120.136C904.35 131.046 892.03 144.18 879.764 152.891C874.608 156.555 869.533 162.009 863.671 163.963C857.05 166.188 851.432 165.89 844.268 169.255C831.134 175.415 821.066 184.18 809.342 192.24C799.817 198.78 789.912 207.518 780.143 213.38C772.463 217.993 767.225 216.501 759.491 218.265C750.916 220.246 742.259 222.552 733.602 224.913C722.747 227.871 711.838 230.911 700.929 233.462C665.379 241.711 630.725 255.85 595.881 263.34C576.912 267.41 559.218 275.416 540.873 282.77C510.507 294.928 477.291 299.731 448.661 315.85C439.353 321.088 430.832 323.585 420.52 326.57C393.844 334.304 370.18 349.094 345.784 361.929C338.348 365.837 333.735 370.559 326.977 375.607C321.767 379.46 313.3 380.166 307.683 383.504C283.558 397.832 259.813 412.296 232.838 420.193C205.565 428.172 178.292 418.321 151.264 425.268C127.953 431.265 103.936 423.667 84.0988 442.147C64.3429 460.546 64.3429 490.669 41.6561 507.467C36.4186 511.347 30.9369 514.414 25.3738 517.182" stroke="#FFA506" stroke-width="10.1816" stroke-miterlimit="10" stroke-linejoin="round" stroke-dasharray="12.73 12.73"/>
<path d="M25.3731 536.395C36.5688 536.395 45.6446 527.319 45.6446 516.124C45.6446 504.928 36.5688 495.852 25.3731 495.852C14.1774 495.852 5.10156 504.928 5.10156 516.124C5.10156 527.319 14.1774 536.395 25.3731 536.395Z" fill="white" stroke="#FFA506" stroke-width="10.1816" stroke-miterlimit="10" stroke-linecap="round" stroke-linejoin="round"/>
</g>
<defs>
<clipPath id="clip0">
<rect width="1004.27" height="541.47" fill="white"/>
</clipPath>
</defs>
</svg>
