<svg width="1120" height="919" viewBox="0 0 1120 919" fill="none" xmlns="http://www.w3.org/2000/svg">
<path d="M727.199 119.324C727.953 109.869 728.357 100.792 729.085 93.0072C729.893 84.4685 731.617 75.9567 732.398 67.4719C732.452 66.8793 732.506 66.2867 732.559 65.6941" stroke="#C8CEDB" stroke-width="10.1061" stroke-miterlimit="10" stroke-linecap="round" stroke-linejoin="round"/>
<path d="M731.777 87.2424C742.89 87.2424 751.899 78.2339 751.899 67.1212C751.899 56.0086 742.89 47 731.777 47C720.665 47 711.656 56.0086 711.656 67.1212C711.656 78.2339 720.665 87.2424 731.777 87.2424Z" fill="white" stroke="#7937C4" stroke-width="10.1061" stroke-miterlimit="10" stroke-linecap="round" stroke-linejoin="round"/>
<path d="M715.4 169.802C721.515 158.596 724.424 144.805 726.067 131.068C726.525 127.135 726.902 123.202 727.198 119.323" stroke="#C8CEDB" stroke-width="10.1061" stroke-miterlimit="10" stroke-linecap="round" stroke-linejoin="round"/>
<path d="M726.768 128.697C732.347 128.697 736.869 124.175 736.869 118.596C736.869 113.017 732.347 108.495 726.768 108.495C721.189 108.495 716.667 113.017 716.667 118.596C716.667 124.175 721.189 128.697 726.768 128.697Z" fill="#404366"/>
<path d="M677.421 220.334C681.838 204.926 691.158 196.037 703.603 184.455C704.33 183.781 705.057 183.108 705.785 182.435C709.663 178.825 712.815 174.542 715.401 169.802" stroke="#C8CEDB" stroke-width="10.1061" stroke-miterlimit="10" stroke-linecap="round" stroke-linejoin="round"/>
<path d="M715.401 181.115C720.979 181.115 725.502 176.592 725.502 171.014C725.502 165.435 720.979 160.913 715.401 160.913C709.822 160.913 705.3 165.435 705.3 171.014C705.3 176.592 709.822 181.115 715.401 181.115Z" fill="#404366"/>
<path d="M679.145 284.522C676.506 271 674.243 258.61 674.297 245.33C674.324 239.727 674.755 233.963 675.751 227.876C676.182 225.182 676.748 222.677 677.421 220.333" stroke="#C8CEDB" stroke-width="10.1061" stroke-miterlimit="10" stroke-linecap="round" stroke-linejoin="round"/>
<path d="M678.283 232.105C683.861 232.105 688.384 227.582 688.384 222.004C688.384 216.425 683.861 211.903 678.283 211.903C672.704 211.903 668.182 216.425 668.182 222.004C668.182 227.582 672.704 232.105 678.283 232.105Z" fill="#404366"/>
<path d="M683.859 340.28C684.64 332.523 684.721 324.9 684.155 316.954C683.67 310.139 682.7 303.108 681.3 295.593C680.599 291.795 679.872 288.105 679.172 284.496" stroke="#C8CEDB" stroke-width="10.1061" stroke-miterlimit="10" stroke-linecap="round" stroke-linejoin="round"/>
<path d="M679.226 294.623C684.805 294.623 689.327 290.101 689.327 284.522C689.327 278.944 684.805 274.421 679.226 274.421C673.647 274.421 669.125 278.944 669.125 284.522C669.125 290.101 673.647 294.623 679.226 294.623Z" fill="#404366"/>
<path d="M672.033 388.522C674 381.68 676.262 374.919 678.255 368.051C681.111 358.219 682.942 349.168 683.858 340.28" stroke="#C8CEDB" stroke-width="10.1061" stroke-miterlimit="10" stroke-linecap="round" stroke-linejoin="round"/>
<path d="M684.155 350.408C689.733 350.408 694.256 345.885 694.256 340.307C694.256 334.728 689.733 330.206 684.155 330.206C678.576 330.206 674.054 334.728 674.054 340.307C674.054 345.885 678.576 350.408 684.155 350.408Z" fill="#404366"/>
<path d="M668.317 439.62C667.913 428.98 666.431 418.421 667.859 407.593C668.721 401.101 670.256 394.798 672.034 388.549" stroke="#C8CEDB" stroke-width="10.1061" stroke-miterlimit="10" stroke-linecap="round" stroke-linejoin="round"/>
<path d="M670.849 397.896C676.428 397.896 680.95 393.373 680.95 387.795C680.95 382.216 676.428 377.694 670.849 377.694C665.27 377.694 660.748 382.216 660.748 387.795C660.748 393.373 665.27 397.896 670.849 397.896Z" fill="#404366"/>
<path d="M652.882 489.667C658.323 482.798 662.606 475.067 665.272 466.34C666.808 461.33 667.831 455.97 668.208 450.286C668.451 446.704 668.424 443.148 668.289 439.593" stroke="#C8CEDB" stroke-width="10.1061" stroke-miterlimit="10" stroke-linecap="round" stroke-linejoin="round"/>
<path d="M668.666 449.452C674.245 449.452 678.767 444.929 678.767 439.351C678.767 433.772 674.245 429.25 668.666 429.25C663.088 429.25 658.565 433.772 658.565 439.351C658.565 444.929 663.088 449.452 668.666 449.452Z" fill="#404366"/>
<path d="M462.283 624.482C471.441 614.838 482.593 609.559 493.448 601.559C506.674 591.835 520.007 582.246 533.098 572.441C542.229 565.599 544.95 556.603 552.95 549.034C565.61 537.128 581.367 533.33 596.775 527.269C599.846 526.057 602.943 524.791 605.987 523.418C623.792 515.445 641.031 504.616 652.883 489.667" stroke="#C8CEDB" stroke-width="10.1061" stroke-miterlimit="10" stroke-linecap="round" stroke-linejoin="round"/>
<path d="M652.882 500.98C658.461 500.98 662.983 496.457 662.983 490.879C662.983 485.3 658.461 480.778 652.882 480.778C647.304 480.778 642.781 485.3 642.781 490.879C642.781 496.457 647.304 500.98 652.882 500.98Z" fill="#404366"/>
<path d="M462.283 624.482C460.936 625.883 459.643 627.391 458.404 629.007C449.892 640.051 452.155 655.701 455.468 668.738C459.05 682.906 470.552 694.408 476.263 707.58" stroke="#C8CEDB" stroke-width="10.1061" stroke-miterlimit="10" stroke-linecap="round" stroke-linejoin="round"/>
<path d="M461.449 634.583C467.027 634.583 471.55 630.061 471.55 624.482C471.55 618.903 467.027 614.381 461.449 614.381C455.87 614.381 451.348 618.903 451.348 624.482C451.348 630.061 455.87 634.583 461.449 634.583Z" fill="#404366"/>
<path d="M476.262 707.58C477.663 710.812 478.714 714.125 479.199 717.627C481.084 731.014 462.417 751.081 448.545 752.24C446.498 752.401 444.451 752.105 442.377 751.62" stroke="#C8CEDB" stroke-width="10.1061" stroke-miterlimit="10" stroke-linecap="round" stroke-linejoin="round"/>
<path d="M475.94 717.95C481.519 717.95 486.041 713.427 486.041 707.849C486.041 702.27 481.519 697.748 475.94 697.748C470.361 697.748 465.839 702.27 465.839 707.849C465.839 713.427 470.361 717.95 475.94 717.95Z" fill="#404366"/>
<path d="M442.377 751.62C438.148 750.623 433.892 748.791 429.663 748.333C420.693 747.418 411.831 748.899 402.888 748.98C392.33 749.061 379.104 748.36 369.326 752.535" stroke="#C8CEDB" stroke-width="10.1061" stroke-miterlimit="10" stroke-linecap="round" stroke-linejoin="round"/>
<path d="M442.943 761.667C448.521 761.667 453.044 757.144 453.044 751.566C453.044 745.987 448.521 741.465 442.943 741.465C437.364 741.465 432.842 745.987 432.842 751.566C432.842 757.144 437.364 761.667 442.943 761.667Z" fill="#404366"/>
<path d="M369.299 752.536C368.006 753.102 366.74 753.721 365.582 754.475C362.161 756.63 361.353 760.32 356.397 761.883C349.636 764.011 341.151 762.206 334.148 762.556C322.7 763.095 308.801 761.559 298.889 768.617C293.555 772.415 286.66 776.428 280.168 781.088" stroke="#C8CEDB" stroke-width="10.1061" stroke-miterlimit="10" stroke-linecap="round" stroke-linejoin="round"/>
<path d="M369.677 763.984C375.256 763.984 379.778 759.461 379.778 753.883C379.778 748.304 375.256 743.781 369.677 743.781C364.099 743.781 359.576 748.304 359.576 753.883C359.576 759.461 364.099 763.984 369.677 763.984Z" fill="#404366"/>
<path d="M280.169 781.06C270.984 787.66 262.633 795.552 260.829 805.895C259.644 812.629 263.199 818.124 262.741 825.37C262.149 834.905 257.596 844.656 253.448 854.246" stroke="#C8CEDB" stroke-width="10.1061" stroke-miterlimit="10" stroke-linecap="round" stroke-linejoin="round"/>
<path d="M280.411 790.219C285.989 790.219 290.512 785.697 290.512 780.118C290.512 774.539 285.989 770.017 280.411 770.017C274.832 770.017 270.31 774.539 270.31 780.118C270.31 785.697 274.832 790.219 280.411 790.219Z" fill="#404366"/>
<path d="M253.394 854.246C251.185 859.337 249.084 864.374 247.764 869.276C243.185 886.354 228.613 894.973 226 913.209" stroke="#7937C4" stroke-width="10.1061" stroke-miterlimit="10" stroke-linecap="round" stroke-linejoin="round"/>
<path d="M253.394 864.347C258.973 864.347 263.495 859.825 263.495 854.246C263.495 848.668 258.973 844.145 253.394 844.145C247.815 844.145 243.293 848.668 243.293 854.246C243.293 859.825 247.815 864.347 253.394 864.347Z" fill="white" stroke="#7937C4" stroke-width="5.38721" stroke-miterlimit="10" stroke-linecap="round" stroke-linejoin="round"/>
<path d="M853.683 42.9546C855.048 41.59 855.048 39.3779 853.683 38.0137C852.319 36.6491 850.107 36.6491 848.742 38.0137L846.246 40.51C844.882 41.8742 844.882 44.0863 846.246 45.4509C847.61 46.8152 849.822 46.8152 851.187 45.4509L853.683 42.9546Z" stroke="#7937C4" stroke-width="2.71364" stroke-linecap="round" stroke-linejoin="round"/>
<path d="M858.642 47.9004C860.007 46.5361 860.007 44.3237 858.642 42.9595C857.278 41.5952 855.066 41.5952 853.701 42.9595L851.205 45.4558C849.84 46.82 849.84 49.0321 851.205 50.3967C852.569 51.7609 854.781 51.7609 856.146 50.3967L858.642 47.9004Z" stroke="#7937C4" stroke-width="2.71364" stroke-linecap="round" stroke-linejoin="round"/>
<path d="M862.781 53.6345C864.145 52.2699 864.145 50.0579 862.781 48.6936C861.416 47.329 859.204 47.329 857.84 48.6936L855.344 51.1896C853.979 52.5542 853.979 54.7662 855.344 56.1305C856.708 57.4951 858.92 57.4951 860.284 56.1305L862.781 53.6345Z" stroke="#7937C4" stroke-width="2.71364" stroke-linecap="round" stroke-linejoin="round"/>
<path d="M847.51 39.2704C846.678 38.4383 845.549 37.9707 844.372 37.9707C843.194 37.9707 842.065 38.4383 841.233 39.2704L833.244 47.2405V53.373L805.403 78.9756" stroke="#7937C4" stroke-width="2.71364" stroke-linecap="round" stroke-linejoin="round"/>
<path d="M850.186 48.2587C850.039 48.8836 849.678 49.4378 849.167 49.8262C848.656 50.2146 848.025 50.4129 847.384 50.3876C846.084 50.1893 844.879 49.5841 843.945 48.6589C842.962 47.7854 842.252 47.2211 841.47 46.439" stroke="#7937C4" stroke-width="2.71364" stroke-linecap="round" stroke-linejoin="round"/>
<path d="M860.013 56.3203L854.845 63.2714C854.4 63.7204 853.87 64.0767 853.285 64.3203C852.701 64.5639 852.075 64.6899 851.442 64.6906H847.348L832.136 83.9609" stroke="#7937C4" stroke-width="2.71364" stroke-linecap="round" stroke-linejoin="round"/>
<path d="M844.253 48.9678C844.981 51.3599 844.865 53.9294 843.926 56.2466" stroke="#7937C4" stroke-width="2.71364" stroke-linecap="round" stroke-linejoin="round"/>
<path d="M853.02 71.4231V77.4829" stroke="#7937C4" stroke-width="2.71364" stroke-linecap="round" stroke-linejoin="round"/>
<path d="M867.074 56.8489H873.115" stroke="#7937C4" stroke-width="2.71364" stroke-linecap="round" stroke-linejoin="round"/>
<path d="M861.285 64.145L865.561 68.4215" stroke="#7937C4" stroke-width="2.71364" stroke-linecap="round" stroke-linejoin="round"/>
<path d="M839.523 31.156V25.1147" stroke="#7937C4" stroke-width="2.71364" stroke-linecap="round" stroke-linejoin="round"/>
<path d="M825.475 45.7493H819.415" stroke="#7937C4" stroke-width="2.71364" stroke-linecap="round" stroke-linejoin="round"/>
<path d="M831.261 38.4504L826.967 34.1741" stroke="#7937C4" stroke-width="2.71364" stroke-linecap="round" stroke-linejoin="round"/>
<path d="M881.156 89.1466V44.6375L885.05 47.9131L889.654 42.6904L842.943 9.82739L796.305 42.6904L800.836 47.9131L804.73 44.6375V89.1466" stroke="#7937C4" stroke-width="2.71364" stroke-linecap="round" stroke-linejoin="round"/>
<path d="M795.65 89.1475H890.51" stroke="#7937C4" stroke-width="2.71364" stroke-linecap="round" stroke-linejoin="round"/>
<path d="M798.081 0.59375L793.191 5.48319L820.418 32.7097L825.307 27.8203L798.081 0.59375Z" fill="#7937C4"/>
<path d="M870.748 73.0994L865.858 77.9889L893.085 105.215L897.974 100.326L870.748 73.0994Z" fill="#7937C4"/>
<text fill="#1E1E1E" xml:space="preserve" style="white-space: pre" font-family="Titillium Web" font-size="40" font-weight="600" letter-spacing="0px"><tspan x="792" y="165.9">F&#x103;r&#x103; violen&#x21b;&#x103; acas&#x103;</tspan></text>
<text fill="#404366" xml:space="preserve" style="white-space: pre" font-family="Titillium Web" font-size="20" font-weight="600" letter-spacing="0px"><tspan x="0.300781" y="852.95">Software de management&#x2028;</tspan><tspan x="36.0039" y="877.95">de caz pentru ONGuri&#13; </tspan></text>
<text fill="#404366" xml:space="preserve" style="white-space: pre" font-family="Titillium Web" font-size="20" font-weight="600" letter-spacing="0px"><tspan x="292" y="827.95">Software de management&#13;&#x2028;</tspan><tspan x="292" y="852.95">de caz integrat&#13;</tspan></text>
<text fill="#404366" xml:space="preserve" style="white-space: pre" font-family="Titillium Web" font-size="20" font-weight="600" letter-spacing="0px"><tspan x="150" y="732.95">Hub Violen&#x21b;&#x103; Domestic&#x103;</tspan></text>
<text fill="#404366" xml:space="preserve" style="white-space: pre" font-family="Titillium Web" font-size="20" font-weight="600" letter-spacing="0px"><tspan x="457" y="787.95">Banca de resurse&#13;</tspan></text>
<text fill="#404366" xml:space="preserve" style="white-space: pre" font-family="Titillium Web" font-size="20" font-weight="600" letter-spacing="0px"><tspan x="507" y="707.95">Incognito Escape&#13;</tspan></text>
<text fill="#404366" xml:space="preserve" style="white-space: pre" font-family="Titillium Web" font-size="20" font-weight="600" letter-spacing="0px"><tspan x="296" y="623.95">Website Chatbot&#13;</tspan></text>
<text fill="#404366" xml:space="preserve" style="white-space: pre" font-family="Titillium Web" font-size="20" font-weight="600" letter-spacing="0px"><tspan x="677" y="520.95">Vorbesc - helpline&#13;&#x2028;</tspan><tspan x="677" y="545.95">psihologic gratuit&#13;</tspan></text>
<text fill="#404366" xml:space="preserve" style="white-space: pre" font-family="Titillium Web" font-size="20" font-weight="600" letter-spacing="0px"><tspan x="467" y="450.95">Support Community&#13;</tspan></text>
<text fill="#404366" xml:space="preserve" style="white-space: pre" font-family="Titillium Web" font-size="20" font-weight="600" letter-spacing="0px"><tspan x="367" y="398.95">Widget Hub Violen&#x21b;&#x103; Domestic&#x103;</tspan></text>
<text fill="#404366" xml:space="preserve" style="white-space: pre" font-family="Titillium Web" font-size="20" font-weight="600" letter-spacing="0px"><tspan x="413" y="346.95">Daily Assessment Kit - scoli&#13;</tspan></text>
<text fill="#404366" xml:space="preserve" style="white-space: pre" font-family="Titillium Web" font-size="20" font-weight="600" letter-spacing="0px"><tspan x="369" y="289.95">Daily Assessment Kit - angajatori&#13;</tspan></text>
<text fill="#404366" xml:space="preserve" style="white-space: pre" font-family="Titillium Web" font-size="20" font-weight="600" letter-spacing="0px"><tspan x="353" y="226.95">Personal Assessment Kit - couples&#13;</tspan></text>
<text fill="#404366" xml:space="preserve" style="white-space: pre" font-family="Titillium Web" font-size="20" font-weight="600" letter-spacing="0px"><tspan x="503" y="166.95">Anger Management&#13;</tspan></text>
<text fill="#404366" xml:space="preserve" style="white-space: pre" font-family="Titillium Web" font-size="20" font-weight="600" letter-spacing="0px"><tspan x="439" y="114.95">Violen&#x21b;a Domestic&#x103; Media Kit </tspan></text>
</svg>
