<svg width="1200" height="1000" viewBox="0 0 1200 1000" fill="none" xmlns="http://www.w3.org/2000/svg">
<g id="segment-environment-01-pregatiti-pentru-urmatorul-dezastru-natural">
<g id="Group 1170">
<path id="Vector" d="M815.284 149.719C818.494 148.943 821.807 148.399 825.275 148.14C845.827 146.561 857.164 145.863 874.946 134.37C884.937 127.925 903.702 122.671 910.406 114" stroke="#1B771B" stroke-width="9.71121" stroke-miterlimit="10" stroke-linecap="round" stroke-linejoin="round"/>
<path id="Vector_2" d="M739.861 176.509C746.28 176.017 752.596 175.189 758.704 173.584C779.256 168.226 794.967 154.611 815.286 149.745" stroke="#1B771B" stroke-width="9.71121" stroke-miterlimit="10" stroke-linecap="round" stroke-linejoin="round"/>
<path id="Vector_3" d="M643.135 198.353C656.931 190.304 670.908 182.901 688.69 179.562C705.255 176.456 722.908 177.75 739.861 176.482" stroke="#1B771B" stroke-width="9.71121" stroke-miterlimit="10" stroke-linecap="round" stroke-linejoin="round"/>
<path id="Vector_4" d="M573.611 231.95C583.525 226.981 594.059 222.813 604.257 218.827C618.778 213.107 630.891 205.497 643.134 198.354" stroke="#1B771B" stroke-width="9.71121" stroke-miterlimit="10" stroke-linecap="round" stroke-linejoin="round"/>
<path id="Vector_5" d="M528.315 281.569C534.01 256.98 552.361 242.614 573.637 231.95" stroke="#1B771B" stroke-width="9.71121" stroke-miterlimit="10" stroke-linecap="round" stroke-linejoin="round"/>
<path id="Vector_6" d="M522.258 341.204C523.474 324.691 525.26 307.401 526.813 290.861C527.124 287.626 527.616 284.52 528.289 281.569" stroke="#1B771B" stroke-width="9.71121" stroke-miterlimit="10" stroke-linecap="round" stroke-linejoin="round"/>
<path id="Vector_7" d="M547.573 425.171C538.099 417.25 528.108 410.21 523.708 396.802C519.308 383.447 520.964 360.747 521.87 346.666C522 344.854 522.129 343.017 522.259 341.179" stroke="#1B771B" stroke-width="9.71121" stroke-miterlimit="10" stroke-linecap="round" stroke-linejoin="round"/>
<path id="Vector_8" d="M575.086 488.998C571.566 483.589 568.615 478.335 566.933 473.313C562.455 459.931 567.994 448.569 560.048 437.749C556.45 432.857 552.075 428.923 547.598 425.17" stroke="#1B771B" stroke-width="9.71121" stroke-miterlimit="10" stroke-linecap="round" stroke-linejoin="round"/>
<path id="Vector_9" d="M587.536 568.047C591.341 565.925 594.784 562.715 597.657 557.927C611.634 534.632 589.012 510.482 575.061 488.999" stroke="#1B771B" stroke-width="9.71121" stroke-miterlimit="10" stroke-linecap="round" stroke-linejoin="round"/>
<path id="Vector_10" d="M323.992 769.783C327.021 768.048 329.971 766.185 332.818 764.166C344.388 755.961 356.114 747.704 367.968 739.68C373.973 735.616 380.004 731.63 386.087 727.722C396 721.355 405.81 718.482 416.293 713.641C426.775 708.801 427.914 702.149 434.903 694.384C438.63 690.243 442.512 686.283 446.395 682.374C455.946 672.771 465.6 663.402 473.417 652.065C482.735 638.528 486.592 622.868 493.839 608.451C494.538 607.079 495.237 605.733 495.988 604.387C505.849 586.89 525.443 568.616 546.201 569.626C559.454 570.273 575.346 574.777 587.511 568.047" stroke="#C8CEDB" stroke-width="9.71121" stroke-miterlimit="10" stroke-linecap="round" stroke-linejoin="round"/>
<path id="Vector_11" d="M322.335 785.002C333.013 785.002 341.67 776.345 341.67 765.667C341.67 754.989 333.013 746.332 322.335 746.332C311.657 746.332 303 754.989 303 765.667C303 776.345 311.657 785.002 322.335 785.002Z" fill="white" stroke="#1B771B" stroke-width="9.71121" stroke-miterlimit="10" stroke-linecap="round" stroke-linejoin="round"/>
<path id="Vector_12" d="M380.805 739.68C386.166 739.68 390.511 735.335 390.511 729.974C390.511 724.613 386.166 720.268 380.805 720.268C375.444 720.268 371.099 724.613 371.099 729.974C371.099 735.335 375.444 739.68 380.805 739.68Z" fill="#404366"/>
<path id="Vector_13" d="M436.714 700.001C442.075 700.001 446.42 695.655 446.42 690.294C446.42 684.934 442.075 680.588 436.714 680.588C431.353 680.588 427.008 684.934 427.008 690.294C427.008 695.655 431.353 700.001 436.714 700.001Z" fill="#404366"/>
<path id="Vector_14" d="M475.072 661.175C480.433 661.175 484.779 656.83 484.779 651.469C484.779 646.108 480.433 641.763 475.072 641.763C469.712 641.763 465.366 646.108 465.366 651.469C465.366 656.83 469.712 661.175 475.072 661.175Z" fill="#404366"/>
<path id="Vector_15" d="M493.813 618.157C499.173 618.157 503.519 613.811 503.519 608.451C503.519 603.09 499.173 598.745 493.813 598.745C488.452 598.745 484.106 603.09 484.106 608.451C484.106 613.811 488.452 618.157 493.813 618.157Z" fill="#404366"/>
<path id="Vector_16" d="M587.536 577.028C592.897 577.028 597.243 572.682 597.243 567.322C597.243 561.961 592.897 557.615 587.536 557.615C582.176 557.615 577.83 561.961 577.83 567.322C577.83 572.682 582.176 577.028 587.536 577.028Z" fill="white" stroke="#1B771B" stroke-width="5.17669" stroke-miterlimit="10" stroke-linecap="round" stroke-linejoin="round"/>
<path id="Vector_17" d="M573.818 499.223C579.178 499.223 583.524 494.878 583.524 489.517C583.524 484.156 579.178 479.811 573.818 479.811C568.457 479.811 564.111 484.156 564.111 489.517C564.111 494.878 568.457 499.223 573.818 499.223Z" fill="white" stroke="#1B771B" stroke-width="5.17669" stroke-miterlimit="10" stroke-linecap="round" stroke-linejoin="round"/>
<path id="Vector_18" d="M547.78 434.876C553.14 434.876 557.486 430.531 557.486 425.17C557.486 419.81 553.14 415.464 547.78 415.464C542.419 415.464 538.073 419.81 538.073 425.17C538.073 430.531 542.419 434.876 547.78 434.876Z" fill="white" stroke="#1B771B" stroke-width="5.17669" stroke-miterlimit="10" stroke-linecap="round" stroke-linejoin="round"/>
<path id="Vector_19" d="M521.275 352.515C526.635 352.515 530.981 348.17 530.981 342.809C530.981 337.448 526.635 333.103 521.275 333.103C515.914 333.103 511.568 337.448 511.568 342.809C511.568 348.17 515.914 352.515 521.275 352.515Z" fill="white" stroke="#1B771B" stroke-width="5.17669" stroke-miterlimit="10" stroke-linecap="round" stroke-linejoin="round"/>
<path id="Vector_20" d="M526.736 290.603C532.096 290.603 536.442 286.257 536.442 280.897C536.442 275.536 532.096 271.19 526.736 271.19C521.375 271.19 517.029 275.536 517.029 280.897C517.029 286.257 521.375 290.603 526.736 290.603Z" fill="white" stroke="#1B771B" stroke-width="5.17669" stroke-miterlimit="10" stroke-linecap="round" stroke-linejoin="round"/>
<path id="Vector_21" d="M573.818 242.045C579.178 242.045 583.524 237.699 583.524 232.339C583.524 226.978 579.178 222.632 573.818 222.632C568.457 222.632 564.111 226.978 564.111 232.339C564.111 237.699 568.457 242.045 573.818 242.045Z" fill="white" stroke="#1B771B" stroke-width="5.17669" stroke-miterlimit="10" stroke-linecap="round" stroke-linejoin="round"/>
<path id="Vector_22" d="M641.788 208.06C647.149 208.06 651.495 203.714 651.495 198.354C651.495 192.993 647.149 188.647 641.788 188.647C636.428 188.647 632.082 192.993 632.082 198.354C632.082 203.714 636.428 208.06 641.788 208.06Z" fill="white" stroke="#1B771B" stroke-width="5.17669" stroke-miterlimit="10" stroke-linecap="round" stroke-linejoin="round"/>
<path id="Vector_23" d="M740.663 183.782C746.024 183.782 750.37 179.436 750.37 174.075C750.37 168.715 746.024 164.369 740.663 164.369C735.303 164.369 730.957 168.715 730.957 174.075C730.957 179.436 735.303 183.782 740.663 183.782Z" fill="white" stroke="#1B771B" stroke-width="5.17669" stroke-miterlimit="10" stroke-linecap="round" stroke-linejoin="round"/>
<path id="Vector_24" d="M815.311 159.503C820.671 159.503 825.017 155.157 825.017 149.797C825.017 144.436 820.671 140.09 815.311 140.09C809.95 140.09 805.604 144.436 805.604 149.797C805.604 155.157 809.95 159.503 815.311 159.503Z" fill="white" stroke="#1B771B" stroke-width="5.17669" stroke-miterlimit="10" stroke-linecap="round" stroke-linejoin="round"/>
<text id="Preg&#196;&#131;ti&#200;&#155;i pentru &#226;&#128;&#168;urm&#196;&#131;torul dezastru natural" fill="#1E1E1E" xml:space="preserve" style="white-space: pre" font-family="Titillium Web" font-size="40" font-weight="600" letter-spacing="0px"><tspan x="431" y="849.9">Preg&#x103;ti&#x21b;i pentru &#x2028;</tspan><tspan x="431" y="891.9">urm&#x103;torul dezastru natural</tspan></text>
<g id="icon-pregatiti-pentru-urmatorul-dezastru-natural 1">
<path id="Vector_25" d="M339.998 883.481L322.593 895.207L305.172 883.481C301.362 880.924 298.24 877.469 296.081 873.42C293.922 869.371 292.793 864.853 292.793 860.264V825.555L322.593 819.793L352.461 825.555V860.264C352.45 864.86 351.308 869.382 349.134 873.432C346.96 877.481 343.822 880.933 339.998 883.481Z" stroke="#1B771B" stroke-width="2.09483" stroke-linecap="round" stroke-linejoin="round"/>
<path id="Vector_26" d="M322.593 836.058V881.571" stroke="#1B771B" stroke-width="2.09483" stroke-linecap="round" stroke-linejoin="round"/>
<path id="Vector_27" d="M322.594 888.609L308.205 878.96C305.055 876.85 302.473 873.996 300.688 870.651C298.903 867.305 297.969 863.572 297.97 859.78V831.102L322.594 826.345" stroke="#1B771B" stroke-width="2.09483" stroke-linecap="round" stroke-linejoin="round"/>
<path id="Vector_28" d="M338.64 829.443L347.217 831.119V859.78C347.214 863.573 346.277 867.307 344.489 870.652C342.701 873.997 340.117 876.85 336.965 878.96" stroke="#1B771B" stroke-width="2.09483" stroke-linecap="round" stroke-linejoin="round"/>
<path id="Vector_29" d="M396.465 882.978C387.855 882.978 387.855 891.605 379.245 891.605C370.635 891.605 370.635 882.978 362.025 882.978C353.414 882.978 353.414 891.605 344.804 891.605C336.194 891.605 336.194 882.978 327.584 882.978V850.984C336.194 850.984 336.194 859.61 344.804 859.61C353.414 859.61 353.414 850.984 362.025 850.984C370.635 850.984 370.635 859.527 379.261 859.527C387.888 859.527 387.855 850.984 396.465 850.984V882.978Z" fill="white"/>
<path id="Vector_30" d="M396.465 850.984C387.855 850.984 387.855 859.527 379.261 859.527C370.668 859.527 370.635 850.984 362.025 850.984C353.414 850.984 353.414 859.527 344.804 859.527C336.194 859.527 336.194 850.984 327.584 850.984" stroke="#1B771B" stroke-width="2.09483" stroke-linecap="round" stroke-linejoin="round"/>
<path id="Vector_31" d="M327.584 866.932C336.194 866.932 336.194 875.576 344.804 875.576C353.414 875.576 353.414 866.932 362.025 866.932C370.635 866.932 370.635 875.576 379.261 875.576C387.888 875.576 387.871 866.932 396.482 866.932" stroke="#1B771B" stroke-width="2.09483" stroke-linecap="round" stroke-linejoin="round"/>
<path id="Vector_32" d="M327.584 882.979C336.194 882.979 336.194 891.606 344.804 891.606C353.414 891.606 353.414 882.979 362.025 882.979C370.635 882.979 370.635 891.606 379.261 891.606C387.888 891.606 387.871 882.979 396.482 882.979" stroke="#1B771B" stroke-width="2.09483" stroke-linecap="round" stroke-linejoin="round"/>
</g>
<text id="RVM" fill="#1E1E1E" xml:space="preserve" style="white-space: pre" font-family="Titillium Web" font-size="20" font-weight="600" letter-spacing="0px"><tspan x="759" y="124.45">RVM&#13;</tspan></text>
<text id="Voluntar DRM" fill="#1E1E1E" xml:space="preserve" style="white-space: pre" font-family="Titillium Web" font-size="20" font-weight="600" letter-spacing="0px"><tspan x="745" y="214.45">Voluntar DRM</tspan></text>
<text id="Stiri Oficiale" fill="#1E1E1E" xml:space="preserve" style="white-space: pre" font-family="Titillium Web" font-size="20" font-weight="600" letter-spacing="0px"><tspan x="512" y="177.45">Stiri Oficiale&#13;</tspan></text>
<text id="HelpRo (Covid19 RoHelp)" fill="#1E1E1E" xml:space="preserve" style="white-space: pre" font-family="Titillium Web" font-size="20" font-weight="600" letter-spacing="0px"><tspan x="592" y="260.45">HelpRo (Covid19 RoHelp)</tspan></text>
<text id="Sprijin Diaspora&#226;&#128;&#168;(Covid19 Diaspora Hub)" fill="#1E1E1E" xml:space="preserve" style="white-space: pre" font-family="Titillium Web" font-size="20" font-weight="600" letter-spacing="0px"><tspan x="359.508" y="264.45">Sprijin Diaspora&#x2028;</tspan><tspan x="294.312" y="294.45">(Covid19 Diaspora Hub)</tspan></text>
<text id="Jurnal Medical" fill="#1E1E1E" xml:space="preserve" style="white-space: pre" font-family="Titillium Web" font-size="20" font-weight="600" letter-spacing="0px"><tspan x="549" y="346.45">Jurnal Medical&#13;</tspan></text>
<text id="Ce Trebuie S&#196;&#131; Fac" fill="#1E1E1E" xml:space="preserve" style="white-space: pre" font-family="Titillium Web" font-size="20" font-weight="600" letter-spacing="0px"><tspan x="366" y="437.45">Ce Trebuie S&#x103; Fac&#13;</tspan></text>
<text id="Data la zi" fill="#1E1E1E" xml:space="preserve" style="white-space: pre" font-family="Titillium Web" font-size="20" font-weight="600" letter-spacing="0px"><tspan x="604" y="479.45">Data la zi&#13;</tspan></text>
<text id="Cine ce face" fill="#1E1E1E" xml:space="preserve" style="white-space: pre" font-family="Titillium Web" font-size="20" font-weight="600" letter-spacing="0px"><tspan x="612" y="578.45">Cine ce face&#13;</tspan></text>
<text id="Widget Hub" fill="#1E1E1E" xml:space="preserve" style="white-space: pre" font-family="Titillium Web" font-size="20" font-weight="600" letter-spacing="0px"><tspan x="518" y="629.45">Widget Hub&#13;</tspan></text>
<text id="House to Home" fill="#1E1E1E" xml:space="preserve" style="white-space: pre" font-family="Titillium Web" font-size="20" font-weight="600" letter-spacing="0px"><tspan x="317" y="642.45">House to Home&#13;</tspan></text>
<text id="ABC Accesibilizare" fill="#1E1E1E" xml:space="preserve" style="white-space: pre" font-family="Titillium Web" font-size="20" font-weight="600" letter-spacing="0px"><tspan x="459" y="706.45">ABC Accesibilizare&#13;</tspan></text>
<text id="Alert&#196;&#131; Patrimoniu" fill="#1E1E1E" xml:space="preserve" style="white-space: pre" font-family="Titillium Web" font-size="20" font-weight="600" letter-spacing="0px"><tspan x="405" y="762.45">Alert&#x103; Patrimoniu</tspan></text>
</g>
</g>
</svg>
