<svg width="1200" height="1000" viewBox="0 0 1200 1000" fill="none" xmlns="http://www.w3.org/2000/svg">
<g id="segment-care-06-o-viata-buna-pentru-copiii-adoptati">
<g id="Group 1151">
<g id="Group 1143">
<path id="Vector" d="M822.253 499.208C805.445 503.474 783.553 522.275 765.902 510.499C758.52 505.569 755.684 496.27 750.371 489.195C738.646 473.561 716.754 470.496 697.264 469.295C677.773 468.095 656.137 466.588 642.598 452.513C638.409 448.144 635.293 442.806 630.695 438.872C624.334 433.405 620.272 436.343 613.426 435.347C607.756 434.504 601.012 430.314 595.903 427.76C578.43 419.024 577 409.087 567.242 393.019C553.984 371.128 520.776 360.399 497.352 355.29C467.72 348.802 437.731 342.518 407.869 337" stroke="#7937C4" stroke-width="9.58407" stroke-miterlimit="10" stroke-linejoin="round" stroke-dasharray="11.98 11.98"/>
<path id="Vector_2" d="M823.582 518.291C834.12 518.291 842.664 509.747 842.664 499.209C842.664 488.67 834.12 480.127 823.582 480.127C813.043 480.127 804.5 488.67 804.5 499.209C804.5 509.747 813.043 518.291 823.582 518.291Z" fill="white" stroke="#7937C4" stroke-width="9.58407" stroke-miterlimit="10" stroke-linecap="round" stroke-linejoin="round"/>
</g>
<g id="icon-o-viata-buna-pentru-copiii-abandonati 1" clip-path="url(#clip0)">
<path id="Vector_3" d="M807.492 569.91C810.974 569.91 813.797 567.088 813.797 563.606C813.797 560.124 810.974 557.301 807.492 557.301C804.01 557.301 801.188 560.124 801.188 563.606C801.188 567.088 804.01 569.91 807.492 569.91Z" stroke="#7937C4" stroke-width="2.75" stroke-linecap="round" stroke-linejoin="round"/>
<path id="Vector_4" d="M801.184 582.838L797.008 594.891H807.489" stroke="#7937C4" stroke-width="2.75" stroke-linecap="round" stroke-linejoin="round"/>
<path id="Vector_5" d="M813.813 582.838L817.99 594.891H807.488" stroke="#7937C4" stroke-width="2.75" stroke-linecap="round" stroke-linejoin="round"/>
<path id="Vector_6" d="M806.378 594.891H802.52V608.574H806.378V594.891Z" stroke="#7937C4" stroke-width="2.75" stroke-linecap="round" stroke-linejoin="round"/>
<path id="Vector_7" d="M812.858 594.891H809V608.574H812.858V594.891Z" stroke="#7937C4" stroke-width="2.75" stroke-linecap="round" stroke-linejoin="round"/>
<path id="Vector_8" d="M787.383 567.543C787.398 567.202 787.502 566.87 787.682 566.58C787.863 566.291 788.116 566.052 788.416 565.888C788.715 565.724 789.052 565.641 789.394 565.645C789.736 565.649 790.07 565.741 790.366 565.912L802.578 573.868C802.865 573.964 803.126 574.125 803.341 574.338C803.557 574.55 803.721 574.81 803.821 575.095C803.921 575.381 803.955 575.686 803.919 575.986C803.884 576.287 803.78 576.575 803.616 576.83C803.452 577.084 803.232 577.298 802.973 577.455C802.714 577.611 802.423 577.707 802.121 577.734C801.82 577.761 801.516 577.719 801.233 577.61C800.95 577.502 800.696 577.331 800.49 577.11L788.198 569.154C787.945 568.969 787.739 568.726 787.597 568.446C787.455 568.166 787.382 567.857 787.383 567.543Z" fill="white" stroke="#7937C4" stroke-width="2.75" stroke-linecap="round" stroke-linejoin="round"/>
<path id="Vector_9" d="M823.022 562.253C822.702 562.214 822.377 562.253 822.075 562.368C821.774 562.482 821.505 562.668 821.291 562.909L811.764 573.868C811.52 574.042 811.319 574.268 811.175 574.531C811.031 574.793 810.948 575.085 810.932 575.384C810.917 575.683 810.969 575.982 811.085 576.258C811.201 576.534 811.377 576.78 811.602 576.978C811.826 577.176 812.092 577.321 812.38 577.402C812.669 577.483 812.972 577.498 813.266 577.446C813.561 577.394 813.84 577.275 814.083 577.1C814.326 576.925 814.526 576.697 814.668 576.434L824.195 565.435C824.516 565.041 824.674 564.54 824.637 564.033C824.6 563.527 824.371 563.053 823.996 562.71C823.719 562.471 823.382 562.313 823.022 562.253Z" fill="white" stroke="#7937C4" stroke-width="2.75" stroke-linecap="round" stroke-linejoin="round"/>
<path id="Vector_10" d="M822.723 562.253C823.043 562.214 823.368 562.253 823.669 562.368C823.97 562.482 824.24 562.668 824.453 562.909L833.94 573.868C834.195 574.035 834.407 574.259 834.562 574.521C834.716 574.784 834.808 575.078 834.831 575.382C834.854 575.686 834.807 575.991 834.693 576.273C834.579 576.556 834.402 576.808 834.175 577.012C833.948 577.215 833.678 577.363 833.384 577.445C833.091 577.528 832.783 577.541 832.483 577.485C832.184 577.43 831.901 577.306 831.657 577.123C831.413 576.941 831.214 576.705 831.076 576.434L821.549 565.435C821.228 565.041 821.07 564.54 821.107 564.033C821.144 563.527 821.373 563.053 821.748 562.71C822.02 562.465 822.36 562.305 822.723 562.253Z" fill="white" stroke="#7937C4" stroke-width="2.75" stroke-linecap="round" stroke-linejoin="round"/>
<path id="Vector_11" d="M838.098 569.91C841.58 569.91 844.403 567.088 844.403 563.606C844.403 560.124 841.58 557.301 838.098 557.301C834.616 557.301 831.793 560.124 831.793 563.606C831.793 567.088 834.616 569.91 838.098 569.91Z" stroke="#7937C4" stroke-width="2.75" stroke-linecap="round" stroke-linejoin="round"/>
<path id="Vector_12" d="M858.242 567.543C858.237 567.862 858.154 568.175 858.002 568.456C857.849 568.736 857.632 568.976 857.368 569.154L845.156 577.11C844.95 577.343 844.692 577.525 844.403 577.64C844.114 577.756 843.803 577.802 843.493 577.775C843.183 577.748 842.884 577.649 842.619 577.486C842.354 577.322 842.132 577.099 841.969 576.834C841.807 576.569 841.708 576.269 841.683 575.959C841.657 575.649 841.704 575.337 841.82 575.049C841.937 574.761 842.119 574.504 842.353 574.298C842.587 574.093 842.866 573.946 843.167 573.868L855.378 565.913C855.803 565.68 856.298 565.61 856.77 565.716C857.243 565.823 857.66 566.097 857.944 566.489C858.14 566.806 858.244 567.171 858.242 567.543Z" fill="white" stroke="#7937C4" stroke-width="2.75" stroke-linecap="round" stroke-linejoin="round"/>
<path id="Vector_13" d="M844.403 587.711H831.793V594.891H844.403V587.711Z" stroke="#7937C4" stroke-width="2.75" stroke-linejoin="round"/>
<path id="Vector_14" d="M838.098 594.892V590.854" stroke="#7937C4" stroke-width="2.75" stroke-linejoin="round"/>
<path id="Vector_15" d="M806.374 608.574V613.825H798.418C798.416 613.104 798.653 612.402 799.092 611.83C799.531 611.258 800.147 610.847 800.844 610.663C801.126 610.567 801.422 610.519 801.72 610.523V608.534L806.374 608.574Z" stroke="#7937C4" stroke-width="2.75" stroke-linecap="round" stroke-linejoin="round"/>
<path id="Vector_16" d="M808.883 608.574V613.825H816.838C816.842 613.106 816.608 612.407 816.172 611.835C815.737 611.263 815.125 610.851 814.432 610.663C814.144 610.565 813.841 610.518 813.537 610.523V608.534L808.883 608.574Z" stroke="#7937C4" stroke-width="2.75" stroke-linecap="round" stroke-linejoin="round"/>
<path id="Vector_17" d="M836.862 594.891H833.004V608.574H836.862V594.891Z" stroke="#7937C4" stroke-width="2.75" stroke-linecap="round" stroke-linejoin="round"/>
<path id="Vector_18" d="M843.351 594.891H839.492V608.574H843.351V594.891Z" stroke="#7937C4" stroke-width="2.75" stroke-linecap="round" stroke-linejoin="round"/>
<path id="Vector_19" d="M836.846 608.574V613.825H828.891C828.887 613.106 829.121 612.407 829.557 611.835C829.992 611.263 830.603 610.851 831.297 610.663C831.585 610.567 831.888 610.519 832.192 610.523V608.534L836.846 608.574Z" stroke="#7937C4" stroke-width="2.75" stroke-linecap="round" stroke-linejoin="round"/>
<path id="Vector_20" d="M839.492 608.574V613.825H847.448C847.451 613.106 847.217 612.407 846.782 611.835C846.347 611.263 845.735 610.851 845.041 610.663C844.753 610.565 844.451 610.518 844.147 610.523V608.534L839.492 608.574Z" stroke="#7937C4" stroke-width="2.75" stroke-linecap="round" stroke-linejoin="round"/>
<path id="Vector_21" d="M813.797 573.371H801.188V582.858H813.797V573.371Z" fill="white" stroke="#7937C4" stroke-width="2.75" stroke-linecap="round" stroke-linejoin="round"/>
<path id="Vector_22" d="M844.403 573.371H831.793V587.731H844.403V573.371Z" fill="white" stroke="#7937C4" stroke-width="2.75" stroke-linecap="round" stroke-linejoin="round"/>
<path id="Vector_23" d="M838.417 638.29L817.832 636.301C815.366 636.042 812.641 635.665 811.11 633.736C810.337 632.491 810.021 631.016 810.217 629.564C810.413 628.113 811.108 626.775 812.184 625.78C814.401 623.812 817.108 622.48 820.02 621.921C830.107 619.255 840.516 618.003 850.947 618.202C852.53 618.123 854.112 618.372 855.594 618.933C857.076 619.494 858.426 620.356 859.559 621.464C861.727 623.87 870.398 643.342 874.038 649.865" stroke="#7937C4" stroke-width="2.75" stroke-linecap="round" stroke-linejoin="round"/>
<path id="Vector_24" d="M849.017 659.968L846.153 652.152L814.33 649.268C812.183 649.05 810.128 648.282 808.364 647.04L781.275 628.146C780.179 627.372 779.412 626.217 779.124 624.906C778.837 623.596 779.051 622.226 779.724 621.065C780.427 619.86 781.574 618.978 782.919 618.606C784.264 618.235 785.701 618.403 786.923 619.076L798.141 625.182C799.107 625.702 800.146 626.071 801.224 626.276L810.671 627.986" stroke="#7937C4" stroke-width="2.75" stroke-linecap="round" stroke-linejoin="round"/>
<path id="Vector_25" d="M787.203 619.216L787.521 618.599C787.881 617.902 788.489 617.365 789.227 617.096C789.964 616.827 790.775 616.846 791.499 617.148L801.782 621.742C802.047 621.843 802.32 621.922 802.597 621.981L814.531 623.969" stroke="#7937C4" stroke-width="2.75" stroke-linecap="round" stroke-linejoin="round"/>
</g>
<text id="O via&#200;&#155;&#196;&#131; bun&#196;&#131;&#226;&#128;&#168;pentru copiii abandona&#200;&#155;i" fill="#1E1E1E" xml:space="preserve" style="white-space: pre" font-family="Titillium Web" font-size="40" font-weight="600" letter-spacing="0px"><tspan x="522.641" y="603.201">O via&#x21b;&#x103; bun&#x103;</tspan><tspan x="321.781" y="645.201">pentru&#13;copiii abandona&#x21b;i</tspan></text>
</g>
</g>
<defs>
<clipPath id="clip0">
<rect width="104" height="108" fill="white" transform="translate(775 555.301)"/>
</clipPath>
</defs>
</svg>
