<svg width="648" height="425" viewBox="0 0 648 425" fill="none" xmlns="http://www.w3.org/2000/svg">
<path d="M118.626 22.9307C121.902 23.5402 125.255 24.2005 128.683 24.9371C152.989 30.1436 167.313 58.7666 189.612 67.3764C204.851 73.2432 213.587 79.1863 224.508 91.9358C231.264 99.8345 238.579 109.562 246.985 115.962C269.208 132.953 296.688 138.21 322.645 147.887C330.823 150.934 339.102 154.033 347.407 157.157C365.211 163.836 383.116 170.592 400.463 177.297C426.673 187.405 449.81 200.815 473.455 215.622C494.078 228.549 515.183 244.855 536.949 255.395C546.981 260.245 556.785 262.099 566.055 269.084C575.249 276.017 583.046 284.83 589.268 294.481C602.246 314.596 609.078 337.911 616.266 360.718C622.996 382.179 630.387 403.919 643.365 422.18" stroke="#1B771B" stroke-width="9.52891" stroke-miterlimit="10" stroke-linejoin="round" stroke-dasharray="11.91 11.91"/>
<path d="M119.972 42.9439C130.45 42.9439 138.944 34.4499 138.944 23.972C138.944 13.494 130.45 5 119.972 5C109.494 5 101 13.494 101 23.972C101 34.4499 109.494 42.9439 119.972 42.9439Z" fill="white" stroke="#1B771B" stroke-width="9.52891" stroke-miterlimit="10" stroke-linecap="round" stroke-linejoin="round"/>
<path d="M15.8633 159.208H136.136" stroke="#1B771B" stroke-width="2.14773" stroke-linecap="round" stroke-linejoin="round"/>
<path d="M116.898 159.209V120.25H97.4016V110.984H81.6215V83.8636H52.9087V159.209C52.9087 159.209 49.1768 152.903 38.5441 148.753C31.2605 146.155 23.5959 144.786 15.8633 144.7" stroke="#1B771B" stroke-width="2.14773" stroke-linecap="round" stroke-linejoin="round"/>
<path d="M84.9043 91.7917H108.486V120.183" stroke="#1B771B" stroke-width="2.14773" stroke-linecap="round" stroke-linejoin="round"/>
<path d="M26.6719 145.647V138.393H37.7389V101.348H48.1142" stroke="#1B771B" stroke-width="2.14773" stroke-linecap="round" stroke-linejoin="round"/>
<path d="M58.1357 91.7917H74.8809" stroke="#1B771B" stroke-width="2.14773" stroke-linecap="round" stroke-linejoin="round"/>
<path d="M58.1357 100.62H74.8809" stroke="#1B771B" stroke-width="2.14773" stroke-linecap="round" stroke-linejoin="round"/>
<path d="M58.1357 109.455H74.8809" stroke="#1B771B" stroke-width="2.14773" stroke-linecap="round" stroke-linejoin="round"/>
<path d="M117.106 127.342C118.34 126.178 119.889 125.404 121.561 125.118C123.232 124.832 124.95 125.046 126.501 125.733C128.064 126.467 129.374 127.649 130.263 129.129C131.153 130.61 131.581 132.321 131.495 134.046C131.409 135.771 130.812 137.431 129.779 138.815C128.746 140.199 127.325 141.245 125.696 141.819C127.017 141.729 128.32 142.156 129.332 143.009C129.859 143.435 130.278 143.978 130.558 144.596C130.837 145.213 130.968 145.887 130.94 146.564C130.917 146.934 130.836 147.298 130.699 147.642C130.44 148.241 130.011 148.752 129.465 149.109C128.919 149.467 128.279 149.656 127.627 149.652H117.122" stroke="#1B771B" stroke-width="2.14773" stroke-linecap="round" stroke-linejoin="round"/>
<path d="M120.984 134.514L121.419 158.755" stroke="#1B771B" stroke-width="2.14773" stroke-linecap="round" stroke-linejoin="round"/>
<path d="M37.4019 118.303C37.0058 117.803 36.5022 117.399 35.9286 117.121C35.3549 116.842 34.7259 116.697 34.0883 116.694C32.9132 116.622 31.7357 116.791 30.6288 117.192C29.5219 117.594 28.5094 118.218 27.654 119.027C26.7902 119.86 26.104 120.86 25.6368 121.966C25.1696 123.072 24.931 124.261 24.9355 125.461C24.0393 125.237 23.0997 125.255 22.2125 125.512C21.3252 125.769 20.522 126.257 19.8845 126.925C19.247 127.594 18.798 128.42 18.5833 129.318C18.3686 130.217 18.3957 131.156 18.6621 132.04C18.9434 132.912 19.4527 133.692 20.1372 134.3C20.8217 134.908 21.6564 135.322 22.5548 135.499C21.596 135.717 20.7068 136.171 19.968 136.82C19.2292 137.469 18.6642 138.292 18.3243 139.215C18.0174 140.15 17.9478 141.146 18.1219 142.115C18.296 143.084 18.7083 143.994 19.3216 144.764" stroke="#1B771B" stroke-width="2.14773" stroke-linecap="round" stroke-linejoin="round"/>
<path d="M68.0129 159.212C73.7431 159.212 78.3882 154.488 78.3882 148.66C78.3882 142.832 73.7431 138.108 68.0129 138.108C62.2828 138.108 57.6377 142.832 57.6377 148.66C57.6377 154.488 62.2828 159.212 68.0129 159.212Z" stroke="#1B771B" stroke-width="2.14773" stroke-linecap="round" stroke-linejoin="round"/>
<path d="M101.792 159.212C107.522 159.212 112.168 154.488 112.168 148.66C112.168 142.832 107.522 138.108 101.792 138.108C96.0624 138.108 91.417 142.832 91.417 148.66C91.417 154.488 96.0624 159.212 101.792 159.212Z" stroke="#1B771B" stroke-width="2.14773" stroke-linecap="round" stroke-linejoin="round"/>
<path d="M68.0127 148.658C69.795 147.397 71.4158 145.922 72.8385 144.267C73.685 143.161 74.4229 141.976 75.0424 140.728C75.9241 138.971 76.3814 137.031 76.3774 135.066V131.189H71.6965C71.1856 131.197 70.6976 131.403 70.3348 131.762C69.972 132.122 69.7624 132.609 69.7501 133.119C69.7481 133.377 69.7967 133.633 69.8932 133.871C69.99 134.11 70.1326 134.328 70.3133 134.512C70.4943 134.695 70.7094 134.842 70.9468 134.942C71.1839 135.043 71.4387 135.096 71.6965 135.098H73.305" stroke="#1B771B" stroke-width="2.14773" stroke-linecap="round" stroke-linejoin="round"/>
<path d="M76.3301 133.877H93.7189L86.1907 148.66L76.3301 133.877Z" stroke="#1B771B" stroke-width="2.14773" stroke-linecap="round" stroke-linejoin="round"/>
<path d="M93.7213 133.877L101.796 148.66H86.1934" stroke="#1B771B" stroke-width="2.14773" stroke-linecap="round" stroke-linejoin="round"/>
<path d="M90.4521 130.224H96.5165" stroke="#1B771B" stroke-width="2.14773" stroke-linecap="round" stroke-linejoin="round"/>
<text fill="#1E1E1E" xml:space="preserve" style="white-space: pre" font-family="Titillium Web" font-size="40" font-weight="600" letter-spacing="0px"><tspan x="0.242188" y="222.9">Ora&#x219;e prietenoase</tspan></text>
</svg>
