<svg width="1113" height="484" viewBox="0 0 1113 484" fill="none" xmlns="http://www.w3.org/2000/svg">
<path d="M440.012 258.404C443.085 263.214 446.533 267.837 450.275 272.165C451.023 273.021 451.772 273.876 452.52 274.704C461.153 284.164 469.572 293.677 478.819 302.789C484.138 308.027 487.051 314.333 489.163 321.04C493.786 335.738 494.428 352.225 507.47 362.727C513.511 367.59 521.048 370.156 527.649 374.137C532.113 376.863 536.255 380.043 539.997 383.704C551.463 394.901 561.566 407.994 571.054 421.355" stroke="#00B4CC" stroke-width="9.73285" stroke-miterlimit="10" stroke-linejoin="round" stroke-dasharray="12.17 12.17"/>
<path d="M203.024 5.02319C214.57 30.0084 227.907 55.9022 243.596 79.7117C254.233 95.8786 265.966 111.084 278.902 124.418C288.417 134.225 298.6 143.017 309.504 150.419C314.208 153.599 319.099 157.313 324.178 160.867C335.43 168.75 347.644 176.018 360.847 175.858C370.388 175.725 377.578 174.95 383.511 175.03C396.714 175.27 403.824 179.893 417.294 206.028C420.795 212.788 423.254 219.976 425.713 227.111C428.012 233.792 430.283 240.446 433.384 246.725C435.335 250.68 437.553 254.582 439.985 258.376" stroke="#C8CEDB" stroke-width="9.73285" stroke-miterlimit="10" stroke-linecap="round" stroke-linejoin="round"/>
<path d="M587.037 457.003C598.064 457.003 607.002 448.066 607.002 437.042C607.002 426.017 598.064 417.08 587.037 417.08C576.011 417.08 567.072 426.017 567.072 437.042C567.072 448.066 576.011 457.003 587.037 457.003Z" fill="white" stroke="#00B4CC" stroke-width="9.73285" stroke-miterlimit="10" stroke-linecap="round" stroke-linejoin="round"/>
<path d="M232.318 71.4018C237.853 71.4018 242.34 66.9153 242.34 61.3809C242.34 55.8466 237.853 51.3601 232.318 51.3601C226.782 51.3601 222.295 55.8466 222.295 61.3809C222.295 66.9153 226.782 71.4018 232.318 71.4018Z" fill="#404366"/>
<path d="M261.316 113.061C266.851 113.061 271.338 108.575 271.338 103.041C271.338 97.5062 266.851 93.0198 261.316 93.0198C255.78 93.0198 251.293 97.5062 251.293 103.041C251.293 108.575 255.78 113.061 261.316 113.061Z" fill="#404366"/>
<path d="M290.396 145.075C295.931 145.075 300.418 140.589 300.418 135.054C300.418 129.52 295.931 125.033 290.396 125.033C284.86 125.033 280.373 129.52 280.373 135.054C280.373 140.589 284.86 145.075 290.396 145.075Z" fill="#404366"/>
<path d="M324.952 170.888C330.488 170.888 334.975 166.402 334.975 160.867C334.975 155.333 330.488 150.847 324.952 150.847C319.417 150.847 314.93 155.333 314.93 160.867C314.93 166.402 319.417 170.888 324.952 170.888Z" fill="#404366"/>
<path d="M375.841 185.853C381.376 185.853 385.864 181.366 385.864 175.832C385.864 170.298 381.376 165.811 375.841 165.811C370.306 165.811 365.818 170.298 365.818 175.832C365.818 181.366 370.306 185.853 375.841 185.853Z" fill="#404366"/>
<path d="M419.299 223.424C424.834 223.424 429.322 218.938 429.322 213.404C429.322 207.869 424.834 203.383 419.299 203.383C413.764 203.383 409.276 207.869 409.276 213.404C409.276 218.938 413.764 223.424 419.299 223.424Z" fill="#404366"/>
<path d="M439.343 268.398C444.878 268.398 449.366 263.911 449.366 258.377C449.366 252.842 444.878 248.356 439.343 248.356C433.808 248.356 429.32 252.842 429.32 258.377C429.32 263.911 433.808 268.398 439.343 268.398Z" fill="#404366"/>
<text fill="#404366" xml:space="preserve" style="white-space: pre" font-family="Titillium Web" font-size="20" font-weight="600" letter-spacing="0em"><tspan x="300" y="280.45">Te reprezinta</tspan></text>
<text fill="#404366" xml:space="preserve" style="white-space: pre" font-family="Titillium Web" font-size="20" font-weight="600" letter-spacing="0em"><tspan x="452" y="225.45">Public Report&#13;</tspan></text>
<text fill="#404366" xml:space="preserve" style="white-space: pre" font-family="Titillium Web" font-size="20" font-weight="600" letter-spacing="0em"><tspan x="396" y="157.45">Bugetare Participativ&#x103;&#13;</tspan></text>
<text fill="#404366" xml:space="preserve" style="white-space: pre" font-family="Titillium Web" font-size="20" font-weight="600" letter-spacing="0em"><tspan x="152" y="198.45">Biroul de propuneri&#13;</tspan></text>
<text fill="#404366" xml:space="preserve" style="white-space: pre" font-family="Titillium Web" font-size="20" font-weight="600" letter-spacing="0em"><tspan x="311" y="124.45">Acces 544&#13;</tspan></text>
<text fill="#404366" xml:space="preserve" style="white-space: pre" font-family="Titillium Web" font-size="20" font-weight="600" letter-spacing="0em"><tspan x="38" y="120.45">Website builder primarie&#13;</tspan></text>
<text fill="#404366" xml:space="preserve" style="white-space: pre" font-family="Titillium Web" font-size="20" font-weight="600" letter-spacing="0em"><tspan x="0" y="70.45">Website builder minister&#13;</tspan></text>
<g clip-path="url(#clip0)">
<path d="M668.644 427.596C668.644 422.258 664.317 417.931 658.98 417.931C653.642 417.931 649.315 422.258 649.315 427.596V431.257C649.315 436.595 653.642 440.922 658.98 440.922C664.317 440.922 668.644 436.595 668.644 431.257V427.596Z" stroke="#00B4CC" stroke-width="2.14286" stroke-linecap="round" stroke-linejoin="round"/>
<path d="M655.538 440.286V442.42C655.538 443.614 654.631 444.346 653.357 444.601L649.425 445.349C645.285 445.986 641.464 448.916 641.464 453.31V470.951" stroke="#00B4CC" stroke-width="2.14286" stroke-linecap="round" stroke-linejoin="round"/>
<path d="M662.436 440.286V443.088C662.436 444.378 665.333 444.601 666.161 444.601C667.893 444.601 669.568 445.223 670.88 446.354C672.192 447.485 673.054 449.049 673.31 450.763L674.106 456.128" stroke="#00B4CC" stroke-width="2.14286" stroke-linecap="round" stroke-linejoin="round"/>
<path d="M669.042 456.129L671.223 476.779" stroke="#00B4CC" stroke-width="2.14286" stroke-linecap="round" stroke-linejoin="round"/>
<path d="M649.729 456.129V476.779" stroke="#00B4CC" stroke-width="2.14286" stroke-linecap="round" stroke-linejoin="round"/>
<path d="M671.222 476.779H649.729" stroke="#00B4CC" stroke-width="2.14286" stroke-linecap="round" stroke-linejoin="round"/>
<path d="M654.634 444.632C655.855 445.508 657.318 445.981 658.821 445.985C660.329 445.965 661.79 445.463 662.992 444.553" stroke="#00B4CC" stroke-width="2.14286" stroke-linecap="round" stroke-linejoin="round"/>
<path d="M671.779 461.987C673.393 458.431 674.554 454.687 675.234 450.841" stroke="#00B4CC" stroke-width="2.14286" stroke-linecap="round" stroke-linejoin="round"/>
<path d="M681.682 451.86C681.593 455.457 681.247 459.043 680.647 462.591C680.301 465.06 679.331 467.4 677.829 469.389C676.914 470.341 675.731 470.993 674.438 471.257C673.144 471.522 671.8 471.387 670.585 470.87" stroke="#00B4CC" stroke-width="2.14286" stroke-linecap="round" stroke-linejoin="round"/>
<path d="M666.541 421.578L666.429 421.881C666.275 422.33 666.017 422.737 665.677 423.069C665.337 423.4 664.924 423.648 664.471 423.791C663.745 424.014 662.968 424.014 662.242 423.791L660.411 423.218C659.199 422.839 657.895 422.869 656.701 423.304C655.507 423.738 654.489 424.553 653.804 425.622L649.394 432.468" stroke="#00B4CC" stroke-width="2.14286" stroke-linecap="round" stroke-linejoin="round"/>
<path d="M660.841 430.732C661.245 430.732 661.573 430.148 661.573 429.427C661.573 428.706 661.245 428.121 660.841 428.121C660.436 428.121 660.108 428.706 660.108 429.427C660.108 430.148 660.436 430.732 660.841 430.732Z" fill="#00B4CC"/>
<path d="M708.605 431.036C709.01 431.036 709.338 430.452 709.338 429.731C709.338 429.01 709.01 428.425 708.605 428.425C708.201 428.425 707.873 429.01 707.873 429.731C707.873 430.452 708.201 431.036 708.605 431.036Z" fill="#00B4CC"/>
<path d="M715.213 431.036C715.617 431.036 715.945 430.452 715.945 429.731C715.945 429.01 715.617 428.425 715.213 428.425C714.808 428.425 714.48 429.01 714.48 429.731C714.48 430.452 714.808 431.036 715.213 431.036Z" fill="#00B4CC"/>
<path d="M666.047 430.732C666.451 430.732 666.779 430.148 666.779 429.427C666.779 428.706 666.451 428.121 666.047 428.121C665.642 428.121 665.314 428.706 665.314 429.427C665.314 430.148 665.642 430.732 666.047 430.732Z" fill="#00B4CC"/>
<path d="M663.437 433.838L662.147 434.937C662.609 434.937 663.087 435.112 663.564 435.16" stroke="#00B4CC" stroke-width="2.14286" stroke-linecap="round" stroke-linejoin="round"/>
<path d="M675.3 450.953C675.15 450.87 675.018 450.756 674.914 450.619C674.81 450.482 674.735 450.325 674.695 450.157C674.612 449.824 674.585 449.48 674.616 449.138C674.679 448.131 674.823 447.13 675.045 446.145C675.073 445.835 675.222 445.549 675.459 445.349C675.607 445.276 675.773 445.251 675.936 445.277C676.098 445.302 676.249 445.377 676.367 445.492C676.606 445.723 676.806 445.992 676.956 446.288C677.428 447.066 678.038 447.751 678.755 448.31" stroke="#00B4CC" stroke-width="2.14286" stroke-linecap="round" stroke-linejoin="round"/>
<path d="M678.481 446.383C680.553 446.525 682.511 447.38 684.022 448.803L681.729 451.764" stroke="#00B4CC" stroke-width="2.14286" stroke-linecap="round" stroke-linejoin="round"/>
<path d="M677.687 446.862C678.447 445.878 679.368 445.027 680.409 444.347C680.841 444.028 681.355 443.84 681.89 443.805C682.153 443.796 682.411 443.881 682.618 444.044C682.825 444.207 682.968 444.439 683.02 444.697" stroke="#00B4CC" stroke-width="2.14286" stroke-linecap="round" stroke-linejoin="round"/>
<path d="M680.792 446.844C681.578 445.955 682.496 445.193 683.515 444.583C683.74 444.433 684.008 444.36 684.279 444.376C684.516 444.436 684.721 444.584 684.852 444.79C684.983 444.99 685.08 445.211 685.138 445.443" stroke="#00B4CC" stroke-width="2.14286" stroke-linecap="round" stroke-linejoin="round"/>
<path d="M682.812 447.433C683.377 446.617 684.124 445.941 684.993 445.459C685.196 445.346 685.431 445.301 685.662 445.332C686.076 445.411 686.219 445.634 686.219 446.064C686.219 446.494 685.693 446.876 685.407 447.243C684.995 447.815 684.532 448.348 684.022 448.835" stroke="#00B4CC" stroke-width="2.14286" stroke-linecap="round" stroke-linejoin="round"/>
<path d="M669.198 457.83C670.712 457.215 672.259 456.683 673.831 456.238" stroke="#00B4CC" stroke-width="2.14286" stroke-linecap="round" stroke-linejoin="round"/>
<path d="M643.423 457.195C645.573 457.459 647.702 457.879 649.791 458.453" stroke="#00B4CC" stroke-width="2.14286" stroke-linecap="round" stroke-linejoin="round"/>
<path d="M724.51 431.243C724.164 431.857 723.593 432.314 722.917 432.516C722.514 432.634 722.096 432.699 721.676 432.707V435.891C721.676 437.581 721.004 439.201 719.81 440.395C718.616 441.589 716.996 442.26 715.307 442.26H712.123C710.434 442.26 708.814 441.589 707.62 440.395C706.425 439.201 705.754 437.581 705.754 435.891V424.173C705.73 423.983 705.73 423.791 705.754 423.6C710.473 423.89 715.208 423.428 719.781 422.231C720.475 424.108 721.065 426.021 721.548 427.963C721.628 428.297 721.723 428.647 721.787 428.998C722.172 428.882 722.576 428.845 722.975 428.889C723.374 428.932 723.761 429.056 724.112 429.252C724.38 429.499 724.564 429.825 724.636 430.183C724.707 430.54 724.663 430.911 724.51 431.243Z" stroke="#00B4CC" stroke-width="2.14286" stroke-linecap="round" stroke-linejoin="round"/>
<path d="M705.805 423.553H704.372C704.954 421.918 705.9 420.436 707.139 419.22C708.377 418.003 709.875 417.084 711.521 416.531C715.211 415.241 719.251 415.384 722.841 416.93C727.378 419.127 727.617 423.999 727.617 428.377C727.617 432.755 725.579 436.656 721.249 437.93" stroke="#00B4CC" stroke-width="2.14286" stroke-linecap="round" stroke-linejoin="round"/>
<path d="M720.688 432.708C720.991 432.724 721.294 432.724 721.596 432.708" stroke="#00B4CC" stroke-width="2.14286" stroke-linecap="round" stroke-linejoin="round"/>
<path d="M709.768 435.685C711.113 435.907 712.492 435.814 713.796 435.415" stroke="#00B4CC" stroke-width="2.14286" stroke-linecap="round" stroke-linejoin="round"/>
<path d="M712.123 444.489L711.151 449.441L715.068 448.088L717.807 451.272L724.732 446.082L723.14 443.104C723.14 443.104 719.59 446.639 712.123 444.489Z" stroke="#00B4CC" stroke-width="2.14286" stroke-linecap="round" stroke-linejoin="round"/>
<path d="M712.126 444.489L713.798 444.903V442.228" stroke="#00B4CC" stroke-width="2.14286" stroke-linecap="round" stroke-linejoin="round"/>
<path d="M722.265 443.803V437.546" stroke="#00B4CC" stroke-width="2.14286" stroke-linecap="round" stroke-linejoin="round"/>
<path d="M724.734 446.129C727.73 446.696 730.442 448.266 732.425 450.582C734.407 452.897 735.542 455.819 735.64 458.866L736.373 476.777" stroke="#00B4CC" stroke-width="2.14286" stroke-linecap="round" stroke-linejoin="round"/>
<path d="M711.902 446.129H710.31C707.314 446.696 704.602 448.266 702.619 450.582C700.636 452.897 699.502 455.819 699.403 458.866L698.719 476.857" stroke="#00B4CC" stroke-width="2.14286" stroke-linecap="round" stroke-linejoin="round"/>
<path d="M704.483 460.141V476.779" stroke="#00B4CC" stroke-width="2.14286" stroke-linecap="round" stroke-linejoin="round"/>
<path d="M716.31 476.746H694.45L696.329 461.86H718.189L716.31 476.746Z" fill="white" stroke="#00B4CC" stroke-width="2.14286" stroke-linecap="round" stroke-linejoin="round"/>
<path d="M724.843 461.653C725.272 461.803 725.64 462.088 725.894 462.465V476.588" stroke="#00B4CC" stroke-width="2.14286" stroke-linecap="round" stroke-linejoin="round"/>
<path d="M681.89 419.508C684.348 419.621 686.75 418.757 688.573 417.104C690.396 415.452 691.49 413.145 691.618 410.688C691.49 408.231 690.396 405.924 688.573 404.272C686.75 402.619 684.348 401.755 681.89 401.868C679.431 401.751 677.027 402.614 675.203 404.267C673.38 405.92 672.286 408.23 672.162 410.688C672.169 411.952 672.458 413.199 673.009 414.337C673.56 415.475 674.359 416.475 675.346 417.264L673.754 423.489L681.89 419.508Z" stroke="#00B4CC" stroke-width="2.14286" stroke-linecap="round" stroke-linejoin="round"/>
<path d="M695.279 437.467C693.844 438.353 692.189 438.816 690.503 438.805C688.369 438.904 686.283 438.154 684.701 436.719C683.12 435.283 682.172 433.28 682.064 431.147C682.188 429.022 683.145 427.032 684.728 425.61C686.312 424.187 688.393 423.448 690.518 423.552C692.652 423.453 694.738 424.203 696.32 425.638C697.901 427.073 698.85 429.077 698.957 431.21C698.953 432.132 698.775 433.045 698.432 433.901L701.616 436.13L695.279 437.467Z" stroke="#00B4CC" stroke-width="2.14286" stroke-linecap="round" stroke-linejoin="round"/>
<path d="M639.857 476.779H741.197" stroke="#00B4CC" stroke-width="2.14286" stroke-linecap="round" stroke-linejoin="round"/>
<path d="M718.188 461.86L721.293 476.746" stroke="#00B4CC" stroke-width="2.14286" stroke-linecap="round" stroke-linejoin="round"/>
<path d="M700.089 467.242H712.587" stroke="#00B4CC" stroke-width="2.14286" stroke-linecap="round" stroke-linejoin="round"/>
<path d="M699.419 471.349H711.901" stroke="#00B4CC" stroke-width="2.14286" stroke-linecap="round" stroke-linejoin="round"/>
</g>
<text fill="#1E1E1E" xml:space="preserve" style="white-space: pre" font-family="Titillium Web" font-size="40" font-weight="600" letter-spacing="0px"><tspan x="762" y="429.9">O mai bun&#x103; rela&#x21b;ie </tspan><tspan x="762" y="471.9">cet&#x103;&#x21b;ean-stat </tspan></text>
<defs>
<clipPath id="clip0">
<rect width="105.714" height="80" fill="white" transform="translate(637 399)"/>
</clipPath>
</defs>
</svg>
