<svg width="295" height="650" viewBox="0 0 295 650" fill="none" xmlns="http://www.w3.org/2000/svg">
<g clip-path="url(#clip0)">
<path d="M270.498 23.1266C267.705 25.8674 264.834 28.7647 261.702 31.0878C258.569 33.4109 254.863 34.6377 251.574 36.7259C249.094 38.3182 246.536 39.9365 243.952 41.4766C240.141 43.7475 236.226 45.9139 232.128 47.6628C226.751 49.9859 220.617 51.9175 215.344 53.7968C209.863 55.7806 203.807 57.9993 198.639 61.1838" stroke="#C8CEDB" stroke-width="9.79333" stroke-miterlimit="10" stroke-linecap="round" stroke-linejoin="round"/>
<path d="M270.002 43.9041C280.771 43.9041 289.501 35.1744 289.501 24.4057C289.501 13.637 280.771 4.90726 270.002 4.90726C259.234 4.90726 250.504 13.637 250.504 24.4057C250.504 35.1744 259.234 43.9041 270.002 43.9041Z" fill="white" stroke="#F90000" stroke-width="9.79333" stroke-miterlimit="10" stroke-linecap="round" stroke-linejoin="round"/>
<path d="M198.665 61.2361C192.87 64.8121 186.658 68.0227 182.481 73.1648C180.863 75.1225 178.618 76.6626 176.817 78.3592C174.442 80.604 172.275 82.9793 169.9 85.3807C168.047 87.2601 166.037 88.1737 163.897 89.6354C160.764 91.8019 159.564 94.125 157.032 96.918C153.064 101.277 147.139 103.156 143.276 107.855C140.613 111.092 137.638 114.955 133.957 117.356C127.667 121.428 120.358 125.161 114.537 130.042C108.925 134.74 106.993 142.179 103.339 148.235C101.068 152.02 97.936 154.239 94.6471 156.275" stroke="#C8CEDB" stroke-width="9.79333" stroke-miterlimit="10" stroke-linecap="round" stroke-linejoin="round"/>
<path d="M198.691 70.2413C204.097 70.2413 208.479 65.8589 208.479 60.4529C208.479 55.047 204.097 50.6646 198.691 50.6646C193.285 50.6646 188.902 55.047 188.902 60.4529C188.902 65.8589 193.285 70.2413 198.691 70.2413Z" fill="#404366"/>
<path d="M81.5696 209.915C83.6578 204.851 85.3023 199.63 85.8243 194.462V194.384C86.3725 189.19 85.7982 184.021 83.5273 179.088C80.8388 173.293 80.3167 166.976 85.7199 162.226C88.5389 159.746 91.6712 158.076 94.6469 156.248" stroke="#C8CEDB" stroke-width="9.79333" stroke-miterlimit="10" stroke-linecap="round" stroke-linejoin="round"/>
<path d="M94.6209 165.306C100.027 165.306 104.409 160.924 104.409 155.518C104.409 150.112 100.027 145.729 94.6209 145.729C89.2149 145.729 84.8325 150.112 84.8325 155.518C84.8325 160.924 89.2149 165.306 94.6209 165.306Z" fill="#404366"/>
<path d="M81.5696 209.837C78.7767 216.597 75.1224 223.097 72.0684 228.865C67.0828 238.288 65.9604 246.876 63.8723 256.481" stroke="#C8CEDB" stroke-width="9.79333" stroke-miterlimit="10" stroke-linecap="round" stroke-linejoin="round"/>
<path d="M81.5697 220.669C86.9757 220.669 91.3581 216.287 91.3581 210.881C91.3581 205.475 86.9757 201.092 81.5697 201.092C76.1638 201.092 71.7814 205.475 71.7814 210.881C71.7814 216.287 76.1638 220.669 81.5697 220.669Z" fill="#404366"/>
<path d="M42.5988 301.482C49.5681 289.579 57.0856 277.964 60.9226 267.262C60.9487 267.21 60.9487 267.21 60.9487 267.21C61.4186 265.878 61.8362 264.573 62.2017 263.268C62.8281 260.945 63.3763 258.674 63.8461 256.482" stroke="#C8CEDB" stroke-width="9.79333" stroke-miterlimit="10" stroke-linecap="round" stroke-linejoin="round"/>
<path d="M65.2035 267.209C70.6095 267.209 74.9919 262.827 74.9919 257.421C74.9919 252.015 70.6095 247.633 65.2035 247.633C59.7976 247.633 55.4152 252.015 55.4152 257.421C55.4152 262.827 59.7976 267.209 65.2035 267.209Z" fill="#404366"/>
<path d="M42.5991 301.482C33.7765 316.543 25.8153 332.048 27.2248 346.769" stroke="#C8CEDB" stroke-width="9.79333" stroke-miterlimit="10" stroke-linecap="round" stroke-linejoin="round"/>
<path d="M42.625 312.027C48.0309 312.027 52.4133 307.645 52.4133 302.239C52.4133 296.833 48.0309 292.45 42.625 292.45C37.219 292.45 32.8366 296.833 32.8366 302.239C32.8366 307.645 37.219 312.027 42.625 312.027Z" fill="#404366"/>
<path d="M27.2249 346.769C27.5642 350.189 28.3734 353.556 29.8351 356.845C30.7487 358.959 31.8972 360.76 33.2023 362.352C40.4065 371.201 52.2048 373.655 55.4154 387.123C56.0418 389.734 56.4856 392.84 56.7727 396.181" stroke="#C8CEDB" stroke-width="9.79333" stroke-miterlimit="10" stroke-linecap="round" stroke-linejoin="round"/>
<path d="M26.781 357.602C32.187 357.602 36.5694 353.219 36.5694 347.813C36.5694 342.407 32.187 338.025 26.781 338.025C21.375 338.025 16.9926 342.407 16.9926 347.813C16.9926 353.219 21.375 357.602 26.781 357.602Z" fill="#404366"/>
<path d="M56.7465 396.181C57.6862 407.066 57.0336 420.665 55.9634 429.801C55.4936 433.899 54.319 437.919 52.8834 441.912" stroke="#F90000" stroke-width="9.79359" stroke-miterlimit="10" stroke-linejoin="round"/>
<path d="M56.9552 405.447C62.3611 405.447 66.7435 401.065 66.7435 395.659C66.7435 390.253 62.3611 385.871 56.9552 385.871C51.5492 385.871 47.1668 390.253 47.1668 395.659C47.1668 401.065 51.5492 405.447 56.9552 405.447Z" fill="white" stroke="#F90000" stroke-width="5.22046" stroke-miterlimit="10" stroke-linecap="round" stroke-linejoin="round"/>
<path d="M52.8834 441.912C49.8817 450.161 45.627 458.278 43.5127 466.579C41.7638 473.34 40.798 479.787 40.276 486.208" stroke="#C8CEDB" stroke-width="9.79333" stroke-miterlimit="10" stroke-linecap="round" stroke-linejoin="round"/>
<path d="M51.4214 450.97C56.8274 450.97 61.2098 446.588 61.2098 441.182C61.2098 435.776 56.8274 431.393 51.4214 431.393C46.0155 431.393 41.6331 435.776 41.6331 441.182C41.6331 446.588 46.0155 450.97 51.4214 450.97Z" fill="#404366"/>
<path d="M40.276 486.208C39.9106 490.541 39.754 494.848 39.7018 499.259C39.6496 503.253 39.6496 507.325 39.6757 511.527C39.7018 517.948 40.1977 524.944 40.3804 531.861" stroke="#C8CEDB" stroke-width="9.79333" stroke-miterlimit="10" stroke-linecap="round" stroke-linejoin="round"/>
<path d="M41.1896 496.571C46.5955 496.571 50.9779 492.188 50.9779 486.782C50.9779 481.376 46.5955 476.994 41.1896 476.994C35.7836 476.994 31.4012 481.376 31.4012 486.782C31.4012 492.188 35.7836 496.571 41.1896 496.571Z" fill="#404366"/>
<path d="M40.3801 531.861C40.5107 536.899 40.4584 541.884 39.9103 546.557C38.814 555.98 33.5674 563.627 28.5558 571.589" stroke="#C8CEDB" stroke-width="9.79333" stroke-miterlimit="10" stroke-linecap="round" stroke-linejoin="round"/>
<path d="M39.8844 541.649C45.2904 541.649 49.6728 537.267 49.6728 531.861C49.6728 526.455 45.2904 522.073 39.8844 522.073C34.4785 522.073 30.0961 526.455 30.0961 531.861C30.0961 537.267 34.4785 541.649 39.8844 541.649Z" fill="#404366"/>
<path d="M28.5299 571.589C26.8071 574.329 25.1104 577.096 23.6226 579.994C20.0466 586.911 0.313242 629.927 5.87304 648.643" stroke="#F90000" stroke-width="9.79359" stroke-miterlimit="10" stroke-linejoin="round"/>
<path d="M26.781 582.63C32.187 582.63 36.5694 578.248 36.5694 572.842C36.5694 567.436 32.187 563.053 26.781 563.053C21.375 563.053 16.9926 567.436 16.9926 572.842C16.9926 578.248 21.375 582.63 26.781 582.63Z" fill="white" stroke="#F90000" stroke-width="5.22046" stroke-miterlimit="10" stroke-linecap="round" stroke-linejoin="round"/>
</g>
<defs>
<clipPath id="clip0">
<rect width="294.408" height="650" fill="white"/>
</clipPath>
</defs>
</svg>
