<svg width="558" height="146" viewBox="0 0 558 146" fill="none" xmlns="http://www.w3.org/2000/svg">
<g clip-path="url(#clip0)">
<path d="M532.539 25.6434C496.979 31.1828 462.229 60.7443 426.264 50.26C408.97 45.207 393.919 34.5876 376.814 28.5347C355.71 21.0768 323.879 23.1034 305.288 34.6686C291.075 43.5317 270.296 43.0723 254.299 40.154C239.815 37.5059 228.466 25.13 215.307 22.2928C204.606 19.996 187.907 25.3192 179.476 31.2369C165.02 41.3699 150.969 51.9083 136.431 61.9873C125.055 69.8776 116.003 81.0375 103.843 87.7929C91.7917 94.4942 78.389 95.8723 65.9051 102.466C49.0437 111.356 34.2359 122.461 17.996 131.865C12.97 134.783 7.97104 138.242 3.10718 141.944" stroke="#7937C4" stroke-width="10.1382" stroke-miterlimit="10" stroke-linejoin="round" stroke-dasharray="12.67 12.67"/>
<path d="M532.54 45.4492C543.688 45.4492 552.725 36.412 552.725 25.2641C552.725 14.1163 543.688 5.0791 532.54 5.0791C521.392 5.0791 512.355 14.1163 512.355 25.2641C512.355 36.412 521.392 45.4492 532.54 45.4492Z" fill="white" stroke="#7937C4" stroke-width="10.1382" stroke-miterlimit="10" stroke-linecap="round" stroke-linejoin="round"/>
</g>
<defs>
<clipPath id="clip0">
<rect width="557.777" height="145.997" fill="white"/>
</clipPath>
</defs>
</svg>
