<svg width="619" height="701" viewBox="0 0 619 701" fill="none" xmlns="http://www.w3.org/2000/svg">
<g clip-path="url(#clip0)">
<path d="M568.057 484.652C568.005 486.238 567.899 487.851 567.767 489.463C567.212 496.205 566.075 503.052 564.224 510.057C561.528 520.288 559.571 529.329 558.329 537.577C557.8 541.12 557.377 544.53 557.086 547.808C555.13 570.49 559.122 587.779 567.793 610.382C571.732 620.639 576.623 632.007 582.359 645.436C586.298 654.689 590.502 664.232 594.969 673.934" stroke="#00B4CC" stroke-width="9.91854" stroke-miterlimit="10" stroke-linejoin="round" stroke-dasharray="12.4 12.4"/>
<path d="M559.202 431.727C565.203 448.858 568.798 466.332 568.058 484.652" stroke="#C8CEDB" stroke-width="9.91854" stroke-miterlimit="10" stroke-linecap="round" stroke-linejoin="round"/>
<path d="M508.26 327.146C510.903 331.667 513.415 336.584 515.873 341.739C530.519 372.299 548.575 401.458 559.175 431.753" stroke="#C8CEDB" stroke-width="9.91854" stroke-miterlimit="10" stroke-linecap="round" stroke-linejoin="round"/>
<path d="M471.46 295.845C479.338 299.097 486.555 302.798 493.006 308.032C498.822 312.738 503.739 319.374 508.259 327.119" stroke="#C8CEDB" stroke-width="9.91854" stroke-miterlimit="10" stroke-linecap="round" stroke-linejoin="round"/>
<path d="M407.961 268.617C414.94 272.212 422.342 275.781 430.247 279.455C432.044 280.301 433.816 281.095 435.587 281.888C448.514 287.677 460.595 291.352 471.461 295.872" stroke="#00B4CC" stroke-width="9.91854" stroke-miterlimit="10" stroke-linecap="round" stroke-linejoin="round"/>
<path d="M363.787 239.669C366.298 241.837 368.836 243.899 371.4 245.881C382.503 254.447 394.452 261.611 407.961 268.59" stroke="#C8CEDB" stroke-width="9.91854" stroke-miterlimit="10" stroke-linecap="round" stroke-linejoin="round"/>
<path d="M309.116 168.054C317.047 181.589 325.057 195.045 334.442 207.708C335.896 209.664 337.377 211.621 338.91 213.524C346.999 223.728 355.168 232.241 363.813 239.669" stroke="#C8CEDB" stroke-width="9.91854" stroke-miterlimit="10" stroke-linecap="round" stroke-linejoin="round"/>
<path d="M287.757 133.37C289.316 135.643 290.85 137.943 292.33 140.27C297.459 148.28 302.296 156.449 307.081 164.617C307.742 165.754 308.43 166.891 309.09 168.028" stroke="#00B4CC" stroke-width="9.91854" stroke-miterlimit="10" stroke-linecap="round" stroke-linejoin="round"/>
<path d="M259.999 94.7205C266.423 104 273.243 113.014 279.852 122.161C282.523 125.862 285.193 129.59 287.757 133.37" stroke="#C8CEDB" stroke-width="9.91854" stroke-miterlimit="10" stroke-linecap="round" stroke-linejoin="round"/>
<path d="M232.452 59.0586C239.087 66.5929 245.934 74.18 251.671 82.2959C252.596 83.5912 253.469 84.8866 254.315 86.2348C256.165 89.1164 258.068 91.945 259.998 94.7473" stroke="#00B4CC" stroke-width="9.91854" stroke-miterlimit="10" stroke-linecap="round" stroke-linejoin="round"/>
<path d="M4.96948 9.33223C25.8275 6.31852 46.6327 2.48529 66.4597 7.1116C74.8928 9.0943 81.7662 13.139 88.4809 17.1573C97.2577 22.3916 105.823 27.5731 117.455 27.9432C133.819 28.4455 148.887 21.9422 164.908 23.5284C166.917 23.7134 168.926 24.0571 170.988 24.533C183.333 27.4409 191.899 35.689 203.213 39.0728C208.659 40.6854 212.836 42.3244 216.564 44.4922C221.322 47.2415 225.314 50.8897 230.205 56.4677C230.971 57.3401 231.711 58.186 232.478 59.0584" stroke="#C8CEDB" stroke-width="9.91854" stroke-miterlimit="10" stroke-linecap="round" stroke-linejoin="round"/>
<path d="M594.309 695.109C605.215 695.109 614.056 686.268 614.056 675.361C614.056 664.455 605.215 655.614 594.309 655.614C583.402 655.614 574.561 664.455 574.561 675.361C574.561 686.268 583.402 695.109 594.309 695.109Z" fill="white" stroke="#00B4CC" stroke-width="9.91854" stroke-miterlimit="10" stroke-linecap="round" stroke-linejoin="round"/>
<path d="M100.8 32.3842C106.276 32.3842 110.714 27.9457 110.714 22.4706C110.714 16.9956 106.276 12.5571 100.8 12.5571C95.3254 12.5571 90.887 16.9956 90.887 22.4706C90.887 27.9457 95.3254 32.3842 100.8 32.3842Z" fill="#404366"/>
<path d="M193.036 46.2631C198.511 46.2631 202.949 41.8246 202.949 36.3496C202.949 30.8745 198.511 26.436 193.036 26.436C187.561 26.436 183.122 30.8745 183.122 36.3496C183.122 41.8246 187.561 46.2631 193.036 46.2631Z" fill="#404366"/>
<path d="M232.796 67.5973C238.271 67.5973 242.71 63.1589 242.71 57.6838C242.71 52.2087 238.271 47.7703 232.796 47.7703C227.321 47.7703 222.883 52.2087 222.883 57.6838C222.883 63.1589 227.321 67.5973 232.796 67.5973Z" fill="#404366"/>
<path d="M259.655 104.317C265.13 104.317 269.568 99.8781 269.568 94.403C269.568 88.9279 265.13 84.4895 259.655 84.4895C254.18 84.4895 249.741 88.9279 249.741 94.403C249.741 99.8781 254.18 104.317 259.655 104.317Z" fill="white" stroke="#00B4CC" stroke-width="5.28721" stroke-miterlimit="10" stroke-linecap="round" stroke-linejoin="round"/>
<path d="M287.756 141.988C293.231 141.988 297.67 137.549 297.67 132.074C297.67 126.599 293.231 122.161 287.756 122.161C282.281 122.161 277.843 126.599 277.843 132.074C277.843 137.549 282.281 141.988 287.756 141.988Z" fill="#404366"/>
<path d="M309.275 175.985C314.75 175.985 319.189 171.546 319.189 166.071C319.189 160.596 314.75 156.158 309.275 156.158C303.8 156.158 299.362 160.596 299.362 166.071C299.362 171.546 303.8 175.985 309.275 175.985Z" fill="white" stroke="#00B4CC" stroke-width="5.28721" stroke-miterlimit="10" stroke-linecap="round" stroke-linejoin="round"/>
<path d="M334.416 216.696C339.891 216.696 344.329 212.258 344.329 206.783C344.329 201.308 339.891 196.869 334.416 196.869C328.941 196.869 324.502 201.308 324.502 206.783C324.502 212.258 328.941 216.696 334.416 216.696Z" fill="#404366"/>
<path d="M363.787 249.266C369.262 249.266 373.7 244.827 373.7 239.352C373.7 233.877 369.262 229.439 363.787 229.439C358.311 229.439 353.873 233.877 353.873 239.352C353.873 244.827 358.311 249.266 363.787 249.266Z" fill="#404366"/>
<path d="M407.591 278.292C413.066 278.292 417.504 273.854 417.504 268.379C417.504 262.904 413.066 258.465 407.591 258.465C402.116 258.465 397.677 262.904 397.677 268.379C397.677 273.854 402.116 278.292 407.591 278.292Z" fill="#404366"/>
<path d="M471.487 305.759C476.962 305.759 481.401 301.321 481.401 295.846C481.401 290.371 476.962 285.932 471.487 285.932C466.012 285.932 461.574 290.371 461.574 295.846C461.574 301.321 466.012 305.759 471.487 305.759Z" fill="white" stroke="#00B4CC" stroke-width="5.28721" stroke-miterlimit="10" stroke-linecap="round" stroke-linejoin="round"/>
<path d="M508.708 336.584C514.184 336.584 518.622 332.145 518.622 326.67C518.622 321.195 514.184 316.757 508.708 316.757C503.233 316.757 498.795 321.195 498.795 326.67C498.795 332.145 503.233 336.584 508.708 336.584Z" fill="#404366"/>
<path d="M558.382 437.755C563.857 437.755 568.296 433.316 568.296 427.841C568.296 422.366 563.857 417.928 558.382 417.928C552.907 417.928 548.469 422.366 548.469 427.841C548.469 433.316 552.907 437.755 558.382 437.755Z" fill="#404366"/>
<path d="M568.163 494.566C573.638 494.566 578.077 490.127 578.077 484.652C578.077 479.177 573.638 474.739 568.163 474.739C562.688 474.739 558.25 479.177 558.25 484.652C558.25 490.127 562.688 494.566 568.163 494.566Z" fill="#404366"/>
</g>
<defs>
<clipPath id="clip0">
<rect width="619" height="700.053" fill="white"/>
</clipPath>
</defs>
</svg>
