<svg width="620" height="268" viewBox="0 0 620 268" fill="none" xmlns="http://www.w3.org/2000/svg">
<path d="M305.048 25.1758C300.214 28.8613 295.541 32.7605 291.214 36.5795C279.784 46.5679 273.935 58.1853 264.801 69.135C256.255 79.3904 241.833 85.2392 231.391 93.6518C221.349 101.744 214.032 113.468 203.483 120.706C178.565 137.851 146.277 144.581 119.063 157.08C95.7211 167.79 80.7386 188.14 59.8272 201.226C36.6458 215.728 3.10217 233.702 6.20015 266.765" stroke="#7937C4" stroke-width="10.0201" stroke-miterlimit="10" stroke-linejoin="round" stroke-dasharray="12.53 12.53"/>
<path d="M305.048 45.8998C316.066 45.8998 324.997 36.9679 324.997 25.9499C324.997 14.9319 316.066 6 305.048 6C294.03 6 285.098 14.9319 285.098 25.9499C285.098 36.9679 294.03 45.8998 305.048 45.8998Z" fill="white" stroke="#7937C4" stroke-width="10.0201" stroke-miterlimit="10" stroke-linecap="round" stroke-linejoin="round"/>
<text fill="#1E1E1E" xml:space="preserve" style="white-space: pre" font-family="Titillium Web" font-size="40" font-weight="600" letter-spacing="0px"><tspan x="285" y="182.9">Incluziune pentru &#x2028;</tspan><tspan x="285" y="224.9">persoanele LGBTQ+</tspan></text>
<path d="M320.779 98.0357H311.104C311.01 89.4476 314.169 81.1422 319.946 74.7872C325.723 68.4321 333.69 64.4979 342.248 63.7747C350.806 63.0514 359.321 65.5927 366.083 70.8881C372.844 76.1836 377.352 83.8411 378.701 92.323L369.105 93.9798C368.083 87.9686 364.841 82.5604 360.021 78.8254C355.201 75.0903 349.155 73.3007 343.079 73.8107C337.003 74.3206 331.34 77.093 327.21 81.5791C323.081 86.0652 320.786 91.9382 320.779 98.0357Z" stroke="#7937C4" stroke-width="1.82452" stroke-linecap="round" stroke-linejoin="round"/>
<path d="M315.941 98.0351C315.914 90.7089 318.646 83.6413 323.593 78.2378C328.54 72.8344 335.34 69.4911 342.64 68.8731C349.94 68.255 357.205 70.4074 362.99 74.9022C368.776 79.3969 372.657 85.9047 373.863 93.1308" stroke="#7937C4" stroke-width="1.82452" stroke-linecap="round" stroke-linejoin="round"/>
<path d="M320.776 98.0357C320.782 92.012 323.021 86.2043 327.061 81.7362C331.1 77.2681 336.654 74.4571 342.646 73.8469C348.639 73.2368 354.645 74.8709 359.503 78.4331C364.36 81.9953 367.724 87.2325 368.943 93.1314" stroke="#7937C4" stroke-width="1.82452" stroke-linecap="round" stroke-linejoin="round"/>
<path d="M325.615 98.0364C325.615 92.8653 327.67 87.9061 331.326 84.2497C334.983 80.5932 339.941 78.5391 345.113 78.5391C350.284 78.5391 355.243 80.5932 358.899 84.2497C362.556 87.9061 364.61 92.8653 364.61 98.0364" stroke="#7937C4" stroke-width="1.82452" stroke-linecap="round" stroke-linejoin="round"/>
<path d="M290.213 126.904H292.585H299.08H338.287" stroke="#7937C4" stroke-width="1.82452" stroke-linecap="round" stroke-linejoin="round"/>
<path d="M338.659 126.904H360.065H373.333H392.525" stroke="#7937C4" stroke-width="1.82452" stroke-linecap="round" stroke-linejoin="round"/>
<path d="M338.658 100.555V126.904H338.286C335.797 124.171 332.773 121.979 329.4 120.465C326.027 118.951 322.38 118.148 318.683 118.104C315.459 118.102 312.265 118.719 309.272 119.92L308.901 92.7346H323.68V100.555H338.658Z" fill="white" stroke="#7937C4" stroke-width="1.82452" stroke-linecap="round" stroke-linejoin="round"/>
<path d="M353.092 96.4978H360.064" stroke="#7937C4" stroke-width="1.82452" stroke-linecap="round" stroke-linejoin="round"/>
<path d="M360.063 126.904V105.736" stroke="#7937C4" stroke-width="1.82452" stroke-linecap="round" stroke-linejoin="round"/>
<path d="M373.333 126.904V116.208" stroke="#7937C4" stroke-width="1.82452" stroke-linecap="round" stroke-linejoin="round"/>
<path d="M360.069 96.512H360.053" stroke="#7937C4" stroke-width="1.82452" stroke-linecap="round" stroke-linejoin="round"/>
<path d="M380.448 91.3027V117.626C378.187 116.707 375.772 116.226 373.331 116.208V105.737H360.076V96.4586H367.101V91.3027H380.448Z" fill="white" stroke="#7937C4" stroke-width="1.82452" stroke-linecap="round" stroke-linejoin="round"/>
<path d="M380.449 117.625C381.406 118.021 382.325 118.505 383.193 119.07C386.025 120.949 388.239 123.624 389.555 126.758" fill="white"/>
<path d="M380.449 117.625C381.406 118.021 382.325 118.505 383.193 119.07C386.025 120.949 388.239 123.624 389.555 126.758" stroke="#7937C4" stroke-width="1.82452" stroke-linecap="round" stroke-linejoin="round"/>
<path d="M338.289 126.904H299.082C301.935 123.867 305.413 121.484 309.275 119.919C312.267 118.718 315.461 118.102 318.685 118.103C322.382 118.147 326.03 118.951 329.402 120.465C332.775 121.979 335.8 124.171 338.289 126.904Z" stroke="#7937C4" stroke-width="1.82452" stroke-linecap="round" stroke-linejoin="round"/>
<path d="M353.093 92.7333V96.4975H347.274C347.194 96.4975 347.274 109.818 347.274 109.818H338.659V100.54H323.681V92.7333H321.521V85.4036H341.018V92.7333H353.093Z" fill="white" stroke="#7937C4" stroke-width="1.82452" stroke-linecap="round" stroke-linejoin="round"/>
<path d="M314.23 106.584H330.719" stroke="#7937C4" stroke-width="1.82452" stroke-linecap="round" stroke-linejoin="round"/>
<path d="M314.23 111.847H330.719" stroke="#7937C4" stroke-width="1.82452" stroke-linecap="round" stroke-linejoin="round"/>
<path d="M309.087 100.541C308.63 100.16 308.071 99.921 307.479 99.8552C306.888 99.7891 306.29 99.8984 305.76 100.17C305.234 100.442 304.775 100.828 304.417 101.301C304.059 101.773 303.812 102.32 303.692 102.9C303.454 104.067 303.56 105.278 303.997 106.386C302.511 106.278 301.025 106.6 299.716 107.314C299.182 107.709 298.756 108.231 298.476 108.833C298.196 109.435 298.071 110.097 298.112 110.76C298.158 111.413 298.356 112.047 298.69 112.611C299.023 113.174 299.484 113.653 300.034 114.007C299.218 114.076 298.442 114.39 297.808 114.908C297.174 115.426 296.712 116.124 296.482 116.91C296.264 117.691 296.213 118.508 296.332 119.309C296.451 120.111 296.737 120.878 297.171 121.562C298.048 122.929 299.227 124.077 300.617 124.916L300.313 124.783" stroke="#7937C4" stroke-width="1.82452" stroke-linecap="round" stroke-linejoin="round"/>
<path d="M380.568 106.929C381.121 106.03 381.969 105.35 382.967 105.007C383.544 104.876 384.145 104.906 384.706 105.092C385.267 105.28 385.766 105.617 386.148 106.067C386.517 106.528 386.775 107.068 386.901 107.645C387.028 108.222 387.02 108.821 386.877 109.394C386.583 110.547 385.869 111.549 384.876 112.204C385.941 111.93 387.062 111.962 388.11 112.297C388.769 112.514 389.35 112.92 389.781 113.464C390.212 114.009 390.475 114.667 390.536 115.359C390.581 116.051 390.457 116.745 390.176 117.38C389.894 118.015 389.463 118.572 388.918 119.004C389.542 118.766 390.229 118.749 390.863 118.957C391.498 119.164 392.042 119.583 392.405 120.143C392.789 120.71 392.972 121.389 392.924 122.071C392.876 122.754 392.6 123.401 392.139 123.908C391.379 124.561 390.468 125.016 389.488 125.233" stroke="#7937C4" stroke-width="1.82452" stroke-linecap="round" stroke-linejoin="round"/>
</svg>
