<svg width="871" height="269" viewBox="0 0 871 269" fill="none" xmlns="http://www.w3.org/2000/svg">
<path d="M380.143 23.547C380.962 24.6891 381.781 25.8063 382.65 26.9236C396.901 45.4699 419.048 59.4727 442.386 58.1817C462.471 57.0644 481.713 44.9485 501.55 48.3996C514.808 50.7085 525.757 59.572 537.302 66.4741C557.313 78.4411 583.482 86.6591 606.994 85.4674C614.839 85.0701 622.834 85.2439 630.679 85.3681C646.37 85.6163 662.26 87.0315 677.082 92.5929C706.727 103.716 723.336 132.789 743.074 155.432C744.39 156.946 745.582 158.585 746.749 160.224C748.685 162.93 750.622 165.636 753.13 167.796C755.712 170.031 758.964 171.52 761.67 173.432C767.877 177.827 773.985 182.395 780.192 187.013C787.814 192.674 794.741 198.185 801.916 204.343C808.793 210.252 816.664 218.47 825.85 220.481C834.192 222.318 843.925 220.927 852.441 220.927C858.35 220.927 864.283 221.076 870.217 221.101" stroke="#1B771B" stroke-width="9.31512" stroke-miterlimit="10" stroke-linejoin="round" stroke-dasharray="11.64 11.64"/>
<path d="M379.546 42.0926C389.789 42.0926 398.093 33.7892 398.093 23.5463C398.093 13.3035 389.789 5 379.546 5C369.303 5 361 13.3035 361 23.5463C361 33.7892 369.303 42.0926 379.546 42.0926Z" fill="white" stroke="#1B771B" stroke-width="9.31512" stroke-miterlimit="10" stroke-linecap="round" stroke-linejoin="round"/>
<path d="M365.423 105.629V151.91C365.421 152.329 365.502 152.744 365.66 153.132C365.819 153.52 366.053 153.873 366.349 154.17C366.645 154.467 366.996 154.703 367.383 154.864C367.77 155.025 368.185 155.108 368.604 155.108H408.853C409.273 155.108 409.688 155.025 410.075 154.864C410.462 154.703 410.814 154.467 411.109 154.17C411.405 153.873 411.639 153.52 411.798 153.132C411.957 152.744 412.037 152.329 412.035 151.91V105.629H365.423Z" stroke="#1B771B" stroke-width="2.12838" stroke-linecap="round" stroke-linejoin="round"/>
<path d="M360.816 138.338C356.345 136.384 352.478 133.268 349.62 129.314C346.761 125.359 345.014 120.711 344.561 115.852C349.489 116.983 353.857 119.825 356.889 123.872C359.844 128.089 361.233 133.206 360.816 138.338Z" stroke="#1B771B" stroke-width="2.12838" stroke-linecap="round" stroke-linejoin="round"/>
<path d="M358.132 148.53C356.305 145.229 353.464 142.603 350.029 141.04C346.588 139.498 342.742 139.103 339.06 139.914C339.614 141.717 340.527 143.391 341.742 144.834C342.958 146.278 344.452 147.461 346.135 148.315C349.967 149.883 354.246 149.96 358.132 148.53Z" stroke="#1B771B" stroke-width="2.12838" stroke-linecap="round" stroke-linejoin="round"/>
<path d="M417.702 138.338C422.174 136.382 426.04 133.266 428.902 129.312C431.763 125.358 433.514 120.711 433.974 115.852C429.042 116.975 424.671 119.818 421.646 123.872C418.686 128.088 417.291 133.204 417.702 138.338Z" stroke="#1B771B" stroke-width="2.12838" stroke-linecap="round" stroke-linejoin="round"/>
<path d="M420.387 148.529C422.209 145.214 425.06 142.581 428.509 141.026C431.957 139.472 435.818 139.081 439.509 139.912C438.951 141.717 438.036 143.391 436.818 144.834C435.599 146.278 434.102 147.461 432.417 148.313C428.575 149.89 424.282 149.967 420.387 148.529Z" stroke="#1B771B" stroke-width="2.12838" stroke-linecap="round" stroke-linejoin="round"/>
<path d="M414.521 99.6795V103.491C414.525 103.904 414.407 104.309 414.183 104.656C413.959 105.004 413.639 105.278 413.262 105.446C412.985 105.567 412.686 105.629 412.383 105.628H364.131C363.84 105.624 363.553 105.562 363.286 105.446C362.908 105.278 362.588 105.004 362.364 104.656C362.14 104.309 362.023 103.904 362.026 103.491V99.6795C362.018 99.3968 362.065 99.1152 362.167 98.8513C362.269 98.5873 362.422 98.3464 362.618 98.1426C362.814 97.9388 363.049 97.7763 363.309 97.6646C363.569 97.5529 363.848 97.4943 364.131 97.4922H412.383C412.668 97.4921 412.95 97.549 413.213 97.6595C413.476 97.77 413.714 97.9319 413.913 98.1357C414.112 98.3395 414.268 98.5811 414.373 98.8462C414.477 99.1113 414.528 99.3946 414.521 99.6795Z" stroke="#1B771B" stroke-width="2.12838" stroke-linecap="round" stroke-linejoin="round"/>
<path d="M404.711 97.4935H371.819C376.753 94.4155 382.451 92.7838 388.265 92.7838C394.08 92.7838 399.778 94.4155 404.711 97.4935Z" stroke="#1B771B" stroke-width="2.12838" stroke-linecap="round" stroke-linejoin="round"/>
<path d="M388.804 89.8379H386.799V92.8537H388.804V89.8379Z" stroke="#1B771B" stroke-width="2.12838" stroke-linecap="round" stroke-linejoin="round"/>
<path d="M393.99 144.735C393.725 144.739 393.466 144.664 393.244 144.519C393.023 144.374 392.85 144.167 392.747 143.923L391.256 140.609C391.169 140.402 391.135 140.177 391.155 139.953C391.176 139.73 391.25 139.515 391.373 139.327C391.495 139.139 391.662 138.984 391.858 138.875C392.054 138.767 392.274 138.707 392.499 138.703H397.47C397.783 138.716 398.095 138.645 398.373 138.5C398.651 138.354 398.885 138.137 399.053 137.872C399.221 137.607 399.316 137.302 399.329 136.988C399.342 136.675 399.272 136.363 399.127 136.085L396.426 131.131C396.342 130.973 396.29 130.8 396.273 130.622C396.256 130.444 396.274 130.265 396.327 130.094C396.379 129.923 396.464 129.765 396.578 129.627C396.692 129.489 396.831 129.375 396.989 129.291C397.147 129.207 397.32 129.156 397.497 129.139C397.675 129.122 397.855 129.14 398.026 129.192C398.196 129.244 398.355 129.33 398.493 129.443C398.631 129.557 398.745 129.697 398.828 129.855L401.43 134.826C401.801 135.512 401.988 136.283 401.97 137.063C401.953 137.843 401.733 138.605 401.332 139.274C400.93 139.943 400.361 140.496 399.681 140.878C399.001 141.26 398.233 141.459 397.453 141.454H394.586L395.233 142.912C395.373 143.242 395.379 143.614 395.249 143.948C395.119 144.283 394.863 144.553 394.537 144.702C394.359 144.752 394.173 144.763 393.99 144.735Z" fill="#1B771B"/>
<path d="M392.499 141.372C392.293 141.368 392.09 141.323 391.902 141.24C391.582 141.076 391.339 140.794 391.224 140.453C391.109 140.112 391.133 139.741 391.289 139.417L393.112 135.606C393.283 135.305 393.562 135.081 393.893 134.979C394.223 134.877 394.58 134.905 394.891 135.058C395.201 135.21 395.442 135.474 395.564 135.798C395.686 136.122 395.68 136.479 395.548 136.799L393.725 140.577C393.614 140.81 393.441 141.008 393.225 141.148C393.008 141.289 392.757 141.366 392.499 141.372Z" fill="#1B771B"/>
<path d="M383.452 126.973C383.209 126.976 382.97 126.913 382.76 126.791C382.55 126.669 382.377 126.492 382.26 126.28C382.143 126.067 382.085 125.827 382.094 125.584C382.102 125.341 382.176 125.105 382.308 124.902L385.241 120.179C385.64 119.528 386.201 118.99 386.868 118.618C387.536 118.247 388.288 118.054 389.052 118.058C389.83 118.066 390.592 118.277 391.263 118.669C391.934 119.061 392.491 119.622 392.88 120.295L394.355 122.814L395.283 121.538C395.502 121.248 395.828 121.057 396.189 121.007C396.549 120.957 396.915 121.053 397.205 121.273C397.495 121.493 397.686 121.818 397.735 122.179C397.785 122.54 397.689 122.905 397.47 123.195L395.316 126.161C395.19 126.35 395.016 126.501 394.812 126.6C394.608 126.699 394.382 126.742 394.156 126.724C393.929 126.71 393.71 126.641 393.516 126.522C393.323 126.404 393.161 126.24 393.046 126.045L390.527 121.72C390.377 121.451 390.159 121.226 389.894 121.069C389.629 120.912 389.327 120.828 389.019 120.825C388.711 120.82 388.407 120.895 388.136 121.044C387.866 121.192 387.639 121.408 387.478 121.671L384.545 126.409C384.419 126.582 384.255 126.722 384.065 126.82C383.875 126.918 383.665 126.971 383.452 126.973Z" fill="#1B771B"/>
<path d="M390.031 126.956C389.696 126.931 389.383 126.783 389.151 126.54C388.919 126.298 388.785 125.978 388.775 125.643C388.765 125.307 388.879 124.98 389.095 124.724C389.312 124.468 389.615 124.301 389.948 124.255L394.19 124.006C394.368 123.993 394.548 124.016 394.717 124.072C394.887 124.128 395.044 124.217 395.18 124.334C395.315 124.451 395.426 124.593 395.506 124.753C395.587 124.913 395.635 125.087 395.648 125.266C395.661 125.444 395.639 125.624 395.582 125.793C395.526 125.963 395.437 126.12 395.32 126.256C395.203 126.391 395.061 126.502 394.901 126.582C394.741 126.663 394.567 126.711 394.389 126.724L390.13 127.022L390.031 126.956Z" fill="#1B771B"/>
<path d="M385.487 141.373H379.853C379.077 141.37 378.313 141.166 377.639 140.782C376.964 140.397 376.399 139.845 376.001 139.178C375.602 138.511 375.383 137.752 375.364 136.975C375.345 136.199 375.528 135.43 375.893 134.745L377.268 132.16L375.611 132.044C375.433 132.031 375.26 131.983 375.1 131.903C374.941 131.823 374.8 131.711 374.684 131.576C374.568 131.44 374.481 131.282 374.427 131.112C374.373 130.942 374.353 130.763 374.369 130.586C374.379 130.408 374.425 130.235 374.504 130.076C374.582 129.917 374.692 129.775 374.826 129.659C374.961 129.543 375.117 129.455 375.286 129.401C375.455 129.347 375.633 129.327 375.81 129.343L379.472 129.608C379.698 129.622 379.917 129.692 380.109 129.814C380.3 129.935 380.458 130.103 380.567 130.301C380.676 130.499 380.733 130.722 380.733 130.949C380.733 131.175 380.675 131.398 380.566 131.596L378.213 136.021C378.064 136.298 377.991 136.61 378.001 136.924C378.011 137.239 378.104 137.546 378.271 137.813C378.437 138.08 378.671 138.299 378.949 138.447C379.227 138.594 379.539 138.667 379.853 138.655H385.487C385.846 138.66 386.189 138.804 386.443 139.058C386.697 139.312 386.842 139.655 386.846 140.014C386.846 140.374 386.703 140.72 386.448 140.975C386.193 141.23 385.848 141.373 385.487 141.373Z" fill="#1B771B"/>
<path d="M382.009 135.789C381.793 135.79 381.579 135.74 381.386 135.642C381.193 135.544 381.025 135.401 380.899 135.226L378.413 131.763C378.194 131.473 378.098 131.107 378.148 130.747C378.198 130.386 378.388 130.06 378.678 129.84C378.968 129.621 379.334 129.525 379.695 129.575C380.055 129.625 380.381 129.816 380.601 130.106L383.169 133.635C383.315 133.837 383.403 134.076 383.422 134.325C383.441 134.573 383.392 134.823 383.279 135.045C383.166 135.268 382.994 135.455 382.782 135.586C382.569 135.717 382.325 135.788 382.075 135.789H382.009Z" fill="#1B771B"/>
<path d="M351.553 155.108H425.903" stroke="#1B771B" stroke-width="2.12838" stroke-linecap="round" stroke-linejoin="round"/>
<path d="M376.259 110.102V122.612" stroke="#1B771B" stroke-width="2.12838" stroke-linecap="round" stroke-linejoin="round"/>
<path d="M402.01 110.102V122.612" stroke="#1B771B" stroke-width="2.12838" stroke-linecap="round" stroke-linejoin="round"/>
<path d="M388.686 110.102V114.311" stroke="#1B771B" stroke-width="2.12838" stroke-linecap="round" stroke-linejoin="round"/>
<path d="M376.259 151.315V142.715" stroke="#1B771B" stroke-width="2.12838" stroke-linecap="round" stroke-linejoin="round"/>
<path d="M402.01 151.315V142.715" stroke="#1B771B" stroke-width="2.12838" stroke-linecap="round" stroke-linejoin="round"/>
<path d="M388.686 151.313V147.121" stroke="#1B771B" stroke-width="2.12838" stroke-linecap="round" stroke-linejoin="round"/>
<text fill="#1E1E1E" xml:space="preserve" style="white-space: pre" font-family="Titillium Web" font-size="40" font-weight="600" letter-spacing="0px"><tspan x="219.984" y="214.9">Reciclarea &#x219;i &#x2028;</tspan><tspan x="0.570312" y="256.9">managementul de&#x219;eurilor</tspan></text>
</svg>
