<svg width="1200" height="1000" viewBox="0 0 1200 1000" fill="none" xmlns="http://www.w3.org/2000/svg">
<g id="segment-health-01-grija-pentru-sanatatea-mamei-si-a-copilului">
<g id="Group 1179">
<g id="Group 1127">
<path id="Vector" d="M516.606 216.219C513.813 218.96 510.942 221.858 507.809 224.181C504.677 226.504 500.97 227.731 497.682 229.819C495.202 231.411 492.644 233.029 490.06 234.569C486.249 236.84 482.333 239.007 478.235 240.756C472.858 243.079 466.724 245.01 461.452 246.89C455.97 248.873 449.914 251.092 444.746 254.277" stroke="#C8CEDB" stroke-width="9.79333" stroke-miterlimit="10" stroke-linecap="round" stroke-linejoin="round"/>
<path id="Vector_2" d="M516.11 236.997C526.878 236.997 535.608 228.267 535.608 217.498C535.608 206.73 526.878 198 516.11 198C505.341 198 496.611 206.73 496.611 217.498C496.611 228.267 505.341 236.997 516.11 236.997Z" fill="white" stroke="#F90000" stroke-width="9.79333" stroke-miterlimit="10" stroke-linecap="round" stroke-linejoin="round"/>
<path id="Vector_3" d="M444.773 254.329C438.978 257.905 432.766 261.115 428.589 266.258C426.971 268.215 424.726 269.755 422.925 271.452C420.55 273.697 418.383 276.072 416.008 278.474C414.155 280.353 412.145 281.266 410.004 282.728C406.872 284.895 405.671 287.218 403.139 290.011C399.172 294.37 393.247 296.249 389.384 300.948C386.721 304.184 383.745 308.047 380.065 310.449C373.774 314.521 366.466 318.253 360.645 323.135C355.033 327.833 353.101 335.272 349.447 341.328C347.176 345.113 344.044 347.331 340.755 349.367" stroke="#C8CEDB" stroke-width="9.79333" stroke-miterlimit="10" stroke-linecap="round" stroke-linejoin="round"/>
<path id="Vector_4" d="M444.798 263.334C450.204 263.334 454.587 258.952 454.587 253.546C454.587 248.14 450.204 243.757 444.798 243.757C439.392 243.757 435.01 248.14 435.01 253.546C435.01 258.952 439.392 263.334 444.798 263.334Z" fill="#404366"/>
<path id="Vector_5" d="M327.677 403.008C329.766 397.944 331.41 392.723 331.932 387.555V387.477C332.48 382.282 331.906 377.114 329.635 372.181C326.946 366.386 326.424 360.069 331.828 355.319C334.647 352.839 337.779 351.168 340.755 349.341" stroke="#C8CEDB" stroke-width="9.79333" stroke-miterlimit="10" stroke-linecap="round" stroke-linejoin="round"/>
<path id="Vector_6" d="M340.729 358.399C346.135 358.399 350.517 354.016 350.517 348.61C350.517 343.204 346.135 338.822 340.729 338.822C335.323 338.822 330.94 343.204 330.94 348.61C330.94 354.016 335.323 358.399 340.729 358.399Z" fill="#404366"/>
<path id="Vector_7" d="M327.677 402.929C324.884 409.69 321.23 416.189 318.176 421.958C313.19 431.381 312.068 439.969 309.979 449.574" stroke="#C8CEDB" stroke-width="9.79333" stroke-miterlimit="10" stroke-linecap="round" stroke-linejoin="round"/>
<path id="Vector_8" d="M327.677 413.762C333.083 413.762 337.465 409.379 337.465 403.973C337.465 398.567 333.083 394.185 327.677 394.185C322.271 394.185 317.889 398.567 317.889 403.973C317.889 409.379 322.271 413.762 327.677 413.762Z" fill="#404366"/>
<path id="Vector_9" d="M288.706 494.575C295.675 482.672 303.193 471.056 307.03 460.354C307.056 460.302 307.056 460.302 307.056 460.302C307.526 458.971 307.943 457.666 308.309 456.361C308.935 454.038 309.484 451.767 309.953 449.574" stroke="#C8CEDB" stroke-width="9.79333" stroke-miterlimit="10" stroke-linecap="round" stroke-linejoin="round"/>
<path id="Vector_10" d="M311.311 460.302C316.717 460.302 321.099 455.92 321.099 450.514C321.099 445.108 316.717 440.726 311.311 440.726C305.905 440.726 301.522 445.108 301.522 450.514C301.522 455.92 305.905 460.302 311.311 460.302Z" fill="#404366"/>
<path id="Vector_11" d="M288.707 494.575C279.884 509.636 271.923 525.141 273.333 539.862" stroke="#C8CEDB" stroke-width="9.79333" stroke-miterlimit="10" stroke-linecap="round" stroke-linejoin="round"/>
<path id="Vector_12" d="M288.733 505.12C294.139 505.12 298.521 500.737 298.521 495.331C298.521 489.925 294.139 485.543 288.733 485.543C283.327 485.543 278.944 489.925 278.944 495.331C278.944 500.737 283.327 505.12 288.733 505.12Z" fill="#404366"/>
<path id="Vector_13" d="M273.332 539.862C273.671 543.281 274.481 546.649 275.942 549.938C276.856 552.052 278.004 553.853 279.309 555.445C286.514 564.294 298.312 566.747 301.523 580.216C302.149 582.826 302.593 585.933 302.88 589.274" stroke="#C8CEDB" stroke-width="9.79333" stroke-miterlimit="10" stroke-linecap="round" stroke-linejoin="round"/>
<path id="Vector_14" d="M272.888 550.695C278.294 550.695 282.676 546.312 282.676 540.906C282.676 535.5 278.294 531.118 272.888 531.118C267.482 531.118 263.1 535.5 263.1 540.906C263.1 546.312 267.482 550.695 272.888 550.695Z" fill="#404366"/>
<path id="Vector_15" d="M302.854 589.274C303.794 600.159 303.141 613.758 302.071 622.894C301.601 626.992 300.427 631.012 298.991 635.005" stroke="#F90000" stroke-width="9.79359" stroke-miterlimit="10" stroke-linejoin="round"/>
<path id="Vector_16" d="M303.063 598.54C308.469 598.54 312.851 594.158 312.851 588.752C312.851 583.346 308.469 578.963 303.063 578.963C297.657 578.963 293.274 583.346 293.274 588.752C293.274 594.158 297.657 598.54 303.063 598.54Z" fill="white" stroke="#F90000" stroke-width="5.22046" stroke-miterlimit="10" stroke-linecap="round" stroke-linejoin="round"/>
<path id="Vector_17" d="M298.991 635.005C295.989 643.253 291.735 651.371 289.62 659.672C287.872 666.432 286.906 672.88 286.384 679.301" stroke="#C8CEDB" stroke-width="9.79333" stroke-miterlimit="10" stroke-linecap="round" stroke-linejoin="round"/>
<path id="Vector_18" d="M297.529 644.063C302.935 644.063 307.317 639.68 307.317 634.274C307.317 628.868 302.935 624.486 297.529 624.486C292.123 624.486 287.74 628.868 287.74 634.274C287.74 639.68 292.123 644.063 297.529 644.063Z" fill="#404366"/>
<path id="Vector_19" d="M286.383 679.301C286.018 683.634 285.861 687.941 285.809 692.352C285.757 696.346 285.757 700.418 285.783 704.62C285.809 711.041 286.305 718.037 286.488 724.954" stroke="#C8CEDB" stroke-width="9.79333" stroke-miterlimit="10" stroke-linecap="round" stroke-linejoin="round"/>
<path id="Vector_20" d="M287.297 689.663C292.703 689.663 297.086 685.281 297.086 679.875C297.086 674.469 292.703 670.087 287.297 670.087C281.891 670.087 277.509 674.469 277.509 679.875C277.509 685.281 281.891 689.663 287.297 689.663Z" fill="#404366"/>
<path id="Vector_21" d="M286.487 724.954C286.618 729.991 286.566 734.977 286.018 739.649C284.921 749.072 279.675 756.72 274.663 764.681" stroke="#C8CEDB" stroke-width="9.79333" stroke-miterlimit="10" stroke-linecap="round" stroke-linejoin="round"/>
<path id="Vector_22" d="M285.991 734.742C291.397 734.742 295.78 730.36 295.78 724.954C295.78 719.548 291.397 715.165 285.991 715.165C280.586 715.165 276.203 719.548 276.203 724.954C276.203 730.36 280.586 734.742 285.991 734.742Z" fill="#404366"/>
<path id="Vector_23" d="M274.638 764.681C272.915 767.422 271.218 770.189 269.73 773.086C266.154 780.003 246.421 823.02 251.981 841.735" stroke="#F90000" stroke-width="9.79359" stroke-miterlimit="10" stroke-linejoin="round"/>
<path id="Vector_24" d="M272.888 775.723C278.294 775.723 282.676 771.34 282.676 765.934C282.676 760.528 278.294 756.146 272.888 756.146C267.482 756.146 263.1 760.528 263.1 765.934C263.1 771.34 267.482 775.723 272.888 775.723Z" fill="white" stroke="#F90000" stroke-width="5.22046" stroke-miterlimit="10" stroke-linecap="round" stroke-linejoin="round"/>
</g>
<text id="Dosarul Digital" fill="#1E1E1E" xml:space="preserve" style="white-space: pre" font-family="Titillium Web" font-size="20" font-weight="600" letter-spacing="0px"><tspan x="299" y="787.45">Dosarul Digital</tspan></text>
<text id="Asistent de sarcina" fill="#1E1E1E" xml:space="preserve" style="white-space: pre" font-family="Titillium Web" font-size="20" font-weight="600" letter-spacing="0px"><tspan x="95" y="728.45">Asistent de sarcina&#13;</tspan></text>
<text id="Pregnancy Fact Checker" fill="#1E1E1E" xml:space="preserve" style="white-space: pre" font-family="Titillium Web" font-size="20" font-weight="600" letter-spacing="0px"><tspan x="319" y="682.45">Pregnancy Fact Checker&#13;</tspan></text>
<text id="Doctor Call" fill="#1E1E1E" xml:space="preserve" style="white-space: pre" font-family="Titillium Web" font-size="20" font-weight="600" letter-spacing="0px"><tspan x="175" y="637.45">Doctor Call&#13;</tspan></text>
<text id="&#195;&#142;mpreun&#196;&#131; pentru s&#196;&#131;n&#196;&#131;tate" fill="#1E1E1E" xml:space="preserve" style="white-space: pre" font-family="Titillium Web" font-size="20" font-weight="600" letter-spacing="0px"><tspan x="334" y="591.45">&#xce;mpreun&#x103; pentru s&#x103;n&#x103;tate</tspan></text>
<text id="MediRide" fill="#1E1E1E" xml:space="preserve" style="white-space: pre" font-family="Titillium Web" font-size="20" font-weight="600" letter-spacing="0px"><tspan x="152" y="546.45">MediRide&#13;</tspan></text>
<text id="Preven&#200;&#155;ie Abandon" fill="#1E1E1E" xml:space="preserve" style="white-space: pre" font-family="Titillium Web" font-size="20" font-weight="600" letter-spacing="0px"><tspan x="96" y="486.45">Preven&#x21b;ie Abandon&#13;</tspan></text>
<text id="Re&#200;&#155;ea pentru boli rare" fill="#1E1E1E" xml:space="preserve" style="white-space: pre" font-family="Titillium Web" font-size="20" font-weight="600" letter-spacing="0px"><tspan x="345" y="458.45">Re&#x21b;ea pentru boli rare&#13;</tspan></text>
<g id="icon-grija-pentru-sanatatea-mamei-si-a-copilului 1">
<path id="Vector_25" d="M646.012 186.817L644.136 192.887C643.551 194.787 642.599 196.553 641.332 198.085C640.065 199.617 638.509 200.884 636.753 201.815C634.996 202.745 633.074 203.32 631.095 203.508C629.116 203.695 627.12 203.491 625.22 202.907C623.32 202.322 621.553 201.37 620.021 200.103C618.49 198.836 617.222 197.28 616.292 195.524C615.362 193.767 614.786 191.845 614.599 189.866C614.411 187.887 614.616 185.891 615.2 183.991L616.59 179.473C620.337 178.129 623.977 176.502 627.478 174.608C630.356 173.237 632.937 171.317 635.077 168.955C635.176 168.829 635.309 168.733 635.46 168.679C635.611 168.624 635.774 168.613 635.932 168.647C636.088 168.681 636.233 168.758 636.348 168.87C636.463 168.981 636.545 169.123 636.583 169.279C637.981 175.908 641.254 181.995 646.012 186.817Z" stroke="#F90000" stroke-width="2.875" stroke-linecap="round" stroke-linejoin="round"/>
<path id="Vector_26" d="M590.643 228.402C590.643 228.402 585.268 221.452 591.014 209.868C596.759 198.284 608.204 191.774 610.706 183.179L613.162 175.186C613.889 172.811 615.078 170.603 616.66 168.688C618.242 166.773 620.186 165.19 622.381 164.027C624.576 162.865 626.979 162.148 629.452 161.916C631.925 161.684 634.419 161.942 636.793 162.676C641.586 164.15 645.599 167.467 647.948 171.898C650.299 176.329 650.794 181.511 649.326 186.306L646.871 194.299C646.251 196.7 646.171 199.208 646.639 201.643" stroke="#F90000" stroke-width="2.875" stroke-miterlimit="10"/>
<path id="Vector_27" d="M613.206 180.609C614.341 180.261 615.523 179.891 616.589 179.474C620.336 178.129 623.976 176.503 627.477 174.608C630.895 173.074 633.857 170.679 636.072 167.658" stroke="#F90000" stroke-width="2.875" stroke-linecap="round" stroke-linejoin="round"/>
<path id="Vector_28" d="M636.281 167.658C637.451 174.902 640.853 181.6 646.012 186.818C646.842 187.637 647.716 188.41 648.63 189.134" stroke="#F90000" stroke-width="2.875" stroke-linecap="round" stroke-linejoin="round"/>
<path id="Vector_29" d="M628.522 184.405C628.131 184.846 627.613 185.155 627.04 185.29C626.466 185.425 625.865 185.379 625.319 185.158C624.772 184.937 624.308 184.552 623.99 184.056C623.671 183.56 623.515 182.978 623.541 182.389" stroke="#F90000" stroke-width="2.875" stroke-miterlimit="10"/>
<path id="Vector_30" d="M638.924 188.65C638.526 189.099 637.996 189.413 637.41 189.546C636.824 189.679 636.211 189.625 635.658 189.391C635.129 189.155 634.683 188.767 634.378 188.275C634.072 187.784 633.921 187.212 633.944 186.634" stroke="#F90000" stroke-width="2.875" stroke-miterlimit="10"/>
<path id="Vector_31" d="M624.56 193.44C625.389 194.321 626.402 195.008 627.527 195.453C628.653 195.897 629.862 196.088 631.07 196.011" stroke="#F90000" stroke-width="2.875" stroke-miterlimit="10" stroke-linecap="round"/>
<path id="Vector_32" d="M652.243 228.658C658.82 228.658 664.151 223.327 664.151 216.751C664.151 210.174 658.82 204.842 652.243 204.842C645.666 204.842 640.335 210.174 640.335 216.751C640.335 223.327 645.666 228.658 652.243 228.658Z" stroke="#F90000" stroke-width="2.875" stroke-miterlimit="10"/>
<path id="Vector_33" d="M648.587 212.856C649.29 212.856 649.861 212.286 649.861 211.582C649.861 210.878 649.29 210.308 648.587 210.308C647.883 210.308 647.312 210.878 647.312 211.582C647.312 212.286 647.883 212.856 648.587 212.856Z" fill="#F90000"/>
<path id="Vector_34" d="M654.629 218.206C655.332 218.206 655.903 217.635 655.903 216.931C655.903 216.228 655.332 215.657 654.629 215.657C653.925 215.657 653.354 216.228 653.354 216.931C653.354 217.635 653.925 218.206 654.629 218.206Z" fill="#F90000"/>
<path id="Vector_35" d="M646.242 216.934C646.257 217.62 646.502 218.28 646.937 218.811C647.38 219.338 647.996 219.692 648.675 219.807" stroke="#F90000" stroke-width="2.875" stroke-miterlimit="10" stroke-linecap="round"/>
<path id="Vector_36" d="M615.082 249.3C613.044 246.771 612.009 243.58 612.176 240.335C612.342 237.092 613.699 234.023 615.986 231.716L640.821 205.699C643.596 202.688 647.407 200.837 651.489 200.519C655.571 200.201 659.623 201.439 662.83 203.985C665.912 206.73 667.831 210.546 668.197 214.657C668.563 218.768 667.348 222.864 664.8 226.11L648.976 246.96" stroke="#F90000" stroke-width="2.875" stroke-miterlimit="10" stroke-linecap="round"/>
<path id="Vector_37" d="M632.021 203.588V208.337C632.021 208.929 632.182 209.51 632.489 210.016C632.795 210.523 633.234 210.935 633.758 211.21L634.824 211.743" stroke="#F90000" stroke-width="2.875" stroke-miterlimit="10" stroke-linecap="round"/>
<path id="Vector_38" d="M619.233 199.695V207.178C619.25 208.133 618.999 209.074 618.507 209.893C618.016 210.713 617.304 211.377 616.453 211.811L614.947 212.576L604.892 217.21C598.187 220.33 592.511 225.299 588.53 231.532C584.55 237.765 582.43 245.005 582.42 252.401V259.699" stroke="#F90000" stroke-width="2.875" stroke-miterlimit="10" stroke-linecap="round"/>
<path id="Vector_39" d="M658.869 234.592C662.055 238.358 664.627 242.604 666.491 247.172C667.403 249.466 667.803 251.932 667.662 254.397C667.522 256.862 666.846 259.267 665.68 261.443C663.55 264.693 660.302 267.05 656.552 268.069C652.825 269.067 648.948 269.389 645.107 269.019C635.487 268.52 626.131 265.698 617.839 260.794C616.793 260.129 615.822 259.352 614.943 258.477C614.642 258.176 614.318 257.805 614.388 257.388C614.433 257.173 614.549 256.979 614.716 256.837C614.884 256.694 615.094 256.611 615.314 256.601C615.75 256.587 616.185 256.666 616.588 256.832C618.269 257.294 620.022 257.435 621.754 257.249" stroke="#F90000" stroke-width="2.875" stroke-miterlimit="10"/>
<path id="Vector_40" d="M617.908 257.152C616.853 256.725 615.926 256.03 615.221 255.137C615.058 254.987 614.928 254.804 614.84 254.6C614.752 254.397 614.708 254.177 614.711 253.955C614.754 253.753 614.846 253.565 614.98 253.407C615.113 253.25 615.283 253.127 615.476 253.052C615.871 252.924 616.289 252.877 616.704 252.913C618.838 253.338 621.019 253.478 623.19 253.33" stroke="#F90000" stroke-width="2.875" stroke-miterlimit="10"/>
<path id="Vector_41" d="M618.557 253.12C617.438 252.737 616.451 252.046 615.707 251.127C615.537 250.964 615.405 250.765 615.321 250.545C615.237 250.324 615.202 250.088 615.22 249.853C615.286 249.619 615.417 249.407 615.597 249.243C615.777 249.079 616 248.97 616.24 248.926C616.715 248.846 617.201 248.846 617.676 248.926C620.976 249.343 624.315 249.343 627.615 248.926" stroke="#F90000" stroke-width="2.875" stroke-miterlimit="10"/>
<path id="Vector_42" d="M624.695 249.273C624.366 248.444 624.095 247.592 623.884 246.725C623.748 246.377 623.698 246.002 623.738 245.631C623.778 245.26 623.908 244.904 624.115 244.594C624.27 244.451 624.453 244.342 624.653 244.274C624.852 244.206 625.064 244.181 625.274 244.2C625.687 244.243 626.093 244.344 626.479 244.501C628.795 245.381 631.112 246.563 633.614 247.606C636.061 248.847 638.796 249.41 641.534 249.235C644.273 249.06 646.914 248.153 649.183 246.609C648.997 246.609 649.183 246.795 648.974 246.887" stroke="#F90000" stroke-width="2.875" stroke-miterlimit="10"/>
<path id="Vector_43" d="M638.6 249.281C638.93 251.766 638.733 254.292 638.02 256.695C637.315 259.134 635.904 261.31 633.966 262.95C632.027 264.575 629.543 265.403 627.016 265.267" stroke="#F90000" stroke-width="2.875" stroke-miterlimit="10"/>
<path id="Vector_44" d="M592.471 245.475H603.082V256.526H592.471V267.114H581.421V256.526H570.833V245.475H581.421V234.887H592.471V245.475Z" fill="white" stroke="#F90000" stroke-width="2.875" stroke-linecap="round" stroke-linejoin="round"/>
</g>
<text id="Programare la doctor" fill="#1E1E1E" xml:space="preserve" style="white-space: pre" font-family="Titillium Web" font-size="20" font-weight="600" letter-spacing="0px"><tspan x="117" y="395.45">Programare la doctor </tspan></text>
<text id="Sistem securizat de &#226;&#128;&#168;comunicare pentru medici" fill="#1E1E1E" xml:space="preserve" style="white-space: pre" font-family="Titillium Web" font-size="20" font-weight="600" letter-spacing="0px"><tspan x="367" y="361.45">Sistem securizat de &#x2028;</tspan><tspan x="367" y="383.45">comunicare&#13;pentru medici&#13;</tspan></text>
<text id="Comunit&#196;&#131;&#200;&#155;i pentru p&#196;&#131;rin&#200;&#155;i" fill="#1E1E1E" xml:space="preserve" style="white-space: pre" font-family="Titillium Web" font-size="20" font-weight="600" letter-spacing="0px"><tspan x="205" y="248.45">Comunit&#x103;&#x21b;i pentru p&#x103;rin&#x21b;i</tspan></text>
<text id="Grij&#196;&#131; pentru s&#196;&#131;n&#196;&#131;tatea &#226;&#128;&#168;mamei &#200;&#153;i a copilului" fill="#1E1E1E" xml:space="preserve" style="white-space: pre" font-family="Titillium Web" font-size="40" font-weight="600" letter-spacing="0px"><tspan x="714" y="209.9">Grij&#x103; pentru s&#x103;n&#x103;tatea&#13;&#x2028;</tspan><tspan x="714" y="251.9">mamei &#x219;i a copilului </tspan></text>
</g>
</g>
</svg>
