<svg width="493" height="201" viewBox="0 0 493 201" fill="none" xmlns="http://www.w3.org/2000/svg">
<path d="M229.424 82.103C220.981 88.1529 211.5 92.4194 201.477 93.5481C191.386 94.6769 181.363 91.4713 171.272 91.0198C164.184 90.7038 156.983 90.8167 149.962 90.478C144.702 90.2297 139.826 90.2071 135.086 89.9588C127.591 89.5525 120.458 88.5592 112.782 85.1279C101.066 79.8907 89.6662 75.2178 81.0202 65.2399C72.6677 55.6007 67.8142 43.546 59.236 33.8616C58.1073 32.5749 56.956 31.3107 55.8047 30.0917" stroke="#00B4CC" stroke-width="8.46967" stroke-miterlimit="10" stroke-linejoin="round" stroke-dasharray="10.59 10.59"/>
<path d="M229.424 99.7786C238.737 99.7786 246.287 92.2287 246.287 82.9155C246.287 73.6023 238.737 66.0525 229.424 66.0525C220.11 66.0525 212.561 73.6023 212.561 82.9155C212.561 92.2287 220.11 99.7786 229.424 99.7786Z" fill="white" stroke="#00B4CC" stroke-width="8.46967" stroke-miterlimit="10" stroke-linecap="round" stroke-linejoin="round"/>
<path d="M55.7814 30.1364C41.6047 15.1471 25.8929 5.2595 4.24414 4.24365" stroke="#00B4CC" stroke-width="8.46967" stroke-miterlimit="10" stroke-linecap="round" stroke-linejoin="round"/>
<path d="M56.3238 38.6024C60.9991 38.6024 64.7892 34.8123 64.7892 30.137C64.7892 25.4617 60.9991 21.6716 56.3238 21.6716C51.6485 21.6716 47.8584 25.4617 47.8584 30.137C47.8584 34.8123 51.6485 38.6024 56.3238 38.6024Z" fill="white" stroke="#00B4CC" stroke-width="4.51487" stroke-miterlimit="10" stroke-linecap="round" stroke-linejoin="round"/>
<path d="M303.598 188.77C303.776 188.936 303.918 189.137 304.014 189.36C304.11 189.583 304.159 189.823 304.156 190.066C304.156 190.552 303.962 191.019 303.614 191.362C303.267 191.706 302.796 191.899 302.305 191.899C302.018 191.899 301.735 191.834 301.478 191.708C301.22 191.581 300.996 191.398 300.821 191.172C300.651 191.399 300.43 191.583 300.175 191.709C299.92 191.835 299.638 191.901 299.353 191.899C298.862 191.899 298.392 191.706 298.044 191.362C297.697 191.019 297.502 190.552 297.502 190.066C297.495 189.992 297.495 189.918 297.502 189.845H226.907C226.907 190.332 226.712 190.8 226.365 191.147C226.019 191.493 225.548 191.69 225.055 191.694C224.583 191.678 224.136 191.479 223.811 191.141C223.554 191.408 223.221 191.592 222.857 191.669C222.492 191.747 222.113 191.713 221.768 191.573C221.423 191.433 221.129 191.193 220.924 190.885C220.719 190.576 220.613 190.214 220.619 189.845C220.618 189.562 220.684 189.283 220.811 189.031C220.939 188.778 221.124 188.559 221.353 188.39C221.125 188.218 220.94 187.995 220.813 187.74C220.685 187.485 220.619 187.205 220.619 186.92C220.619 186.434 220.814 185.968 221.161 185.624C221.509 185.28 221.979 185.087 222.47 185.087V124.36C222.098 124.366 221.732 124.261 221.42 124.058C221.109 123.855 220.867 123.564 220.725 123.222C220.584 122.881 220.55 122.505 220.628 122.144C220.706 121.782 220.892 121.453 221.162 121.199C220.954 121.03 220.786 120.819 220.668 120.579C220.551 120.339 220.488 120.078 220.484 119.811C220.479 119.545 220.533 119.281 220.642 119.038C220.75 118.795 220.911 118.578 221.113 118.402C221.315 118.226 221.553 118.097 221.811 118.021C222.069 117.946 222.34 117.927 222.606 117.966C222.871 118.005 223.126 118.101 223.35 118.247C223.575 118.393 223.765 118.586 223.907 118.812C224.082 118.585 224.31 118.402 224.57 118.278C224.831 118.155 225.118 118.094 225.407 118.101C225.892 118.109 226.355 118.306 226.695 118.649C227.035 118.992 227.226 119.453 227.226 119.934H297.215C297.216 119.568 297.327 119.211 297.534 118.908C297.74 118.605 298.032 118.369 298.374 118.23C298.715 118.092 299.091 118.056 299.452 118.129C299.814 118.201 300.146 118.379 300.406 118.638C300.576 118.465 300.78 118.328 301.005 118.235C301.23 118.143 301.471 118.097 301.715 118.101C301.961 118.096 302.205 118.141 302.433 118.231C302.662 118.321 302.869 118.456 303.044 118.626C303.22 118.797 303.359 119.001 303.454 119.225C303.549 119.45 303.598 119.691 303.598 119.934C303.598 120.219 303.532 120.499 303.404 120.754C303.277 121.009 303.092 121.231 302.864 121.404C303.093 121.572 303.278 121.792 303.406 122.044C303.534 122.297 303.599 122.576 303.598 122.858C303.594 123.326 303.411 123.774 303.085 124.112C302.758 124.45 302.314 124.652 301.843 124.676V185.672C301.991 185.655 302.141 185.655 302.29 185.672C302.534 185.672 302.776 185.72 303.002 185.813C303.227 185.906 303.432 186.042 303.604 186.214C303.776 186.386 303.912 186.59 304.004 186.815C304.096 187.039 304.143 187.279 304.14 187.521C304.133 187.992 303.938 188.441 303.598 188.77Z" stroke="#00B4CC" stroke-width="1.2" stroke-linecap="round" stroke-linejoin="round"/>
<path d="M294.104 128.61H230.179V181.909H294.104V128.61Z" stroke="#00B4CC" stroke-width="1.2" stroke-linecap="round" stroke-linejoin="round"/>
<path d="M241.157 145.95C241.697 148.955 241.016 152.049 239.261 154.558C237.506 157.066 234.82 158.784 231.79 159.338H231.439C229.168 159.685 226.844 159.359 224.759 158.402C222.674 157.446 220.921 155.9 219.719 153.96C218.518 152.019 217.922 149.771 218.006 147.496C218.09 145.221 218.851 143.022 220.192 141.174C221.534 139.326 223.396 137.911 225.546 137.108C227.697 136.305 230.038 136.148 232.278 136.659C234.517 137.169 236.555 138.323 238.135 139.976C239.714 141.629 240.766 143.708 241.157 145.95Z" fill="white" stroke="#00B4CC" stroke-width="1.2" stroke-linecap="round" stroke-linejoin="round"/>
<path d="M219.758 154.043C221.383 155.12 223.332 155.611 225.279 155.434C227.138 155.232 228.944 154.697 230.609 153.853C233.208 152.77 235.49 151.058 237.247 148.874C238.122 147.773 238.729 146.488 239.023 145.118C239.316 143.747 239.287 142.329 238.939 140.971" stroke="#00B4CC" stroke-width="1.2" stroke-linecap="round" stroke-linejoin="round"/>
<path d="M218.913 152.275C220.54 153.347 222.488 153.838 224.434 153.666C226.292 153.457 228.097 152.921 229.764 152.085C232.357 150.993 234.638 149.282 236.402 147.106C237.172 145.984 237.667 144.7 237.847 143.355C238.027 142.011 237.888 140.643 237.44 139.361" stroke="#00B4CC" stroke-width="1.2" stroke-linecap="round" stroke-linejoin="round"/>
<path d="M224.754 141.587C225.071 141.587 225.329 141.333 225.329 141.018C225.329 140.704 225.071 140.449 224.754 140.449C224.437 140.449 224.18 140.704 224.18 141.018C224.18 141.333 224.437 141.587 224.754 141.587Z" fill="#00B4CC"/>
<path d="M224.114 144.545C224.432 144.545 224.689 144.29 224.689 143.976C224.689 143.661 224.432 143.407 224.114 143.407C223.797 143.407 223.54 143.661 223.54 143.976C223.54 144.29 223.797 144.545 224.114 144.545Z" fill="#00B4CC"/>
<path d="M226.698 145.887C227.016 145.887 227.273 145.632 227.273 145.318C227.273 145.004 227.016 144.749 226.698 144.749C226.381 144.749 226.124 145.004 226.124 145.318C226.124 145.632 226.381 145.887 226.698 145.887Z" fill="#00B4CC"/>
<path d="M220.094 148.211C220.411 148.211 220.668 147.956 220.668 147.642C220.668 147.328 220.411 147.073 220.094 147.073C219.777 147.073 219.52 147.328 219.52 147.642C219.52 147.956 219.777 148.211 220.094 148.211Z" fill="#00B4CC"/>
<path d="M223.939 148.685C224.256 148.685 224.513 148.431 224.513 148.117C224.513 147.802 224.256 147.547 223.939 147.547C223.621 147.547 223.364 147.802 223.364 148.117C223.364 148.431 223.621 148.685 223.939 148.685Z" fill="#00B4CC"/>
<path d="M220.604 144.575C220.921 144.575 221.178 144.321 221.178 144.007C221.178 143.692 220.921 143.438 220.604 143.438C220.286 143.438 220.029 143.692 220.029 144.007C220.029 144.321 220.286 144.575 220.604 144.575Z" fill="#00B4CC"/>
<path d="M227.305 142.807C227.622 142.807 227.879 142.552 227.879 142.238C227.879 141.923 227.622 141.669 227.305 141.669C226.988 141.669 226.73 141.923 226.73 142.238C226.73 142.552 226.988 142.807 227.305 142.807Z" fill="#00B4CC"/>
<path d="M228.118 139.835C228.436 139.835 228.693 139.58 228.693 139.266C228.693 138.952 228.436 138.697 228.118 138.697C227.801 138.697 227.544 138.952 227.544 139.266C227.544 139.58 227.801 139.835 228.118 139.835Z" fill="#00B4CC"/>
<path d="M233.385 140.072C233.702 140.072 233.959 139.817 233.959 139.503C233.959 139.189 233.702 138.934 233.385 138.934C233.068 138.934 232.811 139.189 232.811 139.503C232.811 139.817 233.068 140.072 233.385 140.072Z" fill="#00B4CC"/>
<path d="M233.928 146.348C234.245 146.348 234.502 146.093 234.502 145.778C234.502 145.464 234.245 145.209 233.928 145.209C233.611 145.209 233.354 145.464 233.354 145.778C233.354 146.093 233.611 146.348 233.928 146.348Z" fill="#00B4CC"/>
<path d="M235.429 143.549C235.746 143.549 236.003 143.294 236.003 142.98C236.003 142.666 235.746 142.411 235.429 142.411C235.112 142.411 234.854 142.666 234.854 142.98C234.854 143.294 235.112 143.549 235.429 143.549Z" fill="#00B4CC"/>
<path d="M244.555 166.862C243.772 167.641 242.873 168.297 241.89 168.806C240.582 169.498 239.141 169.907 237.661 170.007L234.693 164.918L232.922 162.01L231.326 159.402H231.677C234.491 158.917 237.022 157.412 238.778 155.181L240.055 157.789L241.651 160.951L244.555 166.862Z" fill="white" stroke="#00B4CC" stroke-width="1.2" stroke-linecap="round" stroke-linejoin="round"/>
<path d="M244.556 166.878L246.152 170.039L246.615 171.003C246.97 171.74 247.023 172.583 246.765 173.358C246.506 174.133 245.955 174.779 245.226 175.16L244.524 175.539C243.801 175.935 242.952 176.037 242.154 175.825C241.357 175.613 240.673 175.102 240.248 174.401L239.482 173.121L237.646 169.96C239.126 169.86 240.567 169.45 241.875 168.759C242.857 168.265 243.76 167.631 244.556 166.878Z" fill="white" stroke="#00B4CC" stroke-width="1.2" stroke-linecap="round" stroke-linejoin="round"/>
<path d="M244.557 166.878L246.153 170.039C245.389 170.768 244.524 171.385 243.584 171.873C242.328 172.538 240.949 172.941 239.53 173.058L237.695 169.897C239.175 169.797 240.616 169.387 241.924 168.695C242.885 168.217 243.772 167.605 244.557 166.878Z" fill="white" stroke="#00B4CC" stroke-width="1.2" stroke-linecap="round" stroke-linejoin="round"/>
<path d="M268.396 178.023L275.816 172.19C277.442 170.833 278.696 169.092 279.463 167.128C280.23 165.164 280.485 163.04 280.204 160.952L277.188 138.618L268.172 136.706C265.374 136.104 262.479 136.091 259.675 136.668C256.871 137.245 254.22 138.4 251.896 140.056L244.428 145.399L250.667 167.053C251.254 169.079 252.347 170.926 253.845 172.423C255.342 173.92 257.196 175.02 259.236 175.62L268.396 178.023Z" fill="white"/>
<path d="M268.396 178.023L275.816 172.19C277.442 170.833 278.696 169.092 279.463 167.128C280.23 165.164 280.485 163.04 280.204 160.952L277.188 138.618L268.172 136.706C265.374 136.104 262.479 136.091 259.675 136.668C256.871 137.245 254.22 138.4 251.896 140.056L244.428 145.399L250.667 167.053C251.254 169.079 252.347 170.926 253.845 172.423C255.342 173.92 257.196 175.02 259.236 175.62L268.396 178.023Z" stroke="#00B4CC" stroke-width="1.2" stroke-linecap="round" stroke-linejoin="round"/>
<path d="M257.385 158.201C258.866 158.201 260.066 157.013 260.066 155.546C260.066 154.079 258.866 152.891 257.385 152.891C255.904 152.891 254.704 154.079 254.704 155.546C254.704 157.013 255.904 158.201 257.385 158.201Z" fill="#00B4CC"/>
<path d="M270.2 155.545C271.681 155.545 272.881 154.356 272.881 152.89C272.881 151.423 271.681 150.234 270.2 150.234C268.72 150.234 267.52 151.423 267.52 152.89C267.52 154.356 268.72 155.545 270.2 155.545Z" fill="#00B4CC"/>
<path d="M273.182 164.729C272.179 163.538 270.851 162.656 269.357 162.189C267.863 161.722 266.265 161.69 264.753 162.096C263.241 162.502 261.878 163.329 260.826 164.48C259.775 165.63 259.079 167.055 258.82 168.586C260.663 166.689 262.999 165.333 265.571 164.666C268.064 163.986 270.7 164.008 273.182 164.729Z" fill="#00B4CC"/>
<path d="M266.146 143.849C267.175 143.767 268.21 143.895 269.186 144.224C270.163 144.553 271.062 145.076 271.827 145.762" stroke="#00B4CC" stroke-width="1.2" stroke-linecap="round" stroke-linejoin="round"/>
<path d="M257.115 145.714C256.14 146.053 255.245 146.583 254.483 147.273C253.72 147.963 253.107 148.798 252.679 149.729" stroke="#00B4CC" stroke-width="1.2" stroke-linecap="round" stroke-linejoin="round"/>
<path d="M286.668 169.661L296.53 167.733C298.734 167.241 300.776 166.205 302.467 164.721C304.158 163.236 305.442 161.353 306.2 159.245L314.338 136.737L306.79 130.493C304.447 128.57 301.722 127.154 298.792 126.337C295.863 125.52 292.792 125.321 289.78 125.751L280.11 127.174L275.354 150.693C274.909 152.887 275.03 155.157 275.704 157.293C276.38 159.428 277.587 161.361 279.216 162.912L286.668 169.661Z" fill="white" stroke="#00B4CC" stroke-width="1.2" stroke-linecap="round" stroke-linejoin="round"/>
<path d="M287.099 146.313C288.668 146.313 289.94 145.054 289.94 143.5C289.94 141.946 288.668 140.686 287.099 140.686C285.531 140.686 284.259 141.946 284.259 143.5C284.259 145.054 285.531 146.313 287.099 146.313Z" fill="#00B4CC"/>
<path d="M300.487 149.996C302.056 149.996 303.327 148.737 303.327 147.183C303.327 145.629 302.056 144.369 300.487 144.369C298.918 144.369 297.646 145.629 297.646 147.183C297.646 148.737 298.918 149.996 300.487 149.996Z" fill="#00B4CC"/>
<path d="M282.359 151.057C282.669 152.951 283.524 154.715 284.821 156.14C286.118 157.564 287.802 158.588 289.671 159.088C291.541 159.589 293.516 159.545 295.361 158.961C297.206 158.378 298.841 157.28 300.072 155.799C296.941 156.667 293.629 156.667 290.498 155.799C287.389 155.006 284.569 153.363 282.359 151.057Z" fill="#00B4CC"/>
<path d="M300.68 138.253C301.691 138.669 302.606 139.286 303.366 140.066C304.127 140.846 304.717 141.774 305.1 142.79" stroke="#00B4CC" stroke-width="1.2" stroke-linecap="round" stroke-linejoin="round"/>
<path d="M291.231 135.646C290.153 135.487 289.052 135.544 287.997 135.816C286.941 136.088 285.952 136.567 285.088 137.227" stroke="#00B4CC" stroke-width="1.2" stroke-linecap="round" stroke-linejoin="round"/>
<text fill="#404366" xml:space="preserve" style="white-space: pre" font-family="Titillium Web" font-size="20" font-weight="600" letter-spacing="0px"><tspan x="76.2188" y="31.45">Theater Hub</tspan></text>
<text fill="#1E1E1E" xml:space="preserve" style="white-space: pre" font-family="Titillium Web" font-size="40" font-weight="600" letter-spacing="0px"><tspan x="329" y="145.9">Acces la </tspan><tspan x="329" y="185.9">cultura</tspan></text>
</svg>
