<svg width="271" height="242" viewBox="0 0 271 242" fill="none" xmlns="http://www.w3.org/2000/svg">
<path d="M236.895 48.0806C228.488 56.3352 219.522 64.412 211.293 74.1652C202.302 84.8581 194.022 97.5575 188.333 109.977C187.825 111.07 187.342 112.187 186.885 113.279C180.891 127.477 179.926 137.484 167.76 147.898C166.566 148.914 165.347 149.879 164.077 150.768C152.063 159.175 137.205 161.791 124.277 168.344C117.8 171.62 110.917 174.16 104.059 176.751C98.0652 179.011 92.0965 181.348 86.3818 184.269C78.5081 188.307 71.9552 195.927 64.0816 200.55C57.3255 204.512 49.6551 205.96 42.2386 209.236C35.9905 212.005 29.8694 215.306 23.7483 218.608" stroke="#1B771B" stroke-width="9.52938" stroke-miterlimit="10" stroke-linejoin="round" stroke-dasharray="11.91 11.91"/>
<path d="M266.129 4.77502C261.074 21.3605 236.895 48.08 236.895 48.08" stroke="#C8CEDB" stroke-width="9.52938" stroke-miterlimit="10" stroke-linecap="round" stroke-linejoin="round"/>
<path d="M23.7483 237.225C34.2268 237.225 42.7212 228.73 42.7212 218.252C42.7212 207.773 34.2268 199.279 23.7483 199.279C13.2699 199.279 4.77539 207.773 4.77539 218.252C4.77539 228.73 13.2699 237.225 23.7483 237.225Z" fill="white" stroke="#1B771B" stroke-width="9.52938" stroke-miterlimit="10" stroke-linecap="round" stroke-linejoin="round"/>
<path d="M236.844 57.6053C242.104 57.6053 246.369 53.341 246.369 48.0807C246.369 42.8204 242.104 38.5562 236.844 38.5562C231.584 38.5562 227.32 42.8204 227.32 48.0807C227.32 53.341 231.584 57.6053 236.844 57.6053Z" fill="#404366"/>
</svg>
