<svg width="414" height="462" viewBox="0 0 414 462" fill="none" xmlns="http://www.w3.org/2000/svg">
<path d="M242.012 258.404C245.085 263.214 248.533 267.837 252.275 272.165C253.023 273.021 253.772 273.876 254.52 274.704C263.153 284.164 271.572 293.677 280.819 302.789C286.138 308.027 289.051 314.333 291.163 321.04C295.786 335.738 296.428 352.225 309.47 362.727C315.511 367.59 323.048 370.156 329.649 374.137C334.113 376.863 338.255 380.043 341.997 383.704C353.463 394.901 363.566 407.994 373.054 421.355" stroke="#00B4CC" stroke-width="9.73285" stroke-miterlimit="10" stroke-linejoin="round" stroke-dasharray="12.17 12.17"/>
<path d="M5.02441 5.02319C16.5704 30.0084 29.9072 55.9022 45.5959 79.7117C56.2332 95.8786 67.9663 111.084 80.9021 124.418C90.4169 134.225 100.6 143.017 111.504 150.419C116.208 153.599 121.099 157.313 126.178 160.867C137.43 168.75 149.644 176.018 162.847 175.858C172.388 175.725 179.578 174.95 185.511 175.03C198.714 175.27 205.824 179.893 219.294 206.028C222.795 212.788 225.254 219.976 227.713 227.111C230.012 233.792 232.283 240.446 235.384 246.725C237.335 250.68 239.553 254.582 241.985 258.376" stroke="#C8CEDB" stroke-width="9.73285" stroke-miterlimit="10" stroke-linecap="round" stroke-linejoin="round"/>
<path d="M389.038 457.003C400.064 457.003 409.003 448.066 409.003 437.042C409.003 426.017 400.064 417.08 389.038 417.08C378.011 417.08 369.073 426.017 369.073 437.042C369.073 448.066 378.011 457.003 389.038 457.003Z" fill="white" stroke="#00B4CC" stroke-width="9.73285" stroke-miterlimit="10" stroke-linecap="round" stroke-linejoin="round"/>
<path d="M34.3173 71.4018C39.8526 71.4018 44.3399 66.9153 44.3399 61.3809C44.3399 55.8466 39.8526 51.3601 34.3173 51.3601C28.7819 51.3601 24.2947 55.8466 24.2947 61.3809C24.2947 66.9153 28.7819 71.4018 34.3173 71.4018Z" fill="#404366"/>
<path d="M63.3156 113.061C68.8509 113.061 73.3382 108.575 73.3382 103.041C73.3382 97.5062 68.8509 93.0198 63.3156 93.0198C57.7802 93.0198 53.293 97.5062 53.293 103.041C53.293 108.575 57.7802 113.061 63.3156 113.061Z" fill="#404366"/>
<path d="M92.3961 145.075C97.9314 145.075 102.419 140.589 102.419 135.054C102.419 129.52 97.9314 125.033 92.3961 125.033C86.8608 125.033 82.3735 129.52 82.3735 135.054C82.3735 140.589 86.8608 145.075 92.3961 145.075Z" fill="#404366"/>
<path d="M126.952 170.888C132.488 170.888 136.975 166.402 136.975 160.867C136.975 155.333 132.488 150.846 126.952 150.846C121.417 150.846 116.93 155.333 116.93 160.867C116.93 166.402 121.417 170.888 126.952 170.888Z" fill="#404366"/>
<path d="M177.841 185.853C183.376 185.853 187.864 181.366 187.864 175.832C187.864 170.298 183.376 165.811 177.841 165.811C172.306 165.811 167.818 170.298 167.818 175.832C167.818 181.366 172.306 185.853 177.841 185.853Z" fill="#404366"/>
<path d="M221.299 223.424C226.834 223.424 231.322 218.938 231.322 213.404C231.322 207.869 226.834 203.383 221.299 203.383C215.764 203.383 211.276 207.869 211.276 213.404C211.276 218.938 215.764 223.424 221.299 223.424Z" fill="#404366"/>
<path d="M241.343 268.398C246.878 268.398 251.366 263.911 251.366 258.377C251.366 252.842 246.878 248.356 241.343 248.356C235.808 248.356 231.321 252.842 231.321 258.377C231.321 263.911 235.808 268.398 241.343 268.398Z" fill="#404366"/>
</svg>
