<svg width="595" height="335" viewBox="0 0 595 335" fill="none" xmlns="http://www.w3.org/2000/svg">
<path d="M581.539 5C570.539 10.4863 559.182 14.8479 548.539 21.8429C525.88 36.7382 512.988 49.9875 484.898 51.414C465.806 52.4015 447.728 49.8229 429.02 50.3441C424.521 50.4813 419.995 50.783 415.414 51.3865C401.781 53.1147 393.112 56.0499 382.606 48.808C375.227 43.7057 369.741 36.1895 359.92 32.6783C345.272 27.4389 326.234 22.1995 310.736 20.6085C291.424 18.6334 281.686 26.8903 265.062 33.1446C249.756 38.9052 235.217 38.7955 223.229 52.3466C216.728 59.6708 217.332 70.0948 212.229 78.4613C207.456 86.3067 199.364 90.4763 192.342 95.7706C157.092 122.352 127.713 158.342 79.6808 160.372C61.2743 161.14 43.0873 166.269 26.4639 174.773" stroke="#FFA506" stroke-width="10.292" stroke-miterlimit="10" stroke-linejoin="round" stroke-dasharray="12.87 12.87"/>
<path d="M26.4913 194.057C37.8083 194.057 46.9825 184.883 46.9825 173.566C46.9825 162.249 37.8083 153.075 26.4913 153.075C15.1743 153.075 6 162.249 6 173.566C6 184.883 15.1743 194.057 26.4913 194.057Z" fill="white" stroke="#FFA506" stroke-width="10.292" stroke-miterlimit="10" stroke-linecap="round" stroke-linejoin="round"/>
<text fill="#1E1E1E" xml:space="preserve" style="white-space: pre" font-family="Titillium Web" font-size="40" font-weight="600" letter-spacing="0px"><tspan x="155" y="274.9">&#xce;nv&#x103;&#x21b;&#x103;m&#xe2;nt </tspan><tspan x="155" y="316.9">preuniversitar&#13;de calitate</tspan></text>
<path d="M96.5753 284.655L56.1315 261.228L15.9629 284.655L56.2693 308.1L96.5753 284.655Z" stroke="#FFA506" stroke-width="2.22222" stroke-linecap="round" stroke-linejoin="round"/>
<path d="M56.1304 284.535L35.9688 296.292V321.249" stroke="#FFA506" stroke-width="2.22222" stroke-linecap="round" stroke-linejoin="round"/>
<path d="M15.9629 288.525L56.2693 311.953L96.5753 288.525" stroke="#FFA506" stroke-width="2.22222" stroke-linecap="round" stroke-linejoin="round"/>
<path d="M25.4336 294.041V317.107H86.9157V294.126" stroke="#FFA506" stroke-width="2.22222" stroke-linecap="round" stroke-linejoin="round"/>
<path d="M35.9681 312.812C37.6008 312.812 38.9245 311.488 38.9245 309.856C38.9245 308.223 37.6008 306.899 35.9681 306.899C34.3353 306.899 33.0117 308.223 33.0117 309.856C33.0117 311.488 34.3353 312.812 35.9681 312.812Z" fill="#FFA506"/>
<path d="M35.9366 310.678C37.4865 310.678 38.9729 311.294 40.0689 312.39C41.1648 313.486 41.7805 314.972 41.7805 316.522V323.999H30.127V316.522C30.1269 314.978 30.7379 313.497 31.8264 312.402C32.915 311.307 34.3926 310.687 35.9366 310.678Z" fill="#FFA506"/>
<path d="M56.4068 286.135C57.2898 286.135 58.0053 285.419 58.0053 284.537C58.0053 283.654 57.2898 282.938 56.4068 282.938C55.5241 282.938 54.8086 283.654 54.8086 284.537C54.8086 285.419 55.5241 286.135 56.4068 286.135Z" fill="#FFA506"/>
<path d="M40.9365 270.081V246.963H113.849V301.192H86.9149" stroke="#FFA506" stroke-width="2.22222" stroke-miterlimit="10"/>
<path d="M72.0303 270.374C74.2519 269.276 76.7897 268.996 79.1977 269.583C81.5838 270.168 84.0658 270.25 86.4854 269.824C87.947 269.432 89.2581 268.612 90.2495 267.469C91.3841 266.146 91.9684 264.221 92.9826 262.846C95.2513 259.907 97.606 260.663 102.711 257.689" stroke="#FFA506" stroke-width="2.22222" stroke-linecap="round" stroke-linejoin="round"/>
<path d="M101.423 255.403L104.207 260.078L106.854 255.334L101.423 255.403Z" stroke="#FFA506" stroke-width="2.22222" stroke-linecap="round" stroke-linejoin="round"/>
<path d="M96.4023 297.203H108.83V265.267" stroke="#FFA506" stroke-width="2.22222" stroke-linecap="round" stroke-linejoin="round"/>
<path d="M108.831 251.364H45.957V267.16" stroke="#FFA506" stroke-width="2.22222" stroke-linecap="round" stroke-linejoin="round"/>
</svg>
