<svg width="1200" height="1000" viewBox="0 0 1200 1000" fill="none" xmlns="http://www.w3.org/2000/svg">
<g id="segment-participation-04-societate-civila-puternica">
<g id="Group 1162">
<g id="Group 1115">
<path id="Vector" d="M685.087 644.691C685.034 646.277 684.929 647.889 684.796 649.502C684.241 656.243 683.105 663.09 681.254 670.096C678.558 680.326 676.601 689.368 675.359 697.616C674.83 701.158 674.407 704.568 674.116 707.846C672.16 730.528 676.152 747.818 684.823 770.42C688.762 780.678 693.653 792.045 699.389 805.475C703.328 814.727 707.531 824.271 711.999 833.973" stroke="#00B4CC" stroke-width="9.91854" stroke-miterlimit="10" stroke-linejoin="round" stroke-dasharray="12.4 12.4"/>
<path id="Vector_2" d="M676.232 591.766C682.233 608.896 685.829 626.371 685.088 644.691" stroke="#C8CEDB" stroke-width="9.91854" stroke-miterlimit="10" stroke-linecap="round" stroke-linejoin="round"/>
<path id="Vector_3" d="M625.29 487.185C627.934 491.705 630.445 496.622 632.904 501.777C647.549 532.337 665.605 561.496 676.206 591.792" stroke="#C8CEDB" stroke-width="9.91854" stroke-miterlimit="10" stroke-linecap="round" stroke-linejoin="round"/>
<path id="Vector_4" d="M588.491 455.884C596.369 459.136 603.586 462.837 610.037 468.071C615.853 472.777 620.77 479.412 625.29 487.158" stroke="#C8CEDB" stroke-width="9.91854" stroke-miterlimit="10" stroke-linecap="round" stroke-linejoin="round"/>
<path id="Vector_5" d="M524.991 428.656C531.97 432.251 539.372 435.82 547.277 439.494C549.074 440.34 550.846 441.133 552.617 441.926C565.544 447.716 577.625 451.391 588.491 455.911" stroke="#00B4CC" stroke-width="9.91854" stroke-miterlimit="10" stroke-linecap="round" stroke-linejoin="round"/>
<path id="Vector_6" d="M480.816 399.708C483.328 401.875 485.866 403.937 488.43 405.92C499.533 414.485 511.482 421.649 524.991 428.629" stroke="#C8CEDB" stroke-width="9.91854" stroke-miterlimit="10" stroke-linecap="round" stroke-linejoin="round"/>
<path id="Vector_7" d="M426.146 328.093C434.077 341.628 442.087 355.084 451.472 367.747C452.926 369.703 454.407 371.659 455.94 373.563C464.029 383.767 472.198 392.279 480.843 399.708" stroke="#C8CEDB" stroke-width="9.91854" stroke-miterlimit="10" stroke-linecap="round" stroke-linejoin="round"/>
<path id="Vector_8" d="M404.787 293.408C406.347 295.682 407.88 297.982 409.361 300.308C414.489 308.318 419.327 316.487 424.112 324.656C424.773 325.793 425.46 326.929 426.121 328.066" stroke="#00B4CC" stroke-width="9.91854" stroke-miterlimit="10" stroke-linecap="round" stroke-linejoin="round"/>
<path id="Vector_9" d="M377.029 254.759C383.453 264.038 390.274 273.053 396.883 282.2C399.553 285.901 402.223 289.628 404.787 293.409" stroke="#C8CEDB" stroke-width="9.91854" stroke-miterlimit="10" stroke-linecap="round" stroke-linejoin="round"/>
<path id="Vector_10" d="M349.482 219.097C356.118 226.631 362.965 234.219 368.701 242.334C369.627 243.63 370.499 244.925 371.345 246.273C373.196 249.155 375.099 251.984 377.029 254.786" stroke="#00B4CC" stroke-width="9.91854" stroke-miterlimit="10" stroke-linecap="round" stroke-linejoin="round"/>
<path id="Vector_11" d="M122 169.371C142.858 166.357 163.663 162.524 183.49 167.15C191.923 169.133 198.797 173.178 205.511 177.196C214.288 182.43 222.854 187.612 234.485 187.982C250.849 188.484 265.918 181.981 281.938 183.567C283.947 183.752 285.956 184.096 288.018 184.572C300.364 187.479 308.929 195.728 320.244 199.111C325.69 200.724 329.867 202.363 333.594 204.531C338.353 207.28 342.344 210.928 347.235 216.506C348.002 217.379 348.742 218.225 349.509 219.097" stroke="#C8CEDB" stroke-width="9.91854" stroke-miterlimit="10" stroke-linecap="round" stroke-linejoin="round"/>
<path id="Vector_12" d="M711.34 855.148C722.246 855.148 731.087 846.306 731.087 835.4C731.087 824.494 722.246 815.652 711.34 815.652C700.433 815.652 691.592 824.494 691.592 835.4C691.592 846.306 700.433 855.148 711.34 855.148Z" fill="white" stroke="#00B4CC" stroke-width="9.91854" stroke-miterlimit="10" stroke-linecap="round" stroke-linejoin="round"/>
<path id="Vector_13" d="M217.831 192.423C223.306 192.423 227.744 187.984 227.744 182.509C227.744 177.034 223.306 172.596 217.831 172.596C212.355 172.596 207.917 177.034 207.917 182.509C207.917 187.984 212.355 192.423 217.831 192.423Z" fill="#404366"/>
<path id="Vector_14" d="M310.066 206.302C315.541 206.302 319.979 201.863 319.979 196.388C319.979 190.913 315.541 186.475 310.066 186.475C304.591 186.475 300.152 190.913 300.152 196.388C300.152 201.863 304.591 206.302 310.066 206.302Z" fill="#404366"/>
<path id="Vector_15" d="M349.827 227.636C355.302 227.636 359.74 223.197 359.74 217.722C359.74 212.247 355.302 207.809 349.827 207.809C344.352 207.809 339.913 212.247 339.913 217.722C339.913 223.197 344.352 227.636 349.827 227.636Z" fill="#404366"/>
<path id="Vector_16" d="M376.685 264.355C382.16 264.355 386.598 259.917 386.598 254.442C386.598 248.967 382.16 244.528 376.685 244.528C371.21 244.528 366.771 248.967 366.771 254.442C366.771 259.917 371.21 264.355 376.685 264.355Z" fill="white" stroke="#00B4CC" stroke-width="5.28721" stroke-miterlimit="10" stroke-linecap="round" stroke-linejoin="round"/>
<path id="Vector_17" d="M404.787 302.027C410.262 302.027 414.7 297.588 414.7 292.113C414.7 286.638 410.262 282.2 404.787 282.2C399.311 282.2 394.873 286.638 394.873 292.113C394.873 297.588 399.311 302.027 404.787 302.027Z" fill="#404366"/>
<path id="Vector_18" d="M426.305 336.023C431.78 336.023 436.219 331.585 436.219 326.11C436.219 320.635 431.78 316.196 426.305 316.196C420.83 316.196 416.392 320.635 416.392 326.11C416.392 331.585 420.83 336.023 426.305 336.023Z" fill="white" stroke="#00B4CC" stroke-width="5.28721" stroke-miterlimit="10" stroke-linecap="round" stroke-linejoin="round"/>
<path id="Vector_19" d="M451.446 376.735C456.921 376.735 461.359 372.297 461.359 366.821C461.359 361.346 456.921 356.908 451.446 356.908C445.971 356.908 441.532 361.346 441.532 366.821C441.532 372.297 445.971 376.735 451.446 376.735Z" fill="#404366"/>
<path id="Vector_20" d="M480.817 409.304C486.292 409.304 490.73 404.866 490.73 399.391C490.73 393.916 486.292 389.477 480.817 389.477C475.342 389.477 470.903 393.916 470.903 399.391C470.903 404.866 475.342 409.304 480.817 409.304Z" fill="#404366"/>
<path id="Vector_21" d="M524.621 438.331C530.096 438.331 534.534 433.892 534.534 428.417C534.534 422.942 530.096 418.504 524.621 418.504C519.145 418.504 514.707 422.942 514.707 428.417C514.707 433.892 519.145 438.331 524.621 438.331Z" fill="#404366"/>
<path id="Vector_22" d="M588.517 465.798C593.992 465.798 598.431 461.359 598.431 455.884C598.431 450.409 593.992 445.971 588.517 445.971C583.042 445.971 578.604 450.409 578.604 455.884C578.604 461.359 583.042 465.798 588.517 465.798Z" fill="white" stroke="#00B4CC" stroke-width="5.28721" stroke-miterlimit="10" stroke-linecap="round" stroke-linejoin="round"/>
<path id="Vector_23" d="M625.739 496.622C631.214 496.622 635.652 492.184 635.652 486.709C635.652 481.234 631.214 476.795 625.739 476.795C620.264 476.795 615.825 481.234 615.825 486.709C615.825 492.184 620.264 496.622 625.739 496.622Z" fill="#404366"/>
<path id="Vector_24" d="M675.413 597.793C680.888 597.793 685.326 593.355 685.326 587.88C685.326 582.405 680.888 577.966 675.413 577.966C669.937 577.966 665.499 582.405 665.499 587.88C665.499 593.355 669.937 597.793 675.413 597.793Z" fill="#404366"/>
<path id="Vector_25" d="M685.194 654.604C690.669 654.604 695.107 650.166 695.107 644.691C695.107 639.216 690.669 634.777 685.194 634.777C679.719 634.777 675.28 639.216 675.28 644.691C675.28 650.166 679.719 654.604 685.194 654.604Z" fill="#404366"/>
</g>
<text class="btn-project" text-decoration="underline" cursor="pointer" projectid="1" id="Registrul Na&#200;&#155;ional ONG" fill="#1E1E1E" xml:space="preserve" style="white-space: pre" font-family="Titillium Web" font-size="18" font-weight="600" letter-spacing="0px"><tspan x="230" y="148.705">Registrul Na&#x21b;ional ONG</tspan></text>
<text class="btn-project" text-decoration="underline" cursor="pointer" projectid="2" id="ONG Hub" fill="#1E1E1E" xml:space="preserve" style="white-space: pre" font-family="Titillium Web" font-size="18" font-weight="600" letter-spacing="0px"><tspan x="228" y="233.705">ONG Hub</tspan></text>
<text class="btn-project" text-decoration="underline" cursor="pointer" projectid="3" id="Website Factory" fill="#1E1E1E" xml:space="preserve" style="white-space: pre" font-family="Titillium Web" font-size="18" font-weight="600" letter-spacing="0px"><tspan x="367" y="193.705">Website Factory</tspan></text>
<text class="btn-project" text-decoration="underline" cursor="pointer" projectid="4" id="Redirectioneaza" fill="#1E1E1E" xml:space="preserve" style="white-space: pre" font-family="Titillium Web" font-size="18" font-weight="600" letter-spacing="0px"><tspan x="237" y="285.705">Redirectioneaza</tspan></text>
<text class="btn-project" text-decoration="underline" cursor="pointer" projectid="5" id="RoHelp" fill="#1E1E1E" xml:space="preserve" style="white-space: pre" font-family="Titillium Web" font-size="18" font-weight="600" letter-spacing="0px"><tspan x="425" y="273.705">RoHelp</tspan></text>
<text class="btn-project" text-decoration="underline" cursor="pointer" projectid="6" id="Paul" fill="#1E1E1E" xml:space="preserve" style="white-space: pre" font-family="Titillium Web" font-size="18" font-weight="600" letter-spacing="0px"><tspan x="363" y="341.705">Paul</tspan></text>
<text class="btn-project" text-decoration="underline" cursor="pointer" projectid="7" id="Alex" fill="#1E1E1E" xml:space="preserve" style="white-space: pre" font-family="Titillium Web" font-size="18" font-weight="600" letter-spacing="0px"><tspan x="481" y="356.705">Alex</tspan></text>
<text class="btn-project" text-decoration="underline" cursor="pointer" projectid="8" id="Teo" fill="#1E1E1E" xml:space="preserve" style="white-space: pre" font-family="Titillium Web" font-size="18" font-weight="600" letter-spacing="0px"><tspan x="434" y="419.705">Teo</tspan></text>
<text class="btn-project" text-decoration="underline" cursor="pointer" projectid="9" id="Funding Call" fill="#1E1E1E" xml:space="preserve" style="white-space: pre" font-family="Titillium Web" font-size="18" font-weight="600" letter-spacing="0px"><tspan x="540" y="404.705">Funding Call</tspan></text>
<text class="btn-project" text-decoration="underline" cursor="pointer" projectid="10" id="VotONG" fill="#1E1E1E" xml:space="preserve" style="white-space: pre" font-family="Titillium Web" font-size="18" font-weight="600" letter-spacing="0px"><tspan x="615" y="446.705">VotONG</tspan></text>
<text class="btn-project" text-decoration="underline" cursor="pointer" projectid="11" id="Centru Civic" fill="#1E1E1E" xml:space="preserve" style="white-space: pre" font-family="Titillium Web" font-size="18" font-weight="600" letter-spacing="0px"><tspan x="512" y="520.705">Centru Civic&#13;</tspan></text>
<text class="btn-project" text-decoration="underline" cursor="pointer" projectid="12" id="DateONG" fill="#1E1E1E" xml:space="preserve" style="white-space: pre" font-family="Titillium Web" font-size="18" font-weight="600" letter-spacing="0px"><tspan x="571" y="594.705">DateONG</tspan></text>
<text class="btn-project" text-decoration="underline" cursor="pointer" projectid="13" id="Finantari publice" fill="#1E1E1E" xml:space="preserve" style="white-space: pre" font-family="Titillium Web" font-size="18" font-weight="600" letter-spacing="0px"><tspan x="517" y="651.705">Finantari publice </tspan></text>
<g id="icon-o-societate-civila-puternica 1">
<path id="Vector_26" d="M835.313 748.011H798.963V772.126H835.313V748.011Z" fill="white" stroke="#00B4CC" stroke-width="2.025" stroke-miterlimit="10"/>
<path id="Vector_27" d="M798.963 754.715H835.327" stroke="#00B4CC" stroke-width="2.025" stroke-miterlimit="10"/>
<path id="Vector_28" d="M811.484 766.979C811.143 767.357 810.717 767.65 810.242 767.833C809.766 768.016 809.254 768.084 808.747 768.033C808.24 768.084 807.728 768.016 807.253 767.833C806.777 767.65 806.351 767.357 806.01 766.979C805.409 765.984 805.131 764.826 805.216 763.667C805.136 762.494 805.413 761.325 806.01 760.314C806.344 759.924 806.768 759.621 807.244 759.431C807.721 759.24 808.236 759.167 808.747 759.219C809.258 759.167 809.773 759.24 810.25 759.431C810.726 759.621 811.15 759.924 811.484 760.314C812.087 761.323 812.365 762.494 812.278 763.667C812.372 764.827 812.094 765.987 811.484 766.979ZM807.379 765.87C807.524 766.095 807.729 766.276 807.97 766.392C808.212 766.508 808.481 766.555 808.747 766.527C809.014 766.555 809.283 766.508 809.524 766.392C809.766 766.276 809.971 766.095 810.116 765.87C810.412 765.175 810.539 764.42 810.485 763.667C810.533 762.9 810.407 762.133 810.116 761.422C809.955 761.212 809.748 761.042 809.51 760.925C809.273 760.808 809.012 760.747 808.747 760.747C808.483 760.747 808.221 760.808 807.984 760.925C807.747 761.042 807.54 761.212 807.379 761.422C807.087 762.133 806.961 762.9 807.009 763.667C806.951 764.419 807.073 765.174 807.365 765.87H807.379Z" fill="#00B4CC"/>
<path id="Vector_29" d="M814.07 767.882V759.315H816.986L819.038 766.322H819.162V759.315H820.886V767.828H818.039L815.891 760.875H815.767V767.882H814.07Z" fill="#00B4CC"/>
<path id="Vector_30" d="M826.593 764.789V763.284H829.07V767.705C828.111 767.874 827.141 767.97 826.168 767.992C825.659 768.054 825.143 767.989 824.666 767.802C824.188 767.616 823.764 767.314 823.431 766.925C822.881 765.902 822.638 764.742 822.733 763.585C822.634 762.419 822.902 761.252 823.5 760.246C823.827 759.877 824.237 759.592 824.696 759.414C825.156 759.235 825.651 759.169 826.141 759.219C826.987 759.229 827.831 759.32 828.659 759.493L829.111 759.575V760.944C828.298 760.846 827.48 760.791 826.661 760.779C826.194 760.742 825.725 760.817 825.292 760.998C825.006 761.195 824.806 761.494 824.731 761.833C824.577 762.515 824.512 763.215 824.54 763.914C824.484 764.618 824.611 765.325 824.909 765.966C825.087 766.187 825.32 766.357 825.584 766.461C825.848 766.564 826.134 766.596 826.415 766.555H827.441V764.789H826.593Z" fill="#00B4CC"/>
<path id="Vector_31" d="M874.112 748.011H837.762V772.126H874.112V748.011Z" fill="white" stroke="#00B4CC" stroke-width="2.025" stroke-miterlimit="10"/>
<path id="Vector_32" d="M837.762 754.715H874.112" stroke="#00B4CC" stroke-width="2.025" stroke-miterlimit="10"/>
<path id="Vector_33" d="M850.283 766.98C849.531 767.653 848.556 768.025 847.546 768.025C846.536 768.025 845.562 767.653 844.809 766.98C844.199 765.988 843.921 764.828 844.015 763.668C843.929 762.495 844.206 761.324 844.809 760.314C845.547 759.612 846.527 759.22 847.546 759.22C848.565 759.22 849.545 759.612 850.283 760.314C850.881 761.326 851.157 762.495 851.077 763.668C851.162 764.827 850.885 765.985 850.283 766.98ZM846.178 765.871C846.345 766.072 846.554 766.234 846.79 766.345C847.027 766.456 847.285 766.513 847.546 766.513C847.807 766.513 848.066 766.456 848.302 766.345C848.539 766.234 848.748 766.072 848.915 765.871C849.211 765.176 849.338 764.421 849.284 763.668C849.332 762.901 849.206 762.134 848.915 761.423C848.754 761.213 848.547 761.043 848.309 760.926C848.072 760.809 847.811 760.748 847.546 760.748C847.282 760.748 847.02 760.809 846.783 760.926C846.546 761.043 846.339 761.213 846.178 761.423C845.886 762.134 845.76 762.901 845.808 763.668C845.75 764.42 845.872 765.175 846.164 765.871H846.178Z" fill="#00B4CC"/>
<path id="Vector_34" d="M852.845 767.882V759.315H855.76L857.799 766.322H857.936V759.315H859.688V767.828H856.841L854.72 760.82H854.597V767.828L852.845 767.882Z" fill="#00B4CC"/>
<path id="Vector_35" d="M865.395 764.789V763.284H867.9V767.704C866.942 767.874 865.972 767.97 864.999 767.992C864.49 768.053 863.973 767.988 863.496 767.802C863.018 767.616 862.594 767.314 862.261 766.924C861.683 765.896 861.421 764.72 861.509 763.544C861.414 762.376 861.687 761.209 862.289 760.204C862.616 759.836 863.026 759.551 863.486 759.372C863.945 759.194 864.44 759.127 864.93 759.178C865.776 759.187 866.62 759.279 867.448 759.451L867.9 759.534V760.902C867.082 760.804 866.26 760.749 865.436 760.738C864.969 760.699 864.5 760.774 864.068 760.957C863.782 761.154 863.581 761.452 863.507 761.792C863.352 762.474 863.288 763.173 863.315 763.872C863.26 764.577 863.387 765.284 863.685 765.925C863.917 766.322 864.424 766.513 865.19 766.513H866.217V764.789H865.395Z" fill="#00B4CC"/>
<path id="Vector_36" d="M788.355 749.405H793.652" stroke="#00B4CC" stroke-width="2.025" stroke-linecap="round" stroke-linejoin="round"/>
<path id="Vector_37" d="M792.981 751.131H795.637" stroke="#00B4CC" stroke-width="2.025" stroke-linecap="round" stroke-linejoin="round"/>
<path id="Vector_38" d="M783.592 751.131H788.888" stroke="#00B4CC" stroke-width="2.025" stroke-linecap="round" stroke-linejoin="round"/>
<path id="Vector_39" d="M807.981 749.405H813.278" stroke="#00B4CC" stroke-width="2.025" stroke-linecap="round" stroke-linejoin="round"/>
<path id="Vector_40" d="M827.305 749.405H832.601" stroke="#00B4CC" stroke-width="2.025" stroke-linecap="round" stroke-linejoin="round"/>
<path id="Vector_41" d="M805.859 751.131H808.501" stroke="#00B4CC" stroke-width="2.025" stroke-linecap="round" stroke-linejoin="round"/>
<path id="Vector_42" d="M831.932 751.131H834.587" stroke="#00B4CC" stroke-width="2.025" stroke-linecap="round" stroke-linejoin="round"/>
<path id="Vector_43" d="M822.542 751.131H827.839" stroke="#00B4CC" stroke-width="2.025" stroke-linecap="round" stroke-linejoin="round"/>
<path id="Vector_44" d="M815.85 727.015H779.5V751.13H815.85V727.015Z" fill="white" stroke="#00B4CC" stroke-width="2.025" stroke-miterlimit="10"/>
<path id="Vector_45" d="M779.5 733.722H815.85" stroke="#00B4CC" stroke-width="2.025" stroke-miterlimit="10"/>
<path id="Vector_46" d="M792.009 745.985C791.668 746.365 791.242 746.658 790.767 746.841C790.291 747.024 789.779 747.092 789.271 747.039C788.765 747.091 788.252 747.023 787.777 746.839C787.301 746.656 786.876 746.364 786.534 745.985C785.947 744.986 785.684 743.829 785.782 742.673C785.701 741.501 785.978 740.332 786.575 739.32C786.91 738.931 787.333 738.628 787.81 738.438C788.286 738.247 788.802 738.174 789.313 738.225C789.823 738.173 790.339 738.245 790.816 738.436C791.293 738.627 791.716 738.93 792.05 739.32C792.653 740.33 792.93 741.501 792.844 742.673C792.926 743.838 792.633 744.999 792.009 745.985ZM787.903 744.877C788.048 745.102 788.253 745.283 788.494 745.399C788.736 745.515 789.005 745.561 789.271 745.534C789.538 745.561 789.807 745.515 790.049 745.399C790.29 745.283 790.495 745.102 790.64 744.877C790.936 744.182 791.063 743.427 791.01 742.673C791.058 741.907 790.931 741.14 790.64 740.429C790.501 740.195 790.299 740.005 790.057 739.882C789.815 739.758 789.542 739.706 789.271 739.731C789.001 739.706 788.728 739.758 788.486 739.882C788.244 740.005 788.042 740.195 787.903 740.429C787.612 741.14 787.485 741.907 787.533 742.673C787.476 743.426 787.598 744.181 787.889 744.877H787.903Z" fill="#00B4CC"/>
<path id="Vector_47" d="M794.596 746.888V738.375H797.511L799.564 745.382H799.687V738.375H801.411V746.888H798.565L796.443 739.88H796.32V746.888H794.596Z" fill="#00B4CC"/>
<path id="Vector_48" d="M807.12 743.837V742.331H809.597V746.752C808.639 746.921 807.669 747.017 806.696 747.039C806.187 747.101 805.67 747.036 805.193 746.849C804.715 746.663 804.291 746.362 803.958 745.972C803.387 744.941 803.13 743.766 803.219 742.591C803.12 741.425 803.388 740.258 803.986 739.252C804.313 738.883 804.723 738.598 805.183 738.42C805.642 738.241 806.137 738.175 806.627 738.225C807.473 738.237 808.315 738.324 809.145 738.485L809.597 738.581V739.95C808.784 739.852 807.966 739.797 807.147 739.786C806.68 739.748 806.211 739.823 805.779 740.005C805.634 740.099 805.51 740.221 805.413 740.365C805.317 740.508 805.25 740.67 805.218 740.839C805.038 741.509 804.946 742.199 804.944 742.892C804.888 743.597 805.015 744.304 805.313 744.945C805.491 745.166 805.724 745.336 805.988 745.439C806.252 745.543 806.538 745.575 806.819 745.534H807.845V743.837H807.12Z" fill="#00B4CC"/>
<path id="Vector_49" d="M847.057 749.405H852.353" stroke="#00B4CC" stroke-width="2.025" stroke-linecap="round" stroke-linejoin="round"/>
<path id="Vector_50" d="M854.786 727.015H818.436V751.13H854.786V727.015Z" fill="white" stroke="#00B4CC" stroke-width="2.025" stroke-miterlimit="10"/>
<path id="Vector_51" d="M818.436 733.722H854.8" stroke="#00B4CC" stroke-width="2.025" stroke-miterlimit="10"/>
<path id="Vector_52" d="M830.947 745.985C830.602 746.356 830.174 746.641 829.699 746.816C829.224 746.992 828.714 747.054 828.21 746.998C827.703 747.049 827.191 746.981 826.716 746.798C826.24 746.615 825.814 746.322 825.473 745.944C824.872 744.949 824.594 743.791 824.679 742.632C824.607 741.473 824.884 740.32 825.473 739.32C825.807 738.93 826.231 738.628 826.707 738.437C827.184 738.246 827.699 738.174 828.21 738.225C828.721 738.174 829.236 738.246 829.713 738.437C830.189 738.628 830.613 738.93 830.947 739.32C831.545 740.332 831.821 741.501 831.741 742.673C831.826 743.832 831.549 744.99 830.947 745.985ZM826.841 744.876C827.008 745.077 827.218 745.239 827.454 745.35C827.691 745.461 827.949 745.519 828.21 745.519C828.471 745.519 828.729 745.461 828.966 745.35C829.203 745.239 829.412 745.077 829.579 744.876C829.875 744.181 830.002 743.426 829.948 742.673C829.996 741.906 829.87 741.139 829.579 740.428C829.418 740.218 829.211 740.048 828.973 739.931C828.736 739.814 828.475 739.753 828.21 739.753C827.945 739.753 827.684 739.814 827.447 739.931C827.21 740.048 827.003 740.218 826.841 740.428C826.55 741.139 826.424 741.906 826.472 742.673C826.419 743.426 826.545 744.181 826.841 744.876Z" fill="#00B4CC"/>
<path id="Vector_53" d="M833.548 746.888V738.375H836.422L838.475 745.382H838.598V738.375H840.322V746.888H837.517L835.395 739.88H835.272V746.888H833.548Z" fill="#00B4CC"/>
<path id="Vector_54" d="M846.069 743.837V742.331H848.546V746.752C847.588 746.921 846.618 747.017 845.645 747.039C845.136 747.101 844.62 747.036 844.142 746.849C843.665 746.663 843.24 746.362 842.908 745.972C842.337 744.941 842.08 743.766 842.169 742.591C842.07 741.425 842.338 740.258 842.935 739.252C843.262 738.883 843.673 738.598 844.132 738.42C844.591 738.241 845.086 738.175 845.576 738.225C846.422 738.237 847.265 738.324 848.095 738.485L848.546 738.581V739.95C847.729 739.852 846.906 739.797 846.083 739.786C845.616 739.747 845.146 739.822 844.714 740.005C844.569 740.099 844.445 740.221 844.349 740.365C844.252 740.508 844.186 740.67 844.153 740.839C843.992 741.511 843.918 742.201 843.934 742.892C843.879 743.597 844.006 744.304 844.304 744.945C844.482 745.166 844.714 745.336 844.978 745.439C845.242 745.543 845.529 745.575 845.809 745.534H846.836V743.837H846.069Z" fill="#00B4CC"/>
<path id="Vector_55" d="M835.313 706.5H798.963V730.615H835.313V706.5Z" fill="white" stroke="#00B4CC" stroke-width="2.025" stroke-miterlimit="10"/>
<path id="Vector_56" d="M798.963 713.207H835.327" stroke="#00B4CC" stroke-width="2.025" stroke-miterlimit="10"/>
<path id="Vector_57" d="M811.484 725.47C811.143 725.848 810.717 726.141 810.242 726.324C809.766 726.507 809.254 726.575 808.747 726.524C808.24 726.575 807.728 726.507 807.253 726.324C806.777 726.141 806.351 725.848 806.01 725.47C805.409 724.475 805.131 723.317 805.216 722.158C805.136 720.986 805.413 719.817 806.01 718.805C806.344 718.415 806.768 718.113 807.244 717.922C807.721 717.731 808.236 717.659 808.747 717.71C809.258 717.659 809.773 717.731 810.25 717.922C810.726 718.113 811.15 718.415 811.484 718.805C812.087 719.814 812.365 720.985 812.278 722.158C812.372 723.318 812.094 724.478 811.484 725.47ZM807.379 724.361C807.524 724.586 807.729 724.767 807.97 724.883C808.212 724.999 808.481 725.046 808.747 725.018C809.014 725.046 809.283 724.999 809.524 724.883C809.766 724.767 809.971 724.586 810.116 724.361C810.412 723.666 810.539 722.911 810.485 722.158C810.533 721.391 810.407 720.624 810.116 719.913C809.955 719.703 809.748 719.533 809.51 719.416C809.273 719.299 809.012 719.238 808.747 719.238C808.483 719.238 808.221 719.299 807.984 719.416C807.747 719.533 807.54 719.703 807.379 719.913C807.087 720.624 806.961 721.391 807.009 722.158C806.951 722.91 807.073 723.665 807.365 724.361H807.379Z" fill="#00B4CC"/>
<path id="Vector_58" d="M814.07 726.373V717.86H816.986L819.038 724.867H819.162V717.86H820.886V726.373H818.039L815.891 719.365H815.767V726.373H814.07Z" fill="#00B4CC"/>
<path id="Vector_59" d="M826.595 723.319V721.814H829.072V726.234C828.114 726.404 827.144 726.5 826.171 726.522C825.662 726.583 825.145 726.518 824.668 726.332C824.19 726.146 823.766 725.844 823.433 725.454C822.877 724.419 822.634 723.244 822.735 722.074C822.636 720.908 822.904 719.74 823.502 718.734C823.829 718.366 824.239 718.081 824.699 717.902C825.158 717.724 825.653 717.657 826.143 717.708C826.989 717.719 827.831 717.806 828.661 717.968L829.113 718.064V719.432C828.3 719.335 827.482 719.28 826.663 719.268C826.196 719.231 825.727 719.306 825.295 719.487C825.15 719.581 825.025 719.704 824.929 719.847C824.833 719.991 824.766 720.152 824.733 720.322C824.555 720.987 824.463 721.672 824.46 722.361C824.404 723.066 824.531 723.773 824.829 724.414C825.007 724.635 825.24 724.805 825.504 724.908C825.768 725.011 826.054 725.044 826.335 725.003H827.361V723.319H826.595Z" fill="#00B4CC"/>
</g>
<text id="O societate civil&#196;&#131; puternic&#196;&#131;" fill="#1E1E1E" xml:space="preserve" style="white-space: pre" font-family="Titillium Web" font-size="40" font-weight="600" letter-spacing="0px"><tspan x="777" y="824.9">O societate civil&#x103; </tspan><tspan x="777" y="866.9">puternic&#x103;</tspan></text>
</g>
</g>
</svg>
