<svg width="271" height="243" viewBox="0 0 271 243" fill="none" xmlns="http://www.w3.org/2000/svg">
<g clip-path="url(#clip0)">
<path d="M174.45 141.413C172.672 143.751 170.538 146.037 167.819 148.349C166.625 149.366 165.405 150.331 164.135 151.221C152.117 159.631 137.253 162.248 124.321 168.803C117.842 172.08 110.956 174.621 104.096 177.213C98.0999 179.474 92.1291 181.812 86.4123 184.733C78.5359 188.773 71.9807 196.396 64.1042 201.02C57.3457 204.983 49.6726 206.432 42.2535 209.709C36.0032 212.479 29.8799 215.782 23.7566 219.085" stroke="#1B771B" stroke-width="9.53277" stroke-miterlimit="10" stroke-linejoin="round" stroke-dasharray="11.92 11.92"/>
<path d="M236.979 48.4966C228.569 56.7541 219.6 64.8338 211.368 74.5904C202.373 85.2871 194.09 97.991 188.399 110.415C187.891 111.508 187.408 112.626 186.951 113.718C182.276 124.771 180.675 133.283 174.45 141.413" stroke="#C8CEDB" stroke-width="9.53277" stroke-miterlimit="10" stroke-linecap="round" stroke-linejoin="round"/>
<path d="M266.223 5.17627C261.167 21.7676 251.817 33.4552 241.146 44.3552C239.774 45.7526 238.402 47.1246 237.004 48.4966" stroke="#C8CEDB" stroke-width="9.53277" stroke-miterlimit="10" stroke-linecap="round" stroke-linejoin="round"/>
<path d="M23.756 237.709C34.2382 237.709 42.7357 229.211 42.7357 218.729C42.7357 208.247 34.2382 199.75 23.756 199.75C13.2738 199.75 4.77637 208.247 4.77637 218.729C4.77637 229.211 13.2738 237.709 23.756 237.709Z" fill="white" stroke="#1B771B" stroke-width="9.53277" stroke-miterlimit="10" stroke-linecap="round" stroke-linejoin="round"/>
<path d="M236.928 58.0245C242.19 58.0245 246.456 53.7587 246.456 48.4966C246.456 43.2344 242.19 38.9686 236.928 38.9686C231.666 38.9686 227.4 43.2344 227.4 48.4966C227.4 53.7587 231.666 58.0245 236.928 58.0245Z" fill="#404366"/>
<path d="M195.92 107.57C201.182 107.57 205.448 103.304 205.448 98.0419C205.448 92.7797 201.182 88.5139 195.92 88.5139C190.658 88.5139 186.392 92.7797 186.392 98.0419C186.392 103.304 190.658 107.57 195.92 107.57Z" fill="#404366"/>
<path d="M174.73 150.535C179.992 150.535 184.258 146.269 184.258 141.007C184.258 135.745 179.992 131.479 174.73 131.479C169.467 131.479 165.202 135.745 165.202 141.007C165.202 146.269 169.467 150.535 174.73 150.535Z" fill="#404366"/>
</g>
<defs>
<clipPath id="clip0">
<rect width="271" height="242.086" fill="white" transform="translate(0 0.399536)"/>
</clipPath>
</defs>
</svg>
