<svg width="1200" height="1000" viewBox="0 0 1200 1000" fill="none" xmlns="http://www.w3.org/2000/svg">
<g id="segment-environment-03-masurarea-poluarii">
<g id="Group 1172">
<g id="Group 1120">
<path id="Vector" d="M549.674 448.237C547.896 450.574 545.762 452.861 543.043 455.173C541.849 456.189 540.629 457.155 539.359 458.044C527.341 466.454 512.477 469.071 499.545 475.626C493.066 478.904 486.18 481.445 479.32 484.036C473.324 486.298 467.353 488.635 461.636 491.557C453.76 495.597 447.205 503.219 439.328 507.843C432.57 511.807 424.896 513.255 417.477 516.533C411.227 519.302 405.104 522.605 398.98 525.908" stroke="#1B771B" stroke-width="9.53277" stroke-miterlimit="10" stroke-linejoin="round" stroke-dasharray="11.92 11.92"/>
<path id="Vector_2" d="M612.202 355.32C603.793 363.578 594.824 371.657 586.591 381.414C577.597 392.111 569.314 404.815 563.623 417.239C563.115 418.332 562.632 419.45 562.174 420.542C557.499 431.595 555.899 440.106 549.674 448.237" stroke="#C8CEDB" stroke-width="9.53277" stroke-miterlimit="10" stroke-linecap="round" stroke-linejoin="round"/>
<path id="Vector_3" d="M641.448 312C636.391 328.591 627.041 340.279 616.37 351.179C614.998 352.576 613.626 353.948 612.229 355.32" stroke="#C8CEDB" stroke-width="9.53277" stroke-miterlimit="10" stroke-linecap="round" stroke-linejoin="round"/>
<path id="Vector_4" d="M398.98 544.532C409.462 544.532 417.959 536.035 417.959 525.553C417.959 515.071 409.462 506.573 398.98 506.573C388.497 506.573 380 515.071 380 525.553C380 536.035 388.497 544.532 398.98 544.532Z" fill="white" stroke="#1B771B" stroke-width="9.53277" stroke-miterlimit="10" stroke-linecap="round" stroke-linejoin="round"/>
<path id="Vector_5" d="M612.152 364.848C617.414 364.848 621.68 360.582 621.68 355.32C621.68 350.058 617.414 345.792 612.152 345.792C606.89 345.792 602.624 350.058 602.624 355.32C602.624 360.582 606.89 364.848 612.152 364.848Z" fill="#404366"/>
<path id="Vector_6" d="M571.143 414.393C576.405 414.393 580.671 410.128 580.671 404.865C580.671 399.603 576.405 395.338 571.143 395.338C565.881 395.338 561.615 399.603 561.615 404.865C561.615 410.128 565.881 414.393 571.143 414.393Z" fill="#404366"/>
<path id="Vector_7" d="M549.954 457.358C555.216 457.358 559.482 453.093 559.482 447.83C559.482 442.568 555.216 438.302 549.954 438.302C544.692 438.302 540.426 442.568 540.426 447.83C540.426 453.093 544.692 457.358 549.954 457.358Z" fill="#404366"/>
</g>
<text class="btn-project" text-decoration="underline" cursor="pointer" projectid="1" id="Reteaua anti-poluare: aer" fill="#1E1E1E" xml:space="preserve" style="white-space: pre" font-family="Titillium Web" font-size="20" font-weight="600" letter-spacing="0px"><tspan x="646" y="368.45">Reteaua&#13;anti-poluare: aer</tspan></text>
<text class="btn-project" text-decoration="underline" cursor="pointer" projectid="2" id="Reteaua anti-poluare: zgomot" fill="#1E1E1E" xml:space="preserve" style="white-space: pre" font-family="Titillium Web" font-size="20" font-weight="600" letter-spacing="0px"><tspan x="603" y="417.45">Reteaua&#13;anti-poluare: zgomot</tspan></text>
<text class="btn-project" text-decoration="underline" cursor="pointer" projectid="3" id="M&#196;&#131;surarea polu&#196;&#131;rii" fill="#1E1E1E" xml:space="preserve" style="white-space: pre" font-family="Titillium Web" font-size="40" font-weight="600" letter-spacing="0px"><tspan x="460" y="647.9">M&#x103;surarea polu&#x103;rii</tspan></text>
<g id="icon-masurarea-poluarii 1" clip-path="url(#clip0)">
<path id="Vector_8" d="M352.983 684.56V613.714C352.983 613.714 368.72 613.235 368.242 613.714C367.763 614.193 377.556 655.44 377.556 655.44L389.942 645.467V655.719L404.682 645.747V655.719L418.804 645.926V684.56" stroke="#1B771B" stroke-width="2.55" stroke-linecap="round" stroke-linejoin="round"/>
<path id="Vector_9" d="M339.4 684.563H434.78" stroke="#1B771B" stroke-width="2.55" stroke-linecap="round" stroke-linejoin="round"/>
<path id="Vector_10" d="M386.671 680.133V675.925C386.671 675.517 386.779 675.117 386.986 674.766C387.193 674.415 387.491 674.126 387.848 673.93L393.532 670.699L395.666 666.71C396.137 665.841 396.83 665.114 397.675 664.602C398.52 664.091 399.486 663.813 400.473 663.797H408.85C410.184 663.8 411.472 664.281 412.481 665.154L420.459 671.975H423.052C425.12 671.975 427.104 672.797 428.566 674.259C430.029 675.722 430.85 677.705 430.85 679.774V680.133H386.671Z" fill="white" stroke="#1B771B" stroke-width="2.55" stroke-linecap="round" stroke-linejoin="round"/>
<path id="Vector_11" d="M397.922 684.561C399.993 684.561 401.672 682.883 401.672 680.812C401.672 678.741 399.993 677.062 397.922 677.062C395.851 677.062 394.172 678.741 394.172 680.812C394.172 682.883 395.851 684.561 397.922 684.561Z" fill="white" stroke="#1B771B" stroke-width="2.55" stroke-linecap="round" stroke-linejoin="round"/>
<path id="Vector_12" d="M419.321 684.561C421.392 684.561 423.071 682.883 423.071 680.812C423.071 678.741 421.392 677.062 419.321 677.062C417.25 677.062 415.571 678.741 415.571 680.812C415.571 682.883 417.25 684.561 419.321 684.561Z" fill="white" stroke="#1B771B" stroke-width="2.55" stroke-linecap="round" stroke-linejoin="round"/>
<path id="Vector_13" d="M382.882 676.361H374.924" stroke="#1B771B" stroke-width="2.55" stroke-linecap="round" stroke-linejoin="round"/>
<path id="Vector_14" d="M380.487 680.133H370.235" stroke="#1B771B" stroke-width="2.55" stroke-linecap="round" stroke-linejoin="round"/>
<path id="Vector_15" d="M354.497 608.785V595.741" stroke="#1B771B" stroke-width="2.55" stroke-linecap="round" stroke-linejoin="round"/>
<path id="Vector_16" d="M365.79 608.785V595.741" stroke="#1B771B" stroke-width="2.55" stroke-linecap="round" stroke-linejoin="round"/>
<path id="Vector_17" d="M358.588 608.788V587.805" stroke="#1B771B" stroke-width="2.55" stroke-linecap="round" stroke-linejoin="round"/>
<path id="Vector_18" d="M362.2 603.383V582.4" stroke="#1B771B" stroke-width="2.55" stroke-linecap="round" stroke-linejoin="round"/>
<path id="Vector_19" d="M432.945 606.873C432.953 611.724 431.521 616.468 428.832 620.505C426.142 624.542 422.315 627.69 417.836 629.551C413.356 631.412 408.425 631.902 403.667 630.958C398.909 630.016 394.537 627.682 391.106 624.254C387.674 620.825 385.337 616.455 384.39 611.698C383.444 606.94 383.93 602.009 385.787 597.528C387.644 593.047 390.789 589.217 394.824 586.524C398.858 583.831 403.601 582.396 408.452 582.4C411.67 582.39 414.858 583.015 417.833 584.241C420.808 585.467 423.511 587.269 425.788 589.543C428.064 591.818 429.868 594.52 431.096 597.494C432.325 600.468 432.953 603.655 432.945 606.873Z" stroke="#1B771B" stroke-width="2.55" stroke-linecap="round" stroke-linejoin="round"/>
<path id="Vector_20" d="M408.454 627.695C419.954 627.695 429.277 618.372 429.277 606.872C429.277 595.372 419.954 586.049 408.454 586.049C396.954 586.049 387.631 595.372 387.631 606.872C387.631 618.372 396.954 627.695 408.454 627.695Z" stroke="#1B771B" stroke-width="2.55" stroke-linecap="round" stroke-linejoin="round"/>
<path id="Vector_21" d="M436.615 651.949C436.295 652.159 435.937 652.303 435.56 652.37C435.184 652.438 434.797 652.428 434.425 652.343C434.052 652.257 433.7 652.097 433.391 651.871C433.082 651.646 432.822 651.36 432.626 651.032L420.3 630.967V630.867C421.997 630.001 423.619 628.993 425.147 627.855V627.975L437.533 647.92C437.744 648.243 437.888 648.605 437.956 648.984C438.024 649.364 438.015 649.754 437.929 650.129C437.843 650.505 437.683 650.86 437.457 651.173C437.231 651.486 436.945 651.75 436.615 651.949Z" fill="#1B771B"/>
</g>
</g>
</g>
<defs>
<clipPath id="clip0">
<rect width="102" height="108.8" fill="white" transform="translate(336 579)"/>
</clipPath>
</defs>
</svg>
