<svg width="698" height="340" viewBox="0 0 698 340" fill="none" xmlns="http://www.w3.org/2000/svg">
<path d="M426.333 132.976C448.45 120.793 472.307 119.562 493.835 108.583C499.191 105.852 504.653 102.934 509.928 99.8276C513.194 97.8998 516.381 95.8916 519.46 93.803C523.53 91.0183 530.01 86.8681 533.196 83.2533" stroke="#C8CEDB" stroke-width="10.0461" stroke-miterlimit="10" stroke-linecap="round" stroke-linejoin="round"/>
<path d="M360.009 175.39C372.567 157.61 392.301 150.568 411.097 141.009C416.319 138.358 421.406 135.708 426.333 133.003" stroke="#FFA506" stroke-width="10.0461" stroke-miterlimit="10" stroke-linejoin="round" stroke-dasharray="12.56 12.56"/>
<path d="M559.704 53.4783C552.046 56.9056 544.656 60.9488 540.773 66.6253C537.185 71.8466 537.748 78.0854 533.169 83.2532" stroke="#C8CEDB" stroke-width="10.0461" stroke-miterlimit="10" stroke-linecap="round" stroke-linejoin="round"/>
<path d="M644.959 18C633.659 23.0339 621.985 27.1574 610.819 30.8257C609.802 31.147 608.811 31.4683 607.821 31.8164C596.601 35.458 588.274 39.6618 578.233 45.2312C573.199 48.0159 566.345 50.5328 559.704 53.505" stroke="#C8CEDB" stroke-width="10.0461" stroke-miterlimit="10" stroke-linecap="round" stroke-linejoin="round"/>
<path d="M355.002 206.423C366.048 206.423 375.003 197.468 375.003 186.421C375.003 175.375 366.048 166.42 355.002 166.42C343.955 166.42 335 175.375 335 186.421C335 197.468 343.955 206.423 355.002 206.423Z" fill="white" stroke="#FFA506" stroke-width="10.0461" stroke-miterlimit="10" stroke-linecap="round" stroke-linejoin="round"/>
<path d="M560.695 62.4217C566.241 62.4217 570.736 57.9262 570.736 52.3807C570.736 46.8352 566.241 42.3397 560.695 42.3397C555.15 42.3397 550.654 46.8352 550.654 52.3807C550.654 57.9262 555.15 62.4217 560.695 62.4217Z" fill="#404366"/>
<path d="M591.675 47.0789C597.22 47.0789 601.716 42.5834 601.716 37.0379C601.716 31.4925 597.22 26.9969 591.675 26.9969C586.129 26.9969 581.634 31.4925 581.634 37.0379C581.634 42.5834 586.129 47.0789 591.675 47.0789Z" fill="#404366"/>
<path d="M533.303 92.8662C538.848 92.8662 543.344 88.3707 543.344 82.8252C543.344 77.2797 538.848 72.7842 533.303 72.7842C527.757 72.7842 523.262 77.2797 523.262 82.8252C523.262 88.3707 527.757 92.8662 533.303 92.8662Z" fill="#404366"/>
<path d="M505.831 111.368C511.377 111.368 515.872 106.873 515.872 101.327C515.872 95.7815 511.377 91.286 505.831 91.286C500.286 91.286 495.79 95.7815 495.79 101.327C495.79 106.873 500.286 111.368 505.831 111.368Z" fill="#404366"/>
<path d="M471.396 125.854C476.942 125.854 481.437 121.358 481.437 115.813C481.437 110.267 476.942 105.772 471.396 105.772C465.851 105.772 461.355 110.267 461.355 115.813C461.355 121.358 465.851 125.854 471.396 125.854Z" fill="#404366"/>
<path d="M422.799 142.857C428.344 142.857 432.84 138.361 432.84 132.816C432.84 127.27 428.344 122.775 422.799 122.775C417.253 122.775 412.758 127.27 412.758 132.816C412.758 138.361 417.253 142.857 422.799 142.857Z" fill="#404366"/>
<text fill="#404366" xml:space="preserve" style="white-space: pre" font-family="Titillium Web" font-size="20" font-weight="600" letter-spacing="0em"><tspan x="496" y="22.45">Ce m&#x103; fac</tspan></text>
<path d="M343.025 265.421C343.03 266.196 342.802 266.955 342.371 267.599C341.94 268.243 341.326 268.743 340.608 269.035C339.889 269.327 339.1 269.397 338.342 269.236C337.584 269.075 336.892 268.691 336.354 268.132V283.496H320.743C321.2 283.139 321.569 282.683 321.822 282.162C322.075 281.641 322.207 281.069 322.206 280.489C322.24 279.96 322.166 279.429 321.987 278.93C321.808 278.43 321.529 277.973 321.166 277.585C320.803 277.199 320.365 276.89 319.878 276.679C319.391 276.468 318.867 276.359 318.336 276.359C317.806 276.359 317.281 276.468 316.794 276.679C316.307 276.89 315.869 277.199 315.506 277.585C315.143 277.973 314.864 278.43 314.685 278.93C314.506 279.429 314.432 279.96 314.466 280.489C314.446 281.06 314.556 281.628 314.79 282.15C315.024 282.671 315.374 283.132 315.814 283.496H300.203V268.329C300.756 268.835 301.444 269.168 302.183 269.289C302.922 269.41 303.68 269.314 304.366 269.012C305.051 268.71 305.633 268.215 306.042 267.587C306.451 266.96 306.669 266.227 306.669 265.478C306.669 264.73 306.451 263.997 306.042 263.369C305.633 262.742 305.051 262.247 304.366 261.945C303.68 261.643 302.922 261.547 302.183 261.668C301.444 261.789 300.756 262.122 300.203 262.627V247.346H316.208C315.644 247.004 315.179 246.522 314.859 245.945C314.539 245.369 314.375 244.718 314.384 244.059C314.448 243.076 314.884 242.155 315.602 241.481C316.321 240.808 317.269 240.433 318.254 240.433C319.239 240.433 320.187 240.808 320.905 241.481C321.624 242.155 322.06 243.076 322.124 244.059C322.136 244.717 321.976 245.367 321.659 245.944C321.341 246.52 320.879 247.004 320.316 247.346H336.354V262.775C336.713 262.394 337.146 262.091 337.626 261.885C338.107 261.679 338.625 261.573 339.147 261.576C340.17 261.576 341.152 261.98 341.878 262.7C342.605 263.42 343.017 264.398 343.025 265.421Z" stroke="#FFA506" stroke-width="2.575" stroke-linecap="round" stroke-linejoin="round"/>
<path d="M293.434 311.48C293.429 311.991 293.527 312.498 293.72 312.972C293.913 313.445 294.198 313.875 294.559 314.238C294.92 314.6 295.349 314.887 295.821 315.082C296.294 315.277 296.8 315.377 297.312 315.374C297.833 315.372 298.348 315.267 298.827 315.064C299.307 314.86 299.741 314.564 300.105 314.191V329.555H315.814C315.352 329.199 314.978 328.741 314.722 328.217C314.465 327.692 314.333 327.116 314.336 326.532C314.336 325.503 314.744 324.517 315.471 323.79C316.199 323.063 317.185 322.654 318.214 322.654C319.242 322.654 320.228 323.063 320.956 323.79C321.683 324.517 322.092 325.503 322.092 326.532C322.098 327.12 321.964 327.701 321.701 328.227C321.439 328.752 321.054 329.208 320.58 329.555H336.273V314.389C335.714 314.887 335.024 315.214 334.284 315.328C333.545 315.443 332.788 315.342 332.105 315.036C331.422 314.73 330.841 314.233 330.435 313.605C330.027 312.977 329.811 312.245 329.811 311.496C329.811 310.748 330.027 310.016 330.435 309.388C330.841 308.759 331.422 308.263 332.105 307.957C332.788 307.651 333.545 307.549 334.284 307.664C335.024 307.779 335.714 308.106 336.273 308.605V293.404H320.251C320.815 293.064 321.281 292.581 321.601 292.004C321.921 291.428 322.084 290.777 322.075 290.118C322.075 289.089 321.667 288.103 320.939 287.376C320.212 286.649 319.226 286.24 318.197 286.24C317.169 286.24 316.182 286.649 315.455 287.376C314.728 288.103 314.319 289.089 314.319 290.118C314.31 290.777 314.474 291.428 314.794 292.004C315.114 292.581 315.579 293.064 316.143 293.404H300.105V308.835C299.75 308.448 299.318 308.14 298.837 307.931C298.356 307.722 297.836 307.615 297.312 307.618C296.286 307.618 295.302 308.025 294.575 308.748C293.849 309.472 293.438 310.454 293.434 311.48Z" stroke="#FFA506" stroke-width="2.575" stroke-linecap="round" stroke-linejoin="round"/>
<path d="M326.134 257.681C328.276 257.681 330.012 255.945 330.012 253.803C330.012 251.662 328.276 249.925 326.134 249.925C323.992 249.925 322.256 251.662 322.256 253.803C322.256 255.945 323.992 257.681 326.134 257.681Z" stroke="#FFA506" stroke-width="2.575" stroke-linecap="round" stroke-linejoin="round"/>
<path d="M331.654 263.629C331.622 264.869 331.282 266.081 330.666 267.157C330.049 268.232 329.174 269.138 328.121 269.791V273.817H325.672V270.991C324.61 271.333 323.502 271.51 322.386 271.517C321.035 271.542 319.692 271.314 318.426 270.843V273.866H315.944V269.364C314.685 268.409 313.759 267.08 313.299 265.568H310.456V261.97H313.233C313.536 260.854 314.08 259.817 314.826 258.934C315.573 258.051 316.504 257.343 317.555 256.859L318.459 254.214L319.97 256.054C320.762 255.862 321.572 255.757 322.386 255.742C327.496 255.742 331.654 259.34 331.654 263.629Z" fill="white" stroke="#FFA506" stroke-width="2.575" stroke-linecap="round" stroke-linejoin="round"/>
<path d="M318.838 263.384C319.519 263.384 320.07 262.832 320.07 262.152C320.07 261.471 319.519 260.919 318.838 260.919C318.157 260.919 317.605 261.471 317.605 262.152C317.605 262.832 318.157 263.384 318.838 263.384Z" fill="#FFA506"/>
<path d="M390.697 265.914C390.772 265.408 390.746 264.892 390.621 264.396C390.496 263.9 390.275 263.433 389.97 263.023C389.664 262.612 389.281 262.266 388.842 262.004C388.403 261.741 387.917 261.568 387.411 261.494C386.369 261.35 385.313 261.621 384.469 262.249L386.737 247.05L371.241 244.798C371.71 245.27 372.05 245.855 372.227 246.496C372.405 247.138 372.414 247.814 372.255 248.46C372.095 249.106 371.773 249.7 371.317 250.185C370.862 250.67 370.289 251.03 369.655 251.23C369.02 251.43 368.345 251.463 367.694 251.326C367.042 251.19 366.438 250.888 365.937 250.45C365.436 250.012 365.056 249.452 364.834 248.825C364.612 248.198 364.555 247.524 364.669 246.869C364.749 246.29 364.965 245.738 365.299 245.258C365.633 244.779 366.076 244.385 366.591 244.108L350.997 241.791L348.762 256.794C349.388 256.383 350.119 256.162 350.867 256.157C351.616 256.153 352.35 256.365 352.981 256.768C353.611 257.171 354.112 257.748 354.422 258.43C354.731 259.111 354.837 259.868 354.727 260.608C354.616 261.349 354.293 262.041 353.798 262.602C353.303 263.163 352.655 263.569 351.934 263.77C351.213 263.972 350.45 263.96 349.735 263.737C349.021 263.513 348.386 263.088 347.907 262.512L345.656 277.548L361.497 279.914C360.896 280.167 360.369 280.57 359.969 281.085C359.569 281.601 359.309 282.21 359.213 282.855C359.06 283.873 359.319 284.909 359.93 285.737C360.542 286.564 361.457 287.115 362.475 287.267C363.492 287.42 364.529 287.162 365.356 286.55C366.184 285.939 366.734 285.023 366.887 284.006C366.984 283.361 366.914 282.702 366.684 282.092C366.454 281.483 366.071 280.942 365.572 280.522L381.43 282.872L383.697 267.557C383.987 267.997 384.367 268.371 384.812 268.654C385.256 268.937 385.756 269.123 386.277 269.2C386.783 269.277 387.3 269.253 387.797 269.129C388.293 269.005 388.761 268.784 389.172 268.478C389.583 268.173 389.929 267.789 390.191 267.348C390.453 266.908 390.625 266.421 390.697 265.914Z" stroke="#FFA506" stroke-width="2.575" stroke-linecap="round" stroke-linejoin="round"/>
<path d="M366.048 272.124C359.639 268.673 355.252 258.534 360.181 255.543C365.111 252.553 368.151 258.025 368.151 258.025C368.151 258.025 372.571 253.621 376.499 258.025C380.426 262.429 373.229 270.694 366.048 272.124Z" stroke="#FFA506" stroke-width="2.575" stroke-linecap="round" stroke-linejoin="round"/>
<path d="M375.364 265.958L367.27 262.443C365.98 261.883 364.479 262.475 363.919 263.765L363.912 263.78C363.352 265.071 363.944 266.571 365.235 267.131L373.328 270.645C374.619 271.206 376.119 270.614 376.679 269.323L376.686 269.308C377.246 268.018 376.654 266.518 375.364 265.958Z" fill="white" stroke="#FFA506" stroke-width="2.575" stroke-linecap="round" stroke-linejoin="round"/>
<path d="M369.318 263.662L368.02 266.308" stroke="#FFA506" stroke-width="2.575" stroke-linecap="round" stroke-linejoin="round"/>
<path d="M373.327 265.224L372.193 267.788" stroke="#FFA506" stroke-width="2.575" stroke-linecap="round" stroke-linejoin="round"/>
<path d="M309.373 315.95C309.373 312.215 310.857 308.633 313.498 305.993C316.139 303.352 319.721 301.868 323.455 301.868" stroke="#FFA506" stroke-width="2.575" stroke-linecap="round" stroke-linejoin="round"/>
<path d="M312.907 315.95C312.903 313.146 314.011 310.455 315.989 308.468C317.967 306.481 320.653 305.36 323.457 305.351" stroke="#FFA506" stroke-width="2.575" stroke-linecap="round" stroke-linejoin="round"/>
<path d="M316.424 315.952C316.424 314.085 317.164 312.294 318.483 310.973C319.801 309.651 321.59 308.907 323.457 308.902" stroke="#FFA506" stroke-width="2.575" stroke-linecap="round" stroke-linejoin="round"/>
<path d="M322.419 316.722C323.417 316.722 324.226 315.912 324.226 314.914C324.226 313.916 323.417 313.107 322.419 313.107C321.421 313.107 320.611 313.916 320.611 314.914C320.611 315.912 321.421 316.722 322.419 316.722Z" fill="#FFA506"/>
<path d="M339.575 311.564C339.574 310.791 339.805 310.035 340.237 309.393C340.669 308.751 341.283 308.254 342.001 307.964C342.718 307.674 343.506 307.606 344.262 307.767C345.019 307.928 345.71 308.312 346.247 308.87V293.489H361.939C361.422 293.896 361.017 294.428 360.763 295.035C360.508 295.642 360.412 296.304 360.484 296.958C360.555 297.612 360.792 298.238 361.172 298.775C361.552 299.312 362.063 299.744 362.655 300.03C363.248 300.315 363.904 300.445 364.562 300.408C365.218 300.37 365.855 300.165 366.412 299.813C366.968 299.462 367.425 298.974 367.741 298.397C368.057 297.819 368.221 297.171 368.216 296.513C368.224 295.93 368.095 295.353 367.841 294.829C367.587 294.304 367.215 293.845 366.754 293.489H382.43V308.64C381.959 308.233 381.396 307.947 380.79 307.805C380.184 307.663 379.552 307.669 378.949 307.824C378.346 307.979 377.79 308.277 377.326 308.694C376.864 309.11 376.508 309.632 376.291 310.216C376.073 310.799 376 311.426 376.077 312.044C376.155 312.661 376.38 313.251 376.735 313.763C377.089 314.275 377.562 314.694 378.113 314.983C378.664 315.272 379.277 315.425 379.9 315.426C380.837 315.419 381.741 315.075 382.447 314.457V329.656H366.392C366.959 329.995 367.426 330.477 367.746 331.054C368.067 331.632 368.229 332.283 368.216 332.943C368.152 333.926 367.717 334.847 366.998 335.521C366.279 336.194 365.331 336.568 364.347 336.568C363.362 336.568 362.414 336.194 361.695 335.521C360.977 334.847 360.541 333.926 360.477 332.943C360.463 332.285 360.623 331.634 360.94 331.057C361.257 330.48 361.721 329.997 362.284 329.656H346.247V314.227C345.888 314.607 345.455 314.911 344.974 315.117C344.494 315.323 343.976 315.428 343.453 315.426C342.427 315.426 341.444 315.02 340.717 314.296C339.99 313.572 339.579 312.59 339.575 311.564Z" stroke="#FFA506" stroke-width="2.575" stroke-linecap="round" stroke-linejoin="round"/>
<path d="M371.338 309.706V315.917H367.657V319.598H361.445V315.917H357.748V309.706H361.445V306.009H367.657V309.706H371.338Z" stroke="#FFA506" stroke-width="2.575" stroke-linecap="round" stroke-linejoin="round"/>
<path d="M359.326 307.798C357.931 304.365 355.387 301.525 352.129 299.762C350.956 303.439 350.99 307.395 352.227 311.051C352.851 312.856 353.899 314.484 355.283 315.799C356.667 317.114 358.347 318.078 360.181 318.61" stroke="#FFA506" stroke-width="2.575" stroke-linecap="round" stroke-linejoin="round"/>
<path d="M376.73 299.075C374.999 299.28 373.399 300.102 372.226 301.391C371.051 302.68 370.381 304.349 370.338 306.091C372.04 306.04 373.66 305.347 374.873 304.153C376.06 302.725 376.716 300.931 376.73 299.075Z" stroke="#FFA506" stroke-width="2.575" stroke-linecap="round" stroke-linejoin="round"/>
<path d="M357.765 311.137C356.406 309.575 355.298 307.812 354.479 305.911" stroke="#FFA506" stroke-width="2.575" stroke-linecap="round" stroke-linejoin="round"/>
<text fill="#404366" xml:space="preserve" style="white-space: pre" font-family="Titillium Web" font-size="20" font-weight="600" letter-spacing="0em"><tspan x="579" y="91.45">Micii cet&#x103;&#x21b;eni&#13;</tspan></text>
<text fill="#404366" xml:space="preserve" style="white-space: pre" font-family="Titillium Web" font-size="20" font-weight="600" letter-spacing="0em"><tspan x="402" y="65.45">Civic Fitness</tspan></text>
<text fill="#404366" xml:space="preserve" style="white-space: pre" font-family="Titillium Web" font-size="20" font-weight="600" letter-spacing="0em"><tspan x="517" y="135.45">Descurc&#x103;-tech</tspan></text>
<text fill="#404366" xml:space="preserve" style="white-space: pre" font-family="Titillium Web" font-size="20" font-weight="600" letter-spacing="0em"><tspan x="325" y="101.45">Evalueaz&#x103;-tech</tspan></text>
<text fill="#404366" xml:space="preserve" style="white-space: pre" font-family="Titillium Web" font-size="20" font-weight="600" letter-spacing="0em"><tspan x="439" y="175.45">&#xce;nva&#x21b;&#x103;-tech</tspan></text>
<text fill="#1E1E1E" xml:space="preserve" style="white-space: pre" font-family="Titillium Web" font-size="40" font-weight="600" letter-spacing="0px"><tspan x="5.63281" y="275.9">Abilit&#x103;&#x21b;i pentru </tspan><tspan x="83.7188" y="317.9">via&#x21b;a real&#x103;</tspan></text>
</svg>
