<svg width="1200" height="1000" viewBox="0 0 1200 1000" fill="none" xmlns="http://www.w3.org/2000/svg">
<g id="segment-health-06-sanatate-mentala-pentru-toti">
<g id="Group 1184">
<g id="Group 1132">
<path id="Vector" d="M372.705 306.381C380.404 311.119 388.077 315.659 392.371 324.345C393.728 327.083 394.764 329.995 395.48 332.956C396.442 336.953 396.368 341.123 397.38 345.096C400.489 357.039 413.64 363.676 419.464 374.385C422.005 379.048 437.846 399.677 441.523 407.005C443.596 411.126 446.088 415.616 448.136 420.058C450.653 425.486 457.043 450.383 456.352 465.41C455.834 476.711 456.352 488.037 456.352 499.363C456.352 510.565 450.431 570.623 450.208 571.758C449.024 577.779 447.815 584.564 447.47 590.684C446.705 604.354 450.184 614.717 452.429 621.527C458.425 639.786 478.362 644.919 494.968 648.151C511.229 651.31 527.243 658.663 539.605 670.655C542.27 673.221 544.466 676.305 546.292 679.537C547.328 681.388 548.759 683.214 549.648 685.139C550.363 686.668 550.561 688.618 551.202 690.098C554.558 697.895 553.472 707.099 553.472 716.031C553.472 725.753 553.472 735.475 553.472 745.222C553.472 749.762 554.755 756.449 553.571 760.791C552.609 764.345 548.981 768.144 547.328 771.772C547.081 772.315 546.835 772.833 546.613 773.351" stroke="#F90000" stroke-width="9.25772" stroke-miterlimit="10" stroke-linejoin="round" stroke-dasharray="11.57 11.57"/>
<path id="Vector_2" d="M374.432 322.864C384.612 322.864 392.864 314.612 392.864 304.432C392.864 294.252 384.612 286 374.432 286C364.252 286 356 294.252 356 304.432C356 314.612 364.252 322.864 374.432 322.864Z" fill="white" stroke="#F90000" stroke-width="9.25772" stroke-miterlimit="10" stroke-linecap="round" stroke-linejoin="round"/>
</g>
<text id="S&#196;&#131;n&#196;&#131;tate mintal&#196;&#131; &#226;&#128;&#168;pentru to&#200;&#155;i" fill="#1E1E1E" xml:space="preserve" style="white-space: pre" font-family="Titillium Web" font-size="40" font-weight="600" letter-spacing="0px"><tspan x="542" y="261.9">S&#x103;n&#x103;tate mintal&#x103;&#13;&#x2028;</tspan><tspan x="542" y="303.9">pentru to&#x21b;i</tspan></text>
<g id="icon-sanatate-mentala-pentru-toti 1">
<path id="Vector_3" d="M446.871 278.005C446.56 279.301 446.561 280.653 446.875 281.948C447.189 283.244 447.805 284.447 448.674 285.458C451.79 288.917 456.829 288.887 459.005 289.14C459.579 289.237 460.098 289.538 460.468 289.987C460.837 290.436 461.032 291.003 461.017 291.585V299.143H468.292L467.368 289.259C467.368 289.259 474.821 292.241 479.055 287.5C483.288 282.76 480.277 276.663 480.277 276.663" stroke="#F90000" stroke-width="2.25" stroke-linecap="round" stroke-linejoin="round"/>
<path id="Vector_4" d="M481.158 279.317C482.268 279.403 483.379 279.152 484.345 278.597C485.31 278.041 486.086 277.206 486.569 276.203C487.053 275.199 487.221 274.073 487.054 272.971C486.886 271.87 486.39 270.845 485.63 270.03C485.63 270.03 489.058 259.774 480.144 253.632C477.616 251.836 474.685 250.69 471.61 250.295C468.534 249.9 465.409 250.268 462.509 251.367C461.914 250.761 461.175 250.317 460.362 250.075C459.549 249.832 458.687 249.8 457.858 249.98C456.806 250.246 455.895 250.903 455.311 251.817C454.727 252.731 454.513 253.833 454.713 254.9" stroke="#F90000" stroke-width="2.25" stroke-linecap="round" stroke-linejoin="round"/>
<path id="Vector_5" d="M436.798 276.259C437.079 277.99 437.765 279.63 438.802 281.045C439.838 282.459 441.195 283.608 442.761 284.398C444.634 285.22 446.685 285.559 448.723 285.382" stroke="#F90000" stroke-width="2.25" stroke-linecap="round" stroke-linejoin="round"/>
<path id="Vector_6" d="M447.559 275.961C448.051 274.724 448.845 273.63 449.868 272.778C450.891 271.927 452.111 271.345 453.417 271.086C455.367 270.885 457.333 270.915 459.275 271.175C460.248 271.302 461.235 271.235 462.182 270.979C463.128 270.724 464.015 270.284 464.791 269.685" stroke="#F90000" stroke-width="2.25" stroke-linecap="round" stroke-linejoin="round"/>
<path id="Vector_7" d="M433.083 265.734C433.974 265.691 434.865 265.833 435.699 266.152C436.532 266.47 437.291 266.957 437.928 267.582C439.087 268.776 439.967 270.212 440.507 271.786" stroke="#F90000" stroke-width="2.25" stroke-linecap="round" stroke-linejoin="round"/>
<path id="Vector_8" d="M443.249 252.81C443.257 253.812 443.504 254.798 443.968 255.687C444.432 256.576 445.1 257.342 445.918 257.923C445.329 258.29 444.838 258.793 444.485 259.39C444.133 259.986 443.928 260.659 443.89 261.351" stroke="#F90000" stroke-width="2.25" stroke-linecap="round" stroke-linejoin="round"/>
<path id="Vector_9" d="M438.494 267.836C439.335 267.001 440.433 266.476 441.61 266.345C442.796 266.275 443.97 266.617 444.934 267.314" stroke="#F90000" stroke-width="2.25" stroke-linecap="round" stroke-linejoin="round"/>
<path id="Vector_10" d="M469.502 250.201C470.658 250.155 471.8 250.458 472.781 251.071C473.762 251.683 474.535 252.578 475 253.636C475.465 254.695 475.6 255.87 475.388 257.007C475.176 258.143 474.626 259.19 473.81 260.01C474.908 260.55 475.828 261.393 476.463 262.439C476.755 262.978 476.9 263.583 476.884 264.195C476.868 264.808 476.692 265.405 476.374 265.928" stroke="#F90000" stroke-width="2.25" stroke-linecap="round" stroke-linejoin="round"/>
<path id="Vector_11" d="M465.922 267.017H474.106V275.573H465.922V283.757H457.38V275.573H449.196V267.017H457.38V258.848H465.922V267.017Z" fill="white" stroke="#F90000" stroke-width="2.25" stroke-linecap="round" stroke-linejoin="round"/>
<path id="Vector_12" d="M483.632 272.713C484.523 271.925 485.248 270.967 485.764 269.896" stroke="#F90000" stroke-width="2.25" stroke-linecap="round" stroke-linejoin="round"/>
<path id="Vector_13" d="M483.005 256.208C483.771 257.053 484.219 258.14 484.271 259.28C484.322 260.42 483.975 261.543 483.288 262.454" stroke="#F90000" stroke-width="2.25" stroke-linecap="round" stroke-linejoin="round"/>
<path id="Vector_14" d="M479.519 263.143C480.101 262.767 480.764 262.534 481.454 262.465C482.144 262.395 482.841 262.49 483.487 262.741C484.133 262.993 484.71 263.395 485.171 263.913C485.631 264.431 485.963 265.051 486.137 265.722" stroke="#F90000" stroke-width="2.25" stroke-linecap="round" stroke-linejoin="round"/>
<path id="Vector_15" d="M463.345 251.005C462.891 251.164 462.48 251.426 462.144 251.77C461.808 252.114 461.556 252.53 461.407 252.987C461.269 253.449 461.275 253.942 461.424 254.4C461.573 254.858 461.858 255.26 462.242 255.552C463.004 255.959 463.874 256.12 464.731 256.014" stroke="#F90000" stroke-width="2.25" stroke-linecap="round" stroke-linejoin="round"/>
<path id="Vector_16" d="M455.967 250.915C453.184 250.402 450.323 250.484 447.573 251.156C444.824 251.828 442.247 253.074 440.014 254.813C437.781 256.553 435.941 258.745 434.616 261.246C433.29 263.747 432.51 266.501 432.325 269.325C432.102 271.819 432.539 274.328 433.592 276.6C434.127 277.729 434.891 278.735 435.835 279.554C436.78 280.373 437.884 280.986 439.078 281.355" stroke="#F90000" stroke-width="2.25" stroke-linecap="round" stroke-linejoin="round"/>
<path id="Vector_17" d="M487.121 267.716C489.768 264.323 493.105 261.53 496.91 259.521C500.715 257.512 504.903 256.332 509.198 256.059C509.404 261.183 508.328 266.279 506.069 270.883C503.81 275.487 500.438 279.456 496.259 282.429C488.164 288.019 477.61 289.569 470.246 296.069" stroke="#F90000" stroke-width="2.25" stroke-linecap="round" stroke-linejoin="round"/>
<path id="Vector_18" d="M502.235 279.405C505.537 279.692 508.805 280.281 512 281.164C508.001 286.168 502.589 289.851 496.466 291.733C490.325 293.761 483.632 293.611 476.029 293.313" stroke="#F90000" stroke-width="2.25" stroke-linecap="round" stroke-linejoin="round"/>
<path id="Vector_19" d="M431.486 275.395C427.903 272.042 425.242 267.823 423.76 263.145C422.277 258.467 422.022 253.487 423.019 248.682C427.376 250.362 431.377 252.85 434.81 256.016" stroke="#F90000" stroke-width="2.25" stroke-linecap="round" stroke-linejoin="round"/>
<path id="Vector_20" d="M426.852 272.874C423.181 272.58 419.489 273.036 416 274.215C420.547 279.552 424.944 284.949 431.16 288.273C440.209 293.147 451.016 290.524 459.662 296.069" stroke="#F90000" stroke-width="2.25" stroke-linecap="round" stroke-linejoin="round"/>
<path id="Vector_21" d="M490.685 256.032C489.794 252.585 490.194 248.931 491.812 245.759C493.429 242.587 496.152 240.117 499.465 238.814C499.882 242.795 499.793 246.909 497.676 250.293C495.858 253.2 493.651 254.288 490.685 256.032Z" stroke="#F90000" stroke-width="2.25" stroke-linecap="round" stroke-linejoin="round"/>
<path id="Vector_22" d="M486.659 251.498C484.344 250.148 482.551 248.058 481.569 245.565C480.588 243.071 480.474 240.32 481.248 237.754C483.515 239.151 485.268 241.246 486.243 243.724C487.219 246.203 487.365 248.93 486.659 251.498Z" stroke="#F90000" stroke-width="2.25" stroke-linecap="round" stroke-linejoin="round"/>
</g>
</g>
</g>
</svg>
