<svg width="1200" height="1000" viewBox="0 0 1200 1000" fill="none" xmlns="http://www.w3.org/2000/svg">
<g id="segment-education-04-invatamant-preuniversitar-de-calitate">
<g id="Group 1156">
<g id="Group 1135">
<path id="Vector" d="M1097.12 159C1095.9 160.601 1094.82 162.229 1093.89 163.912C1087.6 175.255 1085.7 190.289 1080.49 202.338C1073.05 219.543 1060.05 224.591 1047.52 237.861C1035.44 250.643 1023.61 263.641 1011.7 276.07C1001.25 286.979 988.927 300.114 976.661 308.825C971.505 312.488 966.431 317.943 960.569 319.897C953.947 322.122 948.33 321.824 941.166 325.189C928.031 331.349 917.963 340.114 906.24 348.174C896.715 354.714 886.81 363.452 877.04 369.314C869.361 373.927 864.123 372.435 856.389 374.199C847.814 376.18 839.157 378.486 830.5 380.847C819.645 383.805 808.736 386.845 797.827 389.395C762.277 397.645 727.623 411.784 692.778 419.274C673.809 423.344 656.116 431.35 637.771 438.704C607.404 450.861 574.188 455.665 545.559 471.784C536.251 477.022 527.729 479.518 517.417 482.503C490.741 490.238 467.078 505.027 442.681 517.863C435.246 521.771 430.632 526.493 423.875 531.541C418.665 535.394 410.198 536.1 404.581 539.437C380.455 553.766 356.71 568.23 329.736 576.127C302.463 584.105 275.19 574.255 248.161 581.202C224.85 587.199 200.834 579.601 180.997 598.081C161.241 616.48 161.241 646.603 138.554 663.401C133.316 667.281 127.835 670.348 122.271 673.116" stroke="#FFA506" stroke-width="10.1816" stroke-miterlimit="10" stroke-linejoin="round" stroke-dasharray="12.73 12.73"/>
<path id="Vector_2" d="M122.272 692.329C133.467 692.329 142.543 683.253 142.543 672.058C142.543 660.862 133.467 651.786 122.272 651.786C111.076 651.786 102 660.862 102 672.058C102 683.253 111.076 692.329 122.272 692.329Z" fill="white" stroke="#FFA506" stroke-width="10.1816" stroke-miterlimit="10" stroke-linecap="round" stroke-linejoin="round"/>
</g>
<g id="icon-invatamant-preuniversitar-de-calitate 1">
<path id="Vector_3" d="M146.233 838.424C146.233 838.424 243.233 837.902 243.233 838.424H146.233Z" fill="white"/>
<path id="Vector_4" d="M146.233 838.424C146.233 838.424 243.233 837.902 243.233 838.424" stroke="#FFA506" stroke-width="2.425" stroke-linecap="round" stroke-linejoin="round"/>
<path id="Vector_5" d="M166.136 838.063L174.611 789.442H200.819L192.344 838.063" fill="white"/>
<path id="Vector_6" d="M166.136 838.063L174.611 789.442H200.819L192.344 838.063" stroke="#FFA506" stroke-width="2.425" stroke-linecap="round" stroke-linejoin="round"/>
<path id="Vector_7" d="M202.545 838.064L210.177 794.223" stroke="#FFA506" stroke-width="2.425" stroke-linecap="round" stroke-linejoin="round"/>
<path id="Vector_8" d="M216.984 838.062V776.468" stroke="#FFA506" stroke-width="2.425" stroke-linecap="round" stroke-linejoin="round"/>
<path id="Vector_9" d="M224.657 838.062V776.468H186.922V789.442" stroke="#FFA506" stroke-width="2.425" stroke-linecap="round" stroke-linejoin="round"/>
<path id="Vector_10" d="M210.178 794.223C209.31 794.611 208.356 794.764 207.411 794.665C206.466 794.566 205.564 794.22 204.795 793.661C203.942 793.257 203.191 792.666 202.596 791.933C202.002 791.2 201.58 790.342 201.361 789.424" fill="white"/>
<path id="Vector_11" d="M210.178 794.223C209.31 794.611 208.356 794.764 207.411 794.665C206.466 794.566 205.564 794.22 204.795 793.661C203.942 793.257 203.191 792.666 202.596 791.933C202.002 791.2 201.58 790.342 201.361 789.424" stroke="#FFA506" stroke-width="2.425" stroke-linecap="round" stroke-linejoin="round"/>
<path id="Vector_12" d="M189.271 812.077L191.219 800.851H177.944L175.996 812.077H189.271Z" fill="white" stroke="#FFA506" stroke-width="2.425" stroke-linecap="round" stroke-linejoin="round"/>
<path id="Vector_13" d="M203.349 792.597L196.621 833.586" stroke="#FFA506" stroke-width="2.425" stroke-linecap="round" stroke-linejoin="round"/>
<path id="Vector_14" d="M206.643 794.687L199.072 837.644" stroke="#FFA506" stroke-width="2.425" stroke-linecap="round" stroke-linejoin="round"/>
<path id="Vector_15" d="M226.425 810.167L222.87 792.113L219.798 776.428L227.65 774.4L231.807 789.522L236.748 807.536" fill="white"/>
<path id="Vector_16" d="M226.425 810.167L222.87 792.113L219.798 776.428L227.65 774.4L231.807 789.522L236.748 807.536" stroke="#FFA506" stroke-width="2.425" stroke-linecap="round" stroke-linejoin="round"/>
<path id="Vector_17" d="M237.531 807.336L242.612 827.198C243.736 831.576 243.736 836.657 238.997 837.862C234.257 839.067 232.149 834.528 230.964 830.171L225.883 810.288L237.531 807.336Z" fill="white" stroke="#FFA506" stroke-width="2.425" stroke-linecap="round" stroke-linejoin="round"/>
<path id="Vector_18" d="M223.796 794.163H224.137L232.291 792.155" fill="white"/>
<path id="Vector_19" d="M223.796 794.163H224.137L232.291 792.155" stroke="#FFA506" stroke-width="2.425" stroke-linecap="round" stroke-linejoin="round"/>
<path id="Vector_20" d="M219.234 757.51L216.984 769.56C219.114 771.215 220.656 773.51 221.383 776.107" fill="white"/>
<path id="Vector_21" d="M219.234 757.51L216.984 769.56C219.114 771.215 220.656 773.51 221.383 776.107" stroke="#FFA506" stroke-width="2.425" stroke-linecap="round" stroke-linejoin="round"/>
<path id="Vector_22" d="M219.232 757.51L226.985 766.989C225.157 770.002 226.262 774.842 226.262 774.842" fill="white"/>
<path id="Vector_23" d="M219.232 757.51L226.985 766.989C225.157 770.002 226.262 774.842 226.262 774.842" stroke="#FFA506" stroke-width="2.425" stroke-linecap="round" stroke-linejoin="round"/>
<path id="Vector_24" d="M219.255 757.39L219.396 757.872L221.785 766.929" fill="white"/>
<path id="Vector_25" d="M219.255 757.39L219.396 757.872L221.785 766.929" stroke="#FFA506" stroke-width="2.425" stroke-linecap="round" stroke-linejoin="round"/>
<path id="Vector_26" d="M222.068 769.342C222.623 769.342 223.073 768.892 223.073 768.338C223.073 767.783 222.623 767.333 222.068 767.333C221.514 767.333 221.064 767.783 221.064 768.338C221.064 768.892 221.514 769.342 222.068 769.342Z" fill="white" stroke="#FFA506" stroke-width="2.425" stroke-linecap="round" stroke-linejoin="round"/>
<path id="Vector_27" d="M228.853 762.172V753.496C228.853 753.496 152.157 753.115 152.157 753.496V805.973H171.738" stroke="#FFA506" stroke-width="2.425" stroke-linecap="round" stroke-linejoin="round"/>
<path id="Vector_28" d="M232.851 779.884V748.233H146.997V812.438H170.614" stroke="#FFA506" stroke-width="2.425" stroke-linecap="round" stroke-linejoin="round"/>
<path id="Vector_29" d="M169.189 820.512H146.997V815.29H170.112" stroke="#FFA506" stroke-width="2.425" stroke-linecap="round" stroke-linejoin="round"/>
</g>
<text id="&#195;&#142;nv&#196;&#131;&#200;&#155;&#196;&#131;m&#195;&#162;nt preuniversitar de calitate" fill="#1E1E1E" xml:space="preserve" style="white-space: pre" font-family="Titillium Web" font-size="40" font-weight="600" letter-spacing="0px"><tspan x="275" y="781.9">&#xce;nv&#x103;&#x21b;&#x103;m&#xe2;nt </tspan><tspan x="275" y="823.9">preuniversitar&#13;de calitate</tspan></text>
</g>
</g>
</svg>
