<svg width="1200" height="1000" viewBox="0 0 1200 1000" fill="none" xmlns="http://www.w3.org/2000/svg">
<g id="segment-care-01-fara-violenta-acasa">
<g id="Group 1146">
<g id="Group 1138">
<path id="Vector" d="M767.199 162.324C767.953 152.869 768.357 143.792 769.085 136.007C769.893 127.469 771.617 118.957 772.398 110.472C772.452 109.88 772.506 109.287 772.559 108.694" stroke="#C8CEDB" stroke-width="10.1061" stroke-miterlimit="10" stroke-linecap="round" stroke-linejoin="round"/>
<path id="Vector_2" d="M771.777 130.242C782.89 130.242 791.899 121.234 791.899 110.121C791.899 99.0086 782.89 90 771.777 90C760.665 90 751.656 99.0086 751.656 110.121C751.656 121.234 760.665 130.242 771.777 130.242Z" fill="white" stroke="#7937C4" stroke-width="10.1061" stroke-miterlimit="10" stroke-linecap="round" stroke-linejoin="round"/>
<path id="Vector_3" d="M755.4 212.801C761.515 201.596 764.424 187.805 766.067 174.067C766.525 170.135 766.902 166.202 767.198 162.323" stroke="#C8CEDB" stroke-width="10.1061" stroke-miterlimit="10" stroke-linecap="round" stroke-linejoin="round"/>
<path id="Vector_4" d="M766.768 171.697C772.347 171.697 776.869 167.175 776.869 161.596C776.869 156.017 772.347 151.495 766.768 151.495C761.189 151.495 756.667 156.017 756.667 161.596C756.667 167.175 761.189 171.697 766.768 171.697Z" fill="#404366"/>
<path id="Vector_5" d="M717.421 263.334C721.838 247.926 731.158 239.037 743.603 227.455C744.33 226.782 745.057 226.108 745.785 225.435C749.663 221.825 752.815 217.542 755.401 212.802" stroke="#C8CEDB" stroke-width="10.1061" stroke-miterlimit="10" stroke-linecap="round" stroke-linejoin="round"/>
<path id="Vector_6" d="M755.401 224.114C760.979 224.114 765.502 219.592 765.502 214.013C765.502 208.434 760.979 203.912 755.401 203.912C749.822 203.912 745.3 208.434 745.3 214.013C745.3 219.592 749.822 224.114 755.401 224.114Z" fill="#404366"/>
<path id="Vector_7" d="M719.145 327.523C716.506 314.001 714.243 301.61 714.297 288.331C714.324 282.728 714.755 276.964 715.751 270.876C716.182 268.182 716.748 265.677 717.421 263.334" stroke="#C8CEDB" stroke-width="10.1061" stroke-miterlimit="10" stroke-linecap="round" stroke-linejoin="round"/>
<path id="Vector_8" d="M718.283 275.104C723.861 275.104 728.384 270.582 728.384 265.003C728.384 259.425 723.861 254.902 718.283 254.902C712.704 254.902 708.182 259.425 708.182 265.003C708.182 270.582 712.704 275.104 718.283 275.104Z" fill="#404366"/>
<path id="Vector_9" d="M723.859 383.28C724.64 375.522 724.721 367.899 724.155 359.953C723.67 353.138 722.7 346.108 721.3 338.593C720.599 334.795 719.872 331.105 719.172 327.495" stroke="#C8CEDB" stroke-width="10.1061" stroke-miterlimit="10" stroke-linecap="round" stroke-linejoin="round"/>
<path id="Vector_10" d="M719.226 337.624C724.805 337.624 729.327 333.102 729.327 327.523C729.327 321.944 724.805 317.422 719.226 317.422C713.647 317.422 709.125 321.944 709.125 327.523C709.125 333.102 713.647 337.624 719.226 337.624Z" fill="#404366"/>
<path id="Vector_11" d="M712.033 431.522C714 424.68 716.262 417.919 718.255 411.05C721.111 401.219 722.942 392.168 723.858 383.279" stroke="#C8CEDB" stroke-width="10.1061" stroke-miterlimit="10" stroke-linecap="round" stroke-linejoin="round"/>
<path id="Vector_12" d="M724.155 393.408C729.733 393.408 734.256 388.886 734.256 383.307C734.256 377.728 729.733 373.206 724.155 373.206C718.576 373.206 714.054 377.728 714.054 383.307C714.054 388.886 718.576 393.408 724.155 393.408Z" fill="#404366"/>
<path id="Vector_13" d="M708.317 482.62C707.913 471.98 706.431 461.421 707.859 450.593C708.721 444.101 710.256 437.798 712.034 431.549" stroke="#C8CEDB" stroke-width="10.1061" stroke-miterlimit="10" stroke-linecap="round" stroke-linejoin="round"/>
<path id="Vector_14" d="M710.849 440.895C716.428 440.895 720.95 436.373 720.95 430.794C720.95 425.216 716.428 420.693 710.849 420.693C705.27 420.693 700.748 425.216 700.748 430.794C700.748 436.373 705.27 440.895 710.849 440.895Z" fill="#404366"/>
<path id="Vector_15" d="M692.882 532.667C698.323 525.798 702.606 518.068 705.272 509.34C706.808 504.33 707.831 498.97 708.208 493.286C708.451 489.704 708.424 486.148 708.289 482.593" stroke="#C8CEDB" stroke-width="10.1061" stroke-miterlimit="10" stroke-linecap="round" stroke-linejoin="round"/>
<path id="Vector_16" d="M708.666 492.452C714.245 492.452 718.767 487.93 718.767 482.351C718.767 476.772 714.245 472.25 708.666 472.25C703.088 472.25 698.565 476.772 698.565 482.351C698.565 487.93 703.088 492.452 708.666 492.452Z" fill="#404366"/>
<path id="Vector_17" d="M502.283 667.482C511.441 657.839 522.593 652.559 533.448 644.559C546.674 634.835 560.007 625.246 573.098 615.441C582.229 608.6 584.95 599.603 592.95 592.034C605.61 580.128 621.367 576.33 636.775 570.27C639.846 569.058 642.943 567.792 645.987 566.418C663.792 558.445 681.031 547.616 692.883 532.667" stroke="#C8CEDB" stroke-width="10.1061" stroke-miterlimit="10" stroke-linecap="round" stroke-linejoin="round"/>
<path id="Vector_18" d="M692.882 543.979C698.461 543.979 702.983 539.457 702.983 533.878C702.983 528.3 698.461 523.777 692.882 523.777C687.304 523.777 682.781 528.3 682.781 533.878C682.781 539.457 687.304 543.979 692.882 543.979Z" fill="#404366"/>
<path id="Vector_19" d="M502.283 667.482C500.936 668.883 499.643 670.391 498.404 672.008C489.892 683.051 492.155 698.701 495.468 711.738C499.05 725.907 510.552 737.408 516.263 750.58" stroke="#C8CEDB" stroke-width="10.1061" stroke-miterlimit="10" stroke-linecap="round" stroke-linejoin="round"/>
<path id="Vector_20" d="M501.449 677.583C507.027 677.583 511.55 673.061 511.55 667.482C511.55 661.903 507.027 657.381 501.449 657.381C495.87 657.381 491.348 661.903 491.348 667.482C491.348 673.061 495.87 677.583 501.449 677.583Z" fill="#404366"/>
<path id="Vector_21" d="M516.262 750.58C517.663 753.812 518.714 757.126 519.199 760.627C521.084 774.014 502.417 794.082 488.545 795.24C486.498 795.402 484.451 795.105 482.377 794.621" stroke="#C8CEDB" stroke-width="10.1061" stroke-miterlimit="10" stroke-linecap="round" stroke-linejoin="round"/>
<path id="Vector_22" d="M515.94 760.95C521.519 760.95 526.041 756.428 526.041 750.849C526.041 745.27 521.519 740.748 515.94 740.748C510.361 740.748 505.839 745.27 505.839 750.849C505.839 756.428 510.361 760.95 515.94 760.95Z" fill="#404366"/>
<path id="Vector_23" d="M482.377 794.62C478.148 793.623 473.892 791.792 469.663 791.334C460.693 790.418 451.831 791.9 442.888 791.98C432.33 792.061 419.104 791.361 409.326 795.536" stroke="#C8CEDB" stroke-width="10.1061" stroke-miterlimit="10" stroke-linecap="round" stroke-linejoin="round"/>
<path id="Vector_24" d="M482.943 804.667C488.521 804.667 493.044 800.144 493.044 794.566C493.044 788.987 488.521 784.465 482.943 784.465C477.364 784.465 472.842 788.987 472.842 794.566C472.842 800.144 477.364 804.667 482.943 804.667Z" fill="#404366"/>
<path id="Vector_25" d="M409.299 795.536C408.006 796.102 406.74 796.721 405.582 797.476C402.161 799.63 401.353 803.321 396.397 804.883C389.636 807.011 381.151 805.206 374.148 805.556C362.7 806.095 348.801 804.56 338.889 811.617C333.555 815.415 326.66 819.428 320.168 824.088" stroke="#C8CEDB" stroke-width="10.1061" stroke-miterlimit="10" stroke-linecap="round" stroke-linejoin="round"/>
<path id="Vector_26" d="M409.677 806.983C415.256 806.983 419.778 802.461 419.778 796.882C419.778 791.304 415.256 786.781 409.677 786.781C404.099 786.781 399.576 791.304 399.576 796.882C399.576 802.461 404.099 806.983 409.677 806.983Z" fill="#404366"/>
<path id="Vector_27" d="M320.169 824.061C310.984 830.66 302.633 838.552 300.829 848.896C299.644 855.63 303.199 861.125 302.741 868.37C302.149 877.906 297.596 887.657 293.448 897.246" stroke="#C8CEDB" stroke-width="10.1061" stroke-miterlimit="10" stroke-linecap="round" stroke-linejoin="round"/>
<path id="Vector_28" d="M320.411 833.22C325.989 833.22 330.512 828.697 330.512 823.119C330.512 817.54 325.989 813.018 320.411 813.018C314.832 813.018 310.31 817.54 310.31 823.119C310.31 828.697 314.832 833.22 320.411 833.22Z" fill="#404366"/>
<path id="Vector_29" d="M293.394 897.246C291.185 902.337 289.084 907.374 287.764 912.276C283.185 929.354 268.613 937.973 266 956.209" stroke="#7937C4" stroke-width="10.1061" stroke-miterlimit="10" stroke-linecap="round" stroke-linejoin="round"/>
<path id="Vector_30" d="M293.394 907.348C298.973 907.348 303.495 902.825 303.495 897.247C303.495 891.668 298.973 887.146 293.394 887.146C287.815 887.146 283.293 891.668 283.293 897.247C283.293 902.825 287.815 907.348 293.394 907.348Z" fill="white" stroke="#7937C4" stroke-width="5.38721" stroke-miterlimit="10" stroke-linecap="round" stroke-linejoin="round"/>
</g>
<g id="icon-fara-violenta-acasa 1">
<path id="Vector_31" d="M893.683 85.9546C895.048 84.59 895.048 82.3779 893.683 81.0137C892.319 79.6491 890.107 79.6491 888.742 81.0137L886.246 83.51C884.882 84.8742 884.882 87.0863 886.246 88.4509C887.61 89.8152 889.822 89.8152 891.187 88.4509L893.683 85.9546Z" stroke="#7937C4" stroke-width="2.71364" stroke-linecap="round" stroke-linejoin="round"/>
<path id="Vector_32" d="M898.642 90.9006C900.007 89.5364 900.007 87.324 898.642 85.9597C897.278 84.5955 895.066 84.5955 893.701 85.9597L891.205 88.456C889.84 89.8203 889.84 92.0323 891.205 93.3969C892.569 94.7612 894.781 94.7612 896.146 93.3969L898.642 90.9006Z" stroke="#7937C4" stroke-width="2.71364" stroke-linecap="round" stroke-linejoin="round"/>
<path id="Vector_33" d="M902.781 96.6343C904.145 95.2697 904.145 93.0576 902.781 91.6934C901.416 90.3288 899.204 90.3288 897.84 91.6934L895.344 94.1893C893.979 95.5539 893.979 97.766 895.344 99.1302C896.708 100.495 898.92 100.495 900.284 99.1302L902.781 96.6343Z" stroke="#7937C4" stroke-width="2.71364" stroke-linecap="round" stroke-linejoin="round"/>
<path id="Vector_34" d="M887.51 82.2704C886.678 81.4383 885.549 80.9707 884.372 80.9707C883.194 80.9707 882.065 81.4383 881.233 82.2704L873.244 90.2405V96.373L845.403 121.976" stroke="#7937C4" stroke-width="2.71364" stroke-linecap="round" stroke-linejoin="round"/>
<path id="Vector_35" d="M890.186 91.2582C890.039 91.8831 889.678 92.4373 889.167 92.8257C888.656 93.2142 888.025 93.4125 887.384 93.3871C886.084 93.1888 884.879 92.5836 883.945 91.6584C882.962 90.7849 882.252 90.2206 881.47 89.4385" stroke="#7937C4" stroke-width="2.71364" stroke-linecap="round" stroke-linejoin="round"/>
<path id="Vector_36" d="M900.013 99.3203L894.845 106.271C894.4 106.72 893.87 107.077 893.285 107.32C892.701 107.564 892.075 107.69 891.442 107.691H887.348L872.136 126.961" stroke="#7937C4" stroke-width="2.71364" stroke-linecap="round" stroke-linejoin="round"/>
<path id="Vector_37" d="M884.253 91.9678C884.981 94.3599 884.865 96.9294 883.926 99.2466" stroke="#7937C4" stroke-width="2.71364" stroke-linecap="round" stroke-linejoin="round"/>
<path id="Vector_38" d="M893.02 114.423V120.483" stroke="#7937C4" stroke-width="2.71364" stroke-linecap="round" stroke-linejoin="round"/>
<path id="Vector_39" d="M907.074 99.8486H913.115" stroke="#7937C4" stroke-width="2.71364" stroke-linecap="round" stroke-linejoin="round"/>
<path id="Vector_40" d="M901.285 107.146L905.561 111.422" stroke="#7937C4" stroke-width="2.71364" stroke-linecap="round" stroke-linejoin="round"/>
<path id="Vector_41" d="M879.523 74.1555V68.1143" stroke="#7937C4" stroke-width="2.71364" stroke-linecap="round" stroke-linejoin="round"/>
<path id="Vector_42" d="M865.475 88.749H859.415" stroke="#7937C4" stroke-width="2.71364" stroke-linecap="round" stroke-linejoin="round"/>
<path id="Vector_43" d="M871.261 81.4501L866.967 77.1738" stroke="#7937C4" stroke-width="2.71364" stroke-linecap="round" stroke-linejoin="round"/>
<path id="Vector_44" d="M921.156 132.146V87.6372L925.05 90.9128L929.654 85.6902L882.943 52.8271L836.305 85.6902L840.836 90.9128L844.73 87.6372V132.146" stroke="#7937C4" stroke-width="2.71364" stroke-linecap="round" stroke-linejoin="round"/>
<path id="Vector_45" d="M835.65 132.147H930.51" stroke="#7937C4" stroke-width="2.71364" stroke-linecap="round" stroke-linejoin="round"/>
<path id="Vector_46" d="M838.081 43.5938L833.191 48.4832L860.418 75.7097L865.307 70.8203L838.081 43.5938Z" fill="#7937C4"/>
<path id="Vector_47" d="M910.748 116.1L905.858 120.989L933.085 148.216L937.974 143.326L910.748 116.1Z" fill="#7937C4"/>
</g>
<text id="F&#196;&#131;r&#196;&#131; violen&#200;&#155;&#196;&#131; acas&#196;&#131;" fill="#1E1E1E" xml:space="preserve" style="white-space: pre" font-family="Titillium Web" font-size="40" font-weight="600" letter-spacing="0px"><tspan x="832" y="208.9">F&#x103;r&#x103; violen&#x21b;&#x103; acas&#x103;</tspan></text>
<text class="btn-project" text-decoration="underline" cursor="pointer" projectid="1" id="Software de management&#226;&#128;&#168;de caz pentru ONGuri" fill="#404366" xml:space="preserve" style="white-space: pre" font-family="Titillium Web" font-size="28" font-weight="600" letter-spacing="0px"><tspan x="-50" y="895.95">Software de management</tspan><tspan x="5" y="925">de caz pentru ONGuri</tspan></text>
<text class="btn-project" text-decoration="underline" cursor="pointer" projectid="2" id="Software de management &#226;&#128;&#168;de caz integrat" fill="#404366" xml:space="preserve" style="white-space: pre" font-family="Titillium Web" font-size="28" font-weight="600" letter-spacing="0px"><tspan x="332" y="870.95">Software de management</tspan><tspan x="332" y="900">de caz integrat</tspan></text>
<text class="btn-project" text-decoration="underline" cursor="pointer" projectid="3" id="Hub Violen&#200;&#155;&#196;&#131; Domestic&#196;&#131;" fill="#404366" xml:space="preserve" style="white-space: pre" font-family="Titillium Web" font-size="28" font-weight="600" letter-spacing="0px"><tspan x="110" y="770">Hub Violen&#x21b;&#x103; Domestic&#x103;</tspan></text>
<text class="btn-project" text-decoration="underline" cursor="pointer" projectid="4" id="Banca de resurse" fill="#404366" xml:space="preserve" style="white-space: pre" font-family="Titillium Web" font-size="28" font-weight="600" letter-spacing="0px"><tspan x="497" y="830.95">Banca de resurse</tspan></text>
<text class="btn-project" text-decoration="underline" cursor="pointer" projectid="5" id="Incognito Escape" fill="#404366" xml:space="preserve" style="white-space: pre" font-family="Titillium Web" font-size="28" font-weight="600" letter-spacing="0px"><tspan x="547" y="750.95">Incognito Escape</tspan></text>
<text class="btn-project" text-decoration="underline" cursor="pointer" projectid="6" id="Website Chatbot" fill="#404366" xml:space="preserve" style="white-space: pre" font-family="Titillium Web" font-size="28" font-weight="600" letter-spacing="0px"><tspan x="276" y="666.95">Website Chatbot</tspan></text>
<text class="btn-project" text-decoration="underline" cursor="pointer" projectid="7" id="Vorbesc - helpline &#226;&#128;&#168;psihologic gratuit" fill="#404366" xml:space="preserve" style="white-space: pre" font-family="Titillium Web" font-size="28" font-weight="600" letter-spacing="0px"><tspan x="717" y="563.95">Vorbesc - helpline</tspan><tspan x="717" y="595">psihologic gratuit</tspan></text>
<text class="btn-project" text-decoration="underline" cursor="pointer" projectid="8" id="Support Community" fill="#404366" xml:space="preserve" style="white-space: pre" font-family="Titillium Web" font-size="28" font-weight="600" letter-spacing="0px"><tspan x="437" y="493.95">Support Community</tspan></text>
<text class="btn-project" text-decoration="underline" cursor="pointer" projectid="9" id="Widget Hub Violen&#200;&#155;&#196;&#131; Domestic&#196;&#131;" fill="#404366" xml:space="preserve" style="white-space: pre" font-family="Titillium Web" font-size="28" font-weight="600" letter-spacing="0px"><tspan x="297" y="441.95">Widget Hub Violen&#x21b;&#x103; Domestic&#x103;</tspan></text>
<text class="btn-project" text-decoration="underline" cursor="pointer" projectid="10" id="Daily Assessment Kit - scoli" fill="#404366" xml:space="preserve" style="white-space: pre" font-family="Titillium Web" font-size="28" font-weight="600" letter-spacing="0px"><tspan x="363" y="389.95">Daily Assessment Kit - scoli</tspan></text>
<text class="btn-project" text-decoration="underline" cursor="pointer" projectid="11" id="Daily Assessment Kit - angajatori" fill="#404366" xml:space="preserve" style="white-space: pre" font-family="Titillium Web" font-size="28" font-weight="600" letter-spacing="0px"><tspan x="289" y="332.95">Daily Assessment Kit - angajatori</tspan></text>
<text class="btn-project" text-decoration="underline" cursor="pointer" projectid="12" id="Personal Assessment Kit - couples" fill="#404366" xml:space="preserve" style="white-space: pre" font-family="Titillium Web" font-size="28" font-weight="600" letter-spacing="0px"><tspan x="273" y="269.95">Personal Assessment Kit - couples</tspan></text>
<text class="btn-project" text-decoration="underline" cursor="pointer" projectid="13" id="Anger Management" fill="#404366" xml:space="preserve" style="white-space: pre" font-family="Titillium Web" font-size="28" font-weight="600" letter-spacing="0px"><tspan x="483" y="209.95">Anger Management</tspan></text>
<text class="btn-project" text-decoration="underline" cursor="pointer" projectid="14" id="Violen&#200;&#155;a Domestic&#196;&#131; Media Kit" fill="#404366" xml:space="preserve" style="white-space: pre" font-family="Titillium Web" font-size="28" font-weight="600" letter-spacing="0px"><tspan x="379" y="157.95">Violen&#x21b;a Domestic&#x103; Media Kit</tspan></text>
</g>
</g>
</svg>
