<svg width="558" height="332" viewBox="0 0 558 332" fill="none" xmlns="http://www.w3.org/2000/svg">
<path d="M501.253 167.907C484.445 172.173 462.553 190.974 444.902 179.198C437.52 174.268 434.684 164.97 429.371 157.894C417.646 142.261 395.754 139.195 376.264 137.995C356.773 136.794 335.137 135.287 321.598 121.212C317.409 116.844 314.293 111.505 309.695 107.571C303.334 102.104 299.272 105.042 292.426 104.046C286.756 103.203 280.012 99.0136 274.903 96.4591C257.43 87.7229 256 77.786 246.242 61.7185C232.984 39.8268 199.776 29.0981 176.352 23.9891C146.72 17.5008 116.731 11.2168 86.8691 5.69922" stroke="#7937C4" stroke-width="9.58407" stroke-miterlimit="10" stroke-linejoin="round" stroke-dasharray="11.98 11.98"/>
<path d="M502.582 186.99C513.12 186.99 521.664 178.447 521.664 167.908C521.664 157.369 513.12 148.826 502.582 148.826C492.043 148.826 483.5 157.369 483.5 167.908C483.5 178.447 492.043 186.99 502.582 186.99Z" fill="white" stroke="#7937C4" stroke-width="9.58407" stroke-miterlimit="10" stroke-linecap="round" stroke-linejoin="round"/>
<path d="M486.492 238.61C489.974 238.61 492.797 235.787 492.797 232.305C492.797 228.823 489.974 226 486.492 226C483.01 226 480.188 228.823 480.188 232.305C480.188 235.787 483.01 238.61 486.492 238.61Z" stroke="#7937C4" stroke-width="2.75" stroke-linecap="round" stroke-linejoin="round"/>
<path d="M480.184 251.537L476.008 263.59H486.489" stroke="#7937C4" stroke-width="2.75" stroke-linecap="round" stroke-linejoin="round"/>
<path d="M492.813 251.537L496.99 263.59H486.488" stroke="#7937C4" stroke-width="2.75" stroke-linecap="round" stroke-linejoin="round"/>
<path d="M485.378 263.59H481.52V277.274H485.378V263.59Z" stroke="#7937C4" stroke-width="2.75" stroke-linecap="round" stroke-linejoin="round"/>
<path d="M491.858 263.59H488V277.274H491.858V263.59Z" stroke="#7937C4" stroke-width="2.75" stroke-linecap="round" stroke-linejoin="round"/>
<path d="M466.383 236.242C466.398 235.901 466.502 235.569 466.682 235.28C466.863 234.99 467.116 234.751 467.416 234.587C467.715 234.424 468.052 234.34 468.394 234.344C468.736 234.348 469.07 234.44 469.366 234.611L481.578 242.567C481.865 242.663 482.126 242.824 482.341 243.037C482.557 243.25 482.721 243.509 482.821 243.794C482.921 244.08 482.955 244.385 482.919 244.685C482.884 244.986 482.78 245.275 482.616 245.529C482.452 245.784 482.232 245.997 481.973 246.154C481.714 246.311 481.423 246.406 481.121 246.433C480.82 246.46 480.516 246.418 480.233 246.31C479.95 246.201 479.696 246.03 479.49 245.809L467.198 237.853C466.945 237.668 466.739 237.426 466.597 237.146C466.455 236.866 466.382 236.556 466.383 236.242Z" fill="white" stroke="#7937C4" stroke-width="2.75" stroke-linecap="round" stroke-linejoin="round"/>
<path d="M502.022 230.952C501.702 230.913 501.377 230.952 501.075 231.067C500.774 231.181 500.505 231.367 500.291 231.608L490.764 242.567C490.52 242.741 490.319 242.968 490.175 243.23C490.031 243.493 489.948 243.784 489.932 244.083C489.917 244.382 489.969 244.681 490.085 244.957C490.201 245.233 490.377 245.479 490.602 245.677C490.826 245.876 491.092 246.021 491.38 246.102C491.669 246.183 491.972 246.198 492.266 246.145C492.561 246.093 492.84 245.975 493.083 245.799C493.326 245.624 493.526 245.396 493.668 245.133L503.195 234.134C503.516 233.741 503.674 233.239 503.637 232.732C503.6 232.226 503.371 231.752 502.996 231.41C502.719 231.17 502.382 231.012 502.022 230.952Z" fill="white" stroke="#7937C4" stroke-width="2.75" stroke-linecap="round" stroke-linejoin="round"/>
<path d="M501.723 230.952C502.043 230.913 502.368 230.952 502.669 231.067C502.97 231.181 503.24 231.367 503.453 231.608L512.94 242.567C513.195 242.735 513.407 242.958 513.562 243.221C513.716 243.483 513.808 243.777 513.831 244.081C513.854 244.385 513.807 244.69 513.693 244.972C513.579 245.255 513.402 245.508 513.175 245.711C512.948 245.914 512.678 246.063 512.384 246.145C512.091 246.227 511.783 246.24 511.483 246.185C511.184 246.129 510.901 246.005 510.657 245.823C510.413 245.64 510.214 245.404 510.076 245.133L500.549 234.134C500.228 233.741 500.07 233.239 500.107 232.732C500.144 232.226 500.373 231.752 500.748 231.41C501.02 231.164 501.36 231.005 501.723 230.952Z" fill="white" stroke="#7937C4" stroke-width="2.75" stroke-linecap="round" stroke-linejoin="round"/>
<path d="M517.098 238.61C520.58 238.61 523.403 235.787 523.403 232.305C523.403 228.823 520.58 226 517.098 226C513.616 226 510.793 228.823 510.793 232.305C510.793 235.787 513.616 238.61 517.098 238.61Z" stroke="#7937C4" stroke-width="2.75" stroke-linecap="round" stroke-linejoin="round"/>
<path d="M537.242 236.243C537.237 236.562 537.154 236.875 537.002 237.155C536.849 237.435 536.632 237.675 536.368 237.854L524.156 245.809C523.95 246.042 523.692 246.224 523.403 246.34C523.114 246.455 522.803 246.501 522.493 246.474C522.183 246.447 521.884 246.348 521.619 246.185C521.354 246.021 521.132 245.798 520.969 245.533C520.807 245.268 520.708 244.968 520.683 244.658C520.657 244.348 520.704 244.037 520.82 243.748C520.937 243.46 521.119 243.203 521.353 242.998C521.587 242.793 521.866 242.645 522.167 242.567L534.378 234.612C534.803 234.379 535.298 234.309 535.77 234.416C536.243 234.522 536.66 234.797 536.944 235.189C537.14 235.505 537.244 235.87 537.242 236.243Z" fill="white" stroke="#7937C4" stroke-width="2.75" stroke-linecap="round" stroke-linejoin="round"/>
<path d="M523.403 256.41H510.793V263.59H523.403V256.41Z" stroke="#7937C4" stroke-width="2.75" stroke-linejoin="round"/>
<path d="M517.098 263.591V259.554" stroke="#7937C4" stroke-width="2.75" stroke-linejoin="round"/>
<path d="M485.374 277.273V282.524H477.418C477.416 281.803 477.653 281.101 478.092 280.529C478.531 279.957 479.147 279.547 479.844 279.362C480.126 279.266 480.422 279.219 480.72 279.223V277.233L485.374 277.273Z" stroke="#7937C4" stroke-width="2.75" stroke-linecap="round" stroke-linejoin="round"/>
<path d="M487.883 277.273V282.524H495.838C495.842 281.805 495.608 281.106 495.172 280.534C494.737 279.962 494.125 279.55 493.432 279.362C493.144 279.264 492.841 279.217 492.537 279.223V277.233L487.883 277.273Z" stroke="#7937C4" stroke-width="2.75" stroke-linecap="round" stroke-linejoin="round"/>
<path d="M515.862 263.59H512.004V277.274H515.862V263.59Z" stroke="#7937C4" stroke-width="2.75" stroke-linecap="round" stroke-linejoin="round"/>
<path d="M522.351 263.59H518.492V277.274H522.351V263.59Z" stroke="#7937C4" stroke-width="2.75" stroke-linecap="round" stroke-linejoin="round"/>
<path d="M515.846 277.273V282.524H507.891C507.887 281.805 508.121 281.106 508.557 280.534C508.992 279.962 509.603 279.55 510.297 279.362C510.585 279.266 510.888 279.219 511.192 279.223V277.233L515.846 277.273Z" stroke="#7937C4" stroke-width="2.75" stroke-linecap="round" stroke-linejoin="round"/>
<path d="M518.492 277.273V282.524H526.448C526.451 281.805 526.217 281.106 525.782 280.534C525.347 279.962 524.735 279.55 524.041 279.362C523.753 279.264 523.451 279.217 523.147 279.223V277.233L518.492 277.273Z" stroke="#7937C4" stroke-width="2.75" stroke-linecap="round" stroke-linejoin="round"/>
<path d="M492.797 242.07H480.188V251.557H492.797V242.07Z" fill="white" stroke="#7937C4" stroke-width="2.75" stroke-linecap="round" stroke-linejoin="round"/>
<path d="M523.403 242.07H510.793V256.43H523.403V242.07Z" fill="white" stroke="#7937C4" stroke-width="2.75" stroke-linecap="round" stroke-linejoin="round"/>
<path d="M517.417 306.989L496.832 305.001C494.366 304.742 491.641 304.364 490.11 302.435C489.337 301.191 489.021 299.716 489.217 298.264C489.413 296.812 490.108 295.474 491.184 294.479C493.401 292.512 496.108 291.179 499.02 290.621C509.107 287.954 519.516 286.703 529.947 286.901C531.53 286.822 533.112 287.071 534.594 287.633C536.076 288.194 537.426 289.055 538.559 290.163C540.727 292.57 549.398 312.041 553.038 318.565" stroke="#7937C4" stroke-width="2.75" stroke-linecap="round" stroke-linejoin="round"/>
<path d="M528.017 328.667L525.153 320.851L493.33 317.967C491.183 317.749 489.128 316.982 487.364 315.739L460.275 296.845C459.179 296.072 458.412 294.916 458.124 293.606C457.837 292.295 458.051 290.925 458.724 289.764C459.427 288.559 460.574 287.677 461.919 287.306C463.264 286.934 464.701 287.102 465.923 287.776L477.141 293.881C478.107 294.401 479.146 294.77 480.224 294.975L489.671 296.686" stroke="#7937C4" stroke-width="2.75" stroke-linecap="round" stroke-linejoin="round"/>
<path d="M466.203 287.915L466.521 287.299C466.881 286.602 467.489 286.065 468.227 285.796C468.964 285.527 469.775 285.545 470.499 285.847L480.782 290.441C481.047 290.542 481.32 290.622 481.597 290.68L493.531 292.669" stroke="#7937C4" stroke-width="2.75" stroke-linecap="round" stroke-linejoin="round"/>
<text fill="#1E1E1E" xml:space="preserve" style="white-space: pre" font-family="Titillium Web" font-size="40" font-weight="600" letter-spacing="0px"><tspan x="201.641" y="271.9">O via&#x21b;&#x103; bun&#x103;&#x2028;</tspan><tspan x="0.78125" y="313.9">pentru&#13;copiii abandona&#x21b;i</tspan></text>
</svg>
