<svg width="333" height="59" viewBox="0 0 333 59" fill="none" xmlns="http://www.w3.org/2000/svg">
<g clip-path="url(#clip0)">
<path d="M307.504 36.4272C268.051 29.1316 230.667 13.5571 191.032 7.91723C178.925 6.20974 173.647 2.9241 163.117 6.36496C149.716 10.7631 137.22 19.7662 123.974 25.0698C107.313 31.7187 91.739 32.6242 74.0949 35.4441C51.0696 39.1437 28.0443 42.9209 4.86375 45.4562C3.75129 45.5856 2.6647 45.715 1.55225 45.896" stroke="#7937C4" stroke-width="9.70659" stroke-miterlimit="10" stroke-linejoin="round" stroke-dasharray="12.13 12.13"/>
<path d="M308.513 54.0968C319.187 54.0968 327.839 45.4443 327.839 34.771C327.839 24.0977 319.187 15.4453 308.513 15.4453C297.84 15.4453 289.188 24.0977 289.188 34.771C289.188 45.4443 297.84 54.0968 308.513 54.0968Z" fill="white" stroke="#7937C4" stroke-width="9.70659" stroke-miterlimit="10" stroke-linecap="round" stroke-linejoin="round"/>
</g>
<defs>
<clipPath id="clip0">
<rect width="332.703" height="58.9344" fill="white"/>
</clipPath>
</defs>
</svg>
