<svg width="550" height="222" viewBox="0 0 550 222" fill="none" xmlns="http://www.w3.org/2000/svg">
<path d="M53.1221 173.447C79.4512 151.874 103.53 128.073 112.276 92.813C112.763 89.7973 111.673 84.5315 112.577 81.0983C113.552 77.4794 116.034 73.9766 117.078 70.2418C119.699 60.8469 121.068 46.7196 126.867 38.6468C133.803 28.9967 146.422 37.9741 155.701 35.5384C161.014 34.1233 165.468 31.5252 171.267 30.9453C175.79 30.5045 180.708 30.4349 184.837 28.2312C189.848 25.5403 192.493 22.8957 198.014 21.8055C202.305 20.9704 207.919 21.5967 212.164 20.1816" stroke="#00B4CC" stroke-width="8.70347" stroke-miterlimit="10" stroke-linejoin="round" stroke-dasharray="10.88 10.88"/>
<path d="M4.36035 217.639C7.72399 215.389 10.9484 213.092 13.7321 210.749C16.5158 208.406 16.1679 203.094 19.0212 200.728C30.1328 191.542 41.8475 182.703 53.1447 173.424" stroke="#00B4CC" stroke-width="8.70347" stroke-miterlimit="10" stroke-linecap="round" stroke-linejoin="round"/>
<path d="M53.1219 182.007C57.9263 182.007 61.821 178.113 61.821 173.308C61.821 168.504 57.9263 164.609 53.1219 164.609C48.3176 164.609 44.4229 168.504 44.4229 173.308C44.4229 178.113 48.3176 182.007 53.1219 182.007Z" fill="white" stroke="#00B4CC" stroke-width="4.6395" stroke-miterlimit="10" stroke-linecap="round" stroke-linejoin="round"/>
<path d="M218.66 39.0181C228.23 39.0181 235.988 31.2599 235.988 21.6896C235.988 12.1193 228.23 4.36108 218.66 4.36108C209.089 4.36108 201.331 12.1193 201.331 21.6896C201.331 31.2599 209.089 39.0181 218.66 39.0181Z" fill="white" stroke="#00B4CC" stroke-width="8.70347" stroke-miterlimit="10" stroke-linecap="round" stroke-linejoin="round"/>
<path d="M356.956 112.161H286.403L292.668 23.2258H363.221L356.956 112.161Z" stroke="#00B4CC" stroke-width="2.41935" stroke-linecap="round" stroke-linejoin="round"/>
<path d="M339.304 43.5863H297.638L298.403 32.8245H340.069L339.304 43.5863Z" fill="white" stroke="#00B4CC" stroke-width="2.41935" stroke-linecap="round" stroke-linejoin="round"/>
<path d="M351.584 92.1889H316.111L317.5 72.394H352.972L351.584 92.1889Z" fill="white" stroke="#00B4CC" stroke-width="2.41935" stroke-linecap="round" stroke-linejoin="round"/>
<path d="M355.002 43.5863H344.163L344.911 32.8245H355.768L355.002 43.5863Z" fill="white" stroke="#00B4CC" stroke-width="2.41935" stroke-linecap="round" stroke-linejoin="round"/>
<path d="M297.209 49.7251H315.808" stroke="#00B4CC" stroke-width="2.41935" stroke-linecap="round" stroke-linejoin="round"/>
<path d="M296.692 56.8352H315.31" stroke="#00B4CC" stroke-width="2.41935" stroke-linecap="round" stroke-linejoin="round"/>
<path d="M296.197 63.9453H314.814" stroke="#00B4CC" stroke-width="2.41935" stroke-linecap="round" stroke-linejoin="round"/>
<path d="M295.414 75.1819H314.013" stroke="#00B4CC" stroke-width="2.41935" stroke-linecap="round" stroke-linejoin="round"/>
<path d="M294.897 82.292H313.515" stroke="#00B4CC" stroke-width="2.41935" stroke-linecap="round" stroke-linejoin="round"/>
<path d="M294.396 89.4021H313.014" stroke="#00B4CC" stroke-width="2.41935" stroke-linecap="round" stroke-linejoin="round"/>
<path d="M320.26 49.7251H338.877" stroke="#00B4CC" stroke-width="2.41935" stroke-linecap="round" stroke-linejoin="round"/>
<path d="M319.759 56.8352H338.376" stroke="#00B4CC" stroke-width="2.41935" stroke-linecap="round" stroke-linejoin="round"/>
<path d="M319.261 63.9453H337.86" stroke="#00B4CC" stroke-width="2.41935" stroke-linecap="round" stroke-linejoin="round"/>
<path d="M343.719 49.7251H354.576" stroke="#00B4CC" stroke-width="2.41935" stroke-linecap="round" stroke-linejoin="round"/>
<path d="M343.219 56.8352H354.076" stroke="#00B4CC" stroke-width="2.41935" stroke-linecap="round" stroke-linejoin="round"/>
<path d="M342.721 63.9453H353.577" stroke="#00B4CC" stroke-width="2.41935" stroke-linecap="round" stroke-linejoin="round"/>
<path d="M293.829 97.4824H351.211" stroke="#00B4CC" stroke-width="2.41935" stroke-linecap="round" stroke-linejoin="round"/>
<path d="M293.4 103.71H350.764" stroke="#00B4CC" stroke-width="2.41935" stroke-linecap="round" stroke-linejoin="round"/>
<path d="M364.738 28.0237H369.776L363.226 116.783H296.197" stroke="#00B4CC" stroke-width="2.41935" stroke-linecap="round" stroke-linejoin="round"/>
<path d="M329.853 64.0684H278.967C277.454 64.0684 276.227 65.2848 276.227 66.7855V98.5242C276.227 100.025 277.454 101.241 278.967 101.241H329.853C331.367 101.241 332.594 100.025 332.594 98.5242V66.7855C332.594 65.2848 331.367 64.0684 329.853 64.0684Z" fill="white" stroke="#00B4CC" stroke-width="2.41935" stroke-linecap="round" stroke-linejoin="round"/>
<path d="M297.173 83.3334C297.25 86.2037 296.64 89.0511 295.394 91.6431C294.112 94.1128 292.261 95.6479 290.196 95.6479C286.299 95.6479 283.077 90.1434 283.077 83.2982C283.077 76.4528 286.227 70.9482 290.196 70.9482C292.368 70.9482 294.308 72.7128 295.536 75.3415C296.671 77.8528 297.23 80.5821 297.173 83.3334Z" stroke="#00B4CC" stroke-width="2.41935" stroke-linecap="round" stroke-linejoin="round"/>
<path d="M290.128 91.327C288.722 91.327 286.568 88.1337 286.568 83.335C286.568 78.5363 288.686 75.3428 290.128 75.3428C291.57 75.3428 293.688 78.5363 293.688 83.335C293.688 88.1337 291.534 91.327 290.128 91.327Z" fill="#00B4CC"/>
<path d="M307.711 83.7056C307.711 90.5156 304.561 95.6495 300.592 95.6495H289.913C291.978 95.6495 293.829 94.1146 295.11 91.6446C296.357 89.053 296.967 86.2056 296.89 83.3353C296.936 80.6078 296.377 77.9037 295.253 75.4137C293.953 72.732 292.013 71.0208 289.913 71.0208H300.592C304.615 71.0208 307.711 76.9133 307.711 83.7056Z" stroke="#00B4CC" stroke-width="2.41935" stroke-linecap="round" stroke-linejoin="round"/>
<path d="M319.689 64.0684V101.241" stroke="#00B4CC" stroke-width="2.41935" stroke-linecap="round" stroke-linejoin="round"/>
<path d="M294.807 58.4578H285.943V64.0681H294.807V58.4578Z" fill="white" stroke="#00B4CC" stroke-width="2.41935" stroke-linecap="round" stroke-linejoin="round"/>
<path d="M292.474 60.751H288.291V64.0855H292.474V60.751Z" fill="#00B4CC"/>
<path d="M313.761 61.2268H307.621V64.0671H313.761V61.2268Z" fill="white" stroke="#00B4CC" stroke-width="2.41935" stroke-linecap="round" stroke-linejoin="round"/>
<path d="M322.875 61.2268H316.734V64.0671H322.875V61.2268Z" fill="white" stroke="#00B4CC" stroke-width="2.41935" stroke-linecap="round" stroke-linejoin="round"/>
<text fill="#404366" xml:space="preserve" style="white-space: pre" font-family="Titillium Web" font-size="20" font-weight="600" letter-spacing="0px"><tspan x="80" y="183.45">Incognito</tspan></text>
<text fill="#212529" xml:space="preserve" style="white-space: pre" font-family="Titillium Web" font-size="40" font-weight="600" letter-spacing="0px"><tspan x="386" y="65.9">Jurnalisti </tspan><tspan x="386" y="107.9">eficienti</tspan></text>
</svg>
