<svg width="496" height="351" viewBox="0 0 496 351" fill="none" xmlns="http://www.w3.org/2000/svg">
<g clip-path="url(#clip0)">
<path d="M27.6465 24.3374C32.7016 29.6531 36.9489 35.8026 40.2061 43.1247C48.9613 62.7719 42.004 81.5331 65.8725 89.5066C100.424 101.076 128.149 77.3639 159.574 68.1397C197.227 57.0914 214.321 75.1491 238.398 102.066C249.55 114.548 258.748 116.919 271.907 126.534C283.112 134.716 283.868 143.784 292.414 152.93C312.921 174.896 337.806 185.319 363.941 195.69C395.314 208.145 412.147 220.262 426.036 249.498C439.039 276.858 462.256 295.567 477.056 321.547C482.476 331.031 487.114 339.969 491.596 348.542" stroke="#1B771B" stroke-width="9.77642" stroke-miterlimit="10" stroke-linejoin="round" stroke-dasharray="12.22 12.22"/>
<path d="M24.3637 43.8284C35.1138 43.8284 43.8285 35.1137 43.8285 24.3636C43.8285 13.6135 35.1138 4.8988 24.3637 4.8988C13.6136 4.8988 4.89893 13.6135 4.89893 24.3636C4.89893 35.1137 13.6136 43.8284 24.3637 43.8284Z" fill="white" stroke="#1B771B" stroke-width="9.77642" stroke-miterlimit="10" stroke-linecap="round" stroke-linejoin="round"/>
</g>
<defs>
<clipPath id="clip0">
<rect width="496" height="350.835" fill="white"/>
</clipPath>
</defs>
</svg>
