<svg width="789" height="425" viewBox="0 0 789 425" fill="none" xmlns="http://www.w3.org/2000/svg">
<g clip-path="url(#clip0)">
<path d="M765.237 286.562C761.95 288.762 758.59 290.887 755.377 292.938C740.945 302.205 723.128 316.464 706.076 319.108C690.631 321.505 672.418 315.871 654.625 319.009C632.088 322.963 617.582 325.929 594.822 325.929C582.293 325.929 569.789 325.731 557.259 326.201C548.289 326.547 539.689 323.952 531.114 327.09C512.036 334.108 499.754 354.274 490.215 371.028C478.131 392.281 463.205 416.128 439.036 419.86C419.539 422.85 400.782 411.186 386.301 397.792C362.478 375.748 344.463 347.478 334.578 316.563C324.743 285.846 322.593 252.311 306.826 224.189C290.516 195.102 261.727 175.53 234.024 156.996C188.331 126.427 142.737 95.6853 97.1187 64.9681C79.2765 52.9333 61.4343 40.9231 43.5921 28.8883C30.4452 20.0661 14.8024 13.9127 3.08887 3.45947" stroke="#00B4CC" stroke-width="9.27176" stroke-miterlimit="10" stroke-linejoin="round" stroke-dasharray="11.59 11.59"/>
<path d="M765.237 305.022C775.432 305.022 783.697 296.757 783.697 286.562C783.697 276.367 775.432 268.102 765.237 268.102C755.042 268.102 746.777 276.367 746.777 286.562C746.777 296.757 755.042 305.022 765.237 305.022Z" fill="white" stroke="#00B4CC" stroke-width="9.27176" stroke-miterlimit="10" stroke-linecap="round" stroke-linejoin="round"/>
</g>
<defs>
<clipPath id="clip0">
<rect width="788.318" height="425" fill="white"/>
</clipPath>
</defs>
</svg>
