<svg width="1200" height="1000" viewBox="0 0 1200 1000" fill="none" xmlns="http://www.w3.org/2000/svg">
<g id="segment-participation-02-date-deschise">
<g id="Group 1169">
<g id="Group 1117">
<path id="Vector" d="M562.294 558.869C560.749 570.237 557.632 580.977 552.34 590.616C548.228 598.082 544.142 605.285 540.291 612.358" stroke="#C8CEDB" stroke-width="9.82781" stroke-miterlimit="10" stroke-linecap="round" stroke-linejoin="round"/>
<path id="Vector_2" d="M560.514 504.516C563.369 522.983 564.652 541.659 562.321 558.895" stroke="#C8CEDB" stroke-width="9.82781" stroke-miterlimit="10" stroke-linecap="round" stroke-linejoin="round"/>
<path id="Vector_3" d="M478.158 239.745C479.992 244.25 481.878 248.756 483.083 253.366C486.567 266.646 493.01 279.482 498.354 292.945C502.676 303.842 514.097 311.15 517.79 322.65C524.81 344.496 531.647 367.704 534.947 390.44C537.41 407.44 542.544 423.602 546.551 440.419C551.083 459.41 557.003 481.806 560.513 504.516" stroke="#C8CEDB" stroke-width="9.82781" stroke-miterlimit="10" stroke-linecap="round" stroke-linejoin="round"/>
<path id="Vector_4" d="M479.704 179C475.749 187.094 473.208 195.764 472.841 204.094C472.527 211.455 471.898 219.889 473.68 226.962C474.754 231.284 476.456 235.501 478.159 239.744" stroke="#00B4CC" stroke-width="9.82781" stroke-miterlimit="10" stroke-linecap="round" stroke-linejoin="round"/>
<path id="Vector_5" d="M537.436 634.177C548.243 634.177 557.003 625.417 557.003 614.61C557.003 603.803 548.243 595.043 537.436 595.043C526.63 595.043 517.869 603.803 517.869 614.61C517.869 625.417 526.63 634.177 537.436 634.177Z" fill="white" stroke="#00B4CC" stroke-width="9.82781" stroke-miterlimit="10" stroke-linecap="round" stroke-linejoin="round"/>
<path id="Vector_6" d="M563.526 550.565C568.951 550.565 573.349 546.168 573.349 540.743C573.349 535.318 568.951 530.92 563.526 530.92C558.101 530.92 553.703 535.318 553.703 540.743C553.703 546.168 558.101 550.565 563.526 550.565Z" fill="#404366"/>
<path id="Vector_7" d="M517.267 336.14C522.692 336.14 527.09 331.742 527.09 326.317C527.09 320.892 522.692 316.494 517.267 316.494C511.842 316.494 507.444 320.892 507.444 326.317C507.444 331.742 511.842 336.14 517.267 336.14Z" fill="#404366"/>
<path id="Vector_8" d="M492.591 292.5C498.016 292.5 502.414 288.102 502.414 282.677C502.414 277.252 498.016 272.854 492.591 272.854C487.166 272.854 482.769 277.252 482.769 282.677C482.769 288.102 487.166 292.5 492.591 292.5Z" fill="#404366"/>
<path id="Vector_9" d="M476.823 249.096C482.248 249.096 486.646 244.698 486.646 239.273C486.646 233.848 482.248 229.45 476.823 229.45C471.398 229.45 467 233.848 467 239.273C467 244.698 471.398 249.096 476.823 249.096Z" fill="#404366"/>
</g>
<text class="btn-project" cursor="pointer" cursor="pointer" projectid="4" id="Banii din politica" fill="#1E1E1E" xml:space="preserve" style="white-space: pre" font-family="Titillium Web" font-size="20" font-weight="600" letter-spacing="0px"><tspan x="396" y="548.45">Banii din politica</tspan></text>
<text class="btn-project" cursor="pointer" cursor="pointer" projectid="3" id="Declaratii de avere" fill="#1E1E1E" xml:space="preserve" style="white-space: pre" font-family="Titillium Web" font-size="20" font-weight="600" letter-spacing="0px"><tspan x="320" y="338.45">Declaratii de avere&#13;</tspan></text>
<text class="btn-project" cursor="pointer" cursor="pointer" projectid="2" id="Data Scientists Hub" fill="#1E1E1E" xml:space="preserve" style="white-space: pre" font-family="Titillium Web" font-size="20" font-weight="600" letter-spacing="0px"><tspan x="527" y="275.45">Data Scientists Hub&#13;</tspan></text>
<text class="btn-project" cursor="pointer" cursor="pointer" projectid="1" id="Data Portal" fill="#1E1E1E" xml:space="preserve" style="white-space: pre" font-family="Titillium Web" font-size="20" font-weight="600" letter-spacing="0px"><tspan x="345" y="249.45">Data Portal&#13;</tspan></text>
<g id="icon-date-deschise 1">
<path id="Vector_10" d="M549.08 817.574L526.421 794.914V702.927L548.927 680.421L549.08 817.574Z" stroke="#00B4CC" stroke-width="4.06579" stroke-linecap="round" stroke-linejoin="round"/>
<path id="Vector_11" d="M554.331 680.421V817.574" stroke="#00B4CC" stroke-width="4.06579" stroke-linecap="round" stroke-linejoin="round"/>
<path id="Vector_12" d="M554.331 700.565H613.896V803.606H554.331" stroke="#00B4CC" stroke-width="4.06579" stroke-linecap="round" stroke-linejoin="round"/>
<path id="Vector_13" d="M619.421 707.071V809.406H573.305" stroke="#00B4CC" stroke-width="4.06579" stroke-linecap="round" stroke-linejoin="round"/>
<path id="Vector_14" d="M601.645 750.884H554.331" stroke="#00B4CC" stroke-width="4.06579" stroke-linecap="round" stroke-linejoin="round"/>
<path id="Vector_15" d="M601.645 761.695H554.331" stroke="#00B4CC" stroke-width="4.06579" stroke-linecap="round" stroke-linejoin="round"/>
<path id="Vector_16" d="M601.645 772.5H554.331" stroke="#00B4CC" stroke-width="4.06579" stroke-linecap="round" stroke-linejoin="round"/>
<path id="Vector_17" d="M601.645 783.31H554.331" stroke="#00B4CC" stroke-width="4.06579" stroke-linecap="round" stroke-linejoin="round"/>
<path id="Vector_18" d="M554.484 741.154C555.558 739.473 556.473 737.694 557.217 735.843C558.194 733.097 559.767 730.601 561.823 728.535C565.353 726.017 567.288 733.386 570.788 729.61C571.74 728.535 572.477 726.877 574.257 727.307C576.038 727.737 576.836 729.886 578.004 730.869C579.876 732.465 582.363 733.417 584.328 731.483C586.293 729.548 586.692 725.342 587.552 722.487C588.105 720.583 588.473 718.526 590.315 717.513C591.627 716.902 592.97 716.359 594.338 715.885C596.18 715.087 597.654 713.92 599.404 712.969" stroke="#00B4CC" stroke-width="4.06579" stroke-linecap="round" stroke-linejoin="round"/>
<path id="Vector_19" d="M595.751 711.094L600.664 712.538L599.282 717.297" stroke="#00B4CC" stroke-width="4.06579" stroke-linecap="round" stroke-linejoin="round"/>
</g>
<text id="Date deschise" fill="#1E1E1E" xml:space="preserve" style="white-space: pre" font-family="Titillium Web" font-size="40" font-weight="600" letter-spacing="0px"><tspan x="641" y="761.9">Date deschise</tspan></text>
</g>
</g>
</svg>
