<svg width="1200" height="1000" viewBox="0 0 1200 1000" fill="none" xmlns="http://www.w3.org/2000/svg">
<g id="segment-health-02-sprijin-pentru-cei-grav-bolnavi">
<g id="Group 1180">
<g id="Group 1128">
<path id="Vector 1" d="M372.5 512.5L374.5 468.5C374.333 459.667 375.7 439.4 382.5 429" stroke="#C8CEDB" stroke-width="10"/>
<path id="Vector" d="M247.717 660.03C247.435 662.78 247.769 665.504 247.203 668.279C246.073 673.958 242.989 679.817 239.34 684.648C235.896 689.222 232.916 693.488 229.96 698.345C226.979 703.253 223.048 707.262 219.99 712.042C219.219 713.224 218.679 714.92 217.883 716.05C216.341 718.235 214.619 719.057 213 721.113" stroke="#C8CEDB" stroke-width="9.64142" stroke-miterlimit="10" stroke-linecap="round" stroke-linejoin="round"/>
<path id="Vector_2" d="M270.869 595.067C267.914 598.125 265.396 601.568 263.571 605.551C261.49 610.074 260.565 615.83 259.562 620.79C258.971 623.745 259.948 626.366 258.843 629.45C256.633 635.591 253.318 641.502 251.031 647.644C249.772 650.984 248.692 654.813 247.973 658.308C247.844 658.873 247.767 659.464 247.716 660.03" stroke="#C8CEDB" stroke-width="9.64142" stroke-miterlimit="10" stroke-linecap="round" stroke-linejoin="round"/>
<path id="Vector_3" d="M371.5 514C369.316 522.994 365.334 526.583 358.087 532.597C354.412 535.655 349.838 537.171 345.444 538.969C342.617 540.126 339.842 541.385 337.401 543.261C326.813 551.381 318.693 561.121 308.26 569.395C305.793 571.348 303.223 573.198 300.448 574.946C290.683 581.088 279.093 586.587 270.87 595.093" stroke="#C8CEDB" stroke-width="9.64142" stroke-miterlimit="10" stroke-linecap="round" stroke-linejoin="round"/>
<path id="Vector_4" d="M379.442 434.278C387.614 420.479 412.232 405.266 426.571 400.229C441.373 395.038 456.124 401.437 469.769 409.943C478.712 415.519 487.192 421.995 494.901 426.672C497.933 428.522 501.402 431.452 504.949 434.484C510.396 439.109 516.05 443.915 520.701 445.251C526.329 446.87 532.985 445.791 539.794 443.427C552.566 438.981 565.903 429.91 573.946 425.31C589.75 416.29 612.749 420.967 626.395 408.041C628.682 405.883 629.684 403.056 631.714 400.717C635.928 395.809 644.974 386.764 655.741 378.9C660.547 375.405 665.686 372.142 670.903 369.572C685.961 362.171 698.784 369.726 708.061 367.465C709.937 367.002 718.083 365.743 720.678 365.126C723.531 364.433 736.611 360.527 746.813 357.006" stroke="#F90000" stroke-width="9.64142" stroke-miterlimit="10" stroke-linejoin="round" stroke-dasharray="12.05 12.05"/>
<path id="Vector_5" d="M756.012 369.392C766.614 369.392 775.208 360.798 775.208 350.196C775.208 339.594 766.614 331 756.012 331C745.411 331 736.816 339.594 736.816 350.196C736.816 360.798 745.411 369.392 756.012 369.392Z" fill="white" stroke="#F90000" stroke-width="9.64142" stroke-miterlimit="10" stroke-linecap="round" stroke-linejoin="round"/>
<path id="Vector_6" d="M247.255 672.159C252.577 672.159 256.891 667.845 256.891 662.523C256.891 657.2 252.577 652.886 247.255 652.886C241.933 652.886 237.618 657.2 237.618 662.523C237.618 667.845 241.933 672.159 247.255 672.159Z" fill="#404366"/>
<path id="Vector_7" d="M269.893 605.166C275.215 605.166 279.53 600.852 279.53 595.53C279.53 590.208 275.215 585.893 269.893 585.893C264.571 585.893 260.257 590.208 260.257 595.53C260.257 600.852 264.571 605.166 269.893 605.166Z" fill="#404366"/>
<path id="Vector_8" d="M320.055 567.776C325.378 567.776 329.692 563.462 329.692 558.14C329.692 552.818 325.378 548.503 320.055 548.503C314.733 548.503 310.419 552.818 310.419 558.14C310.419 563.462 314.733 567.776 320.055 567.776Z" fill="#404366"/>
<path id="Vector_9" d="M371.863 520.416C377.185 520.416 381.5 516.102 381.5 510.78C381.5 505.458 377.185 501.143 371.863 501.143C366.541 501.143 362.227 505.458 362.227 510.78C362.227 516.102 366.541 520.416 371.863 520.416Z" fill="#404366"/>
<path id="Vector_10" d="M373.506 478.658C378.828 478.658 383.142 474.343 383.142 469.021C383.142 463.699 378.828 459.385 373.506 459.385C368.184 459.385 363.869 463.699 363.869 469.021C363.869 474.343 368.184 478.658 373.506 478.658Z" fill="#404366"/>
<path id="Vector_11" d="M383.143 440.24C388.465 440.24 392.78 435.925 392.78 430.603C392.78 425.281 388.465 420.967 383.143 420.967C377.821 420.967 373.507 425.281 373.507 430.603C373.507 435.925 377.821 440.24 383.143 440.24Z" fill="#404366"/>
</g>
<text id="Sprijin pentru cei grav bolnavi" fill="#1E1E1E" xml:space="preserve" style="white-space: pre" font-family="Titillium Web" font-size="40" font-weight="600" letter-spacing="0px"><tspan x="812" y="452.9">Sprijin pentru &#10;</tspan><tspan x="812" y="494.9">cei&#13;grav bolnavi</tspan></text>
<text class="btn-project" cursor="pointer" projectid="1" id="Prim ajutor" fill="#1E1E1E" xml:space="preserve" style="white-space: pre" font-family="Titillium Web" font-size="20" font-weight="600" letter-spacing="0px"><tspan x="124" y="660.45">Prim ajutor&#13;</tspan></text>
<g id="icon-sprijin-pentru-cei-grav-bolnavi 1">
<path id="Vector_12" d="M872.455 333.473V345.519C872.455 349.278 870.962 352.883 868.304 355.541C865.646 358.199 862.041 359.692 858.282 359.692H830.243C826.484 359.692 822.879 358.199 820.221 355.541C817.564 352.883 816.07 349.278 816.07 345.519V333.473H872.455Z" stroke="#F90000" stroke-width="3" stroke-linecap="round" stroke-linejoin="round"/>
<path id="Vector_13" d="M872.455 298.371V333.472H816V298.371C816 296.654 816.682 295.008 817.896 293.794C819.109 292.58 820.756 291.898 822.472 291.898H866.007C867.719 291.905 869.359 292.589 870.568 293.802C871.777 295.016 872.455 296.658 872.455 298.371Z" stroke="#F90000" stroke-width="3" stroke-linecap="round" stroke-linejoin="round"/>
<path id="Vector_14" d="M849.875 322.154H860.67V333.446H849.875V344.24H838.584V333.446H827.789V322.154H838.584V311.359H849.875V322.154Z" fill="white" stroke="#F90000" stroke-width="3" stroke-linecap="round" stroke-linejoin="round"/>
<path id="Vector_15" d="M844.605 282C845.253 282 845.895 282.128 846.494 282.376C847.093 282.624 847.637 282.988 848.096 283.446C848.554 283.904 848.918 284.449 849.166 285.048C849.414 285.647 849.542 286.289 849.542 286.937V291.897H839.668V286.961C839.665 286.31 839.79 285.666 840.037 285.064C840.284 284.462 840.647 283.915 841.106 283.454C841.564 282.993 842.11 282.628 842.71 282.378C843.311 282.128 843.955 282 844.605 282Z" fill="white" stroke="#F90000" stroke-width="3" stroke-linecap="round" stroke-linejoin="round"/>
<path id="Vector_16" d="M839.926 359.738V382.155" stroke="#F90000" stroke-width="3" stroke-linecap="round" stroke-linejoin="round"/>
<path id="Vector_17" d="M833.195 359.738V382.155" stroke="#F90000" stroke-width="3" stroke-linecap="round" stroke-linejoin="round"/>
<path id="Vector_18" d="M852 359.74V371.882C851.997 373.412 852.296 374.928 852.88 376.342C853.464 377.756 854.322 379.041 855.404 380.123C856.486 381.205 857.771 382.063 859.185 382.647C860.6 383.231 862.115 383.53 863.646 383.527H879.07C882.142 383.502 885.08 382.264 887.244 380.083C889.407 377.902 890.621 374.954 890.621 371.882V329.363C890.621 327.387 891.404 325.492 892.799 324.093C894.194 322.694 896.086 321.905 898.062 321.898C900.038 321.905 901.93 322.694 903.325 324.093C904.72 325.492 905.503 327.387 905.503 329.363V346.536" stroke="#F90000" stroke-width="3" stroke-linecap="round" stroke-linejoin="round"/>
<path id="Vector_19" d="M894.256 348.777H886.957V360.612H894.256V348.777Z" fill="white" stroke="#F90000" stroke-width="3" stroke-linecap="round" stroke-linejoin="round"/>
<path id="Vector_20" d="M912.002 377.149C911.903 378.776 911.187 380.304 909.999 381.422C908.812 382.539 907.243 383.161 905.612 383.161C903.982 383.161 902.413 382.539 901.225 381.422C900.038 380.304 899.321 378.776 899.223 377.149C899.223 373.606 905.6 364.086 905.6 364.086C905.6 364.086 912.002 373.606 912.002 377.149Z" fill="#F90000" stroke="#F90000" stroke-width="3" stroke-linecap="round" stroke-linejoin="round"/>
</g>
<text class="btn-project" cursor="pointer" projectid="2" id="Asistent comunitar" fill="#1E1E1E" xml:space="preserve" style="white-space: pre" font-family="Titillium Web" font-size="20" font-weight="600" letter-spacing="0px"><tspan x="292" y="618.45">Asistent comunitar</tspan></text>
<text class="btn-project" cursor="pointer" projectid="3" id="Smove" fill="#1E1E1E" xml:space="preserve" style="white-space: pre" font-family="Titillium Web" font-size="20" font-weight="600" letter-spacing="0px"><tspan x="239" y="547.45">Smove&#13;</tspan></text>
<text class="btn-project" cursor="pointer" projectid="4" id="RecuperApp" fill="#1E1E1E" xml:space="preserve" style="white-space: pre" font-family="Titillium Web" font-size="20" font-weight="600" letter-spacing="0px"><tspan x="399" y="520.45">RecuperApp</tspan></text>
<text class="btn-project" cursor="pointer" projectid="5" id="Ac&#200;&#155;iuni prioritare" fill="#1E1E1E" xml:space="preserve" style="white-space: pre" font-family="Titillium Web" font-size="20" font-weight="600" letter-spacing="0px"><tspan x="208" y="468.45">Ac&#x21b;iuni prioritare</tspan></text>
<text class="btn-project" cursor="pointer" projectid="6" id="S&#196;&#131;n&#196;&#131;tos" fill="#1E1E1E" xml:space="preserve" style="white-space: pre" font-family="Titillium Web" font-size="20" font-weight="600" letter-spacing="0px"><tspan x="292" y="420.45">S&#x103;n&#x103;tos</tspan></text>
</g>
</g>
</svg>
