<svg viewBox="0 0 1200 1000" fill="none" xmlns="http://www.w3.org/2000/svg">
<g id="segment-participation-08-jurnalisti-eficienti">
<g id="Group 1159">
<path id="Vector" d="M375.762 562.086C402.091 540.513 426.17 516.712 434.915 481.452C435.402 478.436 434.312 473.17 435.217 469.737C436.191 466.118 438.673 462.616 439.717 458.881C442.339 449.486 443.707 435.358 449.507 427.286C456.443 417.636 469.062 426.613 478.341 424.177C483.653 422.762 488.107 420.164 493.907 419.584C498.43 419.143 503.348 419.074 507.477 416.87C512.488 414.179 515.132 411.535 520.653 410.444C524.945 409.609 530.559 410.236 534.804 408.821" stroke="#00B4CC" stroke-width="8.70347" stroke-miterlimit="10" stroke-linejoin="round" stroke-dasharray="10.88 10.88"/>
<path id="Vector_2" d="M327 606.278C330.364 604.027 333.588 601.731 336.372 599.388C339.155 597.045 338.808 591.733 341.661 589.367C352.772 580.18 364.487 571.342 375.784 562.063" stroke="#00B4CC" stroke-width="8.70347" stroke-miterlimit="10" stroke-linecap="round" stroke-linejoin="round"/>
<path id="Vector_3" d="M375.762 570.646C380.566 570.646 384.461 566.751 384.461 561.947C384.461 557.143 380.566 553.248 375.762 553.248C370.957 553.248 367.062 557.143 367.062 561.947C367.062 566.751 370.957 570.646 375.762 570.646Z" fill="white" stroke="#00B4CC" stroke-width="4.6395" stroke-miterlimit="10" stroke-linecap="round" stroke-linejoin="round"/>
<path id="Vector_4" d="M541.299 427.657C550.87 427.657 558.628 419.899 558.628 410.329C558.628 400.758 550.87 393 541.299 393C531.729 393 523.971 400.758 523.971 410.329C523.971 419.899 531.729 427.657 541.299 427.657Z" fill="white" stroke="#00B4CC" stroke-width="8.70347" stroke-miterlimit="10" stroke-linecap="round" stroke-linejoin="round"/>
<g id="icon-jurnalisti-eficienti 1">
<path id="Vector_5" d="M679.596 500.8H609.043L615.308 411.865H685.861L679.596 500.8Z" stroke="#00B4CC" stroke-width="2.41935" stroke-linecap="round" stroke-linejoin="round"/>
<path id="Vector_6" d="M661.943 432.225H620.277L621.043 421.463H662.708L661.943 432.225Z" fill="white" stroke="#00B4CC" stroke-width="2.41935" stroke-linecap="round" stroke-linejoin="round"/>
<path id="Vector_7" d="M674.223 480.828H638.751L640.139 461.033H675.612L674.223 480.828Z" fill="white" stroke="#00B4CC" stroke-width="2.41935" stroke-linecap="round" stroke-linejoin="round"/>
<path id="Vector_8" d="M677.642 432.225H666.803L667.55 421.463H678.407L677.642 432.225Z" fill="white" stroke="#00B4CC" stroke-width="2.41935" stroke-linecap="round" stroke-linejoin="round"/>
<path id="Vector_9" d="M619.849 438.364H638.448" stroke="#00B4CC" stroke-width="2.41935" stroke-linecap="round" stroke-linejoin="round"/>
<path id="Vector_10" d="M619.332 445.474H637.949" stroke="#00B4CC" stroke-width="2.41935" stroke-linecap="round" stroke-linejoin="round"/>
<path id="Vector_11" d="M618.837 452.584H637.454" stroke="#00B4CC" stroke-width="2.41935" stroke-linecap="round" stroke-linejoin="round"/>
<path id="Vector_12" d="M618.054 463.821H636.653" stroke="#00B4CC" stroke-width="2.41935" stroke-linecap="round" stroke-linejoin="round"/>
<path id="Vector_13" d="M617.537 470.931H636.154" stroke="#00B4CC" stroke-width="2.41935" stroke-linecap="round" stroke-linejoin="round"/>
<path id="Vector_14" d="M617.036 478.041H635.653" stroke="#00B4CC" stroke-width="2.41935" stroke-linecap="round" stroke-linejoin="round"/>
<path id="Vector_15" d="M642.899 438.364H661.517" stroke="#00B4CC" stroke-width="2.41935" stroke-linecap="round" stroke-linejoin="round"/>
<path id="Vector_16" d="M642.398 445.474H661.016" stroke="#00B4CC" stroke-width="2.41935" stroke-linecap="round" stroke-linejoin="round"/>
<path id="Vector_17" d="M641.9 452.584H660.5" stroke="#00B4CC" stroke-width="2.41935" stroke-linecap="round" stroke-linejoin="round"/>
<path id="Vector_18" d="M666.358 438.364H677.215" stroke="#00B4CC" stroke-width="2.41935" stroke-linecap="round" stroke-linejoin="round"/>
<path id="Vector_19" d="M665.858 445.474H676.715" stroke="#00B4CC" stroke-width="2.41935" stroke-linecap="round" stroke-linejoin="round"/>
<path id="Vector_20" d="M665.36 452.584H676.217" stroke="#00B4CC" stroke-width="2.41935" stroke-linecap="round" stroke-linejoin="round"/>
<path id="Vector_21" d="M616.469 486.121H673.851" stroke="#00B4CC" stroke-width="2.41935" stroke-linecap="round" stroke-linejoin="round"/>
<path id="Vector_22" d="M616.04 492.349H673.404" stroke="#00B4CC" stroke-width="2.41935" stroke-linecap="round" stroke-linejoin="round"/>
<path id="Vector_23" d="M687.378 416.662H692.415L685.866 505.422H618.837" stroke="#00B4CC" stroke-width="2.41935" stroke-linecap="round" stroke-linejoin="round"/>
<path id="Vector_24" d="M652.493 452.707H601.607C600.093 452.707 598.866 453.924 598.866 455.424V487.163C598.866 488.664 600.093 489.88 601.607 489.88H652.493C654.006 489.88 655.234 488.664 655.234 487.163V455.424C655.234 453.924 654.006 452.707 652.493 452.707Z" fill="white" stroke="#00B4CC" stroke-width="2.41935" stroke-linecap="round" stroke-linejoin="round"/>
<path id="Vector_25" d="M619.813 471.972C619.89 474.843 619.28 477.69 618.033 480.282C616.752 482.752 614.901 484.287 612.836 484.287C608.938 484.287 605.717 478.782 605.717 471.937C605.717 465.092 608.867 459.587 612.836 459.587C615.008 459.587 616.948 461.352 618.176 463.98C619.31 466.492 619.869 469.221 619.813 471.972Z" stroke="#00B4CC" stroke-width="2.41935" stroke-linecap="round" stroke-linejoin="round"/>
<path id="Vector_26" d="M612.768 479.966C611.362 479.966 609.208 476.773 609.208 471.974C609.208 467.175 611.326 463.982 612.768 463.982C614.209 463.982 616.327 467.175 616.327 471.974C616.327 476.773 614.174 479.966 612.768 479.966Z" fill="#00B4CC"/>
<path id="Vector_27" d="M630.351 472.345C630.351 479.155 627.201 484.288 623.232 484.288H612.553C614.617 484.288 616.468 482.754 617.75 480.284C618.996 477.692 619.606 474.845 619.53 471.974C619.576 469.247 619.017 466.543 617.892 464.053C616.593 461.371 614.653 459.66 612.553 459.66H623.232C627.254 459.66 630.351 465.552 630.351 472.345Z" stroke="#00B4CC" stroke-width="2.41935" stroke-linecap="round" stroke-linejoin="round"/>
<path id="Vector_28" d="M642.329 452.707V489.88" stroke="#00B4CC" stroke-width="2.41935" stroke-linecap="round" stroke-linejoin="round"/>
<path id="Vector_29" d="M617.447 447.097H608.583V452.707H617.447V447.097Z" fill="white" stroke="#00B4CC" stroke-width="2.41935" stroke-linecap="round" stroke-linejoin="round"/>
<path id="Vector_30" d="M615.113 449.39H610.931V452.725H615.113V449.39Z" fill="#00B4CC"/>
<path id="Vector_31" d="M636.401 449.866H630.261V452.706H636.401V449.866Z" fill="white" stroke="#00B4CC" stroke-width="2.41935" stroke-linecap="round" stroke-linejoin="round"/>
<path id="Vector_32" d="M645.514 449.866H639.374V452.706H645.514V449.866Z" fill="white" stroke="#00B4CC" stroke-width="2.41935" stroke-linecap="round" stroke-linejoin="round"/>
</g>
<text class="btn-project" text-decoration="underline" cursor="pointer" data-projectid="1" id="Incognito" fill="#404366" xml:space="preserve" style="white-space: pre" font-family="Titillium Web" font-size="20" font-weight="600" letter-spacing="0px"><tspan x="402.64" y="572.089">Incognito</tspan></text>
<text id="Jurnalisti eficienti" fill="#212529" xml:space="preserve" style="white-space: pre" font-family="Titillium Web" font-size="40" font-weight="600" letter-spacing="0px"><tspan x="708.64" y="454.539">Jurnalisti </tspan><tspan x="708.64" y="496.539">eficienti</tspan></text>
</g>
</g>
</svg>
