<svg width="588" height="202" viewBox="0 0 588 202" fill="none" xmlns="http://www.w3.org/2000/svg">
<path d="M511.952 178.571C472.499 171.276 435.115 155.701 395.48 150.061C383.372 148.354 378.095 145.068 367.565 148.509C354.164 152.907 341.668 161.91 328.422 167.214C311.761 173.863 296.187 174.768 278.543 177.588C255.517 181.288 232.492 185.065 209.312 187.6C208.199 187.73 207.112 187.859 206 188.04" stroke="#7937C4" stroke-width="9.70659" stroke-miterlimit="10" stroke-linejoin="round" stroke-dasharray="12.13 12.13"/>
<path d="M512.961 196.241C523.634 196.241 532.286 187.589 532.286 176.916C532.286 166.242 523.634 157.59 512.961 157.59C502.287 157.59 493.635 166.242 493.635 176.916C493.635 187.589 502.287 196.241 512.961 196.241Z" fill="white" stroke="#7937C4" stroke-width="9.70659" stroke-miterlimit="10" stroke-linecap="round" stroke-linejoin="round"/>
<text fill="#1E1E1E" xml:space="preserve" style="white-space: pre" font-family="Titillium Web" font-size="40" font-weight="600" letter-spacing="0px"><tspan x="200.18" y="56.9">&#x218;anse pentru&#x2028;</tspan><tspan x="0.765625" y="98.9">persoanele cu dizabilit&#x103;&#x21b;i</tspan></text>
<path d="M513.682 48.3469C513.28 48.3426 512.896 48.179 512.614 47.8921L506.634 41.9122C506.241 41.5219 505.71 41.3014 505.156 41.2983H496.197C495.999 41.3014 495.803 41.2647 495.619 41.1903C495.436 41.116 495.269 41.0056 495.129 40.8656C494.989 40.7256 494.879 40.559 494.804 40.3755C494.73 40.1921 494.693 39.9956 494.696 39.7976V29.2246C494.693 29.0256 494.73 28.828 494.804 28.6433C494.878 28.4586 494.988 28.2905 495.128 28.1487C495.268 28.0069 495.434 27.8944 495.618 27.8175C495.801 27.7407 495.998 27.7011 496.197 27.7012C496.648 27.725 497.079 27.8957 497.424 28.1872C497.768 28.4786 498.009 28.8749 498.107 29.3155L499.653 34.2951C499.829 34.9874 500.191 35.6183 500.7 36.1193C501.209 36.6204 501.846 36.9725 502.541 37.1373L506.679 38.1151C507.101 38.1164 507.51 38.2607 507.839 38.5243L513.728 44.6179L514.456 43.8905C514.595 43.7487 514.762 43.6364 514.945 43.5594C515.128 43.4828 515.325 43.4433 515.524 43.4433C515.723 43.4433 515.92 43.4828 516.104 43.5594C516.287 43.6364 516.453 43.7487 516.593 43.8905C516.868 44.1782 517.022 44.5611 517.022 44.959C517.022 45.3574 516.868 45.7398 516.593 46.0276L514.796 47.8012C514.66 47.9653 514.49 48.0986 514.298 48.1929C514.106 48.2867 513.896 48.3393 513.682 48.3469Z" stroke="#7937C4" stroke-width="2.89224" stroke-miterlimit="10"/>
<path d="M504.085 36.2509H496.945C496.547 36.2509 496.165 36.0928 495.884 35.8114C495.602 35.5299 495.444 35.1482 495.444 34.7502C495.444 34.3522 495.602 33.9705 495.884 33.6891C496.165 33.4076 496.547 33.2495 496.945 33.2495H504.085C504.483 33.2495 504.864 33.4076 505.146 33.6891C505.427 33.9705 505.585 34.3522 505.585 34.7502C505.585 35.1482 505.427 35.5299 505.146 35.8114C504.864 36.0928 504.483 36.2509 504.085 36.2509Z" fill="white" stroke="#7937C4" stroke-width="2.89224" stroke-miterlimit="10"/>
<path d="M508.113 45.3465C508.115 47.3528 507.573 49.3225 506.544 51.0452C505.516 52.7679 504.04 54.1798 502.273 55.1301C500.506 56.0804 498.514 56.5339 496.509 56.4422C494.505 56.3505 492.563 55.717 490.89 54.6089C489.217 53.5012 487.876 51.9606 487.01 50.1508C486.143 48.3414 485.783 46.3305 485.968 44.3327C486.154 42.3348 486.877 40.4246 488.062 38.8054C489.247 37.1861 490.849 35.9184 492.697 35.1372" stroke="#7937C4" stroke-width="2.89224" stroke-linecap="round" stroke-linejoin="round"/>
<path d="M505.134 45.3436C505.126 46.805 504.724 48.2375 503.97 49.4895C503.216 50.741 502.138 51.7662 500.85 52.4562C499.561 53.1461 498.111 53.4759 496.651 53.4099C495.191 53.3438 493.776 52.8853 492.555 52.0818C491.334 51.2787 490.353 50.1605 489.714 48.8458C489.076 47.5312 488.805 46.0684 488.929 44.6124C489.053 43.156 489.567 41.7603 490.419 40.5724C491.27 39.3845 492.426 38.4485 493.765 37.863" stroke="#7937C4" stroke-width="2.89224" stroke-linecap="round" stroke-linejoin="round"/>
<path d="M496.787 26.5642C498.005 26.5642 498.992 25.5767 498.992 24.3586C498.992 23.1405 498.005 22.1531 496.787 22.1531C495.568 22.1531 494.581 23.1405 494.581 24.3586C494.581 25.5767 495.568 26.5642 496.787 26.5642Z" stroke="#7937C4" stroke-width="2.89224" stroke-miterlimit="10"/>
<path d="M539.539 38.5248C539.931 38.6604 540.306 38.8436 540.653 39.0705C541.118 37.3934 542.067 35.8906 543.382 34.7503C544.565 33.6517 546.073 32.9657 547.679 32.7949C548.914 32.6398 550.167 32.7635 551.348 33.157C552.528 33.5505 553.606 34.2038 554.5 35.0686C555.416 36.1011 555.978 37.3989 556.105 38.773C556.232 40.1472 555.917 41.526 555.205 42.7086C554.5 43.7999 553.477 44.664 552.75 45.7552C551.975 47.1767 551.43 48.7114 551.135 50.3029C550.825 51.9373 550.033 53.4421 548.862 54.623C548.207 55.1989 547.409 55.5855 546.552 55.742C545.694 55.8981 544.811 55.8177 543.995 55.5098" stroke="#7937C4" stroke-width="2.89224" stroke-linecap="round" stroke-linejoin="round"/>
<path d="M544.428 38.525C545.018 37.4504 545.993 36.6383 547.156 36.2512C547.742 36.0672 548.363 36.0207 548.971 36.1153C549.578 36.21 550.155 36.4432 550.658 36.7969C551.16 37.1624 551.55 37.6596 551.787 38.2335C552.024 38.8073 552.097 39.4355 551.999 40.0485" stroke="#7937C4" stroke-width="2.89224" stroke-linecap="round" stroke-linejoin="round"/>
<path d="M541.948 42.5476C541.855 42.898 541.889 43.2699 542.042 43.5985C542.196 43.9266 542.461 44.1904 542.789 44.344C543.407 44.4929 544.041 44.5614 544.676 44.5484C545.187 44.633 545.659 44.8723 546.03 45.2341C546.4 45.5963 546.65 46.0633 546.745 46.5719C546.802 47.1924 546.802 47.8163 546.745 48.4364C546.707 48.7452 546.739 49.0582 546.837 49.3535C546.935 49.6484 547.098 49.9177 547.314 50.1419" stroke="#7937C4" stroke-width="2.89224" stroke-linecap="round" stroke-linejoin="round"/>
<path d="M561.545 24.3521L554.069 31.8283L556.674 34.433L564.15 26.9567L561.545 24.3521Z" fill="#7937C4" stroke="#7937C4" stroke-width="2.89224" stroke-miterlimit="10"/>
<path d="M540.737 45.1594L533.261 52.6355L535.865 55.2404L543.342 47.7639L540.737 45.1594Z" fill="#7937C4" stroke="#7937C4" stroke-width="2.89224" stroke-miterlimit="10"/>
<path d="M477.233 101.144C481.515 101.144 484.987 96.3385 484.987 90.4114C484.987 84.4843 481.515 79.6792 477.233 79.6792C472.951 79.6792 469.479 84.4843 469.479 90.4114C469.479 96.3385 472.951 101.144 477.233 101.144Z" fill="#7937C4" stroke="#7937C4" stroke-width="2.89224" stroke-miterlimit="10"/>
<path d="M497.2 101.144C501.482 101.144 504.953 96.3385 504.953 90.4114C504.953 84.4843 501.482 79.6792 497.2 79.6792C492.918 79.6792 489.446 84.4843 489.446 90.4114C489.446 96.3385 492.918 101.144 497.2 101.144Z" fill="#7937C4" stroke="#7937C4" stroke-width="2.89224" stroke-miterlimit="10"/>
<path d="M504.334 87.4104L516.362 75.3593C516.362 75.3593 519.75 73.3358 519.75 79.27" stroke="#7937C4" stroke-width="2.89224" stroke-linecap="round" stroke-linejoin="round"/>
<path d="M471.028 87.4104L483.057 75.3593C483.057 75.3593 486.445 73.3358 486.445 79.27" stroke="#7937C4" stroke-width="2.89224" stroke-linecap="round" stroke-linejoin="round"/>
<path d="M484.191 90.478H491.604" stroke="#7937C4" stroke-width="2.89224" stroke-linecap="round" stroke-linejoin="round"/>
<path d="M557.022 104.032C557.022 104.032 549.269 73.4498 549.291 73.4271C549.314 73.4044 547.745 68.8798 543.721 69.9938C542.567 70.3043 541.534 70.9572 540.759 71.8667C539.984 72.7758 539.502 73.8987 539.378 75.0871" stroke="#7937C4" stroke-width="2.89224" stroke-linecap="round" stroke-linejoin="round"/>
<path d="M525.599 120.948C557.546 120.948 583.444 95.0504 583.444 63.1036C583.444 31.1568 557.546 5.25879 525.599 5.25879C493.652 5.25879 467.754 31.1568 467.754 63.1036C467.754 95.0504 493.652 120.948 525.599 120.948Z" stroke="#7937C4" stroke-width="2.89224" stroke-linecap="round" stroke-linejoin="round"/>
<path d="M525.6 5.28125V120.948" stroke="#7937C4" stroke-width="2.89224" stroke-linecap="round" stroke-linejoin="round"/>
<path d="M467.774 63.1033H583.441" stroke="#7937C4" stroke-width="2.89224" stroke-linecap="round" stroke-linejoin="round"/>
</svg>
