<svg width="493" height="550" viewBox="0 0 493 550" fill="none" xmlns="http://www.w3.org/2000/svg">
<path d="M21.7051 80.3813C29.4036 85.1189 37.0774 89.659 41.3709 98.3446C42.728 101.083 43.7643 103.995 44.4799 106.956C45.4422 110.953 45.3682 115.123 46.3798 119.096C49.4888 131.039 62.6405 137.676 68.4637 148.385C71.0052 153.048 86.8464 173.677 90.5229 181.005C92.5956 185.126 95.0878 189.616 97.1358 194.058C99.6526 199.486 106.043 224.383 105.352 239.41C104.834 250.711 105.352 262.037 105.352 273.363C105.352 284.565 99.4305 344.623 99.2085 345.758C98.0241 351.779 96.815 358.564 96.4696 364.684C95.7046 378.354 99.1838 388.717 101.429 395.527C107.425 413.786 127.362 418.919 143.968 422.151C160.229 425.31 176.243 432.663 188.605 444.655C191.27 447.221 193.466 450.305 195.292 453.537C196.328 455.388 197.759 457.214 198.648 459.139C199.363 460.668 199.561 462.618 200.202 464.098C203.558 471.895 202.472 481.099 202.472 490.031C202.472 499.753 202.472 509.475 202.472 519.222C202.472 523.762 203.755 530.449 202.571 534.791C201.609 538.345 197.981 542.144 196.328 545.772C196.081 546.315 195.835 546.833 195.613 547.351" stroke="#F90000" stroke-width="9.25772" stroke-miterlimit="10" stroke-linejoin="round" stroke-dasharray="11.57 11.57"/>
<path d="M23.432 96.8641C33.6118 96.8641 41.8641 88.6118 41.8641 78.432C41.8641 68.2523 33.6118 60 23.432 60C13.2523 60 5 68.2523 5 78.432C5 88.6118 13.2523 96.8641 23.432 96.8641Z" fill="white" stroke="#F90000" stroke-width="9.25772" stroke-miterlimit="10" stroke-linecap="round" stroke-linejoin="round"/>
<text fill="#1E1E1E" xml:space="preserve" style="white-space: pre" font-family="Titillium Web" font-size="40" font-weight="600" letter-spacing="0px"><tspan x="191" y="35.9">S&#x103;n&#x103;tate mintal&#x103;&#13;&#x2028;</tspan><tspan x="191" y="77.9">pentru to&#x21b;i</tspan></text>
<path d="M95.8707 52.0047C95.5599 53.3013 95.5614 54.6528 95.8752 55.9485C96.1887 57.2445 96.8052 58.4472 97.6743 59.4582C100.79 62.9166 105.829 62.8869 108.005 63.1401C108.579 63.237 109.098 63.5376 109.468 63.9867C109.837 64.4358 110.032 65.0034 110.017 65.5848V73.1427H117.292L116.368 63.2595C116.368 63.2595 123.821 66.2409 128.055 61.5003C132.288 56.76 129.277 50.6631 129.277 50.6631" stroke="#F90000" stroke-width="2.25" stroke-linecap="round" stroke-linejoin="round"/>
<path d="M130.158 53.3172C131.268 53.4033 132.379 53.1522 133.345 52.5966C134.31 52.041 135.086 51.2064 135.569 50.2026C136.053 49.1988 136.221 48.0726 136.054 46.971C135.886 45.8697 135.39 44.8446 134.63 44.0301C134.63 44.0301 138.058 33.7741 129.144 27.6325C126.616 25.8362 123.685 24.6898 120.61 24.2947C117.534 23.8995 114.409 24.2676 111.509 25.3666C110.914 24.7615 110.175 24.317 109.362 24.0746C108.549 23.8321 107.687 23.7997 106.858 23.9803C105.806 24.2462 104.895 24.903 104.311 25.817C103.727 26.731 103.513 27.8333 103.713 28.8996" stroke="#F90000" stroke-width="2.25" stroke-linecap="round" stroke-linejoin="round"/>
<path d="M85.7979 50.2588C86.0785 51.9901 86.7652 53.6299 87.8016 55.0447C88.838 56.4595 90.1947 57.6085 91.7606 58.3981C93.6344 59.2204 95.6849 59.5588 97.7234 59.3818" stroke="#F90000" stroke-width="2.25" stroke-linecap="round" stroke-linejoin="round"/>
<path d="M96.5586 49.9606C97.0509 48.7237 97.8447 47.6296 98.868 46.7782C99.8913 45.9268 101.111 45.3448 102.417 45.0859C104.367 44.8849 106.333 44.9149 108.275 45.1753C109.248 45.3019 110.235 45.2353 111.182 44.9794C112.128 44.7238 113.015 44.2837 113.791 43.6846" stroke="#F90000" stroke-width="2.25" stroke-linecap="round" stroke-linejoin="round"/>
<path d="M82.083 39.734C82.9744 39.6911 83.8649 39.8333 84.6987 40.1516C85.5324 40.4696 86.2914 40.9568 86.9278 41.5823C88.0868 42.7763 88.9675 44.2118 89.5067 45.7862" stroke="#F90000" stroke-width="2.25" stroke-linecap="round" stroke-linejoin="round"/>
<path d="M92.249 26.8096C92.2574 27.8122 92.5037 28.7985 92.9675 29.6874C93.4316 30.5762 94.0997 31.3423 94.9175 31.9226C94.3292 32.2897 93.8381 32.7928 93.4853 33.3895C93.1325 33.9863 92.9282 34.6591 92.8901 35.3512" stroke="#F90000" stroke-width="2.25" stroke-linecap="round" stroke-linejoin="round"/>
<path d="M87.4941 41.8356C88.3347 41.0013 89.4327 40.476 90.6097 40.3449C91.7963 40.275 92.9705 40.6173 93.9338 41.3139" stroke="#F90000" stroke-width="2.25" stroke-linecap="round" stroke-linejoin="round"/>
<path d="M118.502 24.2009C119.658 24.1547 120.8 24.4577 121.781 25.0706C122.762 25.6834 123.535 26.5776 124 27.6365C124.465 28.6953 124.6 29.8698 124.388 31.0066C124.176 32.1435 123.626 33.19 122.81 34.0096C123.908 34.5503 124.828 35.3933 125.463 36.4395C125.755 36.978 125.9 37.5835 125.884 38.1955C125.868 38.8075 125.692 39.4047 125.374 39.9276" stroke="#F90000" stroke-width="2.25" stroke-linecap="round" stroke-linejoin="round"/>
<path d="M114.922 41.0166H123.106V49.5732H114.922V57.7572H106.38V49.5732H98.1963V41.0166H106.38V32.8477H114.922V41.0166Z" fill="white" stroke="#F90000" stroke-width="2.25" stroke-linecap="round" stroke-linejoin="round"/>
<path d="M132.632 46.7131C133.523 45.925 134.248 44.9671 134.764 43.8955" stroke="#F90000" stroke-width="2.25" stroke-linecap="round" stroke-linejoin="round"/>
<path d="M132.005 30.208C132.771 31.0535 133.219 32.1399 133.271 33.28C133.322 34.4201 132.975 35.5426 132.288 36.454" stroke="#F90000" stroke-width="2.25" stroke-linecap="round" stroke-linejoin="round"/>
<path d="M128.519 37.1431C129.101 36.767 129.764 36.5345 130.454 36.4647C131.144 36.3948 131.841 36.4897 132.487 36.7414C133.133 36.9931 133.71 37.3946 134.171 37.9127C134.631 38.4308 134.963 39.051 135.137 39.7221" stroke="#F90000" stroke-width="2.25" stroke-linecap="round" stroke-linejoin="round"/>
<path d="M112.345 25.0049C111.891 25.1644 111.48 25.4261 111.144 25.77C110.808 26.1138 110.556 26.5304 110.407 26.9875C110.269 27.4491 110.275 27.9417 110.424 28.3998C110.573 28.8578 110.858 29.2596 111.242 29.5515C112.004 29.9586 112.874 30.1201 113.731 30.0136" stroke="#F90000" stroke-width="2.25" stroke-linecap="round" stroke-linejoin="round"/>
<path d="M104.967 24.9153C102.184 24.4021 99.323 24.4841 96.5732 25.156C93.8237 25.8279 91.2473 27.0743 89.0139 28.8134C86.7805 30.5525 84.9407 32.7448 83.6155 35.246C82.2903 37.7473 81.5097 40.5009 81.3251 43.3254C81.1025 45.8193 81.5394 48.3282 82.5922 50.5998C83.1272 51.7293 83.8911 52.7352 84.8355 53.5539C85.7798 54.3726 86.884 54.9858 88.078 55.3551" stroke="#F90000" stroke-width="2.25" stroke-linecap="round" stroke-linejoin="round"/>
<path d="M136.121 41.7159C138.768 38.3233 142.105 35.5303 145.91 33.521C149.715 31.5117 153.903 30.3316 158.198 30.0586C158.404 35.1833 157.328 40.2786 155.069 44.883C152.81 49.4874 149.438 53.4558 145.259 56.4288C137.164 62.019 126.61 63.5694 119.246 70.0686" stroke="#F90000" stroke-width="2.25" stroke-linecap="round" stroke-linejoin="round"/>
<path d="M151.235 53.4053C154.537 53.6924 157.805 54.2813 161 55.1642C157.001 60.1679 151.589 63.851 145.466 65.7332C139.325 67.7606 132.632 67.6115 125.029 67.3133" stroke="#F90000" stroke-width="2.25" stroke-linecap="round" stroke-linejoin="round"/>
<path d="M80.4861 49.3947C76.9031 46.0416 74.2424 41.8233 72.7596 37.1454C71.2768 32.4673 71.0218 27.4867 72.019 22.6816C76.3763 24.3619 80.3769 26.8503 83.8104 30.0158" stroke="#F90000" stroke-width="2.25" stroke-linecap="round" stroke-linejoin="round"/>
<path d="M75.8522 46.8738C72.1813 46.5795 68.4888 47.0361 65 48.2154C69.5466 53.5521 73.9441 58.9485 80.1603 62.2728C89.2088 67.1472 100.016 64.5237 108.662 70.0689" stroke="#F90000" stroke-width="2.25" stroke-linecap="round" stroke-linejoin="round"/>
<path d="M139.685 30.0319C138.794 26.585 139.194 22.931 140.812 19.7592C142.429 16.5875 145.152 14.1172 148.465 12.8145C148.882 16.7946 148.793 20.9089 146.676 24.2928C144.858 27.1996 142.651 28.2879 139.685 30.0319Z" stroke="#F90000" stroke-width="2.25" stroke-linecap="round" stroke-linejoin="round"/>
<path d="M135.659 25.4981C133.344 24.1483 131.551 22.0581 130.569 19.5646C129.588 17.0711 129.474 14.3197 130.248 11.7539C132.515 13.1515 134.268 15.2464 135.243 17.7245C136.219 20.2025 136.365 22.9301 135.659 25.4981Z" stroke="#F90000" stroke-width="2.25" stroke-linecap="round" stroke-linejoin="round"/>
</svg>
