<svg width="1070" height="758" viewBox="0 0 1070 758" fill="none" xmlns="http://www.w3.org/2000/svg">
<path d="M568.087 523.691C568.034 525.277 567.929 526.889 567.796 528.502C567.241 535.243 566.105 542.09 564.254 549.096C561.558 559.326 559.601 568.368 558.359 576.616C557.83 580.158 557.407 583.568 557.116 586.846C555.16 609.528 559.152 626.818 567.823 649.42C571.762 659.678 576.653 671.045 582.389 684.475C586.328 693.727 590.531 703.271 594.999 712.973" stroke="#00B4CC" stroke-width="9.91854" stroke-miterlimit="10" stroke-linejoin="round" stroke-dasharray="12.4 12.4"/>
<path d="M559.232 470.766C565.233 487.896 568.829 505.371 568.088 523.691" stroke="#C8CEDB" stroke-width="9.91854" stroke-miterlimit="10" stroke-linecap="round" stroke-linejoin="round"/>
<path d="M508.29 366.185C510.934 370.705 513.445 375.622 515.904 380.777C530.549 411.337 548.605 440.496 559.206 470.792" stroke="#C8CEDB" stroke-width="9.91854" stroke-miterlimit="10" stroke-linecap="round" stroke-linejoin="round"/>
<path d="M471.491 334.884C479.369 338.136 486.586 341.837 493.037 347.071C498.853 351.777 503.77 358.412 508.29 366.158" stroke="#C8CEDB" stroke-width="9.91854" stroke-miterlimit="10" stroke-linecap="round" stroke-linejoin="round"/>
<path d="M407.991 307.656C414.97 311.251 422.372 314.82 430.277 318.494C432.074 319.34 433.846 320.133 435.617 320.926C448.544 326.716 460.625 330.391 471.491 334.911" stroke="#00B4CC" stroke-width="9.91854" stroke-miterlimit="10" stroke-linecap="round" stroke-linejoin="round"/>
<path d="M363.816 278.708C366.328 280.875 368.866 282.937 371.43 284.92C382.533 293.485 394.482 300.649 407.991 307.629" stroke="#C8CEDB" stroke-width="9.91854" stroke-miterlimit="10" stroke-linecap="round" stroke-linejoin="round"/>
<path d="M309.146 207.093C317.077 220.628 325.087 234.084 334.472 246.747C335.926 248.703 337.407 250.659 338.94 252.563C347.029 262.767 355.198 271.279 363.843 278.708" stroke="#C8CEDB" stroke-width="9.91854" stroke-miterlimit="10" stroke-linecap="round" stroke-linejoin="round"/>
<path d="M287.787 172.408C289.347 174.682 290.88 176.982 292.361 179.308C297.489 187.318 302.327 195.487 307.112 203.656C307.773 204.793 308.46 205.929 309.121 207.066" stroke="#00B4CC" stroke-width="9.91854" stroke-miterlimit="10" stroke-linecap="round" stroke-linejoin="round"/>
<path d="M260.029 133.759C266.453 143.038 273.274 152.053 279.883 161.2C282.553 164.901 285.223 168.628 287.787 172.409" stroke="#C8CEDB" stroke-width="9.91854" stroke-miterlimit="10" stroke-linecap="round" stroke-linejoin="round"/>
<path d="M232.482 98.0972C239.118 105.631 245.965 113.219 251.701 121.334C252.627 122.63 253.499 123.925 254.345 125.273C256.196 128.155 258.099 130.984 260.029 133.786" stroke="#00B4CC" stroke-width="9.91854" stroke-miterlimit="10" stroke-linecap="round" stroke-linejoin="round"/>
<path d="M5 48.3708C25.858 45.3571 46.6632 41.5239 66.4902 46.1502C74.9233 48.1329 81.7967 52.1776 88.5115 56.1959C97.2882 61.4302 105.854 66.6117 117.485 66.9818C133.849 67.4841 148.918 60.9808 164.938 62.567C166.947 62.752 168.956 63.0957 171.018 63.5715C183.364 66.4795 191.929 74.7275 203.244 78.1114C208.69 79.724 212.867 81.363 216.594 83.5307C221.353 86.2801 225.344 89.9283 230.235 95.5063C231.002 96.3787 231.742 97.2246 232.509 98.097" stroke="#C8CEDB" stroke-width="9.91854" stroke-miterlimit="10" stroke-linecap="round" stroke-linejoin="round"/>
<path d="M594.34 734.148C605.246 734.148 614.087 725.306 614.087 714.4C614.087 703.494 605.246 694.652 594.34 694.652C583.433 694.652 574.592 703.494 574.592 714.4C574.592 725.306 583.433 734.148 594.34 734.148Z" fill="white" stroke="#00B4CC" stroke-width="9.91854" stroke-miterlimit="10" stroke-linecap="round" stroke-linejoin="round"/>
<path d="M100.831 71.4227C106.306 71.4227 110.744 66.9843 110.744 61.5092C110.744 56.0341 106.306 51.5957 100.831 51.5957C95.3554 51.5957 90.917 56.0341 90.917 61.5092C90.917 66.9843 95.3554 71.4227 100.831 71.4227Z" fill="#404366"/>
<path d="M193.066 85.3016C198.541 85.3016 202.979 80.8632 202.979 75.3881C202.979 69.913 198.541 65.4746 193.066 65.4746C187.591 65.4746 183.152 69.913 183.152 75.3881C183.152 80.8632 187.591 85.3016 193.066 85.3016Z" fill="#404366"/>
<path d="M232.827 106.636C238.302 106.636 242.74 102.197 242.74 96.7224C242.74 91.2473 238.302 86.8088 232.827 86.8088C227.352 86.8088 222.913 91.2473 222.913 96.7224C222.913 102.197 227.352 106.636 232.827 106.636Z" fill="#404366"/>
<path d="M259.685 143.355C265.16 143.355 269.598 138.917 269.598 133.442C269.598 127.967 265.16 123.528 259.685 123.528C254.21 123.528 249.771 127.967 249.771 133.442C249.771 138.917 254.21 143.355 259.685 143.355Z" fill="white" stroke="#00B4CC" stroke-width="5.28721" stroke-miterlimit="10" stroke-linecap="round" stroke-linejoin="round"/>
<path d="M287.787 181.027C293.262 181.027 297.7 176.588 297.7 171.113C297.7 165.638 293.262 161.2 287.787 161.2C282.311 161.2 277.873 165.638 277.873 171.113C277.873 176.588 282.311 181.027 287.787 181.027Z" fill="#404366"/>
<path d="M309.305 215.023C314.78 215.023 319.219 210.585 319.219 205.11C319.219 199.635 314.78 195.196 309.305 195.196C303.83 195.196 299.392 199.635 299.392 205.11C299.392 210.585 303.83 215.023 309.305 215.023Z" fill="white" stroke="#00B4CC" stroke-width="5.28721" stroke-miterlimit="10" stroke-linecap="round" stroke-linejoin="round"/>
<path d="M334.446 255.735C339.921 255.735 344.359 251.297 344.359 245.821C344.359 240.346 339.921 235.908 334.446 235.908C328.971 235.908 324.532 240.346 324.532 245.821C324.532 251.297 328.971 255.735 334.446 255.735Z" fill="#404366"/>
<path d="M363.817 288.304C369.292 288.304 373.73 283.866 373.73 278.391C373.73 272.916 369.292 268.477 363.817 268.477C358.342 268.477 353.903 272.916 353.903 278.391C353.903 283.866 358.342 288.304 363.817 288.304Z" fill="#404366"/>
<path d="M407.621 317.331C413.096 317.331 417.534 312.892 417.534 307.417C417.534 301.942 413.096 297.504 407.621 297.504C402.145 297.504 397.707 301.942 397.707 307.417C397.707 312.892 402.145 317.331 407.621 317.331Z" fill="#404366"/>
<path d="M471.517 344.798C476.992 344.798 481.431 340.359 481.431 334.884C481.431 329.409 476.992 324.971 471.517 324.971C466.042 324.971 461.604 329.409 461.604 334.884C461.604 340.359 466.042 344.798 471.517 344.798Z" fill="white" stroke="#00B4CC" stroke-width="5.28721" stroke-miterlimit="10" stroke-linecap="round" stroke-linejoin="round"/>
<path d="M508.739 375.622C514.214 375.622 518.652 371.184 518.652 365.709C518.652 360.234 514.214 355.795 508.739 355.795C503.264 355.795 498.825 360.234 498.825 365.709C498.825 371.184 503.264 375.622 508.739 375.622Z" fill="#404366"/>
<path d="M558.413 476.793C563.888 476.793 568.326 472.355 568.326 466.88C568.326 461.405 563.888 456.966 558.413 456.966C552.937 456.966 548.499 461.405 548.499 466.88C548.499 472.355 552.937 476.793 558.413 476.793Z" fill="#404366"/>
<path d="M568.194 533.604C573.669 533.604 578.107 529.166 578.107 523.691C578.107 518.216 573.669 513.777 568.194 513.777C562.719 513.777 558.28 518.216 558.28 523.691C558.28 529.166 562.719 533.604 568.194 533.604Z" fill="#404366"/>
<text fill="#1E1E1E" xml:space="preserve" style="white-space: pre" font-family="Titillium Web" font-size="18" font-weight="600" letter-spacing="0px"><tspan x="113" y="27.705">Registrul Na&#x21b;ional ONG</tspan></text>
<text fill="#1E1E1E" xml:space="preserve" style="white-space: pre" font-family="Titillium Web" font-size="18" font-weight="600" letter-spacing="0px"><tspan x="111" y="112.705">ONG Hub</tspan></text>
<text fill="#1E1E1E" xml:space="preserve" style="white-space: pre" font-family="Titillium Web" font-size="18" font-weight="600" letter-spacing="0px"><tspan x="250" y="72.705">Website Factory</tspan></text>
<text fill="#1E1E1E" xml:space="preserve" style="white-space: pre" font-family="Titillium Web" font-size="18" font-weight="600" letter-spacing="0px"><tspan x="120" y="164.705">Redirectioneaza</tspan></text>
<text fill="#1E1E1E" xml:space="preserve" style="white-space: pre" font-family="Titillium Web" font-size="18" font-weight="600" letter-spacing="0px"><tspan x="308" y="152.705">RoHelp</tspan></text>
<text fill="#1E1E1E" xml:space="preserve" style="white-space: pre" font-family="Titillium Web" font-size="18" font-weight="600" letter-spacing="0px"><tspan x="246" y="220.705">Paul</tspan></text>
<text fill="#1E1E1E" xml:space="preserve" style="white-space: pre" font-family="Titillium Web" font-size="18" font-weight="600" letter-spacing="0px"><tspan x="364" y="235.705">Alex</tspan></text>
<text fill="#1E1E1E" xml:space="preserve" style="white-space: pre" font-family="Titillium Web" font-size="18" font-weight="600" letter-spacing="0px"><tspan x="317" y="298.705">Teo</tspan></text>
<text fill="#1E1E1E" xml:space="preserve" style="white-space: pre" font-family="Titillium Web" font-size="18" font-weight="600" letter-spacing="0px"><tspan x="423" y="283.705">Funding Call</tspan></text>
<text fill="#1E1E1E" xml:space="preserve" style="white-space: pre" font-family="Titillium Web" font-size="18" font-weight="600" letter-spacing="0px"><tspan x="498" y="325.705">VotONG</tspan></text>
<text fill="#1E1E1E" xml:space="preserve" style="white-space: pre" font-family="Titillium Web" font-size="18" font-weight="600" letter-spacing="0px"><tspan x="395" y="399.705">Centru Civic&#13;</tspan></text>
<text fill="#1E1E1E" xml:space="preserve" style="white-space: pre" font-family="Titillium Web" font-size="18" font-weight="600" letter-spacing="0px"><tspan x="454" y="473.705">DateONG</tspan></text>
<text fill="#1E1E1E" xml:space="preserve" style="white-space: pre" font-family="Titillium Web" font-size="18" font-weight="600" letter-spacing="0px"><tspan x="400" y="530.705">Finantari publice </tspan></text>
<path d="M712.313 722.011H675.963V746.126H712.313V722.011Z" fill="white" stroke="#00B4CC" stroke-width="2.025" stroke-miterlimit="10"/>
<path d="M675.963 728.715H712.327" stroke="#00B4CC" stroke-width="2.025" stroke-miterlimit="10"/>
<path d="M688.484 740.979C688.143 741.357 687.717 741.65 687.242 741.833C686.766 742.016 686.254 742.084 685.747 742.033C685.24 742.084 684.728 742.016 684.253 741.833C683.777 741.65 683.351 741.357 683.01 740.979C682.409 739.984 682.131 738.826 682.216 737.667C682.136 736.494 682.413 735.325 683.01 734.314C683.344 733.924 683.768 733.621 684.244 733.431C684.721 733.24 685.236 733.167 685.747 733.219C686.258 733.167 686.773 733.24 687.25 733.431C687.726 733.621 688.15 733.924 688.484 734.314C689.087 735.323 689.365 736.494 689.278 737.667C689.372 738.827 689.094 739.987 688.484 740.979ZM684.379 739.87C684.524 740.095 684.729 740.276 684.97 740.392C685.212 740.508 685.481 740.555 685.747 740.527C686.014 740.555 686.283 740.508 686.524 740.392C686.766 740.276 686.971 740.095 687.116 739.87C687.412 739.175 687.539 738.42 687.485 737.667C687.533 736.9 687.407 736.133 687.116 735.422C686.955 735.212 686.748 735.042 686.51 734.925C686.273 734.808 686.012 734.747 685.747 734.747C685.483 734.747 685.221 734.808 684.984 734.925C684.747 735.042 684.54 735.212 684.379 735.422C684.087 736.133 683.961 736.9 684.009 737.667C683.951 738.419 684.073 739.174 684.365 739.87H684.379Z" fill="#00B4CC"/>
<path d="M691.07 741.882V733.315H693.986L696.038 740.322H696.162V733.315H697.886V741.828H695.039L692.891 734.875H692.767V741.882H691.07Z" fill="#00B4CC"/>
<path d="M703.593 738.789V737.284H706.07V741.705C705.111 741.874 704.141 741.97 703.168 741.992C702.659 742.054 702.143 741.989 701.666 741.802C701.188 741.616 700.764 741.314 700.431 740.925C699.881 739.902 699.638 738.742 699.733 737.585C699.634 736.419 699.902 735.252 700.5 734.246C700.827 733.877 701.237 733.592 701.696 733.414C702.156 733.235 702.651 733.169 703.141 733.219C703.987 733.229 704.831 733.32 705.659 733.493L706.111 733.575V734.944C705.298 734.846 704.48 734.791 703.661 734.779C703.194 734.742 702.725 734.817 702.292 734.998C702.006 735.195 701.806 735.494 701.731 735.833C701.577 736.515 701.512 737.215 701.54 737.914C701.484 738.618 701.611 739.325 701.909 739.966C702.087 740.187 702.32 740.357 702.584 740.461C702.848 740.564 703.134 740.596 703.415 740.555H704.441V738.789H703.593Z" fill="#00B4CC"/>
<path d="M751.112 722.011H714.762V746.126H751.112V722.011Z" fill="white" stroke="#00B4CC" stroke-width="2.025" stroke-miterlimit="10"/>
<path d="M714.762 728.715H751.112" stroke="#00B4CC" stroke-width="2.025" stroke-miterlimit="10"/>
<path d="M727.283 740.98C726.531 741.653 725.556 742.025 724.546 742.025C723.536 742.025 722.562 741.653 721.809 740.98C721.199 739.988 720.921 738.828 721.015 737.668C720.929 736.495 721.206 735.324 721.809 734.314C722.547 733.612 723.527 733.22 724.546 733.22C725.565 733.22 726.545 733.612 727.283 734.314C727.881 735.326 728.157 736.495 728.077 737.668C728.162 738.827 727.885 739.985 727.283 740.98ZM723.178 739.871C723.345 740.072 723.554 740.234 723.79 740.345C724.027 740.456 724.285 740.513 724.546 740.513C724.807 740.513 725.066 740.456 725.302 740.345C725.539 740.234 725.748 740.072 725.915 739.871C726.211 739.176 726.338 738.421 726.284 737.668C726.332 736.901 726.206 736.134 725.915 735.423C725.754 735.213 725.547 735.043 725.309 734.926C725.072 734.809 724.811 734.748 724.546 734.748C724.282 734.748 724.02 734.809 723.783 734.926C723.546 735.043 723.339 735.213 723.178 735.423C722.886 736.134 722.76 736.901 722.808 737.668C722.75 738.42 722.872 739.175 723.164 739.871H723.178Z" fill="#00B4CC"/>
<path d="M729.845 741.882V733.315H732.76L734.799 740.322H734.936V733.315H736.688V741.828H733.841L731.72 734.82H731.597V741.828L729.845 741.882Z" fill="#00B4CC"/>
<path d="M742.395 738.789V737.284H744.9V741.704C743.942 741.874 742.972 741.97 741.999 741.992C741.49 742.053 740.973 741.988 740.496 741.802C740.018 741.616 739.594 741.314 739.261 740.924C738.683 739.896 738.421 738.72 738.509 737.544C738.414 736.376 738.687 735.209 739.289 734.204C739.616 733.836 740.026 733.551 740.486 733.372C740.945 733.194 741.44 733.127 741.93 733.178C742.776 733.187 743.62 733.279 744.448 733.451L744.9 733.534V734.902C744.082 734.804 743.26 734.749 742.436 734.738C741.969 734.699 741.5 734.774 741.068 734.957C740.782 735.154 740.581 735.452 740.507 735.792C740.352 736.474 740.288 737.173 740.315 737.872C740.26 738.577 740.387 739.284 740.685 739.925C740.917 740.322 741.424 740.513 742.19 740.513H743.217V738.789H742.395Z" fill="#00B4CC"/>
<path d="M665.355 723.405H670.652" stroke="#00B4CC" stroke-width="2.025" stroke-linecap="round" stroke-linejoin="round"/>
<path d="M669.981 725.131H672.637" stroke="#00B4CC" stroke-width="2.025" stroke-linecap="round" stroke-linejoin="round"/>
<path d="M660.592 725.131H665.888" stroke="#00B4CC" stroke-width="2.025" stroke-linecap="round" stroke-linejoin="round"/>
<path d="M684.981 723.405H690.278" stroke="#00B4CC" stroke-width="2.025" stroke-linecap="round" stroke-linejoin="round"/>
<path d="M704.305 723.405H709.601" stroke="#00B4CC" stroke-width="2.025" stroke-linecap="round" stroke-linejoin="round"/>
<path d="M682.859 725.131H685.501" stroke="#00B4CC" stroke-width="2.025" stroke-linecap="round" stroke-linejoin="round"/>
<path d="M708.932 725.131H711.587" stroke="#00B4CC" stroke-width="2.025" stroke-linecap="round" stroke-linejoin="round"/>
<path d="M699.542 725.131H704.839" stroke="#00B4CC" stroke-width="2.025" stroke-linecap="round" stroke-linejoin="round"/>
<path d="M692.85 701.015H656.5V725.13H692.85V701.015Z" fill="white" stroke="#00B4CC" stroke-width="2.025" stroke-miterlimit="10"/>
<path d="M656.5 707.722H692.85" stroke="#00B4CC" stroke-width="2.025" stroke-miterlimit="10"/>
<path d="M669.009 719.985C668.668 720.365 668.242 720.658 667.767 720.841C667.291 721.024 666.779 721.092 666.271 721.039C665.765 721.091 665.252 721.023 664.777 720.839C664.301 720.656 663.876 720.364 663.534 719.985C662.947 718.986 662.684 717.829 662.782 716.673C662.701 715.501 662.978 714.332 663.575 713.32C663.91 712.931 664.333 712.628 664.81 712.438C665.286 712.247 665.802 712.174 666.313 712.225C666.823 712.173 667.339 712.245 667.816 712.436C668.293 712.627 668.716 712.93 669.05 713.32C669.653 714.33 669.93 715.501 669.844 716.673C669.926 717.838 669.633 718.999 669.009 719.985ZM664.903 718.877C665.048 719.102 665.253 719.283 665.494 719.399C665.736 719.515 666.005 719.561 666.271 719.534C666.538 719.561 666.807 719.515 667.049 719.399C667.29 719.283 667.495 719.102 667.64 718.877C667.936 718.182 668.063 717.427 668.01 716.673C668.058 715.907 667.931 715.14 667.64 714.429C667.501 714.195 667.299 714.005 667.057 713.882C666.815 713.758 666.542 713.706 666.271 713.731C666.001 713.706 665.728 713.758 665.486 713.882C665.244 714.005 665.042 714.195 664.903 714.429C664.612 715.14 664.485 715.907 664.533 716.673C664.476 717.426 664.598 718.181 664.889 718.877H664.903Z" fill="#00B4CC"/>
<path d="M671.596 720.888V712.375H674.511L676.564 719.382H676.687V712.375H678.411V720.888H675.565L673.443 713.88H673.32V720.888H671.596Z" fill="#00B4CC"/>
<path d="M684.12 717.837V716.331H686.597V720.752C685.639 720.921 684.669 721.017 683.696 721.039C683.187 721.101 682.67 721.036 682.193 720.849C681.715 720.663 681.291 720.362 680.958 719.972C680.387 718.941 680.13 717.766 680.219 716.591C680.12 715.425 680.388 714.258 680.986 713.252C681.313 712.883 681.723 712.598 682.183 712.42C682.642 712.241 683.137 712.175 683.627 712.225C684.473 712.237 685.315 712.324 686.145 712.485L686.597 712.581V713.95C685.784 713.852 684.966 713.797 684.147 713.786C683.68 713.748 683.211 713.823 682.779 714.005C682.634 714.099 682.51 714.221 682.413 714.365C682.317 714.508 682.25 714.67 682.218 714.839C682.038 715.509 681.946 716.199 681.944 716.892C681.888 717.597 682.015 718.304 682.313 718.945C682.491 719.166 682.724 719.336 682.988 719.439C683.252 719.543 683.538 719.575 683.819 719.534H684.845V717.837H684.12Z" fill="#00B4CC"/>
<path d="M724.057 723.405H729.353" stroke="#00B4CC" stroke-width="2.025" stroke-linecap="round" stroke-linejoin="round"/>
<path d="M731.786 701.015H695.436V725.13H731.786V701.015Z" fill="white" stroke="#00B4CC" stroke-width="2.025" stroke-miterlimit="10"/>
<path d="M695.436 707.722H731.8" stroke="#00B4CC" stroke-width="2.025" stroke-miterlimit="10"/>
<path d="M707.947 719.985C707.602 720.356 707.174 720.641 706.699 720.816C706.224 720.992 705.714 721.054 705.21 720.998C704.703 721.049 704.191 720.981 703.716 720.798C703.24 720.615 702.814 720.322 702.473 719.944C701.872 718.949 701.594 717.791 701.679 716.632C701.607 715.473 701.884 714.32 702.473 713.32C702.807 712.93 703.231 712.628 703.707 712.437C704.184 712.246 704.699 712.174 705.21 712.225C705.721 712.174 706.236 712.246 706.713 712.437C707.189 712.628 707.613 712.93 707.947 713.32C708.545 714.332 708.821 715.501 708.741 716.673C708.826 717.832 708.549 718.99 707.947 719.985ZM703.841 718.876C704.008 719.077 704.218 719.239 704.454 719.35C704.691 719.461 704.949 719.519 705.21 719.519C705.471 719.519 705.729 719.461 705.966 719.35C706.203 719.239 706.412 719.077 706.579 718.876C706.875 718.181 707.002 717.426 706.948 716.673C706.996 715.906 706.87 715.139 706.579 714.428C706.418 714.218 706.211 714.048 705.973 713.931C705.736 713.814 705.475 713.753 705.21 713.753C704.945 713.753 704.684 713.814 704.447 713.931C704.21 714.048 704.003 714.218 703.841 714.428C703.55 715.139 703.424 715.906 703.472 716.673C703.419 717.426 703.545 718.181 703.841 718.876Z" fill="#00B4CC"/>
<path d="M710.548 720.888V712.375H713.422L715.475 719.382H715.598V712.375H717.322V720.888H714.517L712.395 713.88H712.272V720.888H710.548Z" fill="#00B4CC"/>
<path d="M723.069 717.837V716.331H725.546V720.752C724.588 720.921 723.618 721.017 722.645 721.039C722.136 721.101 721.62 721.036 721.142 720.849C720.665 720.663 720.24 720.362 719.908 719.972C719.337 718.941 719.08 717.766 719.169 716.591C719.07 715.425 719.338 714.258 719.935 713.252C720.262 712.883 720.673 712.598 721.132 712.42C721.591 712.241 722.086 712.175 722.576 712.225C723.422 712.237 724.265 712.324 725.095 712.485L725.546 712.581V713.95C724.729 713.852 723.906 713.797 723.083 713.786C722.616 713.747 722.146 713.822 721.714 714.005C721.569 714.099 721.445 714.221 721.349 714.365C721.252 714.508 721.186 714.67 721.153 714.839C720.992 715.511 720.918 716.201 720.934 716.892C720.879 717.597 721.006 718.304 721.304 718.945C721.482 719.166 721.714 719.336 721.978 719.439C722.242 719.543 722.529 719.575 722.809 719.534H723.836V717.837H723.069Z" fill="#00B4CC"/>
<path d="M712.313 680.5H675.963V704.615H712.313V680.5Z" fill="white" stroke="#00B4CC" stroke-width="2.025" stroke-miterlimit="10"/>
<path d="M675.963 687.207H712.327" stroke="#00B4CC" stroke-width="2.025" stroke-miterlimit="10"/>
<path d="M688.484 699.47C688.143 699.848 687.717 700.141 687.242 700.324C686.766 700.507 686.254 700.575 685.747 700.524C685.24 700.575 684.728 700.507 684.253 700.324C683.777 700.141 683.351 699.848 683.01 699.47C682.409 698.475 682.131 697.317 682.216 696.158C682.136 694.986 682.413 693.817 683.01 692.805C683.344 692.415 683.768 692.113 684.244 691.922C684.721 691.731 685.236 691.659 685.747 691.71C686.258 691.659 686.773 691.731 687.25 691.922C687.726 692.113 688.15 692.415 688.484 692.805C689.087 693.814 689.365 694.985 689.278 696.158C689.372 697.318 689.094 698.478 688.484 699.47ZM684.379 698.361C684.524 698.586 684.729 698.767 684.97 698.883C685.212 698.999 685.481 699.046 685.747 699.018C686.014 699.046 686.283 698.999 686.524 698.883C686.766 698.767 686.971 698.586 687.116 698.361C687.412 697.666 687.539 696.911 687.485 696.158C687.533 695.391 687.407 694.624 687.116 693.913C686.955 693.703 686.748 693.533 686.51 693.416C686.273 693.299 686.012 693.238 685.747 693.238C685.483 693.238 685.221 693.299 684.984 693.416C684.747 693.533 684.54 693.703 684.379 693.913C684.087 694.624 683.961 695.391 684.009 696.158C683.951 696.91 684.073 697.665 684.365 698.361H684.379Z" fill="#00B4CC"/>
<path d="M691.07 700.373V691.86H693.986L696.038 698.867H696.162V691.86H697.886V700.373H695.039L692.891 693.365H692.767V700.373H691.07Z" fill="#00B4CC"/>
<path d="M703.595 697.319V695.814H706.072V700.234C705.114 700.404 704.144 700.5 703.171 700.522C702.662 700.583 702.145 700.518 701.668 700.332C701.19 700.146 700.766 699.844 700.433 699.454C699.877 698.419 699.634 697.244 699.735 696.074C699.636 694.908 699.904 693.74 700.502 692.734C700.829 692.366 701.239 692.081 701.699 691.902C702.158 691.724 702.653 691.657 703.143 691.708C703.989 691.719 704.831 691.806 705.661 691.968L706.113 692.064V693.432C705.3 693.335 704.482 693.28 703.663 693.268C703.196 693.231 702.727 693.306 702.295 693.487C702.15 693.581 702.025 693.704 701.929 693.847C701.833 693.991 701.766 694.152 701.733 694.322C701.555 694.987 701.463 695.672 701.46 696.361C701.404 697.066 701.531 697.773 701.829 698.414C702.007 698.635 702.24 698.805 702.504 698.908C702.768 699.011 703.054 699.044 703.335 699.003H704.361V697.319H703.595Z" fill="#00B4CC"/>
<text fill="#1E1E1E" xml:space="preserve" style="white-space: pre" font-family="Titillium Web" font-size="40" font-weight="600" letter-spacing="0px"><tspan x="768" y="703.9">O societate civil&#x103; </tspan><tspan x="768" y="745.9">puternic&#x103;</tspan></text>
</svg>
