<svg viewBox="0 0 1200 1000" fill="none" xmlns="http://www.w3.org/2000/svg">
<g id="segment-participation-03-legislatie-accesibila">
<g id="Group 1196">
<text class="btn-project" text-decoration="underline" cursor="pointer" data-projectid="1" id="Draft legislativ" fill="#1E1E1E" xml:space="preserve" style="white-space: pre" font-family="Titillium Web" font-size="20" font-weight="600" letter-spacing="0px"><tspan x="470" y="212.45">Draft legislativ</tspan></text>
<text class="btn-project" text-decoration="underline" cursor="pointer" data-projectid="2" id="Consultare public&#196;&#131;" fill="#1E1E1E" xml:space="preserve" style="white-space: pre" font-family="Titillium Web" font-size="20" font-weight="600" letter-spacing="0px"><tspan x="491" y="257.45">Consultare public&#x103;</tspan></text>
<text class="btn-project" text-decoration="underline" cursor="pointer" data-projectid="3" id="Expert Consultation" fill="#1E1E1E" xml:space="preserve" style="white-space: pre" font-family="Titillium Web" font-size="20" font-weight="600" letter-spacing="0px"><tspan x="517" y="307.45">Expert Consultation&#13;</tspan></text>
<text class="btn-project" text-decoration="underline" cursor="pointer" data-projectid="4" id="Legi in lucru" fill="#1E1E1E" xml:space="preserve" style="white-space: pre" font-family="Titillium Web" font-size="20" font-weight="600" letter-spacing="0px"><tspan x="539" y="418.45">Legi in lucru&#13;</tspan></text>
<text class="btn-project" text-decoration="underline" cursor="pointer" data-projectid="5" id="Platforma de legisla&#200;&#155;ie" fill="#1E1E1E" xml:space="preserve" style="white-space: pre" font-family="Titillium Web" font-size="20" font-weight="600" letter-spacing="0px"><tspan x="303" y="463.45">Platforma de&#13;legisla&#x21b;ie</tspan></text>
<text class="btn-project" text-decoration="underline" cursor="pointer" data-projectid="6" id="Legea (pe bune)" fill="#1E1E1E" xml:space="preserve" style="white-space: pre" font-family="Titillium Web" font-size="20" font-weight="600" letter-spacing="0px"><tspan x="366" y="505.45">Legea (pe bune)</tspan></text>
<text class="btn-project" text-decoration="underline" cursor="pointer" data-projectid="7" id="Ce zice legea" fill="#1E1E1E" xml:space="preserve" style="white-space: pre" font-family="Titillium Web" font-size="20" font-weight="600" letter-spacing="0px"><tspan x="559" y="552.45">Ce zice legea&#13;</tspan></text>
<text class="btn-project" text-decoration="underline" cursor="pointer" data-projectid="8" id="EduLex" fill="#1E1E1E" xml:space="preserve" style="white-space: pre" font-family="Titillium Web" font-size="20" font-weight="600" letter-spacing="0px"><tspan x="421" y="572.45">EduLex&#13;</tspan></text>
<text class="btn-project" text-decoration="underline" cursor="pointer" data-projectid="9" id="Zi de Zi" fill="#1E1E1E" xml:space="preserve" style="white-space: pre" font-family="Titillium Web" font-size="20" font-weight="600" letter-spacing="0px"><tspan x="523" y="633.45">Zi de Zi</tspan></text>
<text id="Legisla&#200;&#155;ie accesibil&#196;&#131;" fill="#1E1E1E" xml:space="preserve" style="white-space: pre" font-family="Titillium Web" font-size="40" font-weight="600" letter-spacing="0px"><tspan x="559" y="844.9">Legisla&#x21b;ie accesibil&#x103;</tspan></text>
<g id="Group 1166">
<g id="icon-legislatie-accesibila 1">
<path id="Vector" d="M642.857 698.858H645.384V775.239H571.597V698.858H626.185" stroke="#00B4CC" stroke-width="3.14423" stroke-linecap="round" stroke-linejoin="round"/>
<path id="Vector_2" d="M571.507 718.495H626.187C632.365 718.578 638.337 716.275 642.859 712.065" stroke="#00B4CC" stroke-width="3.14423" stroke-linecap="round" stroke-linejoin="round"/>
<path id="Vector_3" d="M642.857 692.43C638.323 696.61 632.351 698.881 626.185 698.768H573.526" stroke="#00B4CC" stroke-width="3.14423" stroke-linecap="round" stroke-linejoin="round"/>
<path id="Vector_4" d="M642.858 712.065V698.86V692.43" stroke="#00B4CC" stroke-width="3.14423" stroke-linecap="round" stroke-linejoin="round"/>
<path id="Vector_5" d="M627.149 718.472H645.383" stroke="#00B4CC" stroke-width="3.14423" stroke-linecap="round" stroke-linejoin="round"/>
<path id="Vector_6" d="M592.244 698.86V672.795H663.734" stroke="#00B4CC" stroke-width="3.14423" stroke-linecap="round" stroke-linejoin="round"/>
<path id="Vector_7" d="M663.48 672.795H666.03V750.853H645.384" stroke="#00B4CC" stroke-width="3.14423" stroke-linecap="round" stroke-linejoin="round"/>
<path id="Vector_8" d="M649.818 692.43H666.032" stroke="#00B4CC" stroke-width="3.14423" stroke-linecap="round" stroke-linejoin="round"/>
<path id="Vector_9" d="M592.244 692.43H633.81" stroke="#00B4CC" stroke-width="3.14423" stroke-linecap="round" stroke-linejoin="round"/>
<path id="Vector_10" d="M607.951 665.192H563.192V679.798V721.985V738.129H568.153" stroke="#00B4CC" stroke-width="3.14423" stroke-linecap="round" stroke-linejoin="round"/>
<path id="Vector_11" d="M607.953 665.192H627.151V672.794" stroke="#00B4CC" stroke-width="3.14423" stroke-linecap="round" stroke-linejoin="round"/>
<path id="Vector_12" d="M627.149 702.739V713.211" stroke="#00B4CC" stroke-width="3.14423" stroke-linecap="round" stroke-linejoin="round"/>
<path id="Vector_13" d="M636.267 700.536V710.985" stroke="#00B4CC" stroke-width="3.14423" stroke-linecap="round" stroke-linejoin="round"/>
<path id="Vector_14" d="M621.5 702.739V713.211" stroke="#00B4CC" stroke-width="3.14423" stroke-linecap="round" stroke-linejoin="round"/>
<path id="Vector_15" d="M615.83 702.739V713.211" stroke="#00B4CC" stroke-width="3.14423" stroke-linecap="round" stroke-linejoin="round"/>
<path id="Vector_16" d="M610.155 702.739V713.211" stroke="#00B4CC" stroke-width="3.14423" stroke-linecap="round" stroke-linejoin="round"/>
<path id="Vector_17" d="M604.481 702.739V713.211" stroke="#00B4CC" stroke-width="3.14423" stroke-linecap="round" stroke-linejoin="round"/>
<path id="Vector_18" d="M593.161 702.739V713.211" stroke="#00B4CC" stroke-width="3.14423" stroke-linecap="round" stroke-linejoin="round"/>
<path id="Vector_19" d="M587.491 702.739V713.211" stroke="#00B4CC" stroke-width="3.14423" stroke-linecap="round" stroke-linejoin="round"/>
<path id="Vector_20" d="M571.597 725.477H624.6" stroke="#00B4CC" stroke-width="3.14423" stroke-linecap="round" stroke-linejoin="round"/>
<path id="Vector_21" d="M571.597 732.732H624.6" stroke="#00B4CC" stroke-width="3.14423" stroke-linecap="round" stroke-linejoin="round"/>
<path id="Vector_22" d="M650.392 736.887H665.342" stroke="#00B4CC" stroke-width="3.14423" stroke-linecap="round" stroke-linejoin="round"/>
<path id="Vector_23" d="M650.392 744.167H665.342" stroke="#00B4CC" stroke-width="3.14423" stroke-linecap="round" stroke-linejoin="round"/>
<path id="Vector_24" d="M650.392 722.374H665.342" stroke="#00B4CC" stroke-width="3.14423" stroke-linecap="round" stroke-linejoin="round"/>
<path id="Vector_25" d="M650.392 729.633H665.342" stroke="#00B4CC" stroke-width="3.14423" stroke-linecap="round" stroke-linejoin="round"/>
<path id="Vector_26" d="M649.818 707.771H664.769" stroke="#00B4CC" stroke-width="3.14423" stroke-linecap="round" stroke-linejoin="round"/>
<path id="Vector_27" d="M649.818 700.88H664.769" stroke="#00B4CC" stroke-width="3.14423" stroke-linecap="round" stroke-linejoin="round"/>
<path id="Vector_28" d="M649.818 715.025H664.769" stroke="#00B4CC" stroke-width="3.14423" stroke-linecap="round" stroke-linejoin="round"/>
<path id="Vector_29" d="M571.597 747.27H633.511" stroke="#00B4CC" stroke-width="3.14423" stroke-linecap="round" stroke-linejoin="round"/>
<path id="Vector_30" d="M571.597 754.524H640.951" stroke="#00B4CC" stroke-width="3.14423" stroke-linecap="round" stroke-linejoin="round"/>
<path id="Vector_31" d="M571.597 769.038H640.951" stroke="#00B4CC" stroke-width="3.14423" stroke-linecap="round" stroke-linejoin="round"/>
<path id="Vector_32" d="M571.597 761.783H640.951" stroke="#00B4CC" stroke-width="3.14423" stroke-linecap="round" stroke-linejoin="round"/>
<path id="Vector_33" d="M563.192 679.8H592.243" stroke="#00B4CC" stroke-width="3.14423" stroke-linecap="round" stroke-linejoin="round"/>
</g>
</g>
<g id="Group 1195">
<path id="Vector_34" d="M494.827 618.94C490.85 629.339 487.76 639.497 486.631 647.451" stroke="#C8CEDB" stroke-width="10.0822" stroke-miterlimit="10" stroke-linecap="round" stroke-linejoin="round"/>
<path id="Vector_35" d="M512.508 580.352C506.919 590.671 500.093 605.021 494.799 618.914" stroke="#C8CEDB" stroke-width="10.0822" stroke-miterlimit="10" stroke-linecap="round" stroke-linejoin="round"/>
<path id="Vector_36" d="M529.76 538.726C528.175 550.389 524.977 561.406 519.549 571.295C515.33 578.954 515.088 579.115 511.138 586.344" stroke="#00B4CC" stroke-width="10.0822" stroke-miterlimit="10" stroke-linecap="round" stroke-linejoin="round"/>
<path id="Vector_37" d="M527.907 482.967C530.836 501.911 532.153 521.071 529.761 538.753" stroke="#C8CEDB" stroke-width="10.0822" stroke-miterlimit="10" stroke-linecap="round" stroke-linejoin="round"/>
<path id="Vector_38" d="M459.301 254.312C455.163 244.611 451.024 235.045 448.472 225.29C447.235 220.587 445.301 215.939 443.42 211.317C441.646 206.99 439.926 202.637 438.824 198.203C437.024 190.947 437.642 182.268 437.964 174.744C438.341 166.198 440.947 157.303 445.005 149" stroke="#C8CEDB" stroke-width="10.0822" stroke-miterlimit="10" stroke-linecap="round" stroke-linejoin="round"/>
<path id="Vector_39" d="M484.078 296.394C480.289 284.624 468.6 277.099 464.139 265.921C462.58 262.024 460.941 258.154 459.302 254.312" stroke="#00B4CC" stroke-width="10.0822" stroke-miterlimit="10" stroke-linecap="round" stroke-linejoin="round"/>
<path id="Vector_40" d="M527.906 482.967C524.305 459.669 518.232 436.694 513.583 417.211C509.472 399.959 504.232 383.379 501.679 365.939C498.293 342.587 491.253 318.779 484.078 296.394" stroke="#C8CEDB" stroke-width="10.0822" stroke-miterlimit="10" stroke-linecap="round" stroke-linejoin="round"/>
<path id="Vector_41" d="M485.61 693C496.696 693 505.684 684.013 505.684 672.927C505.684 661.84 496.696 652.853 485.61 652.853C474.524 652.853 465.537 661.84 465.537 672.927C465.537 684.013 474.524 693 485.61 693Z" fill="white" stroke="#00B4CC" stroke-width="10.0822" stroke-miterlimit="10" stroke-linecap="round" stroke-linejoin="round"/>
<path id="Vector_42" d="M510.358 421.43C515.924 421.43 520.435 416.918 520.435 411.352C520.435 405.787 515.924 401.275 510.358 401.275C504.793 401.275 500.281 405.787 500.281 411.352C500.281 416.918 504.793 421.43 510.358 421.43Z" fill="#404366"/>
<path id="Vector_43" d="M522.586 466.038C528.152 466.038 532.663 461.526 532.663 455.961C532.663 450.395 528.152 445.884 522.586 445.884C517.021 445.884 512.509 450.395 512.509 455.961C512.509 461.526 517.021 466.038 522.586 466.038Z" fill="#404366"/>
<path id="Vector_44" d="M529.466 506.024C535.031 506.024 539.543 501.512 539.543 495.946C539.543 490.381 535.031 485.869 529.466 485.869C523.9 485.869 519.389 490.381 519.389 495.946C519.389 501.512 523.9 506.024 529.466 506.024Z" fill="#404366"/>
<path id="Vector_45" d="M529.466 549.906C535.031 549.906 539.543 545.394 539.543 539.829C539.543 534.263 535.031 529.751 529.466 529.751C523.9 529.751 519.389 534.263 519.389 539.829C519.389 545.394 523.9 549.906 529.466 549.906Z" fill="#404366"/>
<path id="Vector_46" d="M512.509 590.429C518.075 590.429 522.586 585.918 522.586 580.352C522.586 574.787 518.075 570.275 512.509 570.275C506.944 570.275 502.432 574.787 502.432 580.352C502.432 585.918 506.944 590.429 512.509 590.429Z" fill="white" stroke="#00B4CC" stroke-width="5.37443" stroke-miterlimit="10" stroke-linecap="round" stroke-linejoin="round"/>
<path id="Vector_47" d="M495.686 626.035C501.251 626.035 505.763 621.523 505.763 615.958C505.763 610.392 501.251 605.881 495.686 605.881C490.121 605.881 485.609 610.392 485.609 615.958C485.609 621.523 490.121 626.035 495.686 626.035Z" fill="#404366"/>
<path id="Vector_48" d="M486.254 310.206C491.82 310.206 496.331 305.694 496.331 300.129C496.331 294.563 491.82 290.052 486.254 290.052C480.689 290.052 476.177 294.563 476.177 300.129C476.177 305.694 480.689 310.206 486.254 310.206Z" fill="white" stroke="#00B4CC" stroke-width="5.37443" stroke-miterlimit="10" stroke-linecap="round" stroke-linejoin="round"/>
<path id="Vector_49" d="M458.254 265.438C463.819 265.438 468.331 260.926 468.331 255.361C468.331 249.795 463.819 245.283 458.254 245.283C452.688 245.283 448.177 249.795 448.177 255.361C448.177 260.926 452.688 265.438 458.254 265.438Z" fill="#404366"/>
<path id="Vector_50" d="M442.077 220.909C447.642 220.909 452.154 216.398 452.154 210.832C452.154 205.267 447.642 200.755 442.077 200.755C436.512 200.755 432 205.267 432 210.832C432 216.398 436.512 220.909 442.077 220.909Z" fill="#404366"/>
</g>
</g>
</g>
</svg>
