<svg width="1207" height="707" viewBox="0 0 1207 707" fill="none" xmlns="http://www.w3.org/2000/svg">
<path d="M690.647 61.0493C689.322 79.2062 680.709 93.1809 690.85 113.582C700.762 133.498 719.975 154.333 708.942 177.259C702.52 190.621 686.137 199.878 673.906 207.758C660.401 216.454 649.674 226.017 637.265 236.013C610.562 257.537 580.189 276.739 550.81 293.723C515.927 313.869 480.433 336.641 475.159 378.923C470.75 414.293 461.399 430.027 438.874 456.752C431.74 465.219 425.344 478.734 417.624 485.849C415.483 487.813 413.267 489.547 410.948 491.077C388.092 506.199 357.439 501.456 333.615 514.742C326.276 518.848 319.779 524.382 312.874 529.278C310.708 530.834 308.491 532.313 306.198 533.664C299.012 537.923 292.005 542.717 284.667 546.721C270.831 554.269 256.231 562.022 244.433 572.809C243.771 573.421 243.108 574.033 242.471 574.645C231.82 584.973 220.762 594.408 208.684 603.283C198.11 611.06 189.345 620.292 179 628.452C169.444 635.975 162.182 646.762 151.837 653.852C150.92 654.464 150.003 655.076 149.035 655.637C139.556 661.17 129.848 667.214 119.401 671.014C117.082 671.855 114.05 673.947 111.986 674.482C109.107 675.247 106.329 674.763 103.374 675.502C98.2521 676.777 93.6401 678.358 88.7734 679.786C86.4547 680.475 76.6957 681.852 73.7399 681.852C72.4914 681.852 71.1664 681.801 69.8414 681.725C65.9174 681.546 61.7896 681.316 58.2988 682.362C54.171 683.586 52.3619 686.187 47.5461 686.442C39.0356 686.901 23.9257 683.127 16.6383 688.023C11.5677 691.44 8.71388 698.657 4 702.457" stroke="#F90000" stroke-width="10.4594" stroke-miterlimit="10" stroke-linejoin="round" stroke-dasharray="13.07 13.07"/>
<path d="M691.106 80.0989C701.618 80.0989 710.14 71.5702 710.14 61.0494C710.14 50.5287 701.618 42 691.106 42C680.594 42 672.072 50.5287 672.072 61.0494C672.072 71.5702 680.594 80.0989 691.106 80.0989Z" fill="white" stroke="#F90000" stroke-width="10.4594" stroke-miterlimit="10" stroke-linecap="round" stroke-linejoin="round"/>
<path d="M820.66 40.0917H828.681V48.4811H820.66V56.5023H812.288V48.4811H804.268V40.0917H812.288V32.0708H820.66V40.0917Z" fill="white" stroke="#F90000" stroke-width="2.1" stroke-linecap="round" stroke-linejoin="round"/>
<path d="M841.424 30.9833V74.1943H780.749V30.9833C780.749 29.6542 781.011 28.3382 781.52 27.1105C782.029 25.8828 782.776 24.7676 783.716 23.8286C784.657 22.8896 785.773 22.1453 787.002 21.6383C788.23 21.1313 789.547 20.8715 790.876 20.8738H831.244C832.577 20.8645 833.9 21.1192 835.134 21.6231C836.369 22.127 837.492 22.8702 838.438 23.8099C839.384 24.7495 840.135 25.8671 840.648 27.0983C841.16 28.3294 841.424 29.6498 841.424 30.9833Z" stroke="#F90000" stroke-width="2.1" stroke-linecap="round" stroke-linejoin="round"/>
<path d="M841.424 30.9831V74.1943H793.105V30.9831C793.105 28.3019 794.171 25.7305 796.066 23.8346C797.962 21.9387 800.534 20.8736 803.215 20.8736H831.297C832.626 20.8713 833.942 21.131 835.171 21.6381C836.4 22.1451 837.516 22.8894 838.457 23.8284C839.397 24.7673 840.144 25.8826 840.653 27.1103C841.162 28.338 841.424 29.654 841.424 30.9831Z" stroke="#F90000" stroke-width="2.1" stroke-linecap="round" stroke-linejoin="round"/>
<path d="M801.722 20.9439C801.831 18.3287 802.946 15.8568 804.835 14.0449C806.724 12.2329 809.24 11.2212 811.857 11.2212C814.475 11.2212 816.991 12.2329 818.88 14.0449C820.769 15.8568 821.884 18.3287 821.993 20.9439" stroke="#F90000" stroke-width="2.1" stroke-linecap="round" stroke-linejoin="round"/>
<path d="M773.432 74.2649H856.695" stroke="#F90000" stroke-width="2.1" stroke-linecap="round" stroke-linejoin="round"/>
<path d="M850.708 57.0836V74.2664H833.684V57.0836C833.681 56.5888 833.777 56.0986 833.964 55.6408C834.152 55.1832 834.428 54.7669 834.777 54.4163C835.126 54.0658 835.541 53.7874 835.998 53.5976C836.455 53.4078 836.945 53.31 837.44 53.31C837.809 53.31 838.163 53.1644 838.426 52.9052C838.689 52.6456 838.839 52.2928 838.844 51.9235V44.1484H845.074V51.9235C845.079 52.2897 845.226 52.64 845.485 52.899C845.745 53.158 846.095 53.3056 846.461 53.31H846.952C847.447 53.31 847.937 53.4078 848.394 53.5976C848.851 53.7874 849.265 54.0658 849.615 54.4163C849.963 54.7669 850.24 55.1832 850.427 55.6408C850.615 56.0986 850.711 56.5888 850.708 57.0836Z" fill="white" stroke="#F90000" stroke-width="2.1" stroke-linecap="round" stroke-linejoin="round"/>
<path d="M845.952 43.1284H837.756V49.7804H845.952V43.1284Z" fill="white" stroke="#F90000" stroke-width="2.1" stroke-linecap="round" stroke-linejoin="round"/>
<path d="M850.709 60.645H837.756V68.7185H850.709V60.645Z" fill="white" stroke="#F90000" stroke-width="2.1" stroke-linecap="round" stroke-linejoin="round"/>
<path d="M774.044 33.2292C774.039 33.659 773.865 34.0697 773.56 34.372C773.254 34.6744 772.842 34.8439 772.412 34.8439H769.621V37.6344C769.645 37.8621 769.621 38.0917 769.55 38.3092C769.479 38.5265 769.363 38.7264 769.21 38.8964C769.057 39.0661 768.87 39.2019 768.661 39.2948C768.452 39.3878 768.226 39.4359 767.998 39.4359C767.769 39.4359 767.543 39.3878 767.334 39.2948C767.125 39.2019 766.938 39.0661 766.785 38.8964C766.632 38.7264 766.516 38.5265 766.446 38.3092C766.375 38.0917 766.351 37.8621 766.374 37.6344V34.8439H763.601C763.374 34.8676 763.144 34.8432 762.927 34.7724C762.709 34.7016 762.509 34.5859 762.339 34.4329C762.169 34.2798 762.034 34.0928 761.941 33.8839C761.848 33.6751 761.8 33.449 761.8 33.2204C761.8 32.9918 761.848 32.7657 761.941 32.5569C762.034 32.348 762.169 32.161 762.339 32.0079C762.509 31.8549 762.709 31.7392 762.927 31.6684C763.144 31.5976 763.374 31.5732 763.601 31.5969H766.374V28.8063C766.416 28.4048 766.605 28.033 766.905 27.7628C767.205 27.4926 767.594 27.343 767.998 27.343C768.401 27.343 768.791 27.4926 769.09 27.7628C769.39 28.033 769.579 28.4048 769.621 28.8063V31.5969H772.412C772.845 31.5969 773.26 31.7689 773.566 32.075C773.872 32.3811 774.044 32.7963 774.044 33.2292Z" stroke="#F90000" stroke-width="2.1" stroke-linecap="round" stroke-linejoin="round"/>
<path d="M780.959 16.8377C780.961 17.0527 780.921 17.266 780.84 17.4651C780.758 17.6642 780.638 17.8451 780.486 17.9971C780.334 18.1492 780.153 18.2693 779.954 18.3505C779.755 18.4317 779.542 18.4723 779.327 18.4699H776.554V21.2606C776.554 21.6935 776.382 22.1087 776.076 22.4148C775.77 22.7209 775.354 22.8929 774.921 22.8929C774.489 22.8929 774.073 22.7209 773.767 22.4148C773.461 22.1087 773.289 21.6935 773.289 21.2606V18.4699H770.516C770.289 18.4936 770.059 18.4693 769.842 18.3985C769.624 18.3277 769.424 18.212 769.254 18.0589C769.085 17.9059 768.949 17.7188 768.856 17.51C768.763 17.3011 768.715 17.0751 768.715 16.8465C768.715 16.6178 768.763 16.3918 768.856 16.1829C768.949 15.9741 769.085 15.787 769.254 15.634C769.424 15.4809 769.624 15.3653 769.842 15.2944C770.059 15.2237 770.289 15.1993 770.516 15.223H773.289V12.4323C773.289 11.9994 773.461 11.5842 773.767 11.2781C774.073 10.972 774.489 10.8 774.921 10.8C775.354 10.8 775.77 10.972 776.076 11.2781C776.382 11.5842 776.554 11.9994 776.554 12.4323V15.223H779.327C779.54 15.2206 779.752 15.2607 779.95 15.3408C780.148 15.4209 780.328 15.5395 780.48 15.6897C780.632 15.8398 780.752 16.0186 780.835 16.2157C780.917 16.4127 780.959 16.6241 780.959 16.8377Z" stroke="#F90000" stroke-width="2.1" stroke-linecap="round" stroke-linejoin="round"/>
<path d="M859.801 36.233C859.803 36.4467 859.763 36.6586 859.683 36.8563C859.603 37.0543 859.484 37.2346 859.334 37.3863C859.184 37.5381 859.005 37.6585 858.808 37.7408C858.611 37.8231 858.4 37.8654 858.186 37.8654H855.395V40.6559C855.419 40.8835 855.395 41.1131 855.324 41.3307C855.253 41.548 855.137 41.7479 854.984 41.9179C854.831 42.0875 854.644 42.2233 854.435 42.3163C854.226 42.4093 854 42.4574 853.772 42.4574C853.543 42.4574 853.317 42.4093 853.108 42.3163C852.899 42.2233 852.712 42.0875 852.559 41.9179C852.406 41.7479 852.291 41.548 852.22 41.3307C852.149 41.1131 852.124 40.8835 852.148 40.6559V37.8654H849.358C848.956 37.8237 848.584 37.6344 848.314 37.3345C848.044 37.0349 847.895 36.6455 847.895 36.242C847.895 35.8383 848.044 35.4489 848.314 35.1491C848.584 34.8493 848.956 34.6602 849.358 34.6184H852.148V31.8278C852.19 31.4263 852.379 31.0545 852.679 30.7843C852.979 30.5141 853.368 30.3645 853.772 30.3645C854.175 30.3645 854.565 30.5141 854.865 30.7843C855.164 31.0545 855.353 31.4263 855.395 31.8278V34.6184H858.186C858.614 34.6184 859.025 34.7885 859.328 35.0913C859.63 35.3942 859.801 35.8049 859.801 36.233Z" stroke="#F90000" stroke-width="2.1" stroke-linecap="round" stroke-linejoin="round"/>
<text fill="#1E1E1E" xml:space="preserve" style="white-space: pre" font-family="Titillium Web" font-size="40" font-weight="600" letter-spacing="0px"><tspan x="899" y="35.9">Servicii de &#x2028;</tspan><tspan x="899" y="77.9">s&#x103;n&#x103;tate&#13;eficiente</tspan></text>
</svg>
