<svg width="441" height="191" viewBox="0 0 441 191" fill="none" xmlns="http://www.w3.org/2000/svg">
<g clip-path="url(#clip0)">
<path d="M415.253 166.908C398.445 171.174 376.553 189.975 358.902 178.199C351.519 173.268 348.684 163.97 343.371 156.894C331.646 141.261 309.754 138.196 290.264 136.995C270.773 135.795 249.137 134.287 235.598 120.212C231.409 115.844 228.292 110.505 223.694 106.572C217.334 101.105 213.272 104.043 206.426 103.046C200.755 102.203 194.012 98.0141 188.903 95.4596C171.43 86.7234 170 76.7865 160.242 60.719C146.984 38.8273 113.776 28.0985 90.3516 22.9896C60.7199 16.5013 30.7305 10.2173 0.868896 4.69971" stroke="#7937C4" stroke-width="9.58407" stroke-miterlimit="10" stroke-linejoin="round" stroke-dasharray="11.98 11.98"/>
<path d="M416.581 185.99C427.12 185.99 435.663 177.447 435.663 166.908C435.663 156.37 427.12 147.827 416.581 147.827C406.043 147.827 397.5 156.37 397.5 166.908C397.5 177.447 406.043 185.99 416.581 185.99Z" fill="white" stroke="#7937C4" stroke-width="9.58407" stroke-miterlimit="10" stroke-linecap="round" stroke-linejoin="round"/>
</g>
<defs>
<clipPath id="clip0">
<rect width="440.44" height="190.767" fill="white"/>
</clipPath>
</defs>
</svg>
