<svg width="1200" height="1000" viewBox="0 0 1200 1000" fill="none" xmlns="http://www.w3.org/2000/svg">
<g id="segment-participation-05-o-mai-buna-relatie-cetatean-stat">
<g id="Group 1163">
<path id="Vector" d="M549.012 514.38C552.085 519.19 555.533 523.813 559.275 528.142C560.023 528.997 560.772 529.853 561.52 530.681C570.153 540.141 578.572 549.654 587.819 558.766C593.138 564.003 596.051 570.31 598.163 577.017C602.786 591.714 603.428 608.202 616.47 618.704C622.511 623.567 630.048 626.133 636.649 630.114C641.113 632.84 645.255 636.02 648.997 639.681C660.463 650.877 670.566 663.971 680.054 677.332" stroke="#00B4CC" stroke-width="9.73285" stroke-miterlimit="10" stroke-linejoin="round" stroke-dasharray="12.17 12.17"/>
<path id="Vector_2" d="M312.024 261C323.57 285.985 336.907 311.879 352.596 335.689C363.233 351.855 374.966 367.06 387.902 380.395C397.417 390.202 407.6 398.993 418.504 406.395C423.208 409.575 428.099 413.29 433.178 416.844C444.43 424.727 456.644 431.995 469.847 431.835C479.388 431.701 486.578 430.926 492.511 431.007C505.714 431.247 512.824 435.87 526.294 462.004C529.795 468.765 532.254 475.953 534.713 483.088C537.012 489.769 539.283 496.423 542.384 502.702C544.335 506.657 546.553 510.559 548.985 514.353" stroke="#C8CEDB" stroke-width="9.73285" stroke-miterlimit="10" stroke-linecap="round" stroke-linejoin="round"/>
<path id="Vector_3" d="M696.037 712.98C707.064 712.98 716.002 704.043 716.002 693.018C716.002 681.994 707.064 673.057 696.037 673.057C685.011 673.057 676.072 681.994 676.072 693.018C676.072 704.043 685.011 712.98 696.037 712.98Z" fill="white" stroke="#00B4CC" stroke-width="9.73285" stroke-miterlimit="10" stroke-linecap="round" stroke-linejoin="round"/>
<path id="Vector_4" d="M341.318 327.379C346.853 327.379 351.34 322.892 351.34 317.358C351.34 311.823 346.853 307.337 341.318 307.337C335.782 307.337 331.295 311.823 331.295 317.358C331.295 322.892 335.782 327.379 341.318 327.379Z" fill="#404366"/>
<path id="Vector_5" d="M370.316 369.038C375.851 369.038 380.338 364.552 380.338 359.017C380.338 353.483 375.851 348.997 370.316 348.997C364.78 348.997 360.293 353.483 360.293 359.017C360.293 364.552 364.78 369.038 370.316 369.038Z" fill="#404366"/>
<path id="Vector_6" d="M399.396 401.052C404.931 401.052 409.418 396.565 409.418 391.031C409.418 385.497 404.931 381.01 399.396 381.01C393.86 381.01 389.373 385.497 389.373 391.031C389.373 396.565 393.86 401.052 399.396 401.052Z" fill="#404366"/>
<path id="Vector_7" d="M433.952 426.865C439.488 426.865 443.975 422.379 443.975 416.844C443.975 411.31 439.488 406.823 433.952 406.823C428.417 406.823 423.93 411.31 423.93 416.844C423.93 422.379 428.417 426.865 433.952 426.865Z" fill="#404366"/>
<path id="Vector_8" d="M484.841 441.83C490.376 441.83 494.864 437.343 494.864 431.809C494.864 426.275 490.376 421.788 484.841 421.788C479.306 421.788 474.818 426.275 474.818 431.809C474.818 437.343 479.306 441.83 484.841 441.83Z" fill="#404366"/>
<path id="Vector_9" d="M528.299 479.401C533.834 479.401 538.322 474.915 538.322 469.38C538.322 463.846 533.834 459.36 528.299 459.36C522.764 459.36 518.276 463.846 518.276 469.38C518.276 474.915 522.764 479.401 528.299 479.401Z" fill="#404366"/>
<path id="Vector_10" d="M548.343 524.374C553.878 524.374 558.366 519.888 558.366 514.354C558.366 508.819 553.878 504.333 548.343 504.333C542.808 504.333 538.32 508.819 538.32 514.354C538.32 519.888 542.808 524.374 548.343 524.374Z" fill="#404366"/>
<text class="btn-project" projectid="7" id="Te reprezinta" fill="#404366" xml:space="preserve" style="white-space: pre" font-family="Titillium Web" font-size="20" font-weight="600" letter-spacing="0em"><tspan x="409" y="536.427">Te reprezinta</tspan></text>
<text class="btn-project" projectid="6" id="Public Report" fill="#404366" xml:space="preserve" style="white-space: pre" font-family="Titillium Web" font-size="20" font-weight="600" letter-spacing="0em"><tspan x="561" y="481.427">Public Report&#13;</tspan></text>
<text class="btn-project" projectid="5" id="Bugetare Participativ&#196;&#131;" fill="#404366" xml:space="preserve" style="white-space: pre" font-family="Titillium Web" font-size="20" font-weight="600" letter-spacing="0em"><tspan x="505" y="413.427">Bugetare Participativ&#x103;&#13;</tspan></text>
<text class="btn-project" projectid="4" id="Biroul de propuneri" fill="#404366" xml:space="preserve" style="white-space: pre" font-family="Titillium Web" font-size="20" font-weight="600" letter-spacing="0em"><tspan x="261" y="454.427">Biroul de propuneri&#13;</tspan></text>
<text class="btn-project" projectid="3" id="Acces 544" fill="#404366" xml:space="preserve" style="white-space: pre" font-family="Titillium Web" font-size="20" font-weight="600" letter-spacing="0em"><tspan x="420" y="380.427">Acces 544&#13;</tspan></text>
<text class="btn-project" projectid="2" id="Website builder primarie" fill="#404366" xml:space="preserve" style="white-space: pre" font-family="Titillium Web" font-size="20" font-weight="600" letter-spacing="0em"><tspan x="147" y="376.427">Website builder primarie&#13;</tspan></text>
<text class="btn-project" projectid="1" id="Website builder minister" fill="#404366" xml:space="preserve" style="white-space: pre" font-family="Titillium Web" font-size="20" font-weight="600" letter-spacing="0em"><tspan x="109" y="326.427">Website builder minister&#13;</tspan></text>
<g id="icon-o-mai-buna-relatie-cetatean-stat 1" clip-path="url(#clip0)">
<path id="Vector_11" d="M772.644 584.573C772.644 579.235 768.317 574.908 762.98 574.908C757.642 574.908 753.315 579.235 753.315 584.573V588.234C753.315 593.572 757.642 597.899 762.98 597.899C768.317 597.899 772.644 593.572 772.644 588.234V584.573Z" stroke="#00B4CC" stroke-width="2.14286" stroke-linecap="round" stroke-linejoin="round"/>
<path id="Vector_12" d="M759.538 597.263V599.396C759.538 600.59 758.631 601.323 757.357 601.578L753.425 602.326C749.285 602.963 745.464 605.892 745.464 610.287V627.928" stroke="#00B4CC" stroke-width="2.14286" stroke-linecap="round" stroke-linejoin="round"/>
<path id="Vector_13" d="M766.436 597.263V600.065C766.436 601.355 769.333 601.578 770.161 601.578C771.893 601.578 773.568 602.2 774.88 603.331C776.192 604.462 777.054 606.026 777.31 607.739L778.106 613.105" stroke="#00B4CC" stroke-width="2.14286" stroke-linecap="round" stroke-linejoin="round"/>
<path id="Vector_14" d="M773.042 613.106L775.223 633.756" stroke="#00B4CC" stroke-width="2.14286" stroke-linecap="round" stroke-linejoin="round"/>
<path id="Vector_15" d="M753.729 613.106V633.756" stroke="#00B4CC" stroke-width="2.14286" stroke-linecap="round" stroke-linejoin="round"/>
<path id="Vector_16" d="M775.222 633.756H753.729" stroke="#00B4CC" stroke-width="2.14286" stroke-linecap="round" stroke-linejoin="round"/>
<path id="Vector_17" d="M758.634 601.609C759.855 602.485 761.318 602.958 762.821 602.962C764.329 602.942 765.79 602.44 766.992 601.529" stroke="#00B4CC" stroke-width="2.14286" stroke-linecap="round" stroke-linejoin="round"/>
<path id="Vector_18" d="M775.779 618.963C777.393 615.408 778.554 611.663 779.234 607.818" stroke="#00B4CC" stroke-width="2.14286" stroke-linecap="round" stroke-linejoin="round"/>
<path id="Vector_19" d="M785.682 608.837C785.593 612.434 785.247 616.02 784.647 619.568C784.301 622.037 783.331 624.377 781.829 626.366C780.914 627.318 779.731 627.97 778.438 628.234C777.144 628.499 775.8 628.364 774.585 627.847" stroke="#00B4CC" stroke-width="2.14286" stroke-linecap="round" stroke-linejoin="round"/>
<path id="Vector_20" d="M770.541 578.555L770.429 578.857C770.275 579.307 770.017 579.714 769.677 580.045C769.337 580.377 768.924 580.625 768.471 580.768C767.745 580.991 766.968 580.991 766.242 580.768L764.411 580.195C763.199 579.816 761.895 579.846 760.701 580.28C759.507 580.715 758.489 581.529 757.804 582.599L753.394 589.445" stroke="#00B4CC" stroke-width="2.14286" stroke-linecap="round" stroke-linejoin="round"/>
<path id="Vector_21" d="M764.841 587.709C765.245 587.709 765.573 587.125 765.573 586.403C765.573 585.683 765.245 585.098 764.841 585.098C764.436 585.098 764.108 585.683 764.108 586.403C764.108 587.125 764.436 587.709 764.841 587.709Z" fill="#00B4CC"/>
<path id="Vector_22" d="M812.605 588.013C813.01 588.013 813.338 587.429 813.338 586.708C813.338 585.987 813.01 585.402 812.605 585.402C812.201 585.402 811.873 585.987 811.873 586.708C811.873 587.429 812.201 588.013 812.605 588.013Z" fill="#00B4CC"/>
<path id="Vector_23" d="M819.213 588.013C819.617 588.013 819.945 587.429 819.945 586.708C819.945 585.987 819.617 585.402 819.213 585.402C818.808 585.402 818.48 585.987 818.48 586.708C818.48 587.429 818.808 588.013 819.213 588.013Z" fill="#00B4CC"/>
<path id="Vector_24" d="M770.047 587.709C770.451 587.709 770.779 587.125 770.779 586.403C770.779 585.683 770.451 585.098 770.047 585.098C769.642 585.098 769.314 585.683 769.314 586.403C769.314 587.125 769.642 587.709 770.047 587.709Z" fill="#00B4CC"/>
<path id="Vector_25" d="M767.437 590.815L766.147 591.914C766.609 591.914 767.087 592.089 767.564 592.136" stroke="#00B4CC" stroke-width="2.14286" stroke-linecap="round" stroke-linejoin="round"/>
<path id="Vector_26" d="M779.3 607.93C779.15 607.847 779.018 607.733 778.914 607.596C778.81 607.459 778.735 607.301 778.695 607.134C778.612 606.801 778.585 606.457 778.616 606.115C778.679 605.108 778.823 604.107 779.045 603.122C779.073 602.812 779.222 602.526 779.459 602.326C779.607 602.253 779.773 602.228 779.936 602.253C780.098 602.279 780.249 602.354 780.367 602.469C780.606 602.699 780.806 602.969 780.956 603.265C781.428 604.043 782.038 604.728 782.755 605.287" stroke="#00B4CC" stroke-width="2.14286" stroke-linecap="round" stroke-linejoin="round"/>
<path id="Vector_27" d="M782.481 603.36C784.553 603.502 786.511 604.357 788.022 605.78L785.729 608.741" stroke="#00B4CC" stroke-width="2.14286" stroke-linecap="round" stroke-linejoin="round"/>
<path id="Vector_28" d="M781.687 603.839C782.447 602.855 783.368 602.004 784.409 601.323C784.841 601.005 785.355 600.817 785.89 600.782C786.153 600.773 786.411 600.858 786.618 601.021C786.825 601.184 786.968 601.415 787.02 601.674" stroke="#00B4CC" stroke-width="2.14286" stroke-linecap="round" stroke-linejoin="round"/>
<path id="Vector_29" d="M784.792 603.821C785.578 602.932 786.496 602.169 787.515 601.56C787.74 601.409 788.008 601.337 788.279 601.353C788.516 601.412 788.721 601.561 788.852 601.767C788.983 601.967 789.08 602.188 789.138 602.42" stroke="#00B4CC" stroke-width="2.14286" stroke-linecap="round" stroke-linejoin="round"/>
<path id="Vector_30" d="M786.812 604.41C787.377 603.593 788.124 602.918 788.993 602.436C789.196 602.323 789.431 602.278 789.662 602.309C790.076 602.388 790.219 602.611 790.219 603.041C790.219 603.471 789.693 603.853 789.407 604.219C788.995 604.792 788.532 605.325 788.022 605.811" stroke="#00B4CC" stroke-width="2.14286" stroke-linecap="round" stroke-linejoin="round"/>
<path id="Vector_31" d="M773.198 614.806C774.712 614.191 776.259 613.66 777.831 613.214" stroke="#00B4CC" stroke-width="2.14286" stroke-linecap="round" stroke-linejoin="round"/>
<path id="Vector_32" d="M747.423 614.172C749.573 614.435 751.702 614.856 753.791 615.429" stroke="#00B4CC" stroke-width="2.14286" stroke-linecap="round" stroke-linejoin="round"/>
<path id="Vector_33" d="M828.51 588.219C828.164 588.834 827.593 589.291 826.917 589.493C826.514 589.611 826.096 589.675 825.676 589.684V592.868C825.676 594.557 825.004 596.177 823.81 597.372C822.616 598.566 820.996 599.237 819.307 599.237H816.123C814.434 599.237 812.814 598.566 811.62 597.372C810.425 596.177 809.754 594.557 809.754 592.868V581.15C809.73 580.96 809.73 580.767 809.754 580.577C814.473 580.867 819.208 580.405 823.781 579.208C824.475 581.084 825.065 582.998 825.548 584.939C825.628 585.274 825.723 585.624 825.787 585.975C826.172 585.859 826.576 585.822 826.975 585.865C827.374 585.909 827.761 586.033 828.112 586.229C828.38 586.476 828.564 586.801 828.636 587.159C828.707 587.517 828.663 587.888 828.51 588.219Z" stroke="#00B4CC" stroke-width="2.14286" stroke-linecap="round" stroke-linejoin="round"/>
<path id="Vector_34" d="M809.805 580.53H808.372C808.954 578.894 809.9 577.413 811.139 576.197C812.377 574.98 813.875 574.061 815.521 573.508C819.211 572.218 823.251 572.36 826.841 573.906C831.378 576.103 831.617 580.975 831.617 585.354C831.617 589.732 829.579 593.633 825.249 594.907" stroke="#00B4CC" stroke-width="2.14286" stroke-linecap="round" stroke-linejoin="round"/>
<path id="Vector_35" d="M824.688 589.685C824.991 589.701 825.294 589.701 825.596 589.685" stroke="#00B4CC" stroke-width="2.14286" stroke-linecap="round" stroke-linejoin="round"/>
<path id="Vector_36" d="M813.768 592.662C815.113 592.883 816.492 592.791 817.796 592.391" stroke="#00B4CC" stroke-width="2.14286" stroke-linecap="round" stroke-linejoin="round"/>
<path id="Vector_37" d="M816.123 601.466L815.151 606.418L819.068 605.064L821.807 608.249L828.732 603.058L827.14 600.081C827.14 600.081 823.59 603.616 816.123 601.466Z" stroke="#00B4CC" stroke-width="2.14286" stroke-linecap="round" stroke-linejoin="round"/>
<path id="Vector_38" d="M816.126 601.466L817.798 601.88V599.205" stroke="#00B4CC" stroke-width="2.14286" stroke-linecap="round" stroke-linejoin="round"/>
<path id="Vector_39" d="M826.265 600.78V594.523" stroke="#00B4CC" stroke-width="2.14286" stroke-linecap="round" stroke-linejoin="round"/>
<path id="Vector_40" d="M828.734 603.106C831.73 603.672 834.442 605.243 836.425 607.558C838.407 609.874 839.542 612.796 839.64 615.843L840.373 633.754" stroke="#00B4CC" stroke-width="2.14286" stroke-linecap="round" stroke-linejoin="round"/>
<path id="Vector_41" d="M815.902 603.106H814.31C811.314 603.672 808.602 605.243 806.619 607.558C804.636 609.874 803.502 612.796 803.403 615.843L802.719 633.834" stroke="#00B4CC" stroke-width="2.14286" stroke-linecap="round" stroke-linejoin="round"/>
<path id="Vector_42" d="M808.483 617.118V633.756" stroke="#00B4CC" stroke-width="2.14286" stroke-linecap="round" stroke-linejoin="round"/>
<path id="Vector_43" d="M820.31 633.723H798.45L800.329 618.837H822.189L820.31 633.723Z" fill="white" stroke="#00B4CC" stroke-width="2.14286" stroke-linecap="round" stroke-linejoin="round"/>
<path id="Vector_44" d="M828.843 618.63C829.272 618.78 829.64 619.065 829.894 619.442V633.565" stroke="#00B4CC" stroke-width="2.14286" stroke-linecap="round" stroke-linejoin="round"/>
<path id="Vector_45" d="M785.89 576.485C788.348 576.598 790.75 575.734 792.573 574.081C794.396 572.428 795.49 570.122 795.618 567.665C795.49 565.208 794.396 562.901 792.573 561.249C790.75 559.596 788.348 558.732 785.89 558.844C783.431 558.728 781.027 559.59 779.203 561.244C777.38 562.897 776.286 565.206 776.162 567.665C776.169 568.929 776.458 570.176 777.009 571.314C777.56 572.451 778.359 573.451 779.346 574.24L777.754 580.466L785.89 576.485Z" stroke="#00B4CC" stroke-width="2.14286" stroke-linecap="round" stroke-linejoin="round"/>
<path id="Vector_46" d="M799.279 594.444C797.844 595.33 796.189 595.793 794.503 595.782C792.369 595.881 790.283 595.131 788.701 593.696C787.12 592.26 786.172 590.256 786.064 588.123C786.188 585.998 787.145 584.009 788.728 582.586C790.312 581.164 792.393 580.425 794.518 580.529C796.652 580.429 798.738 581.179 800.32 582.615C801.901 584.05 802.85 586.054 802.957 588.187C802.953 589.109 802.775 590.022 802.432 590.878L805.616 593.107L799.279 594.444Z" stroke="#00B4CC" stroke-width="2.14286" stroke-linecap="round" stroke-linejoin="round"/>
<path id="Vector_47" d="M743.857 633.756H845.197" stroke="#00B4CC" stroke-width="2.14286" stroke-linecap="round" stroke-linejoin="round"/>
<path id="Vector_48" d="M822.188 618.837L825.293 633.723" stroke="#00B4CC" stroke-width="2.14286" stroke-linecap="round" stroke-linejoin="round"/>
<path id="Vector_49" d="M804.089 624.219H816.587" stroke="#00B4CC" stroke-width="2.14286" stroke-linecap="round" stroke-linejoin="round"/>
<path id="Vector_50" d="M803.419 628.326H815.901" stroke="#00B4CC" stroke-width="2.14286" stroke-linecap="round" stroke-linejoin="round"/>
</g>
<text id="O mai bun&#196;&#131; rela&#200;&#155;ie cet&#196;&#131;&#200;&#155;ean-stat" fill="#1E1E1E" xml:space="preserve" style="white-space: pre" font-family="Titillium Web" font-size="40" font-weight="600" letter-spacing="0px"><tspan x="741" y="685.877">O mai bun&#x103; rela&#x21b;ie </tspan><tspan x="741" y="727.877">cet&#x103;&#x21b;ean-stat </tspan></text>
</g>
</g>
<defs>
<clipPath id="clip0">
<rect width="105.714" height="80" fill="white" transform="translate(741 555.977)"/>
</clipPath>
</defs>
</svg>
