<svg width="241" height="222" viewBox="0 0 241 222" fill="none" xmlns="http://www.w3.org/2000/svg">
<g clip-path="url(#clip0)">
<path d="M53.1221 173.447C79.4512 151.874 103.53 128.073 112.276 92.813C112.763 89.7973 111.673 84.5315 112.577 81.0983C113.552 77.4794 116.034 73.9766 117.078 70.2418C119.699 60.8469 121.068 46.7196 126.867 38.6468C133.803 28.9967 146.422 37.9741 155.701 35.5384C161.014 34.1233 165.468 31.5252 171.267 30.9453C175.79 30.5045 180.708 30.4349 184.837 28.2312C189.848 25.5403 192.493 22.8957 198.014 21.8055C202.305 20.9704 207.919 21.5967 212.164 20.1816" stroke="#00B4CC" stroke-width="8.70347" stroke-miterlimit="10" stroke-linejoin="round" stroke-dasharray="10.88 10.88"/>
<path d="M4.36084 217.639C7.72448 215.389 10.9489 213.092 13.7326 210.749C16.5163 208.406 16.1684 203.094 19.0217 200.728C30.1333 191.542 41.848 182.703 53.1452 173.424" stroke="#00B4CC" stroke-width="8.70347" stroke-miterlimit="10" stroke-linecap="round" stroke-linejoin="round"/>
<path d="M53.1219 182.007C57.9263 182.007 61.821 178.113 61.821 173.308C61.821 168.504 57.9263 164.609 53.1219 164.609C48.3176 164.609 44.4229 168.504 44.4229 173.308C44.4229 178.113 48.3176 182.007 53.1219 182.007Z" fill="white" stroke="#00B4CC" stroke-width="4.6395" stroke-miterlimit="10" stroke-linecap="round" stroke-linejoin="round"/>
<path d="M218.66 39.0181C228.23 39.0181 235.988 31.2599 235.988 21.6896C235.988 12.1193 228.23 4.36108 218.66 4.36108C209.089 4.36108 201.331 12.1193 201.331 21.6896C201.331 31.2599 209.089 39.0181 218.66 39.0181Z" fill="white" stroke="#00B4CC" stroke-width="8.70347" stroke-miterlimit="10" stroke-linecap="round" stroke-linejoin="round"/>
</g>
<defs>
<clipPath id="clip0">
<rect width="240.349" height="222" fill="white"/>
</clipPath>
</defs>
</svg>
