<svg width="545" height="385" viewBox="0 0 545 385" fill="none" xmlns="http://www.w3.org/2000/svg">
<path d="M407.012 5C401.461 7.97549 395.911 10.926 390.31 13.4014C385.634 15.4517 381.058 17.377 376.532 19.2774C367.381 23.178 358.554 27.0786 350.153 32.2795C345.802 34.9549 341.752 36.8302 337.626 38.6805" stroke="#C8CEDB" stroke-width="9.3813" stroke-miterlimit="10" stroke-linecap="round" stroke-linejoin="round"/>
<path d="M335.8 41.2994C332.524 45.0251 293.918 83.3886 290.868 87.3142C288.067 90.8898 285.717 94.7154 283.542 98.6411C279.091 106.742 275.515 115.244 270.89 122.945C267.664 128.296 263.813 133.447 259.413 138.248C244.06 155 222.307 167.202 199.028 166.827C197.903 166.802 196.802 166.802 195.702 166.827C175.249 167.327 160.997 174.579 117.239 199.633C104.187 207.109 92.1602 214.085 76.4076 216.585C74.6073 216.886 69.6815 217.586 63.3555 218.061" stroke="#1B771B" stroke-width="9.3813" stroke-miterlimit="10" stroke-linejoin="round" stroke-dasharray="11.73 11.73"/>
<path d="M52.6781 237.239C62.9937 237.239 71.3562 228.876 71.3562 218.561C71.3562 208.245 62.9937 199.882 52.6781 199.882C42.3625 199.882 34 208.245 34 218.561C34 228.876 42.3625 237.239 52.6781 237.239Z" fill="white" stroke="#1B771B" stroke-width="9.3813" stroke-miterlimit="10" stroke-linecap="round" stroke-linejoin="round"/>
<path d="M336.876 49.7071C342.054 49.7071 346.252 45.509 346.252 40.3305C346.252 35.152 342.054 30.954 336.876 30.954C331.697 30.954 327.499 35.152 327.499 40.3305C327.499 45.509 331.697 49.7071 336.876 49.7071Z" fill="#404366"/>
<g clip-path="url(#clip0)">
<path d="M20.3965 371.597V297.575C20.3965 297.575 36.8596 297.075 36.3594 297.575C35.8593 298.075 46.0704 341.171 46.0704 341.171L59.0327 330.751V341.463L74.4123 331.043V341.463L89.1871 331.231V371.597" stroke="#1B771B" stroke-width="2.89286" stroke-linecap="round" stroke-linejoin="round"/>
<path d="M6.2041 371.595H105.879" stroke="#1B771B" stroke-width="2.89286" stroke-linecap="round" stroke-linejoin="round"/>
<path d="M55.5938 366.97V362.573C55.5976 362.148 55.7133 361.732 55.9293 361.366C56.1449 361 56.4535 360.698 56.8234 360.489L62.7835 357.113L65.0133 352.945C65.5085 352.023 66.2453 351.252 67.1444 350.717C68.0438 350.18 69.0722 349.899 70.119 349.903H78.8508C80.2444 349.904 81.5909 350.407 82.6435 351.32L90.9792 358.447H93.7093C95.8666 358.452 97.9336 359.313 99.4572 360.841C100.981 362.368 101.837 364.438 101.837 366.595V366.97H55.5938Z" fill="white" stroke="#1B771B" stroke-width="2.89286" stroke-linecap="round" stroke-linejoin="round"/>
<path d="M67.365 371.596C69.5288 371.596 71.2831 369.842 71.2831 367.678C71.2831 365.515 69.5288 363.76 67.365 363.76C65.2015 363.76 63.4473 365.515 63.4473 367.678C63.4473 369.842 65.2015 371.596 67.365 371.596Z" fill="white" stroke="#1B771B" stroke-width="2.89286" stroke-linecap="round" stroke-linejoin="round"/>
<path d="M89.7282 371.596C91.8921 371.596 93.6459 369.842 93.6459 367.678C93.6459 365.515 91.8921 363.76 89.7282 363.76C87.5644 363.76 85.8105 365.515 85.8105 367.678C85.8105 369.842 87.5644 371.596 89.7282 371.596Z" fill="white" stroke="#1B771B" stroke-width="2.89286" stroke-linecap="round" stroke-linejoin="round"/>
<path d="M51.6322 363.03H43.3174" stroke="#1B771B" stroke-width="2.89286" stroke-linecap="round" stroke-linejoin="round"/>
<path d="M49.1324 366.97H38.4209" stroke="#1B771B" stroke-width="2.89286" stroke-linecap="round" stroke-linejoin="round"/>
<path d="M21.9785 292.427V278.798" stroke="#1B771B" stroke-width="2.89286" stroke-linecap="round" stroke-linejoin="round"/>
<path d="M33.7725 292.427V278.798" stroke="#1B771B" stroke-width="2.89286" stroke-linecap="round" stroke-linejoin="round"/>
<path d="M26.292 292.426V270.503" stroke="#1B771B" stroke-width="2.89286" stroke-linecap="round" stroke-linejoin="round"/>
<path d="M30.0439 286.78V264.857" stroke="#1B771B" stroke-width="2.89286" stroke-linecap="round" stroke-linejoin="round"/>
<path d="M85.1559 287.442L55.8906 316.707L61.5344 322.35L90.7997 293.085L85.1559 287.442Z" fill="#1B771B"/>
<path d="M29.265 349.517L0 378.782L5.64377 384.426L34.9088 355.161L29.265 349.517Z" fill="#1B771B"/>
</g>
<text fill="#1E1E1E" xml:space="preserve" style="white-space: pre" font-family="Titillium Web" font-size="40" font-weight="600" letter-spacing="0px"><tspan x="149" y="337.9">Reducerea polu&#x103;rii</tspan></text>
<text fill="#1E1E1E" xml:space="preserve" style="white-space: pre" font-family="Titillium Web" font-size="20" font-weight="600" letter-spacing="0px"><tspan x="372" y="61.45">Footprint&#13;calculator&#13;</tspan></text>
<defs>
<clipPath id="clip0">
<rect width="108" height="123.429" fill="white" transform="translate(0 261)"/>
</clipPath>
</defs>
</svg>
