<svg width="1006" height="687" viewBox="0 0 1006 687" fill="none" xmlns="http://www.w3.org/2000/svg">
<path d="M1001.12 4C999.902 5.6011 998.817 7.22934 997.894 8.91185C991.599 20.2552 989.699 35.2893 984.489 47.3382C977.053 64.5433 964.054 69.5908 951.517 82.8609C939.441 95.6426 927.609 108.641 915.696 121.07C905.248 131.979 892.927 145.114 880.661 153.825C875.505 157.488 870.431 162.943 864.569 164.897C857.947 167.122 852.33 166.824 845.166 170.189C832.031 176.349 821.963 185.114 810.24 193.174C800.715 199.714 790.81 208.452 781.04 214.314C773.361 218.927 768.123 217.435 760.389 219.199C751.814 221.18 743.157 223.486 734.5 225.847C723.645 228.805 712.736 231.845 701.827 234.395C666.277 242.645 631.623 256.784 596.778 264.274C577.809 268.344 560.116 276.35 541.771 283.704C511.404 295.861 478.188 300.665 449.559 316.784C440.251 322.022 431.729 324.518 421.417 327.503C394.741 335.238 371.078 350.027 346.681 362.863C339.246 366.771 334.632 371.493 327.875 376.541C322.665 380.394 314.198 381.1 308.581 384.437C284.455 398.766 260.71 413.23 233.736 421.127C206.463 429.105 179.19 419.255 152.161 426.202C128.85 432.199 104.834 424.601 84.9965 443.081C65.2406 461.48 65.2406 491.603 42.5538 508.401C37.3164 512.281 31.8346 515.348 26.2715 518.116" stroke="#FFA506" stroke-width="10.1816" stroke-miterlimit="10" stroke-linejoin="round" stroke-dasharray="12.73 12.73"/>
<path d="M26.2715 537.329C37.4672 537.329 46.5431 528.253 46.5431 517.057C46.5431 505.862 37.4672 496.786 26.2715 496.786C15.0759 496.786 6 505.862 6 517.057C6 528.253 15.0759 537.329 26.2715 537.329Z" fill="white" stroke="#FFA506" stroke-width="10.1816" stroke-miterlimit="10" stroke-linecap="round" stroke-linejoin="round"/>
<path d="M50.2334 683.424C50.2334 683.424 147.233 682.902 147.233 683.424H50.2334Z" fill="white"/>
<path d="M50.2334 683.424C50.2334 683.424 147.233 682.902 147.233 683.424" stroke="#FFA506" stroke-width="2.425" stroke-linecap="round" stroke-linejoin="round"/>
<path d="M70.1357 683.063L78.6107 634.443H104.819L96.3439 683.063" fill="white"/>
<path d="M70.1357 683.063L78.6107 634.443H104.819L96.3439 683.063" stroke="#FFA506" stroke-width="2.425" stroke-linecap="round" stroke-linejoin="round"/>
<path d="M106.545 683.064L114.177 639.223" stroke="#FFA506" stroke-width="2.425" stroke-linecap="round" stroke-linejoin="round"/>
<path d="M120.984 683.062V621.468" stroke="#FFA506" stroke-width="2.425" stroke-linecap="round" stroke-linejoin="round"/>
<path d="M128.657 683.062V621.468H90.9219V634.442" stroke="#FFA506" stroke-width="2.425" stroke-linecap="round" stroke-linejoin="round"/>
<path d="M114.178 639.223C113.31 639.611 112.356 639.763 111.411 639.664C110.466 639.566 109.564 639.22 108.795 638.661C107.942 638.257 107.191 637.666 106.596 636.933C106.002 636.199 105.58 635.342 105.361 634.424" fill="white"/>
<path d="M114.178 639.223C113.31 639.611 112.356 639.763 111.411 639.664C110.466 639.566 109.564 639.22 108.795 638.661C107.942 638.257 107.191 637.666 106.596 636.933C106.002 636.199 105.58 635.342 105.361 634.424" stroke="#FFA506" stroke-width="2.425" stroke-linecap="round" stroke-linejoin="round"/>
<path d="M93.2709 657.077L95.219 645.851H81.9442L79.9961 657.077H93.2709Z" fill="white" stroke="#FFA506" stroke-width="2.425" stroke-linecap="round" stroke-linejoin="round"/>
<path d="M107.349 637.597L100.621 678.586" stroke="#FFA506" stroke-width="2.425" stroke-linecap="round" stroke-linejoin="round"/>
<path d="M110.643 639.687L103.072 682.644" stroke="#FFA506" stroke-width="2.425" stroke-linecap="round" stroke-linejoin="round"/>
<path d="M130.425 655.168L126.87 637.113L123.798 621.428L131.65 619.4L135.807 634.522L140.748 652.537" fill="white"/>
<path d="M130.425 655.168L126.87 637.113L123.798 621.428L131.65 619.4L135.807 634.522L140.748 652.537" stroke="#FFA506" stroke-width="2.425" stroke-linecap="round" stroke-linejoin="round"/>
<path d="M141.531 652.336L146.612 672.198C147.736 676.576 147.736 681.657 142.997 682.862C138.257 684.067 136.149 679.528 134.964 675.17L129.883 655.288L141.531 652.336Z" fill="white" stroke="#FFA506" stroke-width="2.425" stroke-linecap="round" stroke-linejoin="round"/>
<path d="M127.796 639.163H128.137L136.291 637.155" fill="white"/>
<path d="M127.796 639.163H128.137L136.291 637.155" stroke="#FFA506" stroke-width="2.425" stroke-linecap="round" stroke-linejoin="round"/>
<path d="M123.234 602.51L120.984 614.56C123.114 616.215 124.656 618.51 125.383 621.107" fill="white"/>
<path d="M123.234 602.51L120.984 614.56C123.114 616.215 124.656 618.51 125.383 621.107" stroke="#FFA506" stroke-width="2.425" stroke-linecap="round" stroke-linejoin="round"/>
<path d="M123.232 602.51L130.985 611.989C129.157 615.002 130.262 619.842 130.262 619.842" fill="white"/>
<path d="M123.232 602.51L130.985 611.989C129.157 615.002 130.262 619.842 130.262 619.842" stroke="#FFA506" stroke-width="2.425" stroke-linecap="round" stroke-linejoin="round"/>
<path d="M123.255 602.39L123.396 602.872L125.785 611.93" fill="white"/>
<path d="M123.255 602.39L123.396 602.872L125.785 611.93" stroke="#FFA506" stroke-width="2.425" stroke-linecap="round" stroke-linejoin="round"/>
<path d="M126.068 614.342C126.623 614.342 127.073 613.892 127.073 613.338C127.073 612.783 126.623 612.333 126.068 612.333C125.514 612.333 125.064 612.783 125.064 613.338C125.064 613.892 125.514 614.342 126.068 614.342Z" fill="white" stroke="#FFA506" stroke-width="2.425" stroke-linecap="round" stroke-linejoin="round"/>
<path d="M132.853 607.172V598.496C132.853 598.496 56.1572 598.114 56.1572 598.496V650.973H75.738" stroke="#FFA506" stroke-width="2.425" stroke-linecap="round" stroke-linejoin="round"/>
<path d="M136.851 624.884V593.233H50.9971V657.438H74.6145" stroke="#FFA506" stroke-width="2.425" stroke-linecap="round" stroke-linejoin="round"/>
<path d="M73.1886 665.512H50.9971V660.29H74.1124" stroke="#FFA506" stroke-width="2.425" stroke-linecap="round" stroke-linejoin="round"/>
<text fill="#1E1E1E" xml:space="preserve" style="white-space: pre" font-family="Titillium Web" font-size="40" font-weight="600" letter-spacing="0px"><tspan x="179" y="626.9">&#xce;nv&#x103;&#x21b;&#x103;m&#xe2;nt </tspan><tspan x="179" y="668.9">preuniversitar&#13;de calitate</tspan></text>
</svg>
