<svg width="953" height="448" viewBox="0 0 953 448" fill="none" xmlns="http://www.w3.org/2000/svg">
<path d="M248.5 234.5L250.5 190.5C250.333 181.667 251.7 161.4 258.5 151" stroke="#C8CEDB" stroke-width="10"/>
<path d="M123.717 382.03C123.435 384.78 123.769 387.504 123.203 390.279C122.073 395.958 118.989 401.817 115.34 406.648C111.896 411.222 108.916 415.488 105.96 420.345C102.979 425.253 99.0477 429.262 95.9897 434.042C95.2188 435.224 94.6791 436.92 93.8825 438.05C92.3407 440.235 90.6189 441.057 89 443.113" stroke="#C8CEDB" stroke-width="9.64142" stroke-miterlimit="10" stroke-linecap="round" stroke-linejoin="round"/>
<path d="M146.869 317.067C143.914 320.125 141.396 323.568 139.571 327.551C137.49 332.074 136.565 337.83 135.562 342.79C134.971 345.745 135.948 348.366 134.843 351.45C132.633 357.591 129.318 363.502 127.031 369.644C125.772 372.984 124.692 376.813 123.973 380.308C123.844 380.873 123.767 381.464 123.716 382.03" stroke="#C8CEDB" stroke-width="9.64142" stroke-miterlimit="10" stroke-linecap="round" stroke-linejoin="round"/>
<path d="M247.5 236C245.316 244.994 241.334 248.583 234.087 254.597C230.412 257.655 225.838 259.171 221.444 260.969C218.617 262.126 215.842 263.385 213.401 265.261C202.813 273.381 194.693 283.121 184.26 291.395C181.793 293.348 179.223 295.198 176.448 296.946C166.683 303.088 155.093 308.587 146.87 317.093" stroke="#C8CEDB" stroke-width="9.64142" stroke-miterlimit="10" stroke-linecap="round" stroke-linejoin="round"/>
<path d="M255.442 156.278C263.614 142.479 288.232 127.266 302.571 122.229C317.373 117.038 332.124 123.437 345.769 131.943C354.712 137.519 363.192 143.995 370.901 148.672C373.933 150.522 377.402 153.452 380.949 156.484C386.396 161.109 392.05 165.915 396.701 167.251C402.329 168.87 408.985 167.791 415.794 165.427C428.566 160.981 441.903 151.91 449.946 147.31C465.75 138.29 488.749 142.967 502.395 130.041C504.682 127.883 505.684 125.056 507.714 122.717C511.928 117.809 520.974 108.764 531.741 100.9C536.547 97.4055 541.686 94.1419 546.903 91.5721C561.961 84.1713 574.784 91.7263 584.061 89.465C585.937 89.0024 594.083 87.7432 596.678 87.1265C599.531 86.4327 612.611 82.5267 622.813 79.0061" stroke="#F90000" stroke-width="9.64142" stroke-miterlimit="10" stroke-linejoin="round" stroke-dasharray="12.05 12.05"/>
<path d="M632.012 91.392C642.614 91.392 651.208 82.7976 651.208 72.196C651.208 61.5943 642.614 53 632.012 53C621.411 53 612.816 61.5943 612.816 72.196C612.816 82.7976 621.411 91.392 632.012 91.392Z" fill="white" stroke="#F90000" stroke-width="9.64142" stroke-miterlimit="10" stroke-linecap="round" stroke-linejoin="round"/>
<path d="M123.255 394.159C128.577 394.159 132.891 389.845 132.891 384.523C132.891 379.2 128.577 374.886 123.255 374.886C117.933 374.886 113.618 379.2 113.618 384.523C113.618 389.845 117.933 394.159 123.255 394.159Z" fill="#404366"/>
<path d="M145.893 327.166C151.215 327.166 155.53 322.852 155.53 317.53C155.53 312.208 151.215 307.893 145.893 307.893C140.571 307.893 136.257 312.208 136.257 317.53C136.257 322.852 140.571 327.166 145.893 327.166Z" fill="#404366"/>
<path d="M196.055 289.776C201.378 289.776 205.692 285.462 205.692 280.14C205.692 274.818 201.378 270.503 196.055 270.503C190.733 270.503 186.419 274.818 186.419 280.14C186.419 285.462 190.733 289.776 196.055 289.776Z" fill="#404366"/>
<path d="M247.863 242.416C253.185 242.416 257.5 238.102 257.5 232.78C257.5 227.458 253.185 223.143 247.863 223.143C242.541 223.143 238.227 227.458 238.227 232.78C238.227 238.102 242.541 242.416 247.863 242.416Z" fill="#404366"/>
<path d="M249.506 200.658C254.828 200.658 259.142 196.343 259.142 191.021C259.142 185.699 254.828 181.385 249.506 181.385C244.184 181.385 239.869 185.699 239.869 191.021C239.869 196.343 244.184 200.658 249.506 200.658Z" fill="#404366"/>
<path d="M259.143 162.24C264.465 162.24 268.78 157.925 268.78 152.603C268.78 147.281 264.465 142.967 259.143 142.967C253.821 142.967 249.507 147.281 249.507 152.603C249.507 157.925 253.821 162.24 259.143 162.24Z" fill="#404366"/>
<text fill="#1E1E1E" xml:space="preserve" style="white-space: pre" font-family="Titillium Web" font-size="40" font-weight="600" letter-spacing="0px"><tspan x="688" y="174.9">Sprijin pentru &#10;</tspan><tspan x="688" y="216.9">cei&#13;grav bolnavi</tspan></text>
<text fill="#1E1E1E" xml:space="preserve" style="white-space: pre" font-family="Titillium Web" font-size="20" font-weight="600" letter-spacing="0px"><tspan x="0" y="382.45">Prim ajutor&#13;</tspan></text>
<path d="M748.455 55.4727V67.5195C748.455 71.2783 746.962 74.8835 744.304 77.5411C741.646 80.1991 738.041 81.6923 734.282 81.6923H706.243C702.484 81.6923 698.879 80.1991 696.221 77.5411C693.564 74.8835 692.07 71.2783 692.07 67.5195V55.4727H748.455Z" stroke="#F90000" stroke-width="3" stroke-linecap="round" stroke-linejoin="round"/>
<path d="M748.455 20.3707V55.4724H692V20.3707C692 18.6542 692.682 17.0079 693.896 15.7941C695.109 14.5803 696.756 13.8984 698.472 13.8984H742.007C743.719 13.9047 745.359 14.5894 746.568 15.8024C747.777 17.0156 748.455 18.6582 748.455 20.3707Z" stroke="#F90000" stroke-width="3" stroke-linecap="round" stroke-linejoin="round"/>
<path d="M725.875 44.1544H736.67V55.4456H725.875V66.2404H714.584V55.4456H703.789V44.1544H714.584V33.3594H725.875V44.1544Z" fill="white" stroke="#F90000" stroke-width="3" stroke-linecap="round" stroke-linejoin="round"/>
<path d="M720.605 4C721.253 4 721.895 4.12768 722.494 4.3758C723.093 4.62392 723.637 4.98756 724.096 5.446C724.554 5.9044 724.918 6.44864 725.166 7.04764C725.414 7.6466 725.542 8.28856 725.542 8.93688V13.8974H715.668V8.96052C715.665 8.3102 715.79 7.66568 716.037 7.064C716.284 6.46228 716.647 5.91528 717.106 5.45432C717.564 4.9934 718.11 4.62764 718.71 4.37804C719.311 4.12848 719.955 3.99999 720.605 4Z" fill="white" stroke="#F90000" stroke-width="3" stroke-linecap="round" stroke-linejoin="round"/>
<path d="M715.926 81.7383V104.155" stroke="#F90000" stroke-width="3" stroke-linecap="round" stroke-linejoin="round"/>
<path d="M709.195 81.7383V104.155" stroke="#F90000" stroke-width="3" stroke-linecap="round" stroke-linejoin="round"/>
<path d="M728 81.74V93.8816C727.997 95.4116 728.296 96.9276 728.88 98.3416C729.464 99.756 730.322 101.041 731.404 102.123C732.486 103.205 733.771 104.063 735.185 104.647C736.6 105.231 738.115 105.53 739.646 105.527H755.07C758.142 105.502 761.08 104.264 763.244 102.083C765.407 99.9016 766.621 96.9536 766.621 93.8816V51.3628C766.621 49.3872 767.404 47.4924 768.799 46.0932C770.194 44.694 772.086 43.9048 774.062 43.8984C776.038 43.9048 777.93 44.694 779.325 46.0932C780.72 47.4924 781.503 49.3872 781.503 51.3628V68.5356" stroke="#F90000" stroke-width="3" stroke-linecap="round" stroke-linejoin="round"/>
<path d="M770.256 70.7773H762.957V82.6117H770.256V70.7773Z" fill="white" stroke="#F90000" stroke-width="3" stroke-linecap="round" stroke-linejoin="round"/>
<path d="M788.002 99.1487C787.903 100.776 787.187 102.304 785.999 103.422C784.812 104.539 783.243 105.161 781.612 105.161C779.982 105.161 778.413 104.539 777.225 103.422C776.038 102.304 775.321 100.776 775.223 99.1487C775.223 95.6055 781.6 86.0859 781.6 86.0859C781.6 86.0859 788.002 95.6055 788.002 99.1487Z" fill="#F90000" stroke="#F90000" stroke-width="3" stroke-linecap="round" stroke-linejoin="round"/>
<text fill="#1E1E1E" xml:space="preserve" style="white-space: pre" font-family="Titillium Web" font-size="20" font-weight="600" letter-spacing="0px"><tspan x="168" y="340.45">Asistent comunitar</tspan></text>
<text fill="#1E1E1E" xml:space="preserve" style="white-space: pre" font-family="Titillium Web" font-size="20" font-weight="600" letter-spacing="0px"><tspan x="115" y="269.45">Smove&#13;</tspan></text>
<text fill="#1E1E1E" xml:space="preserve" style="white-space: pre" font-family="Titillium Web" font-size="20" font-weight="600" letter-spacing="0px"><tspan x="275" y="242.45">RecuperApp</tspan></text>
<text fill="#1E1E1E" xml:space="preserve" style="white-space: pre" font-family="Titillium Web" font-size="20" font-weight="600" letter-spacing="0px"><tspan x="84" y="190.45">Ac&#x21b;iuni prioritare</tspan></text>
<text fill="#1E1E1E" xml:space="preserve" style="white-space: pre" font-family="Titillium Web" font-size="20" font-weight="600" letter-spacing="0px"><tspan x="168" y="142.45">S&#x103;n&#x103;tos</tspan></text>
</svg>
