<svg width="377" height="537" viewBox="0 0 377 537" fill="none" xmlns="http://www.w3.org/2000/svg">
<g clip-path="url(#clip0)">
<path d="M93.3068 412.118C107.494 396.122 125.353 386.314 145.021 377.896" stroke="#00B4CC" stroke-width="9.83917" stroke-miterlimit="10" stroke-linecap="round" stroke-linejoin="round"/>
<path d="M93.307 412.118C89.8454 416.025 86.5936 420.3 83.5777 425.02C70.6491 445.318 57.9302 465.642 43.3756 484.707C40.4647 488.51 37.4751 492.286 34.4068 495.984C30.2371 501.019 26.5132 506.736 23.5499 512.794" stroke="#C8CEDB" stroke-width="9.83917" stroke-miterlimit="10" stroke-linecap="round" stroke-linejoin="round"/>
<path d="M255.269 346.662C248.791 350.071 241.396 354.345 234.761 356.05C231.09 356.994 227.838 356.129 224.219 356.653C220.39 357.204 218.371 359.223 215.198 359.957C211.264 360.902 207.147 359.748 203.108 360.167C198.309 360.692 197.051 362.973 192.828 363.97C189.55 364.73 186.246 363.629 182.863 364.547C181.237 364.993 181.185 366.907 178.746 367.484C177.015 367.877 174.917 366.776 173.186 367.195C166.656 368.716 159.182 372.047 152.469 374.774C149.951 375.797 147.46 376.82 144.995 377.895" stroke="#C8CEDB" stroke-width="9.83917" stroke-miterlimit="10" stroke-linecap="round" stroke-linejoin="round"/>
<path d="M303.076 306.958C293.111 314.589 283.041 324.161 274.439 332.998C270.112 337.457 265.051 341.889 259.491 344.537C258.154 345.193 256.737 345.901 255.269 346.688" stroke="#C8CEDB" stroke-width="9.83917" stroke-miterlimit="10" stroke-linecap="round" stroke-linejoin="round"/>
<path d="M355.343 248.293C354.871 249.028 354.373 249.762 353.848 250.523C347.292 259.701 341.759 269.535 336.016 279.238C332.79 284.719 329.46 289.151 324.608 293.426C318.891 298.461 311.758 300.585 306.015 304.755C305.045 305.463 304.048 306.197 303.078 306.958" stroke="#C8CEDB" stroke-width="9.83917" stroke-miterlimit="10" stroke-linecap="round" stroke-linejoin="round"/>
<path d="M361.556 199.28C361.556 200.172 361.556 201.064 361.556 201.981C361.556 220.286 364.467 233.844 355.367 248.294" stroke="#C8CEDB" stroke-width="9.83917" stroke-miterlimit="10" stroke-linecap="round" stroke-linejoin="round"/>
<path d="M354.765 129.758C354.057 133.928 353.795 137.075 354.188 138.884C356.496 149.82 361.112 154.357 361.636 166.709C361.767 169.96 361.82 173.239 361.846 176.517C361.872 184.095 361.636 191.753 361.584 199.332" stroke="#00B4CC" stroke-width="9.83917" stroke-miterlimit="10" stroke-linecap="round" stroke-linejoin="round"/>
<path d="M365.098 4.92969C378.525 23.3131 368.402 69.337 360.666 102.695C358.148 113.499 355.893 122.992 354.766 129.758" stroke="#C8CEDB" stroke-width="9.83917" stroke-miterlimit="10" stroke-linecap="round" stroke-linejoin="round"/>
<path d="M24.5197 531.755C35.3388 531.755 44.1094 522.984 44.1094 512.165C44.1094 501.346 35.3388 492.575 24.5197 492.575C13.7006 492.575 4.92999 501.346 4.92999 512.165C4.92999 522.984 13.7006 531.755 24.5197 531.755Z" fill="white" stroke="#00B4CC" stroke-width="9.83917" stroke-miterlimit="10" stroke-linecap="round" stroke-linejoin="round"/>
<path d="M63.7504 464.724C69.1817 464.724 73.5846 460.321 73.5846 454.89C73.5846 449.459 69.1817 445.056 63.7504 445.056C58.3192 445.056 53.9163 449.459 53.9163 454.89C53.9163 460.321 58.3192 464.724 63.7504 464.724Z" fill="#404366"/>
<path d="M93.3067 421.14C98.7379 421.14 103.141 416.737 103.141 411.305C103.141 405.874 98.7379 401.471 93.3067 401.471C87.8754 401.471 83.4725 405.874 83.4725 411.305C83.4725 416.737 87.8754 421.14 93.3067 421.14Z" fill="white" stroke="#00B4CC" stroke-width="5.2449" stroke-miterlimit="10" stroke-linecap="round" stroke-linejoin="round"/>
<path d="M149.821 385.71C155.252 385.71 159.655 381.307 159.655 375.876C159.655 370.444 155.252 366.042 149.821 366.042C144.389 366.042 139.987 370.444 139.987 375.876C139.987 381.307 144.389 385.71 149.821 385.71Z" fill="#404366"/>
<path d="M255.268 356.496C260.7 356.496 265.102 352.093 265.102 346.662C265.102 341.23 260.7 336.827 255.268 336.827C249.837 336.827 245.434 341.23 245.434 346.662C245.434 352.093 249.837 356.496 255.268 356.496Z" fill="#404366"/>
<path d="M307.167 313.094C312.598 313.094 317.001 308.691 317.001 303.26C317.001 297.829 312.598 293.426 307.167 293.426C301.736 293.426 297.333 297.829 297.333 303.26C297.333 308.691 301.736 313.094 307.167 313.094Z" fill="#404366"/>
<path d="M350.832 263.95C356.264 263.95 360.667 259.547 360.667 254.115C360.667 248.684 356.264 244.281 350.832 244.281C345.401 244.281 340.998 248.684 340.998 254.115C340.998 259.547 345.401 263.95 350.832 263.95Z" fill="#404366"/>
<path d="M361.688 208.564C367.119 208.564 371.522 204.161 371.522 198.729C371.522 193.298 367.119 188.895 361.688 188.895C356.257 188.895 351.854 193.298 351.854 198.729C351.854 204.161 356.257 208.564 361.688 208.564Z" fill="white" stroke="#00B4CC" stroke-width="5.2449" stroke-miterlimit="10" stroke-linecap="round" stroke-linejoin="round"/>
<path d="M355.551 139.593C360.983 139.593 365.386 135.19 365.386 129.759C365.386 124.327 360.983 119.924 355.551 119.924C350.12 119.924 345.717 124.327 345.717 129.759C345.717 135.19 350.12 139.593 355.551 139.593Z" fill="#404366"/>
<path d="M366.777 82.371C372.208 82.371 376.611 77.9681 376.611 72.5368C376.611 67.1056 372.208 62.7026 366.777 62.7026C361.345 62.7026 356.942 67.1056 356.942 72.5368C356.942 77.9681 361.345 82.371 366.777 82.371Z" fill="#404366"/>
</g>
<defs>
<clipPath id="clip0">
<rect width="376.61" height="536.658" fill="white"/>
</clipPath>
</defs>
</svg>
