<svg width="615" height="543" viewBox="0 0 615 543" fill="none" xmlns="http://www.w3.org/2000/svg">
<g clip-path="url(#clip0)">
<path d="M509.903 343.64C508.292 347.436 504.824 350.713 499.662 355.328C491.388 362.728 484.398 371.467 475.741 378.676C465.091 387.551 452.475 394.596 439.312 400.467" stroke="#FFA506" stroke-width="10.2456" stroke-miterlimit="10" stroke-linecap="round" stroke-linejoin="round"/>
<path d="M438.903 420.866C450.169 420.866 459.302 411.733 459.302 400.467C459.302 389.201 450.169 380.068 438.903 380.068C427.637 380.068 418.504 389.201 418.504 400.467C418.504 411.733 427.637 420.866 438.903 420.866Z" fill="white" stroke="#FFA506" stroke-width="10.2456" stroke-miterlimit="10" stroke-linecap="round" stroke-linejoin="round"/>
<path d="M485.981 277.118C496.085 293.366 503.349 311.799 509.166 329.358C510.558 333.591 511.132 336.84 510.886 339.626C510.777 341.073 510.422 342.384 509.903 343.64" stroke="#FFA506" stroke-width="10.2456" stroke-miterlimit="10" stroke-linecap="round" stroke-linejoin="round"/>
<path d="M510.941 354.345C516.596 354.345 521.181 349.76 521.181 344.104C521.181 338.449 516.596 333.864 510.941 333.864C505.285 333.864 500.7 338.449 500.7 344.104C500.7 349.76 505.285 354.345 510.941 354.345Z" fill="white" stroke="#FFA506" stroke-width="5.46154" stroke-miterlimit="10" stroke-linecap="round" stroke-linejoin="round"/>
<path d="M443.382 238.396C455.479 244.158 466.866 251.75 476.151 263.219C479.701 267.616 482.978 272.258 485.982 277.119" stroke="#FFA506" stroke-width="10.2456" stroke-miterlimit="10" stroke-linecap="round" stroke-linejoin="round"/>
<path d="M485.982 286.349C491.637 286.349 496.222 281.764 496.222 276.108C496.222 270.453 491.637 265.868 485.982 265.868C480.326 265.868 475.741 270.453 475.741 276.108C475.741 281.764 480.326 286.349 485.982 286.349Z" fill="white" stroke="#FFA506" stroke-width="5.46154" stroke-miterlimit="10" stroke-linecap="round" stroke-linejoin="round"/>
<path d="M363.562 212.317C382.759 220.974 404.387 223.65 424.075 230.613C425.413 231.078 426.752 231.569 428.117 232.061C433.278 233.972 438.412 236.02 443.409 238.423" stroke="#C8CEDB" stroke-width="10.2456" stroke-miterlimit="10" stroke-linecap="round" stroke-linejoin="round"/>
<path d="M442.89 247.981C448.545 247.981 453.13 243.397 453.13 237.741C453.13 232.085 448.545 227.501 442.89 227.501C437.234 227.501 432.649 232.085 432.649 237.741C432.649 243.397 437.234 247.981 442.89 247.981Z" fill="#404366"/>
<path d="M308.781 174.714C323.773 185.064 338.137 197.708 353.866 207.238C357.007 209.149 360.256 210.815 363.588 212.317" stroke="#C8CEDB" stroke-width="10.2456" stroke-miterlimit="10" stroke-linecap="round" stroke-linejoin="round"/>
<path d="M363.562 223.595C369.217 223.595 373.802 219.01 373.802 213.355C373.802 207.699 369.217 203.114 363.562 203.114C357.906 203.114 353.321 207.699 353.321 213.355C353.321 219.01 357.906 223.595 363.562 223.595Z" fill="#404366"/>
<path d="M251.627 137.876C265.882 150.766 282.84 158.794 299.06 168.461C302.337 170.4 305.56 172.503 308.755 174.714" stroke="#C8CEDB" stroke-width="10.2456" stroke-miterlimit="10" stroke-linecap="round" stroke-linejoin="round"/>
<path d="M307.69 184.982C313.345 184.982 317.93 180.397 317.93 174.742C317.93 169.086 313.345 164.501 307.69 164.501C302.034 164.501 297.449 169.086 297.449 174.742C297.449 180.397 302.034 184.982 307.69 184.982Z" fill="#404366"/>
<path d="M241.769 84.6264C242.643 87.6302 243.135 90.4702 242.998 92.9279C242.07 109.231 231.065 115.484 243.954 130.148C246.412 132.934 248.951 135.501 251.6 137.904" stroke="#C8CEDB" stroke-width="10.2456" stroke-miterlimit="10" stroke-linecap="round" stroke-linejoin="round"/>
<path d="M252.091 150.138C257.747 150.138 262.331 145.553 262.331 139.897C262.331 134.242 257.747 129.657 252.091 129.657C246.435 129.657 241.851 134.242 241.851 139.897C241.851 145.553 246.435 150.138 252.091 150.138Z" fill="#404366"/>
<path d="M193.134 5.13354C202.937 24.8497 219.486 39.9782 230.218 59.9674C233.576 66.2482 239.256 76.1062 241.769 84.6536" stroke="#FFA506" stroke-width="10.2456" stroke-miterlimit="10" stroke-linecap="round" stroke-linejoin="round"/>
<path d="M240.103 94.8669C245.758 94.8669 250.343 90.2821 250.343 84.6265C250.343 78.9709 245.758 74.3861 240.103 74.3861C234.447 74.3861 229.862 78.9709 229.862 84.6265C229.862 90.2821 234.447 94.8669 240.103 94.8669Z" fill="white" stroke="#FFA506" stroke-width="5.46154" stroke-miterlimit="10" stroke-linecap="round" stroke-linejoin="round"/>
<text fill="#404366" xml:space="preserve" style="white-space: pre" font-family="Titillium Web" font-size="20" font-weight="600" letter-spacing="0px"><tspan x="277" y="84.95">&#x218;coala profesorilor&#13;</tspan></text>
<text fill="#404366" xml:space="preserve" style="white-space: pre" font-family="Titillium Web" font-size="20" font-weight="600" letter-spacing="0px"><tspan x="291" y="134.95">Resurse Profesori</tspan></text>
<text fill="#404366" xml:space="preserve" style="white-space: pre" font-family="Titillium Web" font-size="20" font-weight="600" letter-spacing="0px"><tspan x="177" y="231.95">Teacher Workout</tspan></text>
<text fill="#404366" xml:space="preserve" style="white-space: pre" font-family="Titillium Web" font-size="20" font-weight="600" letter-spacing="0px"><tspan x="521" y="275.95">Acces</tspan></text>
<text fill="#404366" xml:space="preserve" style="white-space: pre" font-family="Titillium Web" font-size="20" font-weight="600" letter-spacing="0px"><tspan x="463" y="219.95">Profesor in Spital&#13;</tspan></text>
<text fill="#404366" xml:space="preserve" style="white-space: pre" font-family="Titillium Web" font-size="20" font-weight="600" letter-spacing="0px"><tspan x="408" y="338.95">eSense</tspan></text>
<path d="M354.001 415.573H269.942V507.726H308.544" stroke="#FFA506" stroke-width="2.97794" stroke-linecap="round" stroke-linejoin="round"/>
<path d="M364.716 453.425V462.783C362.833 464.339 360.468 465.19 358.025 465.19C355.583 465.19 353.217 464.339 351.334 462.783V456.092" stroke="#FFA506" stroke-width="2.97794" stroke-linecap="round" stroke-linejoin="round"/>
<path d="M351.731 449.592C352.464 449.891 353.257 450.013 354.046 449.948C354.834 449.883 355.596 449.633 356.27 449.218" stroke="#FFA506" stroke-width="2.97794" stroke-linecap="round" stroke-linejoin="round"/>
<path d="M356.504 436.393C357.936 436.298 359.375 436.44 360.762 436.814" stroke="#FFA506" stroke-width="2.97794" stroke-linecap="round" stroke-linejoin="round"/>
<path d="M346.773 437.121L349.978 435.577" stroke="#FFA506" stroke-width="2.97794" stroke-linecap="round" stroke-linejoin="round"/>
<path d="M347.685 443.084C347.654 442.8 347.683 442.513 347.771 442.241C347.859 441.969 348.003 441.719 348.194 441.506C348.385 441.294 348.618 441.124 348.879 441.007C349.14 440.891 349.422 440.831 349.708 440.831C349.994 440.831 350.276 440.891 350.537 441.007C350.798 441.124 351.032 441.294 351.222 441.506C351.413 441.719 351.557 441.969 351.645 442.241C351.733 442.513 351.762 442.8 351.732 443.084" stroke="#FFA506" stroke-width="2.97794" stroke-linecap="round" stroke-linejoin="round"/>
<path d="M356.692 443.087C356.692 442.553 356.904 442.042 357.282 441.664C357.659 441.287 358.171 441.075 358.704 441.075C359.238 441.075 359.75 441.287 360.127 441.664C360.505 442.042 360.717 442.553 360.717 443.087" stroke="#FFA506" stroke-width="2.97794" stroke-linecap="round" stroke-linejoin="round"/>
<path d="M351.287 462.832C351.287 462.832 337.25 464.002 330.582 472.775C326.441 478.273 323.704 496.287 323.704 496.287" stroke="#FFA506" stroke-width="2.97794" stroke-linecap="round" stroke-linejoin="round"/>
<path d="M364.714 462.716C364.714 462.716 378.752 464.002 385.419 472.776C389.958 478.765 393.514 492.662 394.169 503.189C394.413 508.462 392.835 513.658 389.701 517.905C386.546 521.92 382.309 524.948 377.488 526.631C372.595 528.348 367.55 529.602 362.422 530.374" stroke="#FFA506" stroke-width="2.97794" stroke-linecap="round" stroke-linejoin="round"/>
<path d="M377.746 504.849C372.678 508.897 367.243 512.461 361.51 515.494C362.602 516.327 363.504 517.384 364.154 518.595C364.804 519.805 365.187 521.141 365.276 522.512C365.407 523.952 365.218 525.402 364.725 526.761C364.232 528.119 363.445 529.352 362.422 530.373" stroke="#FFA506" stroke-width="2.97794" stroke-linecap="round" stroke-linejoin="round"/>
<path d="M335.4 517.225C333.464 518.281 331.335 518.936 329.14 519.149C326.945 519.362 324.73 519.129 322.627 518.465C318.462 517.038 314.719 512.336 312.333 508.85C308.192 502.767 306.11 495.842 302.624 489.385C302.611 489.339 302.611 489.291 302.624 489.245C306.489 487.024 310.48 485.032 314.579 483.279L314.906 483.138C318.194 488.783 321.893 494.179 325.972 499.281" stroke="#FFA506" stroke-width="2.97794" stroke-linecap="round" stroke-linejoin="round"/>
<path d="M361.488 515.492C359.944 514.229 358.049 512.591 356.505 511.328C356.356 511.229 356.181 511.177 356.002 511.177C355.823 511.177 355.648 511.229 355.499 511.328C355.324 511.414 355.178 511.548 355.074 511.713C354.971 511.878 354.915 512.069 354.914 512.264C354.797 513.77 355.029 515.283 355.592 516.685" stroke="#FFA506" stroke-width="2.97794" stroke-linecap="round" stroke-linejoin="round"/>
<path d="M357.136 517.014C354.337 516.616 351.501 516.569 348.691 516.873C347.994 516.91 347.315 517.101 346.702 517.435C346.399 517.605 346.157 517.865 346.01 518.18C345.863 518.495 345.819 518.848 345.883 519.189C346.117 520.148 347.31 520.453 348.222 520.593L354.352 521.482C352.292 521.619 350.264 522.069 348.34 522.816C347.521 523.167 346.912 523.634 346.936 524.383C346.935 524.614 346.998 524.841 347.118 525.039C347.237 525.238 347.409 525.399 347.614 525.506C348.044 525.689 348.504 525.793 348.971 525.81L355.194 526.254" stroke="#FFA506" stroke-width="2.97794" stroke-linecap="round" stroke-linejoin="round"/>
<path d="M351.054 529.739C354.719 530.973 358.655 531.168 362.424 530.3" stroke="#FFA506" stroke-width="2.97794" stroke-linecap="round" stroke-linejoin="round"/>
<path d="M336.102 484.496C334.189 493.719 334.952 503.298 338.301 512.102C333.186 520.255 329.987 529.462 328.943 539.03" stroke="#FFA506" stroke-width="2.97794" stroke-linecap="round" stroke-linejoin="round"/>
<path d="M365.698 492.286C364.552 492.427 344.643 494.275 343.403 494.415C342.616 494.63 341.777 494.529 341.063 494.135C340.791 493.924 340.585 493.641 340.469 493.318C340.353 492.995 340.332 492.645 340.408 492.31C340.475 491.975 340.615 491.66 340.817 491.385C341.019 491.11 341.279 490.883 341.578 490.719C342.806 490.21 344.137 490.002 345.461 490.111L349.182 489.83L365.207 488.66" stroke="#FFA506" stroke-width="2.97794" stroke-linecap="round" stroke-linejoin="round"/>
<path d="M340.55 494.601C340.55 494.882 342.609 528.594 342.609 528.594L349.791 528.033" stroke="#FFA506" stroke-width="2.97794" stroke-linecap="round" stroke-linejoin="round"/>
<path d="M346.423 489.711V486.67L375.152 484.798" stroke="#FFA506" stroke-width="2.97794" stroke-linecap="round" stroke-linejoin="round"/>
<path d="M367.15 488.264L375.573 487.749C375.573 488.123 376.134 505.178 376.134 505.178" stroke="#FFA506" stroke-width="2.97794" stroke-linecap="round" stroke-linejoin="round"/>
<path d="M365.697 488.966C365.324 489.056 364.992 489.268 364.754 489.57C364.516 489.871 364.387 490.244 364.387 490.627C364.387 491.011 364.516 491.384 364.754 491.685C364.992 491.987 365.324 492.199 365.697 492.289L367.499 511.122" stroke="#FFA506" stroke-width="2.97794" stroke-linecap="round" stroke-linejoin="round"/>
<path d="M346.423 463.604L351.944 471.464L357.208 467.534L363.267 471.464L368.391 463.604" stroke="#FFA506" stroke-width="2.97794" stroke-linecap="round" stroke-linejoin="round"/>
<path d="M361.238 499.37L345.649 500.77L346.108 505.873L361.696 504.473L361.238 499.37Z" stroke="#FFA506" stroke-width="2.97794" stroke-linecap="round" stroke-linejoin="round"/>
<path d="M314.579 483.278C310.433 485.026 306.394 487.018 302.484 489.244C301.22 487.225 300.176 485.076 299.373 482.834C299.083 482.81 298.801 482.725 298.547 482.584C298.293 482.443 298.072 482.249 297.899 482.015C297.342 481.45 296.833 480.839 296.378 480.19C295.818 479.42 295.442 478.531 295.279 477.593C295.045 476.283 296.589 474.388 298.109 475.254C297.806 474.637 297.669 473.951 297.712 473.265C297.712 472.212 300.051 471.44 301.081 472.236C300.893 471.487 300.73 470.707 300.589 469.896C300.402 469.191 300.402 468.449 300.589 467.744C300.693 467.393 300.905 467.084 301.195 466.862C301.485 466.639 301.838 466.514 302.203 466.504C302.999 466.504 303.56 467.299 304.005 467.978C305.409 470.317 307.14 472.914 308.684 475.16C308.919 474.319 309.2 473.491 309.526 472.68C309.657 472.416 309.841 472.182 310.066 471.993C310.292 471.804 310.554 471.663 310.836 471.581C311.112 471.551 311.389 471.613 311.626 471.757C311.862 471.901 312.045 472.118 312.146 472.376C312.332 472.909 312.404 473.475 312.357 474.037C312.403 477.244 313.162 480.401 314.579 483.278Z" stroke="#FFA506" stroke-width="2.97794" stroke-linecap="round" stroke-linejoin="round"/>
<path d="M308.732 475.135C308.385 476.086 308.119 477.064 307.937 478.06" stroke="#FFA506" stroke-width="2.97794" stroke-linecap="round" stroke-linejoin="round"/>
<path d="M302.344 475.487C301.856 474.422 301.457 473.319 301.15 472.188" stroke="#FFA506" stroke-width="2.97794" stroke-linecap="round" stroke-linejoin="round"/>
<path d="M302.579 475.93C303.024 476.715 303.332 477.569 303.491 478.457C303.527 478.86 303.409 479.262 303.162 479.583C302.915 479.903 302.557 480.12 302.158 480.188C301.819 480.133 301.497 480.003 301.214 479.809C300.931 479.615 300.694 479.361 300.52 479.065C299.558 477.984 298.769 476.761 298.181 475.439C298.16 475.362 298.16 475.282 298.181 475.205" stroke="#FFA506" stroke-width="2.97794" stroke-linecap="round" stroke-linejoin="round"/>
<path d="M299.444 482.834C299.646 482.812 299.84 482.744 300.01 482.634C300.18 482.524 300.323 482.377 300.427 482.202C300.616 481.859 300.773 481.499 300.895 481.126" stroke="#FFA506" stroke-width="2.97794" stroke-linecap="round" stroke-linejoin="round"/>
<path d="M302.624 489.386C302.611 489.34 302.611 489.292 302.624 489.246" stroke="#FFA506" stroke-width="2.97794" stroke-linecap="round" stroke-linejoin="round"/>
<path d="M299.443 482.837C299.429 482.799 299.429 482.757 299.443 482.72" stroke="#FFA506" stroke-width="2.97794" stroke-linecap="round" stroke-linejoin="round"/>
<path d="M369.138 441.473V443.555C369.153 446.359 368.259 449.093 366.588 451.346C365.368 453.075 363.748 454.485 361.866 455.454C359.985 456.423 357.896 456.924 355.78 456.913C353.252 456.917 350.774 456.202 348.637 454.852C346.5 453.502 344.79 451.571 343.708 449.287C342.82 447.507 342.363 445.544 342.374 443.555V441.473C342.392 438.832 343.191 436.256 344.67 434.069C346.149 431.881 348.242 430.181 350.686 429.18C353.129 428.18 355.814 427.924 358.402 428.447C360.991 428.969 363.367 430.245 365.231 432.115C366.465 433.341 367.446 434.799 368.116 436.405C368.787 438.011 369.134 439.733 369.138 441.473Z" stroke="#FFA506" stroke-width="2.97794" stroke-linecap="round" stroke-linejoin="round"/>
<path d="M372.742 436.42V439.274C372.725 441.62 372.16 443.929 371.091 446.016C370.023 448.104 368.481 449.913 366.589 451.3C368.26 449.047 369.154 446.313 369.139 443.509V441.474C369.139 437.928 367.732 434.528 365.228 432.019C362.724 429.51 359.326 428.098 355.781 428.092C352.229 428.092 348.823 429.501 346.31 432.01C343.797 434.519 342.381 437.922 342.375 441.474V443.556C342.364 445.544 342.821 447.508 343.709 449.288C341.224 446.562 339.839 443.01 339.825 439.321V436.42C339.953 432.198 341.749 428.199 344.817 425.297C347.886 422.395 351.979 420.826 356.201 420.933H356.833H358.307C361.554 421.307 364.621 422.625 367.127 424.723C367.197 424.748 367.255 424.798 367.291 424.863C367.493 424.991 367.682 425.14 367.852 425.308C369.385 426.727 370.61 428.445 371.451 430.356C372.292 432.268 372.731 434.332 372.742 436.42Z" stroke="#FFA506" stroke-width="2.97794" stroke-linecap="round" stroke-linejoin="round"/>
<path d="M370.727 418.989C370.747 420.212 370.446 421.419 369.855 422.49C369.264 423.561 368.403 424.459 367.359 425.095C367.323 425.03 367.265 424.98 367.195 424.955C364.688 422.857 361.622 421.539 358.375 421.165H356.901C356.715 420.455 356.644 419.721 356.691 418.989C356.691 417.128 357.43 415.342 358.746 414.026C360.062 412.71 361.848 411.97 363.709 411.97C365.57 411.97 367.356 412.71 368.672 414.026C369.988 415.342 370.727 417.128 370.727 418.989Z" stroke="#FFA506" stroke-width="2.97794" stroke-linecap="round" stroke-linejoin="round"/>
<path d="M299.654 445.494C299.654 441.786 296.648 438.78 292.94 438.78C289.232 438.78 286.226 441.786 286.226 445.494V449.074C286.226 452.782 289.232 455.788 292.94 455.788C296.648 455.788 299.654 452.782 299.654 449.074V445.494Z" stroke="#FFA506" stroke-width="2.97794" stroke-linecap="round" stroke-linejoin="round"/>
<path d="M325.084 445.494C325.084 441.786 322.078 438.78 318.37 438.78C314.661 438.78 311.655 441.786 311.655 445.494V449.074C311.655 452.782 314.661 455.788 318.37 455.788C322.078 455.788 325.084 452.782 325.084 449.074V445.494Z" stroke="#FFA506" stroke-width="2.97794" stroke-linecap="round" stroke-linejoin="round"/>
<path d="M299.679 449.005C299.532 449.798 299.556 450.613 299.75 451.395C299.943 452.178 300.302 452.911 300.802 453.543C301.335 454.151 302.073 454.541 302.875 454.64C303.677 454.739 304.488 454.54 305.153 454.081" stroke="#FFA506" stroke-width="2.97794" stroke-linecap="round" stroke-linejoin="round"/>
<path d="M281.29 456.096C283.178 454.902 284.776 453.304 285.969 451.417" stroke="#FFA506" stroke-width="2.97794" stroke-linecap="round" stroke-linejoin="round"/>
<path d="M278.366 457.989H336.41" stroke="#FFA506" stroke-width="2.97794" stroke-linecap="round" stroke-linejoin="round"/>
<path d="M278.366 436.818H336.41" stroke="#FFA506" stroke-width="2.97794" stroke-linecap="round" stroke-linejoin="round"/>
<path d="M264 511.774H314.393" stroke="#FFA506" stroke-width="2.97794" stroke-linecap="round" stroke-linejoin="round"/>
<path d="M311.655 427.225V449.59" stroke="#FFA506" stroke-width="2.97794" stroke-linecap="round" stroke-linejoin="round"/>
<text fill="#1E1E1E" xml:space="preserve" style="white-space: pre" font-family="Titillium Web" font-size="40" font-weight="600" letter-spacing="0px"><tspan x="3.85938" y="456.9">Profesori bine </tspan><tspan x="97.6094" y="498.9">preg&#x103;ti&#x21b;i</tspan></text>
</g>
<defs>
<clipPath id="clip0">
<rect width="615" height="543" fill="white"/>
</clipPath>
</defs>
</svg>
