<svg width="569" height="246" viewBox="0 0 569 246" fill="none" xmlns="http://www.w3.org/2000/svg">
<path d="M533.432 26.5643C497.872 32.1037 463.122 61.6652 427.156 51.1809C409.863 46.1279 394.812 35.5085 377.707 29.4556C356.603 21.9977 324.772 24.0243 306.181 35.5895C291.968 44.4526 271.188 43.9932 255.192 41.0749C240.708 38.4268 229.359 26.0509 216.2 23.2137C205.499 20.9169 188.8 26.2401 180.369 32.1578C165.913 42.2908 151.862 52.8292 137.324 62.9082C125.948 70.7985 116.896 81.9584 104.736 88.7137C92.6845 95.4151 79.2818 96.7932 66.7979 103.386C49.9365 112.276 35.1287 123.382 18.8888 132.786C13.8628 135.704 8.86387 139.163 4 142.865" stroke="#7937C4" stroke-width="10.1382" stroke-miterlimit="10" stroke-linejoin="round" stroke-dasharray="12.67 12.67"/>
<path d="M533.433 46.3701C544.581 46.3701 553.618 37.3329 553.618 26.185C553.618 15.0372 544.581 6 533.433 6C522.285 6 513.248 15.0372 513.248 26.185C513.248 37.3329 522.285 46.3701 533.433 46.3701Z" fill="white" stroke="#7937C4" stroke-width="10.1382" stroke-miterlimit="10" stroke-linecap="round" stroke-linejoin="round"/>
<path d="M567.229 78.8296H465.344V146.753H567.229V78.8296Z" stroke="#7937C4" stroke-width="3.0651" stroke-miterlimit="10"/>
<path d="M567.229 78.8296H465.344V112.791H567.229V78.8296Z" stroke="#7937C4" stroke-width="3.0651" stroke-miterlimit="10"/>
<path d="M516.272 135.406C528.776 135.406 538.913 125.27 538.913 112.766C538.913 100.261 528.776 90.1245 516.272 90.1245C503.768 90.1245 493.631 100.261 493.631 112.766C493.631 125.27 503.768 135.406 516.272 135.406Z" fill="#7937C4"/>
<path d="M498.574 111.607C499.869 111.607 500.919 110.557 500.919 109.262C500.919 107.967 499.869 106.917 498.574 106.917C497.279 106.917 496.229 107.967 496.229 109.262C496.229 110.557 497.279 111.607 498.574 111.607Z" fill="white"/>
<path d="M509.896 112.362C510.369 112.362 510.753 111.978 510.753 111.505C510.753 111.031 510.369 110.647 509.896 110.647C509.423 110.647 509.039 111.031 509.039 111.505C509.039 111.978 509.423 112.362 509.896 112.362Z" fill="white"/>
<path d="M498.271 111.606L509.768 112.362V111.001L498.498 108.126L498.271 111.606Z" fill="white"/>
<path d="M499.182 106.967L510.099 110.648L509.67 111.934L498.098 110.169L499.182 106.967Z" fill="white"/>
<path d="M501.275 105.102C502.569 105.102 503.619 104.052 503.619 102.757C503.619 101.462 502.569 100.413 501.275 100.413C499.979 100.413 498.93 101.462 498.93 102.757C498.93 104.052 499.979 105.102 501.275 105.102Z" fill="white"/>
<path d="M510.854 110.018C511.328 110.018 511.712 109.635 511.712 109.161C511.712 108.688 511.328 108.304 510.854 108.304C510.381 108.304 509.997 108.688 509.997 109.161C509.997 109.635 510.381 110.018 510.854 110.018Z" fill="white"/>
<path d="M500.092 104.8L510.429 109.843L511.034 108.632L501.605 101.749L500.092 104.8Z" fill="white"/>
<path d="M502.712 100.892L511.385 108.455L510.478 109.489L500.393 103.413L502.712 100.892Z" fill="white"/>
<path d="M506.242 100.11C507.537 100.11 508.587 99.0607 508.587 97.7657C508.587 96.4707 507.537 95.4209 506.242 95.4209C504.947 95.4209 503.897 96.4707 503.897 97.7657C503.897 99.0607 504.947 100.11 506.242 100.11Z" fill="white"/>
<path d="M512.643 108.227C513.117 108.227 513.5 107.843 513.5 107.369C513.5 106.896 513.117 106.512 512.643 106.512C512.17 106.512 511.786 106.896 511.786 107.369C511.786 107.843 512.17 108.227 512.643 108.227Z" fill="white"/>
<path d="M504.376 99.2021L511.94 107.875L512.949 106.993L506.872 96.9077L504.376 99.2021Z" fill="white"/>
<path d="M508.282 96.6062L513.324 106.943L512.088 107.549L505.256 98.0433L508.282 96.6062Z" fill="white"/>
<path d="M512.746 97.4371C514.041 97.4371 515.091 96.3873 515.091 95.0923C515.091 93.7974 514.041 92.7476 512.746 92.7476C511.451 92.7476 510.401 93.7974 510.401 95.0923C510.401 96.3873 511.451 97.4371 512.746 97.4371Z" fill="white"/>
<path d="M515.017 107.243C515.49 107.243 515.874 106.859 515.874 106.386C515.874 105.912 515.49 105.528 515.017 105.528C514.543 105.528 514.159 105.912 514.159 106.386C514.159 106.859 514.543 107.243 515.017 107.243Z" fill="white"/>
<path d="M510.48 95.6962L514.187 106.613L515.473 106.185L513.682 94.6121L510.48 95.6962Z" fill="white"/>
<path d="M515.09 94.7634L515.847 106.286H514.485L511.712 94.9147L515.09 94.7634Z" fill="white"/>
<path d="M519.804 97.4362C521.099 97.4362 522.148 96.3864 522.148 95.0914C522.148 93.7964 521.099 92.7466 519.804 92.7466C518.508 92.7466 517.459 93.7964 517.459 95.0914C517.459 96.3864 518.508 97.4362 519.804 97.4362Z" fill="white"/>
<path d="M517.537 107.244C518.01 107.244 518.394 106.86 518.394 106.387C518.394 105.913 518.01 105.53 517.537 105.53C517.064 105.53 516.68 105.913 516.68 106.387C516.68 106.86 517.064 107.244 517.537 107.244Z" fill="white"/>
<path d="M517.463 94.7646L516.706 106.287H518.068L520.841 94.9159L517.463 94.7646Z" fill="white"/>
<path d="M522.077 95.6974L518.371 106.615L517.085 106.186L518.85 94.6133L522.077 95.6974Z" fill="white"/>
<path d="M526.282 100.11C527.577 100.11 528.627 99.0597 528.627 97.7647C528.627 96.4697 527.577 95.4199 526.282 95.4199C524.987 95.4199 523.938 96.4697 523.938 97.7647C523.938 99.0597 524.987 100.11 526.282 100.11Z" fill="white"/>
<path d="M519.88 108.228C520.353 108.228 520.737 107.844 520.737 107.371C520.737 106.897 520.353 106.513 519.88 106.513C519.406 106.513 519.022 106.897 519.022 107.371C519.022 107.844 519.406 108.228 519.88 108.228Z" fill="white"/>
<path d="M524.244 96.6052L519.201 106.942L520.411 107.548L527.421 98.0424L524.244 96.6052Z" fill="white"/>
<path d="M528.174 99.2011L520.61 107.874L519.602 106.992L525.653 96.9067L528.174 99.2011Z" fill="white"/>
<path d="M531.276 105.102C532.571 105.102 533.621 104.052 533.621 102.757C533.621 101.462 532.571 100.413 531.276 100.413C529.982 100.413 528.932 101.462 528.932 102.757C528.932 104.052 529.982 105.102 531.276 105.102Z" fill="white"/>
<path d="M521.695 110.018C522.168 110.018 522.552 109.635 522.552 109.161C522.552 108.688 522.168 108.304 521.695 108.304C521.222 108.304 520.838 108.688 520.838 109.161C520.838 109.635 521.222 110.018 521.695 110.018Z" fill="white"/>
<path d="M529.942 100.892L521.269 108.455L522.176 109.489L532.261 103.413L529.942 100.892Z" fill="white"/>
<path d="M532.459 104.799L522.097 109.841L521.517 108.631L530.946 101.748L532.459 104.799Z" fill="white"/>
<path d="M533.975 111.605C535.271 111.605 536.32 110.555 536.32 109.26C536.32 107.965 535.271 106.915 533.975 106.915C532.68 106.915 531.631 107.965 531.631 109.26C531.631 110.555 532.68 111.605 533.975 111.605Z" fill="white"/>
<path d="M522.653 112.36C523.127 112.36 523.511 111.976 523.511 111.503C523.511 111.029 523.127 110.645 522.653 110.645C522.18 110.645 521.796 111.029 521.796 111.503C521.796 111.976 522.18 112.36 522.653 112.36Z" fill="white"/>
<path d="M533.343 106.966L522.375 110.647L522.829 111.933L534.401 110.168L533.343 106.966Z" fill="white"/>
<path d="M534.276 111.605L522.779 112.361V111L534.05 108.125L534.276 111.605Z" fill="white"/>
<path d="M533.972 118.64C535.267 118.64 536.317 117.591 536.317 116.296C536.317 115.001 535.267 113.951 533.972 113.951C532.677 113.951 531.627 115.001 531.627 116.296C531.627 117.591 532.677 118.64 533.972 118.64Z" fill="white"/>
<path d="M522.653 114.908C523.127 114.908 523.511 114.524 523.511 114.051C523.511 113.577 523.127 113.193 522.653 113.193C522.18 113.193 521.796 113.577 521.796 114.051C521.796 114.524 522.18 114.908 522.653 114.908Z" fill="white"/>
<path d="M534.276 113.95L522.779 113.168V114.53L534.15 117.328L534.276 113.95Z" fill="white"/>
<path d="M533.343 118.565L522.375 114.859L522.829 113.573L534.401 115.363L533.343 118.565Z" fill="white"/>
<path d="M531.276 125.146C532.571 125.146 533.621 124.096 533.621 122.801C533.621 121.506 532.571 120.457 531.276 120.457C529.982 120.457 528.932 121.506 528.932 122.801C528.932 124.096 529.982 125.146 531.276 125.146Z" fill="white"/>
<path d="M521.695 117.255C522.168 117.255 522.552 116.871 522.552 116.397C522.552 115.924 522.168 115.54 521.695 115.54C521.222 115.54 520.838 115.924 520.838 116.397C520.838 116.871 521.222 117.255 521.695 117.255Z" fill="white"/>
<path d="M532.459 120.733L522.097 115.69L521.517 116.9L530.946 123.834L532.459 120.733Z" fill="white"/>
<path d="M529.938 124.667L521.265 117.103L522.172 116.069L532.257 122.145L529.938 124.667Z" fill="white"/>
<path d="M526.287 130.113C527.582 130.113 528.632 129.063 528.632 127.768C528.632 126.473 527.582 125.423 526.287 125.423C524.992 125.423 523.942 126.473 523.942 127.768C523.942 129.063 524.992 130.113 526.287 130.113Z" fill="white"/>
<path d="M519.88 119.044C520.353 119.044 520.737 118.66 520.737 118.187C520.737 117.713 520.353 117.329 519.88 117.329C519.406 117.329 519.022 117.713 519.022 118.187C519.022 118.66 519.406 119.044 519.88 119.044Z" fill="white"/>
<path d="M528.178 126.331L520.614 117.683L519.605 118.566L525.656 128.651L528.178 126.331Z" fill="white"/>
<path d="M524.244 128.952L519.201 118.615L520.411 118.01L527.421 127.464L524.244 128.952Z" fill="white"/>
<path d="M519.804 132.811C521.099 132.811 522.148 131.761 522.148 130.466C522.148 129.172 521.099 128.122 519.804 128.122C518.508 128.122 517.459 129.172 517.459 130.466C517.459 131.761 518.508 132.811 519.804 132.811Z" fill="white"/>
<path d="M517.533 120.029C518.006 120.029 518.39 119.645 518.39 119.172C518.39 118.698 518.006 118.314 517.533 118.314C517.06 118.314 516.676 118.698 516.676 119.172C516.676 119.645 517.06 120.029 517.533 120.029Z" fill="white"/>
<path d="M522.077 129.863L518.371 118.946L517.085 119.374L518.85 130.947L522.077 129.863Z" fill="white"/>
<path d="M517.463 130.819L516.706 119.323H518.068L520.841 130.693L517.463 130.819Z" fill="white"/>
<path d="M512.746 132.811C514.041 132.811 515.091 131.761 515.091 130.466C515.091 129.172 514.041 128.122 512.746 128.122C511.451 128.122 510.401 129.172 510.401 130.466C510.401 131.761 511.451 132.811 512.746 132.811Z" fill="white"/>
<path d="M515.017 120.027C515.49 120.027 515.874 119.643 515.874 119.17C515.874 118.696 515.49 118.312 515.017 118.312C514.543 118.312 514.159 118.696 514.159 119.17C514.159 119.643 514.543 120.027 515.017 120.027Z" fill="white"/>
<path d="M515.09 130.817L515.847 119.32H514.485L511.712 130.691L515.09 130.817Z" fill="white"/>
<path d="M510.476 129.86L514.182 118.943L515.468 119.371L513.678 130.944L510.476 129.86Z" fill="white"/>
<path d="M506.237 130.114C507.532 130.114 508.582 129.064 508.582 127.769C508.582 126.474 507.532 125.424 506.237 125.424C504.942 125.424 503.893 126.474 503.893 127.769C503.893 129.064 504.942 130.114 506.237 130.114Z" fill="white"/>
<path d="M512.64 119.045C513.113 119.045 513.497 118.661 513.497 118.188C513.497 117.714 513.113 117.331 512.64 117.331C512.166 117.331 511.782 117.714 511.782 118.188C511.782 118.661 512.166 119.045 512.64 119.045Z" fill="white"/>
<path d="M508.281 128.954L513.324 118.617L512.29 118.012L505.382 127.467L508.281 128.954Z" fill="white"/>
<path d="M504.371 126.331L511.935 117.683L512.944 118.566L506.867 128.651L504.371 126.331Z" fill="white"/>
<path d="M501.275 125.145C502.569 125.145 503.619 124.095 503.619 122.801C503.619 121.506 502.569 120.456 501.275 120.456C499.979 120.456 498.93 121.506 498.93 122.801C498.93 124.095 499.979 125.145 501.275 125.145Z" fill="white"/>
<path d="M510.854 117.253C511.328 117.253 511.712 116.87 511.712 116.396C511.712 115.923 511.328 115.539 510.854 115.539C510.381 115.539 509.997 115.923 509.997 116.396C509.997 116.87 510.381 117.253 510.854 117.253Z" fill="white"/>
<path d="M502.712 124.665L511.385 117.102L510.478 116.068L500.393 122.144L502.712 124.665Z" fill="white"/>
<path d="M500.092 120.733L510.429 115.69L511.034 116.9L501.605 123.834L500.092 120.733Z" fill="white"/>
<path d="M498.574 118.64C499.869 118.64 500.919 117.591 500.919 116.296C500.919 115.001 499.869 113.951 498.574 113.951C497.279 113.951 496.229 115.001 496.229 116.296C496.229 117.591 497.279 118.64 498.574 118.64Z" fill="white"/>
<path d="M509.896 114.908C510.369 114.908 510.753 114.524 510.753 114.051C510.753 113.577 510.369 113.193 509.896 113.193C509.423 113.193 509.039 113.577 509.039 114.051C509.039 114.524 509.423 114.908 509.896 114.908Z" fill="white"/>
<path d="M499.182 118.564L510.099 114.858L509.771 113.572L498.198 115.362L499.182 118.564Z" fill="white"/>
<path d="M498.271 113.95L509.768 113.168V114.53L498.398 117.328L498.271 113.95Z" fill="white"/>
<text fill="#1E1E1E" xml:space="preserve" style="white-space: pre" font-family="Titillium Web" font-size="40" font-weight="600" letter-spacing="0px"><tspan x="273.258" y="194.9">F&#x103;r&#x103; discriminare&#x2028;</tspan><tspan x="202.047" y="236.9">&#xee;mpotriva etniei rome</tspan></text>
</svg>
