<svg width="528" height="396" viewBox="0 0 528 396" fill="none" xmlns="http://www.w3.org/2000/svg">
<path d="M320.4 59.9573C333.635 85.4029 345.163 107.619 369.165 131.2C399.783 161.241 454.351 187.395 468.557 229.936C481.346 268.223 472.391 304.776 492.611 342.17C501.225 358.083 513.803 375.231 522.626 393.061" stroke="#1B771B" stroke-width="9.85237" stroke-miterlimit="10" stroke-linejoin="round" stroke-dasharray="12.32 12.32"/>
<path d="M317.616 79.232C328.45 79.232 337.232 70.4496 337.232 59.616C337.232 48.7824 328.45 40 317.616 40C306.782 40 298 48.7824 298 59.616C298 70.4496 306.782 79.232 317.616 79.232Z" fill="white" stroke="#1B771B" stroke-width="9.85237" stroke-miterlimit="10" stroke-linecap="round" stroke-linejoin="round"/>
<path d="M192.636 22.2159C194.845 23.7513 193.928 28.8441 195.669 30.7165C197.411 32.5888 202.653 32.1582 203.926 34.4611C205.2 36.7642 202.204 40.9394 202.915 43.4299C203.627 45.9201 208.439 47.9611 208.532 50.5448C208.626 53.1288 203.758 55.1133 203.009 57.6225C202.26 60.1314 205.143 64.4004 203.627 66.6098C202.11 68.8191 197.055 67.6583 195.014 69.2312C192.973 70.804 192.73 75.9529 190.258 76.8703C187.787 77.7876 184.285 73.9867 181.627 74.2115C178.968 74.4362 176.253 78.7614 173.613 78.3496C170.973 77.9375 169.774 72.9382 167.247 71.9647C164.719 70.991 160.431 73.6685 158.222 72.133C156.013 70.5979 156.93 65.5051 155.17 63.6327C153.41 61.7603 148.205 62.1911 146.913 59.8879C145.621 57.5848 148.654 53.4096 147.943 50.9381C147.231 48.4663 142.419 46.4443 142.4 43.879C142.382 41.3141 147.1 39.2357 147.849 36.7268C148.598 34.2176 145.715 29.9113 147.306 27.702C148.898 25.4925 153.859 26.6534 155.919 25.0806C157.979 23.5078 158.128 18.3588 160.6 17.4414C163.071 16.5239 166.573 20.3248 169.231 20.1001C171.89 19.8755 174.605 15.5503 177.264 15.9809C179.923 16.4116 181.14 21.3733 183.63 22.3844C186.12 23.3955 190.371 20.6805 192.636 22.2159Z" stroke="#1B771B" stroke-width="2.55" stroke-linecap="round" stroke-linejoin="round"/>
<path d="M187.039 55.1497C190.915 49.5319 188.861 41.3933 182.451 36.9716C176.042 32.55 167.704 33.5198 163.829 39.1378C159.953 44.7556 162.007 52.8942 168.417 57.3155C174.826 61.7372 183.164 60.7675 187.039 55.1497Z" stroke="#1B771B" stroke-width="2.55" stroke-linecap="round" stroke-linejoin="round"/>
<path d="M175.858 78.3694V87.8061" stroke="#1B771B" stroke-width="2.55" stroke-linecap="round" stroke-linejoin="round"/>
<path d="M167.92 72.3197V86.325" stroke="#1B771B" stroke-width="2.55" stroke-linecap="round" stroke-linejoin="round"/>
<path d="M174.567 98.4414V95.1274C174.578 91.7947 175.347 88.5083 176.816 85.5169C178.286 82.526 180.417 79.9086 183.049 77.8642L203.646 61.9866C204.297 61.4915 205.093 61.2233 205.911 61.2233C206.729 61.2233 207.525 61.4915 208.176 61.9866C208.773 62.4459 209.223 63.0705 209.469 63.7824C209.716 64.4944 209.748 65.2631 209.562 65.9935L206.379 79.0998C206.164 79.9161 206.164 80.7739 206.379 81.5903L207.24 84.7356" fill="white"/>
<path d="M174.567 98.4414V95.1274C174.578 91.7947 175.347 88.5083 176.816 85.5169C178.286 82.526 180.417 79.9086 183.049 77.8642L203.646 61.9866C204.297 61.4915 205.093 61.2233 205.911 61.2233C206.729 61.2233 207.525 61.4915 208.176 61.9866C208.773 62.4459 209.223 63.0705 209.469 63.7824C209.716 64.4944 209.748 65.2631 209.562 65.9935L206.379 79.0998C206.164 79.9161 206.164 80.7739 206.379 81.5903L207.24 84.7356" stroke="#1B771B" stroke-width="2.55" stroke-linecap="round" stroke-linejoin="round"/>
<path d="M234.462 62.6045C236.735 65.3306 237.845 68.8411 237.552 72.3781L235.904 85.2788C235.118 91.2328 228.808 95.6144 219.746 101.194L216.001 103.441C213.848 104.776 211.987 106.534 210.534 108.609C209.278 110.441 208.594 112.604 208.567 114.825V116.435" stroke="#1B771B" stroke-width="2.55" stroke-linecap="round" stroke-linejoin="round"/>
<path d="M231.075 85.6723C231.075 85.2792 233.322 76.5538 234.82 70.9554C235.599 67.9406 235.409 64.7568 234.277 61.856L231.281 54.2539" stroke="#1B771B" stroke-width="2.55" stroke-linecap="round" stroke-linejoin="round"/>
<path d="M225.945 81.4963L231.112 65.3565L230.625 50.8082C230.606 50.1225 230.323 49.4707 229.834 48.9892C229.346 48.5078 228.69 48.2338 228.004 48.2242C227.46 48.2253 226.931 48.3949 226.488 48.7104C226.045 49.0256 225.711 49.4707 225.532 49.9841L221.432 61.3683C220.819 63.0941 219.856 64.6748 218.605 66.0117L206.472 79.1183" stroke="#1B771B" stroke-width="2.55" stroke-linecap="round" stroke-linejoin="round"/>
<path d="M216.737 29.851L209.421 27.641C205.222 26.3725 200.789 28.7483 199.521 32.9475L199.515 32.9655C198.247 37.1646 200.623 41.5972 204.822 42.8657L212.137 45.0754C216.337 46.3439 220.769 43.9683 222.038 39.769L222.043 39.751C223.312 35.552 220.936 31.1195 216.737 29.851Z" fill="white" stroke="#1B771B" stroke-width="2.55726" stroke-linecap="round" stroke-linejoin="round"/>
<path d="M212.484 28.2094C214.496 28.816 216.187 30.1941 217.187 32.0428C218.186 33.8915 218.414 36.0607 217.821 38.0766C217.214 40.089 215.836 41.7795 213.987 42.7791C212.138 43.779 209.969 44.0068 207.953 43.4129" stroke="#1B771B" stroke-width="2.55" stroke-linecap="round" stroke-linejoin="round"/>
<path d="M208.496 27.0306C209.849 27.6348 211.006 28.6056 211.836 29.8332C212.665 31.0608 213.135 32.4961 213.192 33.9768C213.248 35.4575 212.889 36.9243 212.155 38.2115C211.421 39.4988 210.342 40.5552 209.039 41.2607C207.505 42.1086 205.73 42.4122 204.002 42.1219" stroke="#1B771B" stroke-width="2.55" stroke-linecap="round" stroke-linejoin="round"/>
<path d="M200.276 39.9517C204.123 39.9517 207.241 36.8332 207.241 32.9864C207.241 29.1397 204.123 26.0212 200.276 26.0212C196.429 26.0212 193.311 29.1397 193.311 32.9864C193.311 36.8332 196.429 39.9517 200.276 39.9517Z" fill="white" stroke="#1B771B" stroke-width="2.55" stroke-linecap="round" stroke-linejoin="round"/>
<path d="M192.299 37.5523C195.008 37.5523 197.205 35.3563 197.205 32.6468C197.205 29.9375 195.008 27.7412 192.299 27.7412C189.59 27.7412 187.394 29.9375 187.394 32.6468C187.394 35.3563 189.59 37.5523 192.299 37.5523Z" fill="white" stroke="#1B771B" stroke-width="2.55" stroke-linecap="round" stroke-linejoin="round"/>
<path d="M204.151 26.5423C206.279 21.2049 209.209 16.2233 212.839 11.7693C214.528 9.5777 216.808 7.91459 219.411 6.97608C219.994 6.76576 220.613 6.67722 221.232 6.71585C221.85 6.75451 222.454 6.91954 223.006 7.20076C223.658 7.66945 224.154 8.32419 224.428 9.07922C224.702 9.83426 224.741 10.6544 224.541 11.4323C224.13 12.9789 223.323 14.392 222.201 15.5328C217.501 20.6631 210.967 23.7338 204.732 26.767" stroke="#1B771B" stroke-width="2.55" stroke-linecap="round" stroke-linejoin="round"/>
<path d="M207.578 11.1329C207.217 9.69754 206.676 8.3135 205.968 7.01368C205.575 6.09092 204.962 5.27876 204.181 4.64867C203.401 4.01855 202.478 3.58978 201.493 3.40002C200.507 3.41362 199.549 3.72982 198.749 4.30585C197.948 4.88185 197.344 5.68986 197.018 6.6205C196.413 8.49941 196.348 10.5108 196.831 12.4248C197.906 16.9475 199.555 21.3143 201.737 25.4191" stroke="#1B771B" stroke-width="2.55" stroke-linecap="round" stroke-linejoin="round"/>
<path d="M222.051 39.3324L225.514 40.3619" stroke="#1B771B" stroke-width="2.55" stroke-linecap="round" stroke-linejoin="round"/>
<path d="M190.239 30.6996L191.044 32.9839" stroke="#1B771B" stroke-width="2.55" stroke-linecap="round" stroke-linejoin="round"/>
<path d="M187.749 31.4866L188.554 33.7896" stroke="#1B771B" stroke-width="2.55" stroke-linecap="round" stroke-linejoin="round"/>
<path d="M171.233 41.1292C171.833 41.1292 172.319 40.643 172.319 40.0432C172.319 39.4435 171.833 38.9573 171.233 38.9573C170.634 38.9573 170.147 39.4435 170.147 40.0432C170.147 40.643 170.634 41.1292 171.233 41.1292Z" fill="#1B771B"/>
<path d="M166.685 47.1755C167.284 47.1755 167.771 46.6893 167.771 46.0895C167.771 45.4897 167.284 45.0035 166.685 45.0035C166.085 45.0035 165.599 45.4897 165.599 46.0895C165.599 46.6893 166.085 47.1755 166.685 47.1755Z" fill="#1B771B"/>
<path d="M173.386 46.5579C173.985 46.5579 174.472 46.0717 174.472 45.4719C174.472 44.8722 173.985 44.386 173.386 44.386C172.786 44.386 172.3 44.8722 172.3 45.4719C172.3 46.0717 172.786 46.5579 173.386 46.5579Z" fill="#1B771B"/>
<path d="M179.024 41.4479C179.624 41.4479 180.11 40.9617 180.11 40.362C180.11 39.7622 179.624 39.276 179.024 39.276C178.424 39.276 177.938 39.7622 177.938 40.362C177.938 40.9617 178.424 41.4479 179.024 41.4479Z" fill="#1B771B"/>
<path d="M181.981 47.1755C182.581 47.1755 183.067 46.6893 183.067 46.0895C183.067 45.4897 182.581 45.0035 181.981 45.0035C181.382 45.0035 180.896 45.4897 180.896 46.0895C180.896 46.6893 181.382 47.1755 181.981 47.1755Z" fill="#1B771B"/>
<path d="M181.981 55.3401C182.581 55.3401 183.067 54.8539 183.067 54.2542C183.067 53.6544 182.581 53.1682 181.981 53.1682C181.382 53.1682 180.896 53.6544 180.896 54.2542C180.896 54.8539 181.382 55.3401 181.981 55.3401Z" fill="#1B771B"/>
<path d="M177.264 52.3252C177.863 52.3252 178.35 51.839 178.35 51.2393C178.35 50.6395 177.863 50.1533 177.264 50.1533C176.664 50.1533 176.178 50.6395 176.178 51.2393C176.178 51.839 176.664 52.3252 177.264 52.3252Z" fill="#1B771B"/>
<path d="M170.972 53.391C171.571 53.391 172.058 52.9048 172.058 52.3051C172.058 51.7053 171.571 51.2191 170.972 51.2191C170.372 51.2191 169.886 51.7053 169.886 52.3051C169.886 52.9048 170.372 53.391 170.972 53.391Z" fill="#1B771B"/>
<text fill="#1E1E1E" xml:space="preserve" style="white-space: pre" font-family="Titillium Web" font-size="40" font-weight="600" letter-spacing="0px"><tspan x="0.554688" y="178.9">Protec&#x21b;ia naturii</tspan></text>
</svg>
