<svg width="24" height="17" viewBox="0 0 24 17" fill="none" xmlns="http://www.w3.org/2000/svg">
<path d="M23.6027 1.08325H0.75V16.3184H23.6027V1.08325Z" stroke="#404366" stroke-width="0.6875" stroke-miterlimit="10"/>
<path d="M23.6027 1.08325H0.75V8.70081H23.6027V1.08325Z" stroke="#404366" stroke-width="0.6875" stroke-miterlimit="10"/>
<path d="M12.1731 13.7734C14.9778 13.7734 17.2515 11.4998 17.2515 8.69507C17.2515 5.89036 14.9778 3.6167 12.1731 3.6167C9.36839 3.6167 7.09473 5.89036 7.09473 8.69507C7.09473 11.4998 9.36839 13.7734 12.1731 13.7734Z" fill="#404366"/>
<path d="M8.20367 8.43517C8.49413 8.43517 8.7296 8.1997 8.7296 7.90923C8.7296 7.61877 8.49413 7.3833 8.20367 7.3833C7.9132 7.3833 7.67773 7.61877 7.67773 7.90923C7.67773 8.1997 7.9132 8.43517 8.20367 8.43517Z" fill="white"/>
<path d="M10.7431 8.60452C10.8492 8.60452 10.9353 8.51844 10.9353 8.41225C10.9353 8.30606 10.8492 8.21997 10.7431 8.21997C10.6369 8.21997 10.5508 8.30606 10.5508 8.41225C10.5508 8.51844 10.6369 8.60452 10.7431 8.60452Z" fill="white"/>
<path d="M8.13574 8.43496L10.7145 8.60461V8.29923L8.18664 7.65454L8.13574 8.43496Z" fill="white"/>
<path d="M8.33985 7.39453L10.7886 8.22019L10.6924 8.50861L8.09668 8.11274L8.33985 7.39453Z" fill="white"/>
<path d="M8.80914 6.97618C9.0996 6.97618 9.33507 6.74072 9.33507 6.45025C9.33507 6.15979 9.0996 5.92432 8.80914 5.92432C8.51867 5.92432 8.2832 6.15979 8.2832 6.45025C8.2832 6.74072 8.51867 6.97618 8.80914 6.97618Z" fill="white"/>
<path d="M10.9579 8.07889C11.0641 8.07889 11.1502 7.9928 11.1502 7.88661C11.1502 7.78042 11.0641 7.69434 10.9579 7.69434C10.8517 7.69434 10.7656 7.78042 10.7656 7.88661C10.7656 7.9928 10.8517 8.07889 10.9579 8.07889Z" fill="white"/>
<path d="M8.54395 6.9084L10.8626 8.03944L10.9983 7.76799L8.88326 6.22412L8.54395 6.9084Z" fill="white"/>
<path d="M9.13161 6.03174L11.077 7.7283L10.8734 7.96016L8.61133 6.59726L9.13161 6.03174Z" fill="white"/>
<path d="M9.92339 5.85655C10.2139 5.85655 10.4493 5.62109 10.4493 5.33062C10.4493 5.04016 10.2139 4.80469 9.92339 4.80469C9.63293 4.80469 9.39746 5.04016 9.39746 5.33062C9.39746 5.62109 9.63293 5.85655 9.92339 5.85655Z" fill="white"/>
<path d="M11.3593 7.67703C11.4655 7.67703 11.5515 7.59095 11.5515 7.48476C11.5515 7.37857 11.4655 7.29248 11.3593 7.29248C11.2531 7.29248 11.167 7.37857 11.167 7.48476C11.167 7.59095 11.2531 7.67703 11.3593 7.67703Z" fill="white"/>
<path d="M9.50488 5.65281L11.2014 7.59819L11.4277 7.40026L10.0647 5.13818L9.50488 5.65281Z" fill="white"/>
<path d="M10.3808 5.07056L11.5118 7.38919L11.2347 7.52491L9.70215 5.3929L10.3808 5.07056Z" fill="white"/>
<path d="M11.3824 5.25695C11.6728 5.25695 11.9083 5.02148 11.9083 4.73101C11.9083 4.44055 11.6728 4.20508 11.3824 4.20508C11.0919 4.20508 10.8564 4.44055 10.8564 4.73101C10.8564 5.02148 11.0919 5.25695 11.3824 5.25695Z" fill="white"/>
<path d="M11.8915 7.45633C11.9977 7.45633 12.0838 7.37025 12.0838 7.26405C12.0838 7.15786 11.9977 7.07178 11.8915 7.07178C11.7853 7.07178 11.6992 7.15786 11.6992 7.26405C11.6992 7.37025 11.7853 7.45633 11.8915 7.45633Z" fill="white"/>
<path d="M10.874 4.86646L11.7053 7.31517L11.9938 7.21903L11.5922 4.62329L10.874 4.86646Z" fill="white"/>
<path d="M11.9082 4.65723L12.0778 7.24165H11.7725L11.1504 4.69116L11.9082 4.65723Z" fill="white"/>
<path d="M12.9654 5.2567C13.2559 5.2567 13.4913 5.02123 13.4913 4.73077C13.4913 4.4403 13.2559 4.20483 12.9654 4.20483C12.6749 4.20483 12.4395 4.4403 12.4395 4.73077C12.4395 5.02123 12.6749 5.2567 12.9654 5.2567Z" fill="white"/>
<path d="M12.4569 7.45657C12.5631 7.45657 12.6492 7.37049 12.6492 7.2643C12.6492 7.15811 12.5631 7.07202 12.4569 7.07202C12.3507 7.07202 12.2646 7.15811 12.2646 7.2643C12.2646 7.37049 12.3507 7.45657 12.4569 7.45657Z" fill="white"/>
<path d="M12.4402 4.65747L12.2705 7.2419H12.5759L13.198 4.6914L12.4402 4.65747Z" fill="white"/>
<path d="M13.4752 4.86671L12.6439 7.31541L12.3555 7.21927L12.7513 4.62354L13.4752 4.86671Z" fill="white"/>
<path d="M14.4185 5.85631C14.709 5.85631 14.9444 5.62084 14.9444 5.33038C14.9444 5.03991 14.709 4.80444 14.4185 4.80444C14.128 4.80444 13.8926 5.03991 13.8926 5.33038C13.8926 5.62084 14.128 5.85631 14.4185 5.85631Z" fill="white"/>
<path d="M12.9823 7.67728C13.0885 7.67728 13.1746 7.59119 13.1746 7.485C13.1746 7.37881 13.0885 7.29272 12.9823 7.29272C12.8761 7.29272 12.79 7.37881 12.79 7.485C12.79 7.59119 12.8761 7.67728 12.9823 7.67728Z" fill="white"/>
<path d="M13.9611 5.07031L12.8301 7.38894L13.1015 7.52467L14.6737 5.39266L13.9611 5.07031Z" fill="white"/>
<path d="M14.8427 5.65256L13.1461 7.59795L12.9199 7.40002L14.2772 5.13794L14.8427 5.65256Z" fill="white"/>
<path d="M15.5386 6.97618C15.8291 6.97618 16.0646 6.74072 16.0646 6.45025C16.0646 6.15979 15.8291 5.92432 15.5386 5.92432C15.2482 5.92432 15.0127 6.15979 15.0127 6.45025C15.0127 6.74072 15.2482 6.97618 15.5386 6.97618Z" fill="white"/>
<path d="M13.3895 8.07889C13.4957 8.07889 13.5818 7.9928 13.5818 7.88661C13.5818 7.78042 13.4957 7.69434 13.3895 7.69434C13.2834 7.69434 13.1973 7.78042 13.1973 7.88661C13.1973 7.9928 13.2834 8.07889 13.3895 8.07889Z" fill="white"/>
<path d="M15.2393 6.03174L13.2939 7.7283L13.4975 7.96016L15.7596 6.59726L15.2393 6.03174Z" fill="white"/>
<path d="M15.804 6.90816L13.4797 8.0392L13.3496 7.76775L15.4647 6.22388L15.804 6.90816Z" fill="white"/>
<path d="M16.1441 8.43468C16.4346 8.43468 16.67 8.19921 16.67 7.90875C16.67 7.61828 16.4346 7.38281 16.1441 7.38281C15.8536 7.38281 15.6182 7.61828 15.6182 7.90875C15.6182 8.19921 15.8536 8.43468 16.1441 8.43468Z" fill="white"/>
<path d="M13.6044 8.60404C13.7106 8.60404 13.7967 8.51795 13.7967 8.41176C13.7967 8.30557 13.7106 8.21948 13.6044 8.21948C13.4982 8.21948 13.4121 8.30557 13.4121 8.41176C13.4121 8.51795 13.4982 8.60404 13.6044 8.60404Z" fill="white"/>
<path d="M16.002 7.39429L13.542 8.21995L13.6438 8.50836L16.2395 8.1125L16.002 7.39429Z" fill="white"/>
<path d="M16.2116 8.43471L13.6328 8.60437V8.29899L16.1607 7.6543L16.2116 8.43471Z" fill="white"/>
<path d="M16.1431 10.0128C16.4336 10.0128 16.6691 9.77734 16.6691 9.48687C16.6691 9.19641 16.4336 8.96094 16.1431 8.96094C15.8527 8.96094 15.6172 9.19641 15.6172 9.48687C15.6172 9.77734 15.8527 10.0128 16.1431 10.0128Z" fill="white"/>
<path d="M13.6044 9.17557C13.7106 9.17557 13.7967 9.08948 13.7967 8.98329C13.7967 8.8771 13.7106 8.79102 13.6044 8.79102C13.4982 8.79102 13.4121 8.8771 13.4121 8.98329C13.4121 9.08948 13.4982 9.17557 13.6044 9.17557Z" fill="white"/>
<path d="M16.2116 8.96071L13.6328 8.7854V9.09078L16.1833 9.71851L16.2116 8.96071Z" fill="white"/>
<path d="M16.002 9.99595L13.542 9.16464L13.6438 8.87622L16.2395 9.27774L16.002 9.99595Z" fill="white"/>
<path d="M15.5386 11.472C15.8291 11.472 16.0646 11.2366 16.0646 10.9461C16.0646 10.6556 15.8291 10.4202 15.5386 10.4202C15.2482 10.4202 15.0127 10.6556 15.0127 10.9461C15.0127 11.2366 15.2482 11.472 15.5386 11.472Z" fill="white"/>
<path d="M13.3895 9.70194C13.4957 9.70194 13.5818 9.61585 13.5818 9.50966C13.5818 9.40347 13.4957 9.31738 13.3895 9.31738C13.2834 9.31738 13.1973 9.40347 13.1973 9.50966C13.1973 9.61585 13.2834 9.70194 13.3895 9.70194Z" fill="white"/>
<path d="M15.804 10.4821L13.4797 9.35107L13.3496 9.62252L15.4647 11.1777L15.804 10.4821Z" fill="white"/>
<path d="M15.2384 11.3645L13.293 9.6679L13.4966 9.43604L15.7586 10.7989L15.2384 11.3645Z" fill="white"/>
<path d="M14.4195 12.586C14.71 12.586 14.9454 12.3506 14.9454 12.0601C14.9454 11.7696 14.71 11.5342 14.4195 11.5342C14.129 11.5342 13.8936 11.7696 13.8936 12.0601C13.8936 12.3506 14.129 12.586 14.4195 12.586Z" fill="white"/>
<path d="M12.9823 10.1033C13.0885 10.1033 13.1746 10.0172 13.1746 9.91103C13.1746 9.80484 13.0885 9.71875 12.9823 9.71875C12.8761 9.71875 12.79 9.80484 12.79 9.91103C12.79 10.0172 12.8761 10.1033 12.9823 10.1033Z" fill="white"/>
<path d="M14.8437 11.7378L13.1471 9.7981L12.9209 9.99603L14.2781 12.2581L14.8437 11.7378Z" fill="white"/>
<path d="M13.9611 12.3257L12.8301 10.0071L13.1015 9.87134L14.6737 11.992L13.9611 12.3257Z" fill="white"/>
<path d="M12.9654 13.1913C13.2559 13.1913 13.4913 12.9558 13.4913 12.6653C13.4913 12.3749 13.2559 12.1394 12.9654 12.1394C12.6749 12.1394 12.4395 12.3749 12.4395 12.6653C12.4395 12.9558 12.6749 13.1913 12.9654 13.1913Z" fill="white"/>
<path d="M12.4559 10.3242C12.5621 10.3242 12.6482 10.2382 12.6482 10.132C12.6482 10.0258 12.5621 9.9397 12.4559 9.9397C12.3498 9.9397 12.2637 10.0258 12.2637 10.132C12.2637 10.2382 12.3498 10.3242 12.4559 10.3242Z" fill="white"/>
<path d="M13.4752 12.53L12.6439 10.0813L12.3555 10.1774L12.7513 12.7732L13.4752 12.53Z" fill="white"/>
<path d="M12.4402 12.7445L12.2705 10.1658H12.5759L13.198 12.7163L12.4402 12.7445Z" fill="white"/>
<path d="M11.3824 13.1913C11.6728 13.1913 11.9083 12.9558 11.9083 12.6653C11.9083 12.3749 11.6728 12.1394 11.3824 12.1394C11.0919 12.1394 10.8564 12.3749 10.8564 12.6653C10.8564 12.9558 11.0919 13.1913 11.3824 13.1913Z" fill="white"/>
<path d="M11.8915 10.3238C11.9977 10.3238 12.0838 10.2377 12.0838 10.1315C12.0838 10.0253 11.9977 9.93921 11.8915 9.93921C11.7853 9.93921 11.6992 10.0253 11.6992 10.1315C11.6992 10.2377 11.7853 10.3238 11.8915 10.3238Z" fill="white"/>
<path d="M11.9082 12.7441L12.0778 10.1653H11.7725L11.1504 12.7158L11.9082 12.7441Z" fill="white"/>
<path d="M10.873 12.5293L11.7044 10.0806L11.9928 10.1767L11.5913 12.7724L10.873 12.5293Z" fill="white"/>
<path d="M9.92242 12.5863C10.2129 12.5863 10.4484 12.3508 10.4484 12.0604C10.4484 11.7699 10.2129 11.5344 9.92242 11.5344C9.63195 11.5344 9.39648 11.7699 9.39648 12.0604C9.39648 12.3508 9.63195 12.5863 9.92242 12.5863Z" fill="white"/>
<path d="M11.3583 10.1035C11.4645 10.1035 11.5506 10.0175 11.5506 9.91127C11.5506 9.80508 11.4645 9.71899 11.3583 9.71899C11.2521 9.71899 11.166 9.80508 11.166 9.91127C11.166 10.0175 11.2521 10.1035 11.3583 10.1035Z" fill="white"/>
<path d="M10.3808 12.3262L11.5119 10.0076L11.28 9.87183L9.73047 11.9925L10.3808 12.3262Z" fill="white"/>
<path d="M9.50391 11.7378L11.2005 9.7981L11.4267 9.99603L10.0638 12.2581L9.50391 11.7378Z" fill="white"/>
<path d="M8.80914 11.4718C9.0996 11.4718 9.33507 11.2363 9.33507 10.9459C9.33507 10.6554 9.0996 10.4199 8.80914 10.4199C8.51867 10.4199 8.2832 10.6554 8.2832 10.9459C8.2832 11.2363 8.51867 11.4718 8.80914 11.4718Z" fill="white"/>
<path d="M10.9579 9.70169C11.0641 9.70169 11.1502 9.61561 11.1502 9.50942C11.1502 9.40322 11.0641 9.31714 10.9579 9.31714C10.8517 9.31714 10.7656 9.40322 10.7656 9.50942C10.7656 9.61561 10.8517 9.70169 10.9579 9.70169Z" fill="white"/>
<path d="M9.13161 11.3642L11.077 9.66765L10.8734 9.43579L8.61133 10.7987L9.13161 11.3642Z" fill="white"/>
<path d="M8.54395 10.4821L10.8626 9.35107L10.9983 9.62252L8.88326 11.1777L8.54395 10.4821Z" fill="white"/>
<path d="M8.20367 10.0128C8.49413 10.0128 8.7296 9.77734 8.7296 9.48687C8.7296 9.19641 8.49413 8.96094 8.20367 8.96094C7.9132 8.96094 7.67773 9.19641 7.67773 9.48687C7.67773 9.77734 7.9132 10.0128 8.20367 10.0128Z" fill="white"/>
<path d="M10.7431 9.17557C10.8492 9.17557 10.9353 9.08948 10.9353 8.98329C10.9353 8.8771 10.8492 8.79102 10.7431 8.79102C10.6369 8.79102 10.5508 8.8771 10.5508 8.98329C10.5508 9.08948 10.6369 9.17557 10.7431 9.17557Z" fill="white"/>
<path d="M8.33969 9.99571L10.7884 9.16439L10.7149 8.87598L8.11914 9.2775L8.33969 9.99571Z" fill="white"/>
<path d="M8.13574 8.96071L10.7145 8.7854V9.09078L8.16402 9.71851L8.13574 8.96071Z" fill="white"/>
</svg>
