<svg width="53" height="62" viewBox="0 0 53 62" fill="none" xmlns="http://www.w3.org/2000/svg">
<path d="M27.6799 10.8902C28.8599 11.7102 28.3699 14.4302 29.2999 15.4302C30.2299 16.4302 33.0299 16.2002 33.7099 17.4302C34.3899 18.6602 32.7899 20.9002 33.1699 22.2202C33.5499 23.5402 36.1699 24.6402 36.1699 26.0202C36.1699 27.4002 33.6599 28.5002 33.2599 29.8502C32.8599 31.2002 34.3999 33.4602 33.5799 34.6402C32.7599 35.8202 30.0799 35.2002 28.9799 36.0402C27.8799 36.8802 27.7699 39.6302 26.4399 40.1202C25.1099 40.6102 23.2499 38.5802 21.8299 38.7002C20.4099 38.8202 18.9599 41.1402 17.5499 40.9102C16.1399 40.6802 15.4899 38.0202 14.1599 37.4802C12.8299 36.9402 10.5199 38.3902 9.3399 37.5702C8.1599 36.7502 8.63989 34.0302 7.70989 33.0302C6.77989 32.0302 3.98989 32.2602 3.29989 31.0302C2.60989 29.8002 4.2199 27.5602 3.8399 26.2402C3.4599 24.9202 0.899897 23.8202 0.839897 22.4402C0.779897 21.0602 3.35991 19.9602 3.75991 18.6102C4.15991 17.2602 2.60989 15.0002 3.42989 13.8202C4.24989 12.6402 6.9299 13.2502 8.0299 12.4202C9.1299 11.5902 9.24991 8.82024 10.5699 8.34024C11.8899 7.86024 13.7599 9.88023 15.1799 9.76023C16.5999 9.64023 18.0499 7.3202 19.4599 7.5502C20.8699 7.7802 21.5299 10.4402 22.8499 10.9802C24.1699 11.5202 26.4899 10.0802 27.6799 10.8902Z" stroke="#404366" stroke-width="0.75" stroke-linecap="round" stroke-linejoin="round"/>
<path d="M24.6901 28.4267C26.7599 25.4263 25.6628 21.0796 22.2397 18.7181C18.8165 16.3566 14.3635 16.8745 12.2937 19.8749C10.2238 22.8753 11.321 27.222 14.7441 29.5835C18.1673 31.945 22.6202 31.4271 24.6901 28.4267Z" stroke="#404366" stroke-width="0.75" stroke-linecap="round" stroke-linejoin="round"/>
<path d="M18.7197 40.8799V45.9199" stroke="#404366" stroke-width="0.75" stroke-linecap="round" stroke-linejoin="round"/>
<path d="M14.48 37.6499V45.1399" stroke="#404366" stroke-width="0.75" stroke-linecap="round" stroke-linejoin="round"/>
<path d="M18 51.6002V49.8302C18.0024 48.0512 18.4119 46.2963 19.1971 44.7C19.9823 43.1036 21.1224 41.708 22.53 40.6202L33.53 32.1302C33.878 31.8658 34.303 31.7227 34.74 31.7227C35.177 31.7227 35.602 31.8658 35.95 32.1302C36.2697 32.3752 36.5109 32.7083 36.6441 33.0884C36.7773 33.4685 36.7968 33.8792 36.7 34.2702L35 41.2702C34.8851 41.7061 34.8851 42.1643 35 42.6002L35.47 44.2802" fill="white"/>
<path d="M18 51.6002V49.8302C18.0024 48.0512 18.4119 46.2963 19.1971 44.7C19.9823 43.1036 21.1224 41.708 22.53 40.6202L33.53 32.1302C33.878 31.8658 34.303 31.7227 34.74 31.7227C35.177 31.7227 35.602 31.8658 35.95 32.1302C36.2697 32.3752 36.5109 32.7083 36.6441 33.0884C36.7773 33.4685 36.7968 33.8792 36.7 34.2702L35 41.2702C34.8851 41.7061 34.8851 42.1643 35 42.6002L35.47 44.2802" stroke="#404366" stroke-width="0.75" stroke-linecap="round" stroke-linejoin="round"/>
<path d="M50 32.4199C51.2131 33.8728 51.8089 35.7431 51.66 37.6299L50.78 44.52C50.36 47.7 46.98 50.05 42.15 53.02L40.15 54.2199C38.9976 54.9297 38.0036 55.8693 37.23 56.9799C36.5772 57.9641 36.2293 59.119 36.23 60.2999V61.1599" stroke="#404366" stroke-width="0.75" stroke-linecap="round" stroke-linejoin="round"/>
<path d="M48.21 44.7801C48.21 44.5801 49.41 39.91 50.21 36.92C50.6221 35.3087 50.5171 33.6085 49.9099 32.0601L48.3199 28.0601" stroke="#404366" stroke-width="0.75" stroke-linecap="round" stroke-linejoin="round"/>
<path d="M45.5003 42.5602L48.2603 33.9302L47.9703 26.1602C47.9576 25.7948 47.8054 25.4482 47.545 25.1915C47.2847 24.9349 46.9359 24.7877 46.5703 24.7803V24.7803C46.2803 24.7822 45.998 24.8735 45.7618 25.0417C45.5256 25.2099 45.347 25.4468 45.2503 25.7202L43.0603 31.8002C42.7291 32.7201 42.2155 33.5637 41.5503 34.2803L35.0703 41.2803" stroke="#404366" stroke-width="0.75" stroke-linecap="round" stroke-linejoin="round"/>
<path d="M37.4006 18.5315L33.4934 17.3512C31.2507 16.6737 28.8834 17.9426 28.2059 20.1853L28.203 20.1949C27.5255 22.4376 28.7944 24.8049 31.0371 25.4824L34.9443 26.6627C37.187 27.3402 39.5544 26.0713 40.2318 23.8286L40.2348 23.819C40.9122 21.5763 39.6433 19.209 37.4006 18.5315Z" fill="white" stroke="#404366" stroke-width="0.752135" stroke-linecap="round" stroke-linejoin="round"/>
<path d="M38.2799 14.0898C38.8126 14.249 39.3087 14.5117 39.7399 14.8628C40.171 15.2139 40.5287 15.6466 40.7925 16.136C41.0563 16.6255 41.2209 17.1622 41.2771 17.7153C41.3333 18.2685 41.2799 18.8273 41.1199 19.3598V19.3598C40.9628 19.8931 40.7019 20.3901 40.3522 20.8222C40.0025 21.2543 39.5709 21.6131 39.0822 21.8779C38.5934 22.1428 38.0571 22.3084 37.5042 22.3654C36.9512 22.4223 36.3924 22.3695 35.8599 22.2098" stroke="#404366" stroke-width="0.75" stroke-linecap="round" stroke-linejoin="round"/>
<path d="M36.15 13.4902C36.87 13.814 37.4853 14.3324 37.9266 14.987C38.368 15.6416 38.6178 16.4064 38.6479 17.1953C38.6781 17.9842 38.4874 18.7659 38.0973 19.4523C37.7072 20.1386 37.1332 20.7025 36.44 21.0803C35.6211 21.5332 34.6729 21.6953 33.75 21.5402V21.5402" stroke="#404366" stroke-width="0.75" stroke-linecap="round" stroke-linejoin="round"/>
<path d="M31.76 20.3599C33.8145 20.3599 35.48 18.6945 35.48 16.64C35.48 14.5855 33.8145 12.9199 31.76 12.9199C29.7055 12.9199 28.04 14.5855 28.04 16.64C28.04 18.6945 29.7055 20.3599 31.76 20.3599Z" fill="white" stroke="#404366" stroke-width="0.75" stroke-linecap="round" stroke-linejoin="round"/>
<path d="M27.4999 19.0798C28.9469 19.0798 30.1199 17.9068 30.1199 16.4598C30.1199 15.0129 28.9469 13.8398 27.4999 13.8398C26.0529 13.8398 24.8799 15.0129 24.8799 16.4598C24.8799 17.9068 26.0529 19.0798 27.4999 19.0798Z" fill="white" stroke="#404366" stroke-width="0.75" stroke-linecap="round" stroke-linejoin="round"/>
<path d="M33.8301 13.2C34.9691 10.3485 36.5372 7.68779 38.48 5.31001C39.3863 4.14386 40.6028 3.25663 41.9901 2.75001C42.3016 2.63943 42.6324 2.59303 42.9623 2.61366C43.2923 2.63428 43.6147 2.72149 43.91 2.87C44.2595 3.11939 44.525 3.46896 44.6714 3.87251C44.8178 4.27606 44.8383 4.71458 44.73 5.13001C44.506 5.96325 44.0602 6.72012 43.4401 7.32002C40.9301 10.06 37.44 11.7 34.11 13.32" stroke="#404366" stroke-width="0.75" stroke-linecap="round" stroke-linejoin="round"/>
<path d="M35.6501 4.99988C35.4596 4.23396 35.174 3.49487 34.8 2.79987C34.5893 2.30661 34.2615 1.87216 33.8451 1.53412C33.4286 1.19608 32.9361 0.964649 32.4101 0.859863C31.8831 0.865693 31.3708 1.03402 30.943 1.34186C30.5153 1.64969 30.1929 2.08206 30.02 2.5799C29.692 3.58601 29.6573 4.66476 29.9201 5.68988C30.4943 8.10217 31.3747 10.4311 32.5401 12.6199" stroke="#404366" stroke-width="0.75" stroke-linecap="round" stroke-linejoin="round"/>
<path d="M43.3901 20.0303L45.2401 20.5903" stroke="#404366" stroke-width="0.75" stroke-linecap="round" stroke-linejoin="round"/>
<path d="M26.3901 15.4199L26.8201 16.64" stroke="#404366" stroke-width="0.75" stroke-linecap="round" stroke-linejoin="round"/>
<path d="M25.0703 15.8501L25.5003 17.0701" stroke="#404366" stroke-width="0.75" stroke-linecap="round" stroke-linejoin="round"/>
<path d="M16.2401 20.9998C16.5605 20.9998 16.8202 20.7401 16.8202 20.4198C16.8202 20.0995 16.5605 19.8398 16.2401 19.8398C15.9198 19.8398 15.6602 20.0995 15.6602 20.4198C15.6602 20.7401 15.9198 20.9998 16.2401 20.9998Z" fill="#404366"/>
<path d="M13.8203 24.22C14.1406 24.22 14.4002 23.9604 14.4002 23.6401C14.4002 23.3198 14.1406 23.0601 13.8203 23.0601C13.4999 23.0601 13.2402 23.3198 13.2402 23.6401C13.2402 23.9604 13.4999 24.22 13.8203 24.22Z" fill="#404366"/>
<path d="M17.4003 23.89C17.7206 23.89 17.9803 23.6303 17.9803 23.31C17.9803 22.9897 17.7206 22.73 17.4003 22.73C17.08 22.73 16.8203 22.9897 16.8203 23.31C16.8203 23.6303 17.08 23.89 17.4003 23.89Z" fill="#404366"/>
<path d="M20.4101 21.1697C20.7304 21.1697 20.9901 20.9101 20.9901 20.5898C20.9901 20.2695 20.7304 20.0098 20.4101 20.0098C20.0898 20.0098 19.8301 20.2695 19.8301 20.5898C19.8301 20.9101 20.0898 21.1697 20.4101 21.1697Z" fill="#404366"/>
<path d="M21.9901 24.22C22.3105 24.22 22.5702 23.9604 22.5702 23.6401C22.5702 23.3198 22.3105 23.0601 21.9901 23.0601C21.6698 23.0601 21.4102 23.3198 21.4102 23.6401C21.4102 23.9604 21.6698 24.22 21.9901 24.22Z" fill="#404366"/>
<path d="M21.9901 28.5902C22.3105 28.5902 22.5702 28.3305 22.5702 28.0102C22.5702 27.6899 22.3105 27.4302 21.9901 27.4302C21.6698 27.4302 21.4102 27.6899 21.4102 28.0102C21.4102 28.3305 21.6698 28.5902 21.9901 28.5902Z" fill="#404366"/>
<path d="M19.4701 26.97C19.7904 26.97 20.0501 26.7104 20.0501 26.3901C20.0501 26.0698 19.7904 25.8101 19.4701 25.8101C19.1498 25.8101 18.8901 26.0698 18.8901 26.3901C18.8901 26.7104 19.1498 26.97 19.4701 26.97Z" fill="#404366"/>
<path d="M16.1103 27.5501C16.4306 27.5501 16.6903 27.2904 16.6903 26.9701C16.6903 26.6498 16.4306 26.3901 16.1103 26.3901C15.7899 26.3901 15.5303 26.6498 15.5303 26.9701C15.5303 27.2904 15.7899 27.5501 16.1103 27.5501Z" fill="#404366"/>
</svg>
