<svg width="56" height="52" viewBox="0 0 56 52" fill="none" xmlns="http://www.w3.org/2000/svg">
<path d="M5.0002 36.2199C5.86054 36.6287 6.79787 36.8503 7.7502 36.8699H10.2502H40.4002C40.7652 36.8766 41.1278 36.8108 41.4672 36.6763C41.8065 36.5418 42.1158 36.3413 42.3771 36.0865C42.6385 35.8317 42.8467 35.5275 42.9897 35.1917C43.1327 34.8558 43.2076 34.495 43.2102 34.1299C43.2102 34.0299 43.2102 33.9299 43.2102 33.8199C43.1388 33.2352 42.8969 32.6844 42.5145 32.2363C42.1322 31.7881 41.6264 31.4625 41.0602 31.2999C41.5878 30.286 41.8074 29.1399 41.6919 28.0027C41.5764 26.8656 41.1309 25.7871 40.4102 24.9C39.7047 24.0311 38.8168 23.328 37.8092 22.8407C36.8017 22.3534 35.6993 22.0937 34.5802 22.08C35.2629 20.8839 35.5493 19.5023 35.3984 18.1334C35.2475 16.7645 34.6671 15.4786 33.7402 14.46C32.8022 13.4792 31.5746 12.8247 30.2374 12.5925C28.9003 12.3604 27.5239 12.5627 26.3102 13.1699C25.8553 11.59 24.9193 10.1911 23.6325 9.16779C22.3457 8.14443 20.772 7.5475 19.1302 7.45996C17.4952 7.46826 15.9039 7.98883 14.5801 8.94849C13.2563 9.90814 12.2666 11.2586 11.7502 12.8099C10.6964 12.8007 9.65701 13.0547 8.72625 13.5489C7.79549 14.0431 7.00284 14.7618 6.4202 15.64C5.86798 16.551 5.54814 17.5838 5.48885 18.6475C5.42956 19.7112 5.63264 20.7732 6.08021 21.7399C4.58216 22.2004 3.25784 23.102 2.28028 24.327C1.30272 25.552 0.717363 27.0434 0.600714 28.6063C0.484065 30.1691 0.841539 31.7309 1.62642 33.0874C2.41131 34.4439 3.58711 35.5322 5.0002 36.21V36.2199Z" stroke="#404366" stroke-width="0.75" stroke-linecap="round" stroke-linejoin="round"/>
<path d="M43.2404 34.86H50.4404C50.8825 34.8363 51.3101 34.6937 51.6779 34.4473C52.0458 34.2009 52.3403 33.8598 52.5304 33.46C52.7173 33.0664 52.81 32.6347 52.8013 32.1991C52.7926 31.7635 52.6828 31.3359 52.4804 30.95C53.1106 30.5064 53.6341 29.9281 54.013 29.2569C54.3918 28.5858 54.6164 27.8387 54.6704 27.07C54.7469 26.2843 54.6525 25.4914 54.3935 24.7457C54.1346 24 53.7174 23.3192 53.1704 22.75C53.5739 21.2447 53.6128 19.665 53.2842 18.1416C52.9555 16.6182 52.2686 15.195 51.2804 13.99C50.26 12.7945 48.9722 11.8564 47.5214 11.2518C46.0707 10.6472 44.4978 10.393 42.9304 10.51C43.0673 9.92896 43.0819 9.32581 42.9735 8.73881C42.865 8.15182 42.6359 7.59374 42.3004 7.09996C41.942 6.63788 41.4888 6.25785 40.9714 5.98534C40.454 5.71282 39.8842 5.55418 39.3004 5.52C39.0438 4.31377 38.4468 3.20634 37.5802 2.32902C36.7135 1.45171 35.6134 0.841269 34.4104 0.569991C33.2069 0.370266 31.9712 0.52375 30.8531 1.01182C29.735 1.4999 28.7823 2.30163 28.1104 3.31999C26.7182 3.46395 25.4031 4.02909 24.3404 4.93999C23.2922 5.7928 22.5398 6.95464 22.1904 8.25999" stroke="#404366" stroke-width="0.75" stroke-linecap="round" stroke-linejoin="round"/>
<path d="M18.6904 51.2699V36.8999" stroke="#404366" stroke-width="0.75" stroke-linecap="round" stroke-linejoin="round"/>
<path d="M24.0801 51.2799V41.5899L28.7801 36.8999" stroke="#404366" stroke-width="0.75" stroke-linecap="round" stroke-linejoin="round"/>
<path d="M25.5702 36.8999L23.9102 38.5399V36.8999" stroke="#404366" stroke-width="0.75" stroke-linecap="round" stroke-linejoin="round"/>
<path d="M36.6699 41.8899V36.8999" stroke="#404366" stroke-width="0.75" stroke-linecap="round" stroke-linejoin="round"/>
<path d="M31.8403 45.4499L31.9003 36.8999" stroke="#404366" stroke-width="0.75" stroke-linecap="round" stroke-linejoin="round"/>
<path d="M6.80029 51.2402C7.04029 51.2402 48.6703 51.3602 48.8003 51.2402" stroke="#404366" stroke-width="0.75" stroke-linecap="round" stroke-linejoin="round"/>
<path d="M26.4401 51.2699C26.3823 50.4464 26.5127 49.6205 26.8215 48.8548C27.1302 48.0892 27.6091 47.4039 28.222 46.8508C28.8348 46.2976 29.5655 45.8913 30.3587 45.6624C31.1519 45.4336 31.9868 45.3883 32.8001 45.5299C32.9038 44.924 33.1359 44.3472 33.4809 43.8384C33.8258 43.3296 34.2756 42.9005 34.8001 42.5799C35.8761 41.929 37.1506 41.6876 38.3901 41.8999C39.6245 42.1102 40.7691 42.6808 41.6801 43.5398C41.8741 42.1795 42.5917 40.9487 43.6801 40.1099C44.74 39.2725 46.0879 38.8879 47.4301 39.0398" stroke="#404366" stroke-width="0.75" stroke-linecap="round" stroke-linejoin="round"/>
<path d="M4.77995 50.6202C4.6028 49.9638 4.62415 49.2695 4.84129 48.6252C5.05842 47.9809 5.46161 47.4155 5.99995 47.0002C6.56749 46.6089 7.24057 46.3993 7.92994 46.3993C8.61931 46.3993 9.29241 46.6089 9.85995 47.0002C9.82566 46.677 9.86053 46.3503 9.96226 46.0417C10.064 45.7331 10.2302 45.4496 10.4499 45.2102C10.6631 44.9648 10.9278 44.7695 11.2251 44.6381C11.5224 44.5068 11.845 44.4426 12.1699 44.4502C11.9329 43.6999 11.9093 42.8984 12.1018 42.1355C12.2943 41.3726 12.6953 40.6782 13.2599 40.1302C13.8259 39.6075 14.5288 39.2566 15.2867 39.1185C16.0445 38.9804 16.826 39.0607 17.5399 39.3502" stroke="#404366" stroke-width="0.75" stroke-linecap="round" stroke-linejoin="round"/>
<path d="M2.03027 5.58008H17.2503V20.2701L9.75027 24.9301L2.03027 19.54V5.58008Z" fill="white" stroke="#404366" stroke-width="0.75" stroke-linecap="round" stroke-linejoin="round"/>
<path d="M4.80029 15.0602C6.47883 15.8486 7.87501 17.1331 8.80029 18.7402C10.5943 16.1272 12.7375 13.772 15.1703 11.7402" stroke="#404366" stroke-width="0.75" stroke-linecap="round" stroke-linejoin="round"/>
<path d="M4.26015 12.7L4.16016 7.22998H15.2502L15.3302 9.77002" stroke="#404366" stroke-width="0.75" stroke-linecap="round" stroke-linejoin="round"/>
<path d="M4.16016 16.4899V18.5599L9.64015 22.3499L15.3302 18.7399V14.6099" stroke="#404366" stroke-width="0.75" stroke-linecap="round" stroke-linejoin="round"/>
</svg>
