<svg width="77" height="49" viewBox="0 0 77 49" fill="none" xmlns="http://www.w3.org/2000/svg">
<path d="M1.35986 47.9102H76.1399" stroke="#404366" stroke-width="0.75" stroke-linecap="round" stroke-linejoin="round"/>
<path d="M64.1799 47.91V23.64H52.0599V17.9301H42.2499V1.06006H24.3999V47.91C24.3999 47.91 22.0798 43.98 15.4698 41.4C10.937 39.7902 6.16973 38.9388 1.35986 38.88" stroke="#404366" stroke-width="0.75" stroke-linecap="round" stroke-linejoin="round"/>
<path d="M44.29 5.99023H58.9501V23.6403" stroke="#404366" stroke-width="0.75" stroke-linecap="round" stroke-linejoin="round"/>
<path d="M8.08984 39.4701V34.9601H14.9698V11.9302H21.4198" stroke="#404366" stroke-width="0.75" stroke-linecap="round" stroke-linejoin="round"/>
<path d="M27.6499 5.99023H38.0599" stroke="#404366" stroke-width="0.75" stroke-linecap="round" stroke-linejoin="round"/>
<path d="M27.6499 11.48H38.0599" stroke="#404366" stroke-width="0.75" stroke-linecap="round" stroke-linejoin="round"/>
<path d="M27.6499 16.9697H38.0599" stroke="#404366" stroke-width="0.75" stroke-linecap="round" stroke-linejoin="round"/>
<path d="M64.3101 28.0897C65.0751 27.3671 66.0367 26.8866 67.074 26.7087C68.1112 26.5308 69.1779 26.6633 70.1401 27.0897C71.116 27.5423 71.9346 28.2761 72.4907 29.197C73.0469 30.1179 73.3153 31.1838 73.2616 32.2583C73.2079 33.3327 72.8345 34.3667 72.1892 35.2275C71.544 36.0883 70.6563 36.7367 69.6401 37.0897C70.4605 37.0369 71.2698 37.3019 71.9001 37.8297C72.2302 38.0945 72.4929 38.4337 72.6667 38.8195C72.8406 39.2054 72.9205 39.6271 72.9001 40.0498C72.8799 40.2755 72.8294 40.4974 72.7501 40.7097C72.5915 41.0839 72.3252 41.4026 71.9851 41.6252C71.645 41.8478 71.2465 41.9641 70.8401 41.9597H64.3101" stroke="#404366" stroke-width="0.75" stroke-linecap="round" stroke-linejoin="round"/>
<path d="M66.71 32.5498L67.02 47.6298" stroke="#404366" stroke-width="0.75" stroke-linecap="round" stroke-linejoin="round"/>
<path d="M14.7501 22.4701C14.5121 22.1652 14.209 21.9172 13.8631 21.7442C13.5171 21.5712 13.1368 21.4775 12.7501 21.4701C12.0202 21.4229 11.2885 21.5263 10.6003 21.7741C9.91215 22.0218 9.28234 22.4086 8.75008 22.9102C8.21306 23.4284 7.78649 24.0499 7.49605 24.7373C7.20561 25.4248 7.0573 26.1639 7.06008 26.9102C6.50187 26.7701 5.91649 26.7807 5.36373 26.9409C4.81097 27.1012 4.31068 27.4054 3.91402 27.8224C3.51736 28.2394 3.2385 28.7543 3.10604 29.3144C2.97358 29.8744 2.99221 30.4596 3.16005 31.0102C3.33651 31.5482 3.65261 32.0297 4.07601 32.4057C4.4994 32.7816 5.01497 33.0386 5.57009 33.1502C4.97472 33.2847 4.42275 33.5667 3.96492 33.9704C3.50709 34.374 3.15811 34.8863 2.95009 35.4601C2.75929 36.0415 2.71607 36.6612 2.8243 37.2635C2.93253 37.8657 3.1888 38.4316 3.57009 38.9102" stroke="#404366" stroke-width="0.75" stroke-linecap="round" stroke-linejoin="round"/>
<path d="M33.7898 47.9003C37.352 47.9003 40.2398 44.9632 40.2398 41.3402C40.2398 37.7172 37.352 34.7803 33.7898 34.7803C30.2276 34.7803 27.3398 37.7172 27.3398 41.3402C27.3398 44.9632 30.2276 47.9003 33.7898 47.9003Z" stroke="#404366" stroke-width="0.75" stroke-linecap="round" stroke-linejoin="round"/>
<path d="M54.7898 47.9003C58.352 47.9003 61.2398 44.9632 61.2398 41.3402C61.2398 37.7172 58.352 34.7803 54.7898 34.7803C51.2276 34.7803 48.3398 37.7172 48.3398 41.3402C48.3398 44.9632 51.2276 47.9003 54.7898 47.9003Z" stroke="#404366" stroke-width="0.75" stroke-linecap="round" stroke-linejoin="round"/>
<path d="M33.79 41.3402C34.8954 40.5532 35.9026 39.6367 36.79 38.6102C37.3154 37.9239 37.771 37.187 38.1501 36.4103C38.7026 35.3196 38.9871 34.1129 38.98 32.8903V30.4902H36.1C35.9398 30.4915 35.7815 30.5244 35.634 30.5869C35.4865 30.6494 35.3527 30.7404 35.2403 30.8546C35.1279 30.9688 35.0392 31.104 34.9791 31.2526C34.919 31.4011 34.8888 31.56 34.8901 31.7202V31.7202C34.8888 31.8804 34.919 32.0393 34.9791 32.1879C35.0392 32.3364 35.1279 32.4716 35.2403 32.5858C35.3527 32.7 35.4865 32.791 35.634 32.8535C35.7815 32.916 35.9398 32.9489 36.1 32.9502H37.1" stroke="#404366" stroke-width="0.75" stroke-linecap="round" stroke-linejoin="round"/>
<path d="M38.96 32.1499H49.77L45.08 41.3398L38.96 32.1499Z" stroke="#404366" stroke-width="0.75" stroke-linecap="round" stroke-linejoin="round"/>
<path d="M49.7701 32.1499L54.79 41.3398H45.0801" stroke="#404366" stroke-width="0.75" stroke-linecap="round" stroke-linejoin="round"/>
<path d="M47.7402 29.8901H51.5002" stroke="#404366" stroke-width="0.75" stroke-linecap="round" stroke-linejoin="round"/>
</svg>
