<svg width="53" height="58" viewBox="0 0 53 58" fill="none" xmlns="http://www.w3.org/2000/svg">
<path d="M10.75 51.6601V16.1501C10.75 16.1501 18.64 15.9101 18.4 16.1501C18.16 16.3901 23.0699 37.07 23.0699 37.07L29.28 32.07V37.2101L36.67 32.2101V37.2101L43.75 32.3102V51.6802" stroke="#404366" stroke-width="0.75" stroke-linecap="round" stroke-linejoin="round"/>
<path d="M3.93945 51.6602H51.7595" stroke="#404366" stroke-width="0.75" stroke-linecap="round" stroke-linejoin="round"/>
<path d="M27.6396 49.45V47.33C27.6425 47.1264 27.6984 46.9271 27.8019 46.7517C27.9054 46.5763 28.0528 46.4309 28.2296 46.33L31.0796 44.71L32.1597 42.71C32.3973 42.2673 32.7507 41.8977 33.1823 41.6405C33.6138 41.3833 34.1072 41.2483 34.6096 41.25H38.7997C39.4662 41.2529 40.1104 41.4901 40.6196 41.9201L44.6196 45.34H45.9197C46.4331 45.34 46.9415 45.4411 47.4159 45.6376C47.8903 45.8341 48.3214 46.1222 48.6844 46.4852C49.0475 46.8483 49.3355 47.2793 49.532 47.7537C49.7285 48.2281 49.8296 48.7365 49.8296 49.25V49.44L27.6396 49.45Z" fill="white" stroke="#404366" stroke-width="0.75" stroke-linecap="round" stroke-linejoin="round"/>
<path d="M33.2794 51.6599C34.3177 51.6599 35.1594 50.8182 35.1594 49.7799C35.1594 48.7416 34.3177 47.8999 33.2794 47.8999C32.2411 47.8999 31.3994 48.7416 31.3994 49.7799C31.3994 50.8182 32.2411 51.6599 33.2794 51.6599Z" fill="white" stroke="#404366" stroke-width="0.75" stroke-linecap="round" stroke-linejoin="round"/>
<path d="M44.0099 51.6599C45.0482 51.6599 45.8899 50.8182 45.8899 49.7799C45.8899 48.7416 45.0482 47.8999 44.0099 47.8999C42.9716 47.8999 42.1299 48.7416 42.1299 49.7799C42.1299 50.8182 42.9716 51.6599 44.0099 51.6599Z" fill="white" stroke="#404366" stroke-width="0.75" stroke-linecap="round" stroke-linejoin="round"/>
<path d="M25.74 47.5498H21.75" stroke="#404366" stroke-width="0.75" stroke-linecap="round" stroke-linejoin="round"/>
<path d="M24.5394 49.4502H19.3994" stroke="#404366" stroke-width="0.75" stroke-linecap="round" stroke-linejoin="round"/>
<path d="M11.5098 13.6702V7.14014" stroke="#404366" stroke-width="0.75" stroke-linecap="round" stroke-linejoin="round"/>
<path d="M17.1699 13.6702V7.14014" stroke="#404366" stroke-width="0.75" stroke-linecap="round" stroke-linejoin="round"/>
<path d="M13.5801 13.6699V3.1499V13.6699Z" fill="white"/>
<path d="M13.5801 13.6699V3.1499" stroke="#404366" stroke-width="0.75" stroke-linecap="round" stroke-linejoin="round"/>
<path d="M15.3701 11V0.47998V11Z" fill="white"/>
<path d="M15.3701 11V0.47998" stroke="#404366" stroke-width="0.75" stroke-linecap="round" stroke-linejoin="round"/>
<path d="M41.8263 11.2733L27.7832 25.3164L30.4914 28.0246L44.5345 13.9815L41.8263 11.2733Z" fill="#404366"/>
<path d="M15.006 41.0731L0.962891 55.1162L3.67108 57.8244L17.7142 43.7813L15.006 41.0731Z" fill="#404366"/>
</svg>
