<svg width="51" height="53" viewBox="0 0 51 53" fill="none" xmlns="http://www.w3.org/2000/svg">
<path d="M7.45996 52.3901V16.8801C7.45996 16.8801 15.35 16.6401 15.11 16.8801C14.87 17.1201 19.78 37.8001 19.78 37.8001L25.99 32.8001V37.94L33.38 32.94V37.94L40.46 33.0401V52.4101" stroke="#404366" stroke-width="0.75" stroke-linecap="round" stroke-linejoin="round"/>
<path d="M0.640137 52.3901H48.4701" stroke="#404366" stroke-width="0.75" stroke-linecap="round" stroke-linejoin="round"/>
<path d="M24.3501 50.1801V48.0601C24.3509 47.856 24.406 47.6558 24.5096 47.4801C24.6133 47.3044 24.7618 47.1594 24.9401 47.0601L27.7902 45.4399L28.8601 43.4399C29.0994 42.9987 29.4533 42.6302 29.8845 42.3733C30.3157 42.1163 30.8082 41.9804 31.3102 41.98H35.5101C36.174 41.9809 36.8157 42.2185 37.3201 42.65L41.3201 46.0699H42.6201C43.1336 46.0699 43.6421 46.1712 44.1165 46.3677C44.5908 46.5642 45.0218 46.8521 45.3849 47.2152C45.748 47.5783 46.036 48.0094 46.2325 48.4838C46.429 48.9581 46.5302 49.4665 46.5302 49.98V50.17L24.3501 50.1801Z" fill="white" stroke="#404366" stroke-width="0.75" stroke-linecap="round" stroke-linejoin="round"/>
<path d="M29.9899 52.3899C31.0282 52.3899 31.8699 51.5482 31.8699 50.5099C31.8699 49.4716 31.0282 48.6299 29.9899 48.6299C28.9516 48.6299 28.1099 49.4716 28.1099 50.5099C28.1099 51.5482 28.9516 52.3899 29.9899 52.3899Z" fill="white" stroke="#404366" stroke-width="0.75" stroke-linecap="round" stroke-linejoin="round"/>
<path d="M40.7198 52.3899C41.7581 52.3899 42.5999 51.5482 42.5999 50.5099C42.5999 49.4716 41.7581 48.6299 40.7198 48.6299C39.6816 48.6299 38.8398 49.4716 38.8398 50.5099C38.8398 51.5482 39.6816 52.3899 40.7198 52.3899Z" fill="white" stroke="#404366" stroke-width="0.75" stroke-linecap="round" stroke-linejoin="round"/>
<path d="M22.45 48.2803H18.46" stroke="#404366" stroke-width="0.75" stroke-linecap="round" stroke-linejoin="round"/>
<path d="M21.2499 50.1802H16.1099" stroke="#404366" stroke-width="0.75" stroke-linecap="round" stroke-linejoin="round"/>
<path d="M8.21973 14.4102V7.87012" stroke="#404366" stroke-width="0.75" stroke-linecap="round" stroke-linejoin="round"/>
<path d="M13.8799 14.4102V7.87012" stroke="#404366" stroke-width="0.75" stroke-linecap="round" stroke-linejoin="round"/>
<path d="M10.29 14.4099V3.87988V14.4099Z" fill="white"/>
<path d="M10.29 14.4099V3.87988" stroke="#404366" stroke-width="0.75" stroke-linecap="round" stroke-linejoin="round"/>
<path d="M12.0801 11.6898V1.16992V11.6898Z" fill="white"/>
<path d="M12.0801 11.6898V1.16992" stroke="#404366" stroke-width="0.75" stroke-linecap="round" stroke-linejoin="round"/>
<path d="M47.5398 13.4498C47.5415 15.3724 47.0896 17.2682 46.2208 18.9832C45.352 20.6982 44.0908 22.184 42.5398 23.3198C42.0041 23.7206 41.4353 24.0753 40.8397 24.3799C38.4565 25.5983 35.7404 26.0047 33.105 25.5372C30.4695 25.0698 28.059 23.754 26.2402 21.7902C24.4215 19.8264 23.2941 17.3222 23.0298 14.6587C22.7654 11.9952 23.3786 9.3181 24.776 7.03517C26.1733 4.75224 28.2783 2.98844 30.7705 2.0121C33.2627 1.03577 36.0056 0.900451 38.5818 1.62673C41.158 2.353 43.4263 3.90112 45.0416 6.03542C46.6569 8.16972 47.5306 10.7732 47.5298 13.4498H47.5398Z" stroke="#404366" stroke-width="0.75" stroke-linecap="round" stroke-linejoin="round"/>
<path d="M35.2701 23.8898C41.036 23.8898 45.7101 19.2156 45.7101 13.4497C45.7101 7.68385 41.036 3.00977 35.2701 3.00977C29.5043 3.00977 24.8301 7.68385 24.8301 13.4497C24.8301 19.2156 29.5043 23.8898 35.2701 23.8898Z" stroke="#404366" stroke-width="0.75" stroke-linecap="round" stroke-linejoin="round"/>
<path d="M49.3901 36.0002C49.2299 36.1056 49.05 36.1774 48.8612 36.2113C48.6724 36.2452 48.4788 36.2405 48.2919 36.1975C48.105 36.1545 47.9287 36.0741 47.7737 35.9612C47.6187 35.8482 47.4883 35.7051 47.3901 35.5403L41.1802 25.5403C42.0292 25.1026 42.8417 24.5976 43.6101 24.0303L49.8301 34.0303C49.9315 34.1882 50.0007 34.3647 50.0334 34.5496C50.0662 34.7344 50.062 34.9239 50.0211 35.1071C49.9802 35.2903 49.9034 35.4635 49.795 35.6168C49.6867 35.7701 49.5491 35.9005 49.3901 36.0002Z" fill="#404366"/>
</svg>
