<svg width="64" height="47" viewBox="0 0 64 47" fill="none" xmlns="http://www.w3.org/2000/svg">
<path d="M29.1099 39.3L18.7098 46.3L8.31982 39.3C6.04321 37.7725 4.17747 35.7084 2.88696 33.2896C1.59646 30.8707 0.920934 28.1715 0.919922 25.43V4.71002L18.7098 1.27002L36.4999 4.71002V25.43C36.5008 28.1708 35.8273 30.8697 34.5385 33.2886C33.2497 35.7075 31.3853 37.772 29.1099 39.3V39.3Z" stroke="#404366" stroke-width="0.75" stroke-linecap="round" stroke-linejoin="round"/>
<path d="M18.71 10.9902V38.1602" stroke="#404366" stroke-width="0.75" stroke-linecap="round" stroke-linejoin="round"/>
<path d="M18.7097 42.3499L10.1298 36.5899C8.24802 35.3305 6.7053 33.6271 5.63794 31.6301C4.57058 29.6332 4.01143 27.4042 4.00977 25.1399V7.99988L18.7097 5.1499" stroke="#404366" stroke-width="0.75" stroke-linecap="round" stroke-linejoin="round"/>
<path d="M28.2898 7L33.4098 8V25.11C33.4101 27.3735 32.8528 29.6024 31.7871 31.5994C30.7215 33.5964 29.1803 35.3001 27.2998 36.56" stroke="#404366" stroke-width="0.75" stroke-linecap="round" stroke-linejoin="round"/>
<path d="M62.8199 38.9998C57.6799 38.9998 57.68 44.1498 52.53 44.1498C47.38 44.1498 47.39 38.9998 42.25 38.9998C37.11 38.9998 37.11 44.1498 31.97 44.1498C26.83 44.1498 26.8299 38.9998 21.6899 38.9998V19.8398C26.8299 19.8398 26.83 24.9998 31.97 24.9998C37.11 24.9998 37.11 19.8398 42.25 19.8398C47.39 19.8398 47.39 24.9998 52.53 24.9998C57.67 24.9998 57.6799 19.8398 62.8199 19.8398V38.9998Z" fill="white"/>
<path d="M62.8197 19.8398C57.6797 19.8398 57.6798 24.9998 52.5298 24.9998C47.3798 24.9998 47.3898 19.8398 42.2498 19.8398C37.1098 19.8398 37.1098 24.9998 31.9998 24.9998C26.8898 24.9998 26.8597 19.8398 21.7197 19.8398" stroke="#404366" stroke-width="0.75" stroke-linecap="round" stroke-linejoin="round"/>
<path d="M21.6899 29.4199C26.8299 29.4199 26.83 34.5699 31.97 34.5699C37.11 34.5699 37.11 29.4199 42.25 29.4199C47.39 29.4199 47.39 34.5699 52.53 34.5699C57.67 34.5699 57.6799 29.4199 62.8199 29.4199" stroke="#404366" stroke-width="0.75" stroke-linecap="round" stroke-linejoin="round"/>
<path d="M21.6899 39C26.8299 39 26.83 44.15 31.97 44.15C37.11 44.15 37.11 39 42.25 39C47.39 39 47.39 44.15 52.53 44.15C57.67 44.15 57.6799 39 62.8199 39" stroke="#404366" stroke-width="0.75" stroke-linecap="round" stroke-linejoin="round"/>
</svg>
