<svg width="61" height="43" viewBox="0 0 61 43" fill="none" xmlns="http://www.w3.org/2000/svg">
<path d="M54.1 36.0699C54.1 36.1699 54.0301 36.27 54.0201 36.37C53.3601 36.02 53.8701 37.77 53.9001 37.92C53.3701 37.73 53.9001 39.16 53.9001 39.41C53.7683 39.9308 53.6012 40.4418 53.4001 40.9399C53.3001 41.4699 53.4 41.63 52.83 41.65C52.0043 41.6834 51.1831 41.5116 50.44 41.15C50.1088 41.0541 49.8043 40.883 49.5501 40.65C49.3601 40.39 49.4601 39.65 49.1201 39.43C48.7801 39.21 48.5001 39.68 48.2801 39.73C47.6201 39.87 47.9501 39.39 47.5301 39.16C47.3301 39.06 46.8901 39.23 46.6501 39.24C46.408 39.275 46.1622 39.275 45.9201 39.24C45.7801 39.18 45.7801 39.12 45.6601 39.04C45.5627 38.9757 45.4691 38.9055 45.3801 38.8299C45.2901 38.7499 45.2201 38.76 45.1301 38.67C45.0401 38.58 45.1301 38.4599 45.1301 38.4499C44.8801 38.2499 44.5001 38.27 44.1301 38.13C43.9701 38.08 43.8301 37.9 43.6701 37.87C43.5101 37.84 43.45 37.9399 43.32 37.9599C42.905 38.0237 42.5052 38.1626 42.1401 38.37C41.6032 38.5397 41.0503 38.6536 40.4901 38.7099C39.6793 38.774 38.8832 38.963 38.1301 39.27C37.7901 39.43 37.7501 39.6999 37.5201 39.9399C37.2901 40.1799 36.93 40.33 36.7 40.6C36.26 41.12 35.99 41.6 35.35 41.81C35.1093 41.9035 34.8754 42.0138 34.6501 42.14C34.3922 42.2099 34.1271 42.2502 33.8601 42.26C33.4601 42.34 33.39 42.47 32.98 42.26C32.7343 42.0846 32.4604 41.9527 32.1701 41.87C31.3658 41.6924 30.5436 41.6085 29.72 41.62C28.97 41.62 28.28 41.0199 27.59 41.0899C27.31 41.0899 27.1401 41.3799 26.8801 41.4599C26.4752 41.54 26.0608 41.5603 25.6501 41.52C24.8285 41.3686 24.0219 41.1443 23.2401 40.85C22.8701 40.73 22.69 40.85 22.32 40.85C21.95 40.85 21.66 40.5199 21.32 40.4399C20.5762 40.3853 19.8295 40.4911 19.1301 40.75C18.2501 40.9 17.2801 41.06 17.5601 39.91C17.6701 39.45 17.7301 39.45 18.1401 39.31C18.5501 39.17 18.8301 39.0899 18.6301 38.6899C18.5101 38.4599 18.07 38.48 17.83 38.36C17.4308 38.1522 17.0582 37.897 16.72 37.6C16.38 37.31 16.61 37.3099 16.46 36.9599C16.31 36.6099 16.24 36.76 15.94 36.62C15.6754 36.5039 15.4671 36.2884 15.3601 36.02C15.3601 35.93 15.1401 35.45 15.1401 35.4C15.1401 35.03 15.2301 35.18 15.3901 35C15.3901 35 15.54 35 15.59 34.93C15.64 34.86 15.59 34.76 15.59 34.72C15.78 34.54 15.7301 34.44 16.0601 34.49C16.3901 34.54 16.3901 34.8 16.6701 34.65C16.9501 34.5 16.8701 34.4099 16.7601 34.2099C16.5601 33.8499 16.28 33.98 15.95 33.86C15.62 33.74 15.22 32.86 14.73 33.04C14.61 33.04 14.5201 33.27 14.4101 33.35C14.3001 33.43 14.16 33.3499 14.09 33.4499C13.884 33.6936 13.7216 33.9711 13.6101 34.27C13.2401 34.93 13.0001 35.38 12.5301 34.61C12.4278 34.4642 12.3374 34.3104 12.2601 34.15C12.0801 33.71 12.0401 33.73 11.6201 33.55C11.2001 33.37 11.3001 33.37 11.0001 33.4C10.7001 33.43 10.2901 33.68 9.9101 33.4C9.5301 33.12 9.71006 32.85 9.49006 32.66C9.27006 32.47 8.87001 32.6599 8.57001 32.5699C8.27001 32.4799 7.76002 32.15 8.08002 31.87C8.40002 31.59 9.84008 31.78 8.89008 31.15C8.69008 31.02 7.97009 30.87 8.02009 30.65C8.07009 30.43 8.26005 30.55 8.36005 30.43C8.45658 30.3108 8.53105 30.1754 8.58002 30.03C8.58002 29.93 8.58002 29.84 8.58002 29.74C8.63684 29.704 8.6972 29.6739 8.76008 29.65C8.85008 29.39 8.92004 29.3399 8.60004 29.0699C8.28004 28.7999 7.51002 28.82 7.08002 28.48C6.91002 28.35 6.83006 28.0299 6.62006 27.9499C6.41006 27.8699 6.49012 28.1099 6.43012 28.0899L6.24006 28.01C5.66006 27.9 5.18012 27.22 4.80012 26.81C4.80012 26.81 4.32013 26.45 4.31013 26.4C4.23013 26.2 4.48004 26.12 4.47004 25.88C4.46004 25.64 4.23003 25.5 4.21003 25.27C4.24565 25.0526 4.2992 24.8386 4.37006 24.63C4.39524 24.404 4.39524 24.1759 4.37006 23.9499C4.22006 23.6999 4.19003 23.9499 4.09003 23.9499C3.99003 23.9499 4.02006 24.1399 3.74006 23.9499C3.46006 23.7599 3.56001 23.49 3.44001 23.26C3.16001 22.75 2.75013 22.65 2.31013 22.36C2.08539 22.2434 1.87412 22.1025 1.68012 21.9399C1.49012 21.7399 1.48003 21.4199 1.34003 21.1899C1.20003 20.9599 0.760047 20.66 1.23005 20.41C1.42179 20.3749 1.61839 20.3749 1.81013 20.41C1.93992 20.4203 2.07022 20.4203 2.20002 20.41C2.27002 20.41 2.29004 20.24 2.35004 20.23C2.83004 20.15 3.24009 20.85 3.77009 20.4C3.77009 20.4 4.04009 20 4.02009 20.05C4.04227 19.8786 4.08595 19.7106 4.15009 19.55C4.38009 19.17 4.94006 19.36 5.24006 19.4C5.54006 19.44 5.6201 19.52 5.7801 19.53C5.9401 19.54 5.87012 19.65 6.05012 19.6C6.23012 19.55 6.29006 19.31 6.37006 19.23C6.45006 19.15 6.5501 19.2299 6.6601 19.0799C6.7701 18.9299 6.66007 18.71 6.75007 18.53C6.91007 17.96 7.11008 18.35 7.39008 18.04C7.67008 17.73 7.23012 17.47 7.30012 17.18C7.30012 17.05 7.49011 16.95 7.54011 16.81C7.59011 16.67 7.54009 16.37 7.65009 16.23C7.76009 16.09 7.91013 16.23 8.06013 16.16C8.21013 16.09 8.23003 15.9399 8.34003 15.8399C8.45003 15.7399 8.86007 15.5399 8.88007 15.2099C8.88007 15.2099 8.68011 15.09 8.67011 14.98C8.70686 14.8406 8.76051 14.7062 8.83002 14.5799C8.99002 14.2699 9.26008 14.26 9.39008 14.03C9.52008 13.8 9.39008 13.68 9.39008 13.5C9.39008 13.32 9.94007 13.24 9.88007 12.79C9.88007 12.67 9.67011 12.54 9.67011 12.49C9.67011 12.17 10.17 12.0199 10.35 11.8199C10.5999 11.5046 10.7713 11.1345 10.85 10.74C10.9048 10.4925 10.975 10.2487 11.0601 10.01C11.2501 9.56999 11.4901 9.58004 11.7701 9.31004C12.2801 8.83004 11.63 8.09994 12.34 7.57994C12.56 7.40994 12.8401 7.37004 13.0101 7.18004C13.0913 7.01489 13.1615 6.84451 13.22 6.67003C13.41 6.31003 13.5401 5.94998 14.0201 5.86998C14.5001 5.78998 14.23 5.92997 14.57 5.60997C14.72 5.47997 14.5701 5.41002 14.8601 5.41002C15.1501 5.41002 15.2601 5.65002 15.4901 5.66002C15.6218 5.6517 15.7507 5.6173 15.8691 5.55894C15.9875 5.50059 16.0932 5.41934 16.1801 5.31993C16.3785 5.20474 16.563 5.06726 16.73 4.91002C16.78 4.85002 16.7301 4.63998 16.8601 4.49998C16.9901 4.35998 17.12 4.40004 17.21 4.31004C17.3254 4.17342 17.4324 4.02976 17.5301 3.87999C17.6101 3.76999 17.78 3.36996 17.83 3.34996C17.88 3.32996 18.1501 3.61998 18.4301 3.49998C18.7101 3.37998 18.67 2.77004 18.98 2.56004C19.29 2.35004 19.62 2.64003 19.84 2.80003C20.3 3.15003 20.6401 3.80001 21.3001 3.65001C21.3701 3.65001 21.4401 3.44002 21.5401 3.41002C21.8401 3.29002 22.18 3.46999 22.48 3.50999C22.78 3.54999 23.0801 3.50996 23.4001 3.72996C23.5201 3.81996 23.5701 3.99 23.6701 4.02C23.7701 4.05 24.12 3.80001 24.32 3.78001C24.94 3.71001 25.32 4.43998 25.96 4.36998C26.272 4.27791 26.5736 4.15393 26.8601 3.99998C27.1319 3.8843 27.4347 3.86311 27.72 3.93992C27.8783 3.94777 28.0329 3.99037 28.1729 4.06468C28.3129 4.13899 28.4349 4.24326 28.5301 4.36998C28.7101 4.66998 28.5301 4.80001 28.9301 5.03001C29.3301 5.26001 29.4301 5.20998 29.6601 5.49998C29.8901 5.78998 29.8701 6.09993 30.4001 6.06993C31.4001 5.99993 31.49 5.31 32.07 4.64C32.65 3.97 33.69 4.23002 34.35 4.16002C35.01 4.09002 35.7701 3.83995 36.5001 3.71995C36.8201 3.71995 37.1801 3.71999 37.5001 3.62999C37.6441 3.62813 37.7855 3.59177 37.9125 3.52391C38.0396 3.45604 38.1484 3.35864 38.23 3.23997C38.6195 2.74518 38.8559 2.14736 38.9101 1.52C38.9149 1.4979 38.9278 1.47841 38.9464 1.46544C38.9649 1.45247 38.9877 1.4469 39.0101 1.44993C39.4233 1.41829 39.8303 1.33082 40.22 1.18992C40.5 1.12992 40.8401 0.919997 41.1101 0.889997C41.3801 0.859997 41.4801 1.05 41.6101 0.889997C41.6801 1.07 41.7201 1.01003 41.8701 1.05003C42.0151 1.07315 42.1544 1.12399 42.2801 1.19993C42.4301 1.27993 42.71 1.39993 42.72 1.69993C42.95 1.33993 43.45 1.98002 43.08 2.04002C43.22 2.31002 43.46 2.04002 43.59 2.29002C43.59 2.29002 43.52 2.55001 43.59 2.65001C43.66 2.75001 43.88 2.90995 43.98 3.08995C44.08 3.26995 43.8601 3.23003 43.9101 3.30003C43.9601 3.37003 44.0401 3.3 44.1601 3.39C44.2801 3.48 44.5101 3.59993 44.2901 3.81993C44.6201 3.95993 44.29 4.03001 44.35 4.15001C44.41 4.27001 44.6001 4.30995 44.6801 4.46995C44.7601 4.62995 44.68 4.82999 44.94 5.00999C44.86 5.00999 44.8 5.11 44.72 5.14C44.89 5.3 45.4101 5.99004 45.0601 6.06004C45.1901 6.78004 45.99 7.15996 46.19 7.72996C46.31 8.06996 46.3501 8.06997 46.6201 8.23997C46.8901 8.40997 46.87 8.33994 46.94 8.57994C46.94 8.57994 47.0001 8.87001 47.0001 8.90001C47.0107 9.02627 47.0375 9.15063 47.08 9.27C47.22 9.66 47.3701 9.71004 47.6601 9.93004C47.9501 10.15 48.66 10.9299 48.33 11.1999C48.42 11.3199 48.6101 11.5299 48.6601 11.5799L48.8801 11.81C49.0801 12.03 49.4601 12.53 49.7801 12.36C49.8801 12.67 50.1501 12.8699 50.2401 13.1999C50.3301 13.5299 50.24 13.5999 50.32 13.8399C50.4869 14.4526 50.7183 15.046 51.0101 15.61C51.2201 16.14 51.0101 16.4 51.0101 16.85C51.0101 17.3 51.1901 17.62 51.0101 18.06C50.913 18.4404 50.7928 18.8144 50.6501 19.18C50.6501 19.27 50.4601 19.3599 50.4101 19.4399C50.2601 19.7099 50.4101 19.57 50.4101 19.91C50.3683 20.3733 50.2846 20.8318 50.1601 21.28C50.1622 21.7181 50.2158 22.1544 50.32 22.5799C50.3328 22.723 50.3328 22.8669 50.32 23.01C50.3612 23.3126 50.442 23.6084 50.5601 23.89C50.6504 24.2696 50.6773 24.6616 50.6401 25.05C50.5001 25.22 50.17 25.12 49.98 25.4C50.1112 25.4388 50.233 25.5041 50.338 25.5918C50.4429 25.6795 50.5286 25.7878 50.59 25.91C50.69 26.15 50.5901 26.3 50.7901 26.52C50.9901 26.74 51.2201 26.64 51.3801 26.92C51.5401 27.2 51.3801 27.51 51.6201 27.74C51.8601 27.97 52.6201 28.24 53.1101 28.42C53.6001 28.6 54.3001 28.85 54.6101 28.5C54.2001 28.42 54.4201 28.17 54.5401 28.02C54.6601 27.87 54.4701 27.83 54.7501 27.8C54.8965 27.8521 55.0373 27.9191 55.1701 28C55.3201 28.07 55.3201 28.24 55.5201 28.16C55.7201 28.08 55.5201 27.9099 55.6501 27.8299C55.9305 27.6461 56.2329 27.4984 56.5501 27.39C56.9065 27.1515 57.3027 26.9787 57.72 26.88C57.8381 26.8454 57.9584 26.8187 58.08 26.8C58.5418 26.8084 58.9948 26.9285 59.4001 27.15C59.5894 27.2426 59.7503 27.3842 59.8664 27.56C59.9825 27.7359 60.0494 27.9396 60.0601 28.15C60.0601 28.38 60.0601 28.81 59.7701 28.74C59.8501 28.96 59.9601 29.25 60.2501 29.23C59.8501 29.53 59.9 30.57 59.85 31.05C59.8 31.53 59.8501 32.05 59.4201 32.23C58.9901 32.41 58.1601 32.4 57.6501 32.53C56.8001 32.74 55.96 32.5999 55.33 33.3199C54.7919 34.1737 54.3778 35.0997 54.1 36.0699V36.0699Z" stroke="#404366" stroke-width="0.75" stroke-linecap="round" stroke-linejoin="round"/>
<path d="M14.8498 30.9999C13.1971 27.1309 12.4806 22.9264 12.7586 18.7284C13.0367 14.5303 14.3013 10.4571 16.4498 6.83984" stroke="#404366" stroke-width="0.75" stroke-linecap="round" stroke-linejoin="round"/>
<path d="M34.2803 40.3901C30.7121 39.4577 27.4595 37.585 24.8617 34.9673C22.2639 32.3495 20.4161 29.0826 19.5111 25.5074C18.6061 21.9322 18.6769 18.1797 19.7163 14.6412C20.7557 11.1028 22.7255 7.90794 25.4203 5.39014" stroke="#404366" stroke-width="0.75" stroke-linecap="round" stroke-linejoin="round"/>
<path d="M51.8001 30.16C50.0634 32.3584 47.769 34.051 45.1559 35.0615C42.5429 36.072 39.7068 36.3635 36.9428 35.9056C34.1788 35.4477 31.5882 34.2571 29.4406 32.4579C27.2931 30.6586 25.6672 28.3166 24.7322 25.6755C23.7973 23.0345 23.5876 20.1912 24.1248 17.4415C24.6621 14.6919 25.9266 12.1365 27.7869 10.0416C29.6472 7.94671 32.035 6.38882 34.7018 5.53026C37.3687 4.6717 40.2169 4.54389 42.95 5.16002" stroke="#404366" stroke-width="0.75" stroke-linecap="round" stroke-linejoin="round"/>
<path d="M48.8802 27.8801C47.4367 29.7064 45.4932 31.0735 43.2864 31.8146C41.0797 32.5557 38.705 32.6389 36.4517 32.0542C34.1984 31.4695 32.1639 30.2421 30.596 28.5214C29.0281 26.8007 27.9945 24.6612 27.6211 22.3634C27.2478 20.0657 27.5509 17.7089 28.4934 15.5803C29.436 13.4518 30.9772 11.6434 32.9295 10.3754C34.8817 9.10739 37.1606 8.43459 39.4884 8.43899C41.8163 8.44338 44.0928 9.12482 46.0402 10.4002" stroke="#404366" stroke-width="0.75" stroke-linecap="round" stroke-linejoin="round"/>
<path d="M39.4902 28.7299C37.8506 28.7299 36.2478 28.2437 34.8845 27.3328C33.5212 26.4219 32.4587 25.1271 31.8313 23.6123C31.2038 22.0975 31.0396 20.4307 31.3595 18.8226C31.6793 17.2145 32.4689 15.7374 33.6283 14.578C34.7877 13.4186 36.2648 12.6291 37.8729 12.3092C39.481 11.9893 41.1479 12.1534 42.6627 12.7809C44.1775 13.4083 45.4722 14.471 46.3832 15.8342C47.2941 17.1975 47.7803 18.8002 47.7803 20.4398C47.7776 22.6377 46.9033 24.7447 45.3492 26.2988C43.7951 27.8529 41.688 28.7272 39.4902 28.7299V28.7299Z" stroke="#404366" stroke-width="0.75" stroke-linecap="round" stroke-linejoin="round"/>
<path d="M39.4899 25.0003C38.5821 25.0003 37.6947 24.7311 36.9399 24.2267C36.1851 23.7224 35.5967 23.0055 35.2493 22.1668C34.9019 21.3281 34.811 20.4052 34.9881 19.5148C35.1652 18.6245 35.6024 17.8067 36.2443 17.1647C36.8862 16.5228 37.704 16.0856 38.5944 15.9085C39.4848 15.7314 40.4077 15.8223 41.2464 16.1697C42.0851 16.5171 42.802 17.1055 43.3063 17.8603C43.8107 18.6151 44.0799 19.5025 44.0799 20.4103C44.0772 21.6269 43.5928 22.7928 42.7326 23.653C41.8724 24.5132 40.7065 24.9977 39.4899 25.0003V25.0003Z" stroke="#404366" stroke-width="0.75" stroke-linecap="round" stroke-linejoin="round"/>
<path d="M39.4901 21.3297C39.9816 21.3297 40.3801 20.9312 40.3801 20.4397C40.3801 19.9482 39.9816 19.5498 39.4901 19.5498C38.9986 19.5498 38.6001 19.9482 38.6001 20.4397C38.6001 20.9312 38.9986 21.3297 39.4901 21.3297Z" fill="#404366"/>
</svg>
