<svg width="62" height="41" viewBox="0 0 62 41" fill="none" xmlns="http://www.w3.org/2000/svg">
<path d="M16.4805 10.6299V38.5599C16.4805 39.0692 16.6828 39.5574 17.0428 39.9175C17.4029 40.2776 17.8913 40.4799 18.4005 40.4799H42.6905C43.1997 40.4799 43.6881 40.2776 44.0482 39.9175C44.4082 39.5574 44.6105 39.0692 44.6105 38.5599V10.6299H16.4805Z" stroke="#404366" stroke-width="0.75" stroke-linecap="round" stroke-linejoin="round"/>
<path d="M13.7006 30.3698C11.0022 29.1906 8.66897 27.31 6.94373 24.9235C5.21848 22.537 4.16424 19.7319 3.89062 16.7998C6.86505 17.4823 9.50119 19.1972 11.3306 21.6398C13.1141 24.1846 13.9523 27.2725 13.7006 30.3698Z" stroke="#404366" stroke-width="0.75" stroke-linecap="round" stroke-linejoin="round"/>
<path d="M12.0803 36.5202C10.9869 34.5209 9.27226 32.9321 7.19562 31.9939C5.11897 31.0557 2.79329 30.8191 0.570312 31.3202C0.90371 32.4081 1.45389 33.4173 2.18774 34.287C2.92159 35.1566 3.82394 35.8686 4.84033 36.3802C7.15321 37.3211 9.7328 37.371 12.0803 36.5202V36.5202Z" stroke="#404366" stroke-width="0.75" stroke-linecap="round" stroke-linejoin="round"/>
<path d="M48.0005 30.3698C50.7002 29.1912 53.0349 27.3109 54.7618 24.9244C56.4888 22.538 57.545 19.7326 57.8205 16.7998C54.8441 17.4774 52.2064 19.1933 50.3805 21.6398C48.5944 24.1836 47.7526 27.2713 48.0005 30.3698V30.3698Z" stroke="#404366" stroke-width="0.75" stroke-linecap="round" stroke-linejoin="round"/>
<path d="M49.6504 36.5203C50.7443 34.519 52.4606 32.9288 54.5393 31.9905C56.618 31.0522 58.9459 30.8168 61.1703 31.3202C60.8348 32.4085 60.2826 33.4178 59.5471 34.2874C58.8116 35.1569 57.908 35.8688 56.8904 36.3803C54.5775 37.3212 51.9979 37.3711 49.6504 36.5203V36.5203Z" stroke="#404366" stroke-width="0.75" stroke-linecap="round" stroke-linejoin="round"/>
<path d="M46.1102 7V9.31006C46.1102 9.55769 46.0385 9.80002 45.9036 10.0077C45.7687 10.2154 45.5764 10.3794 45.3502 10.48C45.1852 10.5607 45.0038 10.6018 44.8202 10.6H15.7002C15.5166 10.6018 15.3351 10.5607 15.1702 10.48C14.9439 10.3794 14.7517 10.2154 14.6168 10.0077C14.4819 9.80002 14.4101 9.55769 14.4102 9.31006V7C14.4102 6.65787 14.5461 6.32981 14.788 6.08789C15.0299 5.84597 15.3581 5.70996 15.7002 5.70996H44.8202C45.1623 5.70996 45.4904 5.84597 45.7324 6.08789C45.9743 6.32981 46.1102 6.65787 46.1102 7Z" stroke="#404366" stroke-width="0.75" stroke-linecap="round" stroke-linejoin="round"/>
<path d="M40.1803 5.73987H20.3403C23.3184 3.88996 26.7544 2.90967 30.2603 2.90967C33.7662 2.90967 37.2022 3.88996 40.1803 5.73987V5.73987Z" stroke="#404366" stroke-width="0.75" stroke-linecap="round" stroke-linejoin="round"/>
<path d="M30.5899 1.08984H29.3799V2.90991H30.5899V1.08984Z" stroke="#404366" stroke-width="0.75" stroke-linecap="round" stroke-linejoin="round"/>
<path d="M33.72 34.2201C33.5618 34.2221 33.4064 34.1777 33.2732 34.0924C33.1399 34.0071 33.0345 33.8846 32.97 33.7401L32.07 31.7401C32.0166 31.6143 31.995 31.4773 32.0072 31.3413C32.0194 31.2052 32.0651 31.0743 32.14 30.9601C32.2141 30.8472 32.315 30.7543 32.4336 30.6898C32.5522 30.6252 32.685 30.591 32.82 30.5901H35.82C36.0093 30.5976 36.1973 30.5553 36.365 30.4673C36.5328 30.3792 36.6745 30.2487 36.7758 30.0886C36.8771 29.9285 36.9345 29.7446 36.9423 29.5553C36.9501 29.366 36.9079 29.1779 36.82 29.0101L35.24 26.0101C35.1379 25.8178 35.1164 25.5929 35.1801 25.3847C35.2439 25.1766 35.3878 25.0022 35.58 24.9001C35.7723 24.798 35.9973 24.7764 36.2055 24.8402C36.4136 24.9039 36.5879 25.0478 36.69 25.2401L38.26 28.2401C38.4811 28.6545 38.591 29.1192 38.5792 29.5887C38.5673 30.0583 38.4341 30.5168 38.1924 30.9195C37.9507 31.3223 37.6089 31.6556 37.2002 31.8871C36.7914 32.1185 36.3297 32.2401 35.86 32.2401H34.1L34.49 33.1101C34.5774 33.309 34.5822 33.5345 34.5034 33.737C34.4247 33.9395 34.2688 34.1024 34.07 34.19C33.9572 34.2265 33.8374 34.2368 33.72 34.2201Z" fill="#404366"/>
<path d="M32.8202 32.1999C32.6948 32.1985 32.5715 32.1677 32.4602 32.1099C32.2678 32.0132 32.121 31.8448 32.0518 31.6408C31.9826 31.4368 31.9964 31.2138 32.0902 31.0199L33.2202 28.7099C33.2662 28.6128 33.331 28.5258 33.4109 28.454C33.4908 28.3822 33.5842 28.327 33.6856 28.2917C33.7871 28.2563 33.8946 28.2415 34.0018 28.2481C34.109 28.2547 34.2139 28.2824 34.3102 28.3299C34.4077 28.3769 34.4948 28.4427 34.5668 28.5235C34.6387 28.6043 34.6938 28.6986 34.7292 28.8008C34.7645 28.9031 34.7792 29.0113 34.7726 29.1193C34.7659 29.2273 34.7379 29.3329 34.6902 29.43L33.5602 31.7399C33.4916 31.8776 33.3861 31.9937 33.2554 32.0749C33.1247 32.1561 32.9741 32.1993 32.8202 32.1999Z" fill="#404366"/>
<path d="M27.36 23.5101C27.2135 23.5119 27.0693 23.474 26.9426 23.4003C26.816 23.3266 26.7117 23.2199 26.6409 23.0917C26.5701 22.9634 26.5354 22.8183 26.5405 22.6719C26.5457 22.5254 26.5904 22.3831 26.67 22.2601L28.44 19.4102C28.6804 19.0158 29.0183 18.6899 29.4211 18.464C29.8239 18.2381 30.2781 18.1196 30.74 18.1201C31.2089 18.126 31.6683 18.2535 32.0732 18.4901C32.4782 18.7267 32.8147 19.0644 33.05 19.4701L34 21.0001L34.56 20.2201C34.6926 20.0437 34.8899 19.9273 35.1083 19.8964C35.3268 19.8654 35.5486 19.9226 35.725 20.0552C35.9014 20.1878 36.0178 20.3849 36.0488 20.6034C36.0797 20.8219 36.0226 21.0437 35.89 21.2201L34.58 23.0201C34.5021 23.1313 34.3966 23.2202 34.2738 23.2781C34.151 23.336 34.0153 23.3607 33.88 23.3501C33.7435 23.3462 33.6102 23.3073 33.4929 23.2373C33.3756 23.1673 33.2783 23.0684 33.21 22.9501L31.69 20.3301C31.6026 20.1658 31.4712 20.0293 31.3104 19.9357C31.1497 19.842 30.966 19.7951 30.78 19.8002C30.5928 19.7894 30.4063 19.8315 30.2418 19.9216C30.0774 20.0118 29.9416 20.1465 29.85 20.3102L28.08 23.1602C27.9986 23.2738 27.8901 23.3653 27.7644 23.4264C27.6387 23.4875 27.4997 23.5163 27.36 23.5101Z" fill="#404366"/>
<path d="M31.3402 23.4999C31.1328 23.5004 30.9328 23.4223 30.7806 23.2812C30.6284 23.1402 30.5354 22.9468 30.5202 22.7398C30.5064 22.5228 30.5783 22.3091 30.7204 22.1445C30.8625 21.9799 31.0635 21.8777 31.2802 21.8598L33.8402 21.6799C34.0572 21.6661 34.271 21.7379 34.4355 21.88C34.6001 22.0221 34.7023 22.2231 34.7202 22.4398C34.7339 22.6557 34.6618 22.8684 34.5194 23.0313C34.3771 23.1943 34.1761 23.2945 33.9602 23.3099L31.4002 23.4898L31.3402 23.4999Z" fill="#404366"/>
<path d="M28.5901 32.2H25.2301C24.7612 32.1982 24.3008 32.0754 23.8934 31.8433C23.486 31.6111 23.1456 31.2776 22.9051 30.8751C22.6646 30.4726 22.5323 30.0149 22.5209 29.5461C22.5095 29.0774 22.6195 28.6136 22.8401 28.2L23.6701 26.64L22.6701 26.5699C22.4668 26.538 22.283 26.4307 22.1551 26.2695C22.0272 26.1083 21.9646 25.9049 21.9798 25.6997C21.9949 25.4945 22.0865 25.3025 22.2367 25.1617C22.3868 25.021 22.5843 24.9418 22.7901 24.9399L25.0001 25.1C25.1365 25.1083 25.2687 25.151 25.3842 25.2241C25.4997 25.2972 25.5948 25.3984 25.6607 25.5182C25.7266 25.638 25.7611 25.7725 25.7609 25.9092C25.7608 26.0459 25.7261 26.1804 25.6601 26.3L24.2401 28.97C24.147 29.1311 24.098 29.3139 24.098 29.5C24.098 29.6861 24.147 29.8689 24.2401 30.03C24.3348 30.1901 24.4693 30.323 24.6304 30.4159C24.7916 30.5087 24.974 30.5584 25.1601 30.5601H28.5201C28.7376 30.5601 28.9462 30.6464 29.0999 30.8002C29.2537 30.954 29.3401 31.1625 29.3401 31.38C29.3401 31.5975 29.2537 31.8061 29.0999 31.9598C28.9462 32.1136 28.7376 32.2 28.5201 32.2H28.5901Z" fill="#404366"/>
<path d="M26.4901 28.8201C26.3611 28.8193 26.2342 28.7882 26.1195 28.7291C26.0048 28.6701 25.9057 28.5847 25.8302 28.4801L24.3202 26.4002C24.2563 26.3138 24.2103 26.2155 24.1848 26.1112C24.1593 26.0069 24.1548 25.8986 24.1715 25.7925C24.1883 25.6864 24.226 25.5847 24.2824 25.4933C24.3388 25.4019 24.4128 25.3227 24.5002 25.2601C24.5865 25.1963 24.6848 25.1503 24.7891 25.1248C24.8934 25.0993 25.0017 25.0947 25.1078 25.1115C25.2139 25.1282 25.3156 25.1659 25.407 25.2223C25.4984 25.2787 25.5777 25.3527 25.6402 25.4401L27.1502 27.5202C27.277 27.6971 27.3292 27.9169 27.2955 28.132C27.2618 28.3471 27.145 28.5404 26.9701 28.6702C26.8284 28.7663 26.6614 28.8184 26.4901 28.8201Z" fill="#404366"/>
<path d="M8.11035 40.48H52.9803" stroke="#404366" stroke-width="0.75" stroke-linecap="round" stroke-linejoin="round"/>
<path d="M23.0303 13.3301V20.8801" stroke="#404366" stroke-width="0.75" stroke-linecap="round" stroke-linejoin="round"/>
<path d="M38.5605 13.3301V20.8801" stroke="#404366" stroke-width="0.75" stroke-linecap="round" stroke-linejoin="round"/>
<path d="M30.5205 13.3301V15.8701" stroke="#404366" stroke-width="0.75" stroke-linecap="round" stroke-linejoin="round"/>
<path d="M23.0303 38.1997V33.0098" stroke="#404366" stroke-width="0.75" stroke-linecap="round" stroke-linejoin="round"/>
<path d="M38.5605 38.1997V33.0098" stroke="#404366" stroke-width="0.75" stroke-linecap="round" stroke-linejoin="round"/>
<path d="M30.5205 38.2001V35.6602" stroke="#404366" stroke-width="0.75" stroke-linecap="round" stroke-linejoin="round"/>
</svg>
