<svg width="72" height="54" viewBox="0 0 72 54" fill="none" xmlns="http://www.w3.org/2000/svg">
<path d="M50.7802 16.27C50.3456 16.2943 49.9106 16.2298 49.5018 16.0802C49.093 15.9306 48.719 15.6992 48.4027 15.4001C48.0865 15.1011 47.8345 14.7406 47.6624 14.3408C47.4902 13.941 47.4014 13.5102 47.4014 13.0749C47.4014 12.6397 47.4902 12.209 47.6624 11.8092C47.8345 11.4094 48.0865 11.0489 48.4027 10.7499C48.719 10.4508 49.093 10.2194 49.5018 10.0698C49.9106 9.92025 50.3456 9.85568 50.7802 9.88" fill="white"/>
<path d="M50.7802 16.27C50.3456 16.2943 49.9106 16.2298 49.5018 16.0802C49.093 15.9306 48.719 15.6992 48.4027 15.4001C48.0865 15.1011 47.8345 14.7406 47.6624 14.3408C47.4902 13.941 47.4014 13.5102 47.4014 13.0749C47.4014 12.6397 47.4902 12.209 47.6624 11.8092C47.8345 11.4094 48.0865 11.0489 48.4027 10.7499C48.719 10.4508 49.093 10.2194 49.5018 10.0698C49.9106 9.92025 50.3456 9.85568 50.7802 9.88" stroke="#404366" stroke-width="0.75" stroke-linecap="round" stroke-linejoin="round"/>
<path d="M54.5301 13.8701C54.6286 13.7035 54.7849 13.579 54.9692 13.52C55.1535 13.461 55.3531 13.4717 55.5301 13.5502L63.1701 17.9302C63.3143 18.0327 63.4359 18.1637 63.5274 18.3152C63.6188 18.4667 63.6781 18.6354 63.7015 18.8108C63.725 18.9862 63.7121 19.1645 63.6637 19.3347C63.6152 19.5049 63.5323 19.6634 63.4201 19.8002C63.3352 19.9543 63.2198 20.0896 63.0811 20.1979C62.9423 20.3061 62.7831 20.385 62.6129 20.4299C62.4427 20.4748 62.2652 20.4847 62.0911 20.459C61.917 20.4332 61.75 20.3724 61.6001 20.2801L54.6001 14.9501C54.4552 14.8115 54.3677 14.6237 54.3547 14.4237C54.3417 14.2237 54.4043 14.0262 54.5301 13.8701Z" fill="white" stroke="#404366" stroke-width="0.75" stroke-linecap="round" stroke-linejoin="round"/>
<path d="M55.8301 11.48L52.7301 10.15C52.7301 10.15 50.1001 9.71002 50.1001 13.63C50.1001 17.55 53.4501 16.53 53.5701 16.47C53.6901 16.41 55.9801 14.26 55.9801 14.26L55.8301 11.48Z" fill="white" stroke="#404366" stroke-width="0.75" stroke-linecap="round" stroke-linejoin="round"/>
<path d="M47.0999 35.5498H12.6299V53.5797H47.0999V35.5498Z" stroke="#404366" stroke-width="0.75" stroke-linecap="round" stroke-linejoin="round"/>
<path d="M35.3203 37.8501V52.0701" stroke="#404366" stroke-width="0.75" stroke-linecap="round" stroke-linejoin="round"/>
<path d="M9.87012 35.3501L17.7501 28.1401H24.0601" stroke="#404366" stroke-width="0.75" stroke-linecap="round" stroke-linejoin="round"/>
<path d="M34.4199 35.5502L42.2999 28.3501" stroke="#404366" stroke-width="0.75" stroke-linecap="round" stroke-linejoin="round"/>
<path d="M50.2902 35.3501L42.4102 28.1401H30.7002" stroke="#404366" stroke-width="0.75" stroke-linecap="round" stroke-linejoin="round"/>
<path d="M70.8097 43.4399C50.5097 44.0399 25.7197 53.58 25.7197 53.58H70.8097" fill="white"/>
<path d="M70.8097 43.4399C50.5097 44.0399 25.7197 53.58 25.7197 53.58H70.8097" stroke="#404366" stroke-width="0.75" stroke-linecap="round" stroke-linejoin="round"/>
<path d="M12.3099 53.5801H0.379883" stroke="#404366" stroke-width="0.75" stroke-linecap="round" stroke-linejoin="round"/>
<path d="M12.3099 47.1499H0.379883" stroke="#404366" stroke-width="0.75" stroke-linecap="round" stroke-linejoin="round"/>
<path d="M6.39014 45.5498V52.3098" stroke="#404366" stroke-width="0.75" stroke-linecap="round" stroke-linejoin="round"/>
<path d="M10.1602 45.5498V52.3098" stroke="#404366" stroke-width="0.75" stroke-linecap="round" stroke-linejoin="round"/>
<path d="M2.57031 45.5498V52.3098" stroke="#404366" stroke-width="0.75" stroke-linecap="round" stroke-linejoin="round"/>
<path d="M0.910156 41.5997C4.37237 39.2781 8.47347 38.0964 12.6402 38.2197" stroke="#404366" stroke-width="0.75" stroke-linecap="round" stroke-linejoin="round"/>
<path d="M55.4503 14.9502C56.2566 14.9502 56.9102 14.0727 56.9102 12.9902C56.9102 11.9078 56.2566 11.0303 55.4503 11.0303C54.6439 11.0303 53.9902 11.9078 53.9902 12.9902C53.9902 14.0727 54.6439 14.9502 55.4503 14.9502Z" fill="#404366"/>
<path d="M53.9102 16.27L55.5901 44.9399" stroke="#404366" stroke-width="0.75" stroke-linecap="round" stroke-linejoin="round"/>
<path d="M50.78 16.27L50.21 31.75" stroke="#404366" stroke-width="0.75" stroke-linecap="round" stroke-linejoin="round"/>
<path d="M53.9102 16.27C54.0102 16.13 55.8301 14.27 55.8301 14.27" stroke="#404366" stroke-width="0.75" stroke-linecap="round" stroke-linejoin="round"/>
<path d="M52.6897 13.8698C52.5927 13.7015 52.4371 13.5748 52.2527 13.5139C52.0682 13.453 51.8678 13.4623 51.6897 13.5399L44.1697 17.8398C44.0284 17.9438 43.9099 18.0756 43.8212 18.227C43.7326 18.3784 43.6758 18.5462 43.6543 18.7203C43.6328 18.8944 43.647 19.071 43.696 19.2395C43.7451 19.4079 43.828 19.5645 43.9397 19.6998C44.0228 19.8531 44.1361 19.988 44.2728 20.0963C44.4095 20.2045 44.5667 20.2839 44.7349 20.3297C44.9031 20.3755 45.0789 20.3868 45.2516 20.3628C45.4243 20.3387 45.5903 20.2798 45.7397 20.1898L52.6197 14.9398C52.7638 14.8029 52.8511 14.6169 52.864 14.4185C52.877 14.2202 52.8147 14.0243 52.6897 13.8698Z" fill="white" stroke="#404366" stroke-width="0.75" stroke-linecap="round" stroke-linejoin="round"/>
<path d="M53.53 10.9999C53.3345 11.016 53.1399 10.9597 52.9832 10.8417C52.8265 10.7237 52.7186 10.5522 52.68 10.3599L52.04 1.82984C52.0459 1.65484 52.0878 1.48298 52.1632 1.32496C52.2386 1.16694 52.3459 1.0262 52.4783 0.911629C52.6107 0.797061 52.7654 0.711122 52.9326 0.659188C53.0999 0.607254 53.276 0.590473 53.45 0.609871C53.6225 0.59343 53.7964 0.611615 53.9617 0.663338C54.127 0.715061 54.2803 0.799353 54.4125 0.911141C54.5448 1.02293 54.6534 1.15999 54.732 1.31434C54.8106 1.46869 54.8575 1.63721 54.87 1.80994L54.37 10.3499C54.3358 10.5432 54.2309 10.717 54.0756 10.8372C53.9203 10.9573 53.7258 11.0153 53.53 10.9999Z" fill="white" stroke="#404366" stroke-width="0.75" stroke-linecap="round" stroke-linejoin="round"/>
<path d="M20.9101 41.29H15.0801V45.79H20.9101V41.29Z" stroke="#404366" stroke-width="0.75" stroke-linecap="round" stroke-linejoin="round"/>
<path d="M30.7001 41.29H24.8701V45.79H30.7001V41.29Z" stroke="#404366" stroke-width="0.75" stroke-linecap="round" stroke-linejoin="round"/>
<path d="M42.4102 34.1499C43.1005 34.1499 43.6602 33.5903 43.6602 32.8999C43.6602 32.2095 43.1005 31.6499 42.4102 31.6499C41.7198 31.6499 41.1602 32.2095 41.1602 32.8999C41.1602 33.5903 41.7198 34.1499 42.4102 34.1499Z" stroke="#404366" stroke-width="0.75" stroke-linecap="round" stroke-linejoin="round"/>
</svg>
