<svg width="41" height="58" viewBox="0 0 41 58" fill="none" xmlns="http://www.w3.org/2000/svg">
<path d="M35.5702 27.1799C34.9802 28.5599 33.7102 29.7599 31.8202 31.4499C28.8202 34.1699 26.2303 37.3599 23.0603 39.9999C19.0016 43.2658 14.5128 45.9577 9.72021 47.9999" stroke="#FFA506" stroke-width="3.75" stroke-linecap="round" stroke-linejoin="round"/>
<path d="M9.57007 55.45C13.6956 55.45 17.0402 52.1056 17.0402 47.98C17.0402 43.8544 13.6956 40.51 9.57007 40.51C5.4445 40.51 2.1001 43.8544 2.1001 47.98C2.1001 52.1056 5.4445 55.45 9.57007 55.45Z" fill="white" stroke="#FFA506" stroke-width="3.75" stroke-linecap="round" stroke-linejoin="round"/>
<path d="M26.8101 2.81006C30.3767 8.8407 33.226 15.2677 35.3 21.9601C35.7604 23.1584 35.9746 24.4371 35.9301 25.72C35.8886 26.2292 35.767 26.7287 35.5699 27.2001" stroke="#FFA506" stroke-width="3.75" stroke-linecap="round" stroke-linejoin="round"/>
<path d="M35.9502 31.0901C38.0213 31.0901 39.7002 29.4112 39.7002 27.3401C39.7002 25.269 38.0213 23.5901 35.9502 23.5901C33.8791 23.5901 32.2002 25.269 32.2002 27.3401C32.2002 29.4112 33.8791 31.0901 35.9502 31.0901Z" fill="white" stroke="#FFA506" stroke-width="2" stroke-linecap="round" stroke-linejoin="round"/>
</svg>
