<svg width="104" height="231" viewBox="0 0 104 231" fill="none" xmlns="http://www.w3.org/2000/svg">
<path d="M84.34 1.95996C77.34 5.52996 69.98 8.15997 65.34 14.78C62.13 19.32 63.46 24.04 63.34 29.1C63.22 34.98 62.3401 39.8999 63.8101 45.7899C66.4501 56.2399 72.61 65.4199 74.7 76.0699C76.79 86.7199 78.35 91.29 87.37 97.39C90.97 99.82 94.16 102.21 96.62 105.72C105.09 117.8 101.49 135.85 87.49 140.98C83.64 142.39 80.17 142.92 77.1 145.72C68.41 153.66 60.1499 159.94 53.8199 170.37C52.2499 172.96 50.82 175.66 49.37 178.51C44.37 188.63 39.61 197.14 31.25 204.43C25.25 209.68 14.25 214.27 9.25 220.9" stroke="#FFA506" stroke-width="3.75" stroke-linejoin="round" stroke-dasharray="4.69 3.75"/>
<path d="M9.40015 228.35C13.5257 228.35 16.8701 225.005 16.8701 220.88C16.8701 216.754 13.5257 213.41 9.40015 213.41C5.27458 213.41 1.93018 216.754 1.93018 220.88C1.93018 225.005 5.27458 228.35 9.40015 228.35Z" fill="white" stroke="#FFA506" stroke-width="3.75" stroke-linecap="round" stroke-linejoin="round"/>
</svg>
