<svg width="371" height="201" viewBox="0 0 371 201" fill="none" xmlns="http://www.w3.org/2000/svg">
<path d="M369.21 1.87988C368.775 2.45743 368.378 3.06195 368.02 3.68985C365.7 7.86985 365.02 13.4099 363.08 17.8499C360.34 24.1899 355.55 26.0498 350.93 30.9398C346.48 35.6598 342.13 40.4399 337.74 45.0199C333.89 49.0199 329.35 53.8799 324.82 57.0899C322.92 58.4399 321.06 60.4499 318.89 61.1699C316.45 61.9899 314.38 61.8898 311.74 63.1198C306.91 65.3898 303.2 68.6199 298.87 71.5899C295.36 73.9899 291.71 77.2199 288.11 79.3799C285.27 81.0799 283.35 80.5298 280.5 81.1798C277.33 81.9098 274.15 82.7599 270.96 83.6399C266.96 84.7299 262.96 85.8499 258.96 86.7799C245.86 89.7799 233.09 95.0399 220.26 97.7799C213.26 99.2799 206.74 102.22 199.99 104.93C188.8 109.41 176.56 111.18 165.99 117.12C162.71 118.873 159.227 120.216 155.62 121.12C145.79 123.97 137.07 129.43 128.08 134.12C125.34 135.56 123.64 137.3 121.15 139.12C119.23 140.55 116.15 140.8 114.04 142.03C105.15 147.32 96.39 152.65 86.45 155.55C76.51 158.45 66.35 154.86 56.39 157.42C47.8 159.64 38.96 156.84 31.65 163.64C24.34 170.44 24.34 181.56 16 187.75C14.1076 189.115 12.1 190.313 10 191.33" stroke="#FFA506" stroke-width="3.75" stroke-linejoin="round" stroke-dasharray="4.69 3.75"/>
<path d="M9.98022 198.4C14.1058 198.4 17.4503 195.055 17.4503 190.93C17.4503 186.804 14.1058 183.46 9.98022 183.46C5.85466 183.46 2.51025 186.804 2.51025 190.93C2.51025 195.055 5.85466 198.4 9.98022 198.4Z" fill="white" stroke="#FFA506" stroke-width="3.75" stroke-linecap="round" stroke-linejoin="round"/>
</svg>
