<svg width="124" height="157" viewBox="0 0 124 157" fill="none" xmlns="http://www.w3.org/2000/svg">
<path d="M118.57 126.18C117.98 127.56 116.71 128.76 114.82 130.45C111.82 133.17 109.23 136.36 106.06 139C102.002 142.266 97.5128 144.958 92.7202 147" stroke="#FFA506" stroke-width="3.75" stroke-linecap="round" stroke-linejoin="round"/>
<path d="M92.5701 154.45C96.6956 154.45 100.04 151.106 100.04 146.98C100.04 142.854 96.6956 139.51 92.5701 139.51C88.4445 139.51 85.1001 142.854 85.1001 146.98C85.1001 151.106 88.4445 154.45 92.5701 154.45Z" fill="white" stroke="#FFA506" stroke-width="3.75" stroke-linecap="round" stroke-linejoin="round"/>
<path d="M109.81 101.81C113.377 107.841 116.226 114.268 118.3 120.96C118.76 122.158 118.975 123.437 118.93 124.72C118.889 125.229 118.767 125.729 118.57 126.2" stroke="#FFA506" stroke-width="3.75" stroke-linecap="round" stroke-linejoin="round"/>
<path d="M118.95 130.09C121.021 130.09 122.7 128.411 122.7 126.34C122.7 124.269 121.021 122.59 118.95 122.59C116.879 122.59 115.2 124.269 115.2 126.34C115.2 128.411 116.879 130.09 118.95 130.09Z" fill="white" stroke="#FFA506" stroke-width="2" stroke-linecap="round" stroke-linejoin="round"/>
<path d="M94.21 87.6301C98.8505 89.7059 102.955 92.8151 106.21 96.7201C107.518 98.3379 108.72 100.038 109.81 101.81" stroke="#FFA506" stroke-width="3.75" stroke-linecap="round" stroke-linejoin="round"/>
<path d="M109.81 105.19C111.881 105.19 113.56 103.511 113.56 101.44C113.56 99.3689 111.881 97.6899 109.81 97.6899C107.739 97.6899 106.06 99.3689 106.06 101.44C106.06 103.511 107.739 105.19 109.81 105.19Z" fill="white" stroke="#FFA506" stroke-width="2" stroke-linecap="round" stroke-linejoin="round"/>
<path d="M65 78.0801C72 81.2501 80 82.2301 87.16 84.7801L88.63 85.3101C90.52 86.0001 92.4 86.7601 94.23 87.6301" stroke="#C8CEDB" stroke-width="3.75" stroke-linecap="round" stroke-linejoin="round"/>
<path d="M94.0303 91.1399C96.1013 91.1399 97.7803 89.461 97.7803 87.3899C97.7803 85.3188 96.1013 83.6399 94.0303 83.6399C91.9592 83.6399 90.2803 85.3188 90.2803 87.3899C90.2803 89.461 91.9592 91.1399 94.0303 91.1399Z" fill="#404366"/>
<path d="M44.9199 64.3101C50.4099 68.1101 55.6599 72.74 61.4199 76.22C62.5683 76.9107 63.757 77.5318 64.9799 78.08" stroke="#C8CEDB" stroke-width="3.75" stroke-linecap="round" stroke-linejoin="round"/>
<path d="M64.98 82.21C67.051 82.21 68.73 80.531 68.73 78.46C68.73 76.3889 67.051 74.71 64.98 74.71C62.9089 74.71 61.23 76.3889 61.23 78.46C61.23 80.531 62.9089 82.21 64.98 82.21Z" fill="#404366"/>
<path d="M24 50.8201C29.22 55.5501 35.42 58.4901 41.37 62.0201C42.57 62.7401 43.7501 63.5101 44.9301 64.3101" stroke="#C8CEDB" stroke-width="3.75" stroke-linecap="round" stroke-linejoin="round"/>
<path d="M44.52 68.0701C46.5911 68.0701 48.27 66.3911 48.27 64.3201C48.27 62.249 46.5911 60.5701 44.52 60.5701C42.449 60.5701 40.77 62.249 40.77 64.3201C40.77 66.3911 42.449 68.0701 44.52 68.0701Z" fill="#404366"/>
<path d="M20.38 31.3201C20.6918 32.289 20.8437 33.3023 20.8299 34.3201C20.4899 40.3201 16.46 42.5801 21.18 47.9501C22.0608 48.9473 22.999 49.8923 23.99 50.7801" stroke="#C8CEDB" stroke-width="3.75" stroke-linecap="round" stroke-linejoin="round"/>
<path d="M24.1602 55.3101C26.2312 55.3101 27.9102 53.6311 27.9102 51.5601C27.9102 49.489 26.2312 47.8101 24.1602 47.8101C22.0891 47.8101 20.4102 49.489 20.4102 51.5601C20.4102 53.6311 22.0891 55.3101 24.1602 55.3101Z" fill="#404366"/>
<path d="M2.57031 2.20996C6.16031 9.42996 12.2104 14.97 16.1504 22.28C17.8401 25.1403 19.2564 28.1537 20.3804 31.28" stroke="#FFA506" stroke-width="3.75" stroke-linecap="round" stroke-linejoin="round"/>
<path d="M19.77 35.0701C21.8411 35.0701 23.52 33.3911 23.52 31.3201C23.52 29.249 21.8411 27.5701 19.77 27.5701C17.699 27.5701 16.02 29.249 16.02 31.3201C16.02 33.3911 17.699 35.0701 19.77 35.0701Z" fill="white" stroke="#FFA506" stroke-width="2" stroke-linecap="round" stroke-linejoin="round"/>
</svg>
