<svg width="99" height="59" viewBox="0 0 99 59" fill="none" xmlns="http://www.w3.org/2000/svg">
<path d="M64.8804 15.24C62.0204 16.52 59.2604 18.03 57.8104 20.15C56.4704 22.09 56.6803 24.43 54.9703 26.36C53.401 27.847 51.6819 29.1674 49.8403 30.3C48.7003 31.08 47.5004 31.83 46.2804 32.55C44.2804 33.71 42.2804 34.79 40.2804 35.82C32.2804 39.91 23.2803 40.37 15.0703 44.93C13.2303 45.93 11.3104 46.93 9.36035 47.93" stroke="#FFA506" stroke-width="3.75" stroke-linejoin="round" stroke-dasharray="4.69 3.75"/>
<path d="M9.36011 56.6299C13.4857 56.6299 16.8301 53.2855 16.8301 49.1599C16.8301 45.0344 13.4857 41.6899 9.36011 41.6899C5.23454 41.6899 1.89014 45.0344 1.89014 49.1599C1.89014 53.2855 5.23454 56.6299 9.36011 56.6299Z" fill="white" stroke="#FFA506" stroke-width="3.75" stroke-linecap="round" stroke-linejoin="round"/>
<path d="M75.7902 10.03C74.4902 10.68 73.1902 11.38 71.7902 12.14C69.9102 13.14 67.3501 14.14 64.8701 15.24" stroke="#C8CEDB" stroke-width="3.75" stroke-linecap="round" stroke-linejoin="round"/>
<path d="M65.2603 18.5801C67.3313 18.5801 69.0103 16.9011 69.0103 14.8301C69.0103 12.759 67.3313 11.0801 65.2603 11.0801C63.1892 11.0801 61.5103 12.759 61.5103 14.8301C61.5103 16.9011 63.1892 18.5801 65.2603 18.5801Z" fill="#404366"/>
<path d="M96.72 1.95996C92.5536 3.77086 88.2981 5.36957 83.97 6.74995L82.85 7.11996C80.4254 7.89924 78.0651 8.86547 75.79 10.01" stroke="#C8CEDB" stroke-width="3.75" stroke-linecap="round" stroke-linejoin="round"/>
<path d="M75.79 12.6401C77.8611 12.6401 79.54 10.9612 79.54 8.89014C79.54 6.81907 77.8611 5.14014 75.79 5.14014C73.719 5.14014 72.04 6.81907 72.04 8.89014C72.04 10.9612 73.719 12.6401 75.79 12.6401Z" fill="#404366"/>
</svg>
