<svg width="160" height="186" viewBox="0 0 160 186" fill="none" xmlns="http://www.w3.org/2000/svg">
<path d="M111.69 170.04C112.86 176.53 119.35 178.21 125.23 177.6C129.11 177.2 132.84 175.95 136.65 175.17C140.46 174.39 144.56 174.12 148.15 175.62" stroke="#FFA506" stroke-width="3.75" stroke-linejoin="round" stroke-dasharray="4.69 3.75"/>
<path d="M148.98 185.67C154.812 185.67 159.54 180.942 159.54 175.11C159.54 169.278 154.812 164.55 148.98 164.55C143.148 164.55 138.42 169.278 138.42 175.11C138.42 180.942 143.148 185.67 148.98 185.67Z" fill="#FFA506"/>
<path d="M21.6301 2.22021C16.8332 4.68579 12.4478 7.88039 8.63012 11.6902C4.32012 16.0002 0.510136 25.8502 2.58014 31.9702C4.21014 36.8202 10.9601 40.9702 14.3901 44.7102C19.3101 50.0902 25.0001 55.1202 28.0001 61.9602C30.7301 68.0202 29.5701 73.1002 34.5301 78.2802C43.9501 88.1102 59.5301 85.8202 69.3901 95.8402C77.8801 104.42 79.7501 116.66 83.0501 127.44C84.4657 131.86 86.6827 135.982 89.5901 139.6L101.5 150.96C105.44 154.73 109.5 158.8 110.81 164.1C111.28 166.1 111.33 168.1 111.69 170.1" stroke="#FFA506" stroke-width="3.75" stroke-linejoin="round" stroke-dasharray="4.69 3.75"/>
<path d="M112.2 178.16C116.326 178.16 119.67 174.816 119.67 170.69C119.67 166.565 116.326 163.22 112.2 163.22C108.074 163.22 104.73 166.565 104.73 170.69C104.73 174.816 108.074 178.16 112.2 178.16Z" fill="white" stroke="#FFA506" stroke-width="3.75" stroke-linecap="round" stroke-linejoin="round"/>
</svg>
