<svg width="213" height="74" viewBox="0 0 213 74" fill="none" xmlns="http://www.w3.org/2000/svg">
<path d="M212 2.33008C208 4.33008 203.85 5.92009 200 8.47009C191.74 13.9001 187 18.7301 176.8 19.2501C169.8 19.6101 163.25 18.6701 156.44 18.8701C154.768 18.9093 153.1 19.0328 151.44 19.2401C146.44 19.8801 143.32 20.9401 139.49 18.3001C136.8 16.4501 134.8 13.7101 131.21 12.4201C125.414 10.298 119.401 8.82569 113.28 8.03009C106.28 7.30009 102.69 10.3201 96.6303 12.6001C91.0503 14.7001 85.7503 14.6601 81.3803 19.6001C79.0103 22.2801 79.2303 26.0701 77.3803 29.1201C75.6403 31.9801 72.6903 33.5101 70.1303 35.4301C57.2503 45.1101 46.5503 58.2401 29.0003 58.9601C22.228 59.2938 15.6075 61.0845 9.59033 64.2101" stroke="#FFA506" stroke-width="3.75" stroke-linejoin="round" stroke-dasharray="4.69 3.75"/>
<path d="M9.63019 71.2598C13.7558 71.2598 17.1002 67.9154 17.1002 63.7899C17.1002 59.6643 13.7558 56.3198 9.63019 56.3198C5.50462 56.3198 2.16016 59.6643 2.16016 63.7899C2.16016 67.9154 5.50462 71.2598 9.63019 71.2598Z" fill="white" stroke="#FFA506" stroke-width="3.75" stroke-linecap="round" stroke-linejoin="round"/>
</svg>
