<svg width="100" height="41" viewBox="0 0 100 41" fill="none" xmlns="http://www.w3.org/2000/svg">
<path d="M20.6897 9.91992L17.6798 10.3799L12.2197 20.1499L17.7498 29.8499L20.7598 30.2999L14.8597 20.1399L20.6897 9.91992Z" fill="#F90000"/>
<path d="M28.3901 9.8999L31.4102 10.3399L36.9401 20.0599L31.4701 29.7999L28.4601 30.2799L34.2802 20.0699L28.3901 9.8999Z" fill="#F90000"/>
<path d="M20.6898 9.91998L24.5299 9.46997L24.5698 20.11L14.8599 20.14L20.6898 9.91998Z" fill="#FCF2F2"/>
<path d="M20.7599 30.2999L24.6099 30.7199L24.5698 20.1099L14.8599 20.1399L20.7599 30.2999Z" fill="#FCD9D9"/>
<path d="M28.4598 30.2801L24.6099 30.7201L24.5698 20.11L34.2799 20.0701L28.4598 30.2801Z" fill="#FCB4B4"/>
<path d="M28.3903 9.89996L24.5303 9.46997L24.5702 20.11L34.2803 20.07L28.3903 9.89996Z" fill="#FCE6E6"/>
<path d="M46.0901 18.4201V15.6001H43.5602V18.4201H42.1802V11.6201H43.5602V14.4001H46.0901V11.6201H47.4701V18.4201H46.0901Z" fill="black"/>
<path d="M50.1202 17.1401C50.3134 17.2911 50.5555 17.3659 50.8002 17.3501C51.4202 17.3501 51.9701 17.3501 52.4601 17.2801H52.7401V18.2801C52.0609 18.4596 51.3626 18.557 50.6602 18.5701C50.3593 18.6006 50.0552 18.5625 49.7712 18.4586C49.4871 18.3546 49.2304 18.1876 49.0202 17.9701C48.6306 17.3979 48.4472 16.7103 48.5002 16.0201C48.5002 14.2301 49.2301 13.3301 50.7001 13.3301C52.1701 13.3301 52.8802 14.0701 52.8902 15.5801L52.7902 16.5101H49.8501C49.8483 16.6282 49.8715 16.7453 49.918 16.8539C49.9645 16.9624 50.0334 17.06 50.1202 17.1401ZM51.5901 15.4501C51.6145 15.1604 51.5482 14.8703 51.4002 14.6201C51.3132 14.5335 51.2077 14.4678 51.0916 14.428C50.9755 14.3881 50.8519 14.3752 50.7301 14.3901C50.6077 14.3779 50.484 14.3931 50.3681 14.4346C50.2522 14.4761 50.1471 14.5429 50.0602 14.6301C49.9112 14.8802 49.8414 15.1696 49.8601 15.4601L51.5901 15.4501Z" fill="black"/>
<path d="M57.7 14.9399V16.9999C57.7013 17.1178 57.7287 17.2339 57.7801 17.3399C57.8105 17.3777 57.8484 17.4088 57.8914 17.4312C57.9344 17.4536 57.9817 17.4668 58.0301 17.4699V18.4699C57.7583 18.478 57.4864 18.4545 57.22 18.3999C56.9972 18.3529 56.7863 18.261 56.6 18.1299C56.1428 18.3564 55.6402 18.4761 55.1301 18.48C54.1301 18.48 53.58 17.9399 53.58 16.8499C53.5561 16.6403 53.5816 16.428 53.6546 16.23C53.7275 16.032 53.8458 15.8539 54 15.7099C54.3929 15.4535 54.8509 15.3147 55.32 15.3099L56.3901 15.23V14.9999C56.3985 14.9224 56.3904 14.844 56.3663 14.7699C56.3421 14.6958 56.3025 14.6276 56.25 14.5699C56.1146 14.4886 55.9578 14.4502 55.8001 14.4599L53.9201 14.5499L53.87 13.6199C54.5203 13.4311 55.193 13.3302 55.87 13.3199C56.3658 13.2724 56.8614 13.4114 57.2601 13.7099C57.5628 14.0461 57.7208 14.488 57.7 14.9399ZM55.45 16.2699C55.3729 16.268 55.2964 16.2827 55.2254 16.3128C55.1544 16.343 55.0907 16.388 55.0386 16.4449C54.9865 16.5017 54.9472 16.5691 54.9233 16.6424C54.8994 16.7157 54.8915 16.7933 54.9001 16.8699C54.9001 17.2399 55.0601 17.42 55.3901 17.42C55.6707 17.4159 55.9497 17.3755 56.22 17.2999H56.37V16.23L55.45 16.2699Z" fill="black"/>
<path d="M59.0498 18.3799V11.3799H60.3898V18.3799H59.0498Z" fill="black"/>
<path d="M64.45 14.5H63.22V16.55C63.2119 16.6932 63.2119 16.8368 63.22 16.98C63.2319 17.0604 63.2706 17.1344 63.33 17.19C63.4141 17.2585 63.522 17.2909 63.63 17.28H64.39L64.45 18.35C64.1223 18.4326 63.7874 18.4829 63.45 18.5C63.2281 18.53 63.0023 18.5097 62.7893 18.4404C62.5764 18.3712 62.3818 18.2548 62.22 18.1C61.9539 17.651 61.835 17.13 61.88 16.61V14.53H61.29V13.39H61.88V12H63.22V13.39H64.45V14.5Z" fill="black"/>
<path d="M66.6702 18.3501H65.3301V11.3501H66.6702V13.5901C67.0486 13.3723 67.4739 13.2488 67.9102 13.2301C68.1708 13.1985 68.435 13.2353 68.677 13.337C68.919 13.4387 69.1304 13.6018 69.2902 13.8101C69.5884 14.3681 69.7236 14.9988 69.6802 15.6301V18.3401H68.3401V15.6601C68.3583 15.3396 68.3071 15.019 68.1901 14.7201C68.1313 14.616 68.0428 14.5318 67.9359 14.4784C67.829 14.4249 67.7086 14.4047 67.5901 14.4201C67.3255 14.4208 67.0627 14.4612 66.8102 14.5401H66.6802L66.6702 18.3501Z" fill="black"/>
<path d="M74.63 14.4599V18.3199H73.29V14.4599H72.75V13.3199H73.29V13.0999C73.237 12.5819 73.3489 12.0604 73.61 11.6099C73.7549 11.4569 73.9331 11.3394 74.1309 11.2666C74.3286 11.1938 74.5405 11.1675 74.75 11.1899C75.062 11.2007 75.3729 11.2341 75.6801 11.2899H75.89V12.3799H75.15C75.0754 12.3719 74.9998 12.3823 74.9301 12.4102C74.8603 12.438 74.7985 12.4826 74.75 12.5399C74.6685 12.7111 74.634 12.9009 74.65 13.0899V13.2999H75.86V14.4399L74.63 14.4599Z" fill="black"/>
<path d="M76.8499 13.88C77.0705 13.6346 77.3455 13.4444 77.6529 13.3245C77.9603 13.2047 78.2915 13.1586 78.6199 13.19C78.9477 13.155 79.2792 13.1984 79.587 13.3166C79.8947 13.4348 80.1699 13.6245 80.39 13.87C80.7837 14.4297 80.9742 15.1072 80.93 15.79C80.93 17.55 80.17 18.42 78.64 18.43C77.11 18.44 76.3399 17.56 76.3299 15.81C76.2869 15.127 76.4696 14.4489 76.8499 13.88ZM77.9 16.93C77.9869 17.0421 78.0983 17.1329 78.2257 17.1953C78.353 17.2577 78.4931 17.2902 78.635 17.2902C78.7768 17.2902 78.9169 17.2577 79.0443 17.1953C79.1717 17.1329 79.283 17.0421 79.3699 16.93C79.529 16.5756 79.5976 16.1874 79.5699 15.8C79.5976 15.4148 79.5253 15.029 79.3599 14.68C79.2836 14.5588 79.1746 14.4616 79.0455 14.3997C78.9163 14.3378 78.7722 14.3136 78.6299 14.33C78.4864 14.3152 78.3416 14.34 78.2111 14.4017C78.0807 14.4634 77.9696 14.5596 77.89 14.68C77.7356 15.0322 77.667 15.4161 77.6899 15.8C77.6636 16.1883 77.7359 16.577 77.9 16.93Z" fill="black"/>
<path d="M81.9199 18.2999V13.2999H83.2499V13.8299C83.7435 13.5261 84.2842 13.3064 84.8499 13.1799V14.5299C84.3808 14.6228 83.9169 14.7396 83.4598 14.8799L83.2599 14.95V18.2999H81.9199Z" fill="black"/>
<path d="M43.59 26.7299V28.9999H42.21V22.2H44.85C46.45 22.2 47.26 22.9399 47.26 24.4299C47.2895 24.8225 47.2121 25.2158 47.036 25.5679C46.8599 25.9201 46.5918 26.2179 46.26 26.4299L47.26 29.0199H45.75L44.95 26.7399L43.59 26.7299ZM45.59 25.2399C45.7593 25.0125 45.8442 24.7332 45.83 24.45C45.8443 24.1665 45.7515 23.8881 45.5699 23.67C45.4768 23.5713 45.3632 23.4942 45.2371 23.4441C45.111 23.394 44.9754 23.3721 44.84 23.3799H43.58V25.5399H44.86C44.9969 25.5527 45.1348 25.532 45.262 25.4798C45.3891 25.4275 45.5016 25.3452 45.59 25.2399Z" fill="black"/>
<path d="M48.47 24.55C48.692 24.3065 48.9673 24.1175 49.2744 23.9978C49.5814 23.8781 49.9118 23.831 50.2401 23.86C50.5677 23.8274 50.8984 23.8719 51.2058 23.99C51.5131 24.1081 51.7886 24.2964 52.0101 24.54C52.4016 25.1045 52.5919 25.7843 52.5501 26.47C52.5501 28.22 51.7901 29.1 50.2601 29.1C48.7301 29.1 47.96 28.24 47.95 26.48C47.907 25.7971 48.0897 25.1189 48.47 24.55ZM49.47 27.61C49.5464 27.7312 49.6555 27.8284 49.7846 27.8903C49.9138 27.9522 50.0577 27.9764 50.2 27.96C50.3447 27.9749 50.4906 27.9491 50.6214 27.8855C50.7522 27.8219 50.8625 27.723 50.94 27.6C51.0941 27.2442 51.1627 26.8571 51.1401 26.47C51.1669 26.0849 51.0946 25.6993 50.9301 25.35C50.8505 25.2296 50.7394 25.1334 50.609 25.0717C50.4785 25.01 50.3336 24.9852 50.19 25C50.0468 24.9858 49.9027 25.012 49.7736 25.0756C49.6446 25.1393 49.5359 25.2378 49.46 25.36C49.2989 25.7102 49.2301 26.0957 49.2601 26.48C49.2501 26.8726 49.3396 27.2612 49.5201 27.61H49.47Z" fill="black"/>
<path d="M54.88 29.0001H53.54V24.0001H54.87V24.2801C55.2213 24.0438 55.6279 23.9025 56.05 23.8701C56.2797 23.8564 56.5096 23.8911 56.725 23.9721C56.9403 24.0531 57.1363 24.1785 57.3 24.3401C57.8131 24.0468 58.3894 23.8821 58.98 23.8601C59.2394 23.8312 59.5019 23.8684 59.7432 23.968C59.9844 24.0676 60.1966 24.2266 60.36 24.4301C60.6615 24.9942 60.7967 25.6322 60.75 26.2701V29.0001H59.41V26.3301C59.4254 26.0106 59.3778 25.6913 59.27 25.3901C59.2195 25.2874 59.1388 25.2026 59.0387 25.1472C58.9386 25.0918 58.8238 25.0684 58.71 25.0801C58.4405 25.0895 58.1742 25.1401 57.92 25.2301L57.77 25.2801C57.77 25.7801 57.77 26.1601 57.77 26.4201V29.0001H56.4301V26.4301C56.4421 26.0919 56.3982 25.754 56.3 25.4301C56.2484 25.3239 56.1645 25.2367 56.0603 25.181C55.9561 25.1253 55.837 25.104 55.72 25.1201C55.4567 25.1264 55.1963 25.1771 54.95 25.2701H54.83L54.88 29.0001Z" fill="black"/>
<path d="M65.7501 25.4901V27.5701C65.7548 27.6843 65.782 27.7964 65.83 27.9001C65.8919 27.9776 65.9816 28.0278 66.08 28.0401V29.0401C65.8049 29.0476 65.5299 29.0241 65.2601 28.9701C65.0399 28.919 64.8324 28.8237 64.6501 28.6901C64.1953 28.9241 63.6916 29.0474 63.1801 29.0501C62.1801 29.0501 61.6301 28.5101 61.6201 27.4101C61.5974 27.2012 61.6246 26.9898 61.6993 26.7934C61.774 26.597 61.8943 26.4211 62.0501 26.2801C62.4394 26.016 62.8997 25.8765 63.3701 25.8801L64.44 25.7901V25.4801C64.4464 25.4034 64.4364 25.3263 64.4105 25.2539C64.3846 25.1814 64.3436 25.1154 64.2901 25.0601C64.1576 24.9719 63.9983 24.933 63.8401 24.9501L61.96 25.0301V24.1001C62.6115 23.9181 63.2837 23.8206 63.96 23.8101C64.4591 23.7599 64.9588 23.8991 65.3601 24.2001C65.5076 24.3784 65.6181 24.5843 65.685 24.8058C65.752 25.0273 65.7741 25.2599 65.7501 25.4901ZM63.5001 26.8201C63.4222 26.8167 63.3445 26.8302 63.2723 26.8598C63.2001 26.8893 63.1351 26.9341 63.0819 26.9911C63.0287 27.0481 62.9884 27.116 62.964 27.19C62.9395 27.2641 62.9313 27.3426 62.94 27.4201C62.94 27.7901 63.1101 27.9701 63.4301 27.9701C63.7117 27.968 63.9914 27.9242 64.2601 27.8401H64.4101V26.7701L63.5001 26.8201Z" fill="black"/>
<path d="M68.38 28.9199H67V23.9199H68.33V24.1999C68.7027 23.9558 69.1348 23.8175 69.58 23.7999C69.8407 23.7662 70.1058 23.8021 70.3481 23.904C70.5905 24.0059 70.8016 24.1701 70.96 24.3799C71.2547 24.9392 71.3897 25.5689 71.35 26.1999V28.9099H70V26.2399C70.0217 25.915 69.9669 25.5897 69.84 25.2899C69.7812 25.1858 69.6927 25.1016 69.5858 25.0482C69.4789 24.9947 69.3585 24.9744 69.24 24.9899C68.9706 24.9917 68.7035 25.039 68.45 25.1299H68.33L68.38 28.9199Z" fill="black"/>
<path d="M72.5498 23.2699V21.9099H73.8898V23.2699H72.5498ZM72.5498 28.9099V23.9099H73.8898V28.9099H72.5498Z" fill="black"/>
<path d="M79.0001 25.4401V27.5201C79.0051 27.6375 79.0322 27.7528 79.0801 27.8601C79.143 27.9347 79.2329 27.9814 79.3301 27.9901V28.9901C79.0555 28.9951 78.7811 28.975 78.5102 28.9301C78.2915 28.8747 78.0847 28.7798 77.9002 28.6501C77.443 28.8765 76.9404 28.9962 76.4302 29.0001C75.4302 29.0001 74.8801 28.4601 74.8701 27.3701C74.849 27.1598 74.8768 26.9474 74.9514 26.7497C75.026 26.5519 75.1454 26.3741 75.3002 26.2301C75.6916 25.9705 76.1505 25.8314 76.6201 25.8301L77.6901 25.7501V25.4401C77.6972 25.3619 77.6876 25.283 77.6618 25.2088C77.6359 25.1347 77.5944 25.0669 77.5402 25.0101C77.4058 24.9262 77.248 24.8876 77.0901 24.9001L75.2101 24.9901V24.0601C75.8602 23.8704 76.533 23.7695 77.2101 23.7601C77.7105 23.7128 78.2103 23.8556 78.6101 24.1601C78.7574 24.3366 78.8677 24.5408 78.9347 24.7606C79.0017 24.9805 79.024 25.2115 79.0001 25.4401ZM76.7501 26.7701C76.6727 26.7684 76.5957 26.783 76.5243 26.8131C76.4529 26.8432 76.3886 26.888 76.3357 26.9447C76.2828 27.0013 76.2427 27.0685 76.2176 27.1418C76.1925 27.2151 76.183 27.2929 76.1901 27.3701C76.1901 27.7401 76.3602 27.9201 76.6802 27.9201C76.9609 27.9167 77.24 27.8763 77.5102 27.8001H77.6602V26.7301L76.7501 26.7701Z" fill="black"/>
<path d="M79.3597 1.75H20.4298C9.8646 1.75 1.2998 10.3148 1.2998 20.88V20.89C1.2998 31.4552 9.8646 40.02 20.4298 40.02H79.3597C89.9249 40.02 98.4897 31.4552 98.4897 20.89V20.88C98.4897 10.3148 89.9249 1.75 79.3597 1.75Z" stroke="#F90000" stroke-width="1.88" stroke-linecap="round" stroke-linejoin="round"/>
</svg>
