<svg width="25" height="22" viewBox="0 0 25 22" fill="none" xmlns="http://www.w3.org/2000/svg">
<path d="M8.6897 0.919922L5.67981 1.37991L0.219727 11.1499L5.74976 20.8499L8.75977 21.2999L2.85974 11.1399L8.6897 0.919922Z" fill="#F90000"/>
<path d="M16.3901 0.899902L19.4102 1.3399L24.9401 11.0599L19.4701 20.7999L16.4601 21.2799L22.2802 11.0699L16.3901 0.899902Z" fill="#F90000"/>
<path d="M8.68982 0.919983L12.5299 0.469971L12.5698 11.11L2.85986 11.14L8.68982 0.919983Z" fill="#FCF2F2"/>
<path d="M8.75989 21.2999L12.6099 21.7199L12.5698 11.1099L2.85986 11.1399L8.75989 21.2999Z" fill="#FCD9D9"/>
<path d="M16.4598 21.2801L12.6099 21.7201L12.5698 11.11L22.2799 11.0701L16.4598 21.2801Z" fill="#FCB4B4"/>
</svg>
