<svg width="37" height="31" viewBox="0 0 37 31" fill="none" xmlns="http://www.w3.org/2000/svg">
<path d="M12.961 1.30957L8.59267 1.96617L0.654297 15.9117L8.67975 29.7573L13.0625 30.3996L4.50013 15.8974L12.961 1.30957Z" fill="#F90000"/>
<path d="M24.1348 1.28223L28.5176 1.91027L36.5285 15.7844L28.6046 29.6871L24.2364 30.3723L32.6827 15.7987L24.1348 1.28223Z" fill="#F90000"/>
<path d="M12.9608 1.31029L18.5337 0.667969L18.5917 15.8553L4.5 15.8981L12.9608 1.31029Z" fill="#FCF2F2"/>
<path d="M13.0624 30.3995L18.6498 30.999L18.5917 15.8545L4.5 15.8973L13.0624 30.3995Z" fill="#FCD9D9"/>
<path d="M24.2372 30.3714L18.6498 30.9995L18.5918 15.8549L32.6835 15.7979L24.2372 30.3714Z" fill="#FCB4B4"/>
<path d="M24.1355 1.28174L18.5337 0.667969L18.5917 15.8553L32.6835 15.7982L24.1355 1.28174Z" fill="#FCE6E6"/>
</svg>
