<svg width="32" height="30" viewBox="0 0 32 30" fill="none" xmlns="http://www.w3.org/2000/svg">
<path d="M3.44721 20.6874C3.91903 20.9191 4.43699 21.0416 4.96262 21.0456H6.33476H22.9382C23.1387 21.0507 23.3382 21.0163 23.5254 20.9443C23.7125 20.8723 23.8837 20.7641 24.029 20.626C24.1743 20.4878 24.291 20.3223 24.3724 20.139C24.4538 19.9558 24.4982 19.7582 24.5032 19.5578C24.5032 19.5026 24.5032 19.442 24.5032 19.3869C24.4649 19.0637 24.332 18.759 24.1213 18.511C23.9105 18.263 23.6312 18.0827 23.3184 17.9927C23.6094 17.435 23.7306 16.8043 23.6669 16.1784C23.6032 15.5526 23.3576 14.9592 22.9602 14.4715C22.5704 13.9866 22.0771 13.595 21.5165 13.3252C20.9559 13.0554 20.3422 12.9142 19.72 12.912C20.0958 12.2518 20.2534 11.4897 20.1703 10.7346C20.0872 9.97952 19.7676 9.26999 19.2571 8.70738C18.7396 8.16782 18.0628 7.80822 17.3259 7.68128C16.5891 7.55435 15.831 7.66675 15.1627 8.00202C14.9128 7.13098 14.3972 6.35965 13.688 5.79561C12.9787 5.23156 12.1111 4.9029 11.2061 4.85547C10.3058 4.85966 9.42942 5.14572 8.70001 5.67351C7.97061 6.20129 7.42482 6.94427 7.13931 7.79813C6.55877 7.79306 5.98622 7.93366 5.47407 8.20707C4.96191 8.48047 4.5265 8.87796 4.20767 9.36314C3.90058 9.86413 3.72271 10.4335 3.69 11.0202C3.6573 11.6069 3.7708 12.1926 4.02031 12.7246C3.19665 12.9794 2.46894 13.4766 1.93218 14.1513C1.39543 14.826 1.07457 15.6469 1.01149 16.5067C0.948415 17.3666 1.14605 18.2255 1.5786 18.9713C2.01115 19.7171 2.65852 20.3152 3.43618 20.6874H3.44721Z" stroke="#404366" stroke-width="0.75" stroke-linecap="round" stroke-linejoin="round"/>
<path d="M24.5032 19.9441H28.4708C28.7149 19.93 28.9506 19.8503 29.1533 19.7136C29.3559 19.5769 29.518 19.3881 29.6225 19.1671C29.7297 18.9523 29.7855 18.7156 29.7855 18.4755C29.7855 18.2355 29.7297 17.9987 29.6225 17.784C29.9625 17.5396 30.2444 17.2232 30.4483 16.8575C30.6521 16.4918 30.7728 16.0856 30.8018 15.6679C30.8454 15.2348 30.7941 14.7975 30.6513 14.3863C30.5086 13.9752 30.2778 13.6001 29.9752 13.2873C30.1987 12.4529 30.2188 11.577 30.0337 10.7332C29.8486 9.88938 29.4639 9.10229 28.9117 8.43798C28.3488 7.78022 27.6389 7.26432 26.8395 6.9321C26.04 6.59988 25.1736 6.46069 24.3103 6.5258C24.3892 6.20714 24.4011 5.87557 24.3451 5.55209C24.2892 5.22861 24.1666 4.92029 23.9852 4.64668C23.7889 4.39071 23.5395 4.18032 23.2541 4.03001C22.9687 3.87971 22.6541 3.79305 22.332 3.77601C22.1935 3.11358 21.8682 2.50466 21.3946 2.02127C20.921 1.53788 20.3188 1.20023 19.6594 1.04826C18.9952 0.936357 18.3129 1.02004 17.6955 1.28911C17.0781 1.55818 16.5523 2.00102 16.1822 2.56367C15.4146 2.64162 14.6895 2.95322 14.1047 3.45639C13.5297 3.92668 13.1187 4.56724 12.9309 5.28591" stroke="#404366" stroke-width="0.75" stroke-linecap="round" stroke-linejoin="round"/>
<path d="M10.9744 28.9867V21.0625" stroke="#404366" stroke-width="0.75" stroke-linecap="round" stroke-linejoin="round"/>
<path d="M13.9507 28.9867V23.647L16.5352 21.0625" stroke="#404366" stroke-width="0.75" stroke-linecap="round" stroke-linejoin="round"/>
<path d="M14.7658 21.0625L13.8511 21.9717V21.0625" stroke="#404366" stroke-width="0.75" stroke-linecap="round" stroke-linejoin="round"/>
<path d="M20.8882 23.8178V21.0625" stroke="#404366" stroke-width="0.75" stroke-linecap="round" stroke-linejoin="round"/>
<path d="M18.2214 25.7796L18.2545 21.0625" stroke="#404366" stroke-width="0.75" stroke-linecap="round" stroke-linejoin="round"/>
<path d="M4.42822 28.9707C4.55497 28.9707 27.5011 29.0368 27.5728 28.9707" stroke="#404366" stroke-width="0.75" stroke-linecap="round" stroke-linejoin="round"/>
<path d="M15.2452 28.9871C15.2132 28.5328 15.2851 28.0771 15.4556 27.6547C15.626 27.2323 15.8904 26.8543 16.2288 26.5494C16.5672 26.2445 16.9706 26.0207 17.4084 25.895C17.8462 25.7693 18.3069 25.745 18.7555 25.824C18.8064 25.4844 18.9316 25.1602 19.122 24.8745C19.3125 24.5887 19.5637 24.3485 19.8576 24.1709C20.45 23.8107 21.1522 23.6758 21.8359 23.7906C22.5178 23.9099 23.1499 24.2259 23.6544 24.6999C23.7602 23.9498 24.1559 23.2712 24.7565 22.8097C25.044 22.5801 25.3742 22.4097 25.7279 22.3085C26.0817 22.2073 26.452 22.1773 26.8175 22.2201" stroke="#404366" stroke-width="0.75" stroke-linecap="round" stroke-linejoin="round"/>
<path d="M3.30958 28.6233C3.20942 28.2577 3.22155 27.8703 3.34439 27.5116C3.46723 27.1529 3.6951 26.8395 3.9984 26.612C4.31115 26.3963 4.68206 26.2808 5.06195 26.2808C5.44184 26.2808 5.81275 26.3963 6.1255 26.612C6.10763 26.4321 6.12796 26.2504 6.18514 26.079C6.24232 25.9075 6.33507 25.75 6.45731 25.6168C6.57956 25.4836 6.72854 25.3778 6.89452 25.3062C7.0605 25.2346 7.23973 25.1988 7.42049 25.2012C7.28995 24.7912 7.27489 24.3532 7.37696 23.9352C7.47904 23.5172 7.69429 23.1354 7.9991 22.8317C8.3118 22.5432 8.70012 22.3496 9.11871 22.2735C9.5373 22.1974 9.96891 22.2419 10.3631 22.4019" stroke="#404366" stroke-width="0.75" stroke-linecap="round" stroke-linejoin="round"/>
<path d="M1.79956 3.80371H10.1812V11.8988L6.05374 14.4722L1.79956 11.4965V3.80371Z" fill="white" stroke="#404366" stroke-width="0.75" stroke-linecap="round" stroke-linejoin="round"/>
<path d="M3.32593 9.05511C4.24931 9.49191 5.01806 10.1992 5.53017 11.083C6.52153 9.64525 7.70225 8.34775 9.04042 7.22559" stroke="#404366" stroke-width="0.75" stroke-linecap="round" stroke-linejoin="round"/>
<path d="M3.02839 7.7327L2.96777 4.71289H9.07903L9.12312 6.11809" stroke="#404366" stroke-width="0.75" stroke-linecap="round" stroke-linejoin="round"/>
<path d="M2.96777 9.82115V10.9618L5.98758 13.0504L9.12312 11.0555V8.78516" stroke="#404366" stroke-width="0.75" stroke-linecap="round" stroke-linejoin="round"/>
</svg>
