<svg viewBox="0 0 1200 1000" fill="none" xmlns="http://www.w3.org/2000/svg">
<g id="segment-environment-04-reducerea-poluarii">
<g id="Group 1187">
<g id="icon-reducerea-poluarii 1" clip-path="url(#clip0)">
<path id="Vector" d="M360.397 454.597V380.575C360.397 380.575 376.86 380.075 376.36 380.575C375.86 381.075 386.071 424.171 386.071 424.171L399.033 413.751V424.463L414.413 414.043V424.463L429.188 414.231V454.597" stroke="#1B771B" stroke-width="2.89286" stroke-linecap="round" stroke-linejoin="round"/>
<path id="Vector_2" d="M346.204 454.595H445.878" stroke="#1B771B" stroke-width="2.89286" stroke-linecap="round" stroke-linejoin="round"/>
<path id="Vector_3" d="M395.593 449.97V445.573C395.597 445.148 395.713 444.732 395.929 444.366C396.144 444 396.453 443.698 396.823 443.489L402.783 440.113L405.013 435.945C405.508 435.023 406.245 434.252 407.144 433.717C408.043 433.18 409.072 432.899 410.118 432.903H418.85C420.244 432.904 421.59 433.407 422.643 434.32L430.979 441.447H433.709C435.866 441.452 437.933 442.313 439.457 443.841C440.98 445.368 441.836 447.438 441.836 449.595V449.97H395.593Z" fill="white" stroke="#1B771B" stroke-width="2.89286" stroke-linecap="round" stroke-linejoin="round"/>
<path id="Vector_4" d="M407.364 454.596C409.528 454.596 411.283 452.842 411.283 450.678C411.283 448.515 409.528 446.76 407.364 446.76C405.201 446.76 403.447 448.515 403.447 450.678C403.447 452.842 405.201 454.596 407.364 454.596Z" fill="white" stroke="#1B771B" stroke-width="2.89286" stroke-linecap="round" stroke-linejoin="round"/>
<path id="Vector_5" d="M429.728 454.596C431.892 454.596 433.646 452.842 433.646 450.678C433.646 448.515 431.892 446.76 429.728 446.76C427.564 446.76 425.811 448.515 425.811 450.678C425.811 452.842 427.564 454.596 429.728 454.596Z" fill="white" stroke="#1B771B" stroke-width="2.89286" stroke-linecap="round" stroke-linejoin="round"/>
<path id="Vector_6" d="M391.632 446.03H383.317" stroke="#1B771B" stroke-width="2.89286" stroke-linecap="round" stroke-linejoin="round"/>
<path id="Vector_7" d="M389.132 449.97H378.421" stroke="#1B771B" stroke-width="2.89286" stroke-linecap="round" stroke-linejoin="round"/>
<path id="Vector_8" d="M361.979 375.427V361.798" stroke="#1B771B" stroke-width="2.89286" stroke-linecap="round" stroke-linejoin="round"/>
<path id="Vector_9" d="M373.772 375.427V361.798" stroke="#1B771B" stroke-width="2.89286" stroke-linecap="round" stroke-linejoin="round"/>
<path id="Vector_10" d="M366.292 375.426V353.503" stroke="#1B771B" stroke-width="2.89286" stroke-linecap="round" stroke-linejoin="round"/>
<path id="Vector_11" d="M370.043 369.78V347.857" stroke="#1B771B" stroke-width="2.89286" stroke-linecap="round" stroke-linejoin="round"/>
<path id="Vector_12" d="M425.156 370.442L395.891 399.707L401.535 405.35L430.8 376.085L425.156 370.442Z" fill="#1B771B"/>
<path id="Vector_13" d="M369.265 432.517L340 461.782L345.644 467.426L374.909 438.161L369.265 432.517Z" fill="#1B771B"/>
</g>
<text id="Reducerea &#226;&#128;&#168;polu&#196;&#131;rii" fill="#1E1E1E" xml:space="preserve" style="white-space: pre" font-family="Titillium Web" font-size="40" font-weight="600" letter-spacing="0px"><tspan x="120.469" y="399.9">Reducerea &#x2028;</tspan><tspan x="181.406" y="441.9">polu&#x103;rii</tspan></text>
<g id="Group 1186">
<path id="Vector_14" d="M450.721 518.134C451.941 519.68 453.034 521.341 454.103 523.002C455.877 525.745 457.651 528.487 460.009 530.72C462.436 533.029 465.554 534.637 468.117 536.635C473.997 541.227 479.771 545.985 485.64 550.796C492.848 556.695 499.382 562.416 506.13 568.781C508.978 571.475 511.977 574.592 515.208 577.451C519.327 581.107 523.832 584.342 528.837 585.695C536.923 587.874 546.516 586.949 554.855 587.333C560.568 587.596 566.299 588.006 572.035 588.295C575.73 588.489 579.402 588.634 583.078 588.681C587.461 588.736 591.691 588.419 595.835 587.828C610.357 585.689 623.514 579.85 636.297 573.139C660.938 560.211 684.367 544.005 714.059 544.689C715.129 544.714 716.199 544.763 717.292 544.837C739.908 546.27 761.607 535.355 777.287 519.695C781.757 515.214 785.756 510.369 789.132 505.299C792.848 499.733 795.954 493.675 799.323 487.703C800.358 485.846 801.417 484.015 802.525 482.186C804.791 478.457 807.273 474.836 810.156 471.478C813.323 467.791 816.604 464.255 819.956 460.772C825.791 454.693 831.764 448.767 837.367 442.434C842.739 436.358 841.531 432.957 850.106 429.275C852.766 428.128 855.27 427.169 857.776 426.186C861.895 424.569 865.894 422.922 870.244 420.51C878.669 415.844 887.403 412.414 896.476 409.023C900.938 407.349 905.497 405.703 910.135 403.915C915.716 401.755 921.222 399.127 926.752 396.477" stroke="#C8CEDB" stroke-width="8.51681" stroke-miterlimit="10" stroke-linecap="round" stroke-linejoin="round"/>
<path id="Vector_15" d="M444.048 535.039C454.078 535.501 462.584 527.727 463.047 517.677C463.51 507.626 455.754 499.104 445.724 498.642C435.694 498.18 427.188 505.953 426.725 516.004C426.263 526.055 434.018 534.577 444.048 535.039Z" fill="white" stroke="#1B771B" stroke-width="8.51681" stroke-miterlimit="10" stroke-linecap="round" stroke-linejoin="round"/>
<path id="Vector_16" d="M873.546 428.719C878.581 428.951 882.851 425.048 883.084 420.003C883.316 414.957 879.423 410.679 874.387 410.447C869.352 410.215 865.082 414.118 864.85 419.163C864.618 424.209 868.511 428.487 873.546 428.719Z" fill="#404366"/>
<path id="Vector_17" d="M835.572 452.849C840.608 453.081 844.878 449.178 845.11 444.133C845.342 439.087 841.449 434.809 836.414 434.577C831.379 434.345 827.109 438.248 826.876 443.293C826.644 448.339 830.537 452.617 835.572 452.849Z" fill="#404366"/>
<path id="Vector_18" d="M809.857 481.718C814.892 481.95 819.162 478.048 819.394 473.002C819.627 467.956 815.733 463.678 810.698 463.446C805.663 463.215 801.393 467.117 801.16 472.162C800.928 477.208 804.822 481.486 809.857 481.718Z" fill="#404366"/>
<path id="Vector_19" d="M789.06 513.792C794.095 514.024 798.365 510.122 798.597 505.076C798.829 500.031 794.936 495.752 789.901 495.521C784.866 495.289 780.596 499.191 780.364 504.237C780.131 509.282 784.025 513.56 789.06 513.792Z" fill="#404366"/>
<path id="Vector_20" d="M764.686 540.453C769.721 540.684 773.991 536.782 774.223 531.737C774.456 526.691 770.562 522.413 765.527 522.181C760.492 521.949 756.222 525.852 755.989 530.897C755.757 535.943 759.651 540.221 764.686 540.453Z" fill="#404366"/>
<path id="Vector_21" d="M733.332 553.657C738.367 553.889 742.637 549.987 742.87 544.941C743.102 539.896 739.209 535.617 734.173 535.386C729.138 535.154 724.868 539.056 724.636 544.101C724.404 549.147 728.297 553.425 733.332 553.657Z" fill="#404366"/>
<path id="Vector_22" d="M699.167 553.866C704.202 554.098 708.472 550.196 708.705 545.15C708.937 540.105 705.044 535.826 700.008 535.595C694.973 535.363 690.703 539.265 690.471 544.311C690.239 549.356 694.132 553.634 699.167 553.866Z" fill="#404366"/>
<path id="Vector_23" d="M664.801 565.76C669.836 565.992 674.106 562.089 674.338 557.044C674.571 551.998 670.677 547.72 665.642 547.488C660.607 547.257 656.337 551.159 656.105 556.204C655.872 561.25 659.766 565.528 664.801 565.76Z" fill="#404366"/>
<path id="Vector_24" d="M635.461 581.328C640.496 581.559 644.766 577.657 644.999 572.612C645.231 567.566 641.337 563.288 636.302 563.056C631.267 562.824 626.997 566.727 626.765 571.772C626.533 576.818 630.426 581.096 635.461 581.328Z" fill="#404366"/>
<path id="Vector_25" d="M607.413 595.148C612.448 595.38 616.718 591.478 616.951 586.432C617.183 581.387 613.29 577.108 608.255 576.877C603.219 576.645 598.949 580.547 598.717 585.593C598.485 590.638 602.378 594.916 607.413 595.148Z" fill="#404366"/>
<path id="Vector_26" d="M576.292 597.988C581.327 598.219 585.597 594.317 585.83 589.272C586.062 584.226 582.168 579.948 577.133 579.716C572.098 579.484 567.828 583.386 567.596 588.432C567.364 593.478 571.257 597.756 576.292 597.988Z" fill="#404366"/>
<path id="Vector_27" d="M541.524 596.997C546.56 597.229 550.83 593.327 551.062 588.281C551.294 583.235 547.401 578.957 542.366 578.725C537.331 578.494 533.061 582.396 532.828 587.441C532.596 592.487 536.489 596.765 541.524 596.997Z" fill="#404366"/>
<path id="Vector_28" d="M509.687 584.691C514.722 584.923 518.992 581.021 519.224 575.975C519.456 570.93 515.563 566.652 510.528 566.42C505.493 566.188 501.223 570.09 500.99 575.136C500.758 580.181 504.652 584.46 509.687 584.691Z" fill="#404366"/>
<path id="Vector_29" d="M488.529 564.821C493.564 565.053 497.834 561.151 498.066 556.105C498.298 551.059 494.405 546.781 489.37 546.549C484.335 546.318 480.065 550.22 479.832 555.265C479.6 560.311 483.493 564.589 488.529 564.821Z" fill="#404366"/>
</g>
<text class="btn-project" text-decoration="underline" cursor="pointer" data-projectid="1" id="&#200;&#152;coala pentru Mediu" fill="#1E1E1E" xml:space="preserve" style="white-space: pre" font-family="Titillium Web" font-size="20" font-weight="600" letter-spacing="0px"><tspan x="699" y="393.45">&#x218;coala pentru Mediu</tspan></text>
<text class="btn-project" text-decoration="underline" cursor="pointer" data-projectid="2" id="Mini Inspectorul de Mediu" fill="#1E1E1E" xml:space="preserve" style="white-space: pre" font-family="Titillium Web" font-size="20" font-weight="600" letter-spacing="0px"><tspan x="858" y="460.45">Mini Inspectorul de Mediu</tspan></text>
<text class="btn-project" text-decoration="underline" cursor="pointer" data-projectid="3" id="Colect&#196;&#131;m-Reutiliz&#196;&#131;m" fill="#1E1E1E" xml:space="preserve" style="white-space: pre" font-family="Titillium Web" font-size="20" font-weight="600" letter-spacing="0px"><tspan x="624" y="453.45">Colect&#x103;m-Reutiliz&#x103;m</tspan></text>
<text class="btn-project" text-decoration="underline" cursor="pointer" data-projectid="4" id="Doneaz&#196;&#131; cu..." fill="#1E1E1E" xml:space="preserve" style="white-space: pre" font-family="Titillium Web" font-size="20" font-weight="600" letter-spacing="0px"><tspan x="813" y="517.45">Doneaz&#x103; cu...</tspan></text>
<text class="btn-project" text-decoration="underline" cursor="pointer" data-projectid="5" id="G&#196;&#131;te&#200;&#153;te Smart" fill="#1E1E1E" xml:space="preserve" style="white-space: pre" font-family="Titillium Web" font-size="20" font-weight="600" letter-spacing="0px"><tspan x="636" y="489.45">G&#x103;te&#x219;te Smart</tspan></text>
<text class="btn-project" text-decoration="underline" cursor="pointer" data-projectid="6" id="Platoua&#200;&#153;" fill="#1E1E1E" xml:space="preserve" style="white-space: pre" font-family="Titillium Web" font-size="20" font-weight="600" letter-spacing="0px"><tspan x="782" y="555.45">Platoua&#x219;</tspan></text>
<text class="btn-project" text-decoration="underline" cursor="pointer" data-projectid="7" id="E-Food Hub" fill="#1E1E1E" xml:space="preserve" style="white-space: pre" font-family="Titillium Web" font-size="20" font-weight="600" letter-spacing="0px"><tspan x="599.102" y="520.45">E-Food Hub</tspan></text>
<text class="btn-project" text-decoration="underline" cursor="pointer" data-projectid="8" id="Amprenta mea" fill="#1E1E1E" xml:space="preserve" style="white-space: pre" font-family="Titillium Web" font-size="20" font-weight="600" letter-spacing="0px"><tspan x="511" y="549.45">Amprenta mea</tspan></text>
<text class="btn-project" text-decoration="underline" cursor="pointer" data-projectid="9" id="Energia Rom&#195;&#162;niei" fill="#1E1E1E" xml:space="preserve" style="white-space: pre" font-family="Titillium Web" font-size="20" font-weight="600" letter-spacing="0px"><tspan x="676.41" y="588.45">Energia Rom&#xe2;niei</tspan></text>
<text class="btn-project" text-decoration="underline" cursor="pointer" data-projectid="10" id="Construie&#200;&#153;te E-Smart" fill="#1E1E1E" xml:space="preserve" style="white-space: pre" font-family="Titillium Web" font-size="20" font-weight="600" letter-spacing="0px"><tspan x="629" y="617.45">Construie&#x219;te E-Smart</tspan></text>
<text class="btn-project" text-decoration="underline" cursor="pointer" data-projectid="11" id="Cump&#196;&#131;r&#196;&#131; E-Smart" fill="#1E1E1E" xml:space="preserve" style="white-space: pre" font-family="Titillium Web" font-size="20" font-weight="600" letter-spacing="0px"><tspan x="575" y="649.45">Cump&#x103;r&#x103; E-Smart</tspan></text>
<text class="btn-project" text-decoration="underline" cursor="pointer" data-projectid="12" id="Piste de Biciclet&#196;&#131;" fill="#1E1E1E" xml:space="preserve" style="white-space: pre" font-family="Titillium Web" font-size="20" font-weight="600" letter-spacing="0px"><tspan x="346" y="649.45">Piste de Biciclet&#x103;</tspan></text>
<text class="btn-project" text-decoration="underline" cursor="pointer" data-projectid="13" id="Conduc Electric" fill="#1E1E1E" xml:space="preserve" style="white-space: pre" font-family="Titillium Web" font-size="20" font-weight="600" letter-spacing="0px"><tspan x="366" y="615.45">Conduc Electric</tspan></text>
<text class="btn-project" text-decoration="underline" cursor="pointer" data-projectid="14" id="Transport &#195;&#174;n comun" fill="#1E1E1E" xml:space="preserve" style="white-space: pre" font-family="Titillium Web" font-size="20" font-weight="600" letter-spacing="0px"><tspan x="306" y="581.45">Transport&#13;&#xee;n comun</tspan></text>
</g>
</g>
<defs>
<clipPath id="clip0">
<rect width="108" height="123.429" fill="white" transform="translate(340 344)"/>
</clipPath>
</defs>
</svg>
