<svg viewBox="0 0 1200 1000" fill="none" xmlns="http://www.w3.org/2000/svg">
<g id="segment-environment-07-sate-dezvoltate">
<g id="Group 1175">
<g id="Group 1124">
<path id="Vector" d="M573.301 424.386C579.602 437.121 584.023 450.2 583.759 463.438C583.044 499.842 570.759 524.676 581.296 562.219C595.037 611.172 639.013 624.543 684.022 634.577C718.732 642.308 749.92 636.06 783.041 627.005C792.326 624.467 784.523 626.626 793.658 624.04C855.479 606.539 889.5 596.028 950.765 607.334" stroke="#1B771B" stroke-width="9.93342" stroke-miterlimit="10" stroke-linejoin="round" stroke-dasharray="12.42 12.42"/>
<path id="Vector_2" d="M573.777 443.555C584.7 443.555 593.555 434.7 593.555 423.777C593.555 412.855 584.7 404 573.777 404C562.855 404 554 412.855 554 423.777C554 434.7 562.855 443.555 573.777 443.555Z" fill="white" stroke="#1B771B" stroke-width="9.93342" stroke-miterlimit="10" stroke-linecap="round" stroke-linejoin="round"/>
</g>
<g id="icon-sate-dezvoltate 1">
<path id="Vector_3" d="M484.422 387.943C483.779 387.979 483.135 387.883 482.53 387.662C481.925 387.44 481.371 387.098 480.903 386.655C480.434 386.212 480.061 385.679 479.806 385.087C479.551 384.495 479.42 383.857 479.42 383.213C479.42 382.568 479.551 381.93 479.806 381.338C480.061 380.746 480.434 380.213 480.903 379.77C481.371 379.327 481.925 378.985 482.53 378.763C483.135 378.542 483.779 378.446 484.422 378.482" fill="white"/>
<path id="Vector_4" d="M484.422 387.943C483.779 387.979 483.135 387.883 482.53 387.662C481.925 387.44 481.371 387.098 480.903 386.655C480.434 386.212 480.061 385.679 479.806 385.087C479.551 384.495 479.42 383.857 479.42 383.213C479.42 382.568 479.551 381.93 479.806 381.338C480.061 380.746 480.434 380.213 480.903 379.77C481.371 379.327 481.925 378.985 482.53 378.763C483.135 378.542 483.779 378.446 484.422 378.482" stroke="#1B771B" stroke-width="1.4" stroke-linecap="round" stroke-linejoin="round"/>
<path id="Vector_5" d="M489.973 384.405C490.118 384.158 490.349 383.973 490.621 383.883C490.893 383.793 491.189 383.805 491.453 383.916L502.765 390.401C502.977 390.556 503.156 390.752 503.29 390.977C503.424 391.203 503.512 391.453 503.546 391.714C503.581 391.974 503.562 392.239 503.491 392.491C503.421 392.744 503.3 392.98 503.135 393.185C503.008 393.411 502.836 393.61 502.631 393.77C502.425 393.929 502.189 394.045 501.938 394.111C501.687 394.177 501.425 394.192 501.167 394.155C500.91 394.118 500.663 394.03 500.44 393.896L490.076 385.989C489.863 385.787 489.734 385.511 489.714 385.217C489.695 384.924 489.787 384.634 489.973 384.405Z" fill="white" stroke="#1B771B" stroke-width="1.4" stroke-linecap="round" stroke-linejoin="round"/>
<path id="Vector_6" d="M491.885 380.866L487.295 378.897C487.295 378.897 483.401 378.231 483.401 384.05C483.401 389.868 488.376 388.328 488.554 388.24C488.731 388.151 492.152 384.982 492.152 384.982L491.885 380.866Z" fill="white" stroke="#1B771B" stroke-width="1.4" stroke-linecap="round" stroke-linejoin="round"/>
<path id="Vector_7" d="M478.974 416.504H427.938V443.2H478.974V416.504Z" stroke="#1B771B" stroke-width="1.4" stroke-linecap="round" stroke-linejoin="round"/>
<path id="Vector_8" d="M461.532 419.895V440.964" stroke="#1B771B" stroke-width="1.4" stroke-linecap="round" stroke-linejoin="round"/>
<path id="Vector_9" d="M423.852 416.194L435.519 405.534H444.861" stroke="#1B771B" stroke-width="1.4" stroke-linecap="round" stroke-linejoin="round"/>
<path id="Vector_10" d="M460.184 416.505L471.865 405.829" stroke="#1B771B" stroke-width="1.4" stroke-linecap="round" stroke-linejoin="round"/>
<path id="Vector_11" d="M483.694 416.194L472.027 405.534H454.689" stroke="#1B771B" stroke-width="1.4" stroke-linecap="round" stroke-linejoin="round"/>
<path id="Vector_12" d="M514.062 428.172C484.021 429.06 447.302 443.2 447.302 443.2H514.062" fill="white"/>
<path id="Vector_13" d="M514.062 428.172C484.021 429.06 447.302 443.2 447.302 443.2H514.062" stroke="#1B771B" stroke-width="1.4" stroke-linecap="round" stroke-linejoin="round"/>
<path id="Vector_14" d="M427.449 443.2H409.801" stroke="#1B771B" stroke-width="1.4" stroke-linecap="round" stroke-linejoin="round"/>
<path id="Vector_15" d="M427.449 433.679H409.801" stroke="#1B771B" stroke-width="1.4" stroke-linecap="round" stroke-linejoin="round"/>
<path id="Vector_16" d="M418.697 431.294V441.318" stroke="#1B771B" stroke-width="1.4" stroke-linecap="round" stroke-linejoin="round"/>
<path id="Vector_17" d="M424.281 431.294V441.318" stroke="#1B771B" stroke-width="1.4" stroke-linecap="round" stroke-linejoin="round"/>
<path id="Vector_18" d="M413.026 431.294V441.318" stroke="#1B771B" stroke-width="1.4" stroke-linecap="round" stroke-linejoin="round"/>
<path id="Vector_19" d="M410.585 425.449C415.72 422.037 421.791 420.314 427.952 420.518" stroke="#1B771B" stroke-width="1.4" stroke-linecap="round" stroke-linejoin="round"/>
<path id="Vector_20" d="M491.335 386.004C492.528 386.004 493.496 384.705 493.496 383.102C493.496 381.499 492.528 380.2 491.335 380.2C490.141 380.2 489.173 381.499 489.173 383.102C489.173 384.705 490.141 386.004 491.335 386.004Z" fill="#1B771B"/>
<path id="Vector_21" d="M489.056 387.96L491.543 430.409" stroke="#1B771B" stroke-width="1.4" stroke-linecap="round" stroke-linejoin="round"/>
<path id="Vector_22" d="M484.423 387.96L483.579 410.865" stroke="#1B771B" stroke-width="1.4" stroke-linecap="round" stroke-linejoin="round"/>
<path id="Vector_23" d="M489.056 387.944C489.204 387.736 491.884 384.982 491.884 384.982" stroke="#1B771B" stroke-width="1.4" stroke-linecap="round" stroke-linejoin="round"/>
<path id="Vector_24" d="M487.25 384.405C487.105 384.158 486.875 383.971 486.604 383.879C486.332 383.786 486.036 383.795 485.77 383.902L474.651 390.268C474.441 390.423 474.265 390.62 474.134 390.845C474.002 391.071 473.918 391.321 473.887 391.58C473.855 391.838 473.876 392.101 473.948 392.352C474.021 392.602 474.144 392.835 474.31 393.037C474.433 393.264 474.601 393.463 474.803 393.624C475.006 393.784 475.238 393.902 475.488 393.969C475.737 394.037 475.997 394.054 476.253 394.018C476.508 393.983 476.754 393.896 476.975 393.762L487.162 385.989C487.373 385.785 487.499 385.508 487.516 385.214C487.532 384.921 487.437 384.632 487.25 384.405Z" fill="white" stroke="#1B771B" stroke-width="1.4" stroke-linecap="round" stroke-linejoin="round"/>
<path id="Vector_25" d="M488.479 380.186C488.191 380.209 487.905 380.125 487.676 379.95C487.446 379.775 487.289 379.522 487.235 379.238L486.229 366.623C486.239 366.359 486.304 366.1 486.42 365.863C486.536 365.626 486.7 365.415 486.902 365.245C487.104 365.075 487.34 364.949 487.594 364.875C487.847 364.802 488.113 364.782 488.375 364.817C488.63 364.791 488.888 364.816 489.133 364.892C489.377 364.968 489.604 365.093 489.799 365.259C489.995 365.425 490.154 365.629 490.268 365.858C490.382 366.088 490.448 366.338 490.463 366.594L489.737 379.223C489.687 379.512 489.529 379.772 489.296 379.95C489.063 380.128 488.771 380.212 488.479 380.186Z" fill="white" stroke="#1B771B" stroke-width="1.4" stroke-linecap="round" stroke-linejoin="round"/>
<path id="Vector_26" d="M440.197 425.003H431.565V431.665H440.197V425.003Z" stroke="#1B771B" stroke-width="1.4" stroke-linecap="round" stroke-linejoin="round"/>
<path id="Vector_27" d="M454.676 425.003H446.044V431.665H454.676V425.003Z" stroke="#1B771B" stroke-width="1.4" stroke-linecap="round" stroke-linejoin="round"/>
<path id="Vector_28" d="M472.031 414.417C473.053 414.417 473.882 413.589 473.882 412.567C473.882 411.545 473.053 410.716 472.031 410.716C471.009 410.716 470.181 411.545 470.181 412.567C470.181 413.589 471.009 414.417 472.031 414.417Z" stroke="#1B771B" stroke-width="1.4" stroke-linecap="round" stroke-linejoin="round"/>
</g>
<text id="Fejlett falvak" fill="#1E1E1E" xml:space="preserve" style="white-space: pre" font-family="Titillium Web" font-size="40" font-weight="600" letter-spacing="0px"><tspan x="250.57" y="502.9">Fejlett falvak</tspan></text>
</g>
</g>
</svg>
