<svg viewBox="0 0 1200 1000" fill="none" xmlns="http://www.w3.org/2000/svg">
<g id="segment-education-06-scoli-sigure-si-bine-administrate">
<g id="Group 1158">
<g id="Group 1137">
<path id="Vector" d="M599.962 217C587.306 223.474 575.6 231.982 565.507 242.023C554.145 253.411 544.077 279.438 549.521 295.609C553.854 308.424 571.69 319.443 580.726 329.272C593.806 343.488 608.761 356.779 616.873 374.773C624.087 390.785 621.022 404.182 634.128 417.869C659.018 443.87 700.08 437.819 726.265 464.268C748.699 486.94 753.64 519.282 762.333 547.792C765.768 559.049 771.978 570.305 779.614 579.923C790.077 589.937 800.541 599.952 811.005 609.992C821.389 619.954 832.275 630.708 835.605 644.713C836.847 649.865 836.979 655.229 837.904 660.461" stroke="#FFA506" stroke-width="9.91373" stroke-miterlimit="10" stroke-linejoin="round" stroke-dasharray="12.39 12.39"/>
<path id="Vector_2" d="M839.278 681.89C850.179 681.89 859.016 673.053 859.016 662.152C859.016 651.251 850.179 642.414 839.278 642.414C828.377 642.414 819.54 651.251 819.54 662.152C819.54 673.053 828.377 681.89 839.278 681.89Z" fill="white" stroke="#FFA506" stroke-width="9.91373" stroke-miterlimit="10" stroke-linecap="round" stroke-linejoin="round"/>
</g>
<g id="icon-scoli-sigure-si-bine-administrate 1">
<path id="Vector_3" d="M741.146 706.389L722.882 724.718V737.576" stroke="#FFA506" stroke-width="2.10577" stroke-linecap="round" stroke-linejoin="round"/>
<path id="Vector_4" d="M741.146 706.389L759.41 724.395V737.576" stroke="#FFA506" stroke-width="2.10577" stroke-linecap="round" stroke-linejoin="round"/>
<path id="Vector_5" d="M727.094 724.799L741.308 710.584L755.587 724.863" stroke="#FFA506" stroke-width="2.10577" stroke-linecap="round" stroke-linejoin="round"/>
<path id="Vector_6" d="M730.53 716.99H703.069V768.683" stroke="#FFA506" stroke-width="2.10577" stroke-linecap="round" stroke-linejoin="round"/>
<path id="Vector_7" d="M780.144 768.684V732.786" stroke="#FFA506" stroke-width="2.10577" stroke-linecap="round" stroke-linejoin="round"/>
<path id="Vector_8" d="M751.746 716.99H780.142V732.785" stroke="#FFA506" stroke-width="2.10577" stroke-linecap="round" stroke-linejoin="round"/>
<path id="Vector_9" d="M691.472 768.685H790.229" stroke="#FFA506" stroke-width="2.10577" stroke-linecap="round" stroke-linejoin="round"/>
<path id="Vector_10" d="M759.412 728.495H780.144" stroke="#FFA506" stroke-width="2.10577" stroke-linecap="round" stroke-linejoin="round"/>
<path id="Vector_11" d="M722.882 728.495H703.069" stroke="#FFA506" stroke-width="2.10577" stroke-linecap="round" stroke-linejoin="round"/>
<path id="Vector_12" d="M759.412 731.204H779.87" stroke="#FFA506" stroke-width="2.10577" stroke-linecap="round" stroke-linejoin="round"/>
<path id="Vector_13" d="M722.624 731.204H703.069" stroke="#FFA506" stroke-width="2.10577" stroke-linecap="round" stroke-linejoin="round"/>
<path id="Vector_14" d="M741.34 750.857C741.094 750.846 740.856 750.772 740.649 750.64C740.442 750.509 740.273 750.326 740.159 750.108C740.044 749.891 739.989 749.648 739.998 749.403C740.007 749.158 740.08 748.919 740.21 748.711L745.857 739.918C745.948 739.749 746.072 739.6 746.223 739.482C746.374 739.363 746.548 739.277 746.733 739.229C746.919 739.181 747.112 739.172 747.302 739.203C747.491 739.233 747.672 739.303 747.833 739.407C747.994 739.511 748.132 739.648 748.238 739.808C748.344 739.967 748.415 740.148 748.448 740.337C748.48 740.526 748.473 740.72 748.427 740.906C748.382 741.092 748.297 741.266 748.18 741.418L742.517 750.212C742.391 750.409 742.216 750.571 742.011 750.684C741.805 750.797 741.574 750.856 741.34 750.857Z" stroke="#FFA506" stroke-width="2.10577" stroke-linecap="round" stroke-linejoin="round"/>
<path id="Vector_15" d="M731.337 736.802C733.85 736.802 735.887 734.765 735.887 732.252C735.887 729.739 733.85 727.702 731.337 727.702C728.824 727.702 726.787 729.739 726.787 732.252C726.787 734.765 728.824 736.802 731.337 736.802Z" stroke="#FFA506" stroke-width="2.10577" stroke-linecap="round" stroke-linejoin="round"/>
<path id="Vector_16" d="M726.788 746.127L723.771 754.824H731.338" stroke="#FFA506" stroke-width="2.10577" stroke-linecap="round" stroke-linejoin="round"/>
<path id="Vector_17" d="M735.871 746.127L738.889 754.824H731.338" stroke="#FFA506" stroke-width="2.10577" stroke-linecap="round" stroke-linejoin="round"/>
<path id="Vector_18" d="M730.513 754.825H727.738V764.683H730.513V754.825Z" stroke="#FFA506" stroke-width="2.10577" stroke-linecap="round" stroke-linejoin="round"/>
<path id="Vector_19" d="M735.191 754.825H732.416V764.683H735.191V754.825Z" stroke="#FFA506" stroke-width="2.10577" stroke-linecap="round" stroke-linejoin="round"/>
<path id="Vector_20" d="M721.108 750.857C720.839 750.851 720.577 750.773 720.349 750.631C720.041 750.43 719.826 750.114 719.75 749.754C719.675 749.394 719.745 749.019 719.946 748.711L725.69 739.918C725.789 739.764 725.916 739.632 726.066 739.527C726.216 739.423 726.385 739.349 726.563 739.31C726.741 739.271 726.926 739.268 727.105 739.3C727.285 739.333 727.456 739.4 727.61 739.498C727.763 739.597 727.896 739.724 728 739.874C728.105 740.024 728.178 740.193 728.217 740.371C728.256 740.55 728.26 740.734 728.228 740.914C728.195 741.093 728.128 741.265 728.029 741.418L722.366 750.211C722.233 750.421 722.045 750.591 721.824 750.704C721.603 750.817 721.356 750.87 721.108 750.857Z" fill="white" stroke="#FFA506" stroke-width="2.10577" stroke-linecap="round" stroke-linejoin="round"/>
<path id="Vector_21" d="M741.339 750.855C741.107 750.855 740.878 750.796 740.675 750.683C740.472 750.57 740.3 750.407 740.177 750.21L734.498 741.417C734.399 741.264 734.332 741.092 734.299 740.912C734.267 740.733 734.27 740.548 734.309 740.37C734.348 740.192 734.422 740.023 734.526 739.873C734.631 739.723 734.764 739.596 734.918 739.497C735.071 739.396 735.242 739.327 735.422 739.293C735.602 739.26 735.787 739.263 735.966 739.302C736.145 739.341 736.314 739.415 736.464 739.521C736.614 739.626 736.741 739.761 736.838 739.916L742.517 748.71C742.712 749.021 742.778 749.396 742.699 749.755C742.621 750.114 742.405 750.428 742.097 750.63C741.87 750.772 741.608 750.85 741.339 750.855Z" fill="white" stroke="#FFA506" stroke-width="2.10577" stroke-linecap="round" stroke-linejoin="round"/>
<path id="Vector_22" d="M751.569 736.802C754.082 736.802 756.119 734.765 756.119 732.252C756.119 729.739 754.082 727.702 751.569 727.702C749.057 727.702 747.02 729.739 747.02 732.252C747.02 734.765 749.057 736.802 751.569 736.802Z" stroke="#FFA506" stroke-width="2.10577" stroke-linecap="round" stroke-linejoin="round"/>
<path id="Vector_23" d="M761.574 750.855C761.342 750.855 761.113 750.796 760.91 750.683C760.707 750.57 760.536 750.407 760.413 750.21L754.733 741.417C754.635 741.264 754.567 741.092 754.535 740.912C754.502 740.733 754.506 740.548 754.545 740.37C754.583 740.192 754.657 740.023 754.762 739.873C754.866 739.723 754.999 739.596 755.153 739.497C755.306 739.396 755.477 739.327 755.657 739.293C755.837 739.26 756.022 739.263 756.201 739.302C756.38 739.341 756.55 739.415 756.699 739.521C756.849 739.626 756.976 739.761 757.073 739.916L762.8 748.71C762.899 748.863 762.967 749.035 762.999 749.214C763.032 749.394 763.028 749.578 762.989 749.757C762.95 749.935 762.877 750.104 762.772 750.254C762.668 750.403 762.535 750.531 762.381 750.63C762.14 750.783 761.86 750.862 761.574 750.855Z" fill="white" stroke="#FFA506" stroke-width="2.10577" stroke-linecap="round" stroke-linejoin="round"/>
<path id="Vector_24" d="M756.103 749.646H747.02V754.825H756.103V749.646Z" stroke="#FFA506" stroke-width="2.10577" stroke-linejoin="round"/>
<path id="Vector_25" d="M751.568 754.825V751.905" stroke="#FFA506" stroke-width="2.10577" stroke-linejoin="round"/>
<path id="Vector_26" d="M730.532 764.685V768.476H724.788C724.783 767.957 724.95 767.452 725.262 767.038C725.575 766.623 726.015 766.324 726.514 766.185C726.724 766.12 726.941 766.088 727.16 766.088V764.685H730.532Z" stroke="#FFA506" stroke-width="2.10577" stroke-linecap="round" stroke-linejoin="round"/>
<path id="Vector_27" d="M732.32 764.685V768.476H738.064C738.068 767.956 737.899 767.448 737.584 767.033C737.268 766.619 736.825 766.321 736.322 766.185C736.118 766.12 735.906 766.088 735.692 766.088V764.685H732.32Z" stroke="#FFA506" stroke-width="2.10577" stroke-linecap="round" stroke-linejoin="round"/>
<path id="Vector_28" d="M750.665 754.825H747.891V764.683H750.665V754.825Z" stroke="#FFA506" stroke-width="2.10577" stroke-linecap="round" stroke-linejoin="round"/>
<path id="Vector_29" d="M755.33 754.825H752.555V764.683H755.33V754.825Z" stroke="#FFA506" stroke-width="2.10577" stroke-linecap="round" stroke-linejoin="round"/>
<path id="Vector_30" d="M750.666 764.685V768.476H744.922C744.918 767.956 745.087 767.448 745.402 767.033C745.718 766.619 746.162 766.321 746.664 766.185C746.868 766.12 747.08 766.088 747.294 766.088V764.685H750.666Z" stroke="#FFA506" stroke-width="2.10577" stroke-linecap="round" stroke-linejoin="round"/>
<path id="Vector_31" d="M752.456 764.685V768.476H758.2C758.205 767.957 758.038 767.452 757.726 767.038C757.414 766.623 756.973 766.324 756.474 766.185C756.265 766.12 756.047 766.088 755.828 766.088V764.685H752.456Z" stroke="#FFA506" stroke-width="2.10577" stroke-linecap="round" stroke-linejoin="round"/>
<path id="Vector_32" d="M735.871 739.303H726.787V746.128H735.871V739.303Z" fill="white" stroke="#FFA506" stroke-width="2.10577" stroke-linecap="round" stroke-linejoin="round"/>
<path id="Vector_33" d="M756.103 739.303H747.02V749.645H756.103V739.303Z" fill="white" stroke="#FFA506" stroke-width="2.10577" stroke-linecap="round" stroke-linejoin="round"/>
<path id="Vector_34" d="M702.682 725.557C709.241 725.557 714.557 720.241 714.557 713.682C714.557 707.124 709.241 701.808 702.682 701.808C696.124 701.808 690.808 707.124 690.808 713.682C690.808 720.241 696.124 725.557 702.682 725.557Z" fill="white" stroke="#FFA506" stroke-width="2.10577" stroke-linecap="round" stroke-linejoin="round"/>
<path id="Vector_35" d="M696.65 712.763C698.955 714.437 700.972 716.475 702.62 718.798C702.62 718.798 709.074 708.762 715.285 704.632" stroke="#FFA506" stroke-width="2.10577" stroke-linecap="round" stroke-linejoin="round"/>
<path id="Vector_36" d="M794.18 742.577C794.18 744.055 793.594 745.473 792.551 746.519C791.507 747.566 790.092 748.156 788.614 748.16H788.339C788.09 749.041 787.559 749.815 786.828 750.365C786.096 750.916 785.205 751.213 784.29 751.209H780.144V724.895C781.523 725.023 782.805 725.661 783.739 726.685C784.673 727.708 785.192 729.043 785.193 730.429C785.193 730.59 785.193 730.751 785.193 730.896C785.49 730.832 785.793 730.799 786.097 730.8C787.194 730.804 788.244 731.243 789.019 732.02C789.793 732.797 790.227 733.849 790.227 734.946C790.233 735.703 790.026 736.447 789.63 737.092C790.908 737.336 792.061 738.016 792.891 739.017C793.721 740.018 794.177 741.277 794.18 742.577Z" stroke="#FFA506" stroke-width="2.10577" stroke-linecap="round" stroke-linejoin="round"/>
</g>
<text id="Biztonságos és jól működő iskolák" fill="#1E1E1E" xml:space="preserve" style="white-space: pre" font-family="Titillium Web" font-size="40" font-weight="600" letter-spacing="0px"><tspan x="413.461" y="734.9">Biztonságos és jól</tspan><tspan x="344.984" y="776.9">működő iskolák</tspan></text>
</g>
</g>
</svg>
