<svg viewBox="0 0 1200 1000" fill="none" xmlns="http://www.w3.org/2000/svg">
<g id="segment-participation-05-o-mai-buna-relatie-cetatean-stat">
<g id="Group 1202">
<text class="btn-project" text-decoration="underline" cursor="pointer" data-projectid="11" id="Audiere Public&#196;&#131;" fill="#404366" xml:space="preserve" style="white-space: pre" font-family="Titillium Web" font-size="20" font-weight="600" letter-spacing="0em"><tspan x="495" y="621.45">Audiere Public&#x103;</tspan></text>
<text class="btn-project" text-decoration="underline" cursor="pointer" data-projectid="10" id="Ini&#200;&#155;iativ&#196;&#131; Legislativ&#196;&#131;" fill="#404366" xml:space="preserve" style="white-space: pre" font-family="Titillium Web" font-size="20" font-weight="600" letter-spacing="0em"><tspan x="637" y="559.45">Ini&#x21b;iativ&#x103; Legislativ&#x103;</tspan></text>
<text class="btn-project" text-decoration="underline" cursor="pointer" data-projectid="9" id="Te reprezint&#196;&#131;" fill="#404366" xml:space="preserve" style="white-space: pre" font-family="Titillium Web" font-size="20" font-weight="600" letter-spacing="0em"><tspan x="461" y="539.45">Te reprezint&#x103;</tspan></text>
<text class="btn-project" text-decoration="underline" cursor="pointer" data-projectid="8" id="Calendarul Ora&#200;&#153;ului" fill="#404366" xml:space="preserve" style="white-space: pre" font-family="Titillium Web" font-size="20" font-weight="600" letter-spacing="0em"><tspan x="587" y="481.45">Calendarul Ora&#x219;ului</tspan></text>
<text class="btn-project" text-decoration="underline" cursor="pointer" data-projectid="7" id="Public Report" fill="#404366" xml:space="preserve" style="white-space: pre" font-family="Titillium Web" font-size="20" font-weight="600" letter-spacing="0em"><tspan x="412" y="474.45">Public Report</tspan></text>
<text class="btn-project" text-decoration="underline" cursor="pointer" data-projectid="6" id="Acces 544" fill="#404366" xml:space="preserve" style="white-space: pre" font-family="Titillium Web" font-size="20" font-weight="600" letter-spacing="0em"><tspan x="555" y="427.45">Acces 544</tspan></text>
<text class="btn-project" text-decoration="underline" cursor="pointer" data-projectid="5" id="Biroul de propuneri" fill="#404366" xml:space="preserve" style="white-space: pre" font-family="Titillium Web" font-size="20" font-weight="600" letter-spacing="0em"><tspan x="313" y="420.45">Biroul de propuneri</tspan></text>
<text class="btn-project" text-decoration="underline" cursor="pointer" data-projectid="4" id="Bugetare Participativ&#196;&#131;" fill="#404366" xml:space="preserve" style="white-space: pre" font-family="Titillium Web" font-size="20" font-weight="600" letter-spacing="0em"><tspan x="441" y="352.45">Bugetare Participativ&#x103;</tspan></text>
<text class="btn-project" text-decoration="underline" cursor="pointer" data-projectid="3" id="Website Factory: Prim&#196;&#131;rie" fill="#404366" xml:space="preserve" style="white-space: pre" font-family="Titillium Web" font-size="20" font-weight="600" letter-spacing="0em"><tspan x="165" y="370.45">Website Factory: Prim&#x103;rie</tspan></text>
<text class="btn-project" text-decoration="underline" cursor="pointer" data-projectid="2" id="Website Factory: Guvern" fill="#404366" xml:space="preserve" style="white-space: pre" font-family="Titillium Web" font-size="20" font-weight="600" letter-spacing="0em"><tspan x="138" y="332.45">Website Factory: Guvern</tspan></text>
<text class="btn-project" text-decoration="underline" cursor="pointer" data-projectid="1" id="Registrul Institu&#200;&#155;iilor Publice" fill="#404366" xml:space="preserve" style="white-space: pre" font-family="Titillium Web" font-size="20" font-weight="600" letter-spacing="0em"><tspan x="78" y="290.45">Registrul Institu&#x21b;iilor Publice</tspan></text>
<g id="icon-o-mai-buna-relatie-cetatean-stat 1" clip-path="url(#clip0)">
<path id="Vector" d="M803.644 627.596C803.644 622.258 799.318 617.931 793.98 617.931C788.643 617.931 784.316 622.258 784.316 627.596V631.257C784.316 636.595 788.643 640.922 793.98 640.922C799.318 640.922 803.644 636.595 803.644 631.257V627.596Z" stroke="#00B4CC" stroke-width="2.14286" stroke-linecap="round" stroke-linejoin="round"/>
<path id="Vector_2" d="M790.539 640.286V642.42C790.539 643.614 789.631 644.346 788.358 644.601L784.425 645.349C780.285 645.986 776.464 648.916 776.464 653.31V670.951" stroke="#00B4CC" stroke-width="2.14286" stroke-linecap="round" stroke-linejoin="round"/>
<path id="Vector_3" d="M797.435 640.286V643.088C797.435 644.378 800.333 644.601 801.161 644.601C802.893 644.601 804.567 645.223 805.879 646.354C807.191 647.485 808.054 649.049 808.309 650.763L809.105 656.128" stroke="#00B4CC" stroke-width="2.14286" stroke-linecap="round" stroke-linejoin="round"/>
<path id="Vector_4" d="M804.042 656.129L806.224 676.779" stroke="#00B4CC" stroke-width="2.14286" stroke-linecap="round" stroke-linejoin="round"/>
<path id="Vector_5" d="M784.729 656.129V676.779" stroke="#00B4CC" stroke-width="2.14286" stroke-linecap="round" stroke-linejoin="round"/>
<path id="Vector_6" d="M806.223 676.779H784.729" stroke="#00B4CC" stroke-width="2.14286" stroke-linecap="round" stroke-linejoin="round"/>
<path id="Vector_7" d="M789.634 644.632C790.855 645.508 792.318 645.981 793.821 645.985C795.329 645.965 796.79 645.463 797.992 644.553" stroke="#00B4CC" stroke-width="2.14286" stroke-linecap="round" stroke-linejoin="round"/>
<path id="Vector_8" d="M806.78 661.987C808.393 658.431 809.554 654.687 810.235 650.841" stroke="#00B4CC" stroke-width="2.14286" stroke-linecap="round" stroke-linejoin="round"/>
<path id="Vector_9" d="M816.683 651.86C816.593 655.457 816.248 659.043 815.648 662.591C815.301 665.06 814.332 667.4 812.83 669.389C811.915 670.341 810.732 670.993 809.438 671.257C808.144 671.522 806.801 671.387 805.585 670.87" stroke="#00B4CC" stroke-width="2.14286" stroke-linecap="round" stroke-linejoin="round"/>
<path id="Vector_10" d="M801.541 621.578L801.43 621.881C801.275 622.33 801.018 622.737 800.678 623.069C800.338 623.4 799.925 623.648 799.472 623.791C798.745 624.014 797.969 624.014 797.243 623.791L795.412 623.218C794.199 622.839 792.896 622.869 791.702 623.304C790.508 623.738 789.49 624.553 788.804 625.622L784.394 632.468" stroke="#00B4CC" stroke-width="2.14286" stroke-linecap="round" stroke-linejoin="round"/>
<path id="Vector_11" d="M795.841 630.732C796.245 630.732 796.573 630.148 796.573 629.427C796.573 628.706 796.245 628.121 795.841 628.121C795.436 628.121 795.108 628.706 795.108 629.427C795.108 630.148 795.436 630.732 795.841 630.732Z" fill="#00B4CC"/>
<path id="Vector_12" d="M843.606 631.036C844.01 631.036 844.338 630.452 844.338 629.731C844.338 629.01 844.01 628.425 843.606 628.425C843.201 628.425 842.874 629.01 842.874 629.731C842.874 630.452 843.201 631.036 843.606 631.036Z" fill="#00B4CC"/>
<path id="Vector_13" d="M850.213 631.036C850.617 631.036 850.945 630.452 850.945 629.731C850.945 629.01 850.617 628.425 850.213 628.425C849.808 628.425 849.48 629.01 849.48 629.731C849.48 630.452 849.808 631.036 850.213 631.036Z" fill="#00B4CC"/>
<path id="Vector_14" d="M801.047 630.732C801.452 630.732 801.78 630.148 801.78 629.427C801.78 628.706 801.452 628.121 801.047 628.121C800.643 628.121 800.315 628.706 800.315 629.427C800.315 630.148 800.643 630.732 801.047 630.732Z" fill="#00B4CC"/>
<path id="Vector_15" d="M798.438 633.838L797.148 634.937C797.61 634.937 798.087 635.112 798.565 635.16" stroke="#00B4CC" stroke-width="2.14286" stroke-linecap="round" stroke-linejoin="round"/>
<path id="Vector_16" d="M810.3 650.953C810.149 650.87 810.018 650.756 809.913 650.619C809.809 650.482 809.735 650.325 809.695 650.157C809.612 649.824 809.585 649.48 809.615 649.138C809.679 648.131 809.823 647.13 810.045 646.145C810.073 645.835 810.221 645.549 810.459 645.349C810.606 645.276 810.773 645.251 810.935 645.277C811.098 645.302 811.249 645.377 811.366 645.492C811.606 645.723 811.805 645.992 811.955 646.288C812.428 647.066 813.037 647.751 813.755 648.31" stroke="#00B4CC" stroke-width="2.14286" stroke-linecap="round" stroke-linejoin="round"/>
<path id="Vector_17" d="M813.481 646.383C815.553 646.525 817.511 647.38 819.022 648.803L816.729 651.764" stroke="#00B4CC" stroke-width="2.14286" stroke-linecap="round" stroke-linejoin="round"/>
<path id="Vector_18" d="M812.687 646.862C813.447 645.878 814.368 645.027 815.409 644.347C815.841 644.028 816.355 643.84 816.89 643.805C817.153 643.796 817.411 643.881 817.618 644.044C817.825 644.207 817.968 644.439 818.02 644.697" stroke="#00B4CC" stroke-width="2.14286" stroke-linecap="round" stroke-linejoin="round"/>
<path id="Vector_19" d="M815.792 646.844C816.578 645.955 817.496 645.193 818.515 644.583C818.74 644.433 819.008 644.36 819.279 644.376C819.516 644.436 819.721 644.584 819.852 644.79C819.983 644.99 820.08 645.211 820.138 645.443" stroke="#00B4CC" stroke-width="2.14286" stroke-linecap="round" stroke-linejoin="round"/>
<path id="Vector_20" d="M817.812 647.433C818.378 646.617 819.124 645.941 819.993 645.459C820.197 645.346 820.431 645.301 820.662 645.332C821.076 645.411 821.219 645.634 821.219 646.064C821.219 646.494 820.694 646.876 820.407 647.243C819.996 647.815 819.532 648.348 819.022 648.835" stroke="#00B4CC" stroke-width="2.14286" stroke-linecap="round" stroke-linejoin="round"/>
<path id="Vector_21" d="M804.199 657.83C805.713 657.215 807.26 656.683 808.832 656.238" stroke="#00B4CC" stroke-width="2.14286" stroke-linecap="round" stroke-linejoin="round"/>
<path id="Vector_22" d="M778.423 657.195C780.573 657.459 782.702 657.879 784.791 658.453" stroke="#00B4CC" stroke-width="2.14286" stroke-linecap="round" stroke-linejoin="round"/>
<path id="Vector_23" d="M859.509 631.243C859.163 631.857 858.592 632.314 857.917 632.516C857.513 632.634 857.096 632.699 856.675 632.707V635.891C856.675 637.581 856.004 639.201 854.81 640.395C853.615 641.589 851.996 642.26 850.306 642.26H847.122C845.433 642.26 843.813 641.589 842.619 640.395C841.425 639.201 840.754 637.581 840.754 635.891V624.173C840.73 623.983 840.73 623.791 840.754 623.6C845.472 623.89 850.207 623.428 854.78 622.231C855.475 624.108 856.065 626.021 856.548 627.963C856.627 628.297 856.723 628.647 856.786 628.998C857.171 628.882 857.575 628.845 857.974 628.889C858.374 628.932 858.76 629.056 859.111 629.252C859.38 629.499 859.563 629.825 859.635 630.183C859.706 630.54 859.662 630.911 859.509 631.243Z" stroke="#00B4CC" stroke-width="2.14286" stroke-linecap="round" stroke-linejoin="round"/>
<path id="Vector_24" d="M840.804 623.553H839.372C839.954 621.918 840.9 620.436 842.138 619.22C843.376 618.003 844.875 617.084 846.52 616.531C850.21 615.241 854.25 615.384 857.84 616.93C862.378 619.127 862.617 623.999 862.617 628.377C862.617 632.755 860.579 636.656 856.248 637.93" stroke="#00B4CC" stroke-width="2.14286" stroke-linecap="round" stroke-linejoin="round"/>
<path id="Vector_25" d="M855.688 632.708C855.991 632.724 856.294 632.724 856.596 632.708" stroke="#00B4CC" stroke-width="2.14286" stroke-linecap="round" stroke-linejoin="round"/>
<path id="Vector_26" d="M844.768 635.685C846.113 635.907 847.492 635.814 848.796 635.415" stroke="#00B4CC" stroke-width="2.14286" stroke-linecap="round" stroke-linejoin="round"/>
<path id="Vector_27" d="M847.123 644.489L846.152 649.441L850.068 648.088L852.807 651.272L859.733 646.082L858.141 643.104C858.141 643.104 854.59 646.639 847.123 644.489Z" stroke="#00B4CC" stroke-width="2.14286" stroke-linecap="round" stroke-linejoin="round"/>
<path id="Vector_28" d="M847.125 644.489L848.797 644.903V642.228" stroke="#00B4CC" stroke-width="2.14286" stroke-linecap="round" stroke-linejoin="round"/>
<path id="Vector_29" d="M857.265 643.803V637.546" stroke="#00B4CC" stroke-width="2.14286" stroke-linecap="round" stroke-linejoin="round"/>
<path id="Vector_30" d="M859.734 646.129C862.73 646.696 865.442 648.266 867.425 650.582C869.407 652.897 870.542 655.819 870.64 658.866L871.373 676.777" stroke="#00B4CC" stroke-width="2.14286" stroke-linecap="round" stroke-linejoin="round"/>
<path id="Vector_31" d="M846.902 646.129H845.31C842.314 646.696 839.602 648.266 837.619 650.582C835.636 652.897 834.502 655.819 834.403 658.866L833.719 676.857" stroke="#00B4CC" stroke-width="2.14286" stroke-linecap="round" stroke-linejoin="round"/>
<path id="Vector_32" d="M839.483 660.141V676.779" stroke="#00B4CC" stroke-width="2.14286" stroke-linecap="round" stroke-linejoin="round"/>
<path id="Vector_33" d="M851.31 676.746H829.45L831.329 661.86H853.189L851.31 676.746Z" fill="white" stroke="#00B4CC" stroke-width="2.14286" stroke-linecap="round" stroke-linejoin="round"/>
<path id="Vector_34" d="M859.843 661.653C860.272 661.803 860.641 662.088 860.894 662.465V676.588" stroke="#00B4CC" stroke-width="2.14286" stroke-linecap="round" stroke-linejoin="round"/>
<path id="Vector_35" d="M816.89 619.508C819.347 619.621 821.75 618.757 823.572 617.104C825.395 615.452 826.49 613.145 826.618 610.688C826.49 608.231 825.395 605.924 823.572 604.272C821.75 602.619 819.347 601.755 816.89 601.868C814.431 601.751 812.026 602.614 810.202 604.267C808.379 605.92 807.285 608.23 807.162 610.688C807.168 611.952 807.457 613.199 808.008 614.337C808.559 615.475 809.358 616.475 810.346 617.264L808.754 623.489L816.89 619.508Z" stroke="#00B4CC" stroke-width="2.14286" stroke-linecap="round" stroke-linejoin="round"/>
<path id="Vector_36" d="M830.279 637.467C828.844 638.353 827.188 638.816 825.502 638.805C823.369 638.904 821.283 638.154 819.701 636.719C818.119 635.283 817.171 633.28 817.064 631.147C817.187 629.022 818.145 627.032 819.728 625.61C821.311 624.187 823.392 623.448 825.518 623.552C827.652 623.453 829.738 624.203 831.319 625.638C832.901 627.073 833.849 629.077 833.956 631.21C833.953 632.132 833.775 633.045 833.431 633.901L836.615 636.13L830.279 637.467Z" stroke="#00B4CC" stroke-width="2.14286" stroke-linecap="round" stroke-linejoin="round"/>
<path id="Vector_37" d="M774.857 676.779H876.196" stroke="#00B4CC" stroke-width="2.14286" stroke-linecap="round" stroke-linejoin="round"/>
<path id="Vector_38" d="M853.188 661.86L856.293 676.746" stroke="#00B4CC" stroke-width="2.14286" stroke-linecap="round" stroke-linejoin="round"/>
<path id="Vector_39" d="M835.089 667.242H847.587" stroke="#00B4CC" stroke-width="2.14286" stroke-linecap="round" stroke-linejoin="round"/>
<path id="Vector_40" d="M834.419 671.349H846.901" stroke="#00B4CC" stroke-width="2.14286" stroke-linecap="round" stroke-linejoin="round"/>
</g>
<text id="Jobb állampolgár-állam kapcsolat" fill="#1E1E1E" xml:space="preserve" style="white-space: pre" font-family="Titillium Web" font-size="40" font-weight="600" letter-spacing="0px"><tspan x="772" y="728.9">Jobb </tspan><tspan x="772" y="770.9">állampolgár-állam kapcsolat</tspan></text>
<g id="Group 1201">
<path id="Vector_41" d="M655.611 596.435C667.098 607.654 677.219 620.774 686.724 634.161" stroke="#C8CEDB" stroke-width="10.0459" stroke-miterlimit="10" stroke-linecap="round" stroke-linejoin="round"/>
<path id="Vector_42" d="M655.611 596.435C651.863 592.767 647.739 589.554 643.241 586.849C636.654 582.833 629.077 580.263 623.026 575.416C609.959 564.894 609.317 548.4 604.684 533.647C602.569 526.953 599.624 520.607 594.322 515.359C585.058 506.229 576.624 496.696 567.975 487.218C567.199 486.388 566.449 485.531 565.726 484.674C562.004 480.337 558.55 475.705 555.444 470.885C553.008 467.083 550.785 463.174 548.831 459.211C545.725 452.919 543.422 446.252 541.146 439.558C538.683 432.382 536.22 425.206 532.712 418.432C519.19 392.245 512.095 387.587 498.868 387.372C495.601 387.319 491.987 387.533 487.81 387.747" stroke="#C8CEDB" stroke-width="10.0459" stroke-miterlimit="10" stroke-linecap="round" stroke-linejoin="round"/>
<path id="Vector_43" d="M375.46 315.293C381.351 322.79 387.536 329.939 394.015 336.633C403.547 346.459 413.749 355.268 424.673 362.685C429.386 365.871 434.286 369.593 439.373 373.154C450.646 381.053 462.882 388.336 476.109 388.175C480.447 388.122 484.275 387.934 487.756 387.747" stroke="#00B4CC" stroke-width="10.0459" stroke-miterlimit="10" stroke-linecap="round" stroke-linejoin="round"/>
<path id="Vector_44" d="M347.292 273.603C350.934 279.788 354.709 285.866 358.645 291.837C363.973 299.95 369.569 307.795 375.46 315.292" stroke="#00B4CC" stroke-width="10.0459" stroke-miterlimit="10" stroke-linecap="round" stroke-linejoin="round"/>
<path id="Vector_45" d="M318 217C326.675 235.796 336.368 255.075 347.292 273.603" stroke="#C8CEDB" stroke-width="10.0459" stroke-miterlimit="10" stroke-linecap="round" stroke-linejoin="round"/>
<path id="Vector_46" d="M702.71 669.88C713.756 669.88 722.711 660.925 722.711 649.879C722.711 638.832 713.756 629.877 702.71 629.877C691.663 629.877 682.708 638.832 682.708 649.879C682.708 660.925 691.663 669.88 702.71 669.88Z" fill="white" stroke="#00B4CC" stroke-width="10.0459" stroke-miterlimit="10" stroke-linecap="round" stroke-linejoin="round"/>
<path id="Vector_47" d="M347.372 283.537C352.917 283.537 357.413 279.042 357.413 273.496C357.413 267.951 352.917 263.456 347.372 263.456C341.826 263.456 337.331 267.951 337.331 273.496C337.331 279.042 341.826 283.537 347.372 283.537Z" fill="#404366"/>
<path id="Vector_48" d="M376.424 325.253C381.969 325.253 386.464 320.758 386.464 315.212C386.464 309.667 381.969 305.171 376.424 305.171C370.878 305.171 366.383 309.667 366.383 315.212C366.383 320.758 370.878 325.253 376.424 325.253Z" fill="white" stroke="#00B4CC" stroke-width="5.35509" stroke-miterlimit="10" stroke-linecap="round" stroke-linejoin="round"/>
<path id="Vector_49" d="M405.555 357.33C411.1 357.33 415.596 352.834 415.596 347.289C415.596 341.744 411.1 337.248 405.555 337.248C400.01 337.248 395.514 341.744 395.514 347.289C395.514 352.834 400.01 357.33 405.555 357.33Z" fill="white" stroke="#00B4CC" stroke-width="5.35509" stroke-miterlimit="10" stroke-linecap="round" stroke-linejoin="round"/>
<path id="Vector_50" d="M440.15 383.195C445.696 383.195 450.191 378.7 450.191 373.155C450.191 367.609 445.696 363.114 440.15 363.114C434.605 363.114 430.109 367.609 430.109 373.155C430.109 378.7 434.605 383.195 440.15 383.195Z" fill="white" stroke="#00B4CC" stroke-width="5.35509" stroke-miterlimit="10" stroke-linecap="round" stroke-linejoin="round"/>
<path id="Vector_51" d="M491.131 398.216C496.676 398.216 501.171 393.721 501.171 388.175C501.171 382.63 496.676 378.135 491.131 378.135C485.585 378.135 481.09 382.63 481.09 388.175C481.09 393.721 485.585 398.216 491.131 398.216Z" fill="white" stroke="#00B4CC" stroke-width="5.35509" stroke-miterlimit="10" stroke-linecap="round" stroke-linejoin="round"/>
<path id="Vector_52" d="M534.694 435.863C540.239 435.863 544.735 431.367 544.735 425.822C544.735 420.276 540.239 415.781 534.694 415.781C529.149 415.781 524.653 420.276 524.653 425.822C524.653 431.367 529.149 435.863 534.694 435.863Z" fill="#404366"/>
<path id="Vector_53" d="M547.921 469.064C553.467 469.064 557.962 464.568 557.962 459.023C557.962 453.478 553.467 448.982 547.921 448.982C542.376 448.982 537.88 453.478 537.88 459.023C537.88 464.568 542.376 469.064 547.921 469.064Z" fill="#404366"/>
<path id="Vector_54" d="M571.885 502.48C577.43 502.48 581.925 497.984 581.925 492.439C581.925 486.893 577.43 482.398 571.885 482.398C566.339 482.398 561.844 486.893 561.844 492.439C561.844 497.984 566.339 502.48 571.885 502.48Z" fill="#404366"/>
<path id="Vector_55" d="M602.569 536.967C608.114 536.967 612.61 532.471 612.61 526.926C612.61 521.381 608.114 516.885 602.569 516.885C597.024 516.885 592.528 521.381 592.528 526.926C592.528 532.471 597.024 536.967 602.569 536.967Z" fill="#404366"/>
<path id="Vector_56" d="M611.031 571.989C616.576 571.989 621.071 567.494 621.071 561.948C621.071 556.403 616.576 551.908 611.031 551.908C605.485 551.908 600.99 556.403 600.99 561.948C600.99 567.494 605.485 571.989 611.031 571.989Z" fill="#404366"/>
<path id="Vector_57" d="M654.541 605.914C660.086 605.914 664.582 601.418 664.582 595.873C664.582 590.327 660.086 585.832 654.541 585.832C648.995 585.832 644.5 590.327 644.5 595.873C644.5 601.418 648.995 605.914 654.541 605.914Z" fill="#404366"/>
</g>
</g>
</g>
<defs>
<clipPath id="clip0">
<rect width="105.714" height="80" fill="white" transform="translate(772 599)"/>
</clipPath>
</defs>
</svg>
