<svg width="128" height="41" viewBox="0 0 128 41" fill="none" xmlns="http://www.w3.org/2000/svg">
<path d="M20.3098 9.62988L17.2698 10.0798L11.7197 19.9199L17.2698 29.7399L20.3098 30.1998L14.3898 19.9199L20.3098 9.62988Z" fill="#00B4CC"/>
<path d="M28.0898 9.62988L31.1299 10.0798L36.6799 19.9199L31.1299 29.7399L28.0898 30.1998L33.9899 19.9199L28.0898 9.62988Z" fill="#00B4CC"/>
<path d="M20.3102 9.63013L24.1901 9.18018V19.9202H14.3901L20.3102 9.63013Z" fill="#F2FBFC"/>
<path d="M20.3102 30.1998L24.1901 30.6299V19.9199H14.3901L20.3102 30.1998Z" fill="#D9FAFC"/>
<path d="M28.09 30.1998L24.1899 30.6299V19.9199H33.99L28.09 30.1998Z" fill="#B4F7FC"/>
<path d="M28.09 9.63013L24.1899 9.18018V19.9202H33.99L28.09 9.63013Z" fill="#E6FAFC"/>
<path d="M44.6001 16.3701H43.4801V18.3701H42.1001V11.5701H44.6001C44.9243 11.519 45.2559 11.5444 45.5686 11.644C45.8813 11.7436 46.1664 11.9147 46.4014 12.1438C46.6363 12.3729 46.8146 12.6538 46.922 12.9639C47.0294 13.274 47.063 13.6048 47.0201 13.9302C47.0442 14.2604 47.0026 14.5919 46.8979 14.906C46.7933 15.2201 46.6275 15.5104 46.4102 15.7601C46.166 15.9798 45.8794 16.1472 45.5681 16.2521C45.2569 16.357 44.9274 16.3971 44.6001 16.3701ZM43.4801 15.1901H44.5901C45.2801 15.1901 45.5901 14.7702 45.5901 13.9102C45.6221 13.5895 45.5329 13.2684 45.3401 13.0101C45.2376 12.9104 45.115 12.8338 44.9805 12.7855C44.8459 12.7372 44.7027 12.7183 44.5602 12.7301H43.4501L43.4801 15.1901Z" fill="black"/>
<path d="M51.6601 14.91V17C51.665 17.1174 51.6921 17.2327 51.74 17.34C51.8044 17.4145 51.8928 17.4641 51.99 17.48V18.48C51.7182 18.488 51.4465 18.4646 51.1801 18.41C50.9573 18.3574 50.7468 18.2623 50.5601 18.13C50.1045 18.3609 49.6007 18.4808 49.09 18.48C48.09 18.48 47.5401 17.94 47.5401 16.85C47.5189 16.6397 47.5468 16.4274 47.6214 16.2296C47.696 16.0318 47.8152 15.8539 47.97 15.71C48.3628 15.4535 48.8209 15.3148 49.2901 15.3101L50.36 15.23V14.92C50.3697 14.844 50.3622 14.7667 50.3379 14.694C50.3137 14.6213 50.2734 14.555 50.22 14.5C50.0892 14.4075 49.9296 14.3649 49.77 14.38L47.89 14.46V13.53C48.5418 13.3492 49.2138 13.2517 49.89 13.24C50.387 13.1952 50.8828 13.3379 51.2801 13.64C51.4243 13.816 51.5321 14.0189 51.5973 14.2369C51.6625 14.4549 51.6839 14.6837 51.6601 14.91ZM49.4101 16.23C49.3317 16.2281 49.2537 16.243 49.1815 16.2737C49.1094 16.3044 49.0446 16.3501 48.9916 16.4078C48.9386 16.4656 48.8985 16.5341 48.874 16.6086C48.8496 16.6832 48.8414 16.762 48.85 16.84C48.85 17.2 49.02 17.38 49.34 17.38C49.6207 17.3766 49.8999 17.3362 50.1701 17.26H50.32V16.1899L49.4101 16.23Z" fill="black"/>
<path d="M52.9399 18.35V13.35H54.27V13.88C54.7658 13.5804 55.3058 13.361 55.87 13.23V14.59C55.33 14.7 54.87 14.8101 54.48 14.9301L54.28 15.01V18.35H52.9399Z" fill="black"/>
<path d="M59.4301 14.49H58.2V16.55C58.1921 16.6899 58.1921 16.8301 58.2 16.97C58.2073 17.0518 58.247 17.1274 58.3101 17.1801C58.3911 17.247 58.4952 17.2793 58.6 17.27H59.36L59.42 18.33C59.0926 18.4136 58.7576 18.4639 58.42 18.48C58.1982 18.5079 57.973 18.4865 57.7604 18.4174C57.5478 18.3482 57.3529 18.233 57.1899 18.08C56.9233 17.6277 56.8078 17.1023 56.86 16.58V14.5H56.27V13.36H56.86V12H58.2V13.38H59.4301V14.49Z" fill="black"/>
<path d="M60.2998 12.7201V11.3501H61.6398V12.7201H60.2998ZM60.2998 18.3501V13.3501H61.6398V18.3501H60.2998Z" fill="black"/>
<path d="M64.7502 13.2298C65.1973 13.2445 65.6423 13.2981 66.0801 13.3898L66.3502 13.4497V14.5098C65.8302 14.5098 65.4402 14.4298 65.1802 14.4298C65.0157 14.4072 64.8482 14.4224 64.6905 14.4744C64.5328 14.5264 64.389 14.6138 64.2702 14.7298C64.0881 15.0698 64.0082 15.4553 64.0402 15.8398C64.0043 16.2308 64.0842 16.6238 64.2702 16.9698C64.391 17.086 64.5364 17.1734 64.6957 17.2254C64.8551 17.2773 65.0241 17.2925 65.1901 17.2698L66.3502 17.1897V18.2598C65.8143 18.3788 65.2687 18.4491 64.7201 18.4698C64.4249 18.5 64.1268 18.4595 63.8503 18.3517C63.5738 18.2439 63.327 18.0719 63.1302 17.8498C62.7551 17.2535 62.5832 16.5519 62.6402 15.8498C62.5794 15.146 62.7554 14.4421 63.1402 13.8498C63.3453 13.6328 63.5963 13.4645 63.8749 13.3572C64.1535 13.2499 64.4526 13.2064 64.7502 13.2298Z" fill="black"/>
<path d="M67.3398 12.7201V11.3501H68.6799V12.7201H67.3398ZM67.3398 18.3501V13.3501H68.6799V18.3501H67.3398Z" fill="black"/>
<path d="M69.9199 20.45V13.35H71.2499V13.62C71.5893 13.3928 71.9824 13.2583 72.3899 13.23C72.6686 13.2083 72.9485 13.2522 73.2073 13.3581C73.466 13.464 73.6964 13.629 73.8799 13.84C74.2554 14.4543 74.4236 15.173 74.3599 15.8901C74.4323 16.599 74.2438 17.31 73.8298 17.8901C73.5945 18.0989 73.3182 18.2566 73.0187 18.353C72.7191 18.4494 72.4028 18.4824 72.0898 18.45C71.852 18.4482 71.6147 18.4282 71.3799 18.3901H71.2599V20.45H69.9199ZM72.1299 14.45C71.8716 14.4521 71.6165 14.5065 71.3799 14.61H71.2599V17.24C71.503 17.2561 71.7468 17.2561 71.9899 17.24C72.1413 17.2585 72.295 17.2369 72.4354 17.1772C72.5758 17.1175 72.6981 17.0219 72.7899 16.9001C72.9591 16.5381 73.0314 16.1384 72.9999 15.74C72.9999 14.8667 72.7099 14.4301 72.1299 14.4301V14.45Z" fill="black"/>
<path d="M79.1898 14.91V17C79.1898 17.118 79.2172 17.2344 79.2699 17.34C79.3343 17.4145 79.4228 17.4641 79.5199 17.48V18.48C79.2481 18.488 78.9763 18.4646 78.7099 18.41C78.4865 18.3592 78.2757 18.2639 78.0899 18.13C77.6343 18.3609 77.1306 18.4808 76.6199 18.48C75.6199 18.48 75.0698 17.94 75.0698 16.85C75.0487 16.6397 75.0765 16.4274 75.1511 16.2296C75.2257 16.0318 75.3451 15.8539 75.4999 15.71C75.8928 15.4535 76.3507 15.3148 76.8198 15.3101L77.8899 15.23V14.92C77.8996 14.844 77.8921 14.7667 77.8678 14.694C77.8436 14.6213 77.8033 14.555 77.7499 14.5C77.6191 14.4075 77.4595 14.3649 77.3 14.38L75.4199 14.46V13.53C76.0717 13.3492 76.7437 13.2517 77.4199 13.24C77.917 13.1952 78.4128 13.3379 78.81 13.64C78.9542 13.816 79.062 14.0189 79.1272 14.2369C79.1925 14.4549 79.2137 14.6837 79.1898 14.91ZM76.9398 16.23C76.8614 16.2281 76.7836 16.243 76.7114 16.2737C76.6393 16.3044 76.5744 16.3501 76.5214 16.4078C76.4684 16.4656 76.4284 16.5341 76.404 16.6086C76.3795 16.6832 76.3713 16.762 76.3799 16.84C76.3799 17.2 76.5499 17.38 76.8699 17.38C77.1506 17.3759 77.4295 17.3356 77.6999 17.26H77.8499V16.1899L76.9398 16.23Z" fill="black"/>
<path d="M83.2399 14.49H81.9999V16.55C81.992 16.6899 81.992 16.8301 81.9999 16.97C82.0073 17.0518 82.0468 17.1274 82.1099 17.1801C82.1909 17.247 82.2952 17.2793 82.3999 17.27H83.1599L83.2198 18.33C82.8924 18.4136 82.5574 18.4639 82.2198 18.48C81.998 18.5079 81.7728 18.4865 81.5602 18.4174C81.3476 18.3482 81.1529 18.233 80.9899 18.08C80.7233 17.6277 80.6077 17.1023 80.6599 16.58V14.5H80.0698V13.36H80.6599V12H81.9999V13.38H83.2299L83.2399 14.49Z" fill="black"/>
<path d="M84.1099 12.7201V11.3501H85.4498V12.7201H84.1099ZM84.1099 18.3501V13.3501H85.4498V18.3501H84.1099Z" fill="black"/>
<path d="M86.9999 13.9198C87.483 13.4771 88.1146 13.2314 88.7699 13.2314C89.4252 13.2314 90.0567 13.4771 90.5399 13.9198C90.9301 14.4808 91.117 15.158 91.0698 15.8397C91.0698 17.5997 90.3099 18.4697 88.7699 18.4697C87.2299 18.4697 86.4698 17.5997 86.4698 15.8397C86.4312 15.1589 86.6175 14.4844 86.9999 13.9198ZM87.9999 16.9198C88.0726 17.0456 88.1803 17.1475 88.3099 17.2131C88.4395 17.2788 88.5854 17.3055 88.7298 17.2898C88.8756 17.3049 89.0227 17.2782 89.1538 17.2126C89.2849 17.1471 89.3945 17.0455 89.4698 16.9198C89.7369 16.1936 89.7369 15.396 89.4698 14.6698C89.3902 14.5494 89.2792 14.4532 89.1488 14.3915C89.0183 14.3298 88.8734 14.3049 88.7298 14.3197C88.5877 14.3045 88.4441 14.3293 88.3152 14.3911C88.1862 14.4529 88.077 14.5494 87.9999 14.6698C87.72 15.3937 87.72 16.1959 87.9999 16.9198Z" fill="black"/>
<path d="M93.35 18.3499H92V13.3499H93.33V13.6299C93.7054 13.3915 94.1359 13.2537 94.58 13.2299C94.8415 13.1994 95.1064 13.2378 95.3485 13.3413C95.5906 13.4448 95.8013 13.6097 95.96 13.8198C96.2543 14.3791 96.3859 15.0097 96.34 15.6399V18.3499H95V15.68C95.0182 15.3595 94.967 15.0388 94.85 14.7399C94.7916 14.6349 94.7035 14.5494 94.5968 14.4943C94.4901 14.4391 94.3694 14.4168 94.25 14.43C93.9807 14.4318 93.7135 14.479 93.46 14.5698H93.34L93.35 18.3499Z" fill="black"/>
<path d="M101.32 14.49V18.35H100V14.49H99.46V13.35H100V13.13C99.9536 12.6124 100.065 12.0929 100.32 11.64C100.467 11.4906 100.646 11.3762 100.843 11.3053C101.041 11.2343 101.251 11.2086 101.46 11.23C101.773 11.2398 102.084 11.2766 102.39 11.3399H102.6V12.43H101.86C101.785 12.422 101.71 12.4324 101.64 12.4603C101.57 12.4882 101.509 12.5327 101.46 12.5899C101.383 12.7627 101.349 12.9513 101.36 13.14V13.35H102.57V14.49H101.32Z" fill="black"/>
<path d="M103.54 13.9202C103.76 13.6749 104.035 13.4845 104.343 13.3647C104.65 13.2449 104.981 13.1988 105.31 13.2302C105.638 13.1972 105.97 13.2426 106.278 13.3625C106.585 13.4824 106.86 13.6736 107.08 13.9202C107.47 14.4812 107.657 15.1585 107.61 15.8402C107.61 17.6002 106.85 18.4702 105.31 18.4702C103.77 18.4702 103.01 17.6002 103.01 15.8402C102.971 15.1594 103.158 14.4848 103.54 13.9202ZM104.54 16.9202C104.613 17.046 104.72 17.1479 104.85 17.2136C104.98 17.2793 105.125 17.3059 105.27 17.2902C105.416 17.3054 105.563 17.2786 105.694 17.2131C105.825 17.1475 105.935 17.0459 106.01 16.9202C106.277 16.194 106.277 15.3965 106.01 14.6702C105.93 14.5499 105.819 14.4536 105.689 14.3919C105.558 14.3302 105.413 14.3053 105.27 14.3201C105.128 14.305 104.984 14.3297 104.855 14.3916C104.726 14.4534 104.617 14.5499 104.54 14.6702C104.26 15.3941 104.26 16.1963 104.54 16.9202Z" fill="black"/>
<path d="M108.59 18.35V13.35H109.92V13.88C110.416 13.5804 110.956 13.361 111.52 13.23V14.59C110.98 14.7 110.52 14.8101 110.13 14.9301L109.93 15.01V18.35H108.59Z" fill="black"/>
<path d="M43.4801 26.7502V29.0002H42.1001V22.2002H44.7401C46.3401 22.2002 47.1401 22.9502 47.1401 24.4402C47.1741 24.8333 47.0986 25.2283 46.9221 25.5813C46.7456 25.9343 46.475 26.2314 46.1401 26.4402L47.1401 29.0403H45.6301L44.8401 26.7603L43.4801 26.7502ZM45.4801 25.2703C45.6495 25.0428 45.7343 24.7634 45.7201 24.4802C45.7344 24.1985 45.6455 23.9211 45.4701 23.7002C45.3731 23.6038 45.2574 23.5284 45.1301 23.4785C45.0028 23.4286 44.8667 23.4055 44.7301 23.4103H43.4701V25.5702H44.7501C44.8885 25.5829 45.0279 25.5623 45.1566 25.5101C45.2854 25.4579 45.3997 25.3757 45.4901 25.2703H45.4801Z" fill="black"/>
<path d="M48.3698 24.5998C48.5904 24.3544 48.8654 24.1642 49.1728 24.0444C49.4802 23.9246 49.8114 23.8785 50.1399 23.9099C50.4684 23.8769 50.8001 23.9221 51.1078 24.0421C51.4154 24.162 51.6903 24.3532 51.9099 24.5998C52.3001 25.1608 52.4869 25.8382 52.4398 26.5199C52.4398 28.2799 51.6799 29.1499 50.1399 29.1499C48.5999 29.1499 47.8398 28.2799 47.8398 26.5199C47.7997 25.8389 47.9861 25.1638 48.3698 24.5998ZM49.3698 27.6499C49.4568 27.762 49.5683 27.8527 49.6957 27.9151C49.823 27.9776 49.963 28.0101 50.1048 28.0101C50.2467 28.0101 50.3867 27.9776 50.5141 27.9151C50.6415 27.8527 50.7529 27.762 50.8398 27.6499C51.1068 26.9236 51.1068 26.1261 50.8398 25.3999C50.7507 25.2911 50.6386 25.2034 50.5114 25.1432C50.3843 25.083 50.2455 25.0517 50.1048 25.0517C49.9642 25.0517 49.8253 25.083 49.6982 25.1432C49.5711 25.2034 49.459 25.2911 49.3698 25.3999C49.09 26.1238 49.09 26.926 49.3698 27.6499Z" fill="black"/>
<path d="M54.7599 28.9999H53.4199V23.9999H54.7499V24.2799C55.1044 24.0518 55.5097 23.9144 55.9299 23.8799C56.1596 23.8662 56.3895 23.901 56.6049 23.982C56.8202 24.0629 57.0162 24.1883 57.1799 24.3499C57.6963 24.0661 58.2712 23.9053 58.8599 23.8799C59.1203 23.8503 59.384 23.8881 59.6256 23.9897C59.8673 24.0912 60.0788 24.2531 60.2399 24.4599C60.5386 25.0211 60.6705 25.6562 60.6199 26.29V28.9999H59.2799V26.3299C59.3004 26.0102 59.2527 25.6898 59.1399 25.3899C59.0918 25.2853 59.0115 25.1988 58.9108 25.143C58.81 25.0872 58.694 25.0651 58.5798 25.0799C58.3147 25.091 58.0524 25.1381 57.7999 25.2199H57.6499C57.6499 25.7199 57.6499 26.0999 57.6499 26.3599V28.9999H56.3099V26.43C56.3268 26.0915 56.2828 25.7528 56.1799 25.43C56.0999 25.22 55.9099 25.1199 55.6099 25.1199C55.3471 25.1226 55.0867 25.17 54.8398 25.2599H54.7198L54.7599 28.9999Z" fill="black"/>
<path d="M65.6401 25.5901V27.6702C65.6466 27.7873 65.6736 27.9024 65.72 28.0101C65.7829 28.0847 65.8728 28.1315 65.97 28.1401V29.1401C65.6982 29.1482 65.4265 29.1246 65.1601 29.0701C64.9373 29.0175 64.7268 28.9225 64.5401 28.7902C64.0845 29.0211 63.5807 29.141 63.07 29.1401C62.07 29.1401 61.5201 28.6001 61.5201 27.5001C61.4998 27.2914 61.528 27.0808 61.6026 26.8848C61.6772 26.6887 61.796 26.5126 61.95 26.3701C62.3406 26.1089 62.8001 25.9696 63.2701 25.9701L64.34 25.8901V25.5801C64.3505 25.504 64.3433 25.4266 64.319 25.3538C64.2947 25.2809 64.254 25.2147 64.2 25.1602C64.0692 25.0676 63.9096 25.0251 63.75 25.0402L61.87 25.1201V24.1901C62.5218 24.0092 63.1938 23.9119 63.87 23.9001C64.3671 23.8554 64.8629 23.9981 65.2601 24.3002C65.4068 24.4786 65.5161 24.6849 65.5813 24.9065C65.6466 25.1281 65.6666 25.3606 65.6401 25.5901ZM63.3901 26.9102C63.3126 26.9084 63.2356 26.923 63.1642 26.9531C63.0928 26.9832 63.0285 27.0281 62.9756 27.0847C62.9228 27.1414 62.8824 27.2086 62.8573 27.2819C62.8323 27.3552 62.8229 27.433 62.83 27.5101C62.83 27.8801 63 28.0602 63.32 28.0602C63.6007 28.0568 63.8799 28.0163 64.1501 27.9401H64.3001V26.8701L63.3901 26.9102Z" fill="black"/>
<path d="M68.2599 29.0003H66.9199V24.0003H68.2499V24.2803C68.6253 24.0419 69.0558 23.9041 69.4999 23.8803C69.7614 23.8498 70.0262 23.8882 70.2683 23.9917C70.5104 24.0952 70.7213 24.2601 70.8799 24.4702C71.1742 25.0295 71.3058 25.66 71.2599 26.2903V29.0003H69.9199V26.3302C69.9382 26.0097 69.887 25.6892 69.7699 25.3903C69.7136 25.2834 69.626 25.1963 69.5187 25.1409C69.4114 25.0855 69.2896 25.0643 69.1699 25.0802C68.9006 25.082 68.6334 25.1294 68.3799 25.2202H68.2599V29.0003Z" fill="black"/>
<path d="M72.4502 23.39V22H73.7903V23.36L72.4502 23.39ZM72.4502 29.03V24.03H73.7903V29.03H72.4502Z" fill="black"/>
<path d="M78.8598 25.5901V27.6702C78.8663 27.7873 78.8933 27.9024 78.9397 28.0101C79.0027 28.0847 79.0925 28.1315 79.1897 28.1401V29.1401C78.9179 29.1482 78.6462 29.1246 78.3798 29.0701C78.1571 29.0175 77.9466 28.9225 77.7598 28.7902C77.3042 29.0211 76.8006 29.141 76.2898 29.1401C75.2898 29.1401 74.7398 28.6001 74.7398 27.5001C74.7195 27.2914 74.7477 27.0808 74.8223 26.8848C74.8969 26.6887 75.0159 26.5126 75.1698 26.3701C75.5605 26.1089 76.0199 25.9696 76.4898 25.9701L77.5599 25.8901V25.5801C77.5703 25.504 77.5631 25.4266 77.5389 25.3538C77.5146 25.2809 77.4739 25.2147 77.4198 25.1602C77.289 25.0676 77.1293 25.0251 76.9698 25.0402L75.0898 25.1201V24.1901C75.7415 24.0092 76.4135 23.9119 77.0898 23.9001C77.5868 23.8554 78.0826 23.9981 78.4798 24.3002C78.6265 24.4786 78.7358 24.6849 78.8011 24.9065C78.8664 25.1281 78.8863 25.3606 78.8598 25.5901ZM76.6098 26.9102C76.5323 26.9084 76.4554 26.923 76.384 26.9531C76.3125 26.9832 76.2484 27.0281 76.1955 27.0847C76.1426 27.1414 76.1023 27.2086 76.0772 27.2819C76.0521 27.3552 76.0428 27.433 76.0499 27.5101C76.0499 27.8801 76.2198 28.0602 76.5398 28.0602C76.8206 28.0568 77.0996 28.0163 77.3698 27.9401H77.5198V26.8701L76.6098 26.9102Z" fill="black"/>
<path d="M107.65 1.64014H20.5201C9.95493 1.64014 1.39014 10.2049 1.39014 20.7701V20.7802C1.39014 31.3454 9.95493 39.9102 20.5201 39.9102H107.65C118.215 39.9102 126.78 31.3454 126.78 20.7802V20.7701C126.78 10.2049 118.215 1.64014 107.65 1.64014Z" stroke="#00B4CC" stroke-width="2.17" stroke-linecap="round" stroke-linejoin="round"/>
</svg>
