<svg width="37" height="31" viewBox="0 0 37 31" fill="none" xmlns="http://www.w3.org/2000/svg">
<path d="M12.5643 1.08496L8.1901 1.71182L0.204224 15.4192L8.1901 29.0987L12.5643 29.7395L4.04608 15.4192L12.5643 1.08496Z" fill="#00B4CC"/>
<path d="M23.7592 1.08496L28.1334 1.71182L36.1193 15.4192L28.1334 29.0987L23.7592 29.7395L32.263 15.4192L23.7592 1.08496Z" fill="#00B4CC"/>
<path d="M12.5644 1.08487L18.1617 0.458008V15.4191H4.04614L12.5644 1.08487Z" fill="#F2FBFC"/>
<path d="M12.5644 29.7393L18.1617 30.3383V15.4189H4.04614L12.5644 29.7393Z" fill="#D9FAFC"/>
<path d="M23.7592 29.7393L18.1619 30.3383V15.4189H32.2631L23.7592 29.7393Z" fill="#B4F7FC"/>
<path d="M23.7592 1.08487L18.1619 0.458008V15.4191H32.2631L23.7592 1.08487Z" fill="#E6FAFC"/>
</svg>
