<svg width="26" height="22" viewBox="0 0 26 22" fill="none" xmlns="http://www.w3.org/2000/svg">
<path d="M9.30981 0.629883L6.26978 1.07983L0.719727 10.9199L6.26978 20.7399L9.30981 21.1998L3.38977 10.9199L9.30981 0.629883Z" fill="#00B4CC"/>
<path d="M17.0898 0.629883L20.1299 1.07983L25.6799 10.9199L20.1299 20.7399L17.0898 21.1998L22.9899 10.9199L17.0898 0.629883Z" fill="#00B4CC"/>
<path d="M9.31018 0.630127L13.1901 0.180176V10.9202H3.39014L9.31018 0.630127Z" fill="#F2FBFC"/>
<path d="M9.31018 21.1998L13.1901 21.6299V10.9199H3.39014L9.31018 21.1998Z" fill="#D9FAFC"/>
<path d="M17.09 21.1998L13.1899 21.6299V10.9199H22.99L17.09 21.1998Z" fill="#B4F7FC"/>
<path d="M17.09 0.630127L13.1899 0.180176V10.9202H22.99L17.09 0.630127Z" fill="#E6FAFC"/>
</svg>
