<svg width="39" height="28" viewBox="0 0 39 28" fill="none" xmlns="http://www.w3.org/2000/svg">
<path d="M34.2217 23.049C34.2217 23.1117 34.1779 23.1743 34.1716 23.2432C33.7582 23.0177 34.0777 24.1138 34.0965 24.2077C33.7645 24.0887 34.0965 24.9844 34.0965 25.141C34.0139 25.4671 33.9093 25.7873 33.7833 26.0993C33.7207 26.4312 33.7833 26.5315 33.42 26.544C32.9049 26.5639 32.3929 26.4563 31.9293 26.2308C31.7219 26.1707 31.5311 26.0635 31.3719 25.9176C31.2529 25.7548 31.3155 25.2913 31.1026 25.1535C30.8896 25.0157 30.7142 25.3101 30.5765 25.3414C30.1631 25.4291 30.3698 25.1285 30.1067 24.9844C29.9814 24.9218 29.7058 25.0282 29.5555 25.0345C29.4039 25.0564 29.2499 25.0564 29.0983 25.0345C29.0106 24.9969 29.0106 24.9594 28.9355 24.9092C28.8744 24.8689 28.8159 24.825 28.7601 24.7777C28.7037 24.7276 28.6599 24.7339 28.6035 24.6775C28.5471 24.6211 28.6035 24.546 28.6035 24.5397C28.4469 24.4144 28.2089 24.427 27.9772 24.3393C27.8769 24.3393 27.7893 24.2015 27.689 24.1764C27.5888 24.1514 27.5513 24.2265 27.4698 24.2328C27.2099 24.2727 26.9594 24.3597 26.7308 24.4896C26.3945 24.5959 26.0482 24.6673 25.6973 24.7026C25.1895 24.7427 24.6909 24.861 24.2192 25.0533C24.0062 25.1535 23.9811 25.3226 23.8371 25.4729C23.693 25.6233 23.4676 25.7172 23.3235 25.8863C23.0479 26.212 22.8788 26.5127 22.4779 26.6442C22.3271 26.7027 22.1806 26.7718 22.0395 26.8509C21.878 26.8947 21.712 26.9199 21.5447 26.926C21.2942 26.9761 21.2503 27.0638 20.9935 26.926C20.8408 26.8157 20.6687 26.735 20.4862 26.688C19.9832 26.5717 19.4679 26.517 18.9517 26.5252C18.4819 26.5252 18.0498 26.1494 17.6176 26.1932C17.4422 26.1932 17.3357 26.3749 17.1729 26.425C16.9193 26.4751 16.6598 26.4878 16.4025 26.4626C15.8879 26.3677 15.3828 26.2273 14.893 26.0429C14.6613 25.9677 14.5486 26.0429 14.3168 26.0429C14.0851 26.0429 13.9034 25.8362 13.6905 25.7861C13.2246 25.7519 12.7569 25.8181 12.3188 25.9803C11.7676 26.0742 11.1601 26.1744 11.3355 25.4542C11.4044 25.166 11.4419 25.166 11.6987 25.0784C11.9555 24.9907 12.1309 24.9406 11.9994 24.69C11.9305 24.546 11.6549 24.5585 11.5046 24.4833C11.2545 24.3532 11.0211 24.1934 10.8093 24.0073C10.5964 23.8257 10.7404 23.8257 10.6465 23.6065C10.5525 23.3873 10.5087 23.4812 10.3208 23.3935C10.155 23.3208 10.0245 23.1858 9.95752 23.0177C9.95752 22.9613 9.81972 22.6607 9.81972 22.6294C9.81972 22.3976 9.87609 22.4916 9.97631 22.3851C10.0765 22.2786 10.0703 22.3851 10.1016 22.335C10.1329 22.2849 10.1016 22.2285 10.1016 22.2035C10.2206 22.0907 10.1893 22.0281 10.396 22.0594C10.6026 22.0907 10.6026 22.2536 10.778 22.1596C10.9534 22.0657 10.9033 22.0093 10.8344 21.884C10.7091 21.6586 10.5337 21.74 10.3271 21.6648C10.1204 21.5897 9.86983 21.0385 9.56293 21.1512C9.48777 21.1512 9.4314 21.3016 9.3625 21.3454C9.2936 21.3892 9.20592 21.3454 9.16207 21.408C9.03303 21.5606 8.93132 21.7344 8.86143 21.9216C8.62969 22.335 8.47937 22.6169 8.18499 22.1346C8.12089 22.0433 8.06433 21.9469 8.01588 21.8465C7.90314 21.5709 7.87809 21.5834 7.61503 21.4707C7.35197 21.3579 7.4146 21.3579 7.2267 21.3767C7.0388 21.3955 6.782 21.5521 6.54399 21.3767C6.30599 21.2013 6.41873 21.0322 6.28093 20.9132C6.14314 20.7942 5.89261 20.9132 5.70471 20.8569C5.5168 20.8005 5.19737 20.5938 5.3978 20.4184C5.59823 20.243 6.50015 20.3621 5.90513 19.9675C5.77987 19.8923 5.3289 19.7921 5.36022 19.6543C5.39154 19.5165 5.51054 19.5917 5.57317 19.5165C5.63363 19.4418 5.6803 19.357 5.71097 19.266C5.74229 19.2033 5.71097 19.147 5.74229 19.0843C5.77787 19.0618 5.81565 19.0429 5.85503 19.028C5.9114 18.8651 5.95524 18.8338 5.75481 18.6647C5.55438 18.4956 5.06584 18.5018 4.79652 18.3014C4.69004 18.22 4.63994 18.0196 4.50841 17.9695C4.37688 17.9193 4.42698 18.0697 4.3894 18.0571L4.2704 18.007C3.90712 17.9381 3.60648 17.5122 3.36848 17.2554C3.36848 17.2554 3.06784 17.03 3.06157 17.0049C3.0052 16.8734 3.16805 16.8233 3.16179 16.6729C3.15552 16.5226 3.01147 16.4349 2.99894 16.2909C3.02125 16.1547 3.05477 16.0207 3.09915 15.89C3.11482 15.7506 3.11482 15.6098 3.09915 15.4704C3.0052 15.3075 2.98641 15.4704 2.92378 15.4704C2.86115 15.4704 2.87994 15.5894 2.70456 15.4704C2.52919 15.3514 2.59182 15.1823 2.51666 15.0382C2.34129 14.7188 2.08449 14.6561 1.8089 14.4745C1.66785 14.3996 1.53552 14.3092 1.41431 14.2052C1.29531 14.0799 1.28905 13.8795 1.20136 13.7354C1.11367 13.5914 0.838085 13.4035 1.13246 13.2469C1.25256 13.2249 1.37564 13.2249 1.49574 13.2469C1.57703 13.2533 1.65871 13.2533 1.74001 13.2469C1.78385 13.2469 1.79638 13.1404 1.83396 13.1342C2.1346 13.084 2.3914 13.5225 2.72335 13.2406C2.72335 13.2406 2.89246 12.9901 2.87994 13.0214C2.89383 12.914 2.92118 12.8088 2.96136 12.7082C3.10542 12.4702 3.45616 12.5892 3.64406 12.6143C3.83196 12.6393 3.91965 12.6644 4.00734 12.6644C4.09503 12.6644 4.06371 12.7396 4.17645 12.7082C4.28919 12.6769 4.32051 12.5266 4.37688 12.4765C4.43325 12.4264 4.48962 12.4765 4.55851 12.3826C4.62741 12.2886 4.58983 12.1508 4.61488 12.0381C4.7151 11.6811 4.84036 11.9253 5.01574 11.7312C5.19111 11.537 4.91552 11.3742 4.95937 11.1925C4.95937 11.1111 5.07837 11.0485 5.10969 10.9608C5.141 10.8731 5.10969 10.6852 5.17858 10.5975C5.24748 10.5098 5.34143 10.5975 5.43538 10.5537C5.52933 10.5098 5.54186 10.4159 5.61075 10.3532C5.67965 10.2906 5.93645 10.1653 5.94898 9.95864C5.94898 9.95864 5.82371 9.88348 5.81745 9.81458C5.84046 9.72728 5.87412 9.64314 5.91766 9.56405C6.01787 9.36988 6.18698 9.36362 6.26841 9.21956C6.34983 9.07551 6.23709 9.00035 6.26841 8.88761C6.29972 8.77487 6.61289 8.72476 6.57531 8.44291C6.57531 8.36775 6.44378 8.28632 6.44378 8.25501C6.44378 8.05458 6.75695 7.96063 6.86969 7.83536C7.02617 7.63787 7.13351 7.40602 7.18285 7.15892C7.21714 7.00393 7.26107 6.85122 7.31439 6.7017C7.43339 6.42611 7.58371 6.43237 7.75908 6.26326C8.07851 5.96262 7.6714 5.5054 8.11609 5.1797C8.25389 5.07323 8.42926 5.04817 8.53574 4.92917C8.58663 4.82574 8.63057 4.71902 8.66727 4.60974C8.78627 4.38426 8.8677 4.15878 9.16834 4.10867C9.46898 4.05857 9.29987 4.14625 9.51282 3.95209C9.60677 3.8644 9.51282 3.82056 9.69446 3.82056C9.87609 3.82056 9.94499 3.97088 10.089 3.97714C10.2331 3.98341 10.3834 3.87067 10.5212 3.76419C10.6455 3.69204 10.7611 3.60588 10.8657 3.50739C10.897 3.46981 10.8657 3.33828 10.9471 3.25059C11.0285 3.16291 11.11 3.18796 11.1663 3.13159C11.2401 3.04718 11.3071 2.95713 11.3668 2.86227C11.4169 2.79337 11.5234 2.54284 11.5547 2.53031C11.586 2.51778 11.7551 2.69942 11.9305 2.62426C12.1058 2.5491 12.0808 2.16704 12.275 2.03551C12.4691 1.90397 12.6758 2.08561 12.8136 2.18583C13.1017 2.40504 13.3147 2.81216 13.7281 2.71821C13.7719 2.71821 13.8157 2.58668 13.8784 2.56789C14.0663 2.49273 14.2792 2.60547 14.4671 2.63052C14.655 2.65558 14.8429 2.63052 15.0434 2.76832C15.1123 2.82469 15.1498 2.93116 15.2125 2.94995C15.2751 2.96874 15.4943 2.81216 15.6196 2.79963C16.0079 2.76205 16.2459 3.21301 16.6468 3.16917C16.8421 3.11151 17.031 3.03385 17.2105 2.93743C17.3808 2.86497 17.5704 2.85174 17.7491 2.89985C17.8483 2.90476 17.9451 2.93144 18.0328 2.97799C18.1205 3.02453 18.1968 3.0898 18.2565 3.16917C18.3692 3.35707 18.2565 3.43849 18.507 3.58255C18.7575 3.72661 18.8202 3.69529 18.9642 3.87693C19.1083 4.05857 19.0957 4.25899 19.4277 4.23394C20.0853 4.1901 20.1104 3.75793 20.4737 3.33828C20.837 2.91864 21.4883 3.08148 21.9017 3.03764C22.3151 2.9938 22.7911 2.83721 23.2483 2.76205C23.4488 2.76205 23.6742 2.76205 23.8747 2.70568C23.9649 2.70452 24.0535 2.68173 24.133 2.63922C24.2126 2.59672 24.2808 2.53574 24.3319 2.46141C24.5837 2.15619 24.7405 1.78381 24.7829 1.39038C24.787 1.37718 24.7954 1.36572 24.8067 1.35779C24.818 1.34986 24.8317 1.3459 24.8455 1.34654C25.104 1.32874 25.3589 1.27607 25.6034 1.18995C25.7787 1.15237 25.9917 1.02084 26.1608 1.00205C26.3299 0.983263 26.3925 1.10227 26.474 1.00205C26.5178 1.10853 26.5429 1.07095 26.6368 1.096C26.7277 1.11048 26.8149 1.14239 26.8936 1.18995C26.9876 1.24006 27.1629 1.31522 27.1692 1.50312C27.3132 1.27764 27.6264 1.67849 27.3947 1.71607C27.4824 1.88518 27.6327 1.71607 27.7141 1.87266C27.7141 1.87266 27.6703 2.03551 27.7141 2.09814C27.7579 2.16077 27.8957 2.26099 27.9584 2.37373C28.021 2.48647 27.8832 2.46141 27.9145 2.50526C27.9458 2.5491 27.996 2.50526 28.0711 2.56163C28.1463 2.618 28.2903 2.69316 28.1525 2.83095C28.3592 2.91864 28.1525 2.96248 28.1901 3.03764C28.2277 3.1128 28.3467 3.13785 28.3467 3.26938C28.3467 3.40091 28.3467 3.49486 28.5095 3.6076C28.4594 3.6076 28.4219 3.67024 28.3718 3.68903C28.4782 3.78924 28.8039 4.22141 28.5847 4.26526C28.6661 4.71622 29.1672 4.95422 29.2925 5.31124C29.3676 5.52419 29.3927 5.52419 29.5618 5.63067C29.7309 5.73714 29.7184 5.6933 29.7622 5.84362C29.7622 5.84362 29.7998 6.02526 29.7998 6.04405C29.8064 6.12313 29.8233 6.20102 29.8499 6.27579C29.9376 6.52006 30.0315 6.55138 30.2132 6.68917C30.3948 6.82696 30.8395 7.31551 30.6328 7.48462C30.6892 7.55978 30.8082 7.69131 30.8395 7.72262L30.9773 7.86668C31.1026 8.00447 31.3406 8.31764 31.541 8.21116C31.6036 8.40533 31.7728 8.53059 31.8291 8.73728C31.8855 8.94398 31.8291 8.98782 31.8792 9.13814C31.9799 9.52315 32.1249 9.89518 32.3114 10.2468C32.4429 10.5787 32.3114 10.7416 32.3114 11.0234C32.3114 11.3053 32.4241 11.5057 32.3114 11.7813C32.2556 12.0085 32.1866 12.2323 32.1047 12.4514C32.1047 12.5078 31.9857 12.5642 31.9544 12.6143C31.8604 12.7834 31.9544 12.6957 31.9544 12.9087C31.9282 13.1988 31.8758 13.486 31.7978 13.7668C31.7991 14.0412 31.8328 14.3144 31.898 14.581C31.906 14.6706 31.906 14.7607 31.898 14.8503C31.9238 15.0398 31.9743 15.2251 32.0483 15.4015C32.107 15.6389 32.126 15.8844 32.1047 16.128C32.017 16.2345 31.8103 16.1719 31.6913 16.3472C31.7735 16.3715 31.8498 16.4124 31.9155 16.4674C31.9812 16.5223 32.0349 16.5901 32.0734 16.6667C32.136 16.817 32.0734 16.911 32.1987 17.0487C32.3239 17.1865 32.468 17.1239 32.5682 17.2993C32.6684 17.4747 32.5682 17.6688 32.7185 17.8129C32.8688 17.9569 33.3762 18.126 33.6518 18.2388C33.9273 18.3515 34.3971 18.5081 34.5913 18.2889C34.3345 18.2388 34.4723 18.0822 34.5474 17.9882C34.6226 17.8943 34.5036 17.8692 34.6789 17.8505C34.7707 17.8831 34.8588 17.9251 34.942 17.9757C35.036 18.0196 35.036 18.126 35.1612 18.0759C35.2865 18.0258 35.1612 17.9193 35.2364 17.8692C35.4161 17.7575 35.6072 17.6651 35.8063 17.5937C36.0296 17.4443 36.2778 17.3361 36.5392 17.2742C36.6131 17.2526 36.6885 17.2358 36.7646 17.2241C37.0538 17.2301 37.3373 17.3053 37.5914 17.4433C37.7099 17.5013 37.8108 17.59 37.8835 17.7001C37.9562 17.8103 37.9981 17.9379 38.0048 18.0697C38.0048 18.2137 38.0048 18.483 37.8231 18.4392C37.8733 18.577 37.9421 18.7586 38.1238 18.7461C37.8733 18.934 37.9046 19.5854 37.8732 19.886C37.8419 20.1867 37.8732 20.5124 37.6039 20.6251C37.3346 20.7379 36.8147 20.7316 36.4953 20.813C35.9629 20.9445 35.4368 20.8569 35.0422 21.3078C34.6861 21.8455 34.4097 22.432 34.2217 23.049Z" stroke="#404366" stroke-width="0.75" stroke-linecap="round" stroke-linejoin="round"/>
<path d="M9.63842 19.8422C8.60324 17.4189 8.15447 14.7855 8.3286 12.1562C8.50273 9.52677 9.29485 6.97558 10.6406 4.70996" stroke="#404366" stroke-width="0.75" stroke-linecap="round" stroke-linejoin="round"/>
<path d="M21.8083 25.7547C19.5734 25.1707 17.5362 23.9978 15.9091 22.3582C14.282 20.7186 13.1247 18.6724 12.5578 16.4332C11.991 14.1939 12.0353 11.8435 12.6863 9.62726C13.3373 7.41099 14.5711 5.41 16.2589 3.83301" stroke="#404366" stroke-width="0.75" stroke-linecap="round" stroke-linejoin="round"/>
<path d="M32.7817 19.3468C31.7502 20.6539 30.4035 21.6774 28.868 22.3214C27.3326 22.9653 25.6586 23.2086 24.0034 23.0283C22.3481 22.848 20.7658 22.2501 19.405 21.2907C18.0441 20.3313 16.9494 19.0418 16.2234 17.5434C15.4975 16.0449 15.1642 14.3866 15.2548 12.724C15.3454 11.0614 15.857 9.44915 16.7415 8.03846C17.626 6.62778 18.8544 5.46497 20.3115 4.65916C21.7686 3.85336 23.4065 3.43098 25.0715 3.43168C25.8009 3.42965 26.528 3.51162 27.2387 3.67595" stroke="#404366" stroke-width="0.75" stroke-linecap="round" stroke-linejoin="round"/>
<path d="M30.9521 17.9198C30.048 19.0637 28.8306 19.9199 27.4485 20.3841C26.0663 20.8483 24.579 20.9005 23.1677 20.5342C21.7564 20.168 20.4821 19.3992 19.5001 18.3215C18.518 17.2438 17.8707 15.9037 17.6368 14.4645C17.403 13.0253 17.5928 11.5492 18.1832 10.2161C18.7735 8.88289 19.7389 7.75019 20.9616 6.95601C22.1844 6.16182 23.6117 5.74043 25.0698 5.74318C26.5278 5.74593 27.9535 6.1727 29.1733 6.9715" stroke="#404366" stroke-width="0.75" stroke-linecap="round" stroke-linejoin="round"/>
<path d="M25.0706 18.452C24.0424 18.452 23.0373 18.1467 22.1827 17.5747C21.3282 17.0028 20.6627 16.19 20.2706 15.2394C19.8786 14.2888 19.7776 13.2432 19.9805 12.2352C20.1834 11.2271 20.681 10.302 21.4103 9.57709C22.1396 8.85219 23.0677 8.36016 24.077 8.16337C25.0863 7.96657 26.1312 8.07387 27.0794 8.47167C28.0277 8.86947 28.8364 9.53986 29.4032 10.3978C29.9699 11.2558 30.2692 12.2628 30.263 13.291C30.253 14.6622 29.7018 15.9739 28.7293 16.9405C27.7568 17.9071 26.4418 18.4504 25.0706 18.452Z" stroke="#404366" stroke-width="0.75" stroke-linecap="round" stroke-linejoin="round"/>
<path d="M25.071 16.1345C24.5011 16.1345 23.944 15.9651 23.4706 15.6478C22.9972 15.3305 22.6287 14.8796 22.4121 14.3525C22.1954 13.8253 22.1404 13.2457 22.2539 12.6872C22.3674 12.1287 22.6443 11.6165 23.0495 11.2157C23.4547 10.8149 23.9699 10.5436 24.5296 10.4362C25.0893 10.3289 25.6683 10.3903 26.193 10.6127C26.7178 10.8351 27.1646 11.2084 27.4767 11.6853C27.7888 12.1622 27.9521 12.7211 27.9459 13.291C27.936 14.0475 27.629 14.7697 27.0911 15.3018C26.5532 15.8338 25.8276 16.1329 25.071 16.1345V16.1345Z" stroke="#404366" stroke-width="0.75" stroke-linecap="round" stroke-linejoin="round"/>
<path d="M25.0711 13.817C25.379 13.817 25.6285 13.5675 25.6285 13.2596C25.6285 12.9517 25.379 12.7021 25.0711 12.7021C24.7632 12.7021 24.5137 12.9517 24.5137 13.2596C24.5137 13.5675 24.7632 13.817 25.0711 13.817Z" fill="#404366"/>
</svg>
