<svg width="174" height="75" viewBox="0 0 174 75" fill="none" xmlns="http://www.w3.org/2000/svg">
<path d="M163.5 65.52C156.92 67.19 148.35 74.52 141.44 69.94C138.55 68.02 137.44 64.37 135.36 61.6C130.77 55.48 122.2 54.28 114.57 53.81C106.94 53.34 98.47 52.76 93.17 47.24C91.53 45.53 90.3101 43.44 88.5101 41.9C86.0301 39.76 84.4301 40.9 81.7501 40.52C79.5301 40.2 76.8901 38.52 74.8901 37.52C68.0501 34.1 67.49 30.21 63.67 23.92C58.48 15.36 45.4701 11.16 36.3101 9.15997C24.7101 6.61997 12.9701 4.16 1.31006 2" stroke="#7937C4" stroke-width="3.75" stroke-linejoin="round" stroke-dasharray="4.69 3.75"/>
<path d="M164.02 72.8499C168.146 72.8499 171.49 69.5055 171.49 65.3799C171.49 61.2543 168.146 57.9099 164.02 57.9099C159.895 57.9099 156.55 61.2543 156.55 65.3799C156.55 69.5055 159.895 72.8499 164.02 72.8499Z" fill="white" stroke="#7937C4" stroke-width="3.75" stroke-linecap="round" stroke-linejoin="round"/>
</svg>
