<svg width="124" height="101" viewBox="0 0 124 101" fill="none" xmlns="http://www.w3.org/2000/svg">
<path d="M114.07 9.59009C112.27 10.9701 110.52 12.4401 108.89 13.8601C104.61 17.6001 102.41 21.9501 99.0004 26.0601C95.8004 29.8901 90.3904 32.0601 86.4804 35.2401C82.5704 38.4201 80.0004 42.6501 76.0004 45.3701C66.6604 51.7901 54.5804 54.3101 44.3804 58.9901C35.6404 62.9901 30.0404 70.6201 22.2004 75.5201C13.5504 80.9401 0.980363 87.6701 2.15036 100.05" stroke="#7937C4" stroke-width="3.75" stroke-linejoin="round" stroke-dasharray="4.69 3.75"/>
<path d="M114.07 17.3499C118.196 17.3499 121.54 14.0055 121.54 9.87991C121.54 5.75435 118.196 2.40991 114.07 2.40991C109.945 2.40991 106.6 5.75435 106.6 9.87991C106.6 14.0055 109.945 17.3499 114.07 17.3499Z" fill="white" stroke="#7937C4" stroke-width="3.75" stroke-linecap="round" stroke-linejoin="round"/>
</svg>
