<svg width="129" height="174" viewBox="0 0 129 174" fill="none" xmlns="http://www.w3.org/2000/svg">
<path d="M117 14.76C115.76 16.62 117.13 20.84 116.78 23.44C115.88 30.17 109.01 35.28 104.61 39.75C101.61 42.83 98.8103 45.69 96.3003 48.81" stroke="#7937C4" stroke-width="3.75" stroke-linejoin="round" stroke-dasharray="4.69 3.75"/>
<path d="M117.5 21.9701C123.332 21.9701 128.06 17.2422 128.06 11.4101C128.06 5.57798 123.332 0.850098 117.5 0.850098C111.668 0.850098 106.94 5.57798 106.94 11.4101C106.94 17.2422 111.668 21.9701 117.5 21.9701Z" fill="#7937C4"/>
<path d="M96.2703 48.8101C94.0368 51.567 92.0869 54.542 90.4502 57.6901C87.9602 62.5101 88.8703 67.3601 87.1803 72.4101C86.0303 75.8301 81.0603 82.2301 81.4103 85.4601C81.9403 90.3101 86.7003 88.46 89.4103 89.67C93.1003 91.34 93.9202 95.3701 93.6202 99.1001C92.8502 108.8 84.6202 114.4 77.1102 119.15C67.2502 125.4 63.1103 129.1 56.8903 139.07C54.6203 142.67 53.0102 147.66 50.1302 150.98C45.4802 156.35 32.3802 160.55 25.4402 163.98C18.9102 167.17 11.3003 170.25 4.01025 170.89C2.81854 170.971 1.63492 171.145 0.470215 171.41" stroke="#7937C4" stroke-width="3.75" stroke-linejoin="round" stroke-dasharray="4.69 3.75"/>
<path d="M95.5901 56.2801C99.7157 56.2801 103.06 52.9357 103.06 48.8101C103.06 44.6845 99.7157 41.3401 95.5901 41.3401C91.4645 41.3401 88.1201 44.6845 88.1201 48.8101C88.1201 52.9357 91.4645 56.2801 95.5901 56.2801Z" fill="white" stroke="#7937C4" stroke-width="3.75" stroke-linecap="round" stroke-linejoin="round"/>
</svg>
