<svg width="75" height="185" viewBox="0 0 75 185" fill="none" xmlns="http://www.w3.org/2000/svg">
<path d="M59.8102 87.18C58.6467 85.6531 57.3518 84.231 55.9402 82.93C51.6502 78.93 46.3702 75.49 42.0702 71.64L41.8202 71.4101C40.8702 70.5501 39.9602 69.67 39.1302 68.76C38.5802 68.16 38.0702 67.55 37.5902 66.93C31.1202 58.49 31.3302 48.6701 26.9702 39.0301C26.7302 38.4901 26.4702 37.9501 26.1902 37.4101C23.1902 31.5101 20.6902 27.3401 16.2602 22.4901C12.7302 18.6401 9.69018 14.49 9.18018 9.05005" stroke="#7937C4" stroke-width="3.75" stroke-linejoin="round" stroke-dasharray="4.69 3.75"/>
<path d="M9.38992 17.1099C13.5155 17.1099 16.8599 13.7655 16.8599 9.63992C16.8599 5.51436 13.5155 2.16992 9.38992 2.16992C5.26436 2.16992 1.91992 5.51436 1.91992 9.63992C1.91992 13.7655 5.26436 17.1099 9.38992 17.1099Z" fill="white" stroke="#7937C4" stroke-width="3.75" stroke-linecap="round" stroke-linejoin="round"/>
<path d="M63.5201 101.55C63.5701 101.17 63.6001 100.78 63.6301 100.39C63.9958 95.5624 62.5442 90.7724 59.5601 86.96" stroke="#C8CEDB" stroke-width="3.75" stroke-linecap="round" stroke-linejoin="round"/>
<path d="M59.5 91C61.5711 91 63.25 89.3211 63.25 87.25C63.25 85.1789 61.5711 83.5 59.5 83.5C57.4289 83.5 55.75 85.1789 55.75 87.25C55.75 89.3211 57.4289 91 59.5 91Z" fill="#404366"/>
<path d="M60.3101 117.2C60.459 114.68 60.902 112.187 61.6301 109.77C62.4677 107.082 63.0995 104.334 63.5201 101.55" stroke="#C8CEDB" stroke-width="3.75" stroke-linecap="round" stroke-linejoin="round"/>
<path d="M63.3101 105.3C65.3811 105.3 67.0601 103.621 67.0601 101.55C67.0601 99.479 65.3811 97.8 63.3101 97.8C61.239 97.8 59.5601 99.479 59.5601 101.55C59.5601 103.621 61.239 105.3 63.3101 105.3Z" fill="#404366"/>
<path d="M65.3403 136.12C65.2403 135.89 65.1503 135.65 65.0503 135.42C62.8303 130.06 60.6603 124.98 60.3203 119.04C60.3203 118.41 60.3203 117.8 60.3203 117.2" stroke="#C8CEDB" stroke-width="3.75" stroke-linecap="round" stroke-linejoin="round"/>
<path d="M60.6201 121.99C62.6912 121.99 64.3701 120.311 64.3701 118.24C64.3701 116.169 62.6912 114.49 60.6201 114.49C58.549 114.49 56.8701 116.169 56.8701 118.24C56.8701 120.311 58.549 121.99 60.6201 121.99Z" fill="#404366"/>
<path d="M69.6703 158.36C69.2903 151.04 68.3803 143.55 65.5903 136.72C65.5003 136.52 65.4203 136.32 65.3403 136.12" stroke="#C8CEDB" stroke-width="3.75" stroke-linecap="round" stroke-linejoin="round"/>
<path d="M73 182.5C73.2478 180.001 73.0686 177.479 72.47 175.04C71.0593 170.146 70.1612 165.119 69.79 160.04C69.79 159.75 69.79 159.47 69.74 159.18C69.69 158.89 69.74 158.66 69.74 158.4" stroke="#C8CEDB" stroke-width="3.75" stroke-linecap="round" stroke-linejoin="round"/>
<path d="M69.9399 162.79C72.011 162.79 73.6899 161.111 73.6899 159.04C73.6899 156.969 72.011 155.29 69.9399 155.29C67.8689 155.29 66.1899 156.969 66.1899 159.04C66.1899 161.111 67.8689 162.79 69.9399 162.79Z" fill="#404366"/>
</svg>
