<svg width="208" height="55" viewBox="0 0 208 55" fill="none" xmlns="http://www.w3.org/2000/svg">
<path d="M198 9.55007C184.83 11.5501 172 22.5501 158.67 18.6601C152.26 16.7901 146.67 12.8601 140.37 10.6601C132.56 7.90008 120.79 8.66008 113.9 12.9401C108.64 16.2101 100.95 16.0501 95.0304 14.9401C89.6704 13.9401 85.4604 9.38007 80.5904 8.33007C76.5904 7.48007 70.4504 9.45006 67.3304 11.6401C61.9804 15.3901 56.7804 19.2901 51.4004 23.0201C47.1904 25.9401 43.8404 30.0201 39.3404 32.5701C34.8404 35.1201 29.9204 35.5701 25.3404 38.0001C19.1004 41.2901 13.6103 45.4001 7.60034 48.8801C5.69239 50.0147 3.85256 51.2602 2.09033 52.6101" stroke="#7937C4" stroke-width="3.75" stroke-linejoin="round" stroke-dasharray="4.69 3.75"/>
<path d="M198.02 16.8699C202.146 16.8699 205.49 13.5255 205.49 9.39993C205.49 5.27437 202.146 1.92993 198.02 1.92993C193.895 1.92993 190.55 5.27437 190.55 9.39993C190.55 13.5255 193.895 16.8699 198.02 16.8699Z" fill="white" stroke="#7937C4" stroke-width="3.75" stroke-linecap="round" stroke-linejoin="round"/>
</svg>
