<svg width="200" height="327" viewBox="0 0 200 327" fill="none" xmlns="http://www.w3.org/2000/svg">
<path d="M188 29.41C188.28 25.9 188.43 22.53 188.7 19.64C189 16.47 189.64 13.31 189.94 10.16C189.94 9.94003 189.94 9.72 189.99 9.5" stroke="#C8CEDB" stroke-width="3.75" stroke-linecap="round" stroke-linejoin="round"/>
<path d="M189.69 17.5001C193.816 17.5001 197.16 14.1557 197.16 10.0301C197.16 5.90452 193.816 2.56006 189.69 2.56006C185.565 2.56006 182.22 5.90452 182.22 10.0301C182.22 14.1557 185.565 17.5001 189.69 17.5001Z" fill="white" stroke="#7937C4" stroke-width="3.75" stroke-linecap="round" stroke-linejoin="round"/>
<path d="M183.6 48.1501C185.87 43.9901 186.95 38.8701 187.6 33.7701C187.77 32.3101 187.91 30.8502 188.02 29.4102" stroke="#C8CEDB" stroke-width="3.75" stroke-linecap="round" stroke-linejoin="round"/>
<path d="M187.83 32.8999C189.901 32.8999 191.58 31.221 191.58 29.1499C191.58 27.0788 189.901 25.3999 187.83 25.3999C185.759 25.3999 184.08 27.0788 184.08 29.1499C184.08 31.221 185.759 32.8999 187.83 32.8999Z" fill="#404366"/>
<path d="M169.5 66.96C171.15 61.23 174.61 57.9599 179.22 53.6299L180.03 52.8799C181.465 51.5195 182.671 49.9357 183.6 48.1899" stroke="#C8CEDB" stroke-width="3.75" stroke-linecap="round" stroke-linejoin="round"/>
<path d="M183.6 52.3501C185.671 52.3501 187.35 50.6712 187.35 48.6001C187.35 46.529 185.671 44.8501 183.6 44.8501C181.529 44.8501 179.85 46.529 179.85 48.6001C179.85 50.6712 181.529 52.3501 183.6 52.3501Z" fill="#404366"/>
<path d="M170.15 90.7399C169.062 85.9661 168.455 81.0949 168.34 76.1999C168.348 74.029 168.529 71.8622 168.88 69.7199C169.035 68.7758 169.242 67.841 169.5 66.9199" stroke="#C8CEDB" stroke-width="3.75" stroke-linecap="round" stroke-linejoin="round"/>
<path d="M169.82 71.2803C171.891 71.2803 173.57 69.6013 173.57 67.5303C173.57 65.4592 171.891 63.7803 169.82 63.7803C167.749 63.7803 166.07 65.4592 166.07 67.5303C166.07 69.6013 167.749 71.2803 169.82 71.2803Z" fill="#404366"/>
<path d="M171.9 111.44C172.184 108.565 172.217 105.671 172 102.79C171.797 100.129 171.443 97.4814 170.94 94.8602C170.67 93.4502 170.4 92.0802 170.15 90.7402" stroke="#C8CEDB" stroke-width="3.75" stroke-linecap="round" stroke-linejoin="round"/>
<path d="M170.17 94.4902C172.241 94.4902 173.92 92.8113 173.92 90.7402C173.92 88.6692 172.241 86.9902 170.17 86.9902C168.099 86.9902 166.42 88.6692 166.42 90.7402C166.42 92.8113 168.099 94.4902 170.17 94.4902Z" fill="#404366"/>
<path d="M167.51 129.35C168.23 126.82 169.08 124.35 169.82 121.76C170.826 118.39 171.522 114.936 171.9 111.44" stroke="#C8CEDB" stroke-width="3.75" stroke-linecap="round" stroke-linejoin="round"/>
<path d="M172 115.2C174.071 115.2 175.75 113.521 175.75 111.45C175.75 109.379 174.071 107.7 172 107.7C169.929 107.7 168.25 109.379 168.25 111.45C168.25 113.521 169.929 115.2 172 115.2Z" fill="#404366"/>
<path d="M166.12 148.32C165.97 144.32 165.43 140.45 165.95 136.43C166.292 134.034 166.814 131.668 167.51 129.35" stroke="#C8CEDB" stroke-width="3.75" stroke-linecap="round" stroke-linejoin="round"/>
<path d="M167.07 132.84C169.141 132.84 170.82 131.161 170.82 129.09C170.82 127.019 169.141 125.34 167.07 125.34C164.999 125.34 163.32 127.019 163.32 129.09C163.32 131.161 164.999 132.84 167.07 132.84Z" fill="#404366"/>
<path d="M160.4 166.96C162.457 164.383 164.017 161.447 165 158.3C165.595 156.349 165.961 154.335 166.09 152.3C166.161 150.967 166.161 149.632 166.09 148.3" stroke="#C8CEDB" stroke-width="3.75" stroke-linecap="round" stroke-linejoin="round"/>
<path d="M166.25 151.97C168.321 151.97 170 150.291 170 148.22C170 146.149 168.321 144.47 166.25 144.47C164.179 144.47 162.5 146.149 162.5 148.22C162.5 150.291 164.179 151.97 166.25 151.97Z" fill="#404366"/>
<path d="M89.6401 216.96C93.0401 213.38 97.1801 211.41 101.21 208.45C106.11 204.84 111.07 201.28 115.92 197.64C119.31 195.1 120.32 191.76 123.3 188.95C127.99 184.53 133.84 183.12 139.57 180.87C140.71 180.43 141.85 179.95 142.99 179.44C149.6 176.44 155.99 172.44 160.4 166.91" stroke="#C8CEDB" stroke-width="3.75" stroke-linecap="round" stroke-linejoin="round"/>
<path d="M160.4 171.11C162.471 171.11 164.15 169.431 164.15 167.36C164.15 165.289 162.471 163.61 160.4 163.61C158.329 163.61 156.65 165.289 156.65 167.36C156.65 169.431 158.329 171.11 160.4 171.11Z" fill="#404366"/>
<path d="M89.6399 216.96C89.129 217.493 88.6483 218.054 88.1999 218.64C85.0399 222.73 85.8799 228.54 87.1099 233.39C88.4399 238.65 92.7099 242.92 94.8199 247.81" stroke="#C8CEDB" stroke-width="3.75" stroke-linecap="round" stroke-linejoin="round"/>
<path d="M89.3203 220.71C91.3914 220.71 93.0703 219.031 93.0703 216.96C93.0703 214.889 91.3914 213.21 89.3203 213.21C87.2492 213.21 85.5703 214.889 85.5703 216.96C85.5703 219.031 87.2492 220.71 89.3203 220.71Z" fill="#404366"/>
<path d="M94.8203 247.81C95.3519 248.999 95.7219 250.253 95.9203 251.54C96.6203 256.54 89.6903 263.96 84.5403 264.38C83.7661 264.431 82.9889 264.354 82.2402 264.15" stroke="#C8CEDB" stroke-width="3.75" stroke-linecap="round" stroke-linejoin="round"/>
<path d="M94.7002 251.66C96.7713 251.66 98.4502 249.981 98.4502 247.91C98.4502 245.839 96.7713 244.16 94.7002 244.16C92.6291 244.16 90.9502 245.839 90.9502 247.91C90.9502 249.981 92.6291 251.66 94.7002 251.66Z" fill="#404366"/>
<path d="M82.2404 264.15C80.6945 263.646 79.118 263.242 77.5204 262.94C74.1904 262.6 70.9004 263.15 67.5804 263.18C63.6604 263.18 58.7504 262.95 55.1104 264.5" stroke="#C8CEDB" stroke-width="3.75" stroke-linecap="round" stroke-linejoin="round"/>
<path d="M82.46 267.88C84.531 267.88 86.21 266.201 86.21 264.13C86.21 262.059 84.531 260.38 82.46 260.38C80.3889 260.38 78.71 262.059 78.71 264.13C78.71 266.201 80.3889 267.88 82.46 267.88Z" fill="#404366"/>
<path d="M55.1102 264.5C54.6347 264.698 54.1765 264.936 53.7402 265.21C52.4702 266.01 52.1602 267.39 50.3302 267.96C47.8202 268.75 44.6702 268.09 42.0602 268.21C37.8202 268.41 32.6502 267.84 28.9702 270.46C26.9702 271.86 24.4302 273.35 21.9702 275.08" stroke="#C8CEDB" stroke-width="3.75" stroke-linecap="round" stroke-linejoin="round"/>
<path d="M55.25 268.74C57.3211 268.74 59 267.061 59 264.99C59 262.919 57.3211 261.24 55.25 261.24C53.1789 261.24 51.5 262.919 51.5 264.99C51.5 267.061 53.1789 268.74 55.25 268.74Z" fill="#404366"/>
<path d="M22.0003 275.08C18.5903 277.54 15.4903 280.46 14.8203 284.31C14.3803 286.81 15.6903 288.85 15.5203 291.54C15.3003 295.07 13.6103 298.7 12.0703 302.25" stroke="#C8CEDB" stroke-width="3.75" stroke-linecap="round" stroke-linejoin="round"/>
<path d="M22.1104 278.49C24.1814 278.49 25.8604 276.811 25.8604 274.74C25.8604 272.669 24.1814 270.99 22.1104 270.99C20.0393 270.99 18.3604 272.669 18.3604 274.74C18.3604 276.811 20.0393 278.49 22.1104 278.49Z" fill="#404366"/>
<path d="M12.0899 302.25C11.2592 304.06 10.5607 305.929 9.99991 307.84C8.29991 314.17 2.88992 317.38 1.91992 324.15" stroke="#7937C4" stroke-width="3.75" stroke-linecap="round" stroke-linejoin="round"/>
<path d="M12.0801 306C14.1511 306 15.8301 304.321 15.8301 302.25C15.8301 300.179 14.1511 298.5 12.0801 298.5C10.009 298.5 8.33008 300.179 8.33008 302.25C8.33008 304.321 10.009 306 12.0801 306Z" fill="white" stroke="#7937C4" stroke-width="2" stroke-linecap="round" stroke-linejoin="round"/>
</svg>
