<svg width="130" height="24" viewBox="0 0 130 24" fill="none" xmlns="http://www.w3.org/2000/svg">
<path d="M119.28 14.8801C104.03 12.0701 89.5701 6.04009 74.2801 3.88009C69.6001 3.22009 67.5501 1.95007 63.4901 3.29007C58.3101 4.98007 53.49 8.47007 48.36 10.5101C41.92 13.0901 35.9001 13.4301 29.0801 14.5101C20.1801 15.9301 11.2801 17.3901 2.31006 18.3801C1.89006 18.3801 1.46004 18.4801 1.04004 18.5501" stroke="#7937C4" stroke-width="3.75" stroke-linejoin="round" stroke-dasharray="4.69 3.75"/>
<path d="M119.67 21.71C123.796 21.71 127.14 18.3656 127.14 14.24C127.14 10.1145 123.796 6.77002 119.67 6.77002C115.545 6.77002 112.2 10.1145 112.2 14.24C112.2 18.3656 115.545 21.71 119.67 21.71Z" fill="white" stroke="#7937C4" stroke-width="3.75" stroke-linecap="round" stroke-linejoin="round"/>
</svg>
