<svg width="49" height="53" viewBox="0 0 49 53" fill="none" xmlns="http://www.w3.org/2000/svg">
<path d="M15.1398 6.85001C16.8905 6.85001 18.3098 5.43074 18.3098 3.67999C18.3098 1.92925 16.8905 0.51001 15.1398 0.51001C13.389 0.51001 11.9697 1.92925 11.9697 3.67999C11.9697 5.43074 13.389 6.85001 15.1398 6.85001Z" stroke="#404366" stroke-width="0.75" stroke-linecap="round" stroke-linejoin="round"/>
<path d="M11.9701 13.3599L9.87012 19.4199H15.1401" stroke="#404366" stroke-width="0.75" stroke-linecap="round" stroke-linejoin="round"/>
<path d="M18.3101 13.3599L20.4101 19.4199H15.1401" stroke="#404366" stroke-width="0.75" stroke-linecap="round" stroke-linejoin="round"/>
<path d="M14.5801 19.4199H12.6401V26.2999H14.5801V19.4199Z" stroke="#404366" stroke-width="0.75" stroke-linecap="round" stroke-linejoin="round"/>
<path d="M17.8399 19.4099H15.8999V26.2899H17.8399V19.4099Z" stroke="#404366" stroke-width="0.75" stroke-linecap="round" stroke-linejoin="round"/>
<path d="M5 5.65996C5.00125 5.47613 5.05318 5.29622 5.15002 5.13997C5.29439 4.93001 5.51341 4.78307 5.76245 4.72917C6.01149 4.67528 6.27173 4.71848 6.48999 4.84996L12.63 8.84996C12.84 8.99433 12.9869 9.21341 13.0408 9.46245C13.0947 9.71149 13.0515 9.97169 12.92 10.19C12.7741 10.3983 12.5544 10.5432 12.3054 10.5952C12.0565 10.6472 11.7971 10.6024 11.58 10.47L5.44 6.51994C5.29999 6.42543 5.18619 6.29701 5.10925 6.14662C5.03231 5.99624 4.99473 5.8288 5 5.65996Z" fill="white" stroke="#404366" stroke-width="0.75" stroke-linecap="round" stroke-linejoin="round"/>
<path d="M23.0001 3.00005C22.8384 2.97752 22.6737 2.9949 22.5203 3.05068C22.3669 3.10646 22.2295 3.19895 22.1201 3.32006L17.3301 8.83004C17.1687 9.02797 17.089 9.28018 17.1076 9.53493C17.1262 9.78968 17.2416 10.0277 17.4301 10.2001C17.6274 10.3586 17.8774 10.4364 18.1298 10.4178C18.3822 10.3993 18.6181 10.2857 18.7901 10.1001L23.5901 4.59005C23.7516 4.39212 23.8311 4.1399 23.8125 3.88515C23.7939 3.6304 23.6786 3.39244 23.4901 3.22005C23.3499 3.10341 23.1804 3.02733 23.0001 3.00005Z" fill="white" stroke="#404366" stroke-width="0.75" stroke-linecap="round" stroke-linejoin="round"/>
<path d="M22.8002 3.00007C22.9603 2.97923 23.123 2.99745 23.2745 3.05317C23.426 3.1089 23.5618 3.20048 23.6702 3.32008L28.4602 8.83006C28.5864 8.91629 28.6912 9.03033 28.7664 9.16337C28.8417 9.29641 28.8855 9.44492 28.8944 9.59751C28.9033 9.75011 28.8771 9.90273 28.8178 10.0436C28.7585 10.1845 28.6677 10.3099 28.5524 10.4103C28.4371 10.5106 28.3002 10.5831 28.1525 10.6223C28.0048 10.6615 27.85 10.6663 27.7001 10.6364C27.5502 10.6064 27.4092 10.5425 27.2879 10.4495C27.1665 10.3566 27.0681 10.237 27.0002 10.1001L22.2002 4.59007C22.0388 4.39214 21.9592 4.13992 21.9778 3.88517C21.9963 3.63042 22.1117 3.39246 22.3002 3.22007C22.4414 3.09886 22.6154 3.02229 22.8002 3.00007Z" fill="white" stroke="#404366" stroke-width="0.75" stroke-linecap="round" stroke-linejoin="round"/>
<path d="M30.5299 6.85001C32.2807 6.85001 33.6999 5.43074 33.6999 3.67999C33.6999 1.92925 32.2807 0.51001 30.5299 0.51001C28.7792 0.51001 27.3599 1.92925 27.3599 3.67999C27.3599 5.43074 28.7792 6.85001 30.5299 6.85001Z" stroke="#404366" stroke-width="0.75" stroke-linecap="round" stroke-linejoin="round"/>
<path d="M40.6598 5.65993C40.6574 5.82293 40.6151 5.98286 40.5367 6.12578C40.4582 6.2687 40.3461 6.39029 40.2099 6.47993L34.0699 10.4299C33.8528 10.5624 33.5934 10.6072 33.3445 10.5552C33.0955 10.5031 32.8757 10.3582 32.7298 10.1499C32.5984 9.93166 32.5552 9.67145 32.6091 9.42241C32.663 9.17337 32.8099 8.95429 33.0199 8.80992L39.1598 4.80992C39.3781 4.67844 39.6383 4.63524 39.8874 4.68913C40.1364 4.74303 40.3555 4.88997 40.4999 5.09993C40.6131 5.26403 40.6693 5.46077 40.6598 5.65993Z" fill="white" stroke="#404366" stroke-width="0.75" stroke-linecap="round" stroke-linejoin="round"/>
<path d="M33.6999 15.8101H27.3599V19.4201H33.6999V15.8101Z" stroke="#404366" stroke-width="0.75" stroke-linejoin="round"/>
<path d="M30.5303 19.4199V17.3799" stroke="#404366" stroke-width="0.75" stroke-linejoin="round"/>
<path d="M14.5699 26.29V28.94H10.5699C10.5677 28.5774 10.6851 28.2242 10.9038 27.935C11.1225 27.6458 11.4304 27.4367 11.7799 27.34C11.9255 27.295 12.0775 27.2747 12.2298 27.28V26.28L14.5699 26.29Z" stroke="#404366" stroke-width="0.75" stroke-linecap="round" stroke-linejoin="round"/>
<path d="M15.8301 26.29V28.94H19.8301C19.8333 28.5757 19.7152 28.2207 19.4943 27.9309C19.2734 27.6412 18.9622 27.4333 18.61 27.34C18.4679 27.2949 18.3191 27.2746 18.17 27.28V26.28L15.8301 26.29Z" stroke="#404366" stroke-width="0.75" stroke-linecap="round" stroke-linejoin="round"/>
<path d="M29.9 19.4199H27.96V26.2999H29.9V19.4199Z" stroke="#404366" stroke-width="0.75" stroke-linecap="round" stroke-linejoin="round"/>
<path d="M33.1597 19.4099H31.2197V26.2899H33.1597V19.4099Z" stroke="#404366" stroke-width="0.75" stroke-linecap="round" stroke-linejoin="round"/>
<path d="M29.9 26.29V28.94H25.9C25.8967 28.5757 26.0148 28.2207 26.2357 27.9309C26.4566 27.6412 26.7677 27.4333 27.1199 27.34C27.2621 27.2949 27.4109 27.2746 27.5599 27.28V26.28L29.9 26.29Z" stroke="#404366" stroke-width="0.75" stroke-linecap="round" stroke-linejoin="round"/>
<path d="M31.2197 26.29V28.94H35.2197C35.223 28.5757 35.1049 28.2207 34.884 27.9309C34.6631 27.6412 34.3519 27.4333 33.9998 27.34C33.8576 27.2949 33.7088 27.2746 33.5598 27.28V26.28L31.2197 26.29Z" stroke="#404366" stroke-width="0.75" stroke-linecap="round" stroke-linejoin="round"/>
<path d="M18.3098 8.59009H11.9697V13.3601H18.3098V8.59009Z" fill="white" stroke="#404366" stroke-width="0.75" stroke-linecap="round" stroke-linejoin="round"/>
<path d="M33.6999 8.59009H27.3599V15.8101H33.6999V8.59009Z" fill="white" stroke="#404366" stroke-width="0.75" stroke-linecap="round" stroke-linejoin="round"/>
<path d="M30.6801 41.2301L20.3301 40.2301C19.1001 40.1101 17.7301 39.91 16.9601 38.94C16.5702 38.3155 16.4098 37.5747 16.5065 36.8448C16.6032 36.1149 16.9509 35.4415 17.4901 34.94C18.6118 33.9707 19.9719 33.3182 21.4301 33.05C26.5079 31.7016 31.7467 31.0556 37.0001 31.13C37.7966 31.0915 38.5925 31.2182 39.3377 31.5021C40.0828 31.7861 40.7612 32.2212 41.3301 32.78C42.4301 33.99 46.7801 43.78 48.6101 47.05" stroke="#404366" stroke-width="0.75" stroke-linecap="round" stroke-linejoin="round"/>
<path d="M36 52.12L34.55 48.19L18.55 46.74C17.4712 46.6338 16.438 46.2515 15.55 45.63L1.99998 36.14C1.44506 35.7543 1.05636 35.1731 0.911724 34.513C0.767084 33.8528 0.877153 33.1624 1.21995 32.58C1.57377 31.9741 2.15031 31.5305 2.82658 31.3437C3.50284 31.1569 4.22537 31.2417 4.84001 31.58L10.47 34.65C10.9496 34.9166 11.47 35.1024 12.01 35.2L16.77 36.07" stroke="#404366" stroke-width="0.75" stroke-linecap="round" stroke-linejoin="round"/>
<path d="M4.93994 31.6399L5.08997 31.3399C5.27069 30.989 5.57616 30.7185 5.94629 30.5816C6.31642 30.4446 6.72441 30.4512 7.08997 30.5999L12.2599 32.9099C12.3866 32.9694 12.5214 33.0098 12.6599 33.0299L18.6599 34.0299" stroke="#404366" stroke-width="0.75" stroke-linecap="round" stroke-linejoin="round"/>
<path d="M15.1398 6.85001C16.8905 6.85001 18.3098 5.43074 18.3098 3.67999C18.3098 1.92925 16.8905 0.51001 15.1398 0.51001C13.389 0.51001 11.9697 1.92925 11.9697 3.67999C11.9697 5.43074 13.389 6.85001 15.1398 6.85001Z" stroke="#404366" stroke-width="0.75" stroke-linecap="round" stroke-linejoin="round"/>
<path d="M11.9701 13.3599L9.87012 19.4199H15.1401" stroke="#404366" stroke-width="0.75" stroke-linecap="round" stroke-linejoin="round"/>
<path d="M18.3101 13.3599L20.4101 19.4199H15.1401" stroke="#404366" stroke-width="0.75" stroke-linecap="round" stroke-linejoin="round"/>
<path d="M14.5801 19.4199H12.6401V26.2999H14.5801V19.4199Z" stroke="#404366" stroke-width="0.75" stroke-linecap="round" stroke-linejoin="round"/>
<path d="M17.8399 19.4099H15.8999V26.2899H17.8399V19.4099Z" stroke="#404366" stroke-width="0.75" stroke-linecap="round" stroke-linejoin="round"/>
<path d="M5 5.65996C5.00125 5.47613 5.05318 5.29622 5.15002 5.13997C5.29439 4.93001 5.51341 4.78307 5.76245 4.72917C6.01149 4.67528 6.27173 4.71848 6.48999 4.84996L12.63 8.84996C12.84 8.99433 12.9869 9.21341 13.0408 9.46245C13.0947 9.71149 13.0515 9.97169 12.92 10.19C12.7741 10.3983 12.5544 10.5432 12.3054 10.5952C12.0565 10.6472 11.7971 10.6024 11.58 10.47L5.44 6.51994C5.29999 6.42543 5.18619 6.29701 5.10925 6.14662C5.03231 5.99624 4.99473 5.8288 5 5.65996Z" fill="white" stroke="#404366" stroke-width="0.75" stroke-linecap="round" stroke-linejoin="round"/>
<path d="M23.0001 3.00005C22.8384 2.97752 22.6737 2.9949 22.5203 3.05068C22.3669 3.10646 22.2295 3.19895 22.1201 3.32006L17.3301 8.83004C17.1687 9.02797 17.089 9.28018 17.1076 9.53493C17.1262 9.78968 17.2416 10.0277 17.4301 10.2001C17.6274 10.3586 17.8774 10.4364 18.1298 10.4178C18.3822 10.3993 18.6181 10.2857 18.7901 10.1001L23.5901 4.59005C23.7516 4.39212 23.8311 4.1399 23.8125 3.88515C23.7939 3.6304 23.6786 3.39244 23.4901 3.22005C23.3499 3.10341 23.1804 3.02733 23.0001 3.00005Z" fill="white" stroke="#404366" stroke-width="0.75" stroke-linecap="round" stroke-linejoin="round"/>
<path d="M22.7997 3.00007C22.9598 2.97923 23.1225 2.99745 23.274 3.05317C23.4255 3.1089 23.5613 3.20048 23.6697 3.32008L28.4597 8.83006C28.586 8.91629 28.6907 9.03033 28.766 9.16337C28.8412 9.29641 28.885 9.44492 28.8939 9.59751C28.9028 9.75011 28.8766 9.90273 28.8173 10.0436C28.758 10.1845 28.6672 10.3099 28.5519 10.4103C28.4366 10.5106 28.2998 10.5831 28.152 10.6223C28.0043 10.6615 27.8495 10.6663 27.6996 10.6364C27.5497 10.6064 27.4087 10.5425 27.2874 10.4495C27.1661 10.3566 27.0676 10.237 26.9997 10.1001L22.1997 4.59007C22.0383 4.39214 21.9587 4.13992 21.9773 3.88517C21.9959 3.63042 22.1112 3.39246 22.2997 3.22007C22.4409 3.09886 22.6149 3.02229 22.7997 3.00007Z" fill="white" stroke="#404366" stroke-width="0.75" stroke-linecap="round" stroke-linejoin="round"/>
<path d="M30.5299 6.85001C32.2807 6.85001 33.6999 5.43074 33.6999 3.67999C33.6999 1.92925 32.2807 0.51001 30.5299 0.51001C28.7792 0.51001 27.3599 1.92925 27.3599 3.67999C27.3599 5.43074 28.7792 6.85001 30.5299 6.85001Z" stroke="#404366" stroke-width="0.75" stroke-linecap="round" stroke-linejoin="round"/>
<path d="M40.6598 5.65993C40.6574 5.82293 40.6151 5.98286 40.5367 6.12578C40.4582 6.2687 40.3461 6.39029 40.2099 6.47993L34.0699 10.4299C33.8528 10.5624 33.5934 10.6072 33.3445 10.5552C33.0955 10.5031 32.8757 10.3582 32.7298 10.1499C32.5984 9.93166 32.5552 9.67145 32.6091 9.42241C32.663 9.17337 32.8099 8.95429 33.0199 8.80992L39.1598 4.80992C39.3781 4.67844 39.6383 4.63524 39.8874 4.68913C40.1364 4.74303 40.3555 4.88997 40.4999 5.09993C40.6131 5.26403 40.6693 5.46077 40.6598 5.65993Z" fill="white" stroke="#404366" stroke-width="0.75" stroke-linecap="round" stroke-linejoin="round"/>
<path d="M33.6999 15.8101H27.3599V19.4201H33.6999V15.8101Z" stroke="#404366" stroke-width="0.75" stroke-linejoin="round"/>
<path d="M30.5303 19.4199V17.3799" stroke="#404366" stroke-width="0.75" stroke-linejoin="round"/>
<path d="M14.5703 26.29V28.94H10.5703C10.5682 28.5774 10.6856 28.2242 10.9043 27.935C11.123 27.6458 11.4309 27.4367 11.7804 27.34C11.9259 27.295 12.078 27.2747 12.2303 27.28V26.28L14.5703 26.29Z" stroke="#404366" stroke-width="0.75" stroke-linecap="round" stroke-linejoin="round"/>
<path d="M15.8301 26.29V28.94H19.8301C19.8333 28.5757 19.7152 28.2207 19.4943 27.9309C19.2734 27.6412 18.9622 27.4333 18.61 27.34C18.4679 27.2949 18.3191 27.2746 18.17 27.28V26.28L15.8301 26.29Z" stroke="#404366" stroke-width="0.75" stroke-linecap="round" stroke-linejoin="round"/>
<path d="M29.9 19.4199H27.96V26.2999H29.9V19.4199Z" stroke="#404366" stroke-width="0.75" stroke-linecap="round" stroke-linejoin="round"/>
<path d="M33.1597 19.4099H31.2197V26.2899H33.1597V19.4099Z" stroke="#404366" stroke-width="0.75" stroke-linecap="round" stroke-linejoin="round"/>
<path d="M29.9 26.29V28.94H25.9C25.8967 28.5757 26.0148 28.2207 26.2357 27.9309C26.4566 27.6412 26.7677 27.4333 27.1199 27.34C27.2621 27.2949 27.4109 27.2746 27.5599 27.28V26.28L29.9 26.29Z" stroke="#404366" stroke-width="0.75" stroke-linecap="round" stroke-linejoin="round"/>
<path d="M31.2197 26.29V28.94H35.2197C35.223 28.5757 35.1049 28.2207 34.884 27.9309C34.6631 27.6412 34.3519 27.4333 33.9998 27.34C33.8576 27.2949 33.7088 27.2746 33.5598 27.28V26.28L31.2197 26.29Z" stroke="#404366" stroke-width="0.75" stroke-linecap="round" stroke-linejoin="round"/>
<path d="M18.3098 8.59009H11.9697V13.3601H18.3098V8.59009Z" fill="white" stroke="#404366" stroke-width="0.75" stroke-linecap="round" stroke-linejoin="round"/>
<path d="M33.6999 8.59009H27.3599V15.8101H33.6999V8.59009Z" fill="white" stroke="#404366" stroke-width="0.75" stroke-linecap="round" stroke-linejoin="round"/>
<path d="M30.6801 41.2301L20.3301 40.2301C19.1001 40.1101 17.7301 39.91 16.9601 38.94C16.5702 38.3155 16.4098 37.5747 16.5065 36.8448C16.6032 36.1149 16.9509 35.4415 17.4901 34.94C18.6118 33.9707 19.9719 33.3182 21.4301 33.05C26.5079 31.7016 31.7467 31.0556 37.0001 31.13C37.7966 31.0915 38.5925 31.2182 39.3377 31.5021C40.0828 31.7861 40.7612 32.2212 41.3301 32.78C42.4301 33.99 46.7801 43.78 48.6101 47.05" stroke="#404366" stroke-width="0.75" stroke-linecap="round" stroke-linejoin="round"/>
<path d="M36 52.12L34.55 48.19L18.55 46.74C17.4712 46.6338 16.438 46.2515 15.55 45.63L1.99998 36.14C1.44506 35.7543 1.05636 35.1731 0.911724 34.513C0.767084 33.8528 0.877153 33.1624 1.21995 32.58C1.57377 31.9741 2.15031 31.5305 2.82658 31.3437C3.50284 31.1569 4.22537 31.2417 4.84001 31.58L10.47 34.65C10.9496 34.9166 11.47 35.1024 12.01 35.2L16.77 36.07" stroke="#404366" stroke-width="0.75" stroke-linecap="round" stroke-linejoin="round"/>
<path d="M4.93994 31.6399L5.08997 31.3399C5.27069 30.989 5.57616 30.7185 5.94629 30.5816C6.31642 30.4446 6.72441 30.4512 7.08997 30.5999L12.2599 32.9099C12.3866 32.9694 12.5214 33.0098 12.6599 33.0299L18.6599 34.0299" stroke="#404366" stroke-width="0.75" stroke-linecap="round" stroke-linejoin="round"/>
</svg>
