<svg width="53" height="52" viewBox="0 0 53 52" fill="none" xmlns="http://www.w3.org/2000/svg">
<path d="M21.52 19.4701C21.3431 19.4681 21.1741 19.3962 21.05 19.2701L18.42 16.6501C18.3347 16.5612 18.2322 16.4905 18.1187 16.4424C18.0053 16.3943 17.8833 16.3697 17.76 16.3701H13.83C13.743 16.3715 13.6566 16.3553 13.5759 16.3226C13.4952 16.2899 13.4219 16.2414 13.3603 16.1798C13.2988 16.1183 13.2502 16.045 13.2175 15.9643C13.1848 15.8836 13.1687 15.7972 13.17 15.7101V11.0601C13.1687 10.9726 13.1848 10.8857 13.2174 10.8045C13.2499 10.7232 13.2983 10.6493 13.3598 10.5869C13.4212 10.5246 13.4944 10.4751 13.5751 10.4413C13.6558 10.4075 13.7425 10.3901 13.83 10.3901C14.0271 10.4011 14.215 10.4765 14.365 10.6048C14.515 10.7331 14.6186 10.9071 14.66 11.1001L15.35 13.2901C15.4253 13.5956 15.5839 13.8742 15.8081 14.0948C16.0323 14.3155 16.3134 14.4697 16.62 14.5401L18.44 14.9701C18.6223 14.9906 18.7936 15.0675 18.93 15.1901L21.52 17.8701L21.84 17.5501C21.9006 17.4881 21.9729 17.4389 22.0528 17.4052C22.1326 17.3716 22.2184 17.3543 22.305 17.3543C22.3917 17.3543 22.4774 17.3716 22.5573 17.4052C22.6371 17.4389 22.7095 17.4881 22.77 17.5501C22.8323 17.6115 22.8818 17.6847 22.9155 17.7654C22.9493 17.8461 22.9666 17.9326 22.9666 18.0201C22.9666 18.1076 22.9493 18.1942 22.9155 18.2749C22.8818 18.3556 22.8323 18.4287 22.77 18.4901L21.99 19.2701C21.8659 19.3962 21.697 19.4681 21.52 19.4701Z" stroke="#404366" stroke-width="0.75" stroke-miterlimit="10"/>
<path d="M17.3002 14.1701H14.1503C13.9752 14.1701 13.8073 14.1006 13.6835 13.9768C13.5598 13.853 13.4902 13.6851 13.4902 13.5101C13.4902 13.3351 13.5598 13.1672 13.6835 13.0434C13.8073 12.9196 13.9752 12.8501 14.1503 12.8501H17.3002C17.4753 12.8501 17.6431 12.9196 17.7669 13.0434C17.8907 13.1672 17.9603 13.3351 17.9603 13.5101C17.9603 13.6851 17.8907 13.853 17.7669 13.9768C17.6431 14.1006 17.4753 14.1701 17.3002 14.1701Z" fill="white" stroke="#404366" stroke-width="0.75" stroke-miterlimit="10"/>
<path d="M19.0603 18.0999C19.0619 18.9829 18.824 19.8499 18.3717 20.6084C17.9194 21.3668 17.2698 21.9883 16.4921 22.4067C15.7144 22.825 14.8378 23.0245 13.9557 22.9839C13.0735 22.9432 12.219 22.664 11.4831 22.1759C10.7472 21.6878 10.1574 21.0092 9.77684 20.2123C9.39623 19.4155 9.23897 18.5304 9.32182 17.6512C9.40467 16.772 9.72453 15.9318 10.2473 15.2201C10.7701 14.5084 11.4761 13.9519 12.2903 13.6099" stroke="#404366" stroke-width="0.75" stroke-linecap="round" stroke-linejoin="round"/>
<path d="M17.7601 18.1499C17.7566 18.7926 17.5797 19.4225 17.2481 19.9731C16.9164 20.5236 16.4424 20.9744 15.8758 21.2779C15.3092 21.5814 14.6712 21.7263 14.0291 21.6973C13.387 21.6683 12.7647 21.4665 12.2278 21.1133C11.6908 20.76 11.2593 20.2682 10.9786 19.69C10.6979 19.1118 10.5785 18.4686 10.633 17.8282C10.6875 17.1877 10.9139 16.5739 11.2883 16.0515C11.6626 15.529 12.1711 15.1173 12.7601 14.8599" stroke="#404366" stroke-width="0.75" stroke-linecap="round" stroke-linejoin="round"/>
<path d="M14.0901 9.89996C14.6259 9.89996 15.0601 9.46568 15.0601 8.92996C15.0601 8.39425 14.6259 7.95996 14.0901 7.95996C13.5544 7.95996 13.1201 8.39425 13.1201 8.92996C13.1201 9.46568 13.5544 9.89996 14.0901 9.89996Z" stroke="#404366" stroke-width="0.75" stroke-miterlimit="10"/>
<path d="M32.8906 15.1701C33.0645 15.222 33.2296 15.2995 33.3806 15.4001C33.585 14.6625 34.0024 14.0016 34.5806 13.5001C35.1013 13.0169 35.7643 12.7152 36.4706 12.6401C37.0136 12.5726 37.5648 12.6273 38.0839 12.8004C38.6029 12.9734 39.0767 13.2603 39.4706 13.6401C39.8748 14.093 40.124 14.6632 40.1815 15.2676C40.2391 15.872 40.1021 16.479 39.7906 17.0001C39.4806 17.4801 39.0206 17.8601 38.7106 18.3401C38.37 18.9651 38.1303 19.6401 38.0006 20.3401C37.8641 21.0589 37.5159 21.7206 37.0006 22.2401C36.7123 22.4921 36.3617 22.6622 35.9853 22.7325C35.6089 22.8029 35.2205 22.771 34.8606 22.6401" stroke="#404366" stroke-width="0.75" stroke-linecap="round" stroke-linejoin="round"/>
<path d="M35 15.17C35.2635 14.7005 35.6907 14.3445 36.2 14.17C36.4594 14.0883 36.7342 14.0674 37.0031 14.109C37.2719 14.1506 37.5275 14.2536 37.75 14.41C37.9689 14.572 38.1388 14.7912 38.2411 15.0435C38.3435 15.2958 38.3742 15.5714 38.33 15.84" stroke="#404366" stroke-width="0.75" stroke-linecap="round" stroke-linejoin="round"/>
<path d="M34.0006 16.9299C33.9604 17.0827 33.9755 17.2448 34.0432 17.3875C34.1109 17.5302 34.2268 17.6444 34.3705 17.7099C34.6421 17.776 34.9212 17.8063 35.2006 17.7999C35.4234 17.8389 35.629 17.945 35.7899 18.1041C35.9507 18.2632 36.0591 18.4676 36.1005 18.6899C36.1304 18.9625 36.1304 19.2374 36.1005 19.5099C36.0877 19.6447 36.1024 19.7806 36.1436 19.9095C36.1849 20.0385 36.2519 20.1577 36.3406 20.2599" stroke="#404366" stroke-width="0.75" stroke-linecap="round" stroke-linejoin="round"/>
<path d="M42.5703 8.92849L39.2822 12.2166L40.4278 13.3621L43.7158 10.074L42.5703 8.92849Z" fill="#404366" stroke="#404366" stroke-width="0.75" stroke-miterlimit="10"/>
<path d="M33.4174 18.0855L30.1294 21.3735L31.2749 22.519L34.5629 19.231L33.4174 18.0855Z" fill="#404366" stroke="#404366" stroke-width="0.75" stroke-miterlimit="10"/>
<path d="M5.49005 42.69C7.37334 42.69 8.90009 40.5768 8.90009 37.97C8.90009 35.3632 7.37334 33.25 5.49005 33.25C3.60676 33.25 2.08008 35.3632 2.08008 37.97C2.08008 40.5768 3.60676 42.69 5.49005 42.69Z" fill="#404366" stroke="#404366" stroke-width="0.75" stroke-miterlimit="10"/>
<path d="M14.2606 42.69C16.1439 42.69 17.6706 40.5768 17.6706 37.97C17.6706 35.3632 16.1439 33.25 14.2606 33.25C12.3773 33.25 10.8506 35.3632 10.8506 37.97C10.8506 40.5768 12.3773 42.69 14.2606 42.69Z" fill="#404366" stroke="#404366" stroke-width="0.75" stroke-miterlimit="10"/>
<path d="M17.4004 36.6499L22.7004 31.3499C22.7004 31.3499 24.1904 30.4599 24.1904 33.0699" stroke="#404366" stroke-width="0.75" stroke-linecap="round" stroke-linejoin="round"/>
<path d="M2.75 36.6499L8.04999 31.3499C8.04999 31.3499 9.53998 30.4599 9.53998 33.0699" stroke="#404366" stroke-width="0.75" stroke-linecap="round" stroke-linejoin="round"/>
<path d="M8.55029 38H11.8103" stroke="#404366" stroke-width="0.75" stroke-linecap="round" stroke-linejoin="round"/>
<path d="M40.5803 43.9999L37.1703 30.5299C37.1703 30.5299 36.5003 28.5299 34.7303 29.0199C34.2215 29.154 33.7659 29.4404 33.4245 29.8408C33.0831 30.2412 32.8723 30.7364 32.8203 31.2599" stroke="#404366" stroke-width="0.75" stroke-linecap="round" stroke-linejoin="round"/>
<path d="M26.7603 51.4C40.8104 51.4 52.2003 40.0101 52.2003 25.96C52.2003 11.9099 40.8104 0.52002 26.7603 0.52002C12.7102 0.52002 1.32031 11.9099 1.32031 25.96C1.32031 40.0101 12.7102 51.4 26.7603 51.4Z" stroke="#404366" stroke-width="0.75" stroke-linecap="round" stroke-linejoin="round"/>
<path d="M26.7603 0.530029V51.4" stroke="#404366" stroke-width="0.75" stroke-linecap="round" stroke-linejoin="round"/>
<path d="M1.32031 25.96H52.1903" stroke="#404366" stroke-width="0.75" stroke-linecap="round" stroke-linejoin="round"/>
</svg>
