<svg width="45" height="47" viewBox="0 0 45 47" fill="none" xmlns="http://www.w3.org/2000/svg">
<path d="M7.91977 46.3701C9.52692 46.3701 10.8297 45.0672 10.8297 43.4601C10.8297 41.8529 9.52692 40.55 7.91977 40.55C6.31262 40.55 5.00977 41.8529 5.00977 43.4601C5.00977 45.0672 6.31262 46.3701 7.91977 46.3701Z" stroke="#404366" stroke-width="0.75" stroke-linecap="round" stroke-linejoin="round"/>
<path d="M7.91993 45.4399C7.52437 45.4399 7.13769 45.3227 6.80879 45.1029C6.47989 44.8831 6.22353 44.5708 6.07216 44.2053C5.92078 43.8399 5.88118 43.4377 5.95836 43.0497C6.03553 42.6618 6.22601 42.3054 6.50572 42.0257C6.78542 41.746 7.14177 41.5556 7.52974 41.4784C7.9177 41.4012 8.31983 41.4408 8.68528 41.5922C9.05074 41.7435 9.3631 41.9999 9.58287 42.3288C9.80263 42.6577 9.91993 43.0444 9.91993 43.4399C9.91993 43.9704 9.70922 44.479 9.33415 44.8541C8.95908 45.2292 8.45037 45.4399 7.91993 45.4399Z" stroke="#404366" stroke-width="0.75" stroke-linecap="round" stroke-linejoin="round"/>
<path d="M8.64941 9.73999H35.9994C37.1558 9.73999 38.2647 10.1994 39.0824 11.017C39.9001 11.8347 40.3594 12.9436 40.3594 14.1V42C40.3594 43.1563 39.9001 44.2654 39.0824 45.083C38.2647 45.9007 37.1558 46.36 35.9994 46.36H8.64941V9.73999Z" fill="white" stroke="#404366" stroke-width="0.75" stroke-linecap="round" stroke-linejoin="round"/>
<path d="M8.64941 9.73999H12.9994C13.7765 9.73999 14.5217 10.0487 15.0712 10.5982C15.6207 11.1477 15.9294 11.8929 15.9294 12.67V43.43C15.9294 44.2071 15.6207 44.9523 15.0712 45.5018C14.5217 46.0513 13.7765 46.36 12.9994 46.36H8.65942V9.73999H8.64941Z" stroke="#404366" stroke-width="0.75" stroke-linecap="round" stroke-linejoin="round"/>
<path d="M1.2998 46.3599H44.0698" stroke="#404366" stroke-width="0.75" stroke-linecap="round" stroke-linejoin="round"/>
<path d="M28.1317 33.4253L18.9272 35.895L19.9924 39.8646L29.1968 37.3948L28.1317 33.4253Z" stroke="#404366" stroke-width="0.75" stroke-linecap="round" stroke-linejoin="round"/>
<path d="M13.3496 14.45V40.3099" stroke="#404366" stroke-width="0.75" stroke-linecap="round" stroke-linejoin="round"/>
<path d="M11.0596 14.45V40.3099" stroke="#404366" stroke-width="0.75" stroke-linecap="round" stroke-linejoin="round"/>
<path d="M29.85 28.0501C33.4951 28.0501 36.45 25.0952 36.45 21.4501C36.45 17.8051 33.4951 14.8501 29.85 14.8501C26.2049 14.8501 23.25 17.8051 23.25 21.4501C23.25 25.0952 26.2049 28.0501 29.85 28.0501Z" stroke="#404366" stroke-width="0.75" stroke-linecap="round" stroke-linejoin="round"/>
<path d="M26.1201 19.9999C26.2301 19.6299 26.2801 19.2299 26.3901 18.8599C26.4867 18.4813 26.7178 18.1508 27.0401 17.9299C27.6001 17.6099 28.3401 17.8599 28.9201 17.5999C29.1867 17.4261 29.4639 17.2692 29.7501 17.1299C30.0511 17.0532 30.3702 17.0962 30.6401 17.2499C30.9034 17.4085 31.1453 17.6001 31.3601 17.8199C32.168 18.5065 32.8455 19.333 33.3601 20.2599C33.4551 20.4905 33.5831 20.7061 33.7401 20.9C33.8187 20.9968 33.9247 21.0677 34.0442 21.1034C34.1637 21.1391 34.2913 21.1378 34.4101 21.0999L34.5701 21.03C34.7801 20.97 34.9901 21.1899 34.9901 21.4099C34.9759 21.6282 34.8837 21.8341 34.7301 21.9899C34.5803 22.1465 34.4555 22.3253 34.3601 22.5199C34.3183 22.62 34.3125 22.7314 34.3434 22.8353C34.3744 22.9391 34.4404 23.0291 34.5301 23.09C34.1044 22.9748 33.6558 22.9748 33.2301 23.09C32.8892 23.2728 32.5704 23.4943 32.2801 23.7499C31.803 24.0536 31.2743 24.2672 30.7201 24.3799C29.7972 24.6809 28.8307 24.8262 27.8601 24.8099C27.7139 24.8165 27.5697 24.7743 27.4501 24.6899C27.2101 24.4799 27.3501 24.0999 27.5001 23.8199C27.2589 23.9019 27.0023 23.9283 26.7495 23.8971C26.4967 23.866 26.2542 23.778 26.0401 23.6399C25.6109 23.3673 25.2264 23.03 24.9001 22.6399C24.7201 22.4599 24.3901 22.2199 24.4801 21.9299C24.5701 21.6399 24.9301 21.5599 25.1101 21.4099C25.5782 21.0496 25.9296 20.5591 26.1201 19.9999Z" stroke="#404366" stroke-width="0.75" stroke-linecap="round" stroke-linejoin="round"/>
<path d="M15.1895 9.74005V1.07007H31.9195V9.74005" stroke="#404366" stroke-width="0.75" stroke-linecap="round" stroke-linejoin="round"/>
<path d="M16.7397 3.94995H29.5598" stroke="#404366" stroke-width="0.75" stroke-linecap="round" stroke-linejoin="round"/>
</svg>
