<svg width="79" height="50" viewBox="0 0 79 50" fill="none" xmlns="http://www.w3.org/2000/svg">
<path d="M24.2001 26.5299H16.9001C16.8322 20.0516 19.2173 13.7873 23.5767 8.99471C27.9361 4.20209 33.947 1.23592 40.4028 0.691606C46.8586 0.147294 53.2814 2.06514 58.3817 6.06017C63.482 10.0552 66.8824 15.8317 67.9001 22.2299L60.7001 23.4499C59.9156 18.9254 57.4641 14.8592 53.8292 12.0531C50.1943 9.24713 45.6398 7.90509 41.0641 8.29173C36.4884 8.67838 32.2237 10.7656 29.1112 14.1418C25.9986 17.518 24.2643 21.938 24.2501 26.5299H24.2001ZM24.2001 26.5299C24.2065 21.9861 25.8975 17.6064 28.9462 14.2372C31.9949 10.868 36.1846 8.74903 40.7052 8.29001C45.2257 7.83099 49.7559 9.06453 53.4196 11.7521C57.0833 14.4397 59.6203 18.3904 60.5399 22.8401M20.5499 26.5299C20.5324 21.0035 22.5953 15.673 26.3286 11.5982C30.0619 7.52347 35.192 5.00301 40.6987 4.53802C46.2055 4.07303 51.6856 5.69759 56.0493 9.08865C60.4129 12.4797 63.3406 17.3888 64.2499 22.8399M27.8401 26.53C27.9401 22.6937 29.5343 19.0482 32.283 16.3702C35.0317 13.6923 38.7175 12.1936 42.5551 12.1936C46.3926 12.1936 50.0785 13.6923 52.8272 16.3702C55.5759 19.0482 57.1701 22.6937 57.2701 26.53M1.12988 48.29H7.82986M7.82986 48.29H37.4099M7.82986 48.29C9.97761 45.9904 12.6024 44.1883 15.52 43.01M37.4099 48.29H37.6899M37.4099 48.29C35.5335 46.2261 33.2517 44.5711 30.707 43.4286C28.1623 42.2861 25.4093 41.6807 22.62 41.65C20.1887 41.6509 17.7795 42.1124 15.52 43.01M37.6899 48.29H53.8299M37.6899 48.29L37.69 28.41H26.39V22.5M53.8299 48.29H63.8499M53.8299 48.29L53.8301 32.3201M63.8499 48.29H78.3299M63.8499 48.29L63.8501 40.22M15.52 43.01L15.24 22.5H26.39M26.39 22.5L26.39 28.35H37.69V35.35H44.18C44.18 35.35 44.12 25.35 44.18 25.35L48.5801 25.3501M26.39 22.5H24.72V17H39.47V22.52L48.58 22.5L48.5801 25.3501M48.5801 25.3501H53.8301M63.8501 40.22C65.6922 40.2289 67.5153 40.5921 69.2201 41.2899M63.8501 40.22V32.3199H53.8501V25.3199H59.1501V21.3999L69.2201 21.4299V41.2899M69.2201 41.2899C69.9412 41.5909 70.6338 41.9558 71.29 42.38C73.427 43.7976 75.0971 45.8156 76.09 48.18M19.25 32.96H31.7M19.25 36.9299H31.7M15.3801 28.3999C15.0345 28.1142 14.6135 27.9347 14.168 27.8833C13.7226 27.8318 13.2717 27.9105 12.8701 28.1099C12.4753 28.3209 12.1312 28.6153 11.8617 28.9728C11.5923 29.3303 11.4041 29.7422 11.3101 30.1799C11.1311 31.0604 11.211 31.9739 11.5401 32.8099C10.4143 32.7361 9.29147 32.9933 8.3101 33.5499C7.90738 33.8391 7.58435 34.2255 7.37105 34.6731C7.15774 35.1207 7.06109 35.6149 7.0901 36.1099C7.12895 36.603 7.28087 37.0805 7.53407 37.5054C7.78727 37.9303 8.13491 38.2911 8.55009 38.5599C7.93578 38.6111 7.35124 38.8466 6.87303 39.2355C6.39482 39.6245 6.04525 40.1489 5.8701 40.7399C5.70377 41.3301 5.66412 41.9489 5.75374 42.5555C5.84335 43.1622 6.06023 43.743 6.39012 44.2599C7.05161 45.2912 7.94112 46.1568 8.99009 46.7899L8.7801 46.6799M69.3101 33.2201C69.7242 32.539 70.365 32.0255 71.1201 31.77C71.555 31.669 72.0093 31.6903 72.4329 31.8315C72.8565 31.9727 73.2327 32.2283 73.5201 32.5701C73.7991 32.9177 73.9939 33.3251 74.0894 33.7605C74.1848 34.196 74.1782 34.6476 74.0701 35.08C73.8444 35.9483 73.3068 36.703 72.5601 37.2001C73.3628 36.9896 74.2087 37.0104 75.0001 37.2601C75.4962 37.4293 75.9329 37.7383 76.2576 38.1499C76.5822 38.5615 76.781 39.0581 76.83 39.58C76.8617 40.1026 76.7674 40.6251 76.5551 41.1037C76.3428 41.5822 76.0187 42.0028 75.61 42.33C76.0793 42.1479 76.5971 42.1329 77.0761 42.2877C77.5551 42.4426 77.9661 42.7577 78.2401 43.18C78.5201 43.6096 78.6486 44.1204 78.6052 44.6313C78.5617 45.1423 78.3487 45.624 78.0001 46C77.4296 46.4985 76.7411 46.8428 76.0001 47M19.76 37.6001V39.1401M55.0801 48.05V49.5901M72 30.4199V31.9599M47.3501 21.1401V22.6901" stroke="#828693" stroke-width="0.75" stroke-linecap="round" stroke-linejoin="round"/>
</svg>
