<svg width="43" height="28" viewBox="0 0 43 28" fill="none" xmlns="http://www.w3.org/2000/svg">
<path d="M41.7498 0.580078H1.33984V27.5201H41.7498V0.580078Z" stroke="#404366" stroke-width="0.75" stroke-miterlimit="10"/>
<path d="M41.7498 0.580078H1.33984V14.0501H41.7498V0.580078Z" stroke="#404366" stroke-width="0.75" stroke-miterlimit="10"/>
<path d="M21.5396 23.0301C26.4991 23.0301 30.5196 19.0096 30.5196 14.05C30.5196 9.09053 26.4991 5.07007 21.5396 5.07007C16.58 5.07007 12.5596 9.09053 12.5596 14.05C12.5596 19.0096 16.58 23.0301 21.5396 23.0301Z" fill="#404366"/>
<path d="M14.5198 13.58C15.0335 13.58 15.4498 13.1636 15.4498 12.65C15.4498 12.1363 15.0335 11.72 14.5198 11.72C14.0062 11.72 13.5898 12.1363 13.5898 12.65C13.5898 13.1636 14.0062 13.58 14.5198 13.58Z" fill="white"/>
<path d="M19.0099 13.8799C19.1977 13.8799 19.3499 13.7277 19.3499 13.5399C19.3499 13.3522 19.1977 13.2 19.0099 13.2C18.8222 13.2 18.6699 13.3522 18.6699 13.5399C18.6699 13.7277 18.8222 13.8799 19.0099 13.8799Z" fill="white"/>
<path d="M14.3999 13.58L18.9698 13.88V13.34L14.4599 12.23L14.3999 13.58Z" fill="white"/>
<path d="M14.7701 11.75L19.1 13.22L18.92 13.73L14.3301 13.02L14.7701 11.75Z" fill="white"/>
<path d="M15.5897 11.0001C16.1033 11.0001 16.5197 10.5838 16.5197 10.0701C16.5197 9.5565 16.1033 9.14014 15.5897 9.14014C15.0761 9.14014 14.6597 9.5565 14.6597 10.0701C14.6597 10.5838 15.0761 11.0001 15.5897 11.0001Z" fill="white"/>
<path d="M19.3996 12.95C19.5874 12.95 19.7396 12.7978 19.7396 12.61C19.7396 12.4222 19.5874 12.27 19.3996 12.27C19.2118 12.27 19.0596 12.4222 19.0596 12.61C19.0596 12.7978 19.2118 12.95 19.3996 12.95Z" fill="white"/>
<path d="M15.1196 10.8802L19.2296 12.8802L19.4597 12.4001L15.7196 9.65015L15.1196 10.8802Z" fill="white"/>
<path d="M16.1595 9.33008L19.5995 12.3301L19.2495 12.7401L15.2495 10.3301L16.1595 9.33008Z" fill="white"/>
<path d="M17.5696 9.02991C18.0833 9.02991 18.4996 8.61354 18.4996 8.09991C18.4996 7.58629 18.0833 7.16992 17.5696 7.16992C17.056 7.16992 16.6396 7.58629 16.6396 8.09991C16.6396 8.61354 17.056 9.02991 17.5696 9.02991Z" fill="white"/>
<path d="M20.1095 12.2398C20.2973 12.2398 20.4495 12.0876 20.4495 11.8998C20.4495 11.712 20.2973 11.5598 20.1095 11.5598C19.9217 11.5598 19.7695 11.712 19.7695 11.8998C19.7695 12.0876 19.9217 12.2398 20.1095 12.2398Z" fill="white"/>
<path d="M16.8198 8.67001L19.8198 12.11L20.2198 11.75L17.8198 7.75L16.8198 8.67001Z" fill="white"/>
<path d="M18.3794 7.62988L20.3794 11.7299L19.8994 11.9699L17.1494 8.21988L18.3794 7.62988Z" fill="white"/>
<path d="M20.1498 7.96008C20.6634 7.96008 21.0798 7.54372 21.0798 7.03009C21.0798 6.51647 20.6634 6.1001 20.1498 6.1001C19.6362 6.1001 19.2197 6.51647 19.2197 7.03009C19.2197 7.54372 19.6362 7.96008 20.1498 7.96008Z" fill="white"/>
<path d="M21.0397 11.8502C21.2274 11.8502 21.3797 11.6979 21.3797 11.5102C21.3797 11.3224 21.2274 11.1702 21.0397 11.1702C20.8519 11.1702 20.6997 11.3224 20.6997 11.5102C20.6997 11.6979 20.8519 11.8502 21.0397 11.8502Z" fill="white"/>
<path d="M19.2397 7.27008L20.7098 11.6001L21.2197 11.4301L20.5198 6.84009L19.2397 7.27008Z" fill="white"/>
<path d="M21.0695 6.91016L21.3695 11.4702H20.8395L19.7295 7.00015L21.0695 6.91016Z" fill="white"/>
<path d="M22.9398 7.96008C23.4534 7.96008 23.8698 7.54372 23.8698 7.03009C23.8698 6.51647 23.4534 6.1001 22.9398 6.1001C22.4261 6.1001 22.0098 6.51647 22.0098 7.03009C22.0098 7.54372 22.4261 7.96008 22.9398 7.96008Z" fill="white"/>
<path d="M22.0499 11.8502C22.2377 11.8502 22.39 11.6979 22.39 11.5102C22.39 11.3224 22.2377 11.1702 22.0499 11.1702C21.8621 11.1702 21.71 11.3224 21.71 11.5102C21.71 11.6979 21.8621 11.8502 22.0499 11.8502Z" fill="white"/>
<path d="M21.9997 6.91016L21.6997 11.4702H22.2397L23.3397 6.95016L21.9997 6.91016Z" fill="white"/>
<path d="M23.8399 7.27008L22.3699 11.6001L21.8599 11.4301L22.5699 6.84009L23.8399 7.27008Z" fill="white"/>
<path d="M25.5198 9.02991C26.0335 9.02991 26.4498 8.61354 26.4498 8.09991C26.4498 7.58629 26.0335 7.16992 25.5198 7.16992C25.0062 7.16992 24.5898 7.58629 24.5898 8.09991C24.5898 8.61354 25.0062 9.02991 25.5198 9.02991Z" fill="white"/>
<path d="M22.9796 12.2398C23.1674 12.2398 23.3196 12.0876 23.3196 11.8998C23.3196 11.712 23.1674 11.5598 22.9796 11.5598C22.7918 11.5598 22.6396 11.712 22.6396 11.8998C22.6396 12.0876 22.7918 12.2398 22.9796 12.2398Z" fill="white"/>
<path d="M24.7095 7.62988L22.7095 11.7299L23.1995 11.9699L25.9395 8.21988L24.7095 7.62988Z" fill="white"/>
<path d="M26.2594 8.67001L23.2594 12.11L22.8594 11.75L25.2694 7.75L26.2594 8.67001Z" fill="white"/>
<path d="M27.4896 11.0001C28.0032 11.0001 28.4196 10.5838 28.4196 10.0701C28.4196 9.5565 28.0032 9.14014 27.4896 9.14014C26.9759 9.14014 26.5596 9.5565 26.5596 10.0701C26.5596 10.5838 26.9759 11.0001 27.4896 11.0001Z" fill="white"/>
<path d="M23.6896 12.95C23.8774 12.95 24.0297 12.7978 24.0297 12.61C24.0297 12.4222 23.8774 12.27 23.6896 12.27C23.5019 12.27 23.3496 12.4222 23.3496 12.61C23.3496 12.7978 23.5019 12.95 23.6896 12.95Z" fill="white"/>
<path d="M26.9195 9.33008L23.4795 12.3301L23.8395 12.7401L27.8395 10.3301L26.9195 9.33008Z" fill="white"/>
<path d="M27.9997 10.8802L23.8997 12.8802L23.6597 12.4001L27.3997 9.65015L27.9997 10.8802Z" fill="white"/>
<path d="M28.5594 13.58C29.073 13.58 29.4894 13.1636 29.4894 12.65C29.4894 12.1363 29.073 11.72 28.5594 11.72C28.0458 11.72 27.6294 12.1363 27.6294 12.65C27.6294 13.1636 28.0458 13.58 28.5594 13.58Z" fill="white"/>
<path d="M24.0695 13.8799C24.2573 13.8799 24.4095 13.7277 24.4095 13.5399C24.4095 13.3522 24.2573 13.2 24.0695 13.2C23.8817 13.2 23.7295 13.3522 23.7295 13.5399C23.7295 13.7277 23.8817 13.8799 24.0695 13.8799Z" fill="white"/>
<path d="M28.3195 11.75L23.9995 13.22L24.1695 13.73L28.7595 13.02L28.3195 11.75Z" fill="white"/>
<path d="M28.6796 13.58L24.1196 13.88V13.34L28.6296 12.23L28.6796 13.58Z" fill="white"/>
<path d="M28.5594 16.37C29.073 16.37 29.4894 15.9536 29.4894 15.44C29.4894 14.9264 29.073 14.51 28.5594 14.51C28.0458 14.51 27.6294 14.9264 27.6294 15.44C27.6294 15.9536 28.0458 16.37 28.5594 16.37Z" fill="white"/>
<path d="M24.0695 14.89C24.2573 14.89 24.4095 14.7377 24.4095 14.55C24.4095 14.3622 24.2573 14.21 24.0695 14.21C23.8817 14.21 23.7295 14.3622 23.7295 14.55C23.7295 14.7377 23.8817 14.89 24.0695 14.89Z" fill="white"/>
<path d="M28.6796 14.51L24.1196 14.21V14.75L28.6296 15.86L28.6796 14.51Z" fill="white"/>
<path d="M28.3195 16.3499L23.9995 14.8799L24.1695 14.3699L28.7595 15.0699L28.3195 16.3499Z" fill="white"/>
<path d="M27.4896 18.9501C28.0032 18.9501 28.4196 18.5337 28.4196 18.0201C28.4196 17.5065 28.0032 17.0901 27.4896 17.0901C26.9759 17.0901 26.5596 17.5065 26.5596 18.0201C26.5596 18.5337 26.9759 18.9501 27.4896 18.9501Z" fill="white"/>
<path d="M23.6896 15.8201C23.8774 15.8201 24.0297 15.6679 24.0297 15.4801C24.0297 15.2924 23.8774 15.1401 23.6896 15.1401C23.5019 15.1401 23.3496 15.2924 23.3496 15.4801C23.3496 15.6679 23.5019 15.8201 23.6896 15.8201Z" fill="white"/>
<path d="M27.9997 17.2102L23.8997 15.2102L23.6597 15.6902L27.3997 18.4402L27.9997 17.2102Z" fill="white"/>
<path d="M26.9195 18.7601L23.4795 15.7601L23.8395 15.3501L27.8395 17.7601L26.9195 18.7601Z" fill="white"/>
<path d="M25.5198 20.9301C26.0335 20.9301 26.4498 20.5137 26.4498 20.0001C26.4498 19.4864 26.0335 19.0701 25.5198 19.0701C25.0062 19.0701 24.5898 19.4864 24.5898 20.0001C24.5898 20.5137 25.0062 20.9301 25.5198 20.9301Z" fill="white"/>
<path d="M22.9796 16.5301C23.1674 16.5301 23.3196 16.3779 23.3196 16.1901C23.3196 16.0023 23.1674 15.8501 22.9796 15.8501C22.7918 15.8501 22.6396 16.0023 22.6396 16.1901C22.6396 16.3779 22.7918 16.5301 22.9796 16.5301Z" fill="white"/>
<path d="M26.2594 19.43L23.2594 15.99L22.8594 16.34L25.2694 20.34L26.2594 19.43Z" fill="white"/>
<path d="M24.7095 20.4601L22.7095 16.3601L23.1995 16.1201L25.9395 19.8701L24.7095 20.4601Z" fill="white"/>
<path d="M22.9398 21.9899C23.4534 21.9899 23.8698 21.5735 23.8698 21.0599C23.8698 20.5463 23.4534 20.1299 22.9398 20.1299C22.4261 20.1299 22.0098 20.5463 22.0098 21.0599C22.0098 21.5735 22.4261 21.9899 22.9398 21.9899Z" fill="white"/>
<path d="M22.0499 16.92C22.2377 16.92 22.39 16.7678 22.39 16.58C22.39 16.3922 22.2377 16.24 22.0499 16.24C21.8621 16.24 21.71 16.3922 21.71 16.58C21.71 16.7678 21.8621 16.92 22.0499 16.92Z" fill="white"/>
<path d="M23.8399 20.82L22.3699 16.49L21.8599 16.66L22.5699 21.25L23.8399 20.82Z" fill="white"/>
<path d="M21.9997 21.1901L21.6997 16.6201H22.2397L23.3397 21.1301L21.9997 21.1901Z" fill="white"/>
<path d="M20.1498 21.9899C20.6634 21.9899 21.0798 21.5735 21.0798 21.0599C21.0798 20.5463 20.6634 20.1299 20.1498 20.1299C19.6362 20.1299 19.2197 20.5463 19.2197 21.0599C19.2197 21.5735 19.6362 21.9899 20.1498 21.9899Z" fill="white"/>
<path d="M21.0397 16.92C21.2274 16.92 21.3797 16.7678 21.3797 16.58C21.3797 16.3922 21.2274 16.24 21.0397 16.24C20.8519 16.24 20.6997 16.3922 20.6997 16.58C20.6997 16.7678 20.8519 16.92 21.0397 16.92Z" fill="white"/>
<path d="M21.0695 21.1901L21.3695 16.6201H20.8395L19.7295 21.1301L21.0695 21.1901Z" fill="white"/>
<path d="M19.2397 20.82L20.7098 16.49L21.2197 16.66L20.5198 21.25L19.2397 20.82Z" fill="white"/>
<path d="M17.5696 20.9301C18.0833 20.9301 18.4996 20.5137 18.4996 20.0001C18.4996 19.4864 18.0833 19.0701 17.5696 19.0701C17.056 19.0701 16.6396 19.4864 16.6396 20.0001C16.6396 20.5137 17.056 20.9301 17.5696 20.9301Z" fill="white"/>
<path d="M20.1095 16.5301C20.2973 16.5301 20.4495 16.3779 20.4495 16.1901C20.4495 16.0023 20.2973 15.8501 20.1095 15.8501C19.9217 15.8501 19.7695 16.0023 19.7695 16.1901C19.7695 16.3779 19.9217 16.5301 20.1095 16.5301Z" fill="white"/>
<path d="M18.3794 20.4601L20.3794 16.3601L19.8994 16.1201L17.1494 19.8701L18.3794 20.4601Z" fill="white"/>
<path d="M16.8198 19.43L19.8198 15.99L20.2198 16.34L17.8198 20.34L16.8198 19.43Z" fill="white"/>
<path d="M15.5897 18.9501C16.1033 18.9501 16.5197 18.5337 16.5197 18.0201C16.5197 17.5065 16.1033 17.0901 15.5897 17.0901C15.0761 17.0901 14.6597 17.5065 14.6597 18.0201C14.6597 18.5337 15.0761 18.9501 15.5897 18.9501Z" fill="white"/>
<path d="M19.3996 15.8201C19.5874 15.8201 19.7396 15.6679 19.7396 15.4801C19.7396 15.2924 19.5874 15.1401 19.3996 15.1401C19.2118 15.1401 19.0596 15.2924 19.0596 15.4801C19.0596 15.6679 19.2118 15.8201 19.3996 15.8201Z" fill="white"/>
<path d="M16.1595 18.7601L19.5995 15.7601L19.2495 15.3501L15.2495 17.7601L16.1595 18.7601Z" fill="white"/>
<path d="M15.1196 17.2102L19.2296 15.2102L19.4597 15.6902L15.7196 18.4402L15.1196 17.2102Z" fill="white"/>
<path d="M14.5198 16.37C15.0335 16.37 15.4498 15.9536 15.4498 15.44C15.4498 14.9264 15.0335 14.51 14.5198 14.51C14.0062 14.51 13.5898 14.9264 13.5898 15.44C13.5898 15.9536 14.0062 16.37 14.5198 16.37Z" fill="white"/>
<path d="M19.0099 14.89C19.1977 14.89 19.3499 14.7377 19.3499 14.55C19.3499 14.3622 19.1977 14.21 19.0099 14.21C18.8222 14.21 18.6699 14.3622 18.6699 14.55C18.6699 14.7377 18.8222 14.89 19.0099 14.89Z" fill="white"/>
<path d="M14.7701 16.3499L19.1 14.8799L18.92 14.3699L14.3301 15.0699L14.7701 16.3499Z" fill="white"/>
<path d="M14.3999 14.51L18.9698 14.21V14.75L14.4599 15.86L14.3999 14.51Z" fill="white"/>
</svg>
