<svg width="46" height="44" viewBox="0 0 46 44" fill="none" xmlns="http://www.w3.org/2000/svg">
<path d="M23.2299 35.48V38.08C23.233 38.688 23.0402 39.281 22.68 39.7709C22.3198 40.2608 21.8113 40.6216 21.2299 40.8L14.4399 42.75" stroke="#404366" stroke-width="0.75" stroke-linecap="round" stroke-linejoin="round"/>
<path d="M40.6599 14.8499C40.764 15.5451 40.8175 16.247 40.82 16.95V22.2099C40.8067 25.8684 39.3455 29.3728 36.7557 31.9569C34.166 34.5411 30.6584 35.9947 26.9999 35.9999V35.9999C23.332 35.9999 19.8143 34.5428 17.2206 31.9492C14.627 29.3556 13.1699 25.8379 13.1699 22.17V16.9999C13.167 14.0011 14.1431 11.0833 15.95 8.68994" stroke="#404366" stroke-width="0.75" stroke-linecap="round" stroke-linejoin="round"/>
<path d="M11 27.5101V14.2701C11 10.6366 12.4434 7.15195 15.0126 4.5827C17.5819 2.01345 21.0665 0.570068 24.7 0.570068H29.25C32.8835 0.570068 36.3681 2.01345 38.9374 4.5827C41.5066 7.15195 42.95 10.6366 42.95 14.2701V38.8801" stroke="#404366" stroke-width="0.75" stroke-linecap="round" stroke-linejoin="round"/>
<path d="M15.5601 8.34009C15.5601 8.34009 23.9901 14.6401 41.2801 14.6401" stroke="#404366" stroke-width="0.75" stroke-linecap="round" stroke-linejoin="round"/>
<path d="M24.1298 18C24.1298 18.5517 23.9106 19.0807 23.5205 19.4708C23.1304 19.8609 22.6014 20.08 22.0497 20.08C21.4981 20.08 20.9691 19.8609 20.579 19.4708C20.1889 19.0807 19.9697 18.5517 19.9697 18" stroke="#404366" stroke-width="0.75" stroke-linecap="round" stroke-linejoin="round"/>
<path d="M33.1503 18C33.1503 18.5517 32.9311 19.0807 32.541 19.4708C32.1509 19.8609 31.6219 20.08 31.0703 20.08C30.5186 20.08 29.9896 19.8609 29.5995 19.4708C29.2094 19.0807 28.9902 18.5517 28.9902 18" stroke="#404366" stroke-width="0.75" stroke-linecap="round" stroke-linejoin="round"/>
<path d="M37.6802 27.0001C37.7604 27.1972 37.8045 27.4073 37.8102 27.6201C37.8109 27.9179 37.724 28.2094 37.5605 28.4583C37.3969 28.7072 37.1638 28.9025 36.8902 29.0201C36.5902 29.1501 36.2402 29.3001 35.8902 29.4401C36.1111 29.5015 36.3156 29.6115 36.4886 29.762C36.6616 29.9125 36.7988 30.0998 36.8902 30.3101C36.9772 30.5051 37.0215 30.7165 37.0202 30.9301C37.0209 31.2279 36.934 31.5194 36.7704 31.7683C36.6069 32.0172 36.3738 32.2125 36.1002 32.3301L35.5102 32.5801V32.6801C35.5109 32.9779 35.424 33.2694 35.2604 33.5183C35.0969 33.7672 34.8639 33.9625 34.5902 34.0801C32.6702 34.9101 29.1302 36.4101 26.0202 36.2401H20.6002C20.2932 36.2503 19.9897 36.3077 19.7002 36.4101L11.6102 39.3401C11.6102 39.3401 7.4602 28.3401 7.4502 28.3401L17.5302 26.4901L18.8602 24.5701C19.2889 23.9407 19.9324 23.4891 20.6702 23.3001L28.5802 21.3001C28.7866 21.2468 29.0025 21.2413 29.2114 21.2841C29.4202 21.327 29.6165 21.4169 29.7853 21.5471C29.9541 21.6774 30.0909 21.8444 30.1854 22.0355C30.2798 22.2267 30.3294 22.4369 30.3302 22.6501C30.3303 22.9191 30.254 23.1827 30.1102 23.4101L29.5102 24.4901C31.3734 24.2924 33.2166 23.9378 35.0202 23.4301L36.0202 23.1101C36.3833 22.9847 36.7802 23.0004 37.1322 23.1542C37.4842 23.3079 37.7655 23.5885 37.9202 23.9401C38.0024 24.1366 38.0465 24.347 38.0502 24.5601C38.0508 24.8579 37.964 25.1494 37.8005 25.3983C37.6369 25.6472 37.4038 25.8425 37.1302 25.9601L36.6402 26.1701C36.8654 26.2198 37.0763 26.3205 37.2565 26.4643C37.4368 26.6082 37.5817 26.7915 37.6802 27.0001Z" fill="white" stroke="#404366" stroke-width="0.75" stroke-linecap="round" stroke-linejoin="round"/>
<path d="M28.48 27.8701C31.2785 27.8356 34.041 27.2335 36.6 26.1001" stroke="#404366" stroke-width="0.75" stroke-linecap="round" stroke-linejoin="round"/>
<path d="M29.5101 24.4199C28.5101 24.5199 27.5101 24.5899 26.5801 24.5999" stroke="#404366" stroke-width="0.75" stroke-linecap="round" stroke-linejoin="round"/>
<path d="M35.86 29.4099C33.4664 30.4308 30.8923 30.9613 28.29 30.9699" stroke="#404366" stroke-width="0.75" stroke-linecap="round" stroke-linejoin="round"/>
<path d="M35.8601 29.4099H35.8501" stroke="#404366" stroke-width="0.75" stroke-linecap="round" stroke-linejoin="round"/>
<path d="M27.4902 34.2701C30.2462 34.2471 32.9684 33.6618 35.4902 32.55" stroke="#404366" stroke-width="0.75" stroke-linecap="round" stroke-linejoin="round"/>
<path d="M29.51 24.4199H29.5" stroke="#404366" stroke-width="0.75" stroke-linecap="round" stroke-linejoin="round"/>
<path d="M7.44989 28.27L0.379883 29.57L4.80988 41.73L11.6099 39.27" stroke="#404366" stroke-width="0.75" stroke-linecap="round" stroke-linejoin="round"/>
<path d="M7.03868 2.15769L5.38379 3.81201L17.6005 16.0329L19.2554 14.3786L7.03868 2.15769Z" fill="#404366"/>
<path d="M33.5735 28.6361L31.9194 30.2913L43.3644 41.7282L45.0184 40.0731L33.5735 28.6361Z" fill="#404366"/>
<path d="M31.7598 35.48V38.08C31.7567 38.688 31.9496 39.281 32.3098 39.7709C32.67 40.2608 33.1784 40.6216 33.7598 40.8L40.5498 42.75" stroke="#404366" stroke-width="0.75" stroke-linecap="round" stroke-linejoin="round"/>
</svg>
