<svg width="58" height="58" viewBox="0 0 58 58" fill="none" xmlns="http://www.w3.org/2000/svg">
<path d="M33.3308 23.55C34.0806 22.8002 34.0806 21.5845 33.3308 20.8347C32.581 20.0849 31.3653 20.0849 30.6155 20.8347L29.2437 22.2065C28.4939 22.9563 28.4939 24.172 29.2437 24.9218C29.9935 25.6716 31.2092 25.6716 31.959 24.9218L33.3308 23.55Z" stroke="#404366" stroke-width="0.83" stroke-linecap="round" stroke-linejoin="round"/>
<path d="M36.0413 26.2624C36.7911 25.5126 36.7911 24.2969 36.0412 23.5471C35.2914 22.7973 34.0758 22.7973 33.326 23.5471L31.9542 24.9189C31.2044 25.6687 31.2044 26.8844 31.9542 27.6342C32.704 28.384 33.9197 28.384 34.6695 27.6342L36.0413 26.2624Z" stroke="#404366" stroke-width="0.83" stroke-linecap="round" stroke-linejoin="round"/>
<path d="M38.3186 29.4192C39.0684 28.6694 39.0684 27.4537 38.3186 26.7038C37.5688 25.954 36.3531 25.9541 35.6033 26.7039L34.2315 28.0756C33.4817 28.8254 33.4817 30.0411 34.2315 30.7909C34.9813 31.5408 36.197 31.5407 36.9468 30.7909L38.3186 29.4192Z" stroke="#404366" stroke-width="0.83" stroke-linecap="round" stroke-linejoin="round"/>
<path d="M29.93 21.5201C29.7043 21.294 29.4362 21.1146 29.1411 20.9921C28.8459 20.8697 28.5295 20.8066 28.21 20.8066C27.8905 20.8066 27.5741 20.8697 27.279 20.9921C26.9839 21.1146 26.7157 21.294 26.49 21.5201L22.11 25.9001C22.11 25.9001 22.04 29.2401 22.11 29.3001L6.79004 43.3001" stroke="#404366" stroke-width="0.83" stroke-linecap="round" stroke-linejoin="round"/>
<path d="M31.4004 26.4699C31.3177 26.8124 31.1193 27.1159 30.8387 27.3291C30.5581 27.5423 30.2125 27.6521 29.8604 27.64C29.1423 27.5094 28.4822 27.1601 27.9704 26.64C27.4304 26.17 27.0404 25.8499 26.6104 25.4299" stroke="#404366" stroke-width="0.83" stroke-linecap="round" stroke-linejoin="round"/>
<path d="M36.8005 30.8901L34.0005 34.7201C33.5017 35.2111 32.8305 35.4875 32.1305 35.4901H29.8805L21.5205 46.0801" stroke="#404366" stroke-width="0.83" stroke-linecap="round" stroke-linejoin="round"/>
<path d="M28.14 26.8501C28.5398 28.1647 28.4762 29.5767 27.96 30.8501" stroke="#404366" stroke-width="0.83" stroke-linecap="round" stroke-linejoin="round"/>
<path d="M32.96 39.2V42.52" stroke="#404366" stroke-width="0.83" stroke-linecap="round" stroke-linejoin="round"/>
<path d="M40.6802 31.1799H44.0002" stroke="#404366" stroke-width="0.83" stroke-linecap="round" stroke-linejoin="round"/>
<path d="M37.5 35.1899L39.85 37.5399" stroke="#404366" stroke-width="0.83" stroke-linecap="round" stroke-linejoin="round"/>
<path d="M25.54 17.07V13.74" stroke="#404366" stroke-width="0.83" stroke-linecap="round" stroke-linejoin="round"/>
<path d="M17.82 25.0801H14.5" stroke="#404366" stroke-width="0.83" stroke-linecap="round" stroke-linejoin="round"/>
<path d="M21.0004 21.07L18.6504 18.72" stroke="#404366" stroke-width="0.83" stroke-linecap="round" stroke-linejoin="round"/>
<path d="M48.42 48.9301V24.47L50.56 26.3101L53.05 23.4001L27.42 5.34009L1.79004 23.4001L4.28003 26.3101L6.42004 24.47V48.9301" stroke="#404366" stroke-width="0.83" stroke-linecap="round" stroke-linejoin="round"/>
<path d="M1.43018 48.9299H53.5602" stroke="#404366" stroke-width="0.83" stroke-linecap="round" stroke-linejoin="round"/>
<path d="M2.77882 0.27221L0.0917969 2.95923L15.0542 17.9216L17.7412 15.2346L2.77882 0.27221Z" fill="#404366"/>
<path d="M42.7075 40.1016L40.0205 42.7886L54.9829 57.751L57.6699 55.064L42.7075 40.1016Z" fill="#404366"/>
</svg>
