<svg width="61" height="60" viewBox="0 0 61 60" fill="none" xmlns="http://www.w3.org/2000/svg">
<path d="M31.53 16.12C31.5326 16.5917 31.3939 17.0533 31.1316 17.4454C30.8693 17.8374 30.4956 18.1419 30.0586 18.3195C29.6216 18.497 29.1415 18.5396 28.6801 18.4417C28.2187 18.3437 27.7971 18.1098 27.47 17.77V27.13H17.92C18.2347 26.8822 18.4811 26.5584 18.6361 26.1891C18.7911 25.8198 18.8495 25.4171 18.8059 25.019C18.7623 24.6208 18.6181 24.2403 18.3868 23.9133C18.1556 23.5863 17.845 23.3235 17.4841 23.1497C17.1233 22.9759 16.7241 22.8968 16.3242 22.9198C15.9244 22.9428 15.537 23.0672 15.1985 23.2813C14.86 23.4954 14.5815 23.7921 14.3893 24.1436C14.1971 24.495 14.0976 24.8895 14.1 25.29C14.098 25.6464 14.1793 25.9983 14.3373 26.3177C14.4953 26.6371 14.7256 26.9153 15.01 27.13H5.45996V17.89C5.8908 18.2713 6.44475 18.4843 7.02002 18.49C7.40302 18.492 7.78076 18.4007 8.12061 18.2241C8.46045 18.0475 8.75211 17.7908 8.97058 17.4762C9.18905 17.1616 9.3277 16.7986 9.37451 16.4185C9.42132 16.0384 9.37488 15.6526 9.23926 15.2944C9.10363 14.9362 8.88291 14.6164 8.59607 14.3626C8.30923 14.1088 7.96493 13.9286 7.5929 13.8376C7.22086 13.7467 6.83229 13.7476 6.46069 13.8403C6.08909 13.9331 5.74559 14.1149 5.45996 14.37V5.12003H15.2C14.8591 4.91047 14.5786 4.61598 14.3857 4.26538C14.1929 3.91478 14.0944 3.52011 14.1 3.12003C14.139 2.52196 14.4041 1.96113 14.8414 1.55136C15.2788 1.14159 15.8556 0.913574 16.455 0.913574C17.0543 0.913574 17.6312 1.14159 18.0686 1.55136C18.506 1.96113 18.7711 2.52196 18.8101 3.12003C18.8176 3.52047 18.72 3.9159 18.527 4.26685C18.334 4.61779 18.0522 4.91197 17.71 5.12003H27.47V14.51C27.6881 14.2783 27.9517 14.0938 28.2441 13.9682C28.5366 13.8426 28.8518 13.7786 29.17 13.78C29.7925 13.78 30.3898 14.0259 30.8318 14.4642C31.2738 14.9024 31.5248 15.4976 31.53 16.12V16.12Z" stroke="#404366" stroke-width="0.75" stroke-linecap="round" stroke-linejoin="round"/>
<path d="M1.33984 44.1501C1.33984 44.7786 1.5896 45.3814 2.03406 45.8259C2.47852 46.2704 3.08128 46.5201 3.70984 46.5201C4.02662 46.5177 4.33989 46.4529 4.63159 46.3293C4.92329 46.2058 5.18778 46.0259 5.40991 45.8V55.1501H14.9999C14.7185 54.9332 14.4909 54.6544 14.3348 54.3353C14.1787 54.0161 14.0983 53.6653 14.0999 53.3101C14.0788 52.9879 14.1242 52.6649 14.233 52.3609C14.3419 52.0569 14.5119 51.7785 14.7327 51.5429C14.9534 51.3073 15.2201 51.1195 15.5164 50.9911C15.8126 50.8628 16.132 50.7965 16.4548 50.7965C16.7777 50.7965 17.0972 50.8628 17.3934 50.9911C17.6897 51.1195 17.9564 51.3073 18.1771 51.5429C18.3979 51.7785 18.5679 52.0569 18.6768 52.3609C18.7856 52.6649 18.8309 52.9879 18.8099 53.3101C18.8135 53.6667 18.7328 54.0191 18.5747 54.3388C18.4166 54.6585 18.1855 54.9364 17.8999 55.1501H27.4498V45.9201C27.1109 46.22 26.6926 46.4156 26.2451 46.4835C25.7977 46.5514 25.3401 46.4886 24.9275 46.3027C24.5148 46.1168 24.1647 45.8158 23.9191 45.4357C23.6734 45.0556 23.5427 44.6126 23.5427 44.1601C23.5427 43.7075 23.6734 43.2646 23.9191 42.8845C24.1647 42.5044 24.5148 42.2033 24.9275 42.0174C25.3401 41.8315 25.7977 41.7688 26.2451 41.8366C26.6926 41.9045 27.1109 42.1002 27.4498 42.4001V33.1501H17.7098C18.0521 32.942 18.3338 32.6478 18.5269 32.2969C18.7199 31.9459 18.8175 31.5505 18.8099 31.1501C18.7709 30.552 18.5058 29.9912 18.0685 29.5814C17.6311 29.1716 17.0542 28.9436 16.4548 28.9436C15.8555 28.9436 15.2787 29.1716 14.8413 29.5814C14.4039 29.9912 14.1388 30.552 14.0999 31.1501C14.0943 31.5513 14.1939 31.947 14.3887 32.2978C14.5834 32.6487 14.8664 32.9425 15.2098 33.1501H5.44983V42.5401C5.12564 42.1992 4.70706 41.963 4.24768 41.8618C3.7883 41.7606 3.30912 41.7989 2.8717 41.972C2.43428 42.145 2.05854 42.4448 1.79272 42.8329C1.52691 43.221 1.38316 43.6797 1.37988 44.1501H1.33984Z" stroke="#404366" stroke-width="0.75" stroke-linecap="round" stroke-linejoin="round"/>
<path d="M21.2501 11.4099C22.5535 11.4099 23.6101 10.3533 23.6101 9.04993C23.6101 7.74653 22.5535 6.68994 21.2501 6.68994C19.9467 6.68994 18.8901 7.74653 18.8901 9.04993C18.8901 10.3533 19.9467 11.4099 21.2501 11.4099Z" stroke="#404366" stroke-width="0.75" stroke-linecap="round" stroke-linejoin="round"/>
<path d="M24.6097 15C24.5904 15.7544 24.3839 16.492 24.0085 17.1466C23.6332 17.8013 23.1009 18.3523 22.4597 18.75V21.21H20.9998V19.48C20.3537 19.6898 19.679 19.7977 18.9998 19.8C18.1795 19.8026 17.3657 19.6535 16.5997 19.36V21.21H15.0997V18.49C14.3303 17.9116 13.7661 17.1021 13.4897 16.18H11.7598V14H13.4497C13.6339 13.3208 13.9649 12.6903 14.4193 12.1529C14.8737 11.6156 15.4405 11.1845 16.0797 10.89L16.6198 9.28003L17.5498 10.37C18.026 10.2647 18.5121 10.2111 18.9998 10.21C22.0798 10.23 24.6097 12.38 24.6097 15Z" fill="white" stroke="#404366" stroke-width="0.75" stroke-linecap="round" stroke-linejoin="round"/>
<path d="M16.7998 14.8799C17.214 14.8799 17.5498 14.5441 17.5498 14.1299C17.5498 13.7157 17.214 13.3799 16.7998 13.3799C16.3856 13.3799 16.0498 13.7157 16.0498 14.1299C16.0498 14.5441 16.3856 14.8799 16.7998 14.8799Z" fill="#404366"/>
<path d="M60.5402 16.46C60.629 15.8385 60.4686 15.207 60.094 14.7032C59.7194 14.1993 59.1609 13.8639 58.5402 13.77C57.9065 13.687 57.2652 13.8518 56.7501 14.23L58.1301 4.98001L48.6802 3.57001C48.9655 3.85731 49.172 4.21317 49.28 4.60339C49.388 4.99361 49.3937 5.40505 49.2968 5.79816C49.1998 6.19126 49.0033 6.55281 48.7262 6.84802C48.4491 7.14324 48.1007 7.36221 47.7145 7.48386C47.3283 7.6055 46.9174 7.62574 46.5211 7.54263C46.1248 7.45953 45.7566 7.27589 45.4518 7.00934C45.147 6.74279 44.916 6.4023 44.7809 6.02063C44.6457 5.63896 44.6111 5.22893 44.6802 4.82999C44.7292 4.47763 44.8607 4.14184 45.064 3.84991C45.2673 3.55799 45.5366 3.31818 45.8501 3.14999L36.4102 1.73999L35.0502 10.87C35.4309 10.6199 35.8759 10.4853 36.3314 10.4825C36.787 10.4797 37.2335 10.6088 37.6173 10.8542C38.0011 11.0997 38.3057 11.4509 38.4943 11.8656C38.6828 12.2803 38.7473 12.7407 38.6799 13.1913C38.6126 13.6418 38.4164 14.0632 38.1149 14.4047C37.8133 14.7461 37.4194 14.993 36.9806 15.1155C36.5418 15.238 36.077 15.2309 35.6422 15.0951C35.2074 14.9593 34.8211 14.7005 34.5302 14.35L33.1602 23.5L42.8002 24.94C42.4342 25.0938 42.114 25.3393 41.8705 25.6528C41.627 25.9664 41.4685 26.3374 41.4102 26.73C41.3549 27.33 41.5311 27.9284 41.9028 28.4026C42.2746 28.8768 42.8137 29.1909 43.4095 29.2804C44.0054 29.3699 44.613 29.2281 45.1077 28.8841C45.6023 28.54 45.9466 28.0198 46.0701 27.43C46.1331 27.0375 46.0925 26.6355 45.9521 26.2636C45.8118 25.8917 45.5767 25.563 45.2701 25.31L54.9302 26.74L56.3102 17.46C56.4891 17.7256 56.7208 17.9515 56.991 18.1236C57.2611 18.2957 57.5638 18.4102 57.8801 18.46C58.4969 18.5403 59.1206 18.376 59.6178 18.0022C60.115 17.6284 60.4461 17.0748 60.5402 16.46V16.46Z" stroke="#404366" stroke-width="0.75" stroke-linecap="round" stroke-linejoin="round"/>
<path d="M45.5403 20.2C41.6403 18.1 38.9202 11.93 41.9702 10.11C45.0202 8.28996 46.8202 11.63 46.8202 11.63C46.8202 11.63 49.5102 8.93998 51.9002 11.63C54.2902 14.32 49.9103 19.33 45.5403 20.2Z" stroke="#404366" stroke-width="0.75" stroke-linecap="round" stroke-linejoin="round"/>
<path d="M51.1697 16.5087L46.244 14.37C45.4587 14.029 44.5459 14.3892 44.205 15.1744L44.201 15.1836C43.86 15.9688 44.2201 16.8817 45.0054 17.2227L49.9311 19.3614C50.7163 19.7023 51.6293 19.3422 51.9702 18.5569L51.9742 18.5478C52.3151 17.7625 51.9549 16.8496 51.1697 16.5087Z" fill="white" stroke="#404366" stroke-width="0.75" stroke-linecap="round" stroke-linejoin="round"/>
<path d="M47.5303 15.05L46.7402 16.6601" stroke="#404366" stroke-width="0.75" stroke-linecap="round" stroke-linejoin="round"/>
<path d="M50 16L49.3101 17.57" stroke="#404366" stroke-width="0.75" stroke-linecap="round" stroke-linejoin="round"/>
<path d="M11.0498 46.8701C11.0498 44.5972 11.9526 42.4173 13.5598 40.8102C15.167 39.203 17.3468 38.3 19.6198 38.3" stroke="#404366" stroke-width="0.75" stroke-linecap="round" stroke-linejoin="round"/>
<path d="M13.1899 46.8699C13.1926 45.1654 13.8709 43.5315 15.0762 42.3262C16.2815 41.1209 17.9155 40.4426 19.62 40.4399" stroke="#404366" stroke-width="0.75" stroke-linecap="round" stroke-linejoin="round"/>
<path d="M15.3398 46.8701C15.3398 45.735 15.7909 44.6463 16.5935 43.8437C17.3962 43.041 18.4847 42.5901 19.6199 42.5901" stroke="#404366" stroke-width="0.75" stroke-linecap="round" stroke-linejoin="round"/>
<path d="M18.9901 47.3401C19.5976 47.3401 20.0901 46.8476 20.0901 46.2401C20.0901 45.6326 19.5976 45.1401 18.9901 45.1401C18.3826 45.1401 17.8901 45.6326 17.8901 46.2401C17.8901 46.8476 18.3826 47.3401 18.9901 47.3401Z" fill="#404366"/>
<path d="M29.4302 44.2099C29.4289 43.8992 29.4889 43.5912 29.607 43.3037C29.725 43.0163 29.8985 42.7549 30.1178 42.5347C30.3371 42.3145 30.5977 42.1398 30.8847 42.0205C31.1716 41.9013 31.4794 41.8399 31.7902 41.8399C32.1071 41.8412 32.4206 41.9056 32.7124 42.0292C33.0043 42.1528 33.2687 42.3332 33.4901 42.5599V33.2H43.0001C42.7204 33.4183 42.4941 33.6975 42.3382 34.0162C42.1822 34.335 42.1008 34.6851 42.1001 35.0399C42.1001 35.6659 42.3488 36.2661 42.7914 36.7087C43.234 37.1513 43.8342 37.3999 44.4601 37.3999C45.086 37.3999 45.6863 37.1513 46.1289 36.7087C46.5715 36.2661 46.8201 35.6659 46.8201 35.0399C46.822 34.6836 46.7409 34.3317 46.5829 34.0123C46.4249 33.6928 46.1946 33.4147 45.9102 33.2H55.4501V42.4399C55.1111 42.14 54.6928 41.9444 54.2454 41.8765C53.7979 41.8086 53.3404 41.8714 52.9278 42.0573C52.5151 42.2432 52.165 42.5442 51.9193 42.9243C51.6737 43.3044 51.543 43.7474 51.543 44.2C51.543 44.6525 51.6737 45.0955 51.9193 45.4756C52.165 45.8556 52.5151 46.1567 52.9278 46.3426C53.3404 46.5285 53.7979 46.5912 54.2454 46.5233C54.6928 46.4555 55.1111 46.2598 55.4501 45.9599V55.2099H45.7101C46.0535 55.4175 46.3367 55.7113 46.5314 56.0622C46.7261 56.413 46.8256 56.8087 46.8201 57.2099C46.8201 57.8358 46.5715 58.4361 46.1289 58.8787C45.6863 59.3213 45.086 59.5699 44.4601 59.5699C43.8342 59.5699 43.234 59.3213 42.7914 58.8787C42.3488 58.4361 42.1001 57.8358 42.1001 57.2099C42.0946 56.8087 42.1942 56.413 42.3889 56.0622C42.5837 55.7113 42.8667 55.4175 43.2101 55.2099H33.4501V45.8199C33.232 46.0517 32.9685 46.2361 32.676 46.3617C32.3836 46.4873 32.0684 46.5514 31.7501 46.5499C31.1338 46.5421 30.5453 46.2924 30.1113 45.8547C29.6774 45.417 29.4328 44.8263 29.4302 44.2099V44.2099Z" stroke="#404366" stroke-width="0.75" stroke-linecap="round" stroke-linejoin="round"/>
<path d="M48.7603 43.0701V46.8501H46.5203V49.0901H42.7302V46.8501H40.4902V43.0701H42.7302V40.8201H46.5203V43.0701H48.7603Z" stroke="#404366" stroke-width="0.75" stroke-linecap="round" stroke-linejoin="round"/>
<path d="M41.4501 41.91C40.6014 39.8214 39.053 38.0927 37.0701 37.02C36.3367 39.2513 36.3367 41.6588 37.0701 43.89C37.4562 44.993 38.1022 45.9867 38.9533 46.7874C39.8044 47.588 40.8357 48.172 41.9601 48.49" stroke="#404366" stroke-width="0.75" stroke-linecap="round" stroke-linejoin="round"/>
<path d="M51.9999 36.6001C50.9463 36.7249 49.973 37.2253 49.2585 38.0096C48.544 38.7939 48.1362 39.8095 48.1099 40.8701C49.1482 40.8499 50.1379 40.4268 50.8699 39.6901C51.5921 38.8215 51.9914 37.7297 51.9999 36.6001V36.6001Z" stroke="#404366" stroke-width="0.75" stroke-linecap="round" stroke-linejoin="round"/>
<path d="M40.4902 43.94C39.6665 42.991 38.9922 41.9221 38.4902 40.77" stroke="#404366" stroke-width="0.75" stroke-linecap="round" stroke-linejoin="round"/>
</svg>
