<svg width="61" height="46" viewBox="0 0 61 46" fill="none" xmlns="http://www.w3.org/2000/svg">
<path d="M26.9999 4.26001V37.47C26.9999 37.47 26.4199 37.21 25.3099 36.84C22.3099 35.84 15.2299 33.96 4.62988 33.96V0.75C19.1799 0.75 26.9999 4.26001 26.9999 4.26001Z" stroke="#404366" stroke-width="0.75" stroke-linecap="round" stroke-linejoin="round"/>
<path d="M8.37988 8.31006C13.2568 8.49534 18.0988 9.21295 22.8198 10.4501" stroke="#404366" stroke-width="0.75" stroke-linecap="round" stroke-linejoin="round"/>
<path d="M8.37988 13.5901C13.2563 13.7807 18.0977 14.4983 22.8198 15.7301" stroke="#404366" stroke-width="0.75" stroke-linecap="round" stroke-linejoin="round"/>
<path d="M8.37988 18.8701C13.2572 19.0579 18.0993 19.7788 22.8198 21.0201" stroke="#404366" stroke-width="0.75" stroke-linecap="round" stroke-linejoin="round"/>
<path d="M8.37988 24.1599C13.2568 24.3452 18.0988 25.0628 22.8198 26.2999" stroke="#404366" stroke-width="0.75" stroke-linecap="round" stroke-linejoin="round"/>
<path d="M45.4298 8.31006C40.5529 8.49534 35.7108 9.21295 30.9897 10.4501" stroke="#404366" stroke-width="0.75" stroke-linecap="round" stroke-linejoin="round"/>
<path d="M45.4298 13.5901C40.5534 13.7807 35.7118 14.4983 30.9897 15.7301" stroke="#404366" stroke-width="0.75" stroke-linecap="round" stroke-linejoin="round"/>
<path d="M45.4301 18.8701C40.5568 19.0521 35.718 19.7663 31 21.0001" stroke="#404366" stroke-width="0.75" stroke-linecap="round" stroke-linejoin="round"/>
<path d="M45.4301 24.1599C40.5565 24.3459 35.7178 25.0635 31 26.2999" stroke="#404366" stroke-width="0.75" stroke-linecap="round" stroke-linejoin="round"/>
<path d="M25.3397 38.6501V41.0001C25.3397 41.0001 16.6398 37.4901 0.549805 37.4901V4.30005H2.22974V35.7001C14.2097 35.7201 22.0797 37.6501 25.3397 38.6501Z" stroke="#404366" stroke-width="0.75" stroke-linecap="round" stroke-linejoin="round"/>
<path d="M26.9998 37.4701V39.2201C26.9998 39.2201 26.4298 39.0001 25.3098 38.6501C22.0498 37.6501 14.1797 35.7201 2.19971 35.7201V2.33008C3.02971 2.33008 3.83976 2.33008 4.62976 2.33008V34.0001C15.2298 34.0001 22.2698 35.8701 25.3098 36.8801C26.4498 37.2101 26.9998 37.4701 26.9998 37.4701Z" stroke="#404366" stroke-width="0.75" stroke-linecap="round" stroke-linejoin="round"/>
<path d="M49.3898 0.75V34C38.7898 34 31.7497 35.87 28.7097 36.88C27.5997 37.25 27.0298 37.51 27.0298 37.51V4.26001C27.0298 4.26001 34.8698 0.75 49.3898 0.75Z" stroke="#404366" stroke-width="0.75" stroke-linecap="round" stroke-linejoin="round"/>
<path d="M53.5 4.30005V37.5101C37.41 37.5101 28.71 41.0201 28.71 41.0201V38.6501C31.97 37.6501 39.8399 35.7201 51.8199 35.7201V4.32007L53.5 4.30005Z" stroke="#404366" stroke-width="0.75" stroke-linecap="round" stroke-linejoin="round"/>
<path d="M51.8197 2.33008V35.7201C39.8197 35.7201 31.9697 37.6501 28.7097 38.6501C27.5897 39.0001 27.0298 39.2201 27.0298 39.2201V37.4701C27.0298 37.4701 27.5997 37.2101 28.7097 36.8401C31.7097 35.8401 38.7898 33.9601 49.3898 33.9601V2.37009C50.1798 2.34009 50.9997 2.33008 51.8197 2.33008Z" stroke="#404366" stroke-width="0.75" stroke-linecap="round" stroke-linejoin="round"/>
<path d="M28.7098 38.6499V40.9999C28.7098 40.9999 28.5898 41.9999 27.0898 41.9999C25.5898 41.9999 25.3398 40.9999 25.3398 40.9999V38.6299C26.4598 38.9799 27.0299 39.1999 27.0299 39.1999C27.0299 39.1999 27.5898 38.9999 28.7098 38.6499Z" stroke="#404366" stroke-width="0.75" stroke-linecap="round" stroke-linejoin="round"/>
<path d="M41.04 21.1899L59.92 31.6099L54.3199 35.4099L58.9301 42.2099L56.46 43.89L53.99 45.5699L49.37 38.7699L43.77 42.5699L41.04 21.1899Z" fill="white" stroke="#404366" stroke-width="0.75" stroke-linecap="round" stroke-linejoin="round"/>
</svg>
