<svg width="50" height="46" viewBox="0 0 50 46" fill="none" xmlns="http://www.w3.org/2000/svg">
<path d="M0.719727 45.3099C0.719727 45.3099 49.0298 45.0399 49.0298 45.3099H0.719727Z" fill="white"/>
<path d="M0.719727 45.3099C0.719727 45.3099 49.0298 45.0399 49.0298 45.3099" stroke="#404366" stroke-width="0.75" stroke-linecap="round" stroke-linejoin="round"/>
<path d="M10.6396 45.1299L14.8596 20.9199H27.8997L23.6896 45.1299" fill="white"/>
<path d="M10.6396 45.1299L14.8596 20.9199H27.8997L23.6896 45.1299" stroke="#404366" stroke-width="0.75" stroke-linecap="round" stroke-linejoin="round"/>
<path d="M28.7695 45.1301L32.5695 23.3" stroke="#404366" stroke-width="0.75" stroke-linecap="round" stroke-linejoin="round"/>
<path d="M35.96 45.1299V14.46" stroke="#404366" stroke-width="0.75" stroke-linecap="round" stroke-linejoin="round"/>
<path d="M39.7798 45.1299V14.46H20.9897V20.9199" stroke="#404366" stroke-width="0.75" stroke-linecap="round" stroke-linejoin="round"/>
<path d="M32.5697 23.2999C32.138 23.4915 31.6638 23.5673 31.1939 23.52C30.724 23.4726 30.2745 23.3038 29.8897 23.03C29.4649 22.8287 29.0907 22.5346 28.7947 22.1694C28.4988 21.8042 28.2886 21.3772 28.1797 20.9199" fill="white"/>
<path d="M32.5697 23.2999C32.138 23.4915 31.6638 23.5673 31.1939 23.52C30.724 23.4726 30.2745 23.3038 29.8897 23.03C29.4649 22.8287 29.0907 22.5346 28.7947 22.1694C28.4988 21.8042 28.2886 21.3772 28.1797 20.9199" stroke="#404366" stroke-width="0.75" stroke-linecap="round" stroke-linejoin="round"/>
<path d="M22.1501 32.1901L23.1301 26.6001H16.5201L15.54 32.1901H22.1501Z" fill="white" stroke="#404366" stroke-width="0.75" stroke-linecap="round" stroke-linejoin="round"/>
<path d="M29.1598 22.49L25.8198 42.89" stroke="#404366" stroke-width="0.75" stroke-linecap="round" stroke-linejoin="round"/>
<path d="M30.8098 23.52L27.0298 44.92" stroke="#404366" stroke-width="0.75" stroke-linecap="round" stroke-linejoin="round"/>
<path d="M40.6596 31.2399L38.8896 22.2499L37.3496 14.4299L41.2697 13.4299L43.3397 20.96L45.7996 29.9199" fill="white"/>
<path d="M40.6596 31.2399L38.8896 22.2499L37.3496 14.4299L41.2697 13.4299L43.3397 20.96L45.7996 29.9199" stroke="#404366" stroke-width="0.75" stroke-linecap="round" stroke-linejoin="round"/>
<path d="M46.1896 29.8201L48.7196 39.72C49.2796 41.9 49.2796 44.4301 46.9196 45.0301C44.5596 45.6301 43.5096 43.3701 42.9196 41.2001L40.3896 31.3L46.1896 29.8201Z" fill="white" stroke="#404366" stroke-width="0.75" stroke-linecap="round" stroke-linejoin="round"/>
<path d="M39.3398 23.27H39.5098L43.5698 22.27" fill="white"/>
<path d="M39.3398 23.27H39.5098L43.5698 22.27" stroke="#404366" stroke-width="0.75" stroke-linecap="round" stroke-linejoin="round"/>
<path d="M37.08 5L36 11C37.0603 11.8241 37.8279 12.9669 38.19 14.26" fill="white"/>
<path d="M37.08 5L36 11C37.0603 11.8241 37.8279 12.9669 38.19 14.26" stroke="#404366" stroke-width="0.75" stroke-linecap="round" stroke-linejoin="round"/>
<path d="M37.0801 5L40.9401 9.71002C40.0301 11.22 40.5801 13.63 40.5801 13.63" fill="white"/>
<path d="M37.0801 5L40.9401 9.71002C40.0301 11.22 40.5801 13.63 40.5801 13.63" stroke="#404366" stroke-width="0.75" stroke-linecap="round" stroke-linejoin="round"/>
<path d="M37.0898 5L37.1498 5.23999L38.3098 9.73999" fill="white"/>
<path d="M37.0898 5L37.1498 5.23999L38.3098 9.73999" stroke="#404366" stroke-width="0.75" stroke-linecap="round" stroke-linejoin="round"/>
<path d="M38.4795 10.9099C38.7556 10.9099 38.9795 10.6861 38.9795 10.4099C38.9795 10.1338 38.7556 9.90991 38.4795 9.90991C38.2033 9.90991 37.9795 10.1338 37.9795 10.4099C37.9795 10.6861 38.2033 10.9099 38.4795 10.9099Z" fill="white" stroke="#404366" stroke-width="0.75" stroke-linecap="round" stroke-linejoin="round"/>
<path d="M41.8697 7.33004V3.00002C41.8697 3.00002 3.67969 2.80002 3.67969 3.00002V29.12H13.4197" stroke="#404366" stroke-width="0.75" stroke-linecap="round" stroke-linejoin="round"/>
<path d="M43.8594 16.1601V0.390137H1.10938V32.3701H12.8594" stroke="#404366" stroke-width="0.75" stroke-linecap="round" stroke-linejoin="round"/>
<path d="M12.1594 36.3901H1.10938V33.79H12.6194" stroke="#404366" stroke-width="0.75" stroke-linecap="round" stroke-linejoin="round"/>
</svg>
