<svg width="59" height="46" viewBox="0 0 59 46" fill="none" xmlns="http://www.w3.org/2000/svg">
<path d="M47.9703 22.72L24.4503 9.09009L1.07031 22.72L24.5203 36.36L47.9703 22.72Z" stroke="#404366" stroke-width="0.75" stroke-linecap="round" stroke-linejoin="round"/>
<path d="M24.45 22.6499L12.71 29.4899V44.0099" stroke="#404366" stroke-width="0.75" stroke-linecap="round" stroke-linejoin="round"/>
<path d="M1.07031 24.97L24.5203 38.61L47.9703 24.97" stroke="#404366" stroke-width="0.75" stroke-linecap="round" stroke-linejoin="round"/>
<path d="M6.59033 28.1799V41.5999H42.3503V28.2399" stroke="#404366" stroke-width="0.75" stroke-linecap="round" stroke-linejoin="round"/>
<path d="M12.7103 39.0999C13.6602 39.0999 14.4302 38.3299 14.4302 37.3799C14.4302 36.43 13.6602 35.6599 12.7103 35.6599C11.7603 35.6599 10.9902 36.43 10.9902 37.3799C10.9902 38.3299 11.7603 39.0999 12.7103 39.0999Z" fill="#404366"/>
<path d="M12.7103 37.8599C13.6121 37.8599 14.4768 38.2181 15.1144 38.8557C15.7521 39.4933 16.1103 40.3582 16.1103 41.2599V45.6099H9.32031V41.2599C9.32031 40.3599 9.67716 39.4966 10.3126 38.8593C10.9481 38.2219 11.8103 37.8625 12.7103 37.8599Z" fill="#404366"/>
<path d="M24.5999 23.59C25.1135 23.59 25.53 23.1736 25.53 22.66C25.53 22.1463 25.1135 21.73 24.5999 21.73C24.0863 21.73 23.6699 22.1463 23.6699 22.66C23.6699 23.1736 24.0863 23.59 24.5999 23.59Z" fill="#404366"/>
<path d="M15.6104 14.2401V0.790039H58.0204V32.35H42.3503" stroke="#404366" stroke-width="0.75" stroke-miterlimit="10"/>
<path d="M33.7305 14.41C35.0209 13.7758 36.4926 13.6131 37.8905 13.95C39.2788 14.2886 40.7217 14.3396 42.1305 14.1C42.9811 13.8671 43.7434 13.3868 44.3205 12.72C44.9805 11.95 45.3205 10.84 45.9105 10.03C47.2305 8.32003 48.6105 8.76003 51.5705 7.03003" stroke="#404366" stroke-width="0.75" stroke-linecap="round" stroke-linejoin="round"/>
<path d="M50.8003 5.69995L52.4103 8.41992L53.9503 5.66992L50.8003 5.69995Z" stroke="#404366" stroke-width="0.75" stroke-linecap="round" stroke-linejoin="round"/>
<path d="M47.8701 30.02H55.1101V11.4399" stroke="#404366" stroke-width="0.75" stroke-linecap="round" stroke-linejoin="round"/>
<path d="M55.1105 3.3501H18.5205V12.5401" stroke="#404366" stroke-width="0.75" stroke-linecap="round" stroke-linejoin="round"/>
</svg>
