<svg width="66" height="43" viewBox="0 0 66 43" fill="none" xmlns="http://www.w3.org/2000/svg">
<path d="M32.53 3.25L21.21 14.61V22.58" stroke="#404366" stroke-width="0.75" stroke-linecap="round" stroke-linejoin="round"/>
<path d="M32.5298 3.25L43.8497 14.41V22.58" stroke="#404366" stroke-width="0.75" stroke-linecap="round" stroke-linejoin="round"/>
<path d="M23.8301 14.6701L32.6401 5.8501L41.4901 14.7001" stroke="#404366" stroke-width="0.75" stroke-linecap="round" stroke-linejoin="round"/>
<path d="M25.9595 9.83008H8.93945V41.86" stroke="#404366" stroke-width="0.75" stroke-linecap="round" stroke-linejoin="round"/>
<path d="M56.6997 41.8599V19.6099" stroke="#404366" stroke-width="0.75" stroke-linecap="round" stroke-linejoin="round"/>
<path d="M39.1094 9.81982H56.6994V19.6098" stroke="#404366" stroke-width="0.75" stroke-linecap="round" stroke-linejoin="round"/>
<path d="M1.73975 41.8599H62.9598" stroke="#404366" stroke-width="0.75" stroke-linecap="round" stroke-linejoin="round"/>
<path d="M43.8496 16.9502H56.6996" stroke="#404366" stroke-width="0.75" stroke-linecap="round" stroke-linejoin="round"/>
<path d="M21.2095 16.9502H8.93945" stroke="#404366" stroke-width="0.75" stroke-linecap="round" stroke-linejoin="round"/>
<path d="M43.8496 18.6299H56.5396" stroke="#404366" stroke-width="0.75" stroke-linecap="round" stroke-linejoin="round"/>
<path d="M21.0494 18.6299H8.93945" stroke="#404366" stroke-width="0.75" stroke-linecap="round" stroke-linejoin="round"/>
<path d="M32.6599 30.8101C32.4934 30.8068 32.331 30.7584 32.1899 30.6701C31.9994 30.5452 31.8655 30.3507 31.8169 30.1282C31.7683 29.9057 31.8089 29.673 31.9299 29.4801L35.4499 24.0301C35.5099 23.9338 35.5887 23.8504 35.6814 23.7849C35.7742 23.7194 35.8791 23.6732 35.99 23.649C36.101 23.6247 36.2156 23.623 36.3272 23.6438C36.4389 23.6646 36.5452 23.7076 36.6399 23.7701C36.7353 23.8311 36.8176 23.9102 36.8823 24.003C36.947 24.0959 36.9927 24.2006 37.0169 24.3111C37.041 24.4217 37.0432 24.5359 37.0231 24.6473C37.003 24.7586 36.9612 24.865 36.8999 24.9601L33.3799 30.4101C33.3036 30.5323 33.1975 30.6332 33.0716 30.7032C32.9456 30.7731 32.804 30.8099 32.6599 30.8101V30.8101Z" stroke="#404366" stroke-width="0.75" stroke-linecap="round" stroke-linejoin="round"/>
<path d="M26.4499 22.1097C28.0073 22.1097 29.2699 20.8472 29.2699 19.2897C29.2699 17.7323 28.0073 16.4697 26.4499 16.4697C24.8924 16.4697 23.6299 17.7323 23.6299 19.2897C23.6299 20.8472 24.8924 22.1097 26.4499 22.1097Z" stroke="#404366" stroke-width="0.75" stroke-linecap="round" stroke-linejoin="round"/>
<path d="M23.6295 27.8799L21.7695 33.2699H26.4495" stroke="#404366" stroke-width="0.75" stroke-linecap="round" stroke-linejoin="round"/>
<path d="M29.2697 27.8799L31.1297 33.2699H26.4497" stroke="#404366" stroke-width="0.75" stroke-linecap="round" stroke-linejoin="round"/>
<path d="M25.9495 33.27H24.2295V39.38H25.9495V33.27Z" stroke="#404366" stroke-width="0.75" stroke-linecap="round" stroke-linejoin="round"/>
<path d="M28.8401 33.27H27.1201V39.38H28.8401V33.27Z" stroke="#404366" stroke-width="0.75" stroke-linecap="round" stroke-linejoin="round"/>
<path d="M20.1197 30.8101C19.953 30.8084 19.7902 30.7599 19.6498 30.6701C19.5544 30.6092 19.472 30.53 19.4073 30.4372C19.3426 30.3443 19.2969 30.2396 19.2727 30.1291C19.2486 30.0185 19.2465 29.9043 19.2666 29.793C19.2867 29.6816 19.3285 29.5753 19.3897 29.4801L22.9097 24.0301C22.9697 23.9338 23.0484 23.8504 23.1412 23.7849C23.234 23.7194 23.3389 23.6732 23.4499 23.649C23.5608 23.6247 23.6755 23.623 23.7871 23.6438C23.8987 23.6646 24.005 23.7076 24.0997 23.7701C24.195 23.8311 24.2774 23.9102 24.3421 24.003C24.4068 24.0959 24.4526 24.2006 24.4767 24.3111C24.5009 24.4217 24.503 24.5359 24.4829 24.6473C24.4628 24.7586 24.421 24.865 24.3597 24.9601L20.8398 30.4101C20.7635 30.5323 20.6574 30.6332 20.5314 30.7032C20.4055 30.7731 20.2638 30.8099 20.1197 30.8101Z" fill="white" stroke="#404366" stroke-width="0.75" stroke-linecap="round" stroke-linejoin="round"/>
<path d="M32.6594 30.81C32.514 30.8096 32.3711 30.7728 32.2436 30.7029C32.116 30.633 32.008 30.5323 31.9295 30.4099L28.4195 25C28.347 24.9057 28.2948 24.7975 28.2663 24.6821C28.2378 24.5667 28.2335 24.4466 28.2537 24.3294C28.274 24.2123 28.3183 24.1006 28.3838 24.0014C28.4494 23.9023 28.5347 23.8178 28.6346 23.7533C28.7345 23.6888 28.8467 23.6457 28.964 23.6267C29.0814 23.6078 29.2014 23.6133 29.3165 23.6431C29.4316 23.6729 29.5393 23.7262 29.6327 23.7997C29.7262 23.8731 29.8034 23.9652 29.8595 24.07L33.3795 29.52C33.4608 29.6504 33.5061 29.7999 33.5108 29.9535C33.5155 30.1071 33.4794 30.2592 33.4062 30.3943C33.3331 30.5294 33.2254 30.6428 33.0943 30.7229C32.9631 30.8029 32.8131 30.8467 32.6594 30.8499V30.81Z" fill="white" stroke="#404366" stroke-width="0.75" stroke-linecap="round" stroke-linejoin="round"/>
<path d="M38.9899 22.1097C40.5474 22.1097 41.8099 20.8472 41.8099 19.2897C41.8099 17.7323 40.5474 16.4697 38.9899 16.4697C37.4325 16.4697 36.1699 17.7323 36.1699 19.2897C36.1699 20.8472 37.4325 22.1097 38.9899 22.1097Z" stroke="#404366" stroke-width="0.75" stroke-linecap="round" stroke-linejoin="round"/>
<path d="M45.1996 30.8101C45.0542 30.8098 44.9112 30.773 44.7836 30.7031C44.6561 30.6332 44.5481 30.5325 44.4696 30.4101L40.9996 25.0001C40.8763 24.8079 40.8344 24.5744 40.8831 24.3513C40.9319 24.1281 41.0673 23.9335 41.2596 23.8101C41.4519 23.6868 41.6853 23.6449 41.9085 23.6937C42.1316 23.7424 42.3263 23.8779 42.4496 24.0701L45.9596 29.5202C46.0842 29.7111 46.1278 29.9437 46.0809 30.1669C46.0341 30.39 45.9005 30.5855 45.7096 30.7102C45.5528 30.7918 45.3757 30.8265 45.1996 30.8101Z" fill="white" stroke="#404366" stroke-width="0.75" stroke-linecap="round" stroke-linejoin="round"/>
<path d="M41.8097 30.0601H36.1797V33.2701H41.8097V30.0601Z" stroke="#404366" stroke-width="0.75" stroke-linejoin="round"/>
<path d="M38.9897 33.27V31.46" stroke="#404366" stroke-width="0.75" stroke-linejoin="round"/>
<path d="M25.9995 39.3799V41.7299H22.4395C22.4372 41.4071 22.5419 41.0927 22.7373 40.8358C22.9327 40.5788 23.2078 40.3939 23.5195 40.3099C23.649 40.2698 23.7839 40.2495 23.9195 40.2499V39.3799H25.9995Z" stroke="#404366" stroke-width="0.75" stroke-linecap="round" stroke-linejoin="round"/>
<path d="M27.0698 39.3799V41.7299H30.6298C30.6304 41.4075 30.525 41.0939 30.3298 40.8373C30.1347 40.5807 29.8606 40.3954 29.5498 40.3099C29.4203 40.2698 29.2854 40.2495 29.1498 40.2499V39.3799H27.0698Z" stroke="#404366" stroke-width="0.75" stroke-linecap="round" stroke-linejoin="round"/>
<path d="M38.4299 33.27H36.71V39.38H38.4299V33.27Z" stroke="#404366" stroke-width="0.75" stroke-linecap="round" stroke-linejoin="round"/>
<path d="M41.3294 33.27H39.6094V39.38H41.3294V33.27Z" stroke="#404366" stroke-width="0.75" stroke-linecap="round" stroke-linejoin="round"/>
<path d="M38.4301 39.3799V41.7299H34.8701C34.8695 41.4075 34.975 41.0939 35.1701 40.8373C35.3653 40.5807 35.6393 40.3954 35.9501 40.3099C36.0797 40.2698 36.2145 40.2495 36.3501 40.2499V39.3799H38.4301Z" stroke="#404366" stroke-width="0.75" stroke-linecap="round" stroke-linejoin="round"/>
<path d="M39.5498 39.3799V41.7299H43.1098C43.1121 41.4071 43.0074 41.0927 42.812 40.8358C42.6165 40.5788 42.3415 40.3939 42.0298 40.3099C41.9003 40.2698 41.7654 40.2495 41.6298 40.2499V39.3799H39.5498Z" stroke="#404366" stroke-width="0.75" stroke-linecap="round" stroke-linejoin="round"/>
<path d="M29.2599 23.6499H23.6299V27.8799H29.2599V23.6499Z" fill="white" stroke="#404366" stroke-width="0.75" stroke-linecap="round" stroke-linejoin="round"/>
<path d="M41.8097 23.6499H36.1797V30.0599H41.8097V23.6499Z" fill="white" stroke="#404366" stroke-width="0.75" stroke-linecap="round" stroke-linejoin="round"/>
<path d="M8.69983 15.1302C12.7646 15.1302 16.0598 11.835 16.0598 7.7702C16.0598 3.70539 12.7646 0.410156 8.69983 0.410156C4.63501 0.410156 1.33984 3.70539 1.33984 7.7702C1.33984 11.835 4.63501 15.1302 8.69983 15.1302Z" fill="white" stroke="#404366" stroke-width="0.75" stroke-linecap="round" stroke-linejoin="round"/>
<path d="M5 7.2002C6.42864 8.23721 7.67842 9.50048 8.70001 10.9402C8.70001 10.9402 12.7 4.72016 16.55 2.16016" stroke="#404366" stroke-width="0.75" stroke-linecap="round" stroke-linejoin="round"/>
<path d="M65.3997 25.6797C65.3997 26.5957 65.0365 27.4742 64.3898 28.1228C63.7431 28.7714 62.8656 29.1371 61.9497 29.1398H61.7697C61.6276 29.6948 61.3047 30.1868 60.8521 30.538C60.3994 30.8893 59.8427 31.0799 59.2697 31.0798H56.6997V14.7197C57.5556 14.7972 58.3515 15.1922 58.9307 15.827C59.51 16.4618 59.8307 17.2904 59.8297 18.1498C59.8349 18.2464 59.8349 18.3432 59.8297 18.4398C60.0169 18.399 60.2081 18.3789 60.3997 18.3798C60.744 18.3757 61.0855 18.4408 61.4041 18.5713C61.7227 18.7018 62.0119 18.8949 62.2544 19.1393C62.4969 19.3837 62.6878 19.6743 62.8159 19.9939C62.9439 20.3135 63.0064 20.6555 62.9997 20.9998C62.9985 21.4683 62.8706 21.9279 62.6297 22.3298C63.4048 22.4875 64.1024 22.9059 64.6064 23.5154C65.1105 24.125 65.3904 24.8889 65.3997 25.6797V25.6797Z" stroke="#404366" stroke-width="0.75" stroke-linecap="round" stroke-linejoin="round"/>
</svg>
