<svg width="57" height="56" viewBox="0 0 57 56" fill="none" xmlns="http://www.w3.org/2000/svg">
<path d="M39.2799 2.78003H3.33984V42.18H19.8499" stroke="#404366" stroke-width="0.75" stroke-linecap="round" stroke-linejoin="round"/>
<path d="M43.8599 19V23C43.0559 23.6624 42.0466 24.0246 41.0049 24.0246C39.9632 24.0246 38.9539 23.6624 38.1499 23V20.13" stroke="#404366" stroke-width="0.75" stroke-linecap="round" stroke-linejoin="round"/>
<path d="M38.2998 17.3199C38.6199 17.4611 38.9697 17.5212 39.3185 17.4951C39.6673 17.4689 40.0044 17.3572 40.2998 17.1699" stroke="#404366" stroke-width="0.75" stroke-linecap="round" stroke-linejoin="round"/>
<path d="M40.3501 11.69C40.9586 11.6512 41.5695 11.7085 42.1602 11.86" stroke="#404366" stroke-width="0.75" stroke-linecap="round" stroke-linejoin="round"/>
<path d="M36.1802 12.0001L37.5602 11.3301" stroke="#404366" stroke-width="0.75" stroke-linecap="round" stroke-linejoin="round"/>
<path d="M36.5801 14.5399C36.5801 14.3118 36.6707 14.0931 36.832 13.9318C36.9933 13.7705 37.212 13.6799 37.4401 13.6799C37.6681 13.6799 37.8869 13.7705 38.0482 13.9318C38.2095 14.0931 38.3002 14.3118 38.3002 14.5399" stroke="#404366" stroke-width="0.75" stroke-linecap="round" stroke-linejoin="round"/>
<path d="M40.3901 14.54C40.4131 14.3267 40.5142 14.1293 40.6738 13.9859C40.8335 13.8425 41.0405 13.7632 41.2551 13.7632C41.4697 13.7632 41.6768 13.8425 41.8364 13.9859C41.9961 14.1293 42.0971 14.3267 42.1201 14.54" stroke="#404366" stroke-width="0.75" stroke-linecap="round" stroke-linejoin="round"/>
<path d="M38.1201 23C38.1201 23 32.1201 23.5 29.2701 27.25C27.4901 29.6 26.3301 37.3 26.3301 37.3" stroke="#404366" stroke-width="0.75" stroke-linecap="round" stroke-linejoin="round"/>
<path d="M43.8599 22.9399C43.8599 22.9399 49.8598 23.4899 52.6998 27.2299C54.6998 29.7999 56.1598 35.7299 56.4398 40.2299C56.5475 42.4826 55.8767 44.7037 54.5399 46.5199C53.1925 48.2369 51.3808 49.5315 49.3198 50.2499C47.2267 50.9724 45.0707 51.498 42.8799 51.8199" stroke="#404366" stroke-width="0.75" stroke-linecap="round" stroke-linejoin="round"/>
<path d="M49.42 40.9399C47.2548 42.6713 44.9311 44.1947 42.48 45.4899C42.9462 45.8468 43.3309 46.299 43.6085 46.8163C43.8861 47.3336 44.0503 47.9042 44.09 48.4899C44.1313 49.0926 44.0449 49.6972 43.8364 50.2642C43.6279 50.8311 43.302 51.3477 42.88 51.7799" stroke="#404366" stroke-width="0.75" stroke-linecap="round" stroke-linejoin="round"/>
<path d="M31.3297 46.2399C30.4982 46.6857 29.5863 46.9612 28.6471 47.0505C27.7079 47.1398 26.7603 47.041 25.8598 46.7599C24.0898 46.1499 22.4897 44.1399 21.4697 42.6499C19.6997 40.0599 18.7998 37.0899 17.3098 34.3299C17.3043 34.3103 17.3043 34.2895 17.3098 34.2699C18.9802 33.3165 20.7066 32.4649 22.4798 31.7199L22.6198 31.6599C24.025 34.0737 25.6024 36.383 27.3397 38.5699" stroke="#404366" stroke-width="0.75" stroke-linecap="round" stroke-linejoin="round"/>
<path d="M42.48 45.49C41.82 44.95 41.01 44.25 40.35 43.71C40.2891 43.6644 40.2173 43.6357 40.1417 43.6269C40.0662 43.6181 39.9897 43.6295 39.92 43.66C39.8454 43.697 39.7825 43.754 39.7384 43.8246C39.6943 43.8952 39.6706 43.9767 39.67 44.06C39.6207 44.7071 39.7198 45.357 39.96 45.96" stroke="#404366" stroke-width="0.75" stroke-linecap="round" stroke-linejoin="round"/>
<path d="M40.6099 46.1399C39.4116 45.9849 38.1983 45.9849 36.9999 46.1399C36.7051 46.1536 36.4175 46.2358 36.16 46.3799C36.0314 46.451 35.9284 46.5606 35.8655 46.6935C35.8027 46.8263 35.7833 46.9755 35.81 47.1199C35.91 47.5299 36.41 47.6599 36.81 47.7199L39.42 48.0999C38.5349 48.1572 37.6643 48.3529 36.8399 48.6799C36.4899 48.8199 36.2399 49.0199 36.2399 49.3399C36.2437 49.4379 36.2723 49.5334 36.3231 49.6173C36.3738 49.7013 36.445 49.771 36.53 49.8199C36.7157 49.9031 36.9165 49.9473 37.1199 49.9499L39.77 50.1499" stroke="#404366" stroke-width="0.75" stroke-linecap="round" stroke-linejoin="round"/>
<path d="M38 51.5901C39.5685 52.1083 41.2481 52.1912 42.86 51.8301" stroke="#404366" stroke-width="0.75" stroke-linecap="round" stroke-linejoin="round"/>
<path d="M31.6299 32.24C30.8052 36.1821 31.1315 40.2782 32.5698 44.04C30.3789 47.5264 29.011 51.466 28.5698 55.56" stroke="#404366" stroke-width="0.75" stroke-linecap="round" stroke-linejoin="round"/>
<path d="M44.2801 35.57C43.7901 35.64 35.2801 36.42 34.7501 36.49C34.4132 36.5726 34.0579 36.53 33.7501 36.37C33.6384 36.2766 33.5535 36.1551 33.5043 36.018C33.455 35.8809 33.4433 35.7332 33.4701 35.59C33.5036 35.4476 33.5661 35.3137 33.6539 35.1967C33.7417 35.0796 33.8528 34.9821 33.9801 34.91C34.5027 34.6845 35.073 34.5917 35.6401 34.64L37.2201 34.52L44.0801 34.03" stroke="#404366" stroke-width="0.75" stroke-linecap="round" stroke-linejoin="round"/>
<path d="M33.52 36.5701C33.52 36.6901 34.41 51.1001 34.41 51.1001L37.48 50.8601" stroke="#404366" stroke-width="0.75" stroke-linecap="round" stroke-linejoin="round"/>
<path d="M36.04 34.4701V33.1701L48.3199 32.3701" stroke="#404366" stroke-width="0.75" stroke-linecap="round" stroke-linejoin="round"/>
<path d="M44.8901 33.8499L48.5001 33.6399C48.5001 33.7899 48.7301 41.0899 48.7301 41.0899" stroke="#404366" stroke-width="0.75" stroke-linecap="round" stroke-linejoin="round"/>
<path d="M44.28 34.1599C44.1248 34.2045 43.9878 34.2973 43.8889 34.425C43.79 34.5526 43.7343 34.7085 43.73 34.8699C43.7349 35.03 43.7909 35.1844 43.8899 35.3103C43.9889 35.4363 44.1256 35.5273 44.28 35.5699L45.04 43.6199" stroke="#404366" stroke-width="0.75" stroke-linecap="round" stroke-linejoin="round"/>
<path d="M36.04 23.3201L38.4 26.6701L40.64 25.0001L43.24 26.6701L45.4301 23.3201" stroke="#404366" stroke-width="0.75" stroke-linecap="round" stroke-linejoin="round"/>
<path d="M42.3707 38.5317L35.7075 39.1299L35.9033 41.3111L42.5665 40.7129L42.3707 38.5317Z" stroke="#404366" stroke-width="0.75" stroke-linecap="round" stroke-linejoin="round"/>
<path d="M22.4599 31.7201C20.6868 32.4651 18.9604 33.3166 17.29 34.2701C16.7463 33.411 16.2969 32.4957 15.9499 31.5401C15.8268 31.5282 15.7077 31.4899 15.6007 31.4277C15.4937 31.3656 15.4013 31.2811 15.3299 31.1801C15.0896 30.9407 14.8721 30.6796 14.68 30.4001C14.441 30.0744 14.28 29.698 14.2099 29.3001C14.1099 28.7301 14.76 27.9201 15.41 28.3001C15.2919 28.0326 15.2338 27.7424 15.24 27.4501C15.3 26.9901 16.2399 26.6701 16.6899 27.0101C16.6099 26.6801 16.53 26.3501 16.48 26.0101C16.3998 25.7086 16.3998 25.3915 16.48 25.0901C16.5279 24.9412 16.6212 24.8111 16.7467 24.7179C16.8722 24.6246 17.0237 24.573 17.18 24.5701C17.52 24.5701 17.7599 24.9101 17.9399 25.1901C18.5499 26.1901 19.2899 27.3001 19.9399 28.2701C20.0453 27.9107 20.169 27.557 20.31 27.2101C20.3621 27.0965 20.4382 26.9956 20.5332 26.9144C20.6282 26.8332 20.7397 26.7738 20.86 26.7401C20.9797 26.7214 21.1022 26.7452 21.2063 26.8073C21.3103 26.8694 21.3895 26.9659 21.43 27.0801C21.5101 27.3077 21.5407 27.5497 21.52 27.7901C21.5335 29.1541 21.8547 30.4975 22.4599 31.7201V31.7201Z" stroke="#404366" stroke-width="0.75" stroke-linecap="round" stroke-linejoin="round"/>
<path d="M19.9202 28.25C19.7799 28.6589 19.6663 29.0764 19.5801 29.5" stroke="#404366" stroke-width="0.75" stroke-linecap="round" stroke-linejoin="round"/>
<path d="M17.2 28.39C16.9901 27.9388 16.8195 27.4704 16.6899 26.99" stroke="#404366" stroke-width="0.75" stroke-linecap="round" stroke-linejoin="round"/>
<path d="M17.3003 28.58C17.4873 28.9194 17.6157 29.2879 17.6803 29.67C17.7003 29.8407 17.653 30.0124 17.5485 30.1487C17.4439 30.285 17.2902 30.3752 17.1202 30.4C16.9755 30.3763 16.8378 30.3209 16.7168 30.238C16.5958 30.155 16.4946 30.0465 16.4203 29.92C16.0132 29.4586 15.6762 28.9397 15.4203 28.38C15.4172 28.3468 15.4172 28.3133 15.4203 28.28" stroke="#404366" stroke-width="0.75" stroke-linecap="round" stroke-linejoin="round"/>
<path d="M16 31.54C16.0863 31.5267 16.169 31.4959 16.2429 31.4495C16.3169 31.4031 16.3806 31.342 16.4301 31.2701C16.5087 31.1188 16.5755 30.9616 16.63 30.8" stroke="#404366" stroke-width="0.75" stroke-linecap="round" stroke-linejoin="round"/>
<path d="M17.3098 34.33C17.3043 34.3104 17.3043 34.2896 17.3098 34.27" stroke="#404366" stroke-width="0.75" stroke-linecap="round" stroke-linejoin="round"/>
<path d="M16.0002 31.54C15.9973 31.5201 15.9973 31.4999 16.0002 31.48" stroke="#404366" stroke-width="0.75" stroke-linecap="round" stroke-linejoin="round"/>
<path d="M45.7501 13.8301V14.7201C45.7422 16.233 45.1384 17.6818 44.0695 18.7525C43.0007 19.8233 41.553 20.4296 40.0401 20.4401C38.9597 20.4405 37.9013 20.1345 36.988 19.5574C36.0746 18.9803 35.3436 18.156 34.8801 17.1801C34.5015 16.4155 34.3064 15.5733 34.3101 14.7201V13.8301C34.3101 12.3131 34.9127 10.8582 35.9854 9.78546C37.0581 8.71275 38.513 8.11011 40.0301 8.11011C41.5471 8.11011 43.0021 8.71275 44.0748 9.78546C45.1475 10.8582 45.7501 12.3131 45.7501 13.8301V13.8301Z" stroke="#404366" stroke-width="0.75" stroke-linecap="round" stroke-linejoin="round"/>
<path d="M47.2798 11.69V12.91C47.2736 13.913 47.0336 14.9008 46.5787 15.7948C46.1239 16.6888 45.4669 17.4644 44.6598 18.06C45.3701 17.0914 45.752 15.9211 45.7498 14.72V13.83C45.7498 12.313 45.1472 10.8581 44.0745 9.78535C43.0018 8.71264 41.5468 8.11 40.0298 8.11C38.5127 8.11 37.0578 8.71264 35.9851 9.78535C34.9124 10.8581 34.3098 12.313 34.3098 13.83V14.72C34.3061 15.5731 34.5012 16.4154 34.8798 17.18C33.8127 16.0138 33.2205 14.4907 33.2197 12.91V11.69C33.2747 9.88541 34.0419 8.17598 35.3536 6.93545C36.6654 5.69492 38.4149 5.02423 40.2197 5.07C40.3094 5.05967 40.4 5.05967 40.4897 5.07H41.1097C42.4966 5.2272 43.8072 5.78685 44.8798 6.67999C44.9103 6.69415 44.9376 6.71461 44.9597 6.74C45.0441 6.80118 45.1243 6.86799 45.1997 6.94C45.8552 7.5455 46.3785 8.28005 46.7365 9.0975C47.0944 9.91495 47.2794 10.7976 47.2798 11.69Z" stroke="#404366" stroke-width="0.75" stroke-linecap="round" stroke-linejoin="round"/>
<path d="M46.4199 4.25C46.4189 4.76172 46.2868 5.26465 46.0365 5.71098C45.7862 6.15731 45.4259 6.5322 44.9899 6.8C44.9677 6.77461 44.9405 6.75417 44.9099 6.74001C43.8374 5.84687 42.5268 5.2872 41.1399 5.13H40.5199C40.412 4.72065 40.3921 4.29309 40.4612 3.87544C40.5304 3.45779 40.6871 3.05951 40.9212 2.70677C41.1552 2.35403 41.4613 2.05482 41.8192 1.82881C42.1772 1.6028 42.5788 1.4551 42.9979 1.39543C43.4171 1.33576 43.8441 1.36546 44.2509 1.48259C44.6577 1.59972 45.0351 1.80163 45.3583 2.07503C45.6815 2.34843 45.9433 2.68714 46.1262 3.06889C46.3092 3.45065 46.4093 3.86679 46.4199 4.28999V4.25Z" stroke="#404366" stroke-width="0.75" stroke-linecap="round" stroke-linejoin="round"/>
<path d="M16.05 15.57C16.05 13.9849 14.7651 12.7 13.1801 12.7C11.595 12.7 10.3101 13.9849 10.3101 15.57V17.1C10.3101 18.685 11.595 19.97 13.1801 19.97C14.7651 19.97 16.05 18.685 16.05 17.1V15.57Z" stroke="#404366" stroke-width="0.75" stroke-linecap="round" stroke-linejoin="round"/>
<path d="M26.9099 15.57C26.9099 13.9849 25.625 12.7 24.0399 12.7C22.4549 12.7 21.1699 13.9849 21.1699 15.57V17.1C21.1699 18.685 22.4549 19.97 24.0399 19.97C25.625 19.97 26.9099 18.685 26.9099 17.1V15.57Z" stroke="#404366" stroke-width="0.75" stroke-linecap="round" stroke-linejoin="round"/>
<path d="M16.06 17.0701C15.9973 17.409 16.0075 17.7573 16.0903 18.0919C16.1731 18.4265 16.3265 18.7395 16.54 19.0101C16.7651 19.2708 17.0789 19.4387 17.4207 19.4812C17.7626 19.5237 18.1079 19.4378 18.39 19.2401" stroke="#404366" stroke-width="0.75" stroke-linecap="round" stroke-linejoin="round"/>
<path d="M8.18994 20.1001C8.99914 19.5931 9.68293 18.9093 10.1899 18.1001" stroke="#404366" stroke-width="0.75" stroke-linecap="round" stroke-linejoin="round"/>
<path d="M6.93994 20.9099H31.75" stroke="#404366" stroke-width="0.75" stroke-linecap="round" stroke-linejoin="round"/>
<path d="M6.93994 11.8601H31.75" stroke="#404366" stroke-width="0.75" stroke-linecap="round" stroke-linejoin="round"/>
<path d="M0.799805 43.8999H22.3497" stroke="#404366" stroke-width="0.75" stroke-linecap="round" stroke-linejoin="round"/>
<path d="M21.1699 7.76001V17.33" stroke="#404366" stroke-width="0.75" stroke-linecap="round" stroke-linejoin="round"/>
</svg>
