<svg width="31" height="31" viewBox="0 0 31 31" fill="none" xmlns="http://www.w3.org/2000/svg">
<path d="M26.0271 28.57H4.15576L6.09792 1H27.9692L26.0271 28.57Z" stroke="#404366" stroke-width="0.75" stroke-linecap="round" stroke-linejoin="round"/>
<path d="M20.5539 7.31177H7.63745L7.8747 3.97559H20.7911L20.5539 7.31177Z" fill="white" stroke="#404366" stroke-width="0.75" stroke-linecap="round" stroke-linejoin="round"/>
<path d="M24.3611 22.3786H13.3647L13.7951 16.2422H24.7915L24.3611 22.3786Z" fill="white" stroke="#404366" stroke-width="0.75" stroke-linecap="round" stroke-linejoin="round"/>
<path d="M25.4205 7.31177H22.0603L22.292 3.97559H25.6577L25.4205 7.31177Z" fill="white" stroke="#404366" stroke-width="0.75" stroke-linecap="round" stroke-linejoin="round"/>
<path d="M7.50488 9.21484H13.2707" stroke="#404366" stroke-width="0.75" stroke-linecap="round" stroke-linejoin="round"/>
<path d="M7.34497 11.4189H13.1163" stroke="#404366" stroke-width="0.75" stroke-linecap="round" stroke-linejoin="round"/>
<path d="M7.19092 13.623H12.9622" stroke="#404366" stroke-width="0.75" stroke-linecap="round" stroke-linejoin="round"/>
<path d="M6.948 17.1064H12.7138" stroke="#404366" stroke-width="0.75" stroke-linecap="round" stroke-linejoin="round"/>
<path d="M6.7876 19.3105H12.5589" stroke="#404366" stroke-width="0.75" stroke-linecap="round" stroke-linejoin="round"/>
<path d="M6.6333 21.5146H12.4046" stroke="#404366" stroke-width="0.75" stroke-linecap="round" stroke-linejoin="round"/>
<path d="M14.6504 9.21484H20.4217" stroke="#404366" stroke-width="0.75" stroke-linecap="round" stroke-linejoin="round"/>
<path d="M14.4956 11.4189H20.2669" stroke="#404366" stroke-width="0.75" stroke-linecap="round" stroke-linejoin="round"/>
<path d="M14.3413 13.623H20.1071" stroke="#404366" stroke-width="0.75" stroke-linecap="round" stroke-linejoin="round"/>
<path d="M21.9224 9.21484H25.288" stroke="#404366" stroke-width="0.75" stroke-linecap="round" stroke-linejoin="round"/>
<path d="M21.7676 11.4189H25.1332" stroke="#404366" stroke-width="0.75" stroke-linecap="round" stroke-linejoin="round"/>
<path d="M21.6133 13.623H24.9789" stroke="#404366" stroke-width="0.75" stroke-linecap="round" stroke-linejoin="round"/>
<path d="M6.45679 24.0195H24.2452" stroke="#404366" stroke-width="0.75" stroke-linecap="round" stroke-linejoin="round"/>
<path d="M6.32446 25.9502H24.1073" stroke="#404366" stroke-width="0.75" stroke-linecap="round" stroke-linejoin="round"/>
<path d="M28.4387 2.4873H30.0002L27.9698 30.0026H7.19092" stroke="#404366" stroke-width="0.75" stroke-linecap="round" stroke-linejoin="round"/>
<path d="M17.6242 13.6611H1.84969C1.38042 13.6611 1 14.0382 1 14.5034V24.3424C1 24.8076 1.38042 25.1846 1.84969 25.1846H17.6242C18.0934 25.1846 18.4739 24.8076 18.4739 24.3424V14.5034C18.4739 14.0382 18.0934 13.6611 17.6242 13.6611Z" fill="white" stroke="#404366" stroke-width="0.75" stroke-linecap="round" stroke-linejoin="round"/>
<path d="M7.49411 19.6333C7.51789 20.5231 7.32882 21.4058 6.94237 22.2093C6.54511 22.9749 5.97129 23.4508 5.33126 23.4508C4.12293 23.4508 3.12427 21.7444 3.12427 19.6224C3.12427 17.5003 4.10086 15.7939 5.33126 15.7939C6.00439 15.7939 6.6058 16.3409 6.98651 17.1558C7.33822 17.9343 7.51157 18.7804 7.49411 19.6333V19.6333Z" stroke="#404366" stroke-width="0.75" stroke-linecap="round" stroke-linejoin="round"/>
<path d="M5.30906 22.1113C4.87318 22.1113 4.20557 21.1214 4.20557 19.6338C4.20557 18.1462 4.86215 17.1562 5.30906 17.1562C5.75598 17.1562 6.41256 18.1462 6.41256 19.6338C6.41256 21.1214 5.74494 22.1113 5.30906 22.1113Z" fill="#404366"/>
<path d="M10.7606 19.7487C10.7606 21.8598 9.78405 23.4513 8.55365 23.4513H5.24316C5.88319 23.4513 6.45701 22.9755 6.85427 22.2098C7.24072 21.4064 7.42979 20.5237 7.40602 19.6339C7.42022 18.7884 7.24694 17.9501 6.89841 17.1782C6.49563 16.3469 5.89423 15.8164 5.24316 15.8164H8.55365C9.80061 15.8164 10.7606 17.6431 10.7606 19.7487Z" stroke="#404366" stroke-width="0.75" stroke-linecap="round" stroke-linejoin="round"/>
<path d="M14.4736 13.6611V25.1846" stroke="#404366" stroke-width="0.75" stroke-linecap="round" stroke-linejoin="round"/>
<path d="M6.7604 11.9219H4.0127V13.6611H6.7604V11.9219Z" fill="white" stroke="#404366" stroke-width="0.75" stroke-linecap="round" stroke-linejoin="round"/>
<path d="M6.03733 12.6328H4.74072V13.6665H6.03733V12.6328Z" fill="#404366"/>
<path d="M12.6362 12.7803H10.7327V13.6608H12.6362V12.7803Z" fill="white" stroke="#404366" stroke-width="0.75" stroke-linecap="round" stroke-linejoin="round"/>
<path d="M15.4611 12.7803H13.5576V13.6608H15.4611V12.7803Z" fill="white" stroke="#404366" stroke-width="0.75" stroke-linecap="round" stroke-linejoin="round"/>
</svg>
