<svg viewBox="0 0 1200 1000" fill="none" xmlns="http://www.w3.org/2000/svg">
<g id="segment-care-07-fara-trafic-de-persoane">
<g id="Group 1152">
<g id="Group 1144">
<path id="Vector" d="M822.265 416.415C816.67 423.39 811.595 430.833 807.119 439.525C800.639 452.069 803.007 464.691 798.609 477.807C795.616 486.733 782.656 503.389 783.593 511.821C784.972 524.417 797.36 519.55 804.49 522.777C814.068 527.123 816.202 537.585 815.447 547.318C813.443 572.562 791.999 587.136 772.454 599.498C746.794 615.737 736.149 625.392 719.832 651.312C713.95 660.681 709.734 673.668 702.265 682.308C690.138 696.309 656.045 707.213 637.984 716.035C620.99 724.337 601.185 732.353 582.239 734.018C578.101 734.383 575.316 734.799 573 735.372" stroke="#7937C4" stroke-width="10.2292" stroke-miterlimit="10" stroke-linejoin="round" stroke-dasharray="12.79 12.79"/>
<path id="Vector_2" d="M820.47 435.881C831.206 435.881 839.91 427.177 839.91 416.44C839.91 405.704 831.206 397 820.47 397C809.733 397 801.029 405.704 801.029 416.44C801.029 427.177 809.733 435.881 820.47 435.881Z" fill="white" stroke="#7937C4" stroke-width="10.2292" stroke-miterlimit="10" stroke-linecap="round" stroke-linejoin="round"/>
</g>
<g id="icon-fara-trafic-de-persoane 1">
<path id="Vector_3" d="M820.709 342.827V348.563C820.716 349.904 820.291 351.212 819.496 352.293C818.701 353.374 817.58 354.17 816.297 354.563L801.318 358.975" stroke="#7937C4" stroke-width="2.49537" stroke-linecap="round" stroke-linejoin="round"/>
<path id="Vector_4" d="M859.16 297.295C859.39 298.837 859.508 300.392 859.513 301.95V313.51C859.519 317.516 858.736 321.485 857.208 325.189C855.68 328.892 853.438 332.259 850.609 335.096C847.779 337.933 844.419 340.185 840.72 341.724C837.021 343.262 833.055 344.057 829.048 344.063C825.033 344.069 821.056 343.283 817.346 341.749C813.635 340.216 810.263 337.967 807.423 335.129C804.583 332.291 802.33 328.92 800.795 325.211C799.259 321.501 798.47 317.525 798.473 313.51V301.95C798.466 295.335 800.62 288.898 804.605 283.618" stroke="#7937C4" stroke-width="2.49537" stroke-linecap="round" stroke-linejoin="round"/>
<path id="Vector_5" d="M793.751 325.245V296.015C793.751 292.047 794.533 288.118 796.052 284.453C797.571 280.787 799.798 277.457 802.604 274.652C805.411 271.848 808.743 269.624 812.409 268.107C816.076 266.591 820.005 265.812 823.973 265.815H834.011C837.988 265.797 841.929 266.566 845.609 268.075C849.288 269.585 852.633 271.807 855.451 274.613C858.27 277.419 860.506 280.755 862.032 284.427C863.558 288.1 864.344 292.038 864.344 296.015V350.327" stroke="#7937C4" stroke-width="2.49537" stroke-linecap="round" stroke-linejoin="round"/>
<path id="Vector_6" d="M803.793 282.956C803.793 282.956 822.39 296.854 860.554 296.854" stroke="#7937C4" stroke-width="2.49537" stroke-linecap="round" stroke-linejoin="round"/>
<path id="Vector_7" d="M822.696 304.156C822.696 305.373 822.212 306.54 821.352 307.401C820.491 308.261 819.324 308.745 818.107 308.745C816.89 308.745 815.723 308.261 814.863 307.401C814.002 306.54 813.519 305.373 813.519 304.156" stroke="#7937C4" stroke-width="2.49537" stroke-linecap="round" stroke-linejoin="round"/>
<path id="Vector_8" d="M842.595 304.156C842.595 305.373 842.112 306.54 841.251 307.401C840.39 308.261 839.224 308.745 838.007 308.745C836.79 308.745 835.623 308.261 834.762 307.401C833.901 306.54 833.418 305.373 833.418 304.156" stroke="#7937C4" stroke-width="2.49537" stroke-linecap="round" stroke-linejoin="round"/>
<path id="Vector_9" d="M852.587 324.053C852.775 324.485 852.873 324.95 852.874 325.421C852.876 326.078 852.684 326.72 852.323 327.27C851.963 327.819 851.448 328.25 850.845 328.509C850.183 328.796 849.411 329.127 848.639 329.435C849.126 329.571 849.577 329.814 849.959 330.146C850.34 330.478 850.643 330.891 850.845 331.355C851.044 331.784 851.149 332.25 851.154 332.722C851.15 333.381 850.954 334.025 850.59 334.574C850.225 335.122 849.708 335.552 849.102 335.811L847.8 336.363V336.583C847.802 337.24 847.61 337.883 847.249 338.432C846.889 338.981 846.374 339.412 845.771 339.671C841.535 341.503 833.726 344.812 826.865 344.436L814.931 344.392C814.247 344.417 813.57 344.543 812.923 344.767L795.076 351.187C795.076 351.187 785.921 326.921 785.899 326.921L808.136 322.861L811.07 318.626C812.02 317.232 813.449 316.235 815.085 315.824L832.512 311.413C832.968 311.295 833.444 311.283 833.905 311.377C834.366 311.472 834.799 311.67 835.171 311.957C835.544 312.245 835.846 312.613 836.054 313.035C836.262 313.456 836.371 313.92 836.373 314.391C836.377 314.978 836.208 315.553 835.888 316.045L834.564 318.428C838.672 318.046 842.739 317.308 846.719 316.221L848.925 315.515C849.723 315.24 850.596 315.276 851.368 315.615C852.141 315.954 852.758 316.573 853.095 317.347C853.284 317.77 853.382 318.229 853.381 318.692C853.382 319.352 853.19 319.997 852.829 320.549C852.469 321.102 851.956 321.537 851.352 321.803L850.271 322.266C850.771 322.36 851.241 322.571 851.644 322.881C852.046 323.192 852.37 323.593 852.587 324.053Z" fill="white" stroke="#7937C4" stroke-width="2.49537" stroke-linecap="round" stroke-linejoin="round"/>
<path id="Vector_10" d="M832.294 326.04C838.468 325.964 844.561 324.635 850.207 322.135" stroke="#7937C4" stroke-width="2.49537" stroke-linecap="round" stroke-linejoin="round"/>
<path id="Vector_11" d="M834.565 318.407C832.359 318.65 830.263 318.783 828.102 318.826" stroke="#7937C4" stroke-width="2.49537" stroke-linecap="round" stroke-linejoin="round"/>
<path id="Vector_12" d="M848.573 329.438C843.292 331.69 837.614 332.86 831.873 332.879" stroke="#7937C4" stroke-width="2.49537" stroke-linecap="round" stroke-linejoin="round"/>
<path id="Vector_13" d="M848.574 329.438H848.55" stroke="#7937C4" stroke-width="2.49537" stroke-linecap="round" stroke-linejoin="round"/>
<path id="Vector_14" d="M830.129 340.158C836.209 340.108 842.214 338.817 847.777 336.363" stroke="#7937C4" stroke-width="2.49537" stroke-linecap="round" stroke-linejoin="round"/>
<path id="Vector_15" d="M834.566 318.407L834.542 318.432" stroke="#7937C4" stroke-width="2.49537" stroke-linecap="round" stroke-linejoin="round"/>
<path id="Vector_16" d="M785.9 326.922L770.325 329.79L780.076 356.615L795.077 351.188" stroke="#7937C4" stroke-width="2.49537" stroke-linecap="round" stroke-linejoin="round"/>
<path id="Vector_17" d="M784.956 269.287L781.306 272.937L808.256 299.896L811.907 296.247L784.956 269.287Z" fill="#7937C4"/>
<path id="Vector_18" d="M843.614 327.862L839.965 331.514L865.213 356.744L868.862 353.093L843.614 327.862Z" fill="#7937C4"/>
<path id="Vector_19" d="M839.529 342.827V348.563C839.523 349.904 839.948 351.212 840.743 352.293C841.537 353.374 842.659 354.17 843.942 354.563L858.92 358.975" stroke="#7937C4" stroke-width="2.49537" stroke-linecap="round" stroke-linejoin="round"/>
</g>
<text id="F&#196;&#131;r&#196;&#131; trafic de persoane" fill="#1E1E1E" xml:space="preserve" style="white-space: pre" font-family="Titillium Web" font-size="40" font-weight="600" letter-spacing="0px"><tspan x="327.578" y="327.9">F&#x103;r&#x103; trafic de persoane</tspan></text>
</g>
</g>
</svg>
